# Blender 5.0.1
# www.blender.org
mtllib thick_brick_arch.mtl
o Cube
newmtl Material.005
v -0.000500 0.500000 1.000000
v -0.000500 0.500000 1.500000
v -0.000500 0.500000 0.000000
v -0.000500 0.500000 -0.500000
v 1.000500 0.500000 1.000000
v 1.000500 0.500000 1.500000
v 1.000500 0.500000 0.000000
v 1.000500 0.500000 -0.500000
v -0.000500 0.542403 0.001801
v -0.000500 0.666570 0.028561
v -0.000500 0.705951 0.044386
v -0.000500 0.814110 0.110982
v -0.000500 0.845969 0.139022
v -0.000500 0.925765 0.237846
v -0.000500 0.946463 0.274898
v -0.000500 0.988778 0.394660
v -0.000500 0.995950 0.436491
v -0.000500 0.995950 0.563509
v -0.000500 0.988778 0.605340
v -0.000500 0.946463 0.725102
v -0.000500 0.925765 0.762154
v -0.000500 0.845969 0.860978
v -0.000500 0.814110 0.889018
v -0.000500 0.705951 0.955614
v -0.000500 0.666570 0.971439
v -0.000500 0.542403 0.998199
v -0.000500 0.584806 1.496397
v -0.000500 0.833140 1.442878
v -0.000500 0.911901 1.411228
v -0.000500 1.128220 1.278036
v -0.000500 1.191939 1.221956
v -0.000500 1.351529 1.024307
v -0.000500 1.392926 0.950204
v -0.000500 1.477555 0.710679
v -0.000500 1.491900 0.627018
v -0.000500 1.491900 0.372982
v -0.000500 1.477555 0.289321
v -0.000500 1.392926 0.049796
v -0.000500 1.351529 -0.024307
v -0.000500 1.191939 -0.221956
v -0.000500 1.128220 -0.278036
v -0.000500 0.911901 -0.411228
v -0.000500 0.833140 -0.442878
v -0.000500 0.584806 -0.496398
v 1.000500 0.542403 0.998199
v 1.000500 0.666570 0.971439
v 1.000500 0.705951 0.955614
v 1.000500 0.814110 0.889018
v 1.000500 0.845969 0.860978
v 1.000500 0.925765 0.762154
v 1.000500 0.946463 0.725102
v 1.000500 0.988778 0.605340
v 1.000500 0.995950 0.563509
v 1.000500 0.995950 0.436491
v 1.000500 0.988778 0.394660
v 1.000500 0.946463 0.274898
v 1.000500 0.925765 0.237846
v 1.000500 0.845969 0.139022
v 1.000500 0.814110 0.110982
v 1.000500 0.705951 0.044386
v 1.000500 0.666570 0.028561
v 1.000500 0.542403 0.001801
v 1.000500 0.584806 -0.496398
v 1.000500 0.833140 -0.442878
v 1.000500 0.911901 -0.411228
v 1.000500 1.128220 -0.278036
v 1.000500 1.191939 -0.221956
v 1.000500 1.351529 -0.024307
v 1.000500 1.392926 0.049796
v 1.000500 1.477555 0.289321
v 1.000500 1.491900 0.372982
v 1.000500 1.491900 0.627018
v 1.000500 1.477555 0.710679
v 1.000500 1.392926 0.950204
v 1.000500 1.351529 1.024307
v 1.000500 1.191939 1.221956
v 1.000500 1.128220 1.278036
v 1.000500 0.911901 1.411229
v 1.000500 0.833140 1.442878
v 1.000500 0.584806 1.496397
v 1.000500 0.708973 1.469638
v 1.000500 0.604486 0.984819
v 1.000500 0.749855 1.207158
v 1.000500 0.563604 1.247298
v 1.000500 0.656730 1.227228
v 1.000500 0.646889 1.483017
v 1.000500 0.573445 0.991509
v 1.000500 0.708212 1.089298
v 1.000500 0.553004 1.122748
v 1.000500 0.771056 1.456258
v 1.000500 0.635528 0.978129
v 1.000500 0.791497 1.325018
v 1.000500 0.574205 1.371848
v 1.000500 0.703292 1.217193
v 1.000500 0.610167 1.237263
v 1.000500 0.682851 1.348433
v 1.000500 0.630608 1.106023
v 1.000500 0.591806 1.114386
v 1.000500 0.628528 1.360140
v 1.000500 0.737174 1.336725
v 1.000500 0.669410 1.097661
v 1.000500 1.020061 1.344632
v 1.000500 0.760030 0.922316
v 1.000500 0.971165 1.083527
v 1.000500 0.808926 1.183421
v 1.000500 0.890045 1.133474
v 1.000500 0.965981 1.377930
v 1.000500 0.732991 0.938965
v 1.000500 0.892637 0.986272
v 1.000500 0.757438 1.069518
v 1.000500 1.074140 1.311334
v 1.000500 0.787070 0.905667
v 1.000500 1.049693 1.180781
v 1.000500 0.860413 1.297325
v 1.000500 0.930605 1.108500
v 1.000500 0.849486 1.158448
v 1.000500 0.955053 1.239053
v 1.000500 0.825038 1.027895
v 1.000500 0.791238 1.048707
v 1.000500 0.907733 1.268189
v 1.000500 1.002373 1.209917
v 1.000500 0.858838 1.007084
v 1.000500 1.271734 1.123132
v 1.000500 0.885867 0.811566
v 1.000500 1.138647 0.893230
v 1.000500 1.018954 1.041467
v 1.000500 1.078800 0.967349
v 1.000500 1.231836 1.172544
v 1.000500 0.865918 0.836272
v 1.000500 1.032206 0.827692
v 1.000500 0.932462 0.951223
v 1.000500 1.311632 1.073720
v 1.000500 0.905816 0.786860
v 1.000500 1.245088 0.958769
v 1.000500 1.105446 1.131712
v 1.000500 1.108724 0.930290
v 1.000500 1.048877 1.004408
v 1.000500 1.175267 1.045240
v 1.000500 0.982334 0.889457
v 1.000500 0.957398 0.920340
v 1.000500 1.140357 1.088476
v 1.000500 1.210178 1.002005
v 1.000500 1.007270 0.858575
v 1.000500 1.435241 0.830442
v 1.000500 0.967620 0.665221
v 1.000500 1.233166 0.658009
v 1.000500 1.169694 0.837653
v 1.000500 1.201430 0.747831
v 1.000500 1.414083 0.890323
v 1.000500 0.957042 0.695161
v 1.000500 1.110972 0.631675
v 1.000500 1.058079 0.781377
v 1.000500 1.456398 0.770561
v 1.000500 0.978199 0.635280
v 1.000500 1.355361 0.684344
v 1.000500 1.281310 0.893928
v 1.000500 1.217298 0.702920
v 1.000500 1.185562 0.792742
v 1.000500 1.318335 0.789136
v 1.000500 1.084525 0.706526
v 1.000500 1.071302 0.743952
v 1.000500 1.299823 0.841532
v 1.000500 1.336848 0.736740
v 1.000500 1.097749 0.669100
v 1.000500 1.491900 0.500000
v 1.000500 0.995950 0.500000
v 1.000500 1.243925 0.404737
v 1.000500 1.243925 0.595263
v 1.000500 1.243925 0.500000
v 1.000500 1.491900 0.563509
v 1.000500 0.995950 0.531754
v 1.000500 1.119938 0.420614
v 1.000500 1.119938 0.579386
v 1.000500 1.491900 0.436491
v 1.000500 0.995950 0.468246
v 1.000500 1.367913 0.388859
v 1.000500 1.367913 0.611141
v 1.000500 1.243925 0.452368
v 1.000500 1.243925 0.547632
v 1.000500 1.367913 0.500000
v 1.000500 1.119938 0.500000
v 1.000500 1.119938 0.539693
v 1.000500 1.367913 0.555570
v 1.000500 1.367913 0.444430
v 1.000500 1.119938 0.460307
v 1.000500 1.435241 0.169559
v 1.000500 0.967620 0.334779
v 1.000500 1.169694 0.162347
v 1.000500 1.233166 0.341991
v 1.000500 1.201430 0.252169
v 1.000500 1.456398 0.229440
v 1.000500 0.978199 0.364720
v 1.000500 1.058079 0.218623
v 1.000500 1.110972 0.368325
v 1.000500 1.414083 0.109677
v 1.000500 0.957042 0.304839
v 1.000500 1.281310 0.106072
v 1.000500 1.355361 0.315656
v 1.000500 1.185562 0.207258
v 1.000500 1.217299 0.297080
v 1.000500 1.318336 0.210864
v 1.000500 1.084525 0.293474
v 1.000500 1.097749 0.330900
v 1.000500 1.336848 0.263260
v 1.000500 1.299823 0.158468
v 1.000500 1.071302 0.256048
v 1.000500 1.271734 -0.123132
v 1.000500 0.885867 0.188434
v 1.000500 1.018954 -0.041467
v 1.000500 1.138647 0.106770
v 1.000500 1.078800 0.032651
v 1.000500 1.311632 -0.073719
v 1.000500 0.905816 0.213140
v 1.000500 0.932462 0.048777
v 1.000500 1.032206 0.172308
v 1.000500 1.231837 -0.172544
v 1.000500 0.865918 0.163728
v 1.000500 1.105447 -0.131712
v 1.000500 1.245088 0.041231
v 1.000500 1.048877 -0.004408
v 1.000500 1.108724 0.069710
v 1.000500 1.175267 -0.045240
v 1.000500 0.982334 0.110543
v 1.000500 1.007270 0.141425
v 1.000500 1.210178 -0.002005
v 1.000500 1.140357 -0.088476
v 1.000500 0.957398 0.079660
v 1.000500 1.020061 -0.344632
v 1.000500 0.760030 0.077684
v 1.000500 0.808926 -0.183421
v 1.000500 0.971165 -0.083527
v 1.000500 0.890045 -0.133474
v 1.000500 1.074140 -0.311334
v 1.000500 0.787070 0.094333
v 1.000500 0.757438 -0.069518
v 1.000500 0.892637 0.013728
v 1.000500 0.965981 -0.377930
v 1.000500 0.732990 0.061035
v 1.000500 0.860414 -0.297325
v 1.000500 1.049693 -0.180781
v 1.000500 0.849486 -0.158448
v 1.000500 0.930605 -0.108500
v 1.000500 0.955053 -0.239053
v 1.000500 0.825038 -0.027895
v 1.000500 0.858838 -0.007084
v 1.000500 1.002373 -0.209917
v 1.000500 0.907733 -0.268189
v 1.000500 0.791238 -0.048706
v 1.000500 0.708973 -0.469638
v 1.000500 0.604486 0.015181
v 1.000500 0.563604 -0.247298
v 1.000500 0.749855 -0.207158
v 1.000500 0.656730 -0.227228
v 1.000500 0.771056 -0.456258
v 1.000500 0.635528 0.021871
v 1.000500 0.553004 -0.122748
v 1.000500 0.708212 -0.089298
v 1.000500 0.646889 -0.483018
v 1.000500 0.573445 0.008491
v 1.000500 0.574205 -0.371848
v 1.000500 0.791497 -0.325018
v 1.000500 0.610167 -0.237263
v 1.000500 0.703292 -0.217193
v 1.000500 0.682851 -0.348433
v 1.000500 0.630608 -0.106023
v 1.000500 0.669410 -0.097661
v 1.000500 0.737174 -0.336725
v 1.000500 0.628528 -0.360140
v 1.000500 0.591806 -0.114386
v -0.000500 0.604486 0.015181
v -0.000500 0.708973 -0.469638
v -0.000500 0.749855 -0.207158
v -0.000500 0.563604 -0.247298
v -0.000500 0.656730 -0.227228
v -0.000500 0.573445 0.008491
v -0.000500 0.646889 -0.483018
v -0.000500 0.708212 -0.089298
v -0.000500 0.553004 -0.122748
v -0.000500 0.635528 0.021871
v -0.000500 0.771056 -0.456258
v -0.000500 0.791497 -0.325018
v -0.000500 0.574205 -0.371848
v -0.000500 0.682851 -0.348433
v -0.000500 0.630608 -0.106023
v -0.000500 0.610167 -0.237263
v -0.000500 0.703292 -0.217193
v -0.000500 0.669410 -0.097661
v -0.000500 0.591806 -0.114386
v -0.000500 0.628528 -0.360140
v -0.000500 0.737174 -0.336725
v -0.000500 0.760030 0.077684
v -0.000500 1.020061 -0.344632
v -0.000500 0.971165 -0.083527
v -0.000500 0.808926 -0.183421
v -0.000500 0.890045 -0.133474
v -0.000500 0.732991 0.061035
v -0.000500 0.965981 -0.377930
v -0.000500 0.892637 0.013728
v -0.000500 0.757438 -0.069518
v -0.000500 0.787070 0.094333
v -0.000500 1.074140 -0.311334
v -0.000500 1.049692 -0.180781
v -0.000500 0.860414 -0.297325
v -0.000500 0.955053 -0.239053
v -0.000500 0.825038 -0.027895
v -0.000500 0.849486 -0.158448
v -0.000500 0.930605 -0.108500
v -0.000500 0.858838 -0.007084
v -0.000500 0.791238 -0.048706
v -0.000500 0.907733 -0.268189
v -0.000500 1.002373 -0.209917
v -0.000500 0.885867 0.188434
v -0.000500 1.271734 -0.123132
v -0.000500 1.138647 0.106769
v -0.000500 1.018954 -0.041467
v -0.000500 1.078800 0.032651
v -0.000500 0.865918 0.163728
v -0.000500 1.231836 -0.172544
v -0.000500 1.032206 0.172308
v -0.000500 0.932462 0.048777
v -0.000500 0.905816 0.213140
v -0.000500 1.311631 -0.073720
v -0.000500 1.245088 0.041231
v -0.000500 1.105446 -0.131712
v -0.000500 1.175267 -0.045240
v -0.000500 0.982334 0.110543
v -0.000500 1.048877 -0.004408
v -0.000500 1.108724 0.069710
v -0.000500 1.007270 0.141425
v -0.000500 0.957398 0.079660
v -0.000500 1.140357 -0.088476
v -0.000500 1.210178 -0.002005
v -0.000500 0.967620 0.334779
v -0.000500 1.435241 0.169558
v -0.000500 1.233166 0.341991
v -0.000500 1.169694 0.162347
v -0.000500 1.201430 0.252169
v -0.000500 0.957042 0.304839
v -0.000500 1.414083 0.109677
v -0.000500 1.110972 0.368325
v -0.000500 1.058079 0.218623
v -0.000500 0.978199 0.364720
v -0.000500 1.456398 0.229440
v -0.000500 1.355361 0.315656
v -0.000500 1.281310 0.106072
v -0.000500 1.318335 0.210864
v -0.000500 1.084525 0.293474
v -0.000500 1.185562 0.207258
v -0.000500 1.217298 0.297080
v -0.000500 1.097749 0.330900
v -0.000500 1.071302 0.256048
v -0.000500 1.299823 0.158468
v -0.000500 1.336848 0.263260
v -0.000500 0.995950 0.500000
v -0.000500 1.491900 0.500000
v -0.000500 1.243925 0.595263
v -0.000500 1.243925 0.404737
v -0.000500 1.243925 0.500000
v -0.000500 0.995950 0.468246
v -0.000500 1.491900 0.436491
v -0.000500 1.119938 0.579386
v -0.000500 1.119938 0.420614
v -0.000500 0.995950 0.531754
v -0.000500 1.491900 0.563509
v -0.000500 1.367913 0.611141
v -0.000500 1.367913 0.388859
v -0.000500 1.367913 0.500000
v -0.000500 1.119938 0.500000
v -0.000500 1.243925 0.452368
v -0.000500 1.243925 0.547632
v -0.000500 1.119938 0.539693
v -0.000500 1.119938 0.460307
v -0.000500 1.367913 0.444430
v -0.000500 1.367913 0.555570
v -0.000500 0.967620 0.665221
v -0.000500 1.435241 0.830441
v -0.000500 1.169694 0.837653
v -0.000500 1.233166 0.658009
v -0.000500 1.201430 0.747831
v -0.000500 0.978199 0.635280
v -0.000500 1.456398 0.770560
v -0.000500 1.058079 0.781377
v -0.000500 1.110972 0.631675
v -0.000500 0.957042 0.695161
v -0.000500 1.414083 0.890323
v -0.000500 1.281310 0.893928
v -0.000500 1.355361 0.684344
v -0.000500 1.318336 0.789136
v -0.000500 1.084525 0.706526
v -0.000500 1.217299 0.702920
v -0.000500 1.185562 0.792742
v -0.000500 1.071302 0.743952
v -0.000500 1.097749 0.669100
v -0.000500 1.336848 0.736740
v -0.000500 1.299823 0.841532
v -0.000500 0.885867 0.811566
v -0.000500 1.271734 1.123132
v -0.000500 1.018954 1.041467
v -0.000500 1.138647 0.893230
v -0.000500 1.078800 0.967349
v -0.000500 0.905816 0.786860
v -0.000500 1.311632 1.073720
v -0.000500 0.932462 0.951223
v -0.000500 1.032206 0.827692
v -0.000500 0.865918 0.836272
v -0.000500 1.231837 1.172544
v -0.000500 1.105447 1.131711
v -0.000500 1.245088 0.958769
v -0.000500 1.175267 1.045240
v -0.000500 0.982334 0.889457
v -0.000500 1.108724 0.930290
v -0.000500 1.048877 1.004408
v -0.000500 0.957398 0.920340
v -0.000500 1.007270 0.858575
v -0.000500 1.210178 1.002005
v -0.000500 1.140357 1.088476
v -0.000500 0.760030 0.922316
v -0.000500 1.020061 1.344632
v -0.000500 0.808926 1.183421
v -0.000500 0.971165 1.083527
v -0.000500 0.890045 1.133474
v -0.000500 0.787070 0.905667
v -0.000500 1.074140 1.311334
v -0.000500 0.757438 1.069518
v -0.000500 0.892637 0.986272
v -0.000500 0.732990 0.938965
v -0.000500 0.965981 1.377930
v -0.000500 0.860414 1.297325
v -0.000500 1.049693 1.180781
v -0.000500 0.955053 1.239053
v -0.000500 0.825038 1.027895
v -0.000500 0.930605 1.108500
v -0.000500 0.849486 1.158448
v -0.000500 0.791238 1.048707
v -0.000500 0.858838 1.007084
v -0.000500 1.002373 1.209917
v -0.000500 0.907733 1.268189
v -0.000500 0.604486 0.984819
v -0.000500 0.708973 1.469638
v -0.000500 0.563604 1.247298
v -0.000500 0.749855 1.207158
v -0.000500 0.656730 1.227228
v -0.000500 0.635528 0.978129
v -0.000500 0.771056 1.456258
v -0.000500 0.553004 1.122748
v -0.000500 0.708212 1.089298
v -0.000500 0.573445 0.991509
v -0.000500 0.646889 1.483017
v -0.000500 0.574205 1.371848
v -0.000500 0.791497 1.325018
v -0.000500 0.682851 1.348433
v -0.000500 0.630608 1.106023
v -0.000500 0.703292 1.217193
v -0.000500 0.610167 1.237263
v -0.000500 0.591806 1.114386
v -0.000500 0.669410 1.097661
v -0.000500 0.737174 1.336725
v -0.000500 0.628528 1.360140
vn -1.0000 -0.0000 -0.0000
vn -0.0000 -1.0000 -0.0000
vn 1.0000 -0.0000 -0.0000
vn -0.0000 -0.0424 -0.9991
vn -0.0000 0.0424 0.9991
vn -0.0000 0.0424 -0.9991
vn -0.0000 0.3729 -0.9279
vn -0.0000 0.6607 -0.7507
vn -0.0000 0.8730 -0.4877
vn -0.0000 0.9856 -0.1690
vn -0.0000 0.9856 0.1690
vn -0.0000 0.8730 0.4877
vn -0.0000 0.5243 0.8515
vn -0.0000 0.7780 0.6282
vn -0.0000 0.9429 0.3331
vn -0.0000 0.6607 0.7507
vn -0.0000 1.0000 -0.0000
vn -0.0000 0.9429 -0.3331
vn -0.0000 0.7780 -0.6282
vn -0.0000 0.3729 0.9279
vn -0.0000 0.5243 -0.8515
vn -0.0000 0.2107 -0.9776
vn -0.0000 -0.0424 0.9991
vn -0.0000 -0.3729 0.9279
vn -0.0000 -0.6607 0.7507
vn -0.0000 -0.2107 0.9776
vn -0.0000 -0.5243 0.8515
vn -0.0000 -0.7780 0.6282
vn -0.0000 -0.8730 0.4877
vn -0.0000 -0.9429 0.3331
vn -0.0000 -0.9429 -0.3331
vn -0.0000 -0.9856 0.1690
vn -0.0000 -0.7780 -0.6282
vn -0.0000 -0.9856 -0.1690
vn -0.0000 -0.8730 -0.4877
vn -0.0000 -0.6607 -0.7507
vn -0.0000 -0.5243 -0.8515
vn -0.0000 0.2107 0.9776
vn -0.0000 -0.3729 -0.9279
vn -0.0000 -0.2107 -0.9776
vt 0.750000 0.812500
vt 0.250000 0.812500
vt 0.500000 0.750000
vt 0.250000 0.312500
vt 0.500000 0.250000
vt 0.500000 0.312500
vt 0.625000 0.750000
vt 0.375000 0.312500
vt 0.625000 0.250000
vt 0.625000 0.312500
vt 0.000000 0.312500
vt 1.000000 0.250000
vt 1.000000 0.312500
vt 1.000000 -0.000250
vt 0.000000 0.062250
vt 0.000000 -0.000250
vt 0.000000 0.250000
vt 1.000000 0.750000
vt 0.000000 0.812500
vt 0.000000 0.750000
vt 0.997121 0.250000
vt 1.000000 0.812500
vt 1.000000 0.249750
vt 0.000000 0.312250
vt 0.000000 0.249750
vt 1.000000 0.905000
vt 1.000000 0.951875
vt 0.000000 0.951875
vt 1.000000 0.406250
vt 1.000000 0.453125
vt 0.000000 0.453125
vt 1.000000 0.906250
vt 1.000000 0.953125
vt 0.000000 0.953125
vt 1.000000 0.249750
vt 0.000000 0.312250
vt 0.000000 0.249750
vt 0.500000 0.609375
vt 0.625000 0.562500
vt 0.625000 0.609375
vt 0.000000 0.062500
vt 1.000000 0.000000
vt 1.000000 0.062500
vt 0.000000 0.609375
vt 0.125000 0.562500
vt 0.125000 0.609375
vt 0.250000 0.859375
vt 0.375000 0.812500
vt 0.375000 0.859375
vt 0.500000 0.109375
vt 0.625000 0.062500
vt 0.625000 0.109375
vt 0.125000 0.109375
vt 0.000000 0.062500
vt 0.125000 0.062500
vt 0.375000 0.359375
vt 0.250000 0.312500
vt 0.375000 0.312500
vt 0.500000 0.562500
vt 0.000000 0.562500
vt 1.000000 0.500000
vt 1.000000 0.562500
vt 1.000000 0.406250
vt 0.000000 0.406250
vt 0.000000 0.375000
vt 1.000000 0.468750
vt 0.000000 0.468750
vt 0.000000 0.437500
vt 0.000000 0.906250
vt 0.000000 0.875000
vt 1.000000 0.968750
vt 0.000000 0.968750
vt 0.000000 0.937500
vt 0.000000 0.406250
vt 0.000000 0.375000
vt 1.000000 0.468750
vt 0.000000 0.468750
vt 0.000000 0.437500
vt 0.625000 0.812500
vt 0.750000 0.859375
vt 0.625000 0.859375
vt 0.375000 0.562500
vt 0.500000 0.609375
vt 0.375000 0.609375
vt 0.875000 0.562500
vt 1.000000 0.609375
vt 0.875000 0.609375
vt 0.625000 0.312500
vt 0.750000 0.359375
vt 0.625000 0.359375
vt 0.375000 0.062500
vt 0.500000 0.109375
vt 0.375000 0.109375
vt 0.875000 0.109375
vt 1.000000 0.062500
vt 1.000000 0.109375
vt 0.750000 0.812500
vt 1.000000 0.405000
vt 1.000000 0.451875
vt 0.000000 0.451875
vt 0.250000 0.812500
vt 1.000000 0.406250
vt 0.000000 0.406250
vt 0.000000 0.375000
vt 0.750000 0.250000
vt 0.500000 0.312500
vt 0.671875 0.562500
vt 0.562500 0.562500
vt 0.671875 0.500000
vt 0.000000 0.562500
vt 0.125000 0.500000
vt 0.750000 0.750000
vt 1.000000 0.000000
vt 1.000000 0.062500
vt 0.875000 0.062500
vt 0.250000 0.062500
vt 0.250000 0.000000
vt 0.375000 0.250000
vt 0.875000 0.500000
vt 1.000000 0.500000
vt 1.000000 0.562500
vt 0.500000 0.562500
vt 0.375000 0.500000
vt 0.500000 0.562500
vt 0.625000 0.500000
vt 0.250000 0.562500
vt 0.500000 0.812500
vt 0.875000 0.000000
vt 0.750000 0.062500
vt 0.375000 0.000000
vt 0.500000 0.000000
vt 0.500000 0.062500
vt 0.625000 0.250000
vt 0.625000 0.953125
vt 0.500000 0.906250
vt 0.625000 0.906250
vt 0.375000 0.953125
vt 0.250000 0.906250
vt 0.375000 0.906250
vt 0.500000 0.953125
vt 0.500000 1.000000
vt 0.375000 1.000000
vt 0.250000 0.953125
vt 0.750000 0.953125
vt 0.750000 0.906250
vt 0.750000 1.000000
vt 0.625000 1.000000
vt 0.500000 0.859375
vt 0.375000 0.703125
vt 0.250000 0.656250
vt 0.375000 0.656250
vt 0.125000 0.703125
vt 0.000000 0.656250
vt 0.125000 0.656250
vt 0.250000 0.703125
vt 0.250000 0.750000
vt 0.125000 0.750000
vt 0.000000 0.703125
vt 0.500000 0.703125
vt 0.500000 0.656250
vt 0.500000 0.750000
vt 0.375000 0.750000
vt 0.250000 0.609375
vt 0.750000 0.562500
vt 0.875000 0.703125
vt 0.750000 0.656250
vt 0.875000 0.656250
vt 0.625000 0.703125
vt 0.500000 0.656250
vt 0.625000 0.656250
vt 0.750000 0.703125
vt 0.750000 0.750000
vt 0.500000 0.703125
vt 1.000000 0.703125
vt 1.000000 0.656250
vt 1.000000 0.750000
vt 0.875000 0.750000
vt 0.750000 0.609375
vt 0.625000 0.359375
vt 0.625000 0.453125
vt 0.500000 0.406250
vt 0.625000 0.406250
vt 0.375000 0.453125
vt 0.250000 0.406250
vt 0.375000 0.406250
vt 0.500000 0.453125
vt 0.500000 0.500000
vt 0.250000 0.453125
vt 0.750000 0.453125
vt 0.750000 0.406250
vt 0.750000 0.500000
vt 0.750000 0.312500
vt 0.500000 0.359375
vt 0.250000 0.359375
vt 0.375000 0.109375
vt 0.250000 0.203125
vt 0.375000 0.156250
vt 0.375000 0.203125
vt 0.000000 0.203125
vt 0.125000 0.156250
vt 0.125000 0.203125
vt 0.250000 0.156250
vt 0.125000 0.250000
vt 0.250000 0.250000
vt 0.000000 0.250000
vt 0.500000 0.156250
vt 0.500000 0.203125
vt 0.500000 0.250000
vt 0.500000 0.062500
vt 0.250000 0.109375
vt 0.000000 0.109375
vt 0.750000 0.109375
vt 0.875000 0.109375
vt 0.750000 0.203125
vt 0.875000 0.156250
vt 0.875000 0.203125
vt 0.500000 0.203125
vt 0.625000 0.156250
vt 0.625000 0.203125
vt 0.750000 0.156250
vt 0.750000 0.250000
vt 0.500000 0.250000
vt 1.000000 0.156250
vt 1.000000 0.203125
vt 0.875000 0.250000
vt 1.000000 0.250000
vt 0.500000 0.156250
vt 0.250000 1.000000
vt 0.625000 0.453125
vt 0.250000 0.500000
vt 0.375000 0.203125
vt 0.000000 0.156250
vt 0.875000 0.203125
vt 0.250000 0.250000
vt 0.375000 0.250000
vt 1.000000 0.062250
vt 0.997121 0.312500
vt 1.000000 0.312250
vt 0.000000 0.858125
vt 0.000000 0.811250
vt 1.000000 0.811250
vt 1.000000 0.858125
vt 0.000000 0.905000
vt 1.000000 0.998750
vt 0.000000 0.998750
vt 0.000000 0.359375
vt 1.000000 0.359375
vt 0.000000 0.500000
vt 0.000000 0.859375
vt 1.000000 0.859375
vt 1.000000 1.000000
vt 0.000000 1.000000
vt 1.000000 0.312250
vt 0.000000 0.000000
vt 0.500000 0.062500
vt 0.000000 0.312500
vt 1.000000 0.312500
vt 1.000000 0.343750
vt 0.000000 0.343750
vt 1.000000 0.375000
vt 1.000000 0.437500
vt 1.000000 0.375000
vt 1.000000 0.437500
vt 1.000000 0.843750
vt 0.000000 0.843750
vt 1.000000 0.875000
vt 1.000000 0.937500
vt 1.000000 0.343750
vt 0.000000 0.343750
vt 0.000000 0.500000
vt 0.000000 0.358125
vt 0.000000 0.311250
vt 1.000000 0.311250
vt 1.000000 0.358125
vt 0.000000 0.405000
vt 1.000000 0.498750
vt 0.000000 0.498750
vt 0.000000 0.312500
vt 1.000000 0.312500
vt 1.000000 0.343750
vt 0.000000 0.343750
vt 1.000000 0.375000
vt 1.000000 0.437500
vt 0.000000 0.437500
vt 0.250000 0.312500
vt 0.250000 0.250000
vt 0.750000 0.312500
vt 0.562500 0.500000
vt 0.781250 0.500000
vt 0.890625 0.500000
vt 0.781250 0.562500
vt 0.890625 0.562500
vt 0.000000 0.500000
vt 0.250000 0.500000
vt 0.500000 0.500000
vt 0.500000 0.062500
vt 0.500000 -0.000000
vt 0.625000 0.000000
vt 0.750000 0.000000
vt 0.000000 0.062500
vt 0.000000 -0.000000
vt 0.125000 0.000000
vt 0.500000 0.500000
vt 0.750000 0.500000
s 0
usemtl Material.005
f 4/1/1 3/2/1 273/3/1
f 4/4/2 7/5/2 3/6/2
f 93/7/3 6/1/3 84/3/3
f 6/8/2 1/9/2 5/10/2
f 45/11/4 1/12/4 26/13/4
f 27/14/5 6/15/5 80/16/5
f 4/12/6 63/11/6 8/17/6
f 43/18/7 65/19/7 64/20/7
f 41/21/8 67/11/8 66/17/8
f 39/22/9 69/20/9 68/19/9
f 37/23/10 71/24/10 70/25/10
f 35/18/11 73/19/11 72/20/11
f 33/13/12 75/17/12 74/11/12
f 418/26/13 427/27/13 107/28/13
f 397/29/14 406/30/14 128/31/14
f 376/32/15 385/33/15 149/34/15
f 31/18/16 77/19/16 76/20/16
f 355/29/17 364/30/17 170/31/17
f 334/32/18 343/33/18 191/34/18
f 313/29/19 322/30/19 212/31/19
f 29/35/20 79/36/20 78/37/20
f 292/32/21 301/33/21 233/34/21
f 271/29/22 280/30/22 254/31/22
f 259/38/3 256/39/3 269/40/3
f 7/41/23 9/42/23 3/43/23
f 238/44/3 235/45/3 248/46/3
f 217/47/3 214/48/3 227/49/3
f 196/50/3 193/51/3 206/52/3
f 61/11/24 11/12/24 10/13/24
f 185/53/3 54/54/3 172/55/3
f 164/56/3 52/57/3 151/58/3
f 143/40/3 50/59/3 130/39/3
f 59/60/25 13/61/25 12/62/25
f 255/63/26 279/64/26 270/65/26
f 234/66/27 300/67/27 291/68/27
f 213/32/28 321/69/28 312/70/28
f 57/19/29 15/18/29 14/22/29
f 192/71/30 342/72/30 333/73/30
f 171/29/2 363/74/2 354/75/2
f 150/76/31 384/77/31 375/78/31
f 55/41/32 17/42/32 16/43/32
f 129/32/33 405/69/33 396/70/33
f 281/79/1 280/80/1 290/81/1
f 302/82/1 301/83/1 311/84/1
f 53/11/34 19/12/34 18/13/34
f 323/85/1 322/86/1 332/87/1
f 344/88/1 343/89/1 353/90/1
f 365/91/1 364/92/1 374/93/1
f 51/60/35 21/61/35 20/62/35
f 395/94/1 33/95/1 385/96/1
f 416/81/1 31/97/1 406/80/1
f 122/46/3 48/60/3 109/45/3
f 49/19/36 23/18/36 22/22/36
f 108/71/37 426/72/37 417/73/37
f 437/84/1 29/59/1 427/83/1
f 439/98/38 448/99/38 86/100/38
f 47/41/39 25/42/39 24/43/39
f 101/49/3 46/101/3 88/48/3
f 87/102/40 447/103/40 438/104/40
f 458/87/1 27/62/1 448/86/1
f 8/105/3 260/88/3 251/106/3
f 235/107/3 60/108/3 257/109/3
f 214/45/3 58/110/3 236/111/3
f 219/7/3 68/112/3 197/79/3
f 70/113/3 71/114/3 176/115/3
f 155/91/3 146/116/3 168/117/3
f 125/106/3 130/58/3 152/118/3
f 135/119/3 76/120/3 77/121/3
f 79/122/3 92/82/3 114/123/3
f 2/105/1 449/88/1 440/106/1
f 424/39/1 24/124/1 446/125/1
f 407/82/1 398/126/1 429/123/1
f 377/127/1 382/48/1 399/3/1
f 387/128/1 365/115/1 356/129/1
f 366/130/1 36/131/1 37/132/1
f 39/105/1 323/133/1 345/88/1
f 324/119/1 41/121/1 302/85/1
f 303/123/1 43/122/1 281/82/1
f 100/81/3 83/127/3 92/79/3
f 99/134/3 85/135/3 96/136/3
f 98/137/3 82/138/3 97/139/3
f 95/140/3 97/139/3 85/135/3
f 84/141/3 98/137/3 95/140/3
f 89/142/3 87/143/3 98/137/3
f 86/144/3 96/136/3 81/145/3
f 80/146/3 99/134/3 86/144/3
f 93/147/3 95/140/3 99/134/3
f 90/80/3 92/79/3 79/97/3
f 81/145/3 100/81/3 90/80/3
f 96/136/3 94/148/3 100/81/3
f 94/148/3 88/48/3 83/127/3
f 85/135/3 101/49/3 94/148/3
f 97/139/3 91/47/3 101/49/3
f 121/84/3 104/126/3 113/82/3
f 120/149/3 106/150/3 117/151/3
f 119/152/3 103/153/3 118/154/3
f 116/155/3 118/154/3 106/150/3
f 105/156/3 119/152/3 116/155/3
f 110/157/3 108/158/3 119/152/3
f 107/159/3 117/151/3 102/160/3
f 78/161/3 120/149/3 107/159/3
f 114/162/3 116/155/3 120/149/3
f 111/83/3 113/82/3 77/59/3
f 102/160/3 121/84/3 111/83/3
f 117/151/3 115/163/3 121/84/3
f 115/163/3 109/45/3 104/126/3
f 106/150/3 122/46/3 115/163/3
f 118/154/3 112/44/3 122/46/3
f 142/87/3 125/164/3 134/85/3
f 141/165/3 127/166/3 138/167/3
f 140/168/3 124/169/3 139/170/3
f 137/171/3 139/170/3 127/166/3
f 126/172/3 140/168/3 137/171/3
f 131/7/3 129/173/3 140/168/3
f 128/174/3 138/167/3 123/175/3
f 76/176/3 141/165/3 128/174/3
f 135/177/3 137/171/3 141/165/3
f 132/86/3 134/85/3 75/62/3
f 123/175/3 142/87/3 132/86/3
f 138/167/3 136/178/3 142/87/3
f 136/178/3 130/39/3 125/164/3
f 127/166/3 143/40/3 136/178/3
f 139/170/3 133/38/3 143/40/3
f 163/179/3 146/106/3 155/88/3
f 162/180/3 148/181/3 159/182/3
f 161/183/3 145/184/3 160/185/3
f 158/186/3 160/185/3 148/181/3
f 147/187/3 161/183/3 158/186/3
f 152/123/3 150/188/3 161/183/3
f 149/189/3 159/182/3 144/190/3
f 74/191/3 162/180/3 149/189/3
f 156/125/3 158/186/3 162/180/3
f 153/89/3 155/88/3 73/192/3
f 144/190/3 163/179/3 153/89/3
f 159/182/3 157/193/3 163/179/3
f 157/193/3 151/58/3 146/106/3
f 148/181/3 164/56/3 157/193/3
f 160/185/3 154/194/3 164/56/3
f 184/195/3 167/116/3 176/91/3
f 179/196/3 180/197/3 183/198/3
f 171/199/3 181/200/3 182/201/3
f 182/201/3 169/202/3 179/196/3
f 173/203/3 179/196/3 168/204/3
f 53/205/3 182/201/3 173/203/3
f 183/198/3 165/206/3 170/207/3
f 177/118/3 170/207/3 72/208/3
f 168/204/3 183/198/3 177/118/3
f 174/92/3 176/91/3 71/209/3
f 165/206/3 184/195/3 174/92/3
f 180/197/3 178/210/3 184/195/3
f 178/210/3 172/55/3 167/116/3
f 169/202/3 185/53/3 178/210/3
f 181/200/3 175/211/3 185/53/3
f 199/212/3 197/115/3 205/213/3
f 200/214/3 201/215/3 204/216/3
f 192/217/3 202/218/3 203/219/3
f 203/219/3 190/220/3 200/214/3
f 194/133/3 200/214/3 189/221/3
f 55/222/3 203/219/3 194/133/3
f 204/216/3 186/223/3 191/224/3
f 198/225/3 191/224/3 70/226/3
f 189/221/3 204/216/3 198/225/3
f 205/213/3 69/95/3 195/96/3
f 201/215/3 195/96/3 186/223/3
f 190/220/3 205/213/3 201/215/3
f 206/52/3 188/129/3 199/212/3
f 202/218/3 199/212/3 190/220/3
f 187/227/3 206/52/3 202/218/3
f 220/148/3 218/79/3 226/81/3
f 221/140/3 222/136/3 225/134/3
f 213/143/3 223/139/3 224/137/3
f 224/137/3 211/135/3 221/140/3
f 215/142/3 221/140/3 210/141/3
f 57/228/3 224/137/3 215/142/3
f 225/134/3 207/145/3 212/144/3
f 219/147/3 212/144/3 68/146/3
f 210/141/3 225/134/3 219/147/3
f 226/81/3 67/97/3 216/80/3
f 222/136/3 216/80/3 207/145/3
f 211/135/3 226/81/3 222/136/3
f 227/49/3 209/127/3 220/148/3
f 223/139/3 220/148/3 211/135/3
f 208/138/3 227/49/3 223/139/3
f 241/163/3 239/82/3 247/84/3
f 242/155/3 243/151/3 246/149/3
f 234/158/3 244/154/3 245/152/3
f 245/152/3 232/150/3 242/155/3
f 236/157/3 242/155/3 231/156/3
f 59/20/3 245/152/3 236/157/3
f 246/149/3 228/160/3 233/159/3
f 240/162/3 233/159/3 66/161/3
f 231/156/3 246/149/3 240/162/3
f 247/84/3 65/59/3 237/83/3
f 243/151/3 237/83/3 228/160/3
f 232/150/3 247/84/3 243/151/3
f 248/46/3 230/126/3 241/163/3
f 244/154/3 241/163/3 232/150/3
f 229/153/3 248/46/3 244/154/3
f 262/178/3 260/85/3 268/87/3
f 263/171/3 264/167/3 267/165/3
f 255/173/3 265/170/3 266/168/3
f 266/168/3 253/166/3 263/171/3
f 257/7/3 263/171/3 252/172/3
f 61/3/3 266/168/3 257/7/3
f 267/165/3 249/175/3 254/174/3
f 261/177/3 254/174/3 64/176/3
f 252/172/3 267/165/3 261/177/3
f 268/87/3 63/62/3 258/86/3
f 264/167/3 258/86/3 249/175/3
f 253/166/3 268/87/3 264/167/3
f 269/40/3 251/164/3 262/178/3
f 265/170/3 262/178/3 253/166/3
f 250/169/3 269/40/3 265/170/3
f 283/136/1 276/144/1 289/134/1
f 284/139/1 285/140/1 288/137/1
f 277/48/1 286/148/1 287/49/1
f 287/49/1 274/135/1 284/139/1
f 279/47/1 284/139/1 270/138/1
f 10/101/1 287/49/1 279/47/1
f 288/137/1 273/141/1 278/142/1
f 275/143/1 278/142/1 9/228/1
f 270/138/1 288/137/1 275/143/1
f 289/134/1 44/146/1 282/147/1
f 285/140/1 282/147/1 273/141/1
f 274/135/1 289/134/1 285/140/1
f 290/81/1 271/145/1 283/136/1
f 286/148/1 283/136/1 274/135/1
f 272/127/1 290/81/1 286/148/1
f 304/151/1 297/159/1 310/149/1
f 305/154/1 306/155/1 309/152/1
f 298/45/1 307/163/1 308/46/1
f 308/46/1 295/150/1 305/154/1
f 300/44/1 305/154/1 291/153/1
f 12/60/1 308/46/1 300/44/1
f 309/152/1 294/156/1 299/157/1
f 296/158/1 299/157/1 11/20/1
f 291/153/1 309/152/1 296/158/1
f 310/149/1 42/161/1 303/162/1
f 306/155/1 303/162/1 294/156/1
f 295/150/1 310/149/1 306/155/1
f 311/84/1 292/160/1 304/151/1
f 307/163/1 304/151/1 295/150/1
f 293/126/1 311/84/1 307/163/1
f 325/167/1 318/174/1 331/165/1
f 326/170/1 327/171/1 330/168/1
f 319/39/1 328/178/1 329/40/1
f 329/40/1 316/166/1 326/170/1
f 321/38/1 326/170/1 312/169/1
f 14/59/1 329/40/1 321/38/1
f 330/168/1 315/172/1 320/7/1
f 317/173/1 320/7/1 13/3/1
f 312/169/1 330/168/1 317/173/1
f 331/165/1 40/176/1 324/177/1
f 327/171/1 324/177/1 315/172/1
f 316/166/1 331/165/1 327/171/1
f 332/87/1 313/175/1 325/167/1
f 328/178/1 325/167/1 316/166/1
f 314/164/1 332/87/1 328/178/1
f 346/182/1 339/189/1 352/229/1
f 347/185/1 348/186/1 351/183/1
f 340/58/1 349/193/1 350/56/1
f 350/56/1 337/181/1 347/185/1
f 342/194/1 347/185/1 333/184/1
f 16/57/1 350/56/1 342/194/1
f 351/183/1 336/187/1 341/123/1
f 338/188/1 341/123/1 15/230/1
f 333/184/1 351/183/1 338/188/1
f 352/229/1 38/191/1 345/125/1
f 348/186/1 345/125/1 336/187/1
f 337/181/1 352/229/1 348/186/1
f 353/90/1 334/190/1 346/182/1
f 349/193/1 346/182/1 337/181/1
f 335/106/1 353/90/1 349/193/1
f 373/231/1 355/206/1 360/207/1
f 372/201/1 358/202/1 369/196/1
f 361/55/1 370/210/1 371/53/1
f 371/53/1 358/202/1 368/200/1
f 363/211/1 368/200/1 354/232/1
f 18/54/1 371/53/1 363/211/1
f 362/203/1 369/196/1 357/204/1
f 17/205/1 372/201/1 362/203/1
f 359/199/1 368/200/1 372/201/1
f 366/118/1 360/207/1 36/208/1
f 357/204/1 373/231/1 366/118/1
f 369/196/1 367/197/1 373/231/1
f 374/93/1 355/206/1 367/197/1
f 370/210/1 367/197/1 358/202/1
f 356/116/1 374/93/1 370/210/1
f 394/233/1 376/223/1 381/224/1
f 393/219/1 379/220/1 390/214/1
f 392/52/1 377/129/1 391/212/1
f 389/218/1 391/212/1 379/220/1
f 375/227/1 392/52/1 389/218/1
f 384/50/1 382/51/1 392/52/1
f 383/133/1 390/214/1 378/221/1
f 19/222/1 393/219/1 383/133/1
f 380/217/1 389/218/1 393/219/1
f 387/225/1 381/224/1 34/226/1
f 378/221/1 394/233/1 387/225/1
f 390/214/1 388/215/1 394/233/1
f 388/215/1 385/96/1 376/223/1
f 379/220/1 395/94/1 388/215/1
f 391/212/1 386/115/1 395/94/1
f 415/134/1 397/145/1 402/144/1
f 414/137/1 400/135/1 411/140/1
f 413/49/1 398/127/1 412/148/1
f 410/139/1 412/148/1 400/135/1
f 396/138/1 413/49/1 410/139/1
f 405/47/1 403/48/1 413/49/1
f 404/142/1 411/140/1 399/141/1
f 21/228/1 414/137/1 404/142/1
f 401/143/1 410/139/1 414/137/1
f 408/147/1 402/144/1 32/146/1
f 399/141/1 415/134/1 408/147/1
f 411/140/1 409/136/1 415/134/1
f 409/136/1 406/80/1 397/145/1
f 400/135/1 416/81/1 409/136/1
f 412/148/1 407/79/1 416/81/1
f 436/149/1 418/160/1 423/159/1
f 435/152/1 421/150/1 432/155/1
f 434/46/1 419/126/1 433/163/1
f 431/154/1 433/163/1 421/150/1
f 417/153/1 434/46/1 431/154/1
f 426/44/1 424/45/1 434/46/1
f 425/157/1 432/155/1 420/156/1
f 23/20/1 435/152/1 425/157/1
f 422/158/1 431/154/1 435/152/1
f 429/162/1 423/159/1 30/161/1
f 420/156/1 436/149/1 429/162/1
f 432/155/1 430/151/1 436/149/1
f 430/151/1 427/83/1 418/160/1
f 421/150/1 437/84/1 430/151/1
f 433/163/1 428/82/1 437/84/1
f 457/165/1 439/175/1 444/174/1
f 456/168/1 442/166/1 453/171/1
f 455/40/1 440/164/1 454/178/1
f 452/170/1 454/178/1 442/166/1
f 438/169/1 455/40/1 452/170/1
f 447/38/1 445/39/1 455/40/1
f 446/7/1 453/171/1 441/172/1
f 25/3/1 456/168/1 446/7/1
f 443/173/1 452/170/1 456/168/1
f 450/177/1 444/174/1 28/176/1
f 441/172/1 457/165/1 450/177/1
f 453/171/1 451/167/1 457/165/1
f 451/167/1 448/86/1 439/175/1
f 442/166/1 458/87/1 451/167/1
f 454/178/1 449/85/1 458/87/1
f 3/2/1 9/156/1 278/162/1
f 273/3/1 282/7/1 4/1/1
f 282/7/1 44/112/1 4/1/1
f 3/2/1 278/162/1 273/3/1
f 4/4/2 8/234/2 7/5/2
f 5/2/3 45/156/3 89/162/3
f 5/2/3 89/162/3 84/3/3
f 80/112/3 6/1/3 93/7/3
f 6/1/3 5/2/3 84/3/3
f 6/8/2 2/235/2 1/9/2
f 45/11/4 5/17/4 1/12/4
f 27/14/5 2/236/5 6/15/5
f 4/12/6 44/13/6 63/11/6
f 43/18/7 42/22/7 65/19/7
f 41/21/8 40/237/8 67/11/8
f 39/22/9 38/18/9 69/20/9
f 37/23/10 36/238/10 71/24/10
f 35/18/11 34/22/11 73/19/11
f 33/13/12 32/12/12 75/17/12
f 111/239/13 77/240/13 30/241/13
f 111/239/13 30/241/13 423/242/13
f 102/243/13 111/239/13 423/242/13
f 102/243/13 423/242/13 418/26/13
f 29/244/13 78/245/13 107/28/13
f 107/28/13 102/243/13 418/26/13
f 427/27/13 29/244/13 107/28/13
f 132/246/14 75/11/14 32/13/14
f 132/246/14 32/13/14 402/247/14
f 123/74/14 132/246/14 402/247/14
f 123/74/14 402/247/14 397/29/14
f 31/61/14 76/248/14 128/31/14
f 128/31/14 123/74/14 397/29/14
f 406/30/14 31/61/14 128/31/14
f 153/249/15 73/19/15 34/22/15
f 153/249/15 34/22/15 381/250/15
f 144/69/15 153/249/15 381/250/15
f 144/69/15 381/250/15 376/32/15
f 33/251/15 74/252/15 149/34/15
f 149/34/15 144/69/15 376/32/15
f 385/33/15 33/251/15 149/34/15
f 31/18/16 30/22/16 77/19/16
f 174/246/17 71/11/17 36/13/17
f 174/246/17 36/13/17 360/247/17
f 165/74/17 174/246/17 360/247/17
f 165/74/17 360/247/17 355/29/17
f 35/61/17 72/248/17 170/31/17
f 170/31/17 165/74/17 355/29/17
f 364/30/17 35/61/17 170/31/17
f 195/249/18 69/19/18 38/22/18
f 195/249/18 38/22/18 339/250/18
f 186/69/18 195/249/18 339/250/18
f 186/69/18 339/250/18 334/32/18
f 37/251/18 70/252/18 191/34/18
f 191/34/18 186/69/18 334/32/18
f 343/33/18 37/251/18 191/34/18
f 216/246/19 67/11/19 40/13/19
f 216/246/19 40/13/19 318/247/19
f 207/74/19 216/246/19 318/247/19
f 207/74/19 318/247/19 313/29/19
f 39/61/19 68/248/19 212/31/19
f 212/31/19 207/74/19 313/29/19
f 322/30/19 39/61/19 212/31/19
f 29/35/20 28/253/20 79/36/20
f 237/249/21 65/19/21 42/22/21
f 237/249/21 42/22/21 297/250/21
f 228/69/21 237/249/21 297/250/21
f 228/69/21 297/250/21 292/32/21
f 41/251/21 66/252/21 233/34/21
f 233/34/21 228/69/21 292/32/21
f 301/33/21 41/251/21 233/34/21
f 258/246/22 63/11/22 44/13/22
f 258/246/22 44/13/22 276/247/22
f 249/74/22 258/246/22 276/247/22
f 249/74/22 276/247/22 271/29/22
f 43/61/22 64/248/22 254/31/22
f 254/31/22 249/74/22 271/29/22
f 280/30/22 43/61/22 254/31/22
f 259/38/3 62/59/3 256/39/3
f 7/41/23 62/254/23 9/42/23
f 238/44/3 60/60/3 235/45/3
f 217/47/3 58/101/3 214/48/3
f 196/50/3 56/255/3 193/51/3
f 61/11/24 60/17/24 11/12/24
f 185/53/3 175/211/3 54/54/3
f 164/56/3 154/194/3 52/57/3
f 143/40/3 133/38/3 50/59/3
f 59/60/25 58/248/25 13/61/25
f 9/256/26 62/257/26 259/258/26
f 9/256/26 259/258/26 275/259/26
f 259/258/26 250/260/26 275/259/26
f 255/63/26 61/261/26 10/78/26
f 275/259/26 250/260/26 270/65/26
f 250/260/26 255/63/26 270/65/26
f 255/63/26 10/78/26 279/64/26
f 11/75/27 60/262/27 238/29/27
f 11/75/27 238/29/27 296/74/27
f 238/29/27 229/263/27 296/74/27
f 234/66/27 59/61/27 12/248/27
f 296/74/27 229/263/27 291/68/27
f 229/263/27 234/66/27 291/68/27
f 234/66/27 12/248/27 300/67/27
f 13/19/28 58/22/28 217/264/28
f 13/19/28 217/264/28 317/265/28
f 217/264/28 208/266/28 317/265/28
f 213/32/28 57/267/28 14/73/28
f 317/265/28 208/266/28 312/70/28
f 208/266/28 213/32/28 312/70/28
f 213/32/28 14/73/28 321/69/28
f 57/19/29 56/20/29 15/18/29
f 15/70/30 56/266/30 196/32/30
f 15/70/30 196/32/30 338/69/30
f 196/32/30 187/267/30 338/69/30
f 192/71/30 55/251/30 16/252/30
f 338/69/30 187/267/30 333/73/30
f 187/267/30 192/71/30 333/73/30
f 192/71/30 16/252/30 342/72/30
f 17/11/2 54/13/2 175/268/2
f 17/11/2 175/268/2 359/269/2
f 175/268/2 166/262/2 359/269/2
f 171/29/2 53/263/2 18/68/2
f 359/269/2 166/262/2 354/75/2
f 166/262/2 171/29/2 354/75/2
f 171/29/2 18/68/2 363/74/2
f 19/65/31 52/260/31 154/63/31
f 19/65/31 154/63/31 380/64/31
f 154/63/31 145/261/31 380/64/31
f 150/76/31 51/120/31 20/270/31
f 380/64/31 145/261/31 375/78/31
f 145/261/31 150/76/31 375/78/31
f 150/76/31 20/270/31 384/77/31
f 55/41/32 54/254/32 17/42/32
f 21/19/33 50/22/33 133/264/33
f 21/19/33 133/264/33 401/265/33
f 133/264/33 124/266/33 401/265/33
f 129/32/33 49/267/33 22/73/33
f 401/265/33 124/266/33 396/70/33
f 124/266/33 129/32/33 396/70/33
f 129/32/33 22/73/33 405/69/33
f 281/79/1 43/97/1 280/80/1
f 302/82/1 41/59/1 301/83/1
f 53/11/34 52/17/34 19/12/34
f 323/85/1 39/62/1 322/86/1
f 344/88/1 37/192/1 343/89/1
f 365/91/1 35/209/1 364/92/1
f 51/60/35 50/248/35 21/61/35
f 395/94/1 386/115/1 33/95/1
f 416/81/1 407/79/1 31/97/1
f 122/46/3 112/44/3 48/60/3
f 49/19/36 48/20/36 23/18/36
f 23/70/37 48/266/37 112/32/37
f 23/70/37 112/32/37 422/69/37
f 112/32/37 103/267/37 422/69/37
f 108/71/37 47/251/37 24/252/37
f 422/69/37 103/267/37 417/73/37
f 103/267/37 108/71/37 417/73/37
f 108/71/37 24/252/37 426/72/37
f 437/84/1 428/82/1 29/59/1
f 90/271/38 79/272/38 28/273/38
f 90/271/38 28/273/38 444/274/38
f 81/275/38 90/271/38 444/274/38
f 81/275/38 444/274/38 439/98/38
f 27/276/38 80/277/38 86/100/38
f 86/100/38 81/275/38 439/98/38
f 448/99/38 27/276/38 86/100/38
f 47/41/39 46/254/39 25/42/39
f 101/49/3 91/47/3 46/101/3
f 25/278/40 46/279/40 91/280/40
f 25/278/40 91/280/40 443/281/40
f 91/280/40 82/282/40 443/281/40
f 87/102/40 45/283/40 26/284/40
f 443/281/40 82/282/40 438/104/40
f 82/282/40 87/102/40 438/104/40
f 87/102/40 26/284/40 447/103/40
f 458/87/1 449/85/1 27/62/1
f 62/285/3 7/286/3 256/58/3
f 7/286/3 8/105/3 251/106/3
f 8/105/3 63/287/3 260/88/3
f 251/106/3 256/58/3 7/286/3
f 60/108/3 61/288/3 257/109/3
f 257/109/3 252/289/3 235/107/3
f 252/289/3 261/290/3 230/291/3
f 261/290/3 64/120/3 239/292/3
f 64/120/3 65/121/3 239/292/3
f 239/292/3 230/291/3 261/290/3
f 230/291/3 235/107/3 252/289/3
f 58/110/3 59/293/3 236/111/3
f 236/111/3 231/294/3 214/45/3
f 231/294/3 240/123/3 209/126/3
f 214/45/3 231/294/3 209/126/3
f 240/123/3 66/295/3 218/82/3
f 66/295/3 67/122/3 218/82/3
f 218/82/3 209/126/3 240/123/3
f 56/2/3 57/156/3 215/162/3
f 56/2/3 215/162/3 193/48/3
f 215/162/3 210/3/3 193/48/3
f 188/127/3 193/48/3 210/3/3
f 68/112/3 69/1/3 197/79/3
f 197/79/3 188/127/3 219/7/3
f 219/7/3 188/127/3 210/3/3
f 54/296/3 55/297/3 194/298/3
f 54/296/3 194/298/3 172/51/3
f 194/298/3 189/299/3 172/51/3
f 176/115/3 167/129/3 198/128/3
f 167/129/3 172/51/3 189/299/3
f 198/128/3 167/129/3 189/299/3
f 198/128/3 70/113/3 176/115/3
f 52/300/3 53/301/3 151/55/3
f 53/301/3 173/302/3 151/55/3
f 168/117/3 177/130/3 155/91/3
f 177/130/3 72/131/3 73/132/3
f 173/302/3 168/117/3 146/116/3
f 146/116/3 151/55/3 173/302/3
f 73/132/3 155/91/3 177/130/3
f 50/285/3 51/286/3 130/58/3
f 51/286/3 152/118/3 130/58/3
f 152/118/3 147/5/3 125/106/3
f 147/5/3 156/133/3 134/88/3
f 125/106/3 147/5/3 134/88/3
f 156/133/3 74/105/3 75/287/3
f 156/133/3 75/287/3 134/88/3
f 48/124/3 49/303/3 109/39/3
f 49/303/3 131/125/3 109/39/3
f 131/125/3 126/304/3 104/164/3
f 104/164/3 109/39/3 131/125/3
f 77/121/3 113/85/3 135/119/3
f 113/85/3 104/164/3 126/304/3
f 135/119/3 113/85/3 126/304/3
f 46/110/3 47/248/3 88/45/3
f 47/248/3 110/111/3 88/45/3
f 110/111/3 105/294/3 83/126/3
f 88/45/3 110/111/3 83/126/3
f 92/82/3 83/126/3 105/294/3
f 114/123/3 78/295/3 79/122/3
f 105/294/3 114/123/3 92/82/3
f 26/285/1 1/286/1 445/58/1
f 1/286/1 2/105/1 440/106/1
f 2/105/1 27/287/1 449/88/1
f 440/106/1 445/58/1 1/286/1
f 24/124/1 25/303/1 446/125/1
f 446/125/1 441/304/1 424/39/1
f 441/304/1 450/119/1 419/164/1
f 450/119/1 28/120/1 428/85/1
f 28/120/1 29/121/1 428/85/1
f 428/85/1 419/164/1 450/119/1
f 419/164/1 424/39/1 441/304/1
f 22/110/1 23/293/1 425/111/1
f 22/110/1 425/111/1 403/45/1
f 425/111/1 420/294/1 403/45/1
f 429/123/1 30/295/1 407/82/1
f 30/295/1 31/122/1 407/82/1
f 403/45/1 420/294/1 398/126/1
f 420/294/1 429/123/1 398/126/1
f 20/2/1 21/156/1 404/162/1
f 399/3/1 408/7/1 377/127/1
f 408/7/1 32/112/1 386/79/1
f 20/2/1 404/162/1 382/48/1
f 404/162/1 399/3/1 382/48/1
f 408/7/1 386/79/1 377/127/1
f 32/112/1 33/1/1 386/79/1
f 18/296/1 19/297/1 383/298/1
f 383/298/1 378/299/1 361/51/1
f 378/299/1 387/128/1 356/129/1
f 387/128/1 34/113/1 365/115/1
f 34/113/1 35/114/1 365/115/1
f 18/296/1 383/298/1 361/51/1
f 378/299/1 356/129/1 361/51/1
f 16/300/1 17/301/1 340/55/1
f 17/301/1 362/302/1 340/55/1
f 362/302/1 357/117/1 335/116/1
f 335/116/1 340/55/1 362/302/1
f 37/132/1 344/91/1 366/130/1
f 344/91/1 335/116/1 357/117/1
f 366/130/1 344/91/1 357/117/1
f 14/286/1 15/285/1 319/118/1
f 15/285/1 341/58/1 319/118/1
f 341/58/1 336/106/1 314/5/1
f 319/118/1 341/58/1 314/5/1
f 345/88/1 38/287/1 39/105/1
f 336/106/1 345/88/1 323/133/1
f 314/5/1 336/106/1 323/133/1
f 12/124/1 13/303/1 298/39/1
f 13/303/1 320/125/1 298/39/1
f 320/125/1 315/304/1 293/164/1
f 315/304/1 324/119/1 302/85/1
f 324/119/1 40/120/1 41/121/1
f 302/85/1 293/164/1 315/304/1
f 293/164/1 298/39/1 320/125/1
f 10/110/1 11/293/1 277/45/1
f 11/293/1 299/111/1 277/45/1
f 299/111/1 294/294/1 272/126/1
f 294/294/1 303/123/1 281/82/1
f 303/123/1 42/295/1 43/122/1
f 281/82/1 272/126/1 294/294/1
f 272/126/1 277/45/1 299/111/1
f 100/81/3 94/148/3 83/127/3
f 99/134/3 95/140/3 85/135/3
f 98/137/3 87/143/3 82/138/3
f 95/140/3 98/137/3 97/139/3
f 84/141/3 89/142/3 98/137/3
f 89/142/3 45/228/3 87/143/3
f 86/144/3 99/134/3 96/136/3
f 80/146/3 93/147/3 99/134/3
f 93/147/3 84/141/3 95/140/3
f 90/80/3 100/81/3 92/79/3
f 81/145/3 96/136/3 100/81/3
f 96/136/3 85/135/3 94/148/3
f 94/148/3 101/49/3 88/48/3
f 85/135/3 97/139/3 101/49/3
f 97/139/3 82/138/3 91/47/3
f 121/84/3 115/163/3 104/126/3
f 120/149/3 116/155/3 106/150/3
f 119/152/3 108/158/3 103/153/3
f 116/155/3 119/152/3 118/154/3
f 105/156/3 110/157/3 119/152/3
f 110/157/3 47/20/3 108/158/3
f 107/159/3 120/149/3 117/151/3
f 78/161/3 114/162/3 120/149/3
f 114/162/3 105/156/3 116/155/3
f 111/83/3 121/84/3 113/82/3
f 102/160/3 117/151/3 121/84/3
f 117/151/3 106/150/3 115/163/3
f 115/163/3 122/46/3 109/45/3
f 106/150/3 118/154/3 122/46/3
f 118/154/3 103/153/3 112/44/3
f 142/87/3 136/178/3 125/164/3
f 141/165/3 137/171/3 127/166/3
f 140/168/3 129/173/3 124/169/3
f 137/171/3 140/168/3 139/170/3
f 126/172/3 131/7/3 140/168/3
f 131/7/3 49/3/3 129/173/3
f 128/174/3 141/165/3 138/167/3
f 76/176/3 135/177/3 141/165/3
f 135/177/3 126/172/3 137/171/3
f 132/86/3 142/87/3 134/85/3
f 123/175/3 138/167/3 142/87/3
f 138/167/3 127/166/3 136/178/3
f 136/178/3 143/40/3 130/39/3
f 127/166/3 139/170/3 143/40/3
f 139/170/3 124/169/3 133/38/3
f 163/179/3 157/193/3 146/106/3
f 162/180/3 158/186/3 148/181/3
f 161/183/3 150/188/3 145/184/3
f 158/186/3 161/183/3 160/185/3
f 147/187/3 152/123/3 161/183/3
f 152/123/3 51/230/3 150/188/3
f 149/189/3 162/180/3 159/182/3
f 74/191/3 156/125/3 162/180/3
f 156/125/3 147/187/3 158/186/3
f 153/89/3 163/179/3 155/88/3
f 144/190/3 159/182/3 163/179/3
f 159/182/3 148/181/3 157/193/3
f 157/193/3 164/56/3 151/58/3
f 148/181/3 160/185/3 164/56/3
f 160/185/3 145/184/3 154/194/3
f 184/195/3 178/210/3 167/116/3
f 179/196/3 169/202/3 180/197/3
f 171/199/3 166/232/3 181/200/3
f 182/201/3 181/200/3 169/202/3
f 173/203/3 182/201/3 179/196/3
f 53/205/3 171/199/3 182/201/3
f 183/198/3 180/197/3 165/206/3
f 177/118/3 183/198/3 170/207/3
f 168/204/3 179/196/3 183/198/3
f 174/92/3 184/195/3 176/91/3
f 165/206/3 180/197/3 184/195/3
f 180/197/3 169/202/3 178/210/3
f 178/210/3 185/53/3 172/55/3
f 169/202/3 181/200/3 185/53/3
f 181/200/3 166/232/3 175/211/3
f 199/212/3 188/129/3 197/115/3
f 200/214/3 190/220/3 201/215/3
f 192/217/3 187/227/3 202/218/3
f 203/219/3 202/218/3 190/220/3
f 194/133/3 203/219/3 200/214/3
f 55/222/3 192/217/3 203/219/3
f 204/216/3 201/215/3 186/223/3
f 198/225/3 204/216/3 191/224/3
f 189/221/3 200/214/3 204/216/3
f 205/213/3 197/115/3 69/95/3
f 201/215/3 205/213/3 195/96/3
f 190/220/3 199/212/3 205/213/3
f 206/52/3 193/51/3 188/129/3
f 202/218/3 206/52/3 199/212/3
f 187/227/3 196/50/3 206/52/3
f 220/148/3 209/127/3 218/79/3
f 221/140/3 211/135/3 222/136/3
f 213/143/3 208/138/3 223/139/3
f 224/137/3 223/139/3 211/135/3
f 215/142/3 224/137/3 221/140/3
f 57/228/3 213/143/3 224/137/3
f 225/134/3 222/136/3 207/145/3
f 219/147/3 225/134/3 212/144/3
f 210/141/3 221/140/3 225/134/3
f 226/81/3 218/79/3 67/97/3
f 222/136/3 226/81/3 216/80/3
f 211/135/3 220/148/3 226/81/3
f 227/49/3 214/48/3 209/127/3
f 223/139/3 227/49/3 220/148/3
f 208/138/3 217/47/3 227/49/3
f 241/163/3 230/126/3 239/82/3
f 242/155/3 232/150/3 243/151/3
f 234/158/3 229/153/3 244/154/3
f 245/152/3 244/154/3 232/150/3
f 236/157/3 245/152/3 242/155/3
f 59/20/3 234/158/3 245/152/3
f 246/149/3 243/151/3 228/160/3
f 240/162/3 246/149/3 233/159/3
f 231/156/3 242/155/3 246/149/3
f 247/84/3 239/82/3 65/59/3
f 243/151/3 247/84/3 237/83/3
f 232/150/3 241/163/3 247/84/3
f 248/46/3 235/45/3 230/126/3
f 244/154/3 248/46/3 241/163/3
f 229/153/3 238/44/3 248/46/3
f 262/178/3 251/164/3 260/85/3
f 263/171/3 253/166/3 264/167/3
f 255/173/3 250/169/3 265/170/3
f 266/168/3 265/170/3 253/166/3
f 257/7/3 266/168/3 263/171/3
f 61/3/3 255/173/3 266/168/3
f 267/165/3 264/167/3 249/175/3
f 261/177/3 267/165/3 254/174/3
f 252/172/3 263/171/3 267/165/3
f 268/87/3 260/85/3 63/62/3
f 264/167/3 268/87/3 258/86/3
f 253/166/3 262/178/3 268/87/3
f 269/40/3 256/39/3 251/164/3
f 265/170/3 269/40/3 262/178/3
f 250/169/3 259/38/3 269/40/3
f 283/136/1 271/145/1 276/144/1
f 284/139/1 274/135/1 285/140/1
f 277/48/1 272/127/1 286/148/1
f 287/49/1 286/148/1 274/135/1
f 279/47/1 287/49/1 284/139/1
f 10/101/1 277/48/1 287/49/1
f 288/137/1 285/140/1 273/141/1
f 275/143/1 288/137/1 278/142/1
f 270/138/1 284/139/1 288/137/1
f 289/134/1 276/144/1 44/146/1
f 285/140/1 289/134/1 282/147/1
f 274/135/1 283/136/1 289/134/1
f 290/81/1 280/80/1 271/145/1
f 286/148/1 290/81/1 283/136/1
f 272/127/1 281/79/1 290/81/1
f 304/151/1 292/160/1 297/159/1
f 305/154/1 295/150/1 306/155/1
f 298/45/1 293/126/1 307/163/1
f 308/46/1 307/163/1 295/150/1
f 300/44/1 308/46/1 305/154/1
f 12/60/1 298/45/1 308/46/1
f 309/152/1 306/155/1 294/156/1
f 296/158/1 309/152/1 299/157/1
f 291/153/1 305/154/1 309/152/1
f 310/149/1 297/159/1 42/161/1
f 306/155/1 310/149/1 303/162/1
f 295/150/1 304/151/1 310/149/1
f 311/84/1 301/83/1 292/160/1
f 307/163/1 311/84/1 304/151/1
f 293/126/1 302/82/1 311/84/1
f 325/167/1 313/175/1 318/174/1
f 326/170/1 316/166/1 327/171/1
f 319/39/1 314/164/1 328/178/1
f 329/40/1 328/178/1 316/166/1
f 321/38/1 329/40/1 326/170/1
f 14/59/1 319/39/1 329/40/1
f 330/168/1 327/171/1 315/172/1
f 317/173/1 330/168/1 320/7/1
f 312/169/1 326/170/1 330/168/1
f 331/165/1 318/174/1 40/176/1
f 327/171/1 331/165/1 324/177/1
f 316/166/1 325/167/1 331/165/1
f 332/87/1 322/86/1 313/175/1
f 328/178/1 332/87/1 325/167/1
f 314/164/1 323/85/1 332/87/1
f 346/182/1 334/190/1 339/189/1
f 347/185/1 337/181/1 348/186/1
f 340/58/1 335/106/1 349/193/1
f 350/56/1 349/193/1 337/181/1
f 342/194/1 350/56/1 347/185/1
f 16/57/1 340/58/1 350/56/1
f 351/183/1 348/186/1 336/187/1
f 338/188/1 351/183/1 341/123/1
f 333/184/1 347/185/1 351/183/1
f 352/229/1 339/189/1 38/191/1
f 348/186/1 352/229/1 345/125/1
f 337/181/1 346/182/1 352/229/1
f 353/90/1 343/89/1 334/190/1
f 349/193/1 353/90/1 346/182/1
f 335/106/1 344/88/1 353/90/1
f 373/231/1 367/197/1 355/206/1
f 372/201/1 368/200/1 358/202/1
f 361/55/1 356/116/1 370/210/1
f 371/53/1 370/210/1 358/202/1
f 363/211/1 371/53/1 368/200/1
f 18/54/1 361/55/1 371/53/1
f 362/203/1 372/201/1 369/196/1
f 17/205/1 359/199/1 372/201/1
f 359/199/1 354/232/1 368/200/1
f 366/118/1 373/231/1 360/207/1
f 357/204/1 369/196/1 373/231/1
f 369/196/1 358/202/1 367/197/1
f 374/93/1 364/92/1 355/206/1
f 370/210/1 374/93/1 367/197/1
f 356/116/1 365/91/1 374/93/1
f 394/233/1 388/215/1 376/223/1
f 393/219/1 389/218/1 379/220/1
f 392/52/1 382/51/1 377/129/1
f 389/218/1 392/52/1 391/212/1
f 375/227/1 384/50/1 392/52/1
f 384/50/1 20/255/1 382/51/1
f 383/133/1 393/219/1 390/214/1
f 19/222/1 380/217/1 393/219/1
f 380/217/1 375/227/1 389/218/1
f 387/225/1 394/233/1 381/224/1
f 378/221/1 390/214/1 394/233/1
f 390/214/1 379/220/1 388/215/1
f 388/215/1 395/94/1 385/96/1
f 379/220/1 391/212/1 395/94/1
f 391/212/1 377/129/1 386/115/1
f 415/134/1 409/136/1 397/145/1
f 414/137/1 410/139/1 400/135/1
f 413/49/1 403/48/1 398/127/1
f 410/139/1 413/49/1 412/148/1
f 396/138/1 405/47/1 413/49/1
f 405/47/1 22/101/1 403/48/1
f 404/142/1 414/137/1 411/140/1
f 21/228/1 401/143/1 414/137/1
f 401/143/1 396/138/1 410/139/1
f 408/147/1 415/134/1 402/144/1
f 399/141/1 411/140/1 415/134/1
f 411/140/1 400/135/1 409/136/1
f 409/136/1 416/81/1 406/80/1
f 400/135/1 412/148/1 416/81/1
f 412/148/1 398/127/1 407/79/1
f 436/149/1 430/151/1 418/160/1
f 435/152/1 431/154/1 421/150/1
f 434/46/1 424/45/1 419/126/1
f 431/154/1 434/46/1 433/163/1
f 417/153/1 426/44/1 434/46/1
f 426/44/1 24/60/1 424/45/1
f 425/157/1 435/152/1 432/155/1
f 23/20/1 422/158/1 435/152/1
f 422/158/1 417/153/1 431/154/1
f 429/162/1 436/149/1 423/159/1
f 420/156/1 432/155/1 436/149/1
f 432/155/1 421/150/1 430/151/1
f 430/151/1 437/84/1 427/83/1
f 421/150/1 433/163/1 437/84/1
f 433/163/1 419/126/1 428/82/1
f 457/165/1 451/167/1 439/175/1
f 456/168/1 452/170/1 442/166/1
f 455/40/1 445/39/1 440/164/1
f 452/170/1 455/40/1 454/178/1
f 438/169/1 447/38/1 455/40/1
f 447/38/1 26/59/1 445/39/1
f 446/7/1 456/168/1 453/171/1
f 25/3/1 443/173/1 456/168/1
f 443/173/1 438/169/1 452/170/1
f 450/177/1 457/165/1 444/174/1
f 441/172/1 453/171/1 457/165/1
f 453/171/1 442/166/1 451/167/1
f 451/167/1 458/87/1 448/86/1
f 442/166/1 454/178/1 458/87/1
f 454/178/1 440/164/1 449/85/1
