# Blender 5.0.1
# www.blender.org
mtllib wide_arch.mtl
o Cube
usemtl arch_mat
v 0.000000 0.499834 -0.000500
v -0.500000 0.499834 -0.000500
v 1.000000 0.499834 -0.000500
v 1.500000 0.499834 -0.000500
v 0.000000 0.499834 1.000500
v -0.500000 0.499834 1.000500
v 1.000000 0.499834 1.000500
v 1.500000 0.499834 1.000500
v 0.998199 0.542583 -0.000500
v 0.971439 0.667764 -0.000500
v 0.955614 0.707467 -0.000500
v 0.889018 0.816509 -0.000500
v 0.860978 0.848629 -0.000500
v 0.762154 0.929076 -0.000500
v 0.725102 0.949943 -0.000500
v 0.605340 0.992603 -0.000500
v 0.563509 0.999834 -0.000500
v 0.436491 0.999834 -0.000500
v 0.394660 0.992603 -0.000500
v 0.274898 0.949943 -0.000500
v 0.237846 0.929076 -0.000500
v 0.139022 0.848629 -0.000500
v 0.110982 0.816509 -0.000500
v 0.044386 0.707467 -0.000500
v 0.028561 0.667764 -0.000500
v 0.001801 0.542583 -0.000500
v -0.496398 0.585333 -0.000500
v -0.442878 0.835694 -0.000500
v -0.411228 0.915099 -0.000500
v -0.278036 1.133184 -0.000500
v -0.221956 1.197423 -0.000500
v -0.024307 1.358317 -0.000500
v 0.049796 1.400052 -0.000500
v 0.289321 1.485372 -0.000500
v 0.372982 1.499834 -0.000500
v 0.627018 1.499834 -0.000500
v 0.710679 1.485372 -0.000500
v 0.950204 1.400051 -0.000500
v 1.024307 1.358317 -0.000500
v 1.221956 1.197423 -0.000500
v 1.278036 1.133184 -0.000500
v 1.411228 0.915099 -0.000500
v 1.442878 0.835694 -0.000500
v 1.496398 0.585333 -0.000500
v 0.001801 0.542583 1.000500
v 0.028561 0.667764 1.000500
v 0.044386 0.707467 1.000500
v 0.110982 0.816509 1.000500
v 0.139022 0.848629 1.000500
v 0.237846 0.929076 1.000500
v 0.274898 0.949943 1.000500
v 0.394660 0.992603 1.000500
v 0.436491 0.999834 1.000500
v 0.563509 0.999834 1.000500
v 0.605340 0.992603 1.000500
v 0.725102 0.949943 1.000500
v 0.762154 0.929076 1.000500
v 0.860978 0.848629 1.000500
v 0.889018 0.816509 1.000500
v 0.955614 0.707467 1.000500
v 0.971439 0.667764 1.000500
v 0.998199 0.542583 1.000500
v 1.496398 0.585333 1.000500
v 1.442878 0.835694 1.000500
v 1.411228 0.915099 1.000500
v 1.278036 1.133184 1.000500
v 1.221956 1.197423 1.000500
v 1.024307 1.358317 1.000500
v 0.950204 1.400052 1.000500
v 0.710679 1.485372 1.000500
v 0.627018 1.499834 1.000500
v 0.372982 1.499834 1.000500
v 0.289321 1.485372 1.000500
v 0.049796 1.400051 1.000500
v -0.024307 1.358317 1.000500
v -0.221956 1.197423 1.000500
v -0.278036 1.133184 1.000500
v -0.411229 0.915099 1.000500
v -0.442878 0.835694 1.000500
v -0.496398 0.585333 1.000500
v -0.469638 0.710514 1.000500
v 0.015181 0.605174 1.000500
v -0.207158 0.751729 1.000500
v -0.247298 0.563958 1.000500
v -0.227228 0.657844 1.000500
v -0.483018 0.647923 1.000500
v 0.008491 0.573879 1.000500
v -0.089298 0.709747 1.000500
v -0.122748 0.553271 1.000500
v -0.456258 0.773104 1.000500
v 0.021871 0.636469 1.000500
v -0.325018 0.793712 1.000500
v -0.371848 0.574645 1.000500
v -0.217193 0.704787 1.000500
v -0.237263 0.610901 1.000500
v -0.348433 0.684179 1.000500
v -0.106023 0.631509 1.000500
v -0.114386 0.592390 1.000500
v -0.360140 0.629412 1.000500
v -0.336725 0.738945 1.000500
v -0.097661 0.670628 1.000500
v -0.344632 1.024142 1.000500
v 0.077684 0.761988 1.000500
v -0.083527 0.974847 1.000500
v -0.183421 0.811283 1.000500
v -0.133474 0.893065 1.000500
v -0.377930 0.969620 1.000500
v 0.061035 0.734727 1.000500
v 0.013728 0.895678 1.000500
v -0.069518 0.759375 1.000500
v -0.311334 1.078663 1.000500
v 0.094333 0.789249 1.000500
v -0.180781 1.054015 1.000500
v -0.297325 0.863191 1.000500
v -0.108500 0.933956 1.000500
v -0.158448 0.852174 1.000500
v -0.239053 0.958603 1.000500
v -0.027895 0.827526 1.000500
v -0.048706 0.793451 1.000500
v -0.268189 0.910897 1.000500
v -0.209917 1.006309 1.000500
v -0.007084 0.861602 1.000500
v -0.123132 1.277870 1.000500
v 0.188434 0.888852 1.000500
v 0.106770 1.143696 1.000500
v -0.041467 1.023026 1.000500
v 0.032651 1.083361 1.000500
v -0.172544 1.237647 1.000500
v 0.163728 0.868740 1.000500
v 0.172308 1.036386 1.000500
v 0.048777 0.935827 1.000500
v -0.073720 1.318093 1.000500
v 0.213140 0.908964 1.000500
v 0.041231 1.251006 1.000500
v -0.131712 1.110225 1.000500
v 0.069710 1.113529 1.000500
v -0.004408 1.053194 1.000500
v -0.045240 1.180616 1.000500
v 0.110543 0.986107 1.000500
v 0.079660 0.960967 1.000500
v -0.088476 1.145420 1.000500
v -0.002005 1.215811 1.000500
v 0.141425 1.011246 1.000500
v 0.169558 1.442712 1.000500
v 0.334779 0.971273 1.000500
v 0.341991 1.238988 1.000500
v 0.162347 1.174997 1.000500
v 0.252169 1.206992 1.000500
v 0.109677 1.421382 1.000500
v 0.304839 0.960608 1.000500
v 0.368325 1.115795 1.000500
v 0.218623 1.062470 1.000500
v 0.229440 1.464042 1.000500
v 0.364720 0.981938 1.000500
v 0.315656 1.362180 1.000500
v 0.106072 1.287524 1.000500
v 0.297080 1.222990 1.000500
v 0.207258 1.190995 1.000500
v 0.210864 1.324852 1.000500
v 0.293474 1.089133 1.000500
v 0.256048 1.075801 1.000500
v 0.158468 1.306188 1.000500
v 0.263260 1.343516 1.000500
v 0.330900 1.102464 1.000500
v 0.500000 1.499834 1.000500
v 0.500000 0.999834 1.000500
v 0.595263 1.249834 1.000500
v 0.404737 1.249834 1.000500
v 0.500000 1.249834 1.000500
v 0.436491 1.499834 1.000500
v 0.468246 0.999834 1.000500
v 0.579386 1.124834 1.000500
v 0.420614 1.124834 1.000500
v 0.563509 1.499834 1.000500
v 0.531754 0.999834 1.000500
v 0.611141 1.374834 1.000500
v 0.388859 1.374834 1.000500
v 0.547632 1.249834 1.000500
v 0.452368 1.249834 1.000500
v 0.500000 1.374834 1.000500
v 0.500000 1.124834 1.000500
v 0.460307 1.124834 1.000500
v 0.444430 1.374834 1.000500
v 0.555570 1.374834 1.000500
v 0.539693 1.124834 1.000500
v 0.830441 1.442712 1.000500
v 0.665221 0.971273 1.000500
v 0.837653 1.174997 1.000500
v 0.658009 1.238988 1.000500
v 0.747831 1.206992 1.000500
v 0.770560 1.464042 1.000500
v 0.635280 0.981938 1.000500
v 0.781377 1.062470 1.000500
v 0.631675 1.115795 1.000500
v 0.890323 1.421382 1.000500
v 0.695161 0.960608 1.000500
v 0.893928 1.287524 1.000500
v 0.684344 1.362180 1.000500
v 0.792742 1.190995 1.000500
v 0.702920 1.222990 1.000500
v 0.789136 1.324852 1.000500
v 0.706526 1.089133 1.000500
v 0.669100 1.102464 1.000500
v 0.736740 1.343516 1.000500
v 0.841532 1.306188 1.000500
v 0.743952 1.075801 1.000500
v 1.123132 1.277870 1.000500
v 0.811566 0.888852 1.000500
v 1.041467 1.023026 1.000500
v 0.893230 1.143696 1.000500
v 0.967349 1.083361 1.000500
v 1.073720 1.318093 1.000500
v 0.786860 0.908964 1.000500
v 0.951223 0.935827 1.000500
v 0.827692 1.036386 1.000500
v 1.172544 1.237647 1.000500
v 0.836272 0.868740 1.000500
v 1.131712 1.110225 1.000500
v 0.958769 1.251006 1.000500
v 1.004408 1.053194 1.000500
v 0.930290 1.113529 1.000500
v 1.045240 1.180616 1.000500
v 0.889457 0.986107 1.000500
v 0.858575 1.011246 1.000500
v 1.002005 1.215811 1.000500
v 1.088476 1.145420 1.000500
v 0.920340 0.960967 1.000500
v 1.344632 1.024142 1.000500
v 0.922316 0.761988 1.000500
v 1.183421 0.811283 1.000500
v 1.083527 0.974847 1.000500
v 1.133474 0.893065 1.000500
v 1.311334 1.078663 1.000500
v 0.905667 0.789249 1.000500
v 1.069518 0.759375 1.000500
v 0.986272 0.895678 1.000500
v 1.377930 0.969620 1.000500
v 0.938965 0.734727 1.000500
v 1.297325 0.863191 1.000500
v 1.180781 1.054015 1.000500
v 1.158448 0.852174 1.000500
v 1.108500 0.933956 1.000500
v 1.239053 0.958603 1.000500
v 1.027895 0.827526 1.000500
v 1.007084 0.861602 1.000500
v 1.209917 1.006309 1.000500
v 1.268189 0.910897 1.000500
v 1.048706 0.793451 1.000500
v 1.469638 0.710514 1.000500
v 0.984819 0.605174 1.000500
v 1.247298 0.563958 1.000500
v 1.207158 0.751729 1.000500
v 1.227228 0.657844 1.000500
v 1.456258 0.773104 1.000500
v 0.978129 0.636469 1.000500
v 1.122748 0.553271 1.000500
v 1.089298 0.709747 1.000500
v 1.483018 0.647923 1.000500
v 0.991509 0.573879 1.000500
v 1.371848 0.574645 1.000500
v 1.325018 0.793712 1.000500
v 1.237263 0.610901 1.000500
v 1.217193 0.704787 1.000500
v 1.348433 0.684179 1.000500
v 1.106023 0.631509 1.000500
v 1.097661 0.670628 1.000500
v 1.336725 0.738945 1.000500
v 1.360140 0.629412 1.000500
v 1.114386 0.592390 1.000500
v 0.984819 0.605174 -0.000500
v 1.469638 0.710513 -0.000500
v 1.207158 0.751729 -0.000500
v 1.247298 0.563958 -0.000500
v 1.227228 0.657844 -0.000500
v 0.991509 0.573879 -0.000500
v 1.483018 0.647923 -0.000500
v 1.089298 0.709747 -0.000500
v 1.122748 0.553271 -0.000500
v 0.978129 0.636469 -0.000500
v 1.456258 0.773104 -0.000500
v 1.325018 0.793712 -0.000500
v 1.371848 0.574645 -0.000500
v 1.348433 0.684179 -0.000500
v 1.106023 0.631509 -0.000500
v 1.237263 0.610901 -0.000500
v 1.217193 0.704787 -0.000500
v 1.097661 0.670628 -0.000500
v 1.114386 0.592390 -0.000500
v 1.360140 0.629412 -0.000500
v 1.336725 0.738945 -0.000500
v 0.922316 0.761988 -0.000500
v 1.344632 1.024141 -0.000500
v 1.083527 0.974847 -0.000500
v 1.183421 0.811283 -0.000500
v 1.133474 0.893065 -0.000500
v 0.938965 0.734727 -0.000500
v 1.377930 0.969620 -0.000500
v 0.986272 0.895678 -0.000500
v 1.069518 0.759375 -0.000500
v 0.905667 0.789249 -0.000500
v 1.311334 1.078663 -0.000500
v 1.180781 1.054015 -0.000500
v 1.297325 0.863191 -0.000500
v 1.239053 0.958603 -0.000500
v 1.027895 0.827526 -0.000500
v 1.158448 0.852174 -0.000500
v 1.108500 0.933956 -0.000500
v 1.007084 0.861602 -0.000500
v 1.048706 0.793451 -0.000500
v 1.268189 0.910897 -0.000500
v 1.209917 1.006309 -0.000500
v 0.811566 0.888852 -0.000500
v 1.123132 1.277870 -0.000500
v 0.893231 1.143696 -0.000500
v 1.041467 1.023026 -0.000500
v 0.967349 1.083361 -0.000500
v 0.836272 0.868740 -0.000500
v 1.172544 1.237647 -0.000500
v 0.827692 1.036386 -0.000500
v 0.951223 0.935827 -0.000500
v 0.786860 0.908964 -0.000500
v 1.073720 1.318093 -0.000500
v 0.958769 1.251006 -0.000500
v 1.131712 1.110225 -0.000500
v 1.045240 1.180616 -0.000500
v 0.889457 0.986107 -0.000500
v 1.004408 1.053194 -0.000500
v 0.930290 1.113529 -0.000500
v 0.858575 1.011246 -0.000500
v 0.920340 0.960967 -0.000500
v 1.088476 1.145420 -0.000500
v 1.002005 1.215811 -0.000500
v 0.665221 0.971273 -0.000500
v 0.830442 1.442712 -0.000500
v 0.658009 1.238988 -0.000500
v 0.837653 1.174997 -0.000500
v 0.747831 1.206992 -0.000500
v 0.695161 0.960608 -0.000500
v 0.890323 1.421382 -0.000500
v 0.631675 1.115795 -0.000500
v 0.781377 1.062470 -0.000500
v 0.635280 0.981938 -0.000500
v 0.770561 1.464042 -0.000500
v 0.684344 1.362180 -0.000500
v 0.893928 1.287524 -0.000500
v 0.789136 1.324852 -0.000500
v 0.706526 1.089133 -0.000500
v 0.792742 1.190995 -0.000500
v 0.702920 1.222990 -0.000500
v 0.669100 1.102464 -0.000500
v 0.743952 1.075801 -0.000500
v 0.841532 1.306188 -0.000500
v 0.736740 1.343516 -0.000500
v 0.500000 0.999834 -0.000500
v 0.500000 1.499834 -0.000500
v 0.404737 1.249834 -0.000500
v 0.595263 1.249834 -0.000500
v 0.500000 1.249834 -0.000500
v 0.531754 0.999834 -0.000500
v 0.563509 1.499834 -0.000500
v 0.420614 1.124834 -0.000500
v 0.579386 1.124834 -0.000500
v 0.468245 0.999834 -0.000500
v 0.436491 1.499834 -0.000500
v 0.388859 1.374834 -0.000500
v 0.611141 1.374834 -0.000500
v 0.500000 1.374834 -0.000500
v 0.500000 1.124834 -0.000500
v 0.547632 1.249834 -0.000500
v 0.452368 1.249834 -0.000500
v 0.460307 1.124834 -0.000500
v 0.539693 1.124834 -0.000500
v 0.555570 1.374834 -0.000500
v 0.444430 1.374834 -0.000500
v 0.334779 0.971273 -0.000500
v 0.169559 1.442712 -0.000500
v 0.162347 1.174997 -0.000500
v 0.341991 1.238988 -0.000500
v 0.252169 1.206992 -0.000500
v 0.364720 0.981938 -0.000500
v 0.229440 1.464042 -0.000500
v 0.218623 1.062470 -0.000500
v 0.368325 1.115795 -0.000500
v 0.304839 0.960608 -0.000500
v 0.109677 1.421382 -0.000500
v 0.106072 1.287524 -0.000500
v 0.315656 1.362180 -0.000500
v 0.210864 1.324852 -0.000500
v 0.293474 1.089133 -0.000500
v 0.297080 1.222990 -0.000500
v 0.207258 1.190995 -0.000500
v 0.256048 1.075801 -0.000500
v 0.330900 1.102464 -0.000500
v 0.263260 1.343516 -0.000500
v 0.158468 1.306188 -0.000500
v 0.188434 0.888852 -0.000500
v -0.123132 1.277870 -0.000500
v -0.041467 1.023026 -0.000500
v 0.106770 1.143696 -0.000500
v 0.032651 1.083361 -0.000500
v 0.213140 0.908964 -0.000500
v -0.073720 1.318093 -0.000500
v 0.048777 0.935827 -0.000500
v 0.172308 1.036386 -0.000500
v 0.163728 0.868740 -0.000500
v -0.172544 1.237647 -0.000500
v -0.131712 1.110225 -0.000500
v 0.041231 1.251006 -0.000500
v -0.045240 1.180616 -0.000500
v 0.110543 0.986107 -0.000500
v 0.069710 1.113529 -0.000500
v -0.004408 1.053194 -0.000500
v 0.079660 0.960967 -0.000500
v 0.141425 1.011246 -0.000500
v -0.002005 1.215811 -0.000500
v -0.088476 1.145420 -0.000500
v 0.077684 0.761988 -0.000500
v -0.344632 1.024142 -0.000500
v -0.183421 0.811283 -0.000500
v -0.083527 0.974847 -0.000500
v -0.133474 0.893065 -0.000500
v 0.094333 0.789249 -0.000500
v -0.311334 1.078663 -0.000500
v -0.069518 0.759375 -0.000500
v 0.013728 0.895678 -0.000500
v 0.061035 0.734727 -0.000500
v -0.377930 0.969620 -0.000500
v -0.297325 0.863191 -0.000500
v -0.180781 1.054015 -0.000500
v -0.239053 0.958603 -0.000500
v -0.027895 0.827526 -0.000500
v -0.108500 0.933956 -0.000500
v -0.158448 0.852174 -0.000500
v -0.048706 0.793451 -0.000500
v -0.007084 0.861602 -0.000500
v -0.209917 1.006309 -0.000500
v -0.268189 0.910897 -0.000500
v 0.015181 0.605174 -0.000500
v -0.469638 0.710514 -0.000500
v -0.247298 0.563958 -0.000500
v -0.207158 0.751729 -0.000500
v -0.227228 0.657844 -0.000500
v 0.021871 0.636469 -0.000500
v -0.456258 0.773104 -0.000500
v -0.122748 0.553271 -0.000500
v -0.089298 0.709747 -0.000500
v 0.008491 0.573879 -0.000500
v -0.483018 0.647923 -0.000500
v -0.371848 0.574645 -0.000500
v -0.325018 0.793712 -0.000500
v -0.348433 0.684179 -0.000500
v -0.106023 0.631509 -0.000500
v -0.217193 0.704787 -0.000500
v -0.237263 0.610901 -0.000500
v -0.114386 0.592390 -0.000500
v -0.097661 0.670628 -0.000500
v -0.336725 0.738945 -0.000500
v -0.360140 0.629412 -0.000500
v 1.496398 0.585333 -0.000500
v 1.500000 0.499834 -0.000500
v 1.500000 0.499834 1.000500
v -0.496398 0.585333 1.000500
v -0.500000 0.499834 1.000500
v -0.500000 0.499834 -0.000500
v -0.496398 0.585333 -0.000500
v -0.442878 0.835694 -0.000500
v -0.411228 0.915099 -0.000500
v -0.278036 1.133184 -0.000500
v -0.221956 1.197423 -0.000500
v -0.024307 1.358317 -0.000500
v 0.049796 1.400052 -0.000500
v 0.289321 1.485372 -0.000500
v 0.372982 1.499834 -0.000500
v 0.627018 1.499834 -0.000500
v 0.710679 1.485372 -0.000500
v 0.950204 1.400051 -0.000500
v 1.024307 1.358317 -0.000500
v 1.221956 1.197423 -0.000500
v 1.278036 1.133184 -0.000500
v 1.411228 0.915099 -0.000500
v 1.442878 0.835694 -0.000500
v 1.456258 0.773104 1.000500
v 1.442878 0.835694 1.000500
v 1.311334 1.078663 1.000500
v 1.278036 1.133184 1.000500
v 1.073720 1.318093 1.000500
v 1.024307 1.358317 1.000500
v 0.770560 1.464042 1.000500
v 0.710679 1.485372 1.000500
v 0.436491 1.499834 1.000500
v 0.372982 1.499834 1.000500
v 0.109677 1.421382 1.000500
v 0.049796 1.400051 1.000500
v -0.172544 1.237647 1.000500
v -0.221956 1.197423 1.000500
v 1.483018 0.647923 -0.000500
v 1.377930 0.969620 -0.000500
v 1.496398 0.585333 1.000500
v 1.411228 0.915099 1.000500
v 1.221956 1.197423 1.000500
v 0.950204 1.400052 1.000500
v 0.627018 1.499834 1.000500
v 0.289321 1.485372 1.000500
v -0.024307 1.358317 1.000500
v -0.278036 1.133184 1.000500
v -0.411229 0.915099 1.000500
v -0.442878 0.835694 1.000500
v 1.172544 1.237647 -0.000500
v 0.890323 1.421382 -0.000500
v 0.563509 1.499834 -0.000500
v 0.229440 1.464042 -0.000500
v -0.073720 1.318093 -0.000500
v -0.377930 0.969620 1.000500
v -0.311334 1.078663 -0.000500
v -0.483018 0.647923 1.000500
v -0.456258 0.773104 -0.000500
v -0.456258 0.773104 1.000500
v -0.469638 0.710514 1.000500
v -0.311334 1.078663 1.000500
v -0.344632 1.024142 1.000500
v -0.073720 1.318093 1.000500
v -0.123132 1.277870 1.000500
v 0.229440 1.464042 1.000500
v 0.169558 1.442712 1.000500
v 0.563509 1.499834 1.000500
v 0.500000 1.499834 1.000500
v 0.890323 1.421382 1.000500
v 0.830441 1.442712 1.000500
v 1.172544 1.237647 1.000500
v 1.123132 1.277870 1.000500
v 1.377930 0.969620 1.000500
v 1.344632 1.024142 1.000500
v 1.483018 0.647923 1.000500
v 1.469638 0.710514 1.000500
v 1.456258 0.773104 -0.000500
v 1.469638 0.710513 -0.000500
v 1.311334 1.078663 -0.000500
v 1.344632 1.024141 -0.000500
v 1.073720 1.318093 -0.000500
v 1.123132 1.277870 -0.000500
v 0.770561 1.464042 -0.000500
v 0.830442 1.442712 -0.000500
v 0.436491 1.499834 -0.000500
v 0.500000 1.499834 -0.000500
v 0.109677 1.421382 -0.000500
v 0.169559 1.442712 -0.000500
v -0.172544 1.237647 -0.000500
v -0.123132 1.277870 -0.000500
v -0.377930 0.969620 -0.000500
v -0.344632 1.024142 -0.000500
v -0.483018 0.647923 -0.000500
v -0.469638 0.710514 -0.000500
v 1.496398 0.585333 -0.000500
v 1.500000 0.499834 -0.000500
v 1.500000 0.499834 1.000500
v -0.496398 0.585333 1.000500
v -0.500000 0.499834 1.000500
v -0.500000 0.499834 -0.000500
v -0.496398 0.585333 -0.000500
v -0.442878 0.835694 -0.000500
v -0.411228 0.915099 -0.000500
v -0.278036 1.133184 -0.000500
v -0.221956 1.197423 -0.000500
v -0.024307 1.358317 -0.000500
v 0.049796 1.400052 -0.000500
v 0.289321 1.485372 -0.000500
v 0.372982 1.499834 -0.000500
v 0.627018 1.499834 -0.000500
v 0.710679 1.485372 -0.000500
v 0.950204 1.400051 -0.000500
v 1.024307 1.358317 -0.000500
v 1.221956 1.197423 -0.000500
v 1.278036 1.133184 -0.000500
v 1.411228 0.915099 -0.000500
v 1.442878 0.835694 -0.000500
v 1.456258 0.773104 1.000500
v 1.442878 0.835694 1.000500
v 1.311334 1.078663 1.000500
v 1.278036 1.133184 1.000500
v 1.073720 1.318093 1.000500
v 1.024307 1.358317 1.000500
v 0.770560 1.464042 1.000500
v 0.710679 1.485372 1.000500
v 0.436491 1.499834 1.000500
v 0.372982 1.499834 1.000500
v 0.109677 1.421382 1.000500
v 0.049796 1.400051 1.000500
v -0.172544 1.237647 1.000500
v -0.221956 1.197423 1.000500
v 1.483018 0.647923 -0.000500
v 1.377930 0.969620 -0.000500
v 1.496398 0.585333 1.000500
v 1.411228 0.915099 1.000500
v 1.221956 1.197423 1.000500
v 0.950204 1.400052 1.000500
v 0.627018 1.499834 1.000500
v 0.289321 1.485372 1.000500
v -0.024307 1.358317 1.000500
v -0.278036 1.133184 1.000500
v -0.411229 0.915099 1.000500
v -0.442878 0.835694 1.000500
v 1.172544 1.237647 -0.000500
v 0.890323 1.421382 -0.000500
v 0.563509 1.499834 -0.000500
v 0.229440 1.464042 -0.000500
v -0.073720 1.318093 -0.000500
v -0.377930 0.969620 1.000500
v -0.311334 1.078663 -0.000500
v -0.483018 0.647923 1.000500
v -0.456258 0.773104 -0.000500
v -0.456258 0.773104 1.000500
v -0.469638 0.710514 1.000500
v -0.311334 1.078663 1.000500
v -0.344632 1.024142 1.000500
v -0.073720 1.318093 1.000500
v -0.123132 1.277870 1.000500
v 0.229440 1.464042 1.000500
v 0.169558 1.442712 1.000500
v 0.563509 1.499834 1.000500
v 0.500000 1.499834 1.000500
v 0.890323 1.421382 1.000500
v 0.830441 1.442712 1.000500
v 1.172544 1.237647 1.000500
v 1.123132 1.277870 1.000500
v 1.377930 0.969620 1.000500
v 1.344632 1.024142 1.000500
v 1.483018 0.647923 1.000500
v 1.469638 0.710514 1.000500
v 1.456258 0.773104 -0.000500
v 1.469638 0.710513 -0.000500
v 1.311334 1.078663 -0.000500
v 1.344632 1.024141 -0.000500
v 1.073720 1.318093 -0.000500
v 1.123132 1.277870 -0.000500
v 0.770561 1.464042 -0.000500
v 0.830442 1.442712 -0.000500
v 0.436491 1.499834 -0.000500
v 0.500000 1.499834 -0.000500
v 0.109677 1.421382 -0.000500
v 0.169559 1.442712 -0.000500
v -0.172544 1.237647 -0.000500
v -0.123132 1.277870 -0.000500
v -0.377930 0.969620 -0.000500
v -0.344632 1.024142 -0.000500
v -0.483018 0.647923 -0.000500
v -0.469638 0.710514 -0.000500
v 1.496398 0.585333 -0.000500
v 1.500000 0.499834 -0.000500
v 1.500000 0.499834 1.000500
v -0.496398 0.585333 1.000500
v -0.500000 0.499834 1.000500
v -0.500000 0.499834 -0.000500
v -0.496398 0.585333 -0.000500
v -0.442878 0.835694 -0.000500
v -0.411228 0.915099 -0.000500
v -0.278036 1.133184 -0.000500
v -0.221956 1.197423 -0.000500
v -0.024307 1.358317 -0.000500
v 0.049796 1.400052 -0.000500
v 0.289321 1.485372 -0.000500
v 0.372982 1.499834 -0.000500
v 0.627018 1.499834 -0.000500
v 0.710679 1.485372 -0.000500
v 0.950204 1.400051 -0.000500
v 1.024307 1.358317 -0.000500
v 1.221956 1.197423 -0.000500
v 1.278036 1.133184 -0.000500
v 1.411228 0.915099 -0.000500
v 1.442878 0.835694 -0.000500
v 1.456258 0.773104 1.000500
v 1.442878 0.835694 1.000500
v 1.311334 1.078663 1.000500
v 1.278036 1.133184 1.000500
v 1.073720 1.318093 1.000500
v 1.024307 1.358317 1.000500
v 0.770560 1.464042 1.000500
v 0.710679 1.485372 1.000500
v 0.436491 1.499834 1.000500
v 0.372982 1.499834 1.000500
v 0.109677 1.421382 1.000500
v 0.049796 1.400051 1.000500
v -0.172544 1.237647 1.000500
v -0.221956 1.197423 1.000500
v 1.483018 0.647923 -0.000500
v 1.377930 0.969620 -0.000500
v 1.496398 0.585333 1.000500
v 1.411228 0.915099 1.000500
v 1.221956 1.197423 1.000500
v 0.950204 1.400052 1.000500
v 0.627018 1.499834 1.000500
v 0.289321 1.485372 1.000500
v -0.024307 1.358317 1.000500
v -0.278036 1.133184 1.000500
v -0.411229 0.915099 1.000500
v -0.442878 0.835694 1.000500
v 1.172544 1.237647 -0.000500
v 0.890323 1.421382 -0.000500
v 0.563509 1.499834 -0.000500
v 0.229440 1.464042 -0.000500
v -0.073720 1.318093 -0.000500
v -0.377930 0.969620 1.000500
v -0.311334 1.078663 -0.000500
v -0.483018 0.647923 1.000500
v -0.456258 0.773104 -0.000500
v -0.456258 0.773104 1.000500
v -0.469638 0.710514 1.000500
v -0.311334 1.078663 1.000500
v -0.344632 1.024142 1.000500
v -0.073720 1.318093 1.000500
v -0.123132 1.277870 1.000500
v 0.229440 1.464042 1.000500
v 0.169558 1.442712 1.000500
v 0.563509 1.499834 1.000500
v 0.500000 1.499834 1.000500
v 0.890323 1.421382 1.000500
v 0.830441 1.442712 1.000500
v 1.172544 1.237647 1.000500
v 1.123132 1.277870 1.000500
v 1.377930 0.969620 1.000500
v 1.344632 1.024142 1.000500
v 1.483018 0.647923 1.000500
v 1.469638 0.710514 1.000500
v 1.456258 0.773104 -0.000500
v 1.469638 0.710513 -0.000500
v 1.311334 1.078663 -0.000500
v 1.344632 1.024141 -0.000500
v 1.073720 1.318093 -0.000500
v 1.123132 1.277870 -0.000500
v 0.770561 1.464042 -0.000500
v 0.830442 1.442712 -0.000500
v 0.436491 1.499834 -0.000500
v 0.500000 1.499834 -0.000500
v 0.109677 1.421382 -0.000500
v 0.169559 1.442712 -0.000500
v -0.172544 1.237647 -0.000500
v -0.123132 1.277870 -0.000500
v -0.377930 0.969620 -0.000500
v -0.344632 1.024142 -0.000500
v -0.483018 0.647923 -0.000500
v -0.469638 0.710514 -0.000500
vn -0.0000 -0.0000 -1.0000
vn -0.0000 -1.0000 -0.0000
vn -0.0000 -0.0000 1.0000
vn 0.9991 -0.0421 -0.0000
vn -0.0000 1.0000 -0.0000
vn -0.9991 -0.0421 -0.0000
vn -0.9289 -0.3703 -0.0000
vn -0.7533 -0.6576 -0.0000
vn -0.9779 -0.2090 -0.0000
vn -0.8534 -0.5212 -0.0000
vn -0.6313 -0.7755 -0.0000
vn -0.4907 -0.8713 -0.0000
vn -0.3356 -0.9420 -0.0000
vn 0.3356 -0.9420 -0.0000
vn -0.1703 -0.9854 -0.0000
vn 0.6313 -0.7755 -0.0000
vn 0.1703 -0.9854 -0.0000
vn 0.4907 -0.8713 -0.0000
vn 0.7533 -0.6576 -0.0000
vn 0.8534 -0.5212 -0.0000
vn 0.9289 -0.3703 -0.0000
vn 0.9779 -0.2090 -0.0000
vn -0.9991 0.0421 -0.0000
vn 0.9991 0.0421 -0.0000
vn 0.9289 0.3703 -0.0000
vn 0.7533 0.6576 -0.0000
vn 0.4907 0.8713 -0.0000
vn 0.1703 0.9854 -0.0000
vn -0.1703 0.9854 -0.0000
vn -0.4907 0.8713 -0.0000
vn -0.8534 0.5212 -0.0000
vn -0.6313 0.7755 -0.0000
vn -0.3356 0.9420 -0.0000
vn -0.7533 0.6576 -0.0000
vn 0.3356 0.9420 -0.0000
vn 0.6313 0.7755 -0.0000
vn -0.9289 0.3703 -0.0000
vn 0.8534 0.5212 -0.0000
vn 0.9779 0.2090 -0.0000
vn -0.9779 0.2090 -0.0000
vt 0.750000 0.812500
vt 0.250000 0.812500
vt 0.500000 0.750000
vt 0.250000 0.312500
vt 0.500000 0.250000
vt 0.500000 0.312500
vt 0.625000 0.750000
vt 0.375000 0.312500
vt 0.625000 0.250000
vt 0.625000 0.312500
vt 0.000000 0.312500
vt 1.000000 0.250000
vt 1.000000 0.312500
vt 1.000000 0.703125
vt 1.000000 0.656250
vt 0.500000 0.750000
vt 0.500000 0.703125
vt 0.500000 0.062500
vt 0.500000 0.000000
vt 0.500000 0.656250
vt 0.500000 0.609375
vt 0.750000 0.906250
vt 0.750000 0.859375
vt 1.000000 0.062500
vt 1.000000 0.000000
vt 1.000000 0.609375
vt 0.750000 0.359375
vt 0.750000 0.312500
vt 0.750000 0.750000
vt 0.500000 0.109375
vt 0.500000 0.062500
vt 0.750000 0.953125
vt 0.750000 1.000000
vt 0.500000 0.562500
vt 0.500000 0.500000
vt 0.500000 0.156250
vt 1.000000 0.562500
vt 1.000000 0.500000
vt 1.000000 0.156250
vt 1.000000 0.109375
vt 0.750000 0.812500
vt 0.500000 0.609375
vt 0.625000 0.562500
vt 0.625000 0.609375
vt 0.000000 0.062500
vt 1.000000 0.000000
vt 1.000000 0.062500
vt 0.000000 0.609375
vt 0.125000 0.562500
vt 0.125000 0.609375
vt 0.250000 0.859375
vt 0.375000 0.812500
vt 0.375000 0.859375
vt 0.500000 0.109375
vt 0.625000 0.062500
vt 0.625000 0.109375
vt 0.125000 0.109375
vt 0.000000 0.062500
vt 0.125000 0.062500
vt 0.375000 0.359375
vt 0.250000 0.312500
vt 0.375000 0.312500
vt 0.500000 0.562500
vt 0.000000 0.562500
vt 1.000000 0.500000
vt 1.000000 0.562500
vt 1.000000 0.406250
vt 0.000000 0.406250
vt 0.000000 0.375000
vt 1.000000 0.468750
vt 0.000000 0.468750
vt 0.000000 0.437500
vt 1.000000 0.906250
vt 0.000000 0.906250
vt 0.000000 0.875000
vt 0.000000 0.812500
vt 1.000000 0.750000
vt 1.000000 0.812500
vt 1.000000 0.968750
vt 0.000000 0.968750
vt 0.000000 0.937500
vt 1.000000 0.406250
vt 0.000000 0.406250
vt 0.000000 0.375000
vt 1.000000 0.468750
vt 0.000000 0.468750
vt 0.000000 0.437500
vt 0.625000 0.812500
vt 0.625000 0.859375
vt 0.375000 0.562500
vt 0.375000 0.609375
vt 0.875000 0.562500
vt 0.875000 0.609375
vt 0.625000 0.312500
vt 0.625000 0.359375
vt 0.375000 0.062500
vt 0.375000 0.109375
vt 0.875000 0.109375
vt 1.000000 0.062500
vt 0.250000 0.812500
vt 1.000000 0.406250
vt 0.000000 0.406250
vt 0.000000 0.375000
vt 0.750000 0.250000
vt 0.500000 0.312500
vt 0.671875 0.562500
vt 0.562500 0.562500
vt 0.671875 0.500000
vt 0.000000 0.562500
vt 0.125000 0.500000
vt 0.875000 0.062500
vt 0.250000 0.062500
vt 0.250000 0.000000
vt 0.375000 0.250000
vt 0.875000 0.500000
vt 0.375000 0.500000
vt 0.500000 0.562500
vt 0.625000 0.500000
vt 0.250000 0.562500
vt 0.500000 0.812500
vt 0.875000 0.000000
vt 0.750000 0.062500
vt 0.375000 0.000000
vt 0.625000 0.250000
vt 0.625000 0.953125
vt 0.500000 0.906250
vt 0.625000 0.906250
vt 0.375000 0.953125
vt 0.250000 0.906250
vt 0.375000 0.906250
vt 0.500000 0.953125
vt 0.500000 1.000000
vt 0.375000 1.000000
vt 0.250000 0.953125
vt 0.625000 1.000000
vt 0.500000 0.859375
vt 0.375000 0.703125
vt 0.250000 0.656250
vt 0.375000 0.656250
vt 0.125000 0.703125
vt 0.000000 0.656250
vt 0.125000 0.656250
vt 0.250000 0.703125
vt 0.250000 0.750000
vt 0.125000 0.750000
vt 0.000000 0.703125
vt 0.375000 0.750000
vt 0.250000 0.609375
vt 0.750000 0.562500
vt 0.875000 0.703125
vt 0.750000 0.656250
vt 0.875000 0.656250
vt 0.625000 0.703125
vt 0.500000 0.656250
vt 0.625000 0.656250
vt 0.750000 0.703125
vt 0.750000 0.750000
vt 0.500000 0.703125
vt 1.000000 0.750000
vt 0.875000 0.750000
vt 0.750000 0.609375
vt 0.625000 0.359375
vt 0.625000 0.453125
vt 0.500000 0.406250
vt 0.625000 0.406250
vt 0.375000 0.453125
vt 0.250000 0.406250
vt 0.375000 0.406250
vt 0.500000 0.453125
vt 0.500000 0.500000
vt 0.250000 0.453125
vt 0.750000 0.453125
vt 0.750000 0.406250
vt 0.750000 0.500000
vt 0.500000 0.359375
vt 0.250000 0.359375
vt 0.375000 0.109375
vt 0.250000 0.203125
vt 0.375000 0.156250
vt 0.375000 0.203125
vt 0.000000 0.203125
vt 0.125000 0.156250
vt 0.125000 0.203125
vt 0.250000 0.156250
vt 0.125000 0.250000
vt 0.250000 0.250000
vt 0.000000 0.250000
vt 0.500000 0.203125
vt 0.500000 0.250000
vt 0.250000 0.109375
vt 0.000000 0.109375
vt 0.750000 0.109375
vt 0.875000 0.109375
vt 0.750000 0.203125
vt 0.875000 0.156250
vt 0.875000 0.203125
vt 0.500000 0.203125
vt 0.625000 0.156250
vt 0.625000 0.203125
vt 0.750000 0.156250
vt 0.750000 0.250000
vt 0.500000 0.250000
vt 1.000000 0.203125
vt 0.875000 0.250000
vt 1.000000 0.250000
vt 0.500000 0.156250
vt 0.250000 1.000000
vt 0.000000 0.750000
vt 0.625000 0.453125
vt 0.250000 0.500000
vt 0.375000 0.203125
vt 0.000000 0.156250
vt 0.875000 0.203125
vt 0.250000 0.250000
vt 0.375000 0.250000
vt 0.000000 0.250000
vt 0.750000 0.312500
vt 0.000000 0.000000
vt 0.500000 0.062500
vt 0.000000 0.500000
vt 0.000000 0.312500
vt 1.000000 0.312500
vt 1.000000 0.343750
vt 0.000000 0.343750
vt 1.000000 0.375000
vt 1.000000 0.437500
vt 1.000000 0.375000
vt 1.000000 0.437500
vt 1.000000 0.843750
vt 0.000000 0.843750
vt 1.000000 0.875000
vt 1.000000 0.937500
vt 1.000000 1.000000
vt 0.000000 1.000000
vt 1.000000 0.343750
vt 0.000000 0.343750
vt 0.000000 0.500000
vt 0.000000 0.312500
vt 1.000000 0.312500
vt 1.000000 0.343750
vt 0.000000 0.343750
vt 1.000000 0.375000
vt 1.000000 0.437500
vt 0.000000 0.437500
vt 0.250000 0.312500
vt 0.250000 0.250000
vt 0.562500 0.500000
vt 0.781250 0.500000
vt 0.890625 0.500000
vt 0.781250 0.562500
vt 0.890625 0.562500
vt 0.000000 0.500000
vt 0.250000 0.500000
vt 0.500000 0.062500
vt 0.500000 -0.000000
vt 0.625000 0.000000
vt 0.750000 0.000000
vt 0.000000 0.062500
vt 0.000000 -0.000000
vt 0.125000 0.000000
vt 0.500000 0.500000
vt 0.750000 0.500000
vt 0.000000 -0.000250
vt 1.000000 0.062250
vt 1.000000 -0.000250
vt 0.002879 0.250000
vt 0.000000 0.249750
vt 1.000000 0.312250
vt 1.000000 0.249750
vt 0.000000 0.905000
vt 0.000000 0.951875
vt 1.000000 0.951875
vt 0.000000 0.453125
vt 1.000000 0.453125
vt 0.000000 0.953125
vt 1.000000 0.953125
vt 1.000000 0.312250
vt 0.000000 0.405000
vt 0.000000 0.451875
vt 1.000000 0.451875
vt 0.000000 0.062250
vt 0.002879 0.312500
vt 0.000000 0.312250
vt 1.000000 0.858125
vt 1.000000 0.811250
vt 0.000000 0.811250
vt 0.000000 0.858125
vt 1.000000 0.905000
vt 0.000000 0.998750
vt 1.000000 0.998750
vt 1.000000 0.359375
vt 0.000000 0.359375
vt 1.000000 0.859375
vt 0.000000 0.859375
vt 0.000000 0.312250
vt 1.000000 0.358125
vt 1.000000 0.311250
vt 0.000000 0.311250
vt 0.000000 0.358125
vt 1.000000 0.405000
vt 0.000000 0.498750
vt 1.000000 0.498750
s 0
usemtl arch_mat
f 4/1/1 3/2/1 273/3/1
f 4/4/2 7/5/2 3/6/2
f 93/7/3 6/1/3 84/3/3
f 6/8/2 1/9/2 5/10/2
f 45/11/4 1/12/4 26/13/4
f 128/14/5 123/15/5 522/15/5 494/14/5
f 78/16/5 107/17/5 513/17/5 506/16/5
f 37/18/5 36/19/5 474/19/5 475/18/5
f 418/20/5 427/21/5 549/21/5 550/20/5
f 81/22/5 90/23/5 517/23/5 518/22/5
f 35/24/5 34/25/5 472/25/5 473/24/5
f 249/15/5 258/26/5 533/26/5 534/15/5
f 343/27/5 37/28/5 475/28/5 541/27/5
f 33/1/5 32/29/5 470/29/5 471/1/5
f 174/30/5 71/31/5 502/31/5 525/30/5
f 402/32/5 397/22/5 548/22/5 512/32/5
f 32/33/5 402/32/5 512/32/5 470/33/5
f 31/34/5 30/35/5 468/35/5 469/34/5
f 233/17/5 228/20/5 532/20/5 484/17/5
f 355/36/5 364/30/5 543/30/5 544/36/5
f 29/37/5 28/38/5 466/38/5 467/37/5
f 186/39/5 195/40/5 527/40/5 528/39/5
f 280/23/5 43/41/5 481/41/5 535/23/5
f 259/42/3 256/43/3 269/44/3
f 7/45/6 9/46/6 3/47/6
f 238/48/3 235/49/3 248/50/3
f 217/51/3 214/52/3 227/53/3
f 196/54/3 193/55/3 206/56/3
f 61/11/7 11/12/7 10/13/7
f 185/57/3 54/58/3 172/59/3
f 164/60/3 52/61/3 151/62/3
f 143/44/3 50/63/3 130/43/3
f 59/64/8 13/65/8 12/66/8
f 255/67/9 279/68/9 270/69/9
f 234/70/10 300/71/10 291/72/10
f 213/73/11 321/74/11 312/75/11
f 57/76/12 15/77/12 14/78/12
f 192/79/13 342/80/13 333/81/13
f 171/82/2 363/83/2 354/84/2
f 150/85/14 384/86/14 375/87/14
f 55/45/15 17/46/15 16/47/15
f 129/73/16 405/74/16 396/75/16
f 281/88/1 280/23/1 290/89/1
f 302/90/1 301/21/1 311/91/1
f 53/11/17 19/12/17 18/13/17
f 323/92/1 322/26/1 332/93/1
f 344/94/1 343/27/1 353/95/1
f 365/96/1 364/30/1 374/97/1
f 51/64/18 21/65/18 20/66/18
f 395/98/1 33/99/1 385/40/1
f 416/89/1 31/41/1 406/23/1
f 122/50/3 48/64/3 109/49/3
f 49/76/19 23/77/19 22/78/19
f 108/79/20 426/80/20 417/81/20
f 437/91/1 29/63/1 427/21/1
f 448/26/5 27/66/5 465/66/5 551/26/5
f 47/45/21 25/46/21 24/47/21
f 101/53/3 46/100/3 88/52/3
f 87/101/22 447/102/22 438/103/22
f 458/93/1 27/66/1 448/26/1
f 8/104/3 260/94/3 251/105/3
f 235/106/3 60/107/3 257/108/3
f 214/49/3 58/109/3 236/110/3
f 219/7/3 68/29/3 197/88/3
f 70/25/3 71/24/3 176/111/3
f 155/96/3 146/112/3 168/113/3
f 125/105/3 130/62/3 152/114/3
f 135/115/3 76/38/3 77/37/3
f 79/34/3 92/90/3 114/116/3
f 2/104/1 449/94/1 440/105/1
f 424/43/1 24/117/1 446/118/1
f 407/90/1 398/119/1 429/116/1
f 377/120/1 382/52/1 399/3/1
f 387/121/1 365/111/1 356/122/1
f 366/123/1 36/19/1 37/18/1
f 39/104/1 323/124/1 345/94/1
f 324/115/1 41/37/1 302/92/1
f 303/116/1 43/34/1 281/90/1
f 100/89/3 83/120/3 92/88/3
f 99/125/3 85/126/3 96/127/3
f 98/128/3 82/129/3 97/130/3
f 95/131/3 97/130/3 85/126/3
f 84/132/3 98/128/3 95/131/3
f 89/133/3 87/134/3 98/128/3
f 86/32/3 96/127/3 81/22/3
f 80/33/3 99/125/3 86/32/3
f 93/135/3 95/131/3 99/125/3
f 90/23/3 92/88/3 79/41/3
f 81/22/3 100/89/3 90/23/3
f 96/127/3 94/136/3 100/89/3
f 94/136/3 88/52/3 83/120/3
f 85/126/3 101/53/3 94/136/3
f 97/130/3 91/51/3 101/53/3
f 121/91/3 104/119/3 113/90/3
f 120/137/3 106/138/3 117/139/3
f 119/140/3 103/141/3 118/142/3
f 116/143/3 118/142/3 106/138/3
f 105/144/3 119/140/3 116/143/3
f 110/145/3 108/146/3 119/140/3
f 107/17/3 117/139/3 102/20/3
f 78/16/3 120/137/3 107/17/3
f 114/147/3 116/143/3 120/137/3
f 111/21/3 113/90/3 77/63/3
f 102/20/3 121/91/3 111/21/3
f 117/139/3 115/148/3 121/91/3
f 115/148/3 109/49/3 104/119/3
f 106/138/3 122/50/3 115/148/3
f 118/142/3 112/48/3 122/50/3
f 142/93/3 125/149/3 134/92/3
f 141/150/3 127/151/3 138/152/3
f 140/153/3 124/154/3 139/155/3
f 137/156/3 139/155/3 127/151/3
f 126/157/3 140/153/3 137/156/3
f 131/7/3 129/158/3 140/153/3
f 128/14/3 138/152/3 123/15/3
f 76/159/3 141/150/3 128/14/3
f 135/160/3 137/156/3 141/150/3
f 132/26/3 134/92/3 75/66/3
f 123/15/3 142/93/3 132/26/3
f 138/152/3 136/161/3 142/93/3
f 136/161/3 130/43/3 125/149/3
f 127/151/3 143/44/3 136/161/3
f 139/155/3 133/42/3 143/44/3
f 163/162/3 146/105/3 155/94/3
f 162/163/3 148/164/3 159/165/3
f 161/166/3 145/167/3 160/168/3
f 158/169/3 160/168/3 148/164/3
f 147/170/3 161/166/3 158/169/3
f 152/116/3 150/171/3 161/166/3
f 149/172/3 159/165/3 144/173/3
f 74/174/3 162/163/3 149/172/3
f 156/118/3 158/169/3 162/163/3
f 153/27/3 155/94/3 73/28/3
f 144/173/3 163/162/3 153/27/3
f 159/165/3 157/175/3 163/162/3
f 157/175/3 151/62/3 146/105/3
f 148/164/3 164/60/3 157/175/3
f 160/168/3 154/176/3 164/60/3
f 184/177/3 167/112/3 176/96/3
f 179/178/3 180/179/3 183/180/3
f 171/181/3 181/182/3 182/183/3
f 182/183/3 169/184/3 179/178/3
f 173/185/3 179/178/3 168/186/3
f 53/187/3 182/183/3 173/185/3
f 183/180/3 165/36/3 170/188/3
f 177/114/3 170/188/3 72/189/3
f 168/186/3 183/180/3 177/114/3
f 174/30/3 176/96/3 71/31/3
f 165/36/3 184/177/3 174/30/3
f 180/179/3 178/190/3 184/177/3
f 178/190/3 172/59/3 167/112/3
f 169/184/3 185/57/3 178/190/3
f 181/182/3 175/191/3 185/57/3
f 199/192/3 197/111/3 205/193/3
f 200/194/3 201/195/3 204/196/3
f 192/197/3 202/198/3 203/199/3
f 203/199/3 190/200/3 200/194/3
f 194/124/3 200/194/3 189/201/3
f 55/202/3 203/199/3 194/124/3
f 204/196/3 186/39/3 191/203/3
f 198/204/3 191/203/3 70/205/3
f 189/201/3 204/196/3 198/204/3
f 205/193/3 69/99/3 195/40/3
f 201/195/3 195/40/3 186/39/3
f 190/200/3 205/193/3 201/195/3
f 206/56/3 188/122/3 199/192/3
f 202/198/3 199/192/3 190/200/3
f 187/206/3 206/56/3 202/198/3
f 220/136/3 218/88/3 226/89/3
f 221/131/3 222/127/3 225/125/3
f 213/134/3 223/130/3 224/128/3
f 224/128/3 211/126/3 221/131/3
f 215/133/3 221/131/3 210/132/3
f 57/207/3 224/128/3 215/133/3
f 225/125/3 207/22/3 212/32/3
f 219/135/3 212/32/3 68/33/3
f 210/132/3 225/125/3 219/135/3
f 226/89/3 67/41/3 216/23/3
f 222/127/3 216/23/3 207/22/3
f 211/126/3 226/89/3 222/127/3
f 227/53/3 209/120/3 220/136/3
f 223/130/3 220/136/3 211/126/3
f 208/129/3 227/53/3 223/130/3
f 241/148/3 239/90/3 247/91/3
f 242/143/3 243/139/3 246/137/3
f 234/146/3 244/142/3 245/140/3
f 245/140/3 232/138/3 242/143/3
f 236/145/3 242/143/3 231/144/3
f 59/208/3 245/140/3 236/145/3
f 246/137/3 228/20/3 233/17/3
f 240/147/3 233/17/3 66/16/3
f 231/144/3 246/137/3 240/147/3
f 247/91/3 65/63/3 237/21/3
f 243/139/3 237/21/3 228/20/3
f 232/138/3 247/91/3 243/139/3
f 248/50/3 230/119/3 241/148/3
f 244/142/3 241/148/3 232/138/3
f 229/141/3 248/50/3 244/142/3
f 262/161/3 260/92/3 268/93/3
f 263/156/3 264/152/3 267/150/3
f 255/158/3 265/155/3 266/153/3
f 266/153/3 253/151/3 263/156/3
f 257/7/3 263/156/3 252/157/3
f 61/3/3 266/153/3 257/7/3
f 267/150/3 249/15/3 254/14/3
f 261/160/3 254/14/3 64/159/3
f 252/157/3 267/150/3 261/160/3
f 268/93/3 63/66/3 258/26/3
f 264/152/3 258/26/3 249/15/3
f 253/151/3 268/93/3 264/152/3
f 269/44/3 251/149/3 262/161/3
f 265/155/3 262/161/3 253/151/3
f 250/154/3 269/44/3 265/155/3
f 283/127/1 276/32/1 289/125/1
f 284/130/1 285/131/1 288/128/1
f 277/52/1 286/136/1 287/53/1
f 287/53/1 274/126/1 284/130/1
f 279/51/1 284/130/1 270/129/1
f 10/100/1 287/53/1 279/51/1
f 288/128/1 273/132/1 278/133/1
f 275/134/1 278/133/1 9/207/1
f 270/129/1 288/128/1 275/134/1
f 289/125/1 44/33/1 282/135/1
f 285/131/1 282/135/1 273/132/1
f 274/126/1 289/125/1 285/131/1
f 290/89/1 271/22/1 283/127/1
f 286/136/1 283/127/1 274/126/1
f 272/120/1 290/89/1 286/136/1
f 304/139/1 297/17/1 310/137/1
f 305/142/1 306/143/1 309/140/1
f 298/49/1 307/148/1 308/50/1
f 308/50/1 295/138/1 305/142/1
f 300/48/1 305/142/1 291/141/1
f 12/64/1 308/50/1 300/48/1
f 309/140/1 294/144/1 299/145/1
f 296/146/1 299/145/1 11/208/1
f 291/141/1 309/140/1 296/146/1
f 310/137/1 42/16/1 303/147/1
f 306/143/1 303/147/1 294/144/1
f 295/138/1 310/137/1 306/143/1
f 311/91/1 292/20/1 304/139/1
f 307/148/1 304/139/1 295/138/1
f 293/119/1 311/91/1 307/148/1
f 325/152/1 318/14/1 331/150/1
f 326/155/1 327/156/1 330/153/1
f 319/43/1 328/161/1 329/44/1
f 329/44/1 316/151/1 326/155/1
f 321/42/1 326/155/1 312/154/1
f 14/63/1 329/44/1 321/42/1
f 330/153/1 315/157/1 320/7/1
f 317/158/1 320/7/1 13/3/1
f 312/154/1 330/153/1 317/158/1
f 331/150/1 40/159/1 324/160/1
f 327/156/1 324/160/1 315/157/1
f 316/151/1 331/150/1 327/156/1
f 332/93/1 313/15/1 325/152/1
f 328/161/1 325/152/1 316/151/1
f 314/149/1 332/93/1 328/161/1
f 346/165/1 339/172/1 352/209/1
f 347/168/1 348/169/1 351/166/1
f 340/62/1 349/175/1 350/60/1
f 350/60/1 337/164/1 347/168/1
f 342/176/1 347/168/1 333/167/1
f 16/61/1 350/60/1 342/176/1
f 351/166/1 336/170/1 341/116/1
f 338/171/1 341/116/1 15/210/1
f 333/167/1 351/166/1 338/171/1
f 352/209/1 38/174/1 345/118/1
f 348/169/1 345/118/1 336/170/1
f 337/164/1 352/209/1 348/169/1
f 353/95/1 334/173/1 346/165/1
f 349/175/1 346/165/1 337/164/1
f 335/105/1 353/95/1 349/175/1
f 373/211/1 355/36/1 360/188/1
f 372/183/1 358/184/1 369/178/1
f 361/59/1 370/190/1 371/57/1
f 371/57/1 358/184/1 368/182/1
f 363/191/1 368/182/1 354/212/1
f 18/58/1 371/57/1 363/191/1
f 362/185/1 369/178/1 357/186/1
f 17/187/1 372/183/1 362/185/1
f 359/181/1 368/182/1 372/183/1
f 366/114/1 360/188/1 36/189/1
f 357/186/1 373/211/1 366/114/1
f 369/178/1 367/179/1 373/211/1
f 374/97/1 355/36/1 367/179/1
f 370/190/1 367/179/1 358/184/1
f 356/112/1 374/97/1 370/190/1
f 394/213/1 376/39/1 381/203/1
f 393/199/1 379/200/1 390/194/1
f 392/56/1 377/122/1 391/192/1
f 389/198/1 391/192/1 379/200/1
f 375/206/1 392/56/1 389/198/1
f 384/54/1 382/55/1 392/56/1
f 383/124/1 390/194/1 378/201/1
f 19/202/1 393/199/1 383/124/1
f 380/197/1 389/198/1 393/199/1
f 387/204/1 381/203/1 34/205/1
f 378/201/1 394/213/1 387/204/1
f 390/194/1 388/195/1 394/213/1
f 388/195/1 385/40/1 376/39/1
f 379/200/1 395/98/1 388/195/1
f 391/192/1 386/111/1 395/98/1
f 415/125/1 397/22/1 402/32/1
f 414/128/1 400/126/1 411/131/1
f 413/53/1 398/120/1 412/136/1
f 410/130/1 412/136/1 400/126/1
f 396/129/1 413/53/1 410/130/1
f 405/51/1 403/52/1 413/53/1
f 404/133/1 411/131/1 399/132/1
f 21/207/1 414/128/1 404/133/1
f 401/134/1 410/130/1 414/128/1
f 408/135/1 402/32/1 32/33/1
f 399/132/1 415/125/1 408/135/1
f 411/131/1 409/127/1 415/125/1
f 409/127/1 406/23/1 397/22/1
f 400/126/1 416/89/1 409/127/1
f 412/136/1 407/88/1 416/89/1
f 436/137/1 418/20/1 423/17/1
f 435/140/1 421/138/1 432/143/1
f 434/50/1 419/119/1 433/148/1
f 431/142/1 433/148/1 421/138/1
f 417/141/1 434/50/1 431/142/1
f 426/48/1 424/49/1 434/50/1
f 425/145/1 432/143/1 420/144/1
f 23/208/1 435/140/1 425/145/1
f 422/146/1 431/142/1 435/140/1
f 429/147/1 423/17/1 30/16/1
f 420/144/1 436/137/1 429/147/1
f 432/143/1 430/139/1 436/137/1
f 430/139/1 427/21/1 418/20/1
f 421/138/1 437/91/1 430/139/1
f 433/148/1 428/90/1 437/91/1
f 457/150/1 439/15/1 444/14/1
f 456/153/1 442/151/1 453/156/1
f 455/44/1 440/149/1 454/161/1
f 452/155/1 454/161/1 442/151/1
f 438/154/1 455/44/1 452/155/1
f 447/42/1 445/43/1 455/44/1
f 446/7/1 453/156/1 441/157/1
f 25/3/1 456/153/1 446/7/1
f 443/158/1 452/155/1 456/153/1
f 450/160/1 444/14/1 28/159/1
f 441/157/1 457/150/1 450/160/1
f 453/156/1 451/152/1 457/150/1
f 451/152/1 448/26/1 439/15/1
f 442/151/1 458/93/1 451/152/1
f 454/161/1 449/92/1 458/93/1
f 3/2/1 9/144/1 278/147/1
f 273/3/1 282/7/1 4/1/1
f 282/7/1 44/29/1 4/1/1
f 3/2/1 278/147/1 273/3/1
f 4/4/2 8/214/2 7/5/2
f 5/2/3 45/144/3 89/147/3
f 5/2/3 89/147/3 84/3/3
f 80/29/3 6/1/3 93/7/3
f 6/1/3 5/2/3 84/3/3
f 6/8/2 2/215/2 1/9/2
f 45/11/4 5/216/4 1/12/4
f 27/217/5 2/104/5 464/104/5 465/217/5
f 111/21/5 77/63/5 505/63/5 519/21/5
f 339/172/5 334/173/5 542/173/5 509/172/5
f 170/188/5 165/36/5 526/36/5 490/188/5
f 34/205/5 381/203/5 511/203/5 472/205/5
f 292/20/5 301/21/5 537/21/5 538/20/5
f 123/15/5 132/26/5 521/26/5 522/15/5
f 385/40/5 33/99/5 471/99/5 545/40/5
f 276/32/5 271/22/5 536/22/5 496/32/5
f 216/23/5 67/41/5 500/41/5 529/23/5
f 444/14/5 439/15/5 552/15/5 516/14/5
f 107/17/5 102/20/5 520/20/5 513/17/5
f 76/159/5 128/14/5 494/14/5 495/159/5
f 397/22/5 406/23/5 547/23/5 548/22/5
f 36/189/5 360/188/5 510/188/5 474/189/5
f 228/20/5 237/21/5 531/21/5 532/20/5
f 322/26/5 39/66/5 477/66/5 539/26/5
f 153/27/5 73/28/5 503/28/5 523/27/5
f 381/203/5 376/39/5 546/39/5 511/203/5
f 74/174/5 149/172/5 492/172/5 493/174/5
f 28/159/5 444/14/5 516/14/5 466/159/5
f 212/32/5 207/22/5 530/22/5 486/32/5
f 72/189/5 170/188/5 490/188/5 491/189/5
f 79/34/5 78/35/5 506/35/5 507/34/5
f 334/173/5 343/27/5 541/27/5 542/173/5
f 70/205/5 191/203/5 488/203/5 489/205/5
f 165/36/5 174/30/5 525/30/5 526/36/5
f 77/37/5 76/38/5 495/38/5 505/37/5
f 38/174/5 339/172/5 509/172/5 476/174/5
f 427/21/5 29/63/5 467/63/5 549/21/5
f 2/215/5 6/8/5 463/8/5 464/215/5
f 90/23/5 79/41/5 507/41/5 517/23/5
f 318/14/5 313/15/5 540/15/5 508/14/5
f 75/217/5 74/104/5 493/104/5 504/217/5
f 258/26/5 63/66/5 498/66/5 533/26/5
f 149/172/5 144/173/5 524/173/5 492/172/5
f 68/33/5 212/32/5 486/32/5 487/33/5
f 73/18/5 72/19/5 491/19/5 503/18/5
f 271/22/5 280/23/5 535/23/5 536/22/5
f 439/15/5 448/26/5 551/26/5 552/15/5
f 66/16/5 233/17/5 484/17/5 485/16/5
f 71/24/5 70/25/5 489/25/5 502/24/5
f 102/20/5 111/21/5 519/21/5 520/20/5
f 80/33/5 86/32/5 515/32/5 462/33/5
f 364/30/5 35/31/5 473/31/5 543/30/5
f 6/1/5 80/29/5 462/29/5 463/1/5
f 64/159/5 254/14/5 482/14/5 483/159/5
f 69/1/5 68/29/5 487/29/5 501/1/5
f 40/159/5 318/14/5 508/14/5 478/159/5
f 195/40/5 69/99/5 501/99/5 527/40/5
f 423/17/5 418/20/5 550/20/5 514/17/5
f 86/32/5 81/22/5 518/22/5 515/32/5
f 67/34/5 66/35/5 485/35/5 500/34/5
f 254/14/5 249/15/5 534/15/5 482/14/5
f 376/39/5 385/40/5 545/40/5 546/39/5
f 65/37/5 64/38/5 483/38/5 499/37/5
f 30/16/5 423/17/5 514/17/5 468/16/5
f 207/22/5 216/23/5 529/23/5 530/22/5
f 8/214/5 4/4/5 460/4/5 461/214/5
f 301/21/5 41/63/5 479/63/5 537/21/5
f 63/217/5 8/104/5 461/104/5 498/217/5
f 132/26/5 75/66/5 504/66/5 521/26/5
f 360/188/5 355/36/5 544/36/5 510/188/5
f 42/16/5 297/17/5 497/17/5 480/16/5
f 191/203/5 186/39/5 528/39/5 488/203/5
f 43/34/5 42/35/5 480/35/5 481/34/5
f 259/42/3 62/63/3 256/43/3
f 7/45/6 62/218/6 9/46/6
f 238/48/3 60/64/3 235/49/3
f 217/51/3 58/100/3 214/52/3
f 196/54/3 56/219/3 193/55/3
f 61/11/7 60/216/7 11/12/7
f 185/57/3 175/191/3 54/58/3
f 164/60/3 154/176/3 52/61/3
f 143/44/3 133/42/3 50/63/3
f 59/64/8 58/220/8 13/65/8
f 9/221/9 62/222/9 259/223/9
f 9/221/9 259/223/9 275/224/9
f 259/223/9 250/225/9 275/224/9
f 255/67/9 61/226/9 10/87/9
f 275/224/9 250/225/9 270/69/9
f 250/225/9 255/67/9 270/69/9
f 255/67/9 10/87/9 279/68/9
f 11/84/10 60/227/10 238/82/10
f 11/84/10 238/82/10 296/83/10
f 238/82/10 229/228/10 296/83/10
f 234/70/10 59/65/10 12/220/10
f 296/83/10 229/228/10 291/72/10
f 229/228/10 234/70/10 291/72/10
f 234/70/10 12/220/10 300/71/10
f 13/76/11 58/78/11 217/229/11
f 13/76/11 217/229/11 317/230/11
f 217/229/11 208/231/11 317/230/11
f 213/73/11 57/232/11 14/81/11
f 317/230/11 208/231/11 312/75/11
f 208/231/11 213/73/11 312/75/11
f 213/73/11 14/81/11 321/74/11
f 57/76/12 56/208/12 15/77/12
f 15/75/13 56/231/13 196/73/13
f 15/75/13 196/73/13 338/74/13
f 196/73/13 187/232/13 338/74/13
f 192/79/13 55/233/13 16/234/13
f 338/74/13 187/232/13 333/81/13
f 187/232/13 192/79/13 333/81/13
f 192/79/13 16/234/13 342/80/13
f 17/11/2 54/13/2 175/235/2
f 17/11/2 175/235/2 359/236/2
f 175/235/2 166/227/2 359/236/2
f 171/82/2 53/228/2 18/72/2
f 359/236/2 166/227/2 354/84/2
f 166/227/2 171/82/2 354/84/2
f 171/82/2 18/72/2 363/83/2
f 19/69/14 52/225/14 154/67/14
f 19/69/14 154/67/14 380/68/14
f 154/67/14 145/226/14 380/68/14
f 150/85/14 51/38/14 20/237/14
f 380/68/14 145/226/14 375/87/14
f 145/226/14 150/85/14 375/87/14
f 150/85/14 20/237/14 384/86/14
f 55/45/15 54/218/15 17/46/15
f 21/76/16 50/78/16 133/229/16
f 21/76/16 133/229/16 401/230/16
f 133/229/16 124/231/16 401/230/16
f 129/73/16 49/232/16 22/81/16
f 401/230/16 124/231/16 396/75/16
f 124/231/16 129/73/16 396/75/16
f 129/73/16 22/81/16 405/74/16
f 281/88/1 43/41/1 280/23/1
f 302/90/1 41/63/1 301/21/1
f 53/11/17 52/216/17 19/12/17
f 323/92/1 39/66/1 322/26/1
f 344/94/1 37/28/1 343/27/1
f 365/96/1 35/31/1 364/30/1
f 51/64/18 50/220/18 21/65/18
f 395/98/1 386/111/1 33/99/1
f 416/89/1 407/88/1 31/41/1
f 122/50/3 112/48/3 48/64/3
f 49/76/19 48/208/19 23/77/19
f 23/75/20 48/231/20 112/73/20
f 23/75/20 112/73/20 422/74/20
f 112/73/20 103/232/20 422/74/20
f 108/79/20 47/233/20 24/234/20
f 422/74/20 103/232/20 417/81/20
f 103/232/20 108/79/20 417/81/20
f 108/79/20 24/234/20 426/80/20
f 437/91/1 428/90/1 29/63/1
f 313/15/5 322/26/5 539/26/5 540/15/5
f 144/173/5 153/27/5 523/27/5 524/173/5
f 4/1/5 44/29/5 459/29/5 460/1/5
f 41/37/5 40/38/5 478/38/5 479/37/5
f 44/33/5 276/32/5 496/32/5 459/33/5
f 406/23/5 31/41/5 469/41/5 547/23/5
f 297/17/5 292/20/5 538/20/5 497/17/5
f 47/45/21 46/218/21 25/46/21
f 101/53/3 91/51/3 46/100/3
f 25/238/22 46/239/22 91/240/22
f 25/238/22 91/240/22 443/241/22
f 91/240/22 82/242/22 443/241/22
f 87/101/22 45/243/22 26/244/22
f 443/241/22 82/242/22 438/103/22
f 82/242/22 87/101/22 438/103/22
f 87/101/22 26/244/22 447/102/22
f 458/93/1 449/92/1 27/66/1
f 62/245/3 7/246/3 256/62/3
f 7/246/3 8/104/3 251/105/3
f 8/104/3 63/217/3 260/94/3
f 251/105/3 256/62/3 7/246/3
f 60/107/3 61/247/3 257/108/3
f 257/108/3 252/248/3 235/106/3
f 252/248/3 261/249/3 230/250/3
f 261/249/3 64/38/3 239/251/3
f 64/38/3 65/37/3 239/251/3
f 239/251/3 230/250/3 261/249/3
f 230/250/3 235/106/3 252/248/3
f 58/109/3 59/252/3 236/110/3
f 236/110/3 231/253/3 214/49/3
f 231/253/3 240/116/3 209/119/3
f 214/49/3 231/253/3 209/119/3
f 240/116/3 66/35/3 218/90/3
f 66/35/3 67/34/3 218/90/3
f 218/90/3 209/119/3 240/116/3
f 56/2/3 57/144/3 215/147/3
f 56/2/3 215/147/3 193/52/3
f 215/147/3 210/3/3 193/52/3
f 188/120/3 193/52/3 210/3/3
f 68/29/3 69/1/3 197/88/3
f 197/88/3 188/120/3 219/7/3
f 219/7/3 188/120/3 210/3/3
f 54/254/3 55/255/3 194/256/3
f 54/254/3 194/256/3 172/55/3
f 194/256/3 189/257/3 172/55/3
f 176/111/3 167/122/3 198/121/3
f 167/122/3 172/55/3 189/257/3
f 198/121/3 167/122/3 189/257/3
f 198/121/3 70/25/3 176/111/3
f 52/258/3 53/259/3 151/59/3
f 53/259/3 173/260/3 151/59/3
f 168/113/3 177/123/3 155/96/3
f 177/123/3 72/19/3 73/18/3
f 173/260/3 168/113/3 146/112/3
f 146/112/3 151/59/3 173/260/3
f 73/18/3 155/96/3 177/123/3
f 50/245/3 51/246/3 130/62/3
f 51/246/3 152/114/3 130/62/3
f 152/114/3 147/5/3 125/105/3
f 147/5/3 156/124/3 134/94/3
f 125/105/3 147/5/3 134/94/3
f 156/124/3 74/104/3 75/217/3
f 156/124/3 75/217/3 134/94/3
f 48/117/3 49/261/3 109/43/3
f 49/261/3 131/118/3 109/43/3
f 131/118/3 126/262/3 104/149/3
f 104/149/3 109/43/3 131/118/3
f 77/37/3 113/92/3 135/115/3
f 113/92/3 104/149/3 126/262/3
f 135/115/3 113/92/3 126/262/3
f 46/109/3 47/220/3 88/49/3
f 47/220/3 110/110/3 88/49/3
f 110/110/3 105/253/3 83/119/3
f 88/49/3 110/110/3 83/119/3
f 92/90/3 83/119/3 105/253/3
f 114/116/3 78/35/3 79/34/3
f 105/253/3 114/116/3 92/90/3
f 26/245/1 1/246/1 445/62/1
f 1/246/1 2/104/1 440/105/1
f 2/104/1 27/217/1 449/94/1
f 440/105/1 445/62/1 1/246/1
f 24/117/1 25/261/1 446/118/1
f 446/118/1 441/262/1 424/43/1
f 441/262/1 450/115/1 419/149/1
f 450/115/1 28/38/1 428/92/1
f 28/38/1 29/37/1 428/92/1
f 428/92/1 419/149/1 450/115/1
f 419/149/1 424/43/1 441/262/1
f 22/109/1 23/252/1 425/110/1
f 22/109/1 425/110/1 403/49/1
f 425/110/1 420/253/1 403/49/1
f 429/116/1 30/35/1 407/90/1
f 30/35/1 31/34/1 407/90/1
f 403/49/1 420/253/1 398/119/1
f 420/253/1 429/116/1 398/119/1
f 20/2/1 21/144/1 404/147/1
f 399/3/1 408/7/1 377/120/1
f 408/7/1 32/29/1 386/88/1
f 20/2/1 404/147/1 382/52/1
f 404/147/1 399/3/1 382/52/1
f 408/7/1 386/88/1 377/120/1
f 32/29/1 33/1/1 386/88/1
f 18/254/1 19/255/1 383/256/1
f 383/256/1 378/257/1 361/55/1
f 378/257/1 387/121/1 356/122/1
f 387/121/1 34/25/1 365/111/1
f 34/25/1 35/24/1 365/111/1
f 18/254/1 383/256/1 361/55/1
f 378/257/1 356/122/1 361/55/1
f 16/258/1 17/259/1 340/59/1
f 17/259/1 362/260/1 340/59/1
f 362/260/1 357/113/1 335/112/1
f 335/112/1 340/59/1 362/260/1
f 37/18/1 344/96/1 366/123/1
f 344/96/1 335/112/1 357/113/1
f 366/123/1 344/96/1 357/113/1
f 14/246/1 15/245/1 319/114/1
f 15/245/1 341/62/1 319/114/1
f 341/62/1 336/105/1 314/5/1
f 319/114/1 341/62/1 314/5/1
f 345/94/1 38/217/1 39/104/1
f 336/105/1 345/94/1 323/124/1
f 314/5/1 336/105/1 323/124/1
f 12/117/1 13/261/1 298/43/1
f 13/261/1 320/118/1 298/43/1
f 320/118/1 315/262/1 293/149/1
f 315/262/1 324/115/1 302/92/1
f 324/115/1 40/38/1 41/37/1
f 302/92/1 293/149/1 315/262/1
f 293/149/1 298/43/1 320/118/1
f 10/109/1 11/252/1 277/49/1
f 11/252/1 299/110/1 277/49/1
f 299/110/1 294/253/1 272/119/1
f 294/253/1 303/116/1 281/90/1
f 303/116/1 42/35/1 43/34/1
f 281/90/1 272/119/1 294/253/1
f 272/119/1 277/49/1 299/110/1
f 100/89/3 94/136/3 83/120/3
f 99/125/3 95/131/3 85/126/3
f 98/128/3 87/134/3 82/129/3
f 95/131/3 98/128/3 97/130/3
f 84/132/3 89/133/3 98/128/3
f 89/133/3 45/207/3 87/134/3
f 86/32/3 99/125/3 96/127/3
f 80/33/3 93/135/3 99/125/3
f 93/135/3 84/132/3 95/131/3
f 90/23/3 100/89/3 92/88/3
f 81/22/3 96/127/3 100/89/3
f 96/127/3 85/126/3 94/136/3
f 94/136/3 101/53/3 88/52/3
f 85/126/3 97/130/3 101/53/3
f 97/130/3 82/129/3 91/51/3
f 121/91/3 115/148/3 104/119/3
f 120/137/3 116/143/3 106/138/3
f 119/140/3 108/146/3 103/141/3
f 116/143/3 119/140/3 118/142/3
f 105/144/3 110/145/3 119/140/3
f 110/145/3 47/208/3 108/146/3
f 107/17/3 120/137/3 117/139/3
f 78/16/3 114/147/3 120/137/3
f 114/147/3 105/144/3 116/143/3
f 111/21/3 121/91/3 113/90/3
f 102/20/3 117/139/3 121/91/3
f 117/139/3 106/138/3 115/148/3
f 115/148/3 122/50/3 109/49/3
f 106/138/3 118/142/3 122/50/3
f 118/142/3 103/141/3 112/48/3
f 142/93/3 136/161/3 125/149/3
f 141/150/3 137/156/3 127/151/3
f 140/153/3 129/158/3 124/154/3
f 137/156/3 140/153/3 139/155/3
f 126/157/3 131/7/3 140/153/3
f 131/7/3 49/3/3 129/158/3
f 128/14/3 141/150/3 138/152/3
f 76/159/3 135/160/3 141/150/3
f 135/160/3 126/157/3 137/156/3
f 132/26/3 142/93/3 134/92/3
f 123/15/3 138/152/3 142/93/3
f 138/152/3 127/151/3 136/161/3
f 136/161/3 143/44/3 130/43/3
f 127/151/3 139/155/3 143/44/3
f 139/155/3 124/154/3 133/42/3
f 163/162/3 157/175/3 146/105/3
f 162/163/3 158/169/3 148/164/3
f 161/166/3 150/171/3 145/167/3
f 158/169/3 161/166/3 160/168/3
f 147/170/3 152/116/3 161/166/3
f 152/116/3 51/210/3 150/171/3
f 149/172/3 162/163/3 159/165/3
f 74/174/3 156/118/3 162/163/3
f 156/118/3 147/170/3 158/169/3
f 153/27/3 163/162/3 155/94/3
f 144/173/3 159/165/3 163/162/3
f 159/165/3 148/164/3 157/175/3
f 157/175/3 164/60/3 151/62/3
f 148/164/3 160/168/3 164/60/3
f 160/168/3 145/167/3 154/176/3
f 184/177/3 178/190/3 167/112/3
f 179/178/3 169/184/3 180/179/3
f 171/181/3 166/212/3 181/182/3
f 182/183/3 181/182/3 169/184/3
f 173/185/3 182/183/3 179/178/3
f 53/187/3 171/181/3 182/183/3
f 183/180/3 180/179/3 165/36/3
f 177/114/3 183/180/3 170/188/3
f 168/186/3 179/178/3 183/180/3
f 174/30/3 184/177/3 176/96/3
f 165/36/3 180/179/3 184/177/3
f 180/179/3 169/184/3 178/190/3
f 178/190/3 185/57/3 172/59/3
f 169/184/3 181/182/3 185/57/3
f 181/182/3 166/212/3 175/191/3
f 199/192/3 188/122/3 197/111/3
f 200/194/3 190/200/3 201/195/3
f 192/197/3 187/206/3 202/198/3
f 203/199/3 202/198/3 190/200/3
f 194/124/3 203/199/3 200/194/3
f 55/202/3 192/197/3 203/199/3
f 204/196/3 201/195/3 186/39/3
f 198/204/3 204/196/3 191/203/3
f 189/201/3 200/194/3 204/196/3
f 205/193/3 197/111/3 69/99/3
f 201/195/3 205/193/3 195/40/3
f 190/200/3 199/192/3 205/193/3
f 206/56/3 193/55/3 188/122/3
f 202/198/3 206/56/3 199/192/3
f 187/206/3 196/54/3 206/56/3
f 220/136/3 209/120/3 218/88/3
f 221/131/3 211/126/3 222/127/3
f 213/134/3 208/129/3 223/130/3
f 224/128/3 223/130/3 211/126/3
f 215/133/3 224/128/3 221/131/3
f 57/207/3 213/134/3 224/128/3
f 225/125/3 222/127/3 207/22/3
f 219/135/3 225/125/3 212/32/3
f 210/132/3 221/131/3 225/125/3
f 226/89/3 218/88/3 67/41/3
f 222/127/3 226/89/3 216/23/3
f 211/126/3 220/136/3 226/89/3
f 227/53/3 214/52/3 209/120/3
f 223/130/3 227/53/3 220/136/3
f 208/129/3 217/51/3 227/53/3
f 241/148/3 230/119/3 239/90/3
f 242/143/3 232/138/3 243/139/3
f 234/146/3 229/141/3 244/142/3
f 245/140/3 244/142/3 232/138/3
f 236/145/3 245/140/3 242/143/3
f 59/208/3 234/146/3 245/140/3
f 246/137/3 243/139/3 228/20/3
f 240/147/3 246/137/3 233/17/3
f 231/144/3 242/143/3 246/137/3
f 247/91/3 239/90/3 65/63/3
f 243/139/3 247/91/3 237/21/3
f 232/138/3 241/148/3 247/91/3
f 248/50/3 235/49/3 230/119/3
f 244/142/3 248/50/3 241/148/3
f 229/141/3 238/48/3 248/50/3
f 262/161/3 251/149/3 260/92/3
f 263/156/3 253/151/3 264/152/3
f 255/158/3 250/154/3 265/155/3
f 266/153/3 265/155/3 253/151/3
f 257/7/3 266/153/3 263/156/3
f 61/3/3 255/158/3 266/153/3
f 267/150/3 264/152/3 249/15/3
f 261/160/3 267/150/3 254/14/3
f 252/157/3 263/156/3 267/150/3
f 268/93/3 260/92/3 63/66/3
f 264/152/3 268/93/3 258/26/3
f 253/151/3 262/161/3 268/93/3
f 269/44/3 256/43/3 251/149/3
f 265/155/3 269/44/3 262/161/3
f 250/154/3 259/42/3 269/44/3
f 283/127/1 271/22/1 276/32/1
f 284/130/1 274/126/1 285/131/1
f 277/52/1 272/120/1 286/136/1
f 287/53/1 286/136/1 274/126/1
f 279/51/1 287/53/1 284/130/1
f 10/100/1 277/52/1 287/53/1
f 288/128/1 285/131/1 273/132/1
f 275/134/1 288/128/1 278/133/1
f 270/129/1 284/130/1 288/128/1
f 289/125/1 276/32/1 44/33/1
f 285/131/1 289/125/1 282/135/1
f 274/126/1 283/127/1 289/125/1
f 290/89/1 280/23/1 271/22/1
f 286/136/1 290/89/1 283/127/1
f 272/120/1 281/88/1 290/89/1
f 304/139/1 292/20/1 297/17/1
f 305/142/1 295/138/1 306/143/1
f 298/49/1 293/119/1 307/148/1
f 308/50/1 307/148/1 295/138/1
f 300/48/1 308/50/1 305/142/1
f 12/64/1 298/49/1 308/50/1
f 309/140/1 306/143/1 294/144/1
f 296/146/1 309/140/1 299/145/1
f 291/141/1 305/142/1 309/140/1
f 310/137/1 297/17/1 42/16/1
f 306/143/1 310/137/1 303/147/1
f 295/138/1 304/139/1 310/137/1
f 311/91/1 301/21/1 292/20/1
f 307/148/1 311/91/1 304/139/1
f 293/119/1 302/90/1 311/91/1
f 325/152/1 313/15/1 318/14/1
f 326/155/1 316/151/1 327/156/1
f 319/43/1 314/149/1 328/161/1
f 329/44/1 328/161/1 316/151/1
f 321/42/1 329/44/1 326/155/1
f 14/63/1 319/43/1 329/44/1
f 330/153/1 327/156/1 315/157/1
f 317/158/1 330/153/1 320/7/1
f 312/154/1 326/155/1 330/153/1
f 331/150/1 318/14/1 40/159/1
f 327/156/1 331/150/1 324/160/1
f 316/151/1 325/152/1 331/150/1
f 332/93/1 322/26/1 313/15/1
f 328/161/1 332/93/1 325/152/1
f 314/149/1 323/92/1 332/93/1
f 346/165/1 334/173/1 339/172/1
f 347/168/1 337/164/1 348/169/1
f 340/62/1 335/105/1 349/175/1
f 350/60/1 349/175/1 337/164/1
f 342/176/1 350/60/1 347/168/1
f 16/61/1 340/62/1 350/60/1
f 351/166/1 348/169/1 336/170/1
f 338/171/1 351/166/1 341/116/1
f 333/167/1 347/168/1 351/166/1
f 352/209/1 339/172/1 38/174/1
f 348/169/1 352/209/1 345/118/1
f 337/164/1 346/165/1 352/209/1
f 353/95/1 343/27/1 334/173/1
f 349/175/1 353/95/1 346/165/1
f 335/105/1 344/94/1 353/95/1
f 373/211/1 367/179/1 355/36/1
f 372/183/1 368/182/1 358/184/1
f 361/59/1 356/112/1 370/190/1
f 371/57/1 370/190/1 358/184/1
f 363/191/1 371/57/1 368/182/1
f 18/58/1 361/59/1 371/57/1
f 362/185/1 372/183/1 369/178/1
f 17/187/1 359/181/1 372/183/1
f 359/181/1 354/212/1 368/182/1
f 366/114/1 373/211/1 360/188/1
f 357/186/1 369/178/1 373/211/1
f 369/178/1 358/184/1 367/179/1
f 374/97/1 364/30/1 355/36/1
f 370/190/1 374/97/1 367/179/1
f 356/112/1 365/96/1 374/97/1
f 394/213/1 388/195/1 376/39/1
f 393/199/1 389/198/1 379/200/1
f 392/56/1 382/55/1 377/122/1
f 389/198/1 392/56/1 391/192/1
f 375/206/1 384/54/1 392/56/1
f 384/54/1 20/219/1 382/55/1
f 383/124/1 393/199/1 390/194/1
f 19/202/1 380/197/1 393/199/1
f 380/197/1 375/206/1 389/198/1
f 387/204/1 394/213/1 381/203/1
f 378/201/1 390/194/1 394/213/1
f 390/194/1 379/200/1 388/195/1
f 388/195/1 395/98/1 385/40/1
f 379/200/1 391/192/1 395/98/1
f 391/192/1 377/122/1 386/111/1
f 415/125/1 409/127/1 397/22/1
f 414/128/1 410/130/1 400/126/1
f 413/53/1 403/52/1 398/120/1
f 410/130/1 413/53/1 412/136/1
f 396/129/1 405/51/1 413/53/1
f 405/51/1 22/100/1 403/52/1
f 404/133/1 414/128/1 411/131/1
f 21/207/1 401/134/1 414/128/1
f 401/134/1 396/129/1 410/130/1
f 408/135/1 415/125/1 402/32/1
f 399/132/1 411/131/1 415/125/1
f 411/131/1 400/126/1 409/127/1
f 409/127/1 416/89/1 406/23/1
f 400/126/1 412/136/1 416/89/1
f 412/136/1 398/120/1 407/88/1
f 436/137/1 430/139/1 418/20/1
f 435/140/1 431/142/1 421/138/1
f 434/50/1 424/49/1 419/119/1
f 431/142/1 434/50/1 433/148/1
f 417/141/1 426/48/1 434/50/1
f 426/48/1 24/64/1 424/49/1
f 425/145/1 435/140/1 432/143/1
f 23/208/1 422/146/1 435/140/1
f 422/146/1 417/141/1 431/142/1
f 429/147/1 436/137/1 423/17/1
f 420/144/1 432/143/1 436/137/1
f 432/143/1 421/138/1 430/139/1
f 430/139/1 437/91/1 427/21/1
f 421/138/1 433/148/1 437/91/1
f 433/148/1 419/119/1 428/90/1
f 457/150/1 451/152/1 439/15/1
f 456/153/1 452/155/1 442/151/1
f 455/44/1 445/43/1 440/149/1
f 452/155/1 455/44/1 454/161/1
f 438/154/1 447/42/1 455/44/1
f 447/42/1 26/63/1 445/43/1
f 446/7/1 456/153/1 453/156/1
f 25/3/1 443/158/1 456/153/1
f 443/158/1 438/154/1 452/155/1
f 450/160/1 457/150/1 444/14/1
f 441/157/1 453/156/1 457/150/1
f 453/156/1 442/151/1 451/152/1
f 451/152/1 458/93/1 448/26/1
f 442/151/1 454/161/1 458/93/1
f 454/161/1 440/149/1 449/92/1
f 528/39/5 527/40/5 621/40/5 622/39/5
f 543/30/5 473/31/5 567/31/5 637/30/5
f 459/33/5 496/32/5 590/32/5 553/33/5
f 525/30/5 502/31/5 596/31/5 619/30/5
f 510/188/5 544/36/5 638/36/5 604/188/5
f 495/159/5 494/14/5 588/14/5 589/159/5
f 490/188/5 526/36/5 620/36/5 584/188/5
f 544/36/5 543/30/5 637/30/5 638/36/5
f 493/174/5 492/172/5 586/172/5 587/174/5
f 526/36/5 525/30/5 619/30/5 620/36/5
f 541/27/5 475/28/5 569/28/5 635/27/5
f 491/189/5 490/188/5 584/188/5 585/189/5
f 523/27/5 503/28/5 597/28/5 617/27/5
f 509/172/5 542/173/5 636/173/5 603/172/5
f 489/205/5 488/203/5 582/203/5 583/205/5
f 492/172/5 524/173/5 618/173/5 586/172/5
f 542/173/5 541/27/5 635/27/5 636/173/5
f 487/33/5 486/32/5 580/32/5 581/33/5
f 524/173/5 523/27/5 617/27/5 618/173/5
f 539/26/5 477/66/5 571/66/5 633/26/5
f 485/16/5 484/17/5 578/17/5 579/16/5
f 521/26/5 504/66/5 598/66/5 615/26/5
f 508/14/5 540/15/5 634/15/5 602/14/5
f 483/159/5 482/14/5 576/14/5 577/159/5
f 494/14/5 522/15/5 616/15/5 588/14/5
f 540/15/5 539/26/5 633/26/5 634/15/5
f 481/34/5 480/35/5 574/35/5 575/34/5
f 522/15/5 521/26/5 615/26/5 616/15/5
f 537/21/5 479/63/5 573/63/5 631/21/5
f 479/37/5 478/38/5 572/38/5 573/37/5
f 519/21/5 505/63/5 599/63/5 613/21/5
f 497/17/5 538/20/5 632/20/5 591/17/5
f 477/104/5 476/217/5 570/217/5 571/104/5
f 513/17/5 520/20/5 614/20/5 607/17/5
f 538/20/5 537/21/5 631/21/5 632/20/5
f 475/18/5 474/19/5 568/19/5 569/18/5
f 520/20/5 519/21/5 613/21/5 614/20/5
f 535/23/5 481/41/5 575/41/5 629/23/5
f 473/24/5 472/25/5 566/25/5 567/24/5
f 517/23/5 507/41/5 601/41/5 611/23/5
f 496/32/5 536/22/5 630/22/5 590/32/5
f 471/1/5 470/29/5 564/29/5 565/1/5
f 515/32/5 518/22/5 612/22/5 609/32/5
f 536/22/5 535/23/5 629/23/5 630/22/5
f 551/26/5 465/66/5 559/66/5 645/26/5
f 469/34/5 468/35/5 562/35/5 563/34/5
f 518/22/5 517/23/5 611/23/5 612/22/5
f 533/26/5 498/66/5 592/66/5 627/26/5
f 516/14/5 552/15/5 646/15/5 610/14/5
f 467/37/5 466/38/5 560/38/5 561/37/5
f 466/159/5 516/14/5 610/14/5 560/159/5
f 482/14/5 534/15/5 628/15/5 576/14/5
f 552/15/5 551/26/5 645/26/5 646/15/5
f 465/217/5 464/104/5 558/104/5 559/217/5
f 507/34/5 506/35/5 600/35/5 601/34/5
f 462/33/5 515/32/5 609/32/5 556/33/5
f 534/15/5 533/26/5 627/26/5 628/15/5
f 549/21/5 467/63/5 561/63/5 643/21/5
f 464/215/5 463/8/5 557/8/5 558/215/5
f 505/37/5 495/38/5 589/38/5 599/37/5
f 468/16/5 514/17/5 608/17/5 562/16/5
f 531/21/5 499/63/5 593/63/5 625/21/5
f 514/17/5 550/20/5 644/20/5 608/17/5
f 463/1/5 462/29/5 556/29/5 557/1/5
f 504/217/5 493/104/5 587/104/5 598/217/5
f 506/16/5 513/17/5 607/17/5 600/16/5
f 484/17/5 532/20/5 626/20/5 578/17/5
f 550/20/5 549/21/5 643/21/5 644/20/5
f 461/214/5 460/4/5 554/4/5 555/214/5
f 503/18/5 491/19/5 585/19/5 597/18/5
f 470/33/5 512/32/5 606/32/5 564/33/5
f 532/20/5 531/21/5 625/21/5 626/20/5
f 547/23/5 469/41/5 563/41/5 641/23/5
f 460/1/5 459/29/5 553/29/5 554/1/5
f 502/24/5 489/25/5 583/25/5 596/24/5
f 472/205/5 511/203/5 605/203/5 566/205/5
f 529/23/5 500/41/5 594/41/5 623/23/5
f 512/32/5 548/22/5 642/22/5 606/32/5
f 501/1/5 487/29/5 581/29/5 595/1/5
f 474/189/5 510/188/5 604/188/5 568/189/5
f 486/32/5 530/22/5 624/22/5 580/32/5
f 548/22/5 547/23/5 641/23/5 642/22/5
f 500/34/5 485/35/5 579/35/5 594/34/5
f 476/174/5 509/172/5 603/172/5 570/174/5
f 530/22/5 529/23/5 623/23/5 624/22/5
f 545/40/5 471/99/5 565/99/5 639/40/5
f 499/37/5 483/38/5 577/38/5 593/37/5
f 478/159/5 508/14/5 602/14/5 572/159/5
f 527/40/5 501/99/5 595/99/5 621/40/5
f 511/203/5 546/39/5 640/39/5 605/203/5
f 498/217/5 461/104/5 555/104/5 592/217/5
f 488/203/5 528/39/5 622/39/5 582/203/5
f 237/21/5 65/63/5 499/63/5 531/21/5
f 39/104/5 38/217/5 476/217/5 477/104/5
f 583/205/5 582/203/5 676/203/5 677/205/5
f 586/172/5 618/173/5 712/173/5 680/172/5
f 636/173/5 635/27/5 729/27/5 730/173/5
f 581/33/5 580/32/5 674/32/5 675/33/5
f 618/173/5 617/27/5 711/27/5 712/173/5
f 633/26/5 571/66/5 665/66/5 727/26/5
f 579/16/5 578/17/5 672/17/5 673/16/5
f 615/26/5 598/66/5 692/66/5 709/26/5
f 602/14/5 634/15/5 728/15/5 696/14/5
f 577/159/5 576/14/5 670/14/5 671/159/5
f 588/14/5 616/15/5 710/15/5 682/14/5
f 634/15/5 633/26/5 727/26/5 728/15/5
f 575/34/5 574/35/5 668/35/5 669/34/5
f 616/15/5 615/26/5 709/26/5 710/15/5
f 631/21/5 573/63/5 667/63/5 725/21/5
f 573/37/5 572/38/5 666/38/5 667/37/5
f 613/21/5 599/63/5 693/63/5 707/21/5
f 591/17/5 632/20/5 726/20/5 685/17/5
f 571/104/5 570/217/5 664/217/5 665/104/5
f 607/17/5 614/20/5 708/20/5 701/17/5
f 632/20/5 631/21/5 725/21/5 726/20/5
f 569/18/5 568/19/5 662/19/5 663/18/5
f 614/20/5 613/21/5 707/21/5 708/20/5
f 629/23/5 575/41/5 669/41/5 723/23/5
f 567/24/5 566/25/5 660/25/5 661/24/5
f 611/23/5 601/41/5 695/41/5 705/23/5
f 590/32/5 630/22/5 724/22/5 684/32/5
f 565/1/5 564/29/5 658/29/5 659/1/5
f 609/32/5 612/22/5 706/22/5 703/32/5
f 630/22/5 629/23/5 723/23/5 724/22/5
f 645/26/5 559/66/5 653/66/5 739/26/5
f 563/34/5 562/35/5 656/35/5 657/34/5
f 612/22/5 611/23/5 705/23/5 706/22/5
f 627/26/5 592/66/5 686/66/5 721/26/5
f 610/14/5 646/15/5 740/15/5 704/14/5
f 561/37/5 560/38/5 654/38/5 655/37/5
f 560/159/5 610/14/5 704/14/5 654/159/5
f 576/14/5 628/15/5 722/15/5 670/14/5
f 646/15/5 645/26/5 739/26/5 740/15/5
f 559/217/5 558/104/5 652/104/5 653/217/5
f 601/34/5 600/35/5 694/35/5 695/34/5
f 556/33/5 609/32/5 703/32/5 650/33/5
f 628/15/5 627/26/5 721/26/5 722/15/5
f 643/21/5 561/63/5 655/63/5 737/21/5
f 558/215/5 557/8/5 651/8/5 652/215/5
f 599/37/5 589/38/5 683/38/5 693/37/5
f 562/16/5 608/17/5 702/17/5 656/16/5
f 625/21/5 593/63/5 687/63/5 719/21/5
f 608/17/5 644/20/5 738/20/5 702/17/5
f 557/1/5 556/29/5 650/29/5 651/1/5
f 598/217/5 587/104/5 681/104/5 692/217/5
f 600/16/5 607/17/5 701/17/5 694/16/5
f 578/17/5 626/20/5 720/20/5 672/17/5
f 644/20/5 643/21/5 737/21/5 738/20/5
f 555/214/5 554/4/5 648/4/5 649/214/5
f 597/18/5 585/19/5 679/19/5 691/18/5
f 564/33/5 606/32/5 700/32/5 658/33/5
f 626/20/5 625/21/5 719/21/5 720/20/5
f 641/23/5 563/41/5 657/41/5 735/23/5
f 554/1/5 553/29/5 647/29/5 648/1/5
f 596/24/5 583/25/5 677/25/5 690/24/5
f 566/205/5 605/203/5 699/203/5 660/205/5
f 623/23/5 594/41/5 688/41/5 717/23/5
f 606/32/5 642/22/5 736/22/5 700/32/5
f 595/1/5 581/29/5 675/29/5 689/1/5
f 568/189/5 604/188/5 698/188/5 662/189/5
f 580/32/5 624/22/5 718/22/5 674/32/5
f 642/22/5 641/23/5 735/23/5 736/22/5
f 594/34/5 579/35/5 673/35/5 688/34/5
f 570/174/5 603/172/5 697/172/5 664/174/5
f 624/22/5 623/23/5 717/23/5 718/22/5
f 639/40/5 565/99/5 659/99/5 733/40/5
f 593/37/5 577/38/5 671/38/5 687/37/5
f 572/159/5 602/14/5 696/14/5 666/159/5
f 621/40/5 595/99/5 689/99/5 715/40/5
f 605/203/5 640/39/5 734/39/5 699/203/5
f 592/217/5 555/104/5 649/104/5 686/217/5
f 582/203/5 622/39/5 716/39/5 676/203/5
f 640/39/5 639/40/5 733/40/5 734/39/5
f 574/16/5 591/17/5 685/17/5 668/16/5
f 622/39/5 621/40/5 715/40/5 716/39/5
f 637/30/5 567/31/5 661/31/5 731/30/5
f 553/33/5 590/32/5 684/32/5 647/33/5
f 619/30/5 596/31/5 690/31/5 713/30/5
f 604/188/5 638/36/5 732/36/5 698/188/5
f 589/159/5 588/14/5 682/14/5 683/159/5
f 584/188/5 620/36/5 714/36/5 678/188/5
f 638/36/5 637/30/5 731/30/5 732/36/5
f 587/174/5 586/172/5 680/172/5 681/174/5
f 620/36/5 619/30/5 713/30/5 714/36/5
f 635/27/5 569/28/5 663/28/5 729/27/5
f 585/189/5 584/188/5 678/188/5 679/189/5
f 480/16/5 497/17/5 591/17/5 574/16/5
f 546/39/5 545/40/5 639/40/5 640/39/5
f 653/263/23 651/264/23 650/265/23
f 648/216/24 686/13/24 649/12/24
f 669/208/25 687/78/25 671/77/25
f 667/266/26 688/13/26 673/12/26
f 665/76/27 689/77/27 675/78/27
f 663/267/28 690/268/28 677/269/28
f 661/208/29 691/78/29 679/77/29
f 659/11/30 692/12/30 681/13/30
f 738/270/31 737/271/31 701/272/31
f 736/83/32 735/273/32 682/274/32
f 734/74/33 733/275/33 680/276/33
f 657/208/34 693/78/34 683/77/34
f 732/83/5 731/273/5 678/274/5
f 730/74/35 729/275/35 676/276/35
f 728/83/36 727/273/36 674/274/36
f 655/267/37 695/277/37 694/269/37
f 726/74/38 725/275/38 672/276/38
f 724/83/39 723/273/39 670/274/39
f 740/278/40 739/279/40 703/280/40
f 653/263/23 652/281/23 651/264/23
f 648/216/24 647/11/24 686/13/24
f 669/208/25 668/76/25 687/78/25
f 667/266/26 666/282/26 688/13/26
f 665/76/27 664/208/27 689/77/27
f 663/267/28 662/283/28 690/268/28
f 661/208/29 660/76/29 691/78/29
f 659/11/30 658/216/30 692/12/30
f 707/284/31 693/285/31 656/286/31
f 707/284/31 656/286/31 702/287/31
f 708/288/31 707/284/31 702/287/31
f 708/288/31 702/287/31 738/270/31
f 655/289/31 694/290/31 701/272/31
f 701/272/31 708/288/31 738/270/31
f 737/271/31 655/289/31 701/272/31
f 709/291/32 692/13/32 658/11/32
f 709/291/32 658/11/32 700/292/32
f 710/82/32 709/291/32 700/292/32
f 710/82/32 700/292/32 736/83/32
f 657/220/32 683/65/32 682/274/32
f 682/274/32 710/82/32 736/83/32
f 735/273/32 657/220/32 682/274/32
f 711/293/33 691/78/33 660/76/33
f 711/293/33 660/76/33 699/294/33
f 712/73/33 711/293/33 699/294/33
f 712/73/33 699/294/33 734/74/33
f 659/234/33 681/233/33 680/276/33
f 680/276/33 712/73/33 734/74/33
f 733/275/33 659/234/33 680/276/33
f 657/208/34 656/76/34 693/78/34
f 713/291/5 690/13/5 662/11/5
f 713/291/5 662/11/5 698/292/5
f 714/82/5 713/291/5 698/292/5
f 714/82/5 698/292/5 732/83/5
f 661/220/5 679/65/5 678/274/5
f 678/274/5 714/82/5 732/83/5
f 731/273/5 661/220/5 678/274/5
f 715/293/35 689/78/35 664/76/35
f 715/293/35 664/76/35 697/294/35
f 716/73/35 715/293/35 697/294/35
f 716/73/35 697/294/35 730/74/35
f 663/234/35 677/233/35 676/276/35
f 676/276/35 716/73/35 730/74/35
f 729/275/35 663/234/35 676/276/35
f 717/291/36 688/13/36 666/11/36
f 717/291/36 666/11/36 696/292/36
f 718/82/36 717/291/36 696/292/36
f 718/82/36 696/292/36 728/83/36
f 665/220/36 675/65/36 674/274/36
f 674/274/36 718/82/36 728/83/36
f 727/273/36 665/220/36 674/274/36
f 655/267/37 654/295/37 695/277/37
f 719/293/38 687/78/38 668/76/38
f 719/293/38 668/76/38 685/294/38
f 720/73/38 719/293/38 685/294/38
f 720/73/38 685/294/38 726/74/38
f 667/234/38 673/233/38 672/276/38
f 672/276/38 720/73/38 726/74/38
f 725/275/38 667/234/38 672/276/38
f 721/291/39 686/13/39 647/11/39
f 721/291/39 647/11/39 684/292/39
f 722/82/39 721/291/39 684/292/39
f 722/82/39 684/292/39 724/83/39
f 669/220/39 671/65/39 670/274/39
f 670/274/39 722/82/39 724/83/39
f 723/273/39 669/220/39 670/274/39
f 705/296/40 695/297/40 654/298/40
f 705/296/40 654/298/40 704/299/40
f 706/300/40 705/296/40 704/299/40
f 706/300/40 704/299/40 740/278/40
f 653/301/40 650/302/40 703/280/40
f 703/280/40 706/300/40 740/278/40
f 739/279/40 653/301/40 703/280/40
f 603/172/5 636/173/5 730/173/5 697/172/5
f 617/27/5 597/28/5 691/28/5 711/27/5
