# Blender 5.1.0
# www.blender.org
mtllib arrowslit.mtl
o Cube
v 1.000000 1.000000 0.000000
v 1.000000 0.000000 0.000000
v 1.000000 1.000000 1.000000
v 1.000000 0.000000 1.000000
v 0.000000 1.000000 0.000000
v 0.000000 0.000000 0.000000
v 0.000000 1.000000 1.000000
v 0.000000 0.000000 1.000000
v 0.562500 0.000000 0.000000
v 0.437500 0.000000 0.000000
v 0.875000 1.000000 1.000000
v 0.125000 1.000000 1.000000
v 0.125000 0.000000 1.000000
v 0.875000 0.000000 1.000000
v 0.437500 1.000000 0.000000
v 0.562500 1.000000 0.000000
v 0.125000 0.000000 0.062500
v 0.125000 0.000000 0.375000
v 0.437500 0.000000 0.062500
v 0.562500 0.000000 0.062500
v 0.875000 0.000000 0.062500
v 0.875000 0.000000 0.375000
v 0.875000 1.000000 0.062500
v 0.875000 1.000000 0.375000
v 0.562500 1.000000 0.062500
v 0.437500 1.000000 0.062500
v 0.125000 1.000000 0.062500
v 0.125000 1.000000 0.375000
v 0.750000 1.000000 0.375000
v 0.250000 0.000000 0.375000
v 0.750000 0.000000 0.375000
v 0.250000 1.000000 0.375000
vn 1.0000 -0.0000 -0.0000
vn -0.0000 -0.0000 -1.0000
vn -0.0000 -1.0000 -0.0000
vn -0.0000 -0.0000 1.0000
vn -0.0000 1.0000 -0.0000
vn 0.8575 -0.0000 0.5145
vn -0.8575 -0.0000 0.5145
vn -1.0000 -0.0000 -0.0000
vt 0.000100 0.000100
vt 0.999900 0.999900
vt 0.000100 0.999900
vt -0.000000 0.000000
vt 0.437500 1.000000
vt -0.000000 1.000000
vt 1.000000 -0.000000
vt 0.875000 0.375000
vt 0.875000 0.062500
vt 0.000035 0.000035
vt 0.125027 0.999965
vt 0.000035 0.999965
vt 0.000066 0.999934
vt 0.125050 0.624983
vt 0.125050 0.937442
vt 0.625000 0.000000
vt 1.000000 1.000000
vt 0.625000 1.000000
vt 0.000060 0.999940
vt 0.364451 0.000060
vt 0.364451 0.999940
vt 0.937500 1.000000
vt 0.000025 0.999975
vt 0.062522 0.000025
vt 0.062522 0.999975
vt 0.000100 0.000100
vt 0.999900 0.999900
vt 0.000100 0.999900
vt 0.000066 0.000066
vt 0.125050 0.062558
vt 0.125050 0.375017
vt 0.562500 0.000000
vt 0.624980 0.000079
vt 0.000079 0.999921
vt 0.000079 0.000079
vt 0.999980 0.999921
vt 0.375079 0.000079
vt 0.999980 0.000079
vt 0.625035 0.000035
vt 0.750027 0.999965
vt 0.625035 0.999965
vt 0.375000 1.000000
vt 0.250000 0.000000
vt 0.375000 0.000000
vt 0.875000 0.937500
vt 0.875000 0.625000
vt 1.000026 0.999965
vt 0.875035 0.000035
vt 1.000026 0.000035
vt 0.750000 0.625000
vt 0.125000 0.937500
vt 0.250000 0.625000
vt 0.437500 0.937500
vt 0.125000 0.062500
vt 0.250000 0.375000
vt 0.125000 0.375000
vt 0.750000 0.375000
vt 0.562500 0.062500
vt 0.999900 0.000100
vt 0.437500 0.000000
vt 0.875000 1.000000
vt 0.125027 0.000035
vt 0.000066 0.000066
vt 0.125050 0.000066
vt 0.437508 0.937442
vt 0.437508 0.999934
vt 1.000000 0.000000
vt 0.000060 0.000060
vt 0.937500 0.000000
vt 0.000025 0.000025
vt 0.999900 0.000100
vt 0.125050 0.999934
vt 0.000066 0.999934
vt 0.437508 0.000066
vt 0.437508 0.062558
vt 0.562500 1.000000
vt 0.624980 0.999921
vt 0.375079 0.999921
vt 0.750027 0.000035
vt 0.250000 1.000000
vt 0.875000 0.000000
vt 0.562500 0.937500
vt 0.875035 0.999965
vt 0.125000 0.625000
vt 0.437500 0.062500
s 0
usemtl arrowslit
f 4/1/1 1/2/1 3/3/1
f 2/4/2 16/5/2 1/6/2
f 2/7/3 22/8/3 21/9/3
f 8/10/4 12/11/4 7/12/4
f 5/13/5 28/14/5 27/15/5
f 30/16/6 26/17/6 32/18/6
f 25/19/7 31/20/7 29/21/7
f 26/22/1 10/7/1 15/17/1
f 16/23/8 20/24/8 25/25/8
f 6/26/8 7/27/8 5/28/8
f 6/29/3 17/30/3 18/31/3
f 5/17/2 10/32/2 6/7/2
f 18/33/1 12/34/1 13/35/1
f 11/36/8 22/37/8 14/38/8
f 18/39/4 32/40/4 28/41/4
f 24/42/4 31/43/4 22/44/4
f 1/17/5 23/45/5 24/46/5
f 3/47/4 14/48/4 4/49/4
f 23/45/5 29/50/5 24/46/5
f 27/51/5 32/52/5 26/53/5
f 17/54/3 30/55/3 18/56/3
f 21/9/3 31/57/3 20/58/3
f 4/1/1 2/59/1 1/2/1
f 2/4/2 9/60/2 16/5/2
f 2/7/3 4/17/3 22/8/3
f 4/17/3 14/61/3 22/8/3
f 20/58/3 9/32/3 21/9/3
f 9/32/3 2/7/3 21/9/3
f 8/10/4 13/62/4 12/11/4
f 5/13/5 7/63/5 28/14/5
f 7/63/5 12/64/5 28/14/5
f 26/65/5 15/66/5 27/15/5
f 15/66/5 5/13/5 27/15/5
f 30/16/6 19/67/6 26/17/6
f 25/19/7 20/68/7 31/20/7
f 26/22/1 19/69/1 10/67/1
f 16/23/8 9/70/8 20/24/8
f 6/26/8 8/71/8 7/27/8
f 13/72/3 8/73/3 18/31/3
f 8/73/3 6/29/3 18/31/3
f 6/29/3 10/74/3 17/30/3
f 10/74/3 19/75/3 17/30/3
f 5/17/2 15/76/2 10/32/2
f 18/33/1 28/77/1 12/34/1
f 11/36/8 24/78/8 22/37/8
f 18/39/4 30/79/4 32/40/4
f 24/42/4 29/80/4 31/43/4
f 11/81/5 3/67/5 24/46/5
f 3/67/5 1/17/5 24/46/5
f 1/17/5 16/76/5 23/45/5
f 16/76/5 25/82/5 23/45/5
f 3/47/4 11/83/4 14/48/4
f 23/45/5 25/82/5 29/50/5
f 27/51/5 28/84/5 32/52/5
f 17/54/3 19/85/3 30/55/3
f 21/9/3 22/8/3 31/57/3
