# Blender 5.1.0
# www.blender.org
mtllib cross_arrowslit.mtl
o Cube
v 1.000000 1.000000 0.000000
v 1.000000 0.000000 0.000000
v 1.000000 1.000000 1.000000
v 1.000000 0.000000 1.000000
v 0.000000 1.000000 0.000000
v 0.000000 0.000000 0.000000
v 0.000000 1.000000 1.000000
v 0.000000 0.000000 1.000000
v 0.562500 0.000000 0.000000
v 0.437500 0.000000 0.000000
v 0.875000 1.000000 1.000000
v 0.125000 1.000000 1.000000
v 0.125000 0.000000 1.000000
v 0.875000 0.000000 1.000000
v 0.437500 1.000000 0.000000
v 0.562500 1.000000 0.000000
v 0.125000 0.000000 0.062500
v 0.125000 0.000000 0.375000
v 0.437500 0.000000 0.062500
v 0.562500 0.000000 0.062500
v 0.875000 0.000000 0.062500
v 0.875000 0.000000 0.375000
v 0.875000 1.000000 0.062500
v 0.875000 1.000000 0.375000
v 0.562500 1.000000 0.062500
v 0.437500 1.000000 0.062500
v 0.125000 1.000000 0.062500
v 0.125000 1.000000 0.375000
v 0.750000 1.000000 0.375000
v 0.250000 0.000000 0.375000
v 0.750000 0.000000 0.375000
v 0.250000 1.000000 0.375000
v 0.437500 0.562500 0.000000
v 0.437500 0.437500 0.000000
v 0.125000 0.437500 0.375000
v 0.125000 0.562500 0.375000
v 0.250000 0.437500 0.375000
v 0.250000 0.562500 0.375000
v 0.437500 0.437500 0.062500
v 0.437500 0.562500 0.062500
v 0.562500 0.562500 0.000000
v 0.562500 0.437500 0.000000
v 0.875000 0.437500 0.375000
v 0.875000 0.562500 0.375000
v 0.750000 0.562500 0.375000
v 0.750000 0.437500 0.375000
v 0.562500 0.437500 0.062500
v 0.562500 0.562500 0.062500
v 0.875000 0.437500 0.000000
v 0.125000 0.562500 0.000000
v 0.125000 0.437500 0.000000
v 0.875000 0.562500 0.000000
vn -0.0000 -1.0000 -0.0000
vn -0.0000 1.0000 -0.0000
vn -0.0000 -0.0000 1.0000
vn 1.0000 -0.0000 -0.0000
vn -0.8575 -0.0000 0.5145
vn 0.8575 -0.0000 0.5145
vn -1.0000 -0.0000 -0.0000
vn -0.0000 -0.0000 -1.0000
vt 1.000000 -0.000000
vt 0.875000 0.375000
vt 0.875000 0.062500
vt 0.000066 0.999934
vt 0.125050 0.624983
vt 0.125050 0.937442
vt 0.000066 0.000066
vt 0.125050 0.062558
vt 0.125050 0.375017
vt 1.000000 1.000000
vt 0.875000 0.937500
vt 0.875000 0.625000
vt 0.750000 0.625000
vt 0.125000 0.937500
vt 0.250000 0.625000
vt 0.437500 0.937500
vt 0.125000 0.062500
vt 0.250000 0.375000
vt 0.125000 0.375000
vt 0.750000 0.375000
vt 0.562500 0.062500
vt 0.375000 0.437500
vt 0.250000 0.000000
vt 0.375000 0.000000
vt 0.624980 0.562490
vt 0.875000 0.437500
vt 0.000060 0.999940
vt 0.364451 0.562492
vt 0.364451 0.999940
vt 0.625000 0.562500
vt 0.625000 1.000000
vt 0.999900 0.000100
vt 0.000100 0.999900
vt 0.000100 0.000100
vt 0.062522 0.000025
vt 0.000025 0.437503
vt 0.000025 0.000025
vt 0.625035 0.562496
vt 0.750027 0.999965
vt 0.625035 0.999965
vt 0.750027 0.000035
vt 0.625035 0.437504
vt 0.625035 0.000035
vt 0.125027 0.000035
vt 0.000035 0.999965
vt 0.000035 0.000035
vt 0.250000 1.000000
vt 0.375000 0.562500
vt 0.375000 1.000000
vt 0.375079 0.562490
vt 0.375079 0.437510
vt 0.999980 0.000079
vt 0.937500 1.000000
vt 1.000000 0.562500
vt 0.000025 0.999975
vt 0.062522 0.562497
vt 0.062522 0.999975
vt 0.364451 0.000060
vt 0.000060 0.437508
vt 0.000060 0.000060
vt 0.625000 0.437500
vt 0.625000 0.000000
vt 0.875035 0.999965
vt 1.000026 0.000035
vt 1.000026 0.999965
vt 0.000066 0.000066
vt 0.125050 0.562492
vt 0.000066 0.999934
vt 0.937500 0.437500
vt 0.937500 0.000000
vt 0.687500 1.000000
vt 0.687500 0.937500
vt 0.687500 0.062500
vt -0.000000 0.000000
vt 0.312500 0.062500
vt 0.312500 0.937500
vt 0.312500 1.000000
vt 0.000000 1.000000
vt 0.999900 0.000100
vt 0.000100 0.999900
vt 0.000100 0.000100
vt 0.624980 0.437510
vt 0.000079 0.999921
vt 0.875000 1.000000
vt 0.562500 0.000000
vt 0.000066 0.000066
vt 0.125050 0.000066
vt 0.437508 0.937442
vt 0.437508 0.999934
vt 0.125050 0.999934
vt 0.000066 0.999934
vt 0.437508 0.000066
vt 0.437508 0.062558
vt 0.875000 0.000000
vt 0.562500 1.000000
vt 0.562500 0.937500
vt 0.125000 0.625000
vt 0.437500 0.062500
vt 0.250000 0.437500
vt 0.000060 0.562492
vt 0.999900 0.999900
vt 0.062522 0.437503
vt 0.750027 0.562496
vt 0.750027 0.437504
vt 0.125027 0.999965
vt 0.250000 0.562500
vt 0.999980 0.999921
vt 0.375079 0.999921
vt 0.375079 0.000079
vt 0.937500 0.562500
vt 0.000025 0.562497
vt 0.364451 0.437507
vt 1.000000 0.437500
vt 0.875035 0.000035
vt 0.437508 0.000066
vt 0.125050 0.437508
vt 0.437508 0.437508
vt 0.437508 0.562492
vt 0.437508 0.999934
vt 1.000000 0.437500
vt 1.000000 0.625000
vt 0.875000 0.562500
vt 0.562500 0.562500
vt 0.562500 0.437500
vt 0.687500 0.000000
vt 1.000000 0.375000
vt -0.000000 0.375000
vt 0.312500 0.000000
vt 0.000000 0.625000
vt 0.999900 0.999900
vt 0.624980 0.999921
vt 0.000079 0.000079
vt 0.624980 0.000079
s 0
usemtl cross_arrowslit
f 2/1/1 22/2/1 21/3/1
f 5/4/2 28/5/2 27/6/2
f 6/7/1 17/8/1 18/9/1
f 1/10/2 23/11/2 24/12/2
f 23/11/2 29/13/2 24/12/2
f 27/14/2 32/15/2 26/16/2
f 17/17/1 30/18/1 18/19/1
f 21/3/1 31/20/1 20/21/1
f 43/22/3 31/23/3 22/24/3
f 50/25/4 35/26/4 51/26/4
f 25/27/5 45/28/5 29/29/5
f 38/30/6 26/10/6 32/31/6
f 2/32/4 3/33/4 4/34/4
f 20/35/7 42/36/7 9/37/7
f 36/38/3 32/39/3 28/40/3
f 30/41/3 35/42/3 18/43/3
f 13/44/3 7/45/3 8/46/3
f 29/47/3 44/48/3 24/49/3
f 44/50/7 43/51/7 14/52/7
f 43/51/7 52/50/7 49/51/7
f 26/53/4 33/54/4 15/10/4
f 16/55/7 48/56/7 25/57/7
f 31/58/5 47/59/5 20/60/5
f 19/1/6 37/61/6 30/62/6
f 11/63/3 4/64/3 3/65/3
f 2/66/8 52/67/8 1/68/8
f 10/1/4 39/69/4 19/70/4
f 50/10/1 33/71/1 40/72/1
f 6/1/8 5/10/8 51/26/8
f 39/73/2 51/1/2 37/2/2
f 49/74/2 47/75/2 46/19/2
f 48/76/1 41/77/1 52/78/1
f 8/79/7 5/80/7 6/81/7
f 35/82/4 36/25/4 12/83/4
f 2/1/1 4/10/1 22/2/1
f 4/10/1 14/84/1 22/2/1
f 20/21/1 9/85/1 21/3/1
f 9/85/1 2/1/1 21/3/1
f 5/4/2 7/86/2 28/5/2
f 7/86/2 12/87/2 28/5/2
f 26/88/2 15/89/2 27/6/2
f 15/89/2 5/4/2 27/6/2
f 13/90/1 8/91/1 18/9/1
f 8/91/1 6/7/1 18/9/1
f 6/7/1 10/92/1 17/8/1
f 10/92/1 19/93/1 17/8/1
f 11/94/2 3/1/2 24/12/2
f 3/1/2 1/10/2 24/12/2
f 1/10/2 16/95/2 23/11/2
f 16/95/2 25/96/2 23/11/2
f 23/11/2 25/96/2 29/13/2
f 27/14/2 28/97/2 32/15/2
f 17/17/1 19/98/1 30/18/1
f 21/3/1 22/2/1 31/20/1
f 43/22/3 46/99/3 31/23/3
f 50/25/4 36/25/4 35/26/4
f 25/27/5 48/100/5 45/28/5
f 38/30/6 40/54/6 26/10/6
f 2/32/4 1/101/4 3/33/4
f 20/35/7 47/102/7 42/36/7
f 36/38/3 38/103/3 32/39/3
f 30/41/3 37/104/3 35/42/3
f 13/44/3 12/105/3 7/45/3
f 29/47/3 45/106/3 44/48/3
f 14/52/7 11/107/7 44/50/7
f 11/107/7 24/108/7 44/50/7
f 43/51/7 22/109/7 14/52/7
f 43/51/7 44/50/7 52/50/7
f 26/53/4 40/110/4 33/54/4
f 16/55/7 41/111/7 48/56/7
f 31/58/5 46/112/5 47/59/5
f 19/1/6 39/113/6 37/61/6
f 11/63/3 14/114/3 4/64/3
f 2/66/8 9/115/8 49/116/8
f 9/115/8 42/117/8 49/116/8
f 41/118/8 16/119/8 52/67/8
f 16/119/8 1/68/8 52/67/8
f 2/66/8 49/116/8 52/67/8
f 10/1/4 34/120/4 39/69/4
f 40/72/1 38/12/1 50/10/1
f 38/12/1 36/121/1 50/10/1
f 5/10/8 15/95/8 50/122/8
f 15/95/8 33/123/8 50/122/8
f 34/124/8 10/85/8 51/26/8
f 10/85/8 6/1/8 51/26/8
f 5/10/8 50/122/8 51/26/8
f 34/125/2 51/1/2 39/73/2
f 51/1/2 35/126/2 37/2/2
f 46/19/2 43/127/2 49/74/2
f 49/74/2 42/128/2 47/75/2
f 44/129/1 45/97/1 52/78/1
f 45/97/1 48/76/1 52/78/1
f 8/79/7 7/130/7 5/80/7
f 36/25/4 28/131/4 12/83/4
f 12/83/4 13/132/4 35/82/4
f 13/132/4 18/133/4 35/82/4
