# Blender 5.1.0
# www.blender.org
mtllib florentine_pointed_arch.mtl
o Florentine_pointed
v 1.000000 0.500000 1.005000
v 1.500000 0.500000 1.005000
v 0.000000 0.500000 1.005000
v -0.500000 0.500000 1.005000
v 1.000000 0.500000 -0.005000
v 1.500000 0.500000 -0.005000
v -0.000000 0.500000 -0.005000
v -0.500000 0.500000 -0.005000
v 0.001801 0.542749 1.005000
v 0.028562 0.667930 1.005000
v 0.044386 0.707632 1.005000
v 0.110982 0.816675 1.005000
v 0.139022 0.848795 1.005000
v 0.237847 0.929241 1.005000
v 0.274898 0.950109 1.005000
v 0.394661 0.992769 1.005000
v 0.436491 0.995000 1.005000
v 0.563509 0.995000 1.005000
v 0.605340 0.992769 1.005000
v 0.725102 0.950109 1.005000
v 0.762154 0.929241 1.005000
v 0.860978 0.848795 1.005000
v 0.889018 0.816675 1.005000
v 0.955615 0.707632 1.005000
v 0.971439 0.667930 1.005000
v 0.998199 0.542749 1.005000
v 1.496398 0.585498 1.005000
v 1.449762 0.867266 1.005000
v 1.416218 0.944053 1.005000
v 1.300779 1.162138 1.005000
v 1.240420 1.228995 1.005000
v 1.024307 1.408482 1.005000
v 0.950204 1.450217 1.005000
v 0.710679 1.565538 1.005000
v 0.627018 1.600000 1.005000
v 0.372982 1.600000 1.005000
v 0.289321 1.565538 1.005000
v 0.049796 1.450217 1.005000
v -0.024307 1.408482 1.005000
v -0.240420 1.228994 1.005000
v -0.300779 1.162138 1.005000
v -0.416217 0.944053 1.005000
v -0.449761 0.867266 1.005000
v -0.496397 0.585498 1.005000
v 0.998199 0.542749 -0.005000
v 0.971439 0.667930 -0.005000
v 0.955614 0.707632 -0.005000
v 0.889018 0.816675 -0.005000
v 0.860978 0.848795 -0.005000
v 0.762154 0.929241 -0.005000
v 0.725102 0.950109 -0.005000
v 0.605339 0.992769 -0.005000
v 0.563509 0.995000 -0.005000
v 0.436491 0.995000 -0.005000
v 0.394660 0.992769 -0.005000
v 0.274898 0.950109 -0.005000
v 0.237846 0.929241 -0.005000
v 0.139022 0.848795 -0.005000
v 0.110982 0.816675 -0.005000
v 0.044386 0.707632 -0.005000
v 0.028561 0.667930 -0.005000
v 0.001801 0.542749 -0.005000
v -0.496398 0.585498 -0.005000
v -0.449762 0.867266 -0.005000
v -0.416218 0.944054 -0.005000
v -0.300779 1.162138 -0.005000
v -0.240420 1.228995 -0.005000
v -0.024307 1.408482 -0.005000
v 0.049796 1.450217 -0.005000
v 0.289321 1.565538 -0.005000
v 0.372982 1.600000 -0.005000
v 0.627018 1.600000 -0.005000
v 0.710679 1.565538 -0.005000
v 0.950204 1.450217 -0.005000
v 1.024307 1.408482 -0.005000
v 1.240420 1.228994 -0.005000
v 1.300779 1.162138 -0.005000
v 1.416217 0.944053 -0.005000
v 1.449762 0.867266 -0.005000
v 1.496397 0.585498 -0.005000
v 0.500000 0.995000 1.005000
v 0.500000 0.995000 -0.005000
v 0.500000 1.640000 -0.005000
v 0.500000 1.640000 1.005000
v 1.465307 0.773343 -0.005000
v 1.480852 0.679421 -0.005000
v 0.980359 0.626203 -0.005000
v 0.989279 0.584476 -0.005000
v 0.989279 0.584476 1.005000
v 0.980359 0.626203 1.005000
v 1.480853 0.679421 1.005000
v 1.465307 0.773343 1.005000
v 1.339258 1.089443 -0.005000
v 1.377738 1.016748 -0.005000
v 0.911216 0.780327 -0.005000
v 0.933415 0.743980 -0.005000
v 0.933416 0.743980 1.005000
v 0.911217 0.780327 1.005000
v 1.377738 1.016748 1.005000
v 1.339259 1.089443 1.005000
v 1.096345 1.348653 -0.005000
v 1.168382 1.288824 -0.005000
v 0.795095 0.902426 -0.005000
v 0.828036 0.875610 -0.005000
v 0.828037 0.875610 1.005000
v 0.795095 0.902426 1.005000
v 1.168382 1.288824 1.005000
v 1.096345 1.348653 1.005000
v -0.480852 0.679421 -0.005000
v -0.465307 0.773343 -0.005000
v 0.010721 0.584476 -0.005000
v 0.019641 0.626203 -0.005000
v 0.019642 0.626203 1.005000
v 0.010721 0.584476 1.005000
v -0.465307 0.773343 1.005000
v -0.480852 0.679421 1.005000
v -0.377738 1.016748 -0.005000
v -0.339259 1.089443 -0.005000
v 0.066584 0.743980 -0.005000
v 0.088783 0.780327 -0.005000
v 0.088784 0.780327 1.005000
v 0.066585 0.743980 1.005000
v -0.339258 1.089443 1.005000
v -0.377738 1.016748 1.005000
v -0.168382 1.288824 -0.005000
v -0.096345 1.348653 -0.005000
v 0.171963 0.875610 -0.005000
v 0.204905 0.902426 -0.005000
v 0.204905 0.902426 1.005000
v 0.171964 0.875610 1.005000
v -0.096345 1.348653 1.005000
v -0.168382 1.288824 1.005000
v 0.129638 1.488657 -0.005000
v 0.209479 1.527097 -0.005000
v 0.314819 0.964329 -0.005000
v 0.354739 0.978549 -0.005000
v 0.354740 0.978549 1.005000
v 0.314819 0.964329 1.005000
v 0.209479 1.527097 1.005000
v 0.129638 1.488657 1.005000
v 0.563509 1.620000 -0.005000
v 0.531754 0.995000 -0.005000
v 0.531755 0.995000 1.005000
v 0.563509 1.620000 1.005000
v 0.468245 0.995000 -0.005000
v 0.436491 1.620000 -0.005000
v 0.468246 0.995000 1.005000
v 0.436491 1.620000 1.005000
v 0.790521 1.527097 -0.005000
v 0.870362 1.488657 -0.005000
v 0.645260 0.978549 -0.005000
v 0.685181 0.964329 -0.005000
v 0.685181 0.964329 1.005000
v 0.645261 0.978549 1.005000
v 0.870362 1.488657 1.005000
v 0.790521 1.527097 1.005000
vn 0.9991 -0.0421 -0.0000
vn -0.0000 -1.0000 -0.0000
vn -0.0000 -0.0000 1.0000
vn 0.7533 -0.6576 -0.0000
vn -0.0000 -0.0000 -1.0000
vn -0.3356 -0.9420 -0.0000
vn -0.6313 -0.7755 -0.0000
vn -0.9866 0.1633 -0.0000
vn -0.9991 -0.0421 -0.0000
vn 0.4907 -0.8713 -0.0000
vn 0.6313 -0.7755 -0.0000
vn 0.0533 -0.9986 -0.0000
vn 0.3356 -0.9420 -0.0000
vn -0.0533 -0.9986 -0.0000
vn -0.4907 -0.8713 -0.0000
vn -0.7533 -0.6576 -0.0000
vn -0.9289 -0.3703 -0.0000
vn -0.8534 -0.5212 -0.0000
vn 0.9289 -0.3703 -0.0000
vn 0.8534 -0.5212 -0.0000
vn 0.3809 0.9246 -0.0000
vn 0.8838 0.4678 -0.0000
vn 0.6389 0.7693 -0.0000
vn 0.9866 0.1633 -0.0000
vn -0.3809 0.9246 -0.0000
vn -0.9779 -0.2090 -0.0000
vn 0.9164 0.4003 -0.0000
vn 0.7422 0.6701 -0.0000
vn 0.4907 0.8713 -0.0000
vn 0.4338 0.9010 -0.0000
vn -0.4907 0.8713 -0.0000
vn -0.3004 0.9538 -0.0000
vn -0.7423 0.6701 -0.0000
vn -0.4338 0.9010 -0.0000
vn -0.9164 0.4003 -0.0000
vn -0.9991 0.0421 -0.0000
vn -0.8838 0.4678 -0.0000
vn 0.9991 0.0421 -0.0000
vn -0.6389 0.7693 -0.0000
vn 0.9779 -0.2090 -0.0000
vn 0.3004 0.9538 -0.0000
vt 1.000000 0.000000
vt 1.000000 0.062500
vt 0.000000 0.062500
vt 0.000000 0.000000
vt 0.500000 0.250000
vt 0.500000 0.312500
vt 0.250000 0.312500
vt 0.250000 0.250000
vt 0.750000 0.312500
vt 0.250000 0.312500
vt 0.250000 0.250000
vt 0.750000 0.250000
vt 1.000000 0.500000
vt 1.000000 0.562500
vt 0.000000 0.562500
vt 0.000000 0.500000
vt 0.000000 0.562500
vt 0.000000 0.500000
vt 0.500000 0.500000
vt 0.500000 0.562500
vt 1.000000 0.343750
vt 0.000000 0.343750
vt 0.000000 0.312500
vt 1.000000 0.312500
vt 1.000000 0.458333
vt 1.000000 0.500000
vt 0.000000 0.500000
vt 0.000000 0.458333
vt 1.000000 0.895833
vt 1.000000 0.937500
vt 0.000000 0.937500
vt 0.000000 0.895833
vt 0.750000 0.750000
vt 0.750000 0.812500
vt 0.250000 0.812500
vt 0.250000 0.750000
vt 1.000000 0.562500
vt 0.500000 0.562500
vt 0.500000 0.500000
vt 0.500000 0.062500
vt 0.000000 0.062500
vt 0.000000 -0.000000
vt 0.500000 0.000000
vt 1.000000 0.000000
vt 1.000000 0.062500
vt 0.500000 0.062500
vt 0.500000 -0.000000
vt 0.562500 0.562500
vt 0.562500 0.500000
vt 0.000000 0.375000
vt 1.000000 0.375000
vt 0.000000 0.687500
vt 0.500000 0.687500
vt 0.500000 0.750000
vt 0.000000 0.750000
vt 1.000000 0.687500
vt 1.000000 0.750000
vt 0.500000 0.750000
vt 0.500000 0.203125
vt 0.500000 0.250000
vt 0.000000 0.250000
vt 0.000000 0.203125
vt 1.000000 0.187500
vt 1.000000 0.250000
vt 0.500000 0.250000
vt 0.500000 0.187500
vt 0.750000 0.937500
vt 0.750000 1.000000
vt 0.250000 1.000000
vt 0.250000 0.937500
vt 1.000000 0.250000
vt 0.000000 0.250000
vt 1.000000 0.750000
vt 1.000000 0.812500
vt 0.000000 0.812500
vt 1.000000 0.916667
vt 0.000000 0.916667
vt 0.000000 0.875000
vt 1.000000 0.875000
vt 1.000000 0.958333
vt 1.000000 1.000000
vt 0.000000 1.000000
vt 0.000000 0.958333
vt 0.750000 0.437500
vt 0.750000 0.500000
vt 0.250000 0.500000
vt 0.250000 0.437500
vt 1.000000 0.416667
vt 0.000000 0.416667
vt 0.625000 0.250000
vt 0.625000 0.312500
vt 0.375000 0.312500
vt 0.375000 0.250000
vt 0.000000 0.873750
vt 1.000000 0.873750
vt 1.000000 0.811250
vt 0.000000 0.811250
vt 1.000000 0.437500
vt 0.000000 0.437500
vt 1.000000 0.436250
vt 0.000000 0.436250
vt 0.000000 0.498750
vt 1.000000 0.498750
vt 1.000000 0.312250
vt 1.000000 0.249750
vt 0.000000 0.249750
vt 0.000000 0.312250
vt 1.000000 0.354167
vt 0.000000 0.354167
vt 0.000000 0.312500
vt 1.000000 0.312500
vt 1.000000 0.312250
vt 0.000000 0.312250
vt 0.000000 0.359375
vt 1.000000 0.359375
vt 0.002879 0.250000
vt 0.002879 0.312500
vt 1.000000 0.062250
vt 1.000000 -0.000250
vt 0.000000 -0.000250
vt 0.000000 0.062250
vt 1.000000 0.354167
vt 0.000000 0.354167
vt 0.000000 0.312500
vt 1.000000 0.312500
vt 0.000000 0.453125
vt 1.000000 0.453125
vt 1.000000 0.406250
vt 0.000000 0.406250
vt 0.500000 0.109375
vt 0.500000 0.156250
vt 0.000000 0.156250
vt 0.000000 0.109375
vt 1.000000 0.437500
vt 0.000000 0.437500
vt 0.000000 0.395833
vt 1.000000 0.395833
vt 1.000000 0.311250
vt 0.000000 0.311250
vt 0.000000 0.373750
vt 1.000000 0.373750
vt 0.750000 0.812500
vt 0.750000 0.875000
vt 0.250000 0.875000
vt 0.250000 0.812500
vt 1.000000 0.625000
vt 0.500000 0.625000
vt 0.500000 0.562500
vt 0.000000 0.625000
vt 0.000000 0.998750
vt 1.000000 0.998750
vt 1.000000 0.936250
vt 0.000000 0.936250
vt 1.000000 0.854167
vt 0.000000 0.854167
vt 1.000000 0.437500
vt 0.000000 0.437500
vt 0.000000 0.395833
vt 1.000000 0.395833
vt 0.000000 0.458333
vt 1.000000 0.458333
vt 0.250000 0.312500
vt 0.750000 0.312500
vt 0.750000 0.375000
vt 0.250000 0.375000
vt 1.000000 0.062500
vt 1.000000 0.125000
vt 0.500000 0.125000
vt 0.500000 0.062500
vt 0.500000 0.062500
vt 0.000000 0.062500
vt 1.000000 0.375000
vt 1.000000 0.416667
vt 0.000000 0.416667
vt 0.000000 0.375000
s 0
usemtl arch_mat
f 9/1/1 3/2/1 7/3/1 62/4/1
f 7/5/2 3/6/2 4/7/2 8/8/2
f 27/9/3 26/10/3 1/11/3 2/12/3
f 13/13/4 12/14/4 59/15/4 58/16/4
f 58/17/5 59/18/5 66/19/5 67/20/5
f 145/21/2 147/22/2 17/23/2 54/24/2
f 152/25/6 51/26/6 20/27/6 153/28/6
f 104/29/7 49/30/7 22/31/7 105/32/7
f 80/33/5 6/34/5 5/35/5 45/36/5
f 79/20/5 46/17/5 47/16/5 78/19/5
f 76/26/5 77/37/5 48/38/5 49/39/5
f 75/9/5 50/10/5 51/11/5 74/12/5
f 73/40/5 52/41/5 53/42/5 72/43/5
f 70/44/5 71/45/5 54/46/5 55/47/5
f 68/33/5 69/34/5 56/35/5 57/36/5
f 60/48/5 61/49/5 64/26/5 65/37/5
f 116/50/8 109/51/8 63/24/8 44/23/8
f 122/52/3 124/53/3 42/54/3 11/55/3
f 130/53/3 132/56/3 40/57/3 13/58/3
f 148/59/3 36/60/3 17/61/3 147/62/3
f 156/63/3 34/64/3 19/65/3 154/66/3
f 108/67/3 32/68/3 21/69/3 106/70/3
f 63/9/5 62/10/5 7/11/5 8/12/5
f 1/71/9 26/24/9 45/23/9 5/72/9
f 114/70/3 116/67/3 44/68/3 9/69/3
f 15/73/10 14/74/10 57/75/10 56/55/10
f 128/29/11 57/30/11 14/31/11 129/32/11
f 17/1/12 16/2/12 55/3/12 54/4/12
f 135/76/13 138/77/13 15/78/13 56/79/13
f 19/71/14 18/24/14 53/23/14 52/72/14
f 110/56/5 64/57/5 61/58/5 112/53/5
f 21/13/15 20/14/15 51/15/15 50/16/15
f 23/73/16 22/74/16 49/75/16 48/55/16
f 25/1/17 24/2/17 47/3/17 46/4/17
f 96/80/18 47/81/18 24/82/18 97/83/18
f 11/71/19 10/24/19 61/23/19 60/72/19
f 24/38/3 25/39/3 28/26/3 29/37/3
f 31/20/3 22/17/3 23/18/3 30/19/3
f 33/34/3 20/35/3 21/36/3 32/33/3
f 35/45/3 18/46/3 19/47/3 34/44/3
f 36/43/3 37/40/3 16/41/3 17/42/3
f 39/12/3 14/11/3 15/10/3 38/9/3
f 41/37/3 12/38/3 13/39/3 40/26/3
f 43/20/3 10/17/3 11/18/3 42/19/3
f 4/34/3 3/35/3 9/36/3 44/33/3
f 92/56/3 28/57/3 25/58/3 90/53/3
f 86/67/5 80/68/5 45/69/5 88/70/5
f 94/53/5 78/54/5 47/55/5 96/52/5
f 102/56/5 76/57/5 49/58/5 104/53/5
f 150/84/5 74/85/5 51/86/5 152/87/5
f 141/59/5 72/60/5 53/61/5 142/62/5
f 134/63/5 70/64/5 55/65/5 136/66/5
f 126/67/5 68/68/5 57/69/5 128/70/5
f 119/88/20 122/89/20 11/50/20 60/51/20
f 138/87/3 140/84/3 38/85/3 15/86/3
f 1/90/2 5/91/2 6/92/2 2/93/2
f 73/74/21 72/73/21 35/55/21 34/75/21
f 100/94/22 93/95/22 77/96/22 30/97/22
f 102/98/23 107/99/23 31/16/23 76/13/23
f 86/100/24 91/101/24 27/102/24 80/103/24
f 71/104/25 70/105/25 37/106/25 36/107/25
f 87/108/26 90/109/26 25/110/26 46/111/26
f 79/112/27 78/105/27 29/106/27 28/113/27
f 77/74/28 76/73/28 31/55/28 30/75/28
f 75/71/29 74/24/29 33/23/29 32/72/29
f 150/30/30 155/31/30 33/82/30 74/81/30
f 69/73/31 68/74/31 39/75/31 38/55/31
f 148/114/32 146/115/32 71/24/32 36/23/32
f 67/24/33 66/71/33 41/116/33 40/117/33
f 140/78/34 133/79/34 69/74/34 38/75/34
f 65/74/35 64/73/35 43/55/35 42/75/35
f 63/24/36 8/71/36 4/72/36 44/23/36
f 118/30/37 123/31/37 41/82/37 66/81/37
f 6/118/38 80/119/38 27/120/38 2/121/38
f 132/50/39 125/51/39 67/24/39 40/23/39
f 100/53/3 30/54/3 23/55/3 98/52/3
f 111/122/40 114/123/40 9/124/40 62/125/40
f 118/53/5 66/54/5 59/55/5 120/52/5
f 144/126/41 141/127/41 83/128/41 84/129/41
f 146/130/5 83/131/5 82/132/5 145/133/5
f 144/130/3 84/131/3 81/132/3 143/133/3
f 142/128/2 143/129/2 81/50/2 82/51/2
f 45/134/26 26/135/26 89/136/26 88/137/26
f 88/137/26 89/136/26 90/109/26 87/108/26
f 79/138/24 28/139/24 92/140/24 85/141/24
f 85/141/24 92/140/24 91/101/24 86/100/24
f 79/142/5 85/143/5 87/144/5 46/145/5
f 85/143/5 86/67/5 88/70/5 87/144/5
f 27/14/3 91/146/3 89/147/3 26/148/3
f 91/146/3 92/56/3 90/53/3 89/147/3
f 29/148/3 99/147/3 97/149/3 24/15/3
f 99/147/3 100/53/3 98/52/3 97/149/3
f 29/150/22 78/151/22 94/152/22 99/153/22
f 99/153/22 94/152/22 93/95/22 100/94/22
f 77/148/5 93/147/5 95/149/5 48/15/5
f 93/147/5 94/53/5 96/52/5 95/149/5
f 48/79/18 95/76/18 98/77/18 23/78/18
f 95/76/18 96/80/18 97/83/18 98/77/18
f 75/24/23 32/23/23 108/50/23 101/51/23
f 101/51/23 108/50/23 107/99/23 102/98/23
f 75/14/5 101/146/5 103/147/5 50/148/5
f 101/146/5 102/56/5 104/53/5 103/147/5
f 31/142/3 107/143/3 105/144/3 22/145/3
f 107/143/3 108/67/3 106/70/3 105/144/3
f 50/74/7 103/154/7 106/155/7 21/75/7
f 103/154/7 104/29/7 105/32/7 106/155/7
f 61/156/40 10/157/40 113/158/40 112/159/40
f 112/159/40 113/158/40 114/123/40 111/122/40
f 63/14/5 109/146/5 111/147/5 62/148/5
f 109/146/5 110/56/5 112/53/5 111/147/5
f 10/145/3 43/142/3 115/143/3 113/144/3
f 113/144/3 115/143/3 116/67/3 114/70/3
f 43/16/8 64/13/8 110/98/8 115/99/8
f 115/99/8 110/98/8 109/51/8 116/50/8
f 65/148/5 117/147/5 119/149/5 60/15/5
f 117/147/5 118/53/5 120/52/5 119/149/5
f 65/74/37 42/75/37 124/78/37 117/79/37
f 117/79/37 124/78/37 123/31/37 118/30/37
f 59/13/20 12/16/20 121/160/20 120/161/20
f 120/161/20 121/160/20 122/89/20 119/88/20
f 12/15/3 41/148/3 123/147/3 121/149/3
f 121/149/3 123/147/3 124/53/3 122/52/3
f 39/16/39 68/13/39 126/98/39 131/99/39
f 131/99/39 126/98/39 125/51/39 132/50/39
f 67/142/5 125/143/5 127/144/5 58/145/5
f 125/143/5 126/67/5 128/70/5 127/144/5
f 58/74/11 127/154/11 130/155/11 13/75/11
f 127/154/11 128/29/11 129/32/11 130/155/11
f 14/148/3 39/14/3 131/146/3 129/147/3
f 129/147/3 131/146/3 132/56/3 130/53/3
f 37/82/34 70/81/34 134/30/34 139/31/34
f 139/31/34 134/30/34 133/79/34 140/78/34
f 16/162/3 37/163/3 139/164/3 137/165/3
f 137/165/3 139/164/3 140/84/3 138/87/3
f 69/166/5 133/167/5 135/168/5 56/169/5
f 133/167/5 134/63/5 136/66/5 135/168/5
f 55/81/13 16/82/13 137/83/13 136/80/13
f 136/80/13 137/83/13 138/77/13 135/76/13
f 53/98/2 18/99/2 143/129/2 142/128/2
f 35/170/3 144/130/3 143/133/3 18/171/3
f 35/16/41 72/13/41 141/127/41 144/126/41
f 83/131/5 141/59/5 142/62/5 82/132/5
f 71/170/5 146/130/5 145/133/5 54/171/5
f 84/129/32 83/128/32 146/115/32 148/114/32
f 84/131/3 148/59/3 147/62/3 81/132/3
f 82/51/2 81/50/2 147/22/2 145/21/2
f 73/74/30 34/75/30 156/78/30 149/79/30
f 149/79/30 156/78/30 155/31/30 150/30/30
f 73/163/5 149/164/5 151/165/5 52/162/5
f 149/164/5 150/84/5 152/87/5 151/165/5
f 33/166/3 155/167/3 153/168/3 20/169/3
f 155/167/3 156/63/3 154/66/3 153/168/3
f 52/172/6 151/173/6 154/174/6 19/175/6
f 151/173/6 152/25/6 153/28/6 154/174/6
