# Blender 5.1.0
# www.blender.org
mtllib giant_column.mtl
o column_giant
v 0.414216 0.000000 -0.000007
v 0.414216 1.000000 -0.000007
v 1.000007 0.000000 0.585783
v 1.000007 1.000000 0.585783
v -0.000000 0.000000 -0.000007
v -0.000000 1.000000 -0.000007
v 1.000007 0.000000 1.000000
v 1.000007 1.000000 1.000000
v 0.000007 0.000000 1.000000
v -0.000000 0.000000 -0.000007
v 0.000007 0.000000 1.000000
v 0.000007 1.000000 1.000000
vn -0.0000 -0.0000 -1.0000
vn 0.7071 -0.0000 -0.7071
vn 1.0000 -0.0000 -0.0000
vn -0.0000 1.0000 -0.0000
vn -0.0000 -1.0000 -0.0000
vn -1.0000 -0.0000 -0.0000
vn -0.0000 -0.0000 1.0000
vt 0.500000 1.000000
vt 0.085200 0.000000
vt 0.500000 0.000000
vt 0.080169 0.999909
vt 0.908451 0.000091
vt 0.080169 0.000091
vt 0.414240 1.000000
vt 0.000000 0.000000
vt 0.414240 0.000000
vt 0.585769 0.000100
vt 0.999900 0.000100
vt 0.999893 0.999900
vt 0.414231 0.999900
vt 0.000100 0.999900
vt 0.000100 0.000107
vt 0.999896 0.999896
vt 0.000096 0.000104
vt 0.999896 0.000104
vt 0.000676 0.999900
vt 0.000676 0.001100
vt 0.999476 0.001100
vt 0.085200 1.000000
vt 0.908451 0.999909
vt 0.000000 1.000000
vt 0.000100 0.999900
vt 0.000100 0.585769
vt 0.999900 0.000100
vt 0.999900 0.414231
vt 0.000096 0.999896
vt 0.999476 0.999900
vt 0.000100 0.000100
s 0
usemtl column_mat_side
f 6/1/1 1/2/1 5/3/1
f 2/4/2 3/5/2 1/6/2
f 4/7/3 7/8/3 3/9/3
f 12/16/6 10/17/6 11/18/6
f 12/19/7 11/20/7 7/21/7
f 6/1/1 2/22/1 1/2/1
f 2/4/2 4/23/2 3/5/2
f 4/7/3 8/24/3 7/8/3
f 12/16/6 6/29/6 10/17/6
f 7/21/7 8/30/7 12/19/7
f 11/20/4 9/31/4 7/21/4
usemtl column_mat_top
f 2/10/4 6/11/4 12/12/4
f 3/13/5 7/14/5 11/15/5
f 8/25/4 4/26/4 12/12/4
f 4/26/4 2/10/4 12/12/4
f 10/27/5 1/28/5 11/15/5
f 1/28/5 3/13/5 11/15/5
l 5 10
