# Blender 5.1.2
# www.blender.org
mtllib giant_roman_doric_base.mtl
o Cube.296
v 0.350723 0.650308 1.567490
v 0.350723 1.006633 1.567490
v -0.567493 0.650308 0.649274
v -0.567493 1.006633 0.649274
v 0.535081 1.476959 1.122410
v -0.122412 1.476959 0.464916
v -0.567482 0.650308 1.567490
v -0.567482 -0.000011 1.567490
v -0.567482 0.650308 -0.000003
v -0.567482 -0.000011 -0.000003
v 1.000000 0.650308 1.567490
v 1.000000 -0.000011 1.567490
v 1.000000 -0.000011 -0.000003
v 1.000000 0.650308 -0.000003
v -0.567493 0.650308 -0.000003
v -0.567493 1.006633 -0.000003
v -0.122412 1.476959 -0.000002
v 1.000000 0.650308 1.567490
v 1.000000 1.006633 1.567490
v 1.000000 1.476959 1.122410
v 1.000000 1.476959 -0.000002
v -0.108385 0.650308 1.108382
v -0.108385 1.006633 1.108382
v 0.206335 1.476959 0.793663
vn -0.0000 -0.0000 1.0000
vn -0.7071 -0.0000 0.7071
vn -0.5136 0.6873 0.5136
vn -0.7263 0.6873 -0.0000
vn -1.0000 -0.0000 -0.0000
vn -0.0000 -1.0000 -0.0000
vn -0.0000 1.0000 -0.0000
vn -0.0000 0.6873 0.7263
vn 1.0000 -0.0000 -0.0000
vn -0.0000 -0.0000 -1.0000
vn -0.0041 -0.0000 -1.0000
vt 0.373156 0.039566
vt 0.931290 0.358500
vt 0.373156 0.358500
vt 0.018976 0.293900
vt 0.577111 0.612834
vt 0.018976 0.612834
vt 0.387577 0.018600
vt 0.803217 0.576047
vt 0.387577 0.576046
vt 0.398866 0.411828
vt 0.814506 0.969274
vt 0.398866 0.969274
vt 0.000000 0.625000
vt 1.000000 1.000000
vt 0.000000 1.000000
vt -0.000000 0.375000
vt 1.000000 0.000000
vt 1.000000 0.375000
vt 0.000000 0.000000
vt 0.062091 0.622893
vt 0.620227 0.941827
vt 0.062093 0.941827
vt 0.634999 0.411825
vt 0.219359 0.969271
vt 0.054808 0.411824
vt 0.008361 0.008361
vt 0.992903 0.416171
vt 0.704537 0.704537
vt 0.637577 0.018600
vt 0.221937 0.576046
vt 0.057385 0.018600
vt 0.210841 0.606400
vt 0.768976 0.925334
vt 0.210842 0.925334
vt 0.022680 0.999936
vt 0.437505 0.000064
vt 0.437505 0.999936
vt 0.414892 0.999936
vt 0.000064 0.000064
vt 0.414892 0.000064
vt 0.563659 0.000073
vt 0.564098 0.000467
vt 0.325085 0.003405
vt 0.000074 0.000300
vt 0.527252 0.284133
vt 0.000074 0.999927
vt 0.931290 0.039566
vt 0.577111 0.293900
vt 0.967770 0.018600
vt 0.979058 0.411829
vt 1.000000 0.625000
vt 0.620226 0.622893
vt 0.634999 0.969271
vt 0.416172 0.992903
vt 0.008361 0.992903
vt 0.992903 0.008361
vt 0.637577 0.576046
vt 0.768976 0.606400
vt 0.022680 0.000064
vt 0.000064 0.999936
vt 0.563659 0.999911
vt 0.030912 0.289138
vt 0.030839 1.000000
vt 0.000073 0.000073
vt 0.227312 0.000293
vt 0.527252 0.999928
s 0
usemtl roman_doric_base
f 19/1/1 1/2/1 18/3/1
f 23/4/2 3/5/2 22/6/2
f 23/7/3 5/8/3 24/9/3
f 16/10/4 6/11/4 17/12/4
f 10/13/5 7/14/5 9/15/5
f 7/16/1 12/17/1 11/18/1
f 13/17/6 8/15/6 10/19/6
f 7/14/7 14/19/7 9/17/7
f 4/20/5 15/21/5 3/22/5
f 19/23/8 5/24/8 2/25/8
f 21/26/7 6/27/7 24/28/7
f 23/29/3 6/30/3 4/31/3
f 2/32/2 22/33/2 1/34/2
f 12/35/9 14/36/9 11/37/9
f 10/38/10 14/39/10 13/40/10
f 18/41/7 11/42/7 19/43/7
f 9/44/10 17/45/10 14/46/10
f 19/1/1 2/47/1 1/2/1
f 23/4/2 4/48/2 3/5/2
f 23/7/3 2/49/3 5/8/3
f 16/10/4 4/50/4 6/11/4
f 10/13/5 8/51/5 7/14/5
f 7/16/1 8/19/1 12/17/1
f 13/17/6 12/14/6 8/15/6
f 7/14/7 11/15/7 14/19/7
f 4/20/5 16/52/5 15/21/5
f 19/23/8 20/53/8 5/24/8
f 5/54/7 20/55/7 21/26/7
f 21/26/7 17/56/7 6/27/7
f 24/28/7 5/54/7 21/26/7
f 23/29/3 24/57/3 6/30/3
f 2/32/2 23/58/2 22/33/2
f 12/35/9 13/59/9 14/36/9
f 10/38/10 9/60/10 14/39/10
f 11/42/9 14/61/9 20/62/9
f 14/61/9 21/63/9 20/62/9
f 20/62/9 19/43/9 11/42/9
f 9/44/11 15/64/11 16/65/11
f 16/65/10 17/45/10 9/44/10
f 17/45/10 21/66/10 14/46/10
