# Blender 5.1.1
# www.blender.org
mtllib giant_greek_corinthian_base.mtl
o Cube.286
v 0.510710 0.525000 1.181245
v 0.510710 0.787500 1.181245
v -0.181250 0.525000 0.489285
v -0.181250 0.787500 0.489285
v 0.456341 0.000000 1.312507
v 0.456341 0.262500 1.312507
v -0.312509 0.000000 0.543657
v -0.312509 0.262500 0.543657
v 0.565076 0.262500 1.049998
v 0.565076 0.525000 1.049998
v -0.050000 0.262500 0.434922
v -0.050000 0.525000 0.434922
v 0.510710 0.787500 0.489285
v 1.000000 0.525000 1.181245
v 1.000000 0.787500 1.181245
v 1.000000 0.000000 1.312507
v 1.000000 0.262500 1.312507
v 1.000000 0.262500 1.049998
v 1.000000 0.525000 1.049998
v 1.000000 0.787500 0.489285
v 1.000000 0.262500 -0.000002
v 1.000000 0.262500 0.768848
v 1.000000 0.000000 -0.000002
v 1.000000 0.000000 0.768848
v -0.181250 0.525000 0.000000
v -0.181250 0.787500 -0.000000
v -0.312509 0.000000 -0.000000
v -0.312509 0.262500 0.000000
v -0.050000 0.262500 -0.000000
v -0.050000 0.525000 0.000000
v 0.510710 0.787500 0.000000
v 0.231148 0.262500 0.000000
v -0.087319 0.262500 0.000000
v 0.231152 0.000000 0.000000
v -0.087317 0.000000 0.000000
v 1.000000 0.787500 0.000000
v 1.000000 0.525000 0.000000
v 1.000000 0.262500 0.000000
v 1.000000 0.525000 0.000000
vn -0.0000 -0.0000 1.0000
vn -0.7071 -0.0000 0.7071
vn -0.0000 -0.0000 -1.0000
vn -0.0000 1.0000 -0.0000
vn -0.0000 -1.0000 -0.0000
vn 1.0000 -0.0000 -0.0000
vn -1.0000 -0.0000 -0.0000
vn 0.9950 -0.0995 -0.0000
vt 0.250000 0.625000
vt 0.750000 0.875000
vt 0.250000 0.875000
vt 1.000000 0.625000
vt 0.000000 0.375000
vt 1.000000 0.375000
vt 0.437500 0.375000
vt 1.000000 1.000000
vt 0.000000 0.750000
vt 1.000000 0.750000
vt 0.000047 0.414222
vt 0.000047 0.000047
vt 0.222248 0.000047
vt 0.437500 0.250000
vt 0.000000 0.000000
vt 0.437500 0.000000
vt 0.937500 0.250000
vt 0.062500 0.000000
vt 0.937500 0.000000
vt 0.000100 0.707065
vt 0.499999 0.500000
vt 0.292935 0.999900
vt 0.125000 0.187500
vt 0.625000 0.875000
vt 0.125000 0.875000
vt 0.187500 0.125000
vt 0.875000 0.125000
vt 0.875000 0.812500
vt 0.999898 0.585771
vt 0.999898 0.828362
vt 0.585769 0.999900
vt 0.999898 0.999900
vt 0.999900 0.999900
vt 0.414231 0.999900
vt 0.999898 0.414232
vt 0.414231 0.000100
vt 0.999900 0.000100
vt 0.750000 0.250000
vt 0.250000 0.750000
vt 0.250000 0.250000
vt 0.499999 0.500000
vt 0.000100 0.292935
vt 0.292935 0.000100
vt 0.000100 0.414231
vt 0.000100 0.000100
vt 0.499998 0.500000
vt 0.000047 0.000047
vt 0.222249 0.000047
vt 0.222249 0.414219
vt 0.000100 0.585769
vt 0.562500 0.750000
vt 0.562500 0.000000
vt 0.000000 0.250000
vt 0.585769 0.000100
vt 0.999898 0.171639
vt 0.125000 0.250000
vt 0.625000 1.000000
vt 0.125000 1.000000
vt 0.250000 0.125000
vt 0.750000 0.375000
vt 0.250000 0.375000
vt 0.000050 0.000050
vt 0.249963 0.000050
vt 0.249963 0.999700
vt 0.203763 0.414221
vt 0.003783 0.999953
vt 0.003783 0.200033
vt 0.250025 0.000050
vt 0.000050 0.999950
vt 0.000050 0.000050
vt 0.000045 0.414223
vt 0.000045 0.171603
vt 0.200025 0.000045
vt 0.750000 0.625000
vt 0.000000 0.625000
vt 0.437500 0.625000
vt 0.000000 1.000000
vt 0.222248 0.999953
vt 0.000047 0.999953
vt 0.062500 0.250000
vt 0.000100 0.500000
vt 0.499999 0.999900
vt 0.625000 0.187500
vt 0.750000 0.750000
vt 0.499999 0.000100
vt 0.000100 0.500000
vt 0.499998 0.000100
vt 0.222249 0.999953
vt 0.000047 0.999953
vt 0.000100 0.999900
vt 0.562500 1.000000
vt 0.562500 0.250000
vt 0.999898 0.000100
vt 0.625000 0.250000
vt 0.750000 0.125000
vt 0.000068 0.999950
vt 0.000050 0.999700
vt 0.003783 0.000045
vt 0.203763 0.000045
vt 0.203763 0.999955
vt 0.000045 0.414188
vt 0.250025 0.999950
vt 0.000045 0.000045
vt 0.200025 0.999955
vt 0.000045 0.999955
s 0
usemtl ionic_base
f 15/1/1 1/2/1 14/3/1
f 2/4/2 3/5/2 1/6/2
f 17/4/1 5/7/1 16/6/1
f 6/8/2 7/9/2 5/10/2
f 31/11/3 36/12/3 39/13/3
f 19/14/1 9/15/1 18/16/1
f 10/17/2 11/18/2 9/19/2
f 10/20/4 37/21/4 12/22/4
f 20/23/4 2/24/4 15/25/4
f 2/26/4 13/27/4 4/28/4
f 32/29/4 33/30/4 8/31/4
f 33/30/4 28/32/4 8/31/4
f 23/33/5 24/34/5 34/35/5
f 8/31/4 22/36/4 21/37/4
f 13/38/4 36/39/4 31/40/4
f 38/41/5 9/42/5 11/43/5
f 6/44/4 17/45/4 22/36/4
f 39/46/5 1/42/5 3/43/5
f 39/47/6 36/48/6 20/49/6
f 5/50/5 34/35/5 24/34/5
f 12/8/7 29/51/7 11/10/7
f 7/52/7 28/53/7 27/15/7
f 7/54/5 35/55/5 5/50/5
f 13/56/4 26/57/4 4/58/4
f 4/59/7 25/60/7 3/61/7
f 8/31/4 21/37/4 32/29/4
f 18/62/7 19/63/7 37/64/7
f 24/65/6 38/66/6 18/67/6
f 21/68/3 30/69/3 37/70/3
f 34/71/3 35/72/3 28/73/3
f 15/1/1 2/74/1 1/2/1
f 2/4/2 4/75/2 3/5/2
f 17/4/1 6/76/1 5/7/1
f 6/8/2 8/77/2 7/9/2
f 39/13/3 25/78/3 31/11/3
f 25/78/3 26/79/3 31/11/3
f 19/14/1 10/53/1 9/15/1
f 10/17/2 12/80/2 11/18/2
f 19/81/4 37/21/4 10/20/4
f 37/21/4 30/82/4 12/22/4
f 20/23/4 13/83/4 2/24/4
f 8/31/4 6/44/4 22/36/4
f 13/38/4 20/84/4 36/39/4
f 11/43/5 29/85/5 38/41/5
f 38/41/5 18/86/5 9/42/5
f 3/43/5 25/87/5 39/46/5
f 39/46/5 14/86/5 1/42/5
f 20/49/6 15/88/6 14/89/6
f 14/89/6 39/47/6 20/49/6
f 24/34/5 16/90/5 5/50/5
f 5/50/5 35/55/5 34/35/5
f 12/8/7 30/91/7 29/51/7
f 7/52/7 8/92/7 28/53/7
f 7/54/5 27/93/5 35/55/5
f 13/56/4 31/94/4 26/57/4
f 4/59/7 26/95/7 25/60/7
f 21/96/7 38/97/7 37/64/7
f 38/97/7 18/62/7 37/64/7
f 17/98/6 16/99/6 18/67/6
f 16/99/6 24/65/6 18/67/6
f 24/65/6 23/100/6 38/66/6
f 18/67/8 22/101/8 17/98/8
f 21/68/3 29/102/3 30/69/3
f 35/72/3 27/103/3 28/73/3
f 28/73/3 38/104/3 34/71/3
f 38/104/3 23/105/3 34/71/3
