# Blender 5.1.1
# www.blender.org
mtllib giant_scamozzi_ionic_capital.mtl
o ionic_capital_small
v -0.240974 0.676853 1.530936
v -0.386254 0.676853 1.219394
v -0.379044 0.309062 1.595322
v -0.524323 0.309062 1.283780
v -0.240974 -0.058731 1.530936
v -0.386254 -0.058731 1.219394
v 0.092356 -0.211075 1.375492
v -0.052924 -0.211075 1.063953
v 0.425689 -0.058731 1.220051
v 0.280407 -0.058731 0.908509
v 0.563758 0.309063 1.155665
v 0.418479 0.309063 0.844123
v 0.425689 0.676853 1.220051
v 0.280407 0.676853 0.908509
v 0.092356 0.829198 1.375492
v -0.052924 0.829198 1.063953
v -0.168759 0.061563 0.484115
v -0.168759 0.336563 0.484115
v 0.515884 0.061563 1.168758
v 0.515884 0.336563 1.168758
v -0.213290 0.676853 1.392355
v -0.524835 0.676853 1.247087
v -0.277670 0.309062 1.530427
v -0.589218 0.309062 1.385159
v -0.213290 -0.058731 1.392355
v -0.524835 -0.058731 1.247087
v -0.057860 -0.211075 1.059017
v -0.369407 -0.211075 0.913751
v 0.097567 -0.058731 0.725681
v -0.213977 -0.058731 0.580412
v 0.161948 0.309063 0.587609
v -0.149597 0.309063 0.442340
v 0.097567 0.676853 0.725681
v -0.213978 0.676853 0.580412
v -0.057860 0.829198 1.059017
v -0.369407 0.829198 0.913751
v -0.082813 0.157298 1.082807
v -0.082813 0.125904 1.082807
v -0.082813 0.157298 0.567182
v -0.082813 0.125904 0.567182
v 0.432812 0.157298 1.082807
v 0.432812 0.125904 1.082807
v 0.432811 0.157298 0.567182
v 0.432812 0.125904 0.567182
v 0.999999 0.326250 0.962934
v 0.999999 0.841875 0.962934
v 0.037065 0.326250 -0.000000
v 0.037064 0.841875 -0.000000
v 0.999999 0.326250 -0.000000
v 0.999999 0.841875 -0.000000
v -0.311270 0.841875 1.151785
v -0.151786 0.841875 1.311269
v -0.151786 0.326250 1.311269
v -0.311270 0.326250 1.151785
v 0.999999 0.828125 1.034052
v 0.999999 1.000000 1.034052
v -0.034056 0.828125 -0.000000
v -0.034056 1.000000 -0.000000
v 0.999999 0.828125 -0.000000
v 0.999999 1.000000 -0.000000
v -0.339408 1.000000 1.231453
v -0.231454 1.000000 1.339407
v -0.231454 0.828125 1.339407
v -0.339408 0.828125 1.231453
v -0.168759 0.199062 -0.000001
v -0.168759 0.061563 -0.000001
v 0.999999 0.336563 -0.000001
v -0.168759 0.336563 -0.000001
v 0.031768 0.336563 -0.000001
v 1.000000 0.061563 -0.000001
v 0.031768 0.061563 -0.000001
v 0.515884 0.061563 -0.000001
v 0.999999 0.199063 1.168758
v 0.999999 0.061563 1.168758
v 0.999999 0.336563 0.968231
v 0.999999 0.336563 1.168758
vn 0.4226 -0.0000 0.9063
vn -0.9063 -0.0000 -0.4226
vn -0.0000 -0.0000 1.0000
vn -0.7071 -0.0000 0.7071
vn -0.9572 -0.0000 -0.2895
vn 0.2895 -0.0000 0.9572
vn -0.0000 1.0000 -0.0000
vn -0.0000 -1.0000 -0.0000
vn -0.9706 -0.0000 -0.2407
vn 0.2407 -0.0000 0.9706
vn -0.2387 -0.7378 -0.6314
vn -0.3942 -0.8302 0.3942
vn -0.5538 0.7459 0.3701
vn -0.0000 0.5774 0.8165
vn -0.2631 0.7110 -0.6522
vn 0.3411 0.7110 -0.6150
vn 0.3292 -0.7378 -0.5893
vn -0.8373 0.3827 0.3905
vn -0.8373 -0.3827 0.3905
vn -0.3468 -0.9239 0.1617
vn 0.3468 -0.9239 -0.1617
vn 0.8373 -0.3827 -0.3905
vn 0.8373 0.3827 -0.3905
vn -0.4226 -0.0000 -0.9063
vn 0.3468 0.9239 -0.1617
vn -0.3468 0.9239 0.1617
vn 0.4986 -0.4986 0.7091
vn -0.4377 -0.5504 -0.7110
vn -0.0000 -0.0000 -1.0000
vn -0.3904 0.3827 0.8373
vn -0.3904 -0.3827 0.8373
vn -0.1617 -0.9239 0.3468
vn 0.1617 -0.9239 -0.3468
vn 0.3904 -0.3827 -0.8373
vn 0.3904 0.3827 -0.8373
vn 0.1617 0.9239 -0.3468
vn -0.1617 0.9239 0.3468
vn 0.9063 -0.0000 0.4226
vn 1.0000 -0.0000 -0.0000
vn -1.0000 -0.0000 -0.0000
vn -0.0536 -0.0027 -0.9986
vn -0.6681 -0.0964 -0.7378
vn -0.6523 0.0558 -0.7559
vn 0.5403 -0.7601 0.3610
vn -0.4920 -0.7183 0.4920
vn 0.4920 -0.7183 0.4920
vn -0.5831 -0.7129 0.3896
vn -0.0250 0.9986 0.0475
vn -0.2315 0.7559 -0.6124
vn 0.3193 0.7559 -0.5716
vn -0.1368 -0.7129 0.6878
vn -0.0000 -0.7601 0.6498
vn -0.7616 -0.0678 0.6445
vn -0.5774 -0.8165 -0.0000
vn -0.7616 0.4070 0.5044
vn -0.6679 0.7323 0.1329
vn 0.3701 0.7459 0.5538
vn 0.7129 0.5595 0.4227
vn 0.7323 -0.4815 0.4815
vn 0.9986 -0.0061 0.0534
vn -0.3029 0.5749 -0.7601
vn 0.6314 0.1462 -0.7616
vn -0.3105 -0.5893 -0.7459
vn -0.0444 -0.0303 -0.9986
vn -0.3942 0.3942 -0.8302
vn -0.4573 0.4966 -0.7378
vn 0.8165 -0.5774 -0.0000
vn -0.5403 -0.7601 0.3610
vn -0.7616 -0.5964 0.2537
vn -0.5774 -0.0000 0.8165
vn -0.3783 0.7323 0.5662
vn 0.7129 0.0967 0.6946
vn 0.8302 0.3942 0.3942
vn 0.9986 -0.0487 0.0226
vn -0.6207 0.1924 -0.7601
vn -0.0000 0.8165 -0.5774
vn 0.4016 -0.5086 -0.7616
vn 0.1924 0.6189 -0.7616
vn 0.8165 -0.0000 -0.5774
vn -0.6362 -0.1972 -0.7459
vn 0.6440 -0.1701 -0.7459
vn -0.6584 -0.1739 -0.7323
vn -0.0000 0.6958 -0.7183
vn -0.3426 -0.5885 -0.7323
vn -0.4959 0.4959 -0.7129
vn 0.6727 0.1777 -0.7183
vn -0.6727 0.1777 -0.7183
vn 0.4595 0.4595 -0.7601
vn 0.3351 -0.5757 -0.7459
vt 0.134403 0.542934
vt 0.240302 0.287270
vt 0.495966 0.181370
vt 0.495966 0.904496
vt 0.751629 0.798596
vt 0.240302 0.287270
vt 0.751629 0.287270
vt 0.857528 0.542934
vt 0.751629 0.798596
vt 0.495966 0.904496
vt 0.240302 0.798596
vt 0.857528 0.542934
vt 0.751629 0.287270
vt 0.495966 0.181372
vt 0.134403 0.542934
vt 0.240302 0.798596
vt 0.714967 0.562144
vt 0.483224 0.495932
vt 0.714967 0.495932
vt 0.291484 0.693138
vt 0.132037 0.308202
vt 0.291484 0.308202
vt 0.723262 0.787650
vt 0.886992 0.951380
vt 0.723262 0.951380
vt 0.983209 0.989107
vt 0.385251 0.749923
vt 0.983209 0.749923
vt 0.614364 0.989107
vt 0.016406 0.749923
vt 0.614364 0.749923
vt 1.199253 0.080040
vt 1.289283 0.170069
vt 1.289283 0.623618
vt 0.253911 0.080040
vt 0.253911 0.623618
vt -0.289668 0.623618
vt 0.883946 0.186454
vt 0.249807 0.265722
vt 0.883946 0.265722
vt 0.749807 0.186454
vt 0.115668 0.265722
vt 0.749807 0.265722
vt 0.628911 0.056964
vt 0.628911 0.623618
vt 0.062257 0.623618
vt 0.900658 0.500669
vt 0.983677 0.500669
vt 0.983677 0.701095
vt 0.483224 0.628356
vt 0.714967 0.628356
vt 0.132037 0.693138
vt 0.886992 0.787650
vt 0.385251 0.989107
vt 0.016406 0.989107
vt 0.745704 0.623618
vt 0.745704 0.080040
vt -0.289668 0.170069
vt -0.199638 0.080040
vt 0.249807 0.186454
vt 0.115668 0.186454
vt 0.062257 0.116123
vt 0.121416 0.056964
vt 0.023319 0.357315
vt 0.177132 0.152232
vt 0.177132 0.357315
vt 0.638061 0.234367
vt 0.791873 0.029283
vt 0.791873 0.234367
vt 0.638061 0.726160
vt 0.791873 0.521077
vt 0.791873 0.726160
vt 0.638061 0.849108
vt 0.791873 0.644025
vt 0.791873 0.849108
vt 0.515112 0.480264
vt 0.668925 0.275180
vt 0.668925 0.480264
vt 0.638061 0.480263
vt 0.791873 0.275180
vt 0.791873 0.480263
vt 0.730524 0.405104
vt 0.730524 0.596236
vt 0.269091 0.405104
vt 0.761009 0.480264
vt 0.914822 0.275180
vt 0.914822 0.480264
vt 0.515113 0.357315
vt 0.668925 0.152232
vt 0.668925 0.357315
vt 0.000000 0.000000
vt 0.914821 0.726160
vt 0.761009 0.521077
vt 0.914821 0.521077
vt 0.269216 0.972057
vt 0.423028 0.766973
vt 0.423028 0.972057
vt 0.023319 0.849108
vt 0.177132 0.644025
vt 0.177132 0.849108
vt 0.177132 0.357315
vt 0.023319 0.152232
vt 0.177132 0.152232
vt 0.392164 0.726160
vt 0.545977 0.521077
vt 0.545977 0.726160
vt 0.268914 0.638650
vt 0.154607 0.362690
vt 0.268914 0.362690
vt 0.146268 0.849108
vt 0.300080 0.644025
vt 0.300080 0.849108
vt 0.392164 0.726160
vt 0.545977 0.521077
vt 0.545977 0.726160
vt 0.726879 0.500670
vt 0.575498 0.652051
vt 0.575498 0.500670
vt 0.424117 0.803432
vt 0.424117 0.652051
vt 0.575498 0.197908
vt 0.424117 0.349289
vt 0.424117 0.197908
vt 0.272736 0.500670
vt 0.272736 0.652051
vt 0.424117 0.500670
vt 0.575498 0.349289
vt 0.430184 0.447345
vt 0.507957 0.369572
vt 0.507957 0.447345
vt 0.898553 0.818322
vt 0.817460 0.899415
vt 0.249807 0.737229
vt 0.023319 0.152232
vt 0.638061 0.029283
vt 0.638061 0.521077
vt 0.638061 0.644025
vt 0.515112 0.275180
vt 0.638061 0.275180
vt 0.595373 0.731387
vt 0.404242 0.731387
vt 0.269091 0.596236
vt 0.404242 0.269953
vt 0.595373 0.269953
vt 0.761009 0.275180
vt 0.515113 0.152232
vt 0.166242 0.999959
vt 0.000041 0.000041
vt 0.166242 0.000041
vt 0.908899 0.500670
vt 0.704353 0.500670
vt 0.704353 0.006853
vt 0.499807 0.500670
vt 0.761009 0.726160
vt 0.269216 0.766973
vt 0.023319 0.644025
vt 0.023319 0.357315
vt 0.392164 0.521077
vt 0.154607 0.638650
vt 0.146268 0.644025
vt 0.392164 0.521077
vt 0.726879 0.652051
vt 0.575498 0.803432
vt 0.430184 0.369572
vt 0.499807 0.500670
vt 0.986367 0.500670
vt 0.499807 0.987229
vt 0.736367 0.250670
vt 0.499807 0.006853
vt 0.993624 0.296125
vt 0.473173 0.562144
vt 0.704916 0.495932
vt 0.704916 0.628356
vt 0.473173 0.628356
vt 0.700233 0.984540
vt 0.499808 0.901521
vt 0.499808 0.500670
vt 0.000048 0.000049
vt 0.235318 0.000048
vt 0.235318 0.828395
vt 0.000073 0.999927
vt 0.535467 0.000073
vt 0.535467 0.999927
vt 0.000041 0.999959
vt 0.166242 0.000041
vt 0.166242 0.999959
vt 0.000073 0.000073
vt 0.535467 0.999927
vt 0.000073 0.999927
vt 0.000049 0.171604
vt 0.117683 0.000048
vt 0.235318 0.171605
vt 0.000041 0.999959
vt 0.993624 0.500670
vt 0.473173 0.495932
vt 0.499807 0.984540
vt 0.235318 0.999952
vt 0.117683 0.999952
vt 0.000049 0.999952
vt 0.000073 0.000073
vt 0.000041 0.000041
vt 0.000049 0.000048
vt 0.235318 0.000048
vt 0.235318 0.999951
vt 0.000048 0.585778
vt 0.000049 0.999951
s 0
usemtl ionic_volute
f 11/1/1 13/2/1 15/3/1
f 28/4/2 26/5/2 34/6/2
f 15/3/1 1/7/1 3/8/1
f 3/8/1 5/9/1 15/3/1
f 5/9/1 7/10/1 15/3/1
f 7/10/1 9/11/1 15/3/1
f 9/11/1 11/1/1 15/3/1
f 26/5/2 24/12/2 22/13/2
f 22/13/2 36/14/2 26/5/2
f 36/14/2 34/6/2 26/5/2
f 34/6/2 32/15/2 30/16/2
f 30/16/2 28/4/2 34/6/2
usemtl ionic_egg
f 73/17/3 19/18/3 74/19/3
f 20/20/4 17/21/4 19/22/4
f 54/23/4 52/24/4 51/25/4
f 51/26/5 47/27/5 54/28/5
f 46/29/6 53/30/6 45/31/6
f 51/32/7 52/33/7 46/34/7
f 47/35/8 49/36/8 45/37/8
f 61/38/9 57/39/9 64/40/9
f 56/41/10 63/42/10 55/43/10
f 20/50/3 73/17/3 76/51/3
f 20/20/4 18/52/4 17/21/4
f 54/23/4 53/53/4 52/24/4
f 51/26/5 48/54/5 47/27/5
f 46/29/6 52/55/6 53/30/6
f 50/56/7 48/57/15 46/34/7
f 48/57/16 51/32/7 46/34/7
f 45/37/8 53/58/8 54/59/8
f 54/59/8 47/35/8 45/37/8
f 61/38/9 58/60/9 57/39/9
f 56/41/10 62/61/10 63/42/10
f 59/45/27 48/91/28 50/56/29
f 65/171/53 17/172/40 18/173/40
f 18/173/40 68/174/54 65/171/55
f 20/50/3 19/18/3 73/17/3
f 65/171/69 66/195/70 17/172/40
usemtl ionic_capital
f 57/44/11 59/45/12 55/46/8
f 69/47/13 68/48/14 18/49/7
f 55/46/8 63/62/8 64/63/8
f 64/63/8 57/44/17 55/46/8
f 2/64/18 3/65/18 1/66/18
f 4/67/19 5/68/19 3/69/19
f 6/70/20 7/71/20 5/72/20
f 8/73/21 9/74/21 7/75/21
f 10/76/22 11/77/22 9/78/22
f 12/79/23 13/80/23 11/81/23
f 8/82/24 6/83/24 14/84/24
f 14/85/25 15/86/25 13/87/25
f 16/88/26 1/89/26 15/90/26
f 21/92/30 24/93/30 23/94/30
f 24/95/31 25/96/31 23/97/31
f 26/98/32 27/99/32 25/100/32
f 27/101/33 30/102/33 29/103/33
f 30/104/34 31/105/34 29/106/34
f 32/107/35 33/108/35 31/109/35
f 34/110/36 35/111/36 33/112/36
f 36/113/37 21/114/37 35/115/37
f 33/82/38 35/83/38 27/84/38
f 41/116/7 39/117/7 37/118/7
f 39/117/29 44/119/29 40/120/29
f 43/121/39 42/122/39 44/123/39
f 42/124/8 40/120/8 44/125/8
f 37/118/40 40/120/40 38/126/40
f 41/127/3 38/126/3 42/122/3
f 64/128/4 62/129/4 61/130/4
f 61/131/7 62/132/7 56/133/7
f 2/64/18 4/134/18 3/65/18
f 4/67/19 6/135/19 5/68/19
f 6/70/20 8/136/20 7/71/20
f 8/73/21 10/137/21 9/74/21
f 10/76/22 12/138/22 11/77/22
f 12/79/23 14/139/23 13/80/23
f 6/83/24 4/140/24 2/141/24
f 2/141/24 16/142/24 6/83/24
f 16/142/24 14/84/24 6/83/24
f 14/84/24 12/143/24 10/144/24
f 10/144/24 8/82/24 14/84/24
f 14/85/25 16/145/25 15/86/25
f 16/88/26 2/146/26 1/89/26
f 60/147/41 57/148/42 58/149/43
f 71/150/44 72/151/45 19/152/8
f 72/151/46 70/153/47 19/152/8
f 21/92/30 22/154/30 24/93/30
f 24/95/31 26/155/31 25/96/31
f 26/98/32 28/156/32 27/99/32
f 27/101/33 28/157/33 30/102/33
f 30/104/34 32/158/34 31/105/34
f 32/107/35 34/159/35 33/108/35
f 34/110/36 36/160/36 35/111/36
f 36/113/37 22/161/37 21/114/37
f 35/83/38 21/140/38 23/141/38
f 23/141/38 25/142/38 35/83/38
f 25/142/38 27/84/38 35/83/38
f 27/84/38 29/143/38 31/144/38
f 31/144/38 33/82/38 27/84/38
f 41/116/7 43/162/7 39/117/7
f 39/117/29 43/163/29 44/119/29
f 43/121/39 41/127/39 42/122/39
f 42/124/8 38/126/8 40/120/8
f 37/118/40 39/117/40 40/120/40
f 41/127/3 37/118/3 38/126/3
f 64/128/4 63/164/4 62/129/4
f 60/165/48 58/166/49 56/167/7
f 58/168/50 61/131/7 56/133/7
f 74/169/8 19/152/8 70/153/51
f 17/170/8 71/150/52 19/152/8
f 20/175/7 75/176/7 18/49/7
f 18/49/7 67/177/56 69/47/57
f 70/178/58 67/179/59 75/180/39
f 45/181/39 50/182/39 46/183/39
f 55/184/39 60/185/60 56/186/39
f 47/187/29 50/188/29 49/189/29
f 71/190/61 65/191/62 69/192/63
f 60/147/64 59/193/65 57/148/66
f 17/170/8 66/194/67 71/150/68
f 20/175/7 76/196/7 75/176/7
f 18/49/7 75/176/7 67/177/71
f 75/180/39 76/197/39 73/198/39
f 73/198/39 74/199/39 75/180/39
f 74/199/39 70/178/72 75/180/39
f 45/181/39 49/200/39 50/182/39
f 55/184/39 59/201/73 60/185/74
f 47/187/29 48/182/29 50/188/29
f 71/190/75 66/202/76 65/191/77
f 65/191/78 68/203/79 69/192/80
f 69/192/81 67/204/82 72/205/83
f 67/204/84 70/206/85 72/205/86
f 72/205/87 71/190/88 69/192/89
