# Blender 5.1.2
# www.blender.org
mtllib giant_composite_capital.mtl
o composite
v 0.995887 0.529646 1.108675
v 0.995896 0.484653 1.243566
v 0.819260 0.596763 1.131074
v 0.819270 0.551770 1.265965
v 0.747303 0.761559 1.186047
v 0.747312 0.716565 1.320938
v 0.822167 0.927498 1.241392
v 0.822177 0.882504 1.376283
v 0.999998 0.997375 1.264688
v 1.000007 0.952382 1.399579
v 0.519001 0.285562 1.161231
v 0.519001 0.547137 1.161231
v -0.161237 0.285562 0.480993
v -0.161237 0.547137 0.480993
v -0.242295 0.930258 0.176625
v -0.377186 0.885265 0.176633
v -0.187322 0.765463 0.248582
v -0.322213 0.720469 0.248591
v -0.131977 0.599524 0.173719
v -0.266868 0.554531 0.173727
v -0.264693 0.997376 -0.000002
v -0.399584 0.952382 0.000007
v -0.162573 0.452337 1.434225
v -0.298677 0.452337 1.142366
v -0.291921 0.107779 1.494544
v -0.428024 0.107779 1.202685
v -0.162573 -0.236778 1.434225
v -0.298676 -0.236778 1.142366
v 0.149699 -0.379498 1.288603
v 0.013596 -0.379498 0.996744
v 0.461971 -0.236778 1.142980
v 0.325868 -0.236778 0.851121
v 0.591318 0.107779 1.082661
v 0.455215 0.107779 0.790802
v 0.461971 0.452337 1.142980
v 0.325868 0.452337 0.851121
v 0.149699 0.595057 1.288603
v 0.013596 0.595057 0.996744
v 0.505932 -0.319074 0.767152
v 0.642035 -0.319074 1.059011
v 0.771382 0.025483 0.998692
v 0.635279 0.025483 0.706833
v -0.136631 0.452335 1.304388
v -0.428497 0.452335 1.168297
v -0.196945 0.107778 1.433738
v -0.488810 0.107778 1.297647
v -0.136632 -0.236780 1.304388
v -0.428497 -0.236780 1.168298
v 0.008977 -0.379500 0.992109
v -0.282888 -0.379500 0.856019
v 0.154586 -0.236780 0.679831
v -0.137279 -0.236780 0.543740
v 0.214899 0.107778 0.550481
v -0.076966 0.107778 0.414390
v 0.154586 0.452335 0.679831
v -0.137279 0.452335 0.543740
v 0.008977 0.595055 0.992109
v -0.282888 0.595056 0.856019
v -0.053317 -0.319076 0.363673
v 0.238548 -0.319076 0.499763
v 0.298861 0.025482 0.370413
v 0.006996 0.025482 0.234323
v -0.291319 0.802470 0.000000
v -0.291319 1.000126 0.000000
v 1.000000 1.000126 1.291319
v 1.000000 0.802470 1.291319
v 1.000000 0.520530 0.000001
v 1.000000 1.000126 0.000000
v -0.672641 1.000126 1.537831
v -0.537831 1.000126 1.672642
v -0.537831 0.802470 1.672642
v -0.672641 0.802470 1.537831
v -0.044047 0.802470 0.000001
v 1.000000 0.802470 1.044047
v -0.352350 0.802470 1.243355
v -0.243354 0.802470 1.352351
v -0.044047 0.520530 0.000001
v 1.000000 0.520530 1.044047
v -0.352350 0.520530 1.243355
v -0.243354 0.520530 1.352351
v 0.513016 -1.944952 1.175679
v 0.513016 -1.701651 1.175679
v -0.175682 -1.944952 0.486980
v -0.175682 -1.701651 0.486980
v 0.513016 -1.701651 1.175679
v -0.175682 -1.701651 0.486980
v 0.581260 -1.701651 1.010925
v -0.010928 -1.701651 0.418737
v 0.474801 -0.911026 1.267938
v -0.267942 -0.911026 0.525195
v 0.594521 -0.911026 0.978909
v 0.021087 -0.911026 0.405475
v 0.473642 -0.183651 1.270736
v -0.270740 -0.183651 0.526354
v 0.570211 -0.183651 1.037598
v -0.037602 -0.183651 0.429785
v 0.523083 0.543724 1.151376
v -0.151380 0.543724 0.476914
v -0.161237 0.285562 -0.000000
v -0.161237 0.547137 -0.000000
v -0.109219 0.531262 -0.000000
v -0.244109 0.486265 -0.000000
v -0.175682 -1.944952 0.000000
v -0.175682 -1.701651 0.000000
v -0.175682 -1.701651 0.000000
v -0.010929 -1.701651 -0.000000
v -0.267942 -0.911026 0.000000
v 0.021087 -0.911026 0.000000
v -0.270740 -0.183651 -0.000000
v -0.037602 -0.183651 -0.000000
v -0.151380 0.543724 -0.000000
v 1.000000 0.531263 1.109214
v 1.000000 0.486266 1.244104
v 1.000000 0.285562 1.161231
v 1.000000 0.547137 1.161231
v 1.000000 -1.944952 1.175679
v 1.000000 -1.701651 1.175679
v 1.000000 -1.701651 1.175679
v 1.000000 -1.701651 1.010925
v 1.000000 -0.911026 1.267938
v 1.000000 -0.911026 0.978909
v 1.000000 -0.183651 1.270736
v 1.000000 -0.183651 1.037598
v 1.000000 0.543724 1.151376
v 1.000000 0.543724 -0.000000
v 1.000000 -1.944952 0.000000
v 1.000000 0.547137 -0.000000
v 1.000000 0.285562 -0.000000
vn 1.0000 -0.0000 -0.0000
vn 0.3827 -0.8764 -0.2924
vn -0.3719 -0.8806 -0.2937
vn -0.9239 -0.3630 -0.1210
vn -0.9193 0.3732 0.1246
vn 0.0001 -0.3164 0.9486
vn -0.3827 0.8764 0.2924
vn -0.0001 0.3164 -0.9486
vn -0.0000 -0.0000 1.0000
vn -0.7071 -0.0000 0.7071
vn -0.0000 1.0000 -0.0000
vn -0.1210 0.3630 0.9239
vn 0.1245 -0.3732 0.9193
vn -0.2937 0.8806 0.3719
vn -0.8373 0.3827 0.3905
vn -0.8373 -0.3827 0.3905
vn -0.3468 -0.9239 0.1617
vn 0.3468 -0.9239 -0.1617
vn -0.4226 -0.0000 -0.9063
vn 0.8373 0.3827 -0.3905
vn 0.3468 0.9239 -0.1617
vn -0.3468 0.9239 0.1617
vn 0.4226 -0.0000 0.9063
vn 0.8373 -0.3827 -0.3905
vn -0.3904 0.3827 0.8373
vn -0.3904 -0.3827 0.8373
vn -0.1617 -0.9239 0.3468
vn 0.1617 -0.9239 -0.3468
vn -0.9063 -0.0000 -0.4226
vn 0.3904 0.3827 -0.8373
vn 0.1617 0.9239 -0.3468
vn -0.1617 0.9239 0.3468
vn 0.9063 -0.0000 0.4226
vn 0.3904 -0.3827 -0.8373
vn -0.0000 -1.0000 -0.0000
vn -0.9706 -0.0000 -0.2407
vn 0.2407 -0.0000 0.9706
vn -0.9510 -0.3092 -0.0000
vn -0.6725 -0.3092 0.6725
vn -0.6563 -0.3724 0.6563
vn -0.9281 -0.3724 -0.0000
vn -0.9880 -0.1545 -0.0000
vn -0.6986 -0.1545 0.6986
vn -1.0000 -0.0000 -0.0000
vn -0.9486 -0.3164 0.0001
vn 0.2924 -0.8764 0.3827
vn 0.9486 0.3164 -0.0001
vn -0.0000 -0.1545 0.9880
vn -0.0000 -0.3724 0.9281
vn -0.0000 -0.3092 0.9510
vn -0.0000 -0.0000 -1.0000
vn -0.0001 -0.0000 -1.0000
vn 1.0000 -0.0000 -0.0001
vn -0.0000 -0.3164 0.9486
vt 0.153596 0.193513
vt 0.371314 0.196297
vt 0.368289 0.999939
vt 0.125000 0.683173
vt 0.000000 0.687500
vt 0.000000 0.683163
vt 1.000000 0.062500
vt 0.875000 0.250000
vt 0.875000 0.062500
vt 0.937500 0.625000
vt 0.812500 0.812500
vt 0.812500 0.625000
vt 0.375000 0.125000
vt 0.250000 0.312500
vt 0.250000 0.125000
vt 0.501313 0.364211
vt 0.363302 0.500923
vt 0.402687 0.403993
vt 0.250000 0.625000
vt 0.125000 0.812500
vt 0.125000 0.625000
vt 0.225283 0.000048
vt 0.000047 0.999953
vt 0.000047 0.000047
vt 0.624239 0.200060
vt 0.799940 0.375761
vt 0.200060 0.381508
vt 0.218749 0.500000
vt 0.000000 0.625000
vt 0.000000 0.500000
vt 0.687500 0.625000
vt 0.250000 0.500000
vt 0.687500 0.500000
vt 0.132815 0.652093
vt 0.499998 0.500000
vt 0.347907 0.867185
vt 0.812500 0.187500
vt 0.937500 0.375000
vt 0.812500 0.375000
vt 0.812500 0.437500
vt 0.687500 0.437500
vt 0.375000 0.437500
vt 0.250000 0.437500
vt 0.187500 0.375000
vt 0.062500 0.500000
vt 0.062500 0.375000
vt 0.750000 0.562500
vt 0.625000 0.687500
vt 0.625000 0.562500
vt 0.875000 0.500000
vt 0.750000 0.625000
vt 0.750000 0.500000
vt 0.625000 0.375000
vt 0.500000 0.500000
vt 0.500000 0.375000
vt 0.000100 0.292935
vt 0.000100 0.707065
vt 0.500000 0.312500
vt 0.625000 0.437500
vt 0.500000 0.437500
vt 0.292935 0.000100
vt 0.707065 0.000100
vt 0.437500 0.375000
vt 0.312500 0.500000
vt 0.312500 0.375000
vt 0.312500 0.437500
vt 0.187500 0.562500
vt 0.187500 0.437500
vt 0.498901 0.686172
vt 0.313828 0.498901
vt 0.501099 0.313828
vt 0.414228 0.999936
vt 0.000064 0.000064
vt 0.414228 0.000064
vt 0.000064 0.999936
vt 0.000064 0.000064
vt 0.414228 0.000064
vt 0.414228 0.999936
vt 0.062500 0.687500
vt 0.062500 0.812500
vt 0.687500 0.750000
vt 0.812500 0.875000
vt 0.687500 0.875000
vt 0.062500 0.062500
vt 0.187500 0.187500
vt 0.062500 0.187500
vt 0.312500 0.750000
vt 0.187500 0.875000
vt 0.187500 0.750000
vt 0.312500 0.187500
vt 0.437500 0.312500
vt 0.312500 0.312500
vt 0.125000 0.500000
vt 0.187500 0.500000
vt 0.062500 0.562500
vt 0.632420 0.630867
vt 0.630867 0.367579
vt 0.367579 0.369133
vt 0.500000 0.562500
vt 0.625000 0.500000
vt 0.799940 0.624239
vt 0.375761 0.200060
vt 0.715580 0.292719
vt 0.346163 0.312003
vt 0.346163 0.292719
vt 0.947413 0.624395
vt 0.416327 0.728749
vt 0.258566 0.624395
vt 0.815363 0.175857
vt 0.740394 0.364855
vt 0.732474 0.175857
vt 0.283650 0.025785
vt 0.971836 0.111808
vt 0.283650 0.111808
vt 0.021166 0.219527
vt 0.709351 0.305550
vt 0.021166 0.305550
vt 0.728597 0.141070
vt 0.835567 0.868385
vt 0.167110 0.702427
vt 0.215724 0.161927
vt 0.746809 0.266280
vt 0.189824 0.266271
vt 0.339861 0.794018
vt 0.205911 0.253327
vt 0.253392 0.205963
vt 0.194595 0.301313
vt 0.717180 0.170667
vt 0.717180 0.301313
vt 0.041466 0.860653
vt 0.564051 0.730007
vt 0.564051 0.860653
vt 0.225812 0.444291
vt 0.157834 0.565142
vt 0.157834 0.444291
vt 0.501691 0.733425
vt 0.924987 0.945073
vt 0.501691 0.945073
vt 0.068808 0.199910
vt 0.915399 0.411557
vt 0.068808 0.411557
vt 0.173852 0.640463
vt 0.704745 0.640463
vt 0.564300 0.577963
vt 0.829745 0.577963
vt 0.494549 0.098075
vt 0.146877 0.832132
vt 0.135916 0.098107
vt 0.025149 0.635279
vt 0.913868 0.762238
vt 0.088629 0.762238
vt 0.386286 0.260290
vt 0.798902 0.387250
vt 0.386286 0.387250
vt 0.125300 0.129460
vt 0.944699 0.863452
vt 0.045094 0.863452
vt 0.386877 0.247781
vt 0.669864 0.423918
vt 0.386865 0.423917
vt 0.258113 0.132430
vt 0.907652 0.308567
vt 0.341650 0.308566
vt 0.789032 0.144727
vt 0.031950 0.865034
vt 0.121803 0.144793
vt 0.817639 0.240749
vt 0.493618 0.961056
vt 0.484028 0.240782
vt 0.261512 0.886245
vt 0.605457 0.473508
vt 0.605457 0.886245
vt 0.046776 0.736862
vt 0.741503 0.873396
vt 0.117359 0.873465
vt 0.597120 0.455890
vt 0.909679 0.592425
vt 0.597611 0.592459
vt 0.001580 0.706983
vt 0.502191 0.499623
vt 0.294832 1.000235
vt 0.232829 0.837495
vt 0.691440 0.562328
vt 0.691440 0.837495
vt 0.056951 0.248205
vt 0.480244 0.036557
vt 0.480244 0.248205
vt 0.750924 0.324198
vt 0.751313 0.051711
vt 0.846007 0.090187
vt 0.187500 0.250000
vt 0.062500 0.433164
vt 0.062500 0.250000
vt 0.200060 0.624239
vt 0.200060 0.381507
vt 0.468753 0.500000
vt 0.918166 0.960681
vt 0.574218 0.547944
vt 0.918166 0.547944
vt 0.402519 0.080896
vt 0.090937 0.217499
vt 0.020354 0.080896
vt 0.601224 0.084564
vt 0.944428 0.804805
vt 0.511370 0.804805
vt 0.530922 0.574491
vt 0.247908 0.750627
vt 0.164371 0.574491
vt 0.333345 0.078802
vt 0.702941 0.812795
vt 0.253139 0.812795
vt 0.517244 0.803467
vt 0.104624 0.930427
vt 0.041144 0.803467
vt 0.298852 0.640463
vt 0.564299 0.640463
vt 0.500001 0.499999
vt 0.999900 0.292935
vt 0.999900 0.707065
vt 0.500001 0.499998
vt 0.652091 0.132820
vt 0.867180 0.347909
vt 0.077722 0.692682
vt 0.067513 0.744590
vt 0.000151 0.732225
vt 0.000347 0.047721
vt 0.067035 0.036443
vt 0.077839 0.087435
vt 0.000047 0.000047
vt 0.225282 0.999952
vt 0.000047 0.999952
vt 0.217779 0.193514
vt 0.371313 0.006206
vt 0.371313 0.997453
vt 0.000108 0.000115
vt 0.289439 0.999892
vt 0.000108 0.999893
vt 0.289654 0.999892
vt 0.578985 0.000116
vt 0.578985 0.999892
vt 0.000061 0.997454
vt 0.000061 0.006206
vt 0.148678 0.000061
vt 0.125000 0.687500
vt 1.000000 0.250000
vt 0.937500 0.812500
vt 0.375000 0.312500
vt 0.499076 0.363302
vt 0.500924 0.636698
vt 0.403993 0.597313
vt 0.250000 0.812500
vt 0.225283 0.999953
vt 0.200060 0.375761
vt 0.218749 0.625000
vt 0.132815 0.500000
vt 0.499998 0.867185
vt 0.937500 0.187500
vt 0.375000 0.625000
vt 0.750000 0.687500
vt 0.875000 0.625000
vt 0.625000 0.312500
vt 0.999900 0.292934
vt 0.999900 0.707065
vt 0.707065 0.999900
vt 0.292935 0.999900
vt 0.437500 0.500000
vt 0.312500 0.562500
vt 0.632421 0.369133
vt 0.686172 0.501098
vt 0.630867 0.632420
vt 0.367580 0.630867
vt 0.369133 0.367579
vt 0.000064 0.999936
vt 0.812500 0.750000
vt 0.187500 0.062500
vt 0.312500 0.875000
vt 0.437500 0.187500
vt 0.125000 0.375000
vt 0.187500 0.687500
vt 0.686172 0.498901
vt 0.498901 0.313828
vt 0.313828 0.501098
vt 0.369133 0.632420
vt 0.501098 0.686172
vt 0.624239 0.799940
vt 0.375761 0.799940
vt 0.715580 0.312003
vt 0.973313 0.728740
vt 0.807415 0.364865
vt 0.971836 0.025785
vt 0.709351 0.219527
vt 0.167110 0.141048
vt 0.894283 0.809801
vt 0.904570 0.161927
vt 0.793838 0.340158
vt 0.793838 0.794037
vt 0.194595 0.170667
vt 0.041466 0.730007
vt 0.225812 0.565142
vt 0.924987 0.733425
vt 0.915399 0.199910
vt 0.596676 0.832132
vt 0.977347 0.635279
vt 0.862381 0.260290
vt 0.842571 0.129396
vt 0.753425 0.247781
vt 0.991213 0.132430
vt 0.898065 0.865034
vt 0.926672 0.961056
vt 0.261512 0.473508
vt 0.811105 0.736862
vt 0.979282 0.455890
vt 0.001580 0.499623
vt 0.502191 1.000235
vt 0.232829 0.562328
vt 0.056951 0.036557
vt 0.886698 0.186576
vt 0.847313 0.283507
vt 0.187500 0.433173
vt 0.468753 0.625000
vt 0.574218 0.960681
vt 0.403009 0.217465
vt 0.934838 0.084531
vt 0.530910 0.750627
vt 0.691981 0.078770
vt 0.517244 0.930427
vt 0.853484 0.853481
vt 0.853482 0.146517
vt 0.867180 0.499998
vt 0.500001 0.132820
vt 0.753824 0.390121
vt 0.770962 0.727445
vt 0.546256 0.705899
vt 0.549626 0.776446
vt 0.322230 0.692767
vt 0.315678 0.780019
vt 0.017629 0.390054
vt 0.069131 0.744320
vt 0.546317 0.074305
vt 0.771021 0.052790
vt 0.315766 0.000151
vt 0.322305 0.087405
vt 0.549692 0.003758
vt 0.067851 0.036151
vt 0.225282 0.000047
vt 0.003086 0.999939
vt 0.000061 0.196298
vt 0.222696 0.000061
vt 0.289439 0.000108
vt 0.289654 0.000108
s 0
usemtl corinthian
f 113/4/2 1/5/2 112/6/2
f 2/7/3 3/8/3 1/9/3
f 4/10/4 5/11/4 3/12/4
f 6/13/5 7/14/5 5/15/5
f 113/16/6 6/17/6 4/18/6
f 8/19/7 9/20/7 7/21/7
f 5/25/8 7/26/8 112/27/8
f 15/37/12 18/38/12 17/39/12
f 18/40/13 19/31/13 17/41/13
f 22/42/14 15/19/14 21/43/14
f 32/56/19 42/57/19 39/56/19
f 32/56/19 30/61/19 28/62/19
f 39/72/24 41/73/24 40/74/24
f 32/75/17 40/76/17 31/76/17
f 33/77/21 42/78/21 34/78/21
f 53/25/33 55/26/33 57/101/33
f 59/72/34 61/73/34 60/74/34
f 52/75/27 60/76/27 51/76/27
f 53/77/31 62/78/31 54/78/31
f 51/102/33 61/25/33 53/25/33
f 84/142/6 85/143/6 86/142/6
f 104/144/6 86/145/6 105/144/6
f 88/146/38 107/147/38 106/148/38
f 88/155/39 89/156/39 90/157/39
f 107/158/11 92/159/11 108/160/11
f 90/161/11 91/162/11 92/163/11
f 91/164/40 94/165/40 92/166/40
f 92/167/41 109/168/41 108/169/41
f 94/173/11 95/174/11 96/175/11
f 109/176/11 96/177/11 110/178/11
f 97/179/11 125/180/11 98/181/11
f 22/188/45 102/189/45 20/190/45
f 20/191/46 101/192/46 19/193/46
f 19/194/47 101/195/47 21/101/47
f 122/200/11 95/201/11 93/202/11
f 91/203/49 122/204/49 93/205/49
f 120/206/11 91/207/11 89/208/11
f 87/209/50 120/210/50 89/211/50
f 82/215/6 118/216/6 85/215/6
f 113/4/2 2/244/2 1/5/2
f 2/7/3 4/245/3 3/8/3
f 4/10/4 6/246/4 5/11/4
f 6/13/5 8/247/5 7/14/5
f 2/248/54 113/16/54 4/18/54
f 113/16/6 10/249/6 8/250/6
f 8/250/6 6/17/6 113/16/6
f 8/19/7 10/251/7 9/20/7
f 7/26/8 9/101/8 112/27/8
f 112/27/8 1/253/8 3/102/8
f 3/102/8 5/25/8 112/27/8
f 15/37/12 16/257/12 18/38/12
f 18/40/13 20/12/13 19/31/13
f 22/42/14 16/258/14 15/19/14
f 32/56/19 34/57/19 42/57/19
f 28/62/19 26/262/19 24/263/19
f 24/263/19 38/264/19 28/62/19
f 38/264/19 36/265/19 28/62/19
f 36/265/19 34/57/19 28/62/19
f 34/57/19 32/56/19 28/62/19
f 39/72/24 42/273/24 41/73/24
f 32/75/17 39/75/17 40/76/17
f 33/77/21 41/77/21 42/78/21
f 57/101/33 43/285/33 45/286/33
f 45/286/33 47/194/33 57/101/33
f 47/194/33 49/253/33 57/101/33
f 49/253/33 51/102/33 57/101/33
f 51/102/33 53/25/33 57/101/33
f 59/72/34 62/273/34 61/73/34
f 52/75/27 59/75/27 60/76/27
f 53/77/31 61/77/31 62/78/31
f 51/102/33 60/102/33 61/25/33
f 84/142/6 82/143/6 85/143/6
f 104/144/6 84/145/6 86/145/6
f 88/146/38 90/302/38 107/147/38
f 88/155/39 87/305/39 89/156/39
f 107/158/11 90/306/11 92/159/11
f 90/161/11 89/307/11 91/162/11
f 91/164/40 93/308/40 94/165/40
f 92/167/41 94/309/41 109/168/41
f 94/173/11 93/311/11 95/174/11
f 109/176/11 94/312/11 96/177/11
f 124/313/11 125/180/11 97/179/11
f 125/180/11 111/314/11 98/181/11
f 20/190/45 18/317/45 16/318/45
f 16/318/45 22/188/45 20/190/45
f 20/191/46 102/319/46 101/192/46
f 21/101/47 15/285/47 17/286/47
f 17/286/47 19/194/47 21/101/47
f 122/200/11 123/322/11 95/201/11
f 91/203/49 121/323/49 122/204/49
f 120/206/11 121/324/11 91/207/11
f 87/209/50 119/325/50 120/210/50
f 82/215/6 117/216/6 118/216/6
usemtl volute
f 29/69/23 33/70/23 37/71/23
f 48/96/29 44/97/29 56/98/29
f 37/71/23 23/268/23 25/269/23
f 25/269/23 27/270/23 37/71/23
f 27/270/23 29/69/23 37/71/23
f 29/69/23 31/271/23 33/70/23
f 33/70/23 35/272/23 37/71/23
f 48/96/29 46/280/29 44/97/29
f 44/97/29 58/281/29 56/98/29
f 56/98/29 54/282/29 52/283/29
f 52/283/29 50/284/29 56/98/29
f 50/284/29 48/96/29 56/98/29
usemtl base
f 74/1/1 78/2/1 67/3/1
f 127/22/1 114/23/1 128/24/1
f 12/34/11 127/35/11 14/36/11
f 24/44/15 25/45/15 23/46/15
f 26/47/16 27/48/16 25/49/16
f 28/50/17 29/51/17 27/52/17
f 30/53/18 31/54/18 29/55/18
f 33/58/20 36/59/20 35/60/20
f 36/63/21 37/64/21 35/65/21
f 38/66/22 23/67/22 37/68/22
f 31/79/23 41/20/23 33/80/23
f 43/81/25 46/82/25 45/83/25
f 45/84/26 48/85/26 47/86/26
f 48/87/27 49/88/27 47/89/27
f 49/90/28 52/91/28 51/92/28
f 52/93/29 62/44/29 59/94/29
f 54/67/30 55/79/30 53/95/30
f 56/59/31 57/99/31 55/60/31
f 57/55/32 44/100/32 43/54/32
f 70/103/10 72/104/10 71/105/10
f 63/106/35 75/107/35 72/108/35
f 72/109/35 76/110/35 71/111/35
f 69/112/36 63/113/36 72/114/36
f 65/115/37 71/116/37 66/117/37
f 64/118/11 70/119/11 65/120/11
f 66/121/35 76/122/35 74/123/35
f 78/124/35 80/125/35 79/126/35
f 73/127/36 79/128/36 75/129/36
f 76/130/37 78/131/37 74/132/37
f 75/133/10 80/134/10 76/135/10
f 117/136/9 81/137/9 116/138/9
f 82/139/10 83/140/10 81/141/10
f 86/149/11 87/150/11 88/151/11
f 105/152/11 88/153/11 106/154/11
f 96/170/42 111/171/42 110/172/42
f 95/182/43 98/183/43 96/184/43
f 83/185/44 104/186/44 103/187/44
f 95/197/48 124/198/48 97/199/48
f 118/212/11 87/213/11 85/214/11
f 126/217/35 81/218/35 83/219/35
f 128/220/35 11/221/35 13/222/35
f 119/223/1 117/224/1 116/225/1
f 103/226/51 104/227/51 106/228/51
f 99/229/51 127/230/51 128/231/51
f 73/232/51 64/233/51 68/234/51
f 101/235/52 22/236/52 21/237/52
f 10/238/53 112/239/53 9/240/53
f 67/3/1 68/241/1 74/1/1
f 68/241/1 65/242/1 74/1/1
f 65/242/1 66/243/1 74/1/1
f 127/22/1 115/252/1 114/23/1
f 115/255/11 127/35/11 12/34/11
f 127/35/11 100/256/11 14/36/11
f 24/44/15 26/94/15 25/45/15
f 26/47/16 28/259/16 27/48/16
f 28/50/17 30/260/17 29/51/17
f 30/53/18 32/100/18 31/54/18
f 33/58/20 34/261/20 36/59/20
f 36/63/21 38/266/21 37/64/21
f 38/66/22 24/267/22 23/67/22
f 31/79/23 40/244/23 41/20/23
f 43/81/25 44/274/25 46/82/25
f 45/84/26 46/275/26 48/85/26
f 48/87/27 50/276/27 49/88/27
f 49/90/28 50/277/28 52/91/28
f 52/93/29 54/278/29 62/44/29
f 54/67/30 56/279/30 55/79/30
f 56/59/31 58/49/31 57/99/31
f 57/55/32 58/53/32 44/100/32
f 70/103/10 69/287/10 72/104/10
f 63/106/35 73/288/35 75/107/35
f 72/109/35 75/289/35 76/110/35
f 69/112/36 64/290/36 63/113/36
f 65/115/37 70/291/37 71/116/37
f 65/120/11 68/292/11 64/118/11
f 64/118/11 69/293/11 70/119/11
f 66/121/35 71/294/35 76/122/35
f 79/126/35 77/295/35 78/124/35
f 77/295/35 67/296/35 78/124/35
f 73/127/36 77/297/36 79/128/36
f 76/130/37 80/298/37 78/131/37
f 75/133/10 79/299/10 80/134/10
f 117/136/9 82/300/9 81/137/9
f 82/139/10 84/301/10 83/140/10
f 86/149/11 85/303/11 87/150/11
f 105/152/11 86/304/11 88/153/11
f 96/170/42 98/310/42 111/171/42
f 95/182/43 97/315/43 98/183/43
f 83/185/44 84/316/44 104/186/44
f 95/197/48 123/321/48 124/198/48
f 118/212/11 119/326/11 87/213/11
f 83/219/35 103/327/35 126/217/35
f 126/217/35 116/328/35 81/218/35
f 13/222/35 99/329/35 128/220/35
f 128/220/35 114/330/35 11/221/35
f 125/331/1 124/332/1 123/333/1
f 123/333/1 122/334/1 121/335/1
f 121/335/1 120/336/1 119/223/1
f 125/331/1 123/333/1 121/335/1
f 125/331/1 121/335/1 126/337/1
f 121/335/1 119/223/1 126/337/1
f 116/225/1 126/337/1 119/223/1
f 119/223/6 118/338/6 117/224/6
f 110/339/51 111/340/51 125/331/51
f 106/228/51 107/341/51 108/342/51
f 108/342/51 109/343/51 110/339/51
f 110/339/51 125/331/51 108/342/51
f 125/331/51 126/337/51 108/342/51
f 106/228/51 108/342/51 126/337/51
f 106/228/51 126/337/51 103/226/51
f 104/227/6 105/344/6 106/228/6
f 99/229/51 100/345/51 127/230/51
f 68/234/51 67/346/51 73/232/51
f 67/346/51 77/347/51 73/232/51
f 73/232/51 63/348/51 64/233/51
f 101/235/51 102/349/51 22/236/51
f 10/238/1 113/350/1 112/239/1
usemtl ionic
f 114/28/9 12/29/9 11/30/9
f 12/31/10 13/32/10 11/33/10
f 14/31/44 99/196/44 13/33/44
f 114/28/9 115/254/9 12/29/9
f 12/31/10 14/19/10 13/32/10
f 14/31/44 100/320/44 99/196/44
