# Blender 5.1.1
# www.blender.org
mtllib giant_ionic_base.mtl
o ionic_base_giant
v 0.487412 0.825001 1.237500
v 0.487412 1.100000 1.237500
v -0.237499 0.825001 0.512590
v -0.237499 1.100000 0.512590
v 0.430454 0.000001 1.375010
v 0.430454 0.275001 1.375010
v -0.375009 0.000001 0.569548
v -0.375009 0.275001 0.569548
v 0.487412 0.550001 1.237500
v 0.487412 0.825001 1.237500
v -0.237499 0.550001 0.512590
v -0.237499 0.825001 0.512590
v 0.544366 0.275000 1.100001
v 0.544366 0.550000 1.100001
v -0.099999 0.275000 0.455635
v -0.099999 0.550000 0.455635
v 1.000001 0.825001 1.237500
v 1.000001 0.550001 1.237500
v 1.000001 0.825001 1.237500
v 1.000001 0.275000 1.100001
v 1.000001 0.550000 1.100001
v 1.000001 0.000001 1.375010
v 1.000001 0.275001 1.375010
v 1.000001 0.000001 1.375000
v -0.374999 0.000001 0.000000
v 1.000001 0.000001 0.000000
v -0.375009 0.000001 0.000000
v -0.099999 0.275000 0.000000
v -0.099999 0.550000 0.000000
v -0.237499 0.550001 0.000000
v -0.237499 0.825001 0.000000
v -0.237499 0.825001 0.000000
v -0.237499 1.100000 0.000000
v -0.375009 0.275001 0.000000
v 1.000001 0.275001 0.000000
v 1.000001 1.100000 1.237500
v 1.000001 1.100000 0.000000
v 1.000001 1.100000 0.000000
v 1.000001 1.100000 0.000000
vn -0.0000 -0.0000 1.0000
vn -0.7071 -0.0000 0.7071
vn -1.0000 -0.0000 -0.0000
vn -0.0000 -1.0000 -0.0000
vn -0.8840 -0.4675 -0.0000
vn -0.0000 1.0000 -0.0000
vn -0.0000 -0.0000 -1.0000
vn 1.0000 -0.0000 -0.0000
vn 0.0658 -0.9978 -0.0000
vn -0.0000 -0.9977 -0.0678
vt 0.437500 0.500000
vt 0.250000 0.875000
vt 0.250000 0.500000
vt 0.687500 0.250000
vt 0.500000 0.937500
vt 0.500000 0.250000
vt 0.937500 0.250000
vt 0.750000 0.625000
vt 0.750000 0.250000
vt 0.187500 0.000000
vt 0.000000 0.750000
vt 0.000000 0.000000
vt 0.750000 0.937500
vt 0.750000 0.375000
vt 0.562500 0.750000
vt 0.562500 0.375000
vt 0.562500 0.000000
vt 0.375000 0.625000
vt 0.375000 0.000000
vt 0.375000 0.750000
vt 0.375000 0.375000
vt 0.437500 0.000000
vt 0.250000 0.375000
vt 0.250000 0.000000
vt 0.999493 0.414062
vt 0.414062 0.999493
vt 0.000100 0.000100
vt 0.307131 0.792861
vt 0.165721 0.734287
vt 0.165721 0.265713
vt 0.414228 0.000064
vt 0.414228 0.000064
vt 0.000064 0.999936
vt 0.187500 1.000000
vt 0.000000 1.000000
vt 0.000000 0.812500
vt 0.187500 0.812500
vt 0.250000 0.125000
vt 0.437500 0.125000
vt 0.998901 0.998901
vt 0.998896 0.999900
vt 0.000100 0.998901
vt 0.437500 0.875000
vt 0.687500 0.937500
vt 0.937500 0.625000
vt 0.187500 0.750000
vt 0.937500 0.937500
vt 0.750000 0.750000
vt 0.562500 0.625000
vt 0.437500 0.375000
vt 0.000100 0.999900
vt 0.000100 0.999486
vt 0.999486 0.000100
vt 0.999900 0.000100
vt 0.100047 0.000055
vt 0.307131 0.207139
vt 0.100047 0.999945
vt 0.000055 0.899953
vt 0.000056 0.100047
vt 0.207146 0.999936
vt 0.207146 0.000064
vt 0.207146 0.000064
vt 0.000064 0.999936
vt 0.207146 0.999936
vt 0.687500 0.000000
vt 0.687500 1.000000
vt 0.000000 0.125000
vt 0.687500 0.125000
vt 0.000100 0.585184
vt 0.585184 0.000100
vt 0.998901 0.000100
s 0
usemtl all
f 36/1/1 1/2/1 17/3/1
f 2/4/2 3/5/2 1/6/2
f 23/7/1 5/8/1 22/9/1
f 6/10/2 7/11/2 5/12/2
f 19/7/1 9/8/1 18/9/1
f 10/7/2 11/13/2 9/9/2
f 21/14/1 13/15/1 20/16/1
f 14/17/2 15/18/2 13/19/2
f 8/1/3 27/2/3 7/3/3
f 16/14/3 28/15/3 15/16/3
f 12/16/3 30/20/3 11/21/3
f 4/22/3 32/23/3 3/24/3
f 5/25/4 7/26/4 26/27/4
f 23/12/5 35/12/5 20/12/5
f 6/28/6 13/29/6 15/30/6
f 9/31/4 11/32/4 14/33/4
f 25/34/7 34/35/7 28/36/7
f 26/12/8 35/10/8 20/37/8
f 29/38/7 30/24/7 32/22/7
f 17/24/8 18/22/8 21/39/8
f 37/40/6 38/41/6 33/42/6
f 36/1/1 2/43/1 1/2/1
f 2/4/2 4/44/2 3/5/2
f 23/7/1 6/45/1 5/8/1
f 6/10/2 8/46/2 7/11/2
f 19/7/1 10/45/1 9/8/1
f 10/7/2 12/47/2 11/13/2
f 21/14/1 14/48/1 13/15/1
f 14/17/2 16/49/2 15/18/2
f 8/1/3 34/43/3 27/2/3
f 16/14/3 29/48/3 28/15/3
f 12/16/3 31/15/3 30/20/3
f 4/22/3 33/50/3 32/23/3
f 7/26/9 27/51/9 25/52/9
f 25/52/4 26/27/4 7/26/4
f 26/27/4 24/53/4 5/25/4
f 24/53/10 22/54/10 5/25/10
f 34/55/6 8/56/6 15/30/6
f 8/56/6 6/28/6 15/30/6
f 6/28/6 23/57/6 13/29/6
f 23/57/6 20/58/6 13/29/6
f 15/30/6 28/59/6 34/55/6
f 21/60/4 18/61/4 14/33/4
f 18/61/4 9/31/4 14/33/4
f 11/32/4 30/62/4 16/63/4
f 30/62/4 29/64/4 16/63/4
f 11/32/4 16/63/4 14/33/4
f 28/36/7 35/12/7 26/10/7
f 25/34/7 27/34/7 34/35/7
f 28/36/7 26/10/7 25/34/7
f 20/37/8 23/34/8 24/35/8
f 23/34/8 22/35/8 24/35/8
f 24/35/8 26/12/8 20/37/8
f 33/65/7 38/66/7 29/38/7
f 38/66/7 35/35/7 29/38/7
f 35/35/7 28/67/7 29/38/7
f 30/24/3 31/22/3 32/22/3
f 32/22/7 33/65/7 29/38/7
f 21/39/8 20/68/8 35/66/8
f 38/35/6 37/35/6 36/12/6
f 21/39/8 35/66/8 38/35/8
f 21/39/8 38/35/8 17/24/8
f 38/35/8 36/12/8 17/24/8
f 17/24/6 19/24/6 18/22/6
f 4/69/6 2/70/6 37/40/6
f 2/70/6 36/71/6 37/40/6
f 33/42/6 4/69/6 37/40/6
l 38 39
l 37 39
