# Blender 5.1.2
# www.blender.org
mtllib giant_greek_corinthian_capital.mtl
o corinthian
v -0.411646 0.801250 -0.000000
v -0.411646 1.000000 -0.000000
v 1.000000 1.000000 1.411646
v 1.000000 0.801250 1.411646
v 1.000000 0.517750 0.000001
v 1.000000 1.000000 -0.000000
v -0.828500 1.000000 1.681128
v -0.681128 1.000000 1.828500
v -0.681128 0.801250 1.828500
v -0.828500 0.801250 1.681128
v -0.141332 0.801250 0.000001
v 1.000000 0.801250 1.141333
v -0.478364 0.801250 1.359213
v -0.359212 0.801250 1.478364
v 1.000000 -2.024975 0.000000
v -0.141332 0.517750 0.000001
v 1.000000 0.517750 1.141333
v -0.478364 0.517750 1.359213
v -0.359212 0.517750 1.478364
v 0.826918 0.297004 1.029125
v 0.826918 0.867042 1.184117
v 0.826919 0.227369 1.292836
v 0.826919 0.797408 1.447828
v -0.029128 0.297004 0.173074
v -0.184121 0.867042 0.173074
v 1.000000 -2.024975 1.009251
v -0.292839 0.227369 0.173074
v -0.447831 0.797407 0.173074
v 0.634122 -0.079858 1.159088
v 0.634116 -0.029744 1.050975
v 0.575782 -0.210361 1.110758
v 0.575776 -0.155538 0.991455
v 0.634120 -0.340863 1.062423
v 0.634114 -0.281331 0.931929
v 0.774964 -0.394919 1.042396
v 0.774958 -0.333435 0.907268
v 0.915808 -0.340861 1.062410
v 0.915802 -0.281327 0.931916
v 0.974148 -0.210357 1.110740
v 0.974142 -0.155533 0.991437
v 0.915810 -0.079855 1.159076
v 0.915804 -0.029740 1.050963
v 0.774966 -0.025800 1.179102
v 0.774960 0.022364 1.075624
v -0.050962 -0.029741 0.363568
v -0.159075 -0.079857 0.363572
v 0.008563 -0.155534 0.421907
v -0.110740 -0.210359 0.421911
v 0.068084 -0.281329 0.363567
v -0.062409 -0.340862 0.363571
v 0.092735 -0.333436 0.222723
v -0.042393 -0.394920 0.222727
v 0.068076 -0.281332 0.081880
v -0.062418 -0.340865 0.081884
v 0.008551 -0.155538 0.023541
v -0.110753 -0.210362 0.023545
v -0.050970 -0.029744 0.081881
v -0.159084 -0.079859 0.081885
v -0.075621 0.022363 0.222724
v -0.179099 -0.025801 0.222729
v -0.204549 0.450535 1.334711
v -0.430995 0.450535 1.229124
v -0.251344 0.187090 1.435068
v -0.477789 0.187090 1.329481
v -0.204549 -0.076355 1.334711
v -0.430995 -0.076355 1.229124
v -0.091578 -0.185477 1.092427
v -0.318023 -0.185477 0.986840
v 0.021394 -0.076355 0.850144
v -0.205051 -0.076355 0.744557
v 0.068189 0.187090 0.749786
v -0.158257 0.187090 0.644200
v 0.021394 0.450535 0.850144
v -0.205051 0.450535 0.744557
v -0.091578 0.559658 1.092427
v -0.318023 0.559658 0.986841
v -0.224673 0.450535 1.435438
v -0.330269 0.450535 1.208997
v -0.325028 0.187090 1.482237
v -0.430625 0.187090 1.255796
v -0.224673 -0.076355 1.435438
v -0.330269 -0.076355 1.208997
v 0.017606 -0.185478 1.322455
v -0.087991 -0.185478 1.096014
v 0.259884 -0.076355 1.209473
v 0.154288 -0.076355 0.983032
v 0.360239 0.187090 1.162674
v 0.254643 0.187090 0.936233
v 0.259884 0.450535 1.209473
v 0.154288 0.450535 0.983032
v 0.017606 0.559657 1.322455
v -0.087991 0.559657 1.096015
v 0.507297 -2.183974 1.189490
v 0.507297 -2.024975 1.189490
v -0.189490 -2.183974 0.492702
v -0.189490 -2.024975 0.492702
v 0.581954 -2.024975 1.009251
v -0.009252 -2.024975 0.418045
v 0.581954 -1.547974 1.009251
v -0.009252 -1.547974 0.418045
v 0.502585 -0.593974 1.200864
v -0.200865 -0.593974 0.497413
v 0.616362 -0.593974 0.926183
v 0.073816 -0.593974 0.383637
v 0.447302 0.519026 1.334333
v -0.334332 0.519026 0.552700
v 1.000000 0.297004 1.029125
v 1.000000 0.867042 1.184117
v 1.000000 0.227369 1.292835
v 1.000000 0.797408 1.447828
v 1.000000 -2.183974 1.189490
v 1.000000 -2.024975 1.189490
v 1.000000 -2.024975 1.009251
v 1.000000 -1.547974 1.009251
v 1.000000 -0.593974 1.200864
v 1.000000 -0.593974 0.926183
v 1.000000 0.519026 1.334333
v -0.029128 0.297004 0.000000
v -0.184121 0.867042 0.000000
v -0.292839 0.227369 -0.000000
v -0.447831 0.797407 0.000000
v -0.189490 -2.183974 0.000000
v -0.189490 -2.024975 0.000000
v -0.009252 -2.024975 0.000000
v -0.009252 -1.547974 0.000000
v -0.200865 -0.593974 0.000000
v 0.073816 -0.593974 0.000000
v -0.334332 0.519026 0.000000
v 1.000000 0.519026 0.000000
v 1.000000 -2.183974 0.000000
v 1.000000 1.000000 -0.000000
v 1.000000 0.801250 -0.000000
v 1.000000 0.519026 0.000000
v 1.000000 0.801250 1.141333
v 1.000000 -2.024975 0.000000
v 1.000000 -1.547974 0.000000
v 1.000000 -0.593974 0.000000
v 1.000000 0.519026 0.000000
v 0.073816 -0.593974 0.000000
v 1.000000 -0.593974 0.926183
v 1.000000 -1.547974 1.009251
v -0.009252 -1.547974 0.000000
vn -0.7071 -0.0000 0.7071
vn -0.0000 -0.0000 -1.0000
vn -0.0000 1.0000 -0.0000
vn -0.0000 -1.0000 -0.0000
vn -0.0000 -0.2624 0.9650
vn -1.0000 -0.0000 -0.0000
vn -0.0000 -0.9669 -0.2553
vn -0.0000 0.9669 0.2553
vn 0.9650 0.2624 -0.0000
vn -0.0000 -0.0000 1.0000
vn -0.9218 0.3522 0.1619
vn -0.9219 -0.3526 -0.1608
vn -0.3779 -0.8427 -0.3834
vn 0.3779 -0.8427 -0.3834
vn 0.9219 -0.3525 -0.1609
vn 0.9218 0.3522 0.1618
vn -0.0000 0.4277 -0.9039
vn 0.3778 0.8400 0.3894
vn -0.3778 0.8400 0.3894
vn -0.0000 -0.3473 0.9378
vn -0.1626 0.3508 0.9222
vn 0.1615 -0.3513 0.9222
vn 0.3842 -0.8420 0.3787
vn 0.3841 -0.8420 -0.3788
vn 0.1614 -0.3513 -0.9222
vn -0.1626 0.3508 -0.9222
vn -0.9378 -0.3473 -0.0000
vn -0.3906 0.8390 -0.3788
vn -0.3905 0.8391 0.3788
vn 0.9039 0.4277 -0.0000
vn -0.3896 0.3875 0.8355
vn -0.3896 -0.3875 0.8355
vn -0.1597 -0.9258 0.3425
vn 0.1597 -0.9258 -0.3425
vn 0.3896 -0.3875 -0.8355
vn 0.3896 0.3875 -0.8355
vn -0.9063 -0.0000 -0.4226
vn 0.1597 0.9258 -0.3425
vn -0.1597 0.9258 0.3425
vn 0.9063 -0.0000 0.4226
vn -0.8355 0.3875 0.3896
vn -0.8355 -0.3875 0.3896
vn -0.3425 -0.9258 0.1597
vn 0.3425 -0.9258 -0.1597
vn 0.8355 -0.3875 -0.3896
vn 0.8355 0.3875 -0.3896
vn -0.4226 -0.0000 -0.9063
vn 0.3425 0.9258 -0.1597
vn -0.3425 0.9258 0.1597
vn 0.4226 -0.0000 0.9063
vn 0.2407 -0.0000 0.9706
vn -0.6933 -0.1969 0.6933
vn -0.9804 -0.1969 -0.0000
vn -0.6639 -0.3443 0.6639
vn -0.9389 -0.3443 -0.0000
vn -0.9706 -0.0000 -0.2407
vn -0.0000 -0.3443 0.9389
vn -0.0000 -0.1969 0.9804
vn -0.0000 0.2624 -0.9650
vn -0.9650 -0.2624 -0.0000
vn -0.2553 0.9669 -0.0000
vn 0.2553 -0.9669 -0.0000
vn 1.0000 -0.0000 -0.0000
vn -0.9222 0.3508 0.1626
vn -0.9222 -0.3513 -0.1614
vn -0.3788 -0.8420 -0.3841
vn 0.3787 -0.8420 -0.3842
vn 0.9222 -0.3513 -0.1615
vn 0.9222 0.3508 0.1626
vn 0.3788 0.8391 0.3905
vn -0.3788 0.8390 0.3906
vn -0.1618 0.3522 0.9218
vn 0.1609 -0.3525 0.9219
vn 0.3834 -0.8427 0.3779
vn 0.3834 -0.8427 -0.3779
vn 0.1608 -0.3525 -0.9219
vn -0.1619 0.3522 -0.9218
vn -0.3894 0.8400 -0.3778
vn -0.3894 0.8400 0.3778
vt 0.453226 0.391237
vt 0.299619 0.237630
vt 0.453226 0.237630
vt 0.133697 0.999964
vt 0.000037 0.999963
vt 0.000037 0.848449
vt 0.021204 0.141595
vt 0.141448 0.021351
vt 0.983156 0.261839
vt 0.359419 0.607963
vt 0.497155 0.658032
vt 0.713605 0.760995
vt 0.125000 1.000000
vt 0.000000 0.000000
vt 1.000000 1.000000
vt 0.606163 0.459884
vt 0.722807 0.226596
vt 0.722807 0.459884
vt 0.635680 0.974556
vt 0.496347 0.556561
vt 0.635680 0.556561
vt 0.745731 0.402837
vt 0.498377 0.773868
vt 0.498377 0.402837
vt 0.058826 0.688913
vt 0.290732 0.804868
vt 0.058826 0.804868
vt 0.519726 0.688914
vt 0.751632 0.804868
vt 0.519726 0.804868
vt 0.575875 0.228021
vt 0.234583 0.398661
vt 0.234583 0.228021
vt 0.298456 0.932043
vt 0.051102 0.561012
vt 0.298456 0.561012
vt 0.101911 0.654240
vt 0.168641 0.493140
vt 0.168641 0.654240
vt 0.170222 0.489324
vt 0.100331 0.658055
vt 0.100331 0.489324
vt 0.171468 0.486315
vt 0.099084 0.661064
vt 0.099084 0.486315
vt 0.171468 0.661064
vt 0.099084 0.486315
vt 0.171468 0.486315
vt 0.170222 0.658055
vt 0.100331 0.489324
vt 0.170222 0.489324
vt 0.168641 0.654240
vt 0.101911 0.493140
vt 0.168641 0.493140
vt 0.267172 0.516505
vt 0.348044 0.435633
vt 0.348044 0.711746
vt 0.167632 0.651803
vt 0.102920 0.495576
vt 0.167632 0.495576
vt 0.167632 0.495577
vt 0.102920 0.651803
vt 0.102920 0.495577
vt 0.501795 0.296459
vt 0.642655 0.645194
vt 0.645194 0.357344
vt 0.101911 0.493140
vt 0.168641 0.654240
vt 0.101911 0.654240
vt 0.100331 0.489324
vt 0.170222 0.489324
vt 0.171468 0.661064
vt 0.099084 0.486315
vt 0.171468 0.486315
vt 0.099084 0.661064
vt 0.170222 0.489324
vt 0.100331 0.658056
vt 0.168641 0.493140
vt 0.101911 0.654240
vt 0.101911 0.493140
vt 0.644330 0.643530
vt 0.500566 0.703548
vt 0.643530 0.355670
vt 0.167632 0.495576
vt 0.102920 0.651803
vt 0.102920 0.495576
vt 0.167632 0.651804
vt 0.102920 0.495576
vt 0.167632 0.495576
vt 0.543286 0.516505
vt 0.543286 0.630875
vt 0.267172 0.516505
vt 0.074671 0.831517
vt 0.217274 0.546312
vt 0.217274 0.831517
vt 0.084447 0.370618
vt 0.227049 0.085413
vt 0.227049 0.370618
vt 0.058206 0.805944
vt 0.233760 0.571864
vt 0.233760 0.805965
vt 0.765651 0.937707
vt 0.908993 0.651023
vt 0.908993 0.937707
vt 0.332499 0.831517
vt 0.189896 0.546312
vt 0.332499 0.546312
vt 0.200173 0.730364
vt 0.070379 0.417015
vt 0.200173 0.417015
vt 0.355670 0.643530
vt 0.499434 0.703548
vt 0.356470 0.355670
vt 0.200510 0.731177
vt 0.070042 0.416203
vt 0.200510 0.416203
vt 0.535201 0.486582
vt 0.678543 0.199898
vt 0.678543 0.486582
vt 0.666920 0.465294
vt 0.666920 0.682086
vt 0.143538 0.465294
vt 0.650796 0.946742
vt 0.793399 0.661537
vt 0.793399 0.946742
vt 0.084447 0.716292
vt 0.227049 0.431087
vt 0.227049 0.716292
vt 0.579435 0.805965
vt 0.403881 0.571885
vt 0.579435 0.571864
vt 0.678544 0.947482
vt 0.535201 0.660798
vt 0.678544 0.660798
vt 0.021947 0.831518
vt 0.164549 0.546312
vt 0.164549 0.831518
vt 0.068434 0.344441
vt 0.243083 0.111569
vt 0.243083 0.344462
vt 0.143537 0.465294
vt 0.296833 0.311999
vt 0.296833 0.835381
vt 0.070042 0.416203
vt 0.200510 0.416203
vt 0.189527 0.601807
vt 0.332869 0.315123
vt 0.332869 0.601807
vt 0.498205 0.296459
vt 0.357345 0.645194
vt 0.354806 0.357344
vt 0.471565 0.398106
vt 0.105680 0.276145
vt 0.471565 0.276145
vt 0.845120 0.811462
vt 0.113351 0.689500
vt 0.845120 0.689500
vt 0.159773 0.725872
vt 0.159772 0.274127
vt 0.321495 0.207140
vt 0.876523 0.786226
vt 0.236660 0.491042
vt 0.876523 0.629666
vt 0.899573 0.057417
vt 0.591913 0.426611
vt 0.591913 0.057417
vt 0.963707 0.567311
vt 0.348384 0.936505
vt 0.348384 0.567311
vt 0.175759 0.748486
vt 0.175759 0.251514
vt 0.282893 0.207138
vt 0.118738 0.053291
vt 0.769001 0.833607
vt 0.118738 0.833607
vt 0.981177 0.053291
vt 0.656046 0.833607
vt 0.656046 0.053291
vt 0.000000 0.687500
vt 0.500000 0.500000
vt 0.312500 1.000000
vt 0.749543 0.037441
vt 0.060914 0.955613
vt 0.060914 0.037441
vt 0.749543 0.066767
vt 0.405228 0.984938
vt 0.405230 0.066767
vt 0.187748 0.805025
vt 0.604198 0.184180
vt 0.604198 0.396850
vt 0.286477 0.032554
vt 0.630791 0.950726
vt 0.286477 0.950726
vt 0.330914 0.053291
vt 0.656046 0.833607
vt 0.330914 0.833607
vt 0.656046 0.360023
vt 0.348384 0.729216
vt 0.348384 0.360023
vt 0.500000 0.500000
vt 0.687500 0.000000
vt 1.000000 0.312500
vt 0.575875 0.057369
vt 0.234583 0.228017
vt 0.234583 0.057369
vt 0.790292 0.405777
vt 0.424407 0.283816
vt 0.790292 0.283816
vt 0.429336 0.523431
vt 0.290009 0.105436
vt 0.429336 0.105436
vt 0.519726 0.572962
vt 0.751632 0.688911
vt 0.519726 0.688911
vt 0.290732 0.572962
vt 0.058826 0.688911
vt 0.058826 0.572962
vt 0.133698 0.848448
vt 0.000037 0.000037
vt 0.133697 0.000037
vt 0.833573 0.911226
vt 0.049160 0.629666
vt 0.833573 0.754666
vt 0.187748 0.334350
vt 0.930322 0.750530
vt 0.930322 0.963200
vt 0.140820 0.999963
vt 0.000038 0.999963
vt 0.000038 0.191511
vt 0.000050 0.999950
vt 0.247301 0.000050
vt 0.248419 0.999950
vt 0.140820 0.000038
vt 0.000038 0.000038
vt 0.460152 0.003433
vt 0.000068 0.996567
vt 0.000068 0.000068
vt 0.000068 0.003434
vt 0.460152 0.996567
vt 0.000068 0.999932
vt 0.000616 0.229468
vt 0.000089 0.228714
vt 0.794199 0.160368
vt 0.472632 0.999931
vt 0.000069 0.000069
vt 0.472632 0.000069
vt 0.000091 0.999909
vt 0.834064 0.305919
vt 0.834064 0.999909
vt 0.834065 0.694083
vt 0.000091 0.000091
vt 0.834065 0.000091
vt 0.000069 0.999931
vt 0.472631 0.000069
vt 0.472631 0.999931
vt 0.794375 0.840377
vt 0.000089 0.999911
vt 0.000089 0.771215
vt 0.000050 0.999950
vt 0.247301 0.000050
vt 0.248419 0.999950
vt 0.299619 0.391237
vt 0.000037 0.000037
vt 0.133697 0.000037
vt 0.983156 0.983303
vt 0.261692 0.983303
vt 0.862642 0.852798
vt 0.215896 0.632397
vt 0.215897 0.428383
vt 0.053383 0.302305
vt 0.257397 0.302305
vt 0.000000 0.875000
vt 1.000000 0.000000
vt 0.606163 0.226596
vt 0.496347 0.974556
vt 0.745731 0.773868
vt 0.290732 0.688914
vt 0.751632 0.688914
vt 0.575875 0.398661
vt 0.051102 0.932043
vt 0.101911 0.493140
vt 0.170222 0.658055
vt 0.171468 0.661064
vt 0.099084 0.661064
vt 0.100331 0.658055
vt 0.101911 0.654240
vt 0.462414 0.435633
vt 0.543285 0.516505
vt 0.543285 0.630875
vt 0.462414 0.711746
vt 0.267172 0.630875
vt 0.102920 0.651803
vt 0.167632 0.651803
vt 0.357344 0.354805
vt 0.498205 0.703541
vt 0.296459 0.498204
vt 0.354805 0.642655
vt 0.703541 0.501795
vt 0.168641 0.493140
vt 0.100331 0.658055
vt 0.099084 0.661064
vt 0.170222 0.658056
vt 0.168641 0.654240
vt 0.356470 0.644330
vt 0.296452 0.500566
vt 0.355670 0.356470
vt 0.499434 0.296452
vt 0.703548 0.499434
vt 0.167632 0.651803
vt 0.462414 0.711746
vt 0.348044 0.711746
vt 0.348044 0.435633
vt 0.462414 0.435633
vt 0.074671 0.546312
vt 0.084447 0.085413
vt 0.058206 0.571885
vt 0.765651 0.651023
vt 0.189896 0.831517
vt 0.070379 0.730364
vt 0.643530 0.644330
vt 0.703548 0.500566
vt 0.644330 0.356470
vt 0.500566 0.296452
vt 0.296452 0.499434
vt 0.070042 0.731177
vt 0.535201 0.199898
vt 0.513625 0.835381
vt 0.143538 0.682086
vt 0.296833 0.835381
vt 0.296833 0.311999
vt 0.513625 0.311999
vt 0.650796 0.661537
vt 0.084447 0.431087
vt 0.403880 0.805944
vt 0.535201 0.947482
vt 0.021947 0.546312
vt 0.068434 0.111589
vt 0.513625 0.311999
vt 0.666920 0.465294
vt 0.666920 0.682086
vt 0.513625 0.835381
vt 0.143537 0.682086
vt 0.189527 0.315123
vt 0.642656 0.354805
vt 0.645195 0.642655
vt 0.703541 0.498204
vt 0.501795 0.703541
vt 0.296459 0.501795
vt 0.105680 0.398106
vt 0.113351 0.811462
vt 0.321495 0.792860
vt 0.114412 0.999943
vt 0.000057 0.885588
vt 0.000057 0.114412
vt 0.114412 0.000057
vt 0.236660 0.647601
vt 0.899573 0.426611
vt 0.963707 0.936505
vt 0.282893 0.792862
vt 0.075808 0.999947
vt 0.000053 0.924192
vt 0.000054 0.075808
vt 0.075808 0.000053
vt 0.769001 0.053291
vt 0.981177 0.833607
vt 0.000000 0.500000
vt 0.500000 1.000000
vt 0.749543 0.955613
vt 0.749543 0.984938
vt 0.187748 0.592355
vt 0.630791 0.032554
vt 0.656045 0.053291
vt 0.656046 0.729216
vt 1.000000 0.500000
vt 0.500000 0.000000
vt 0.575875 0.228017
vt 0.424407 0.405777
vt 0.290008 0.523431
vt 0.751632 0.572962
vt 0.290732 0.688911
vt 0.133698 0.999963
vt 0.000037 0.999963
vt 0.134546 0.848448
vt 0.049160 0.786226
vt 0.187748 0.121680
vt 0.140820 0.000038
vt 0.000050 0.000050
vt 0.140820 0.999963
vt 0.460152 0.999932
vt 0.460152 0.000068
vt 0.000318 0.000089
vt 0.795039 0.159884
vt 0.794199 0.999911
vt 0.000616 0.999911
vt 0.000069 0.999931
vt 0.000091 0.000091
vt 0.000091 0.999909
vt 0.000069 0.000069
vt 0.000089 0.000089
vt 0.794375 0.000089
vt 0.000050 0.000050
s 0
usemtl base
f 8/1/1 10/2/1 9/3/1
f 122/4/2 123/5/2 124/6/2
f 7/7/3 8/8/3 3/9/3
f 13/10/4 14/11/4 9/12/4
f 19/13/4 16/14/4 17/15/4
f 13/16/1 19/17/1 14/18/1
f 110/19/5 22/20/5 109/21/5
f 22/22/6 21/23/6 20/24/6
f 107/25/7 22/26/7 20/27/7
f 110/28/8 21/29/8 23/30/8
f 119/31/9 24/32/9 118/33/9
f 25/34/10 27/35/10 24/36/10
f 29/37/11 32/38/11 31/39/11
f 31/40/12 34/41/12 33/42/12
f 33/43/13 36/44/13 35/45/13
f 36/46/14 37/47/14 35/48/14
f 38/49/15 39/50/15 37/51/15
f 40/52/16 41/53/16 39/54/16
f 38/55/17 36/56/17 42/57/17
f 42/58/18 43/59/18 41/60/18
f 43/61/19 30/62/19 29/63/19
f 46/67/21 47/68/21 45/69/21
f 48/49/22 49/70/22 47/71/22
f 50/72/23 51/73/23 49/74/23
f 51/48/24 54/75/24 53/47/24
f 53/76/25 56/77/25 55/70/25
f 55/78/26 58/79/26 57/80/26
f 57/84/28 60/85/28 59/86/28
f 60/87/29 45/88/29 59/89/29
f 57/90/30 59/91/30 51/92/30
f 62/93/31 63/94/31 61/95/31
f 64/96/32 65/97/32 63/98/32
f 66/99/33 67/100/33 65/101/33
f 68/102/34 69/103/34 67/104/34
f 69/105/35 72/106/35 71/107/35
f 72/108/36 73/109/36 71/110/36
f 74/114/38 75/115/38 73/116/38
f 76/117/39 61/118/39 75/119/39
f 73/120/40 75/121/40 67/122/40
f 78/123/41 79/124/41 77/125/41
f 80/126/42 81/127/42 79/128/42
f 81/129/43 84/130/43 83/131/43
f 83/132/44 86/133/44 85/134/44
f 86/135/45 87/136/45 85/137/45
f 88/138/46 89/139/46 87/140/46
f 86/141/47 84/142/47 90/143/47
f 90/114/48 91/144/48 89/145/48
f 92/146/49 77/147/49 91/148/49
f 112/152/10 93/153/10 111/154/10
f 94/155/1 95/156/1 93/157/1
f 103/158/3 104/159/3 102/160/3
f 3/161/51 9/162/51 4/163/51
f 97/170/3 98/171/3 96/172/3
f 105/179/3 129/180/3 106/181/3
f 11/188/56 18/189/56 13/190/56
f 130/200/4 93/201/4 95/202/4
f 21/203/59 107/204/59 20/205/59
f 96/206/6 122/207/6 95/208/6
f 28/209/60 120/210/60 27/211/60
f 28/212/61 119/213/61 121/214/61
f 27/215/62 118/216/62 24/217/62
f 113/218/63 130/219/63 15/220/63
f 7/221/56 1/222/56 10/223/56
f 14/224/51 17/225/51 12/226/51
f 131/227/6 132/228/6 134/229/6
f 11/230/2 133/231/2 16/232/2
f 2/233/2 132/228/2 1/234/2
f 120/235/2 119/236/2 118/237/2
f 109/238/63 108/239/63 110/240/63
f 140/241/3 116/242/3 114/243/3
f 141/244/63 135/245/63 136/246/63
f 138/247/63 140/248/63 137/249/63
f 139/250/2 138/251/2 137/252/2
f 135/253/2 142/254/2 136/255/2
f 142/256/2 126/257/2 139/258/2
f 134/259/6 138/260/6 17/261/6
f 8/1/1 7/262/1 10/2/1
f 124/6/2 15/263/2 130/264/2
f 130/264/2 122/4/2 124/6/2
f 3/9/3 6/265/3 2/266/3
f 2/266/3 7/7/3 3/9/3
f 9/12/4 10/267/4 13/10/4
f 10/267/4 1/268/4 13/10/4
f 1/268/4 11/269/4 13/10/4
f 14/11/4 12/270/4 4/271/4
f 14/11/4 4/271/4 9/12/4
f 18/272/4 16/14/4 19/13/4
f 16/14/4 5/273/4 17/15/4
f 13/16/1 18/274/1 19/17/1
f 110/19/5 23/275/5 22/20/5
f 22/22/6 23/276/6 21/23/6
f 107/25/7 109/277/7 22/26/7
f 110/28/8 108/278/8 21/29/8
f 119/31/9 25/279/9 24/32/9
f 25/34/10 28/280/10 27/35/10
f 29/37/64 30/281/64 32/38/64
f 31/40/65 32/282/65 34/41/65
f 33/43/66 34/283/66 36/44/66
f 36/46/67 38/284/67 37/47/67
f 38/49/68 40/285/68 39/50/68
f 40/52/69 42/286/69 41/53/69
f 34/287/17 32/288/17 30/289/17
f 30/289/17 44/290/17 34/287/17
f 44/290/17 42/57/17 36/56/17
f 34/287/17 44/290/17 36/56/17
f 42/57/17 40/291/17 38/55/17
f 42/58/70 44/292/70 43/59/70
f 43/61/71 44/293/71 30/62/71
f 46/67/72 48/299/72 47/68/72
f 48/49/73 50/300/73 49/70/73
f 50/72/74 52/301/74 51/73/74
f 51/48/75 52/46/75 54/75/75
f 53/76/76 54/302/76 56/77/76
f 55/78/77 56/303/77 58/79/77
f 57/84/78 58/309/78 60/85/78
f 60/87/79 46/85/79 45/88/79
f 59/91/30 45/310/30 51/92/30
f 45/310/30 47/311/30 49/291/30
f 51/92/30 45/310/30 49/291/30
f 51/92/30 53/312/30 57/90/30
f 53/312/30 55/313/30 57/90/30
f 62/93/31 64/314/31 63/94/31
f 64/96/32 66/315/32 65/97/32
f 66/99/33 68/316/33 67/100/33
f 68/102/34 70/317/34 69/103/34
f 69/105/35 70/318/35 72/106/35
f 72/108/36 74/319/36 73/109/36
f 74/114/38 76/325/38 75/115/38
f 76/117/39 62/326/39 61/118/39
f 75/121/40 61/327/40 65/328/40
f 61/327/40 63/329/40 65/328/40
f 65/328/40 67/122/40 75/121/40
f 67/122/40 69/330/40 73/120/40
f 69/330/40 71/331/40 73/120/40
f 78/123/41 80/332/41 79/124/41
f 80/126/42 82/333/42 81/127/42
f 81/129/43 82/334/43 84/130/43
f 83/132/44 84/335/44 86/133/44
f 86/135/45 88/336/45 87/136/45
f 88/138/46 90/337/46 89/139/46
f 82/338/47 80/339/47 78/340/47
f 78/340/47 92/341/47 82/338/47
f 92/341/47 90/143/47 84/142/47
f 82/338/47 92/341/47 84/142/47
f 90/143/47 88/342/47 86/141/47
f 90/114/48 92/325/48 91/144/48
f 92/146/49 78/343/49 77/147/49
f 112/152/10 94/349/10 93/153/10
f 94/155/1 96/350/1 95/156/1
f 102/160/3 101/351/3 103/158/3
f 101/351/3 115/352/3 103/158/3
f 115/352/3 116/353/3 103/158/3
f 104/159/3 127/354/3 126/355/3
f 104/159/3 126/355/3 102/160/3
f 3/161/51 8/356/51 9/162/51
f 94/359/3 112/360/3 97/170/3
f 112/360/3 113/361/3 97/170/3
f 124/362/3 123/363/3 98/171/3
f 123/363/3 96/172/3 98/171/3
f 94/359/3 97/170/3 96/172/3
f 117/366/3 129/180/3 105/179/3
f 129/180/3 128/367/3 106/181/3
f 11/188/56 16/370/56 18/189/56
f 95/202/4 122/374/4 130/200/4
f 130/200/4 111/375/4 93/201/4
f 21/203/59 108/376/59 107/204/59
f 96/206/6 123/377/6 122/207/6
f 28/209/60 121/378/60 120/210/60
f 28/212/61 25/379/61 119/213/61
f 27/215/62 120/380/62 118/216/62
f 112/381/63 111/382/63 113/218/63
f 111/382/63 130/219/63 113/218/63
f 15/220/3 26/383/3 113/218/3
f 7/221/56 2/384/56 1/222/56
f 14/224/51 19/385/51 17/225/51
f 134/229/6 4/234/6 3/386/6
f 3/386/6 131/227/6 134/229/6
f 11/230/2 132/387/2 133/231/2
f 2/233/2 131/388/2 132/228/2
f 120/235/2 121/389/2 119/236/2
f 109/238/63 107/390/63 108/239/63
f 116/242/63 115/391/63 114/243/63
f 114/243/3 141/392/3 136/393/3
f 114/243/63 136/393/63 140/241/63
f 136/393/63 137/394/63 140/241/63
f 141/244/63 113/395/63 135/245/63
f 138/247/63 117/396/63 140/248/63
f 139/250/2 128/397/2 138/251/2
f 135/253/2 124/398/2 142/254/2
f 139/258/2 137/399/2 136/400/2
f 136/400/2 142/256/2 139/258/2
f 134/259/6 132/401/6 138/260/6
usemtl volute
f 43/64/20 37/65/20 41/66/20
f 54/81/27 52/82/27 58/83/27
f 70/111/37 68/112/37 74/113/37
f 91/149/50 85/150/50 89/151/50
f 43/64/20 29/294/20 35/295/20
f 29/294/20 31/296/20 33/297/20
f 35/295/20 29/294/20 33/297/20
f 35/295/20 37/65/20 43/64/20
f 37/65/20 39/298/20 41/66/20
f 50/304/27 48/305/27 46/306/27
f 46/306/27 60/307/27 50/304/27
f 60/307/27 58/83/27 52/82/27
f 50/304/27 60/307/27 52/82/27
f 58/83/27 56/308/27 54/81/27
f 66/320/37 64/321/37 62/322/37
f 62/322/37 76/323/37 66/320/37
f 76/323/37 74/113/37 68/112/37
f 66/320/37 76/323/37 68/112/37
f 74/113/37 72/324/37 70/111/37
f 91/149/50 77/344/50 81/345/50
f 77/344/50 79/346/50 81/345/50
f 81/345/50 83/347/50 91/149/50
f 83/347/50 85/150/50 91/149/50
f 85/150/50 87/348/50 89/151/50
usemtl corinthian
f 98/164/6 125/165/6 124/166/6
f 97/167/1 100/168/1 98/169/1
f 100/173/52 101/174/52 102/175/52
f 100/176/53 126/177/53 125/178/53
f 103/182/54 106/183/54 104/184/54
f 104/185/55 128/186/55 127/187/55
f 103/191/57 117/192/57 105/193/57
f 99/194/58 115/195/58 101/196/58
f 113/197/10 99/198/10 97/199/10
f 98/164/6 100/357/6 125/165/6
f 97/167/1 99/358/1 100/168/1
f 100/173/52 99/364/52 101/174/52
f 100/176/53 102/365/53 126/177/53
f 103/182/54 105/368/54 106/183/54
f 104/185/55 106/369/55 128/186/55
f 103/191/57 116/371/57 117/192/57
f 99/194/58 114/372/58 115/195/58
f 113/197/10 114/373/10 99/198/10
