# Blender 5.1.1
# www.blender.org
mtllib giant_column_up.mtl
o column_giant
v 0.414216 0.000000 -0.000007
v 0.414216 1.000000 -0.000007
v 1.000007 0.000000 0.585783
v 1.000007 1.000000 0.585783
v -0.000000 0.000000 -0.000007
v -0.000000 1.000000 -0.000007
v 1.000007 0.000000 1.000000
v 1.000007 1.000000 1.000000
v 0.000007 0.000000 1.000000
v -0.000000 0.000000 -0.000007
v 0.000007 0.000000 1.000000
v 0.000007 1.000000 1.000000
v 1.000007 1.250000 0.585783
v 0.414216 1.250000 -0.000007
v 1.000007 1.250000 1.000000
v -0.000000 1.250000 -0.000007
v 0.000007 1.250000 1.000000
vn -0.0000 -0.0000 -1.0000
vn 0.7071 -0.0000 -0.7071
vn 1.0000 -0.0000 -0.0000
vn -0.0000 -1.0000 -0.0000
vn -1.0000 -0.0000 -0.0000
vn -0.0000 -0.0000 1.0000
vn -0.0000 1.0000 -0.0000
vt 0.500000 0.000000
vt 0.500000 1.000000
vt 0.085200 1.000000
vt 0.085200 0.000000
vt 0.080169 0.000091
vt 0.080169 0.999909
vt 0.908451 0.999909
vt 0.908451 0.000091
vt 0.414240 0.000000
vt 0.414240 1.000000
vt 0.000000 1.000000
vt 0.000000 0.000000
vt 0.083380 0.000074
vt 0.501500 0.000074
vt 0.501500 0.249926
vt 0.083380 0.249926
vt 0.999900 0.414231
vt 0.414231 0.999900
vt 0.000100 0.999900
vt 0.000100 0.000107
vt 0.999900 0.000100
vt 0.999896 0.000104
vt 0.999896 0.999896
vt 0.000096 0.999896
vt 0.000096 0.000104
vt 0.999476 0.999900
vt 0.000676 0.999900
vt 0.000676 0.001100
vt 0.000100 0.000100
vt 0.999476 0.001100
vt 0.000100 0.585769
vt 0.585769 0.000100
vt 0.999900 0.000100
vt 0.999893 0.999900
vt 0.000100 0.999900
vt 1.000000 0.000000
vt 1.000000 0.250000
vt 0.000000 0.250000
vt 0.414240 0.250000
vt -0.000000 0.250000
vt 0.908203 0.000000
vt 0.080078 0.000000
vt 0.080078 0.250000
vt 0.908203 0.250000
s 0
usemtl column_mat_side
f 5/1/1 6/2/1 2/3/1 1/4/1
f 1/5/2 2/6/2 4/7/2 3/8/2
f 3/9/3 4/10/3 8/11/3 7/12/3
f 2/13/1 6/14/1 16/15/1 14/16/1
f 11/22/5 12/23/5 6/24/5 10/25/5
f 8/26/6 12/27/6 11/28/6 9/29/6 7/30/6
f 6/12/5 12/36/5 17/37/5 16/38/5
f 12/12/6 8/36/6 15/37/6 17/38/6
f 8/12/3 4/9/3 13/39/3 15/40/3
f 4/41/2 2/42/2 14/43/2 13/44/2
usemtl column_mat_top
f 1/17/4 3/18/4 7/19/4 11/20/4 10/21/4
f 13/31/7 14/32/7 16/33/7 17/34/7 15/35/7
l 5 10
