# Blender 5.1.2
# www.blender.org
mtllib giant_roman_ionic_capital.mtl
o roman
v 1.001000 1.000000 1.001664
v 1.001000 0.828125 1.001664
v 1.001000 0.828125 -0.001010
v 1.001000 1.000000 -0.001010
v -0.304354 1.000000 1.114809
v -0.114809 1.000000 1.304354
v -0.114809 0.828125 1.304354
v -0.304354 0.828125 1.114809
v 0.515884 0.061564 1.168758
v 0.515884 0.336564 1.168758
v -0.168759 0.061564 0.484116
v -0.168759 0.336564 0.484116
v -0.106563 0.841875 1.106563
v -0.106563 0.326250 1.106563
v 1.001000 0.841875 0.885485
v 1.001000 0.326250 0.885485
v 1.001000 0.326250 -0.001010
v 1.001000 0.841875 -0.001010
v 0.038535 0.676856 0.718401
v 0.281603 0.676856 0.961469
v 0.146259 0.309063 0.610678
v 0.389327 0.309063 0.853746
v 0.038535 -0.058729 0.718401
v 0.281603 -0.058729 0.961469
v -0.221534 -0.211074 0.978470
v 0.021534 -0.211074 1.221538
v -0.481602 -0.058730 1.238539
v -0.238534 -0.058730 1.481607
v -0.589326 0.309063 1.346263
v -0.346258 0.309063 1.589331
v -0.481602 0.676856 1.238539
v -0.238534 0.676856 1.481607
v -0.221534 0.829200 0.978470
v 0.021534 0.829200 1.221538
v 1.001000 0.061564 1.168758
v 1.001000 0.336564 1.168758
v -0.001999 0.828125 0.000221
v -0.001999 1.000000 0.000221
v -0.168759 0.061564 0.000425
v -0.168759 0.336564 0.000425
v 0.114297 0.326250 0.000078
v 0.114297 0.841875 0.000078
v 1.001000 0.336564 -0.001010
v 1.001000 0.061564 -0.001010
vn -0.7071 -0.0000 0.7071
vn 0.2618 -0.0000 0.9651
vn -0.0000 -1.0000 -0.0000
vn -0.0000 -0.0000 1.0000
vn -0.0000 1.0000 -0.0000
vn 0.1957 -0.0000 0.9807
vn 0.6533 0.3827 -0.6533
vn 0.6533 -0.3827 -0.6533
vn 0.2706 -0.9239 -0.2706
vn -0.2706 -0.9239 0.2706
vn -0.6533 -0.3827 0.6533
vn -0.6533 0.3827 0.6533
vn 0.7071 -0.0000 0.7071
vn -0.2706 0.9239 0.2706
vn 0.2706 0.9239 -0.2706
vn -0.7071 -0.0000 -0.7071
vn -0.9807 -0.0000 -0.1957
vn -1.0000 -0.0000 -0.0000
vn -0.9651 -0.0000 -0.2618
vn -0.0012 -0.0000 -1.0000
vn 1.0000 -0.0000 -0.0000
vt 0.812500 0.500000
vt 0.687500 0.437500
vt 0.812500 0.437500
vt 0.500000 0.062500
vt 0.000000 0.125000
vt 0.500000 0.125000
vt 0.148654 0.750000
vt 0.125000 0.726346
vt 0.125000 0.625112
vt 0.468750 0.625000
vt 0.250000 0.500000
vt 0.468750 0.500000
vt 0.937500 0.625000
vt 0.500000 0.500000
vt 0.937500 0.500000
vt 0.000100 0.707065
vt 0.500000 0.500000
vt 0.292935 0.999900
vt 0.625000 1.000000
vt -0.000000 0.750000
vt 0.625000 0.750000
vt 0.250000 0.750000
vt 0.125000 0.625123
vt 0.250000 0.625000
vt 0.000064 0.999936
vt 0.414228 0.000064
vt 0.414228 0.999936
vt 0.414228 0.999936
vt 0.000064 0.000064
vt 0.414228 0.000064
vt 0.375000 0.750000
vt 0.562500 0.500000
vt 0.562500 0.750000
vt 0.812500 0.375000
vt 0.625000 0.125000
vt 0.812500 0.125000
vt 0.312500 0.375000
vt 0.125000 0.125000
vt 0.312500 0.125000
vt 0.125000 0.875000
vt 0.312500 0.625000
vt 0.312500 0.875000
vt 0.228893 0.810170
vt 0.228892 0.275767
vt 0.763295 0.275767
vt 0.375000 0.250000
vt 0.562500 0.250000
vt 0.000064 0.999936
vt 0.000064 0.000064
vt 0.496094 0.920848
vt 0.873974 0.542969
vt 0.496094 0.165089
vt 0.500000 0.500000
vt 0.000100 0.292935
vt 0.292935 0.000100
vt 0.750000 0.750000
vt 0.875000 0.625123
vt 0.875000 0.750000
vt 1.000000 1.000000
vt 0.375614 0.750000
vt 1.000000 0.750000
vt 0.719399 0.500000
vt 1.000000 0.125000
vt 0.500552 0.062500
vt 0.500552 0.125000
vt 0.704151 0.790076
vt 0.127659 0.954788
vt 0.045212 0.872341
vt 0.171736 -0.000992
vt -0.000136 1.000992
vt -0.000136 -0.000992
vt 0.000048 0.000049
vt 0.235318 0.999951
vt 0.000049 0.999951
vt 0.000076 0.000076
vt 0.582152 0.999924
vt 0.000077 0.999924
vt 0.235318 0.999951
vt 0.000049 0.000049
vt 0.235318 0.000049
vt 0.582295 0.999924
vt 0.000076 0.000076
vt 0.582295 0.000076
vt -0.000109 -0.000835
vt 0.171767 1.000835
vt -0.000109 1.000835
vt 0.687500 0.500000
vt 0.000000 0.062500
vt 0.500000 0.625000
vt 0.000100 0.500000
vt 0.499386 0.999900
vt 0.000000 1.000000
vt 0.125000 0.750000
vt 0.000064 0.000064
vt 0.375000 0.500000
vt 0.625000 0.375000
vt 0.125000 0.375000
vt 0.125000 0.625000
vt 0.118214 0.542969
vt 0.496094 0.165089
vt 0.763295 0.810170
vt 0.496094 0.920848
vt 0.414228 0.999936
vt 0.228893 0.275767
vt 0.118214 0.542969
vt 0.228893 0.810170
vt 0.763295 0.810170
vt 0.763295 0.275767
vt 0.499386 0.000100
vt 0.000100 0.500000
vt 0.750000 0.625000
vt 0.375614 1.000000
vt 0.719399 0.625000
vt 1.000000 0.062500
vt 0.210106 0.295212
vt 0.704788 0.295212
vt 0.171737 1.000992
vt 0.235318 0.000049
vt 0.582152 0.000076
vt 0.000049 0.999951
vt 0.000076 0.999924
vt 0.171767 -0.000835
s 0
usemtl ionic_egg
f 1/4/2 7/5/2 2/6/2
f 7/7/3 8/8/3 37/9/3
f 36/10/4 9/11/4 35/12/4
f 10/13/1 11/14/1 9/15/1
f 15/19/6 14/20/6 16/21/6
f 16/22/3 41/23/3 17/24/3
f 15/56/5 42/57/5 13/58/5
f 13/59/17 41/60/17 14/61/17
f 12/13/18 39/62/18 11/15/18
f 8/63/19 38/64/19 37/65/19
f 1/4/2 6/88/2 7/5/2
f 37/9/3 3/24/3 2/22/3
f 2/22/3 7/7/3 37/9/3
f 36/10/4 10/24/4 9/11/4
f 10/13/1 12/89/1 11/14/1
f 15/19/6 13/92/6 14/20/6
f 16/22/3 14/93/3 41/23/3
f 15/56/5 18/111/5 42/57/5
f 13/59/17 42/112/17 41/60/17
f 12/13/18 40/113/18 39/62/18
f 8/63/19 5/114/19 38/64/19
usemtl ionic_volute
f 24/43/13 20/44/13 32/45/13
f 25/50/16 29/51/16 33/52/16
f 24/43/13 22/99/13 20/44/13
f 20/44/13 34/100/13 32/45/13
f 32/45/13 30/51/13 28/101/13
f 28/101/13 26/102/13 32/45/13
f 26/102/13 24/43/13 32/45/13
f 33/52/16 19/104/16 21/105/16
f 21/105/16 23/106/16 25/50/16
f 25/50/16 27/107/16 29/51/16
f 29/51/16 31/108/16 33/52/16
f 33/52/16 21/105/16 25/50/16
usemtl ionic_capital
f 6/1/1 8/2/1 7/3/1
f 10/16/5 43/17/5 12/18/5
f 19/25/7 22/26/7 21/27/7
f 22/28/8 23/29/8 21/30/8
f 24/31/9 25/32/9 23/33/9
f 25/34/10 28/35/10 27/36/10
f 27/37/11 30/38/11 29/39/11
f 30/40/12 31/41/12 29/42/12
f 31/32/14 34/46/14 33/47/14
f 33/30/15 20/48/15 19/49/15
f 44/53/3 9/54/3 11/55/3
f 38/66/5 5/67/5 6/68/5
f 38/69/20 3/70/20 37/71/20
f 43/72/20 39/73/20 40/74/20
f 18/75/20 41/76/20 42/77/20
f 44/78/21 36/79/21 35/80/21
f 17/81/21 15/82/21 16/83/21
f 3/84/21 1/85/21 2/86/21
f 6/1/1 5/87/1 8/2/1
f 36/90/5 43/17/5 10/16/5
f 43/17/5 40/91/5 12/18/5
f 19/25/7 20/94/7 22/26/7
f 22/28/8 24/48/8 23/29/8
f 24/31/9 26/95/9 25/32/9
f 25/34/10 26/96/10 28/35/10
f 27/37/11 28/97/11 30/38/11
f 30/40/12 32/98/12 31/41/12
f 31/32/14 32/95/14 34/46/14
f 33/30/15 34/103/15 20/48/15
f 11/55/3 39/109/3 44/53/3
f 44/53/3 35/110/3 9/54/3
f 6/68/5 1/115/5 38/66/5
f 1/115/5 4/116/5 38/66/5
f 38/69/20 4/117/20 3/70/20
f 43/72/20 44/118/20 39/73/20
f 18/75/20 17/119/20 41/76/20
f 44/78/21 43/120/21 36/79/21
f 17/81/21 18/121/21 15/82/21
f 3/84/21 4/122/21 1/85/21
