# Blender 5.1.2
# www.blender.org
mtllib giant_corner_ionic_capital.mtl
o corner
v -0.375000 1.055937 1.375000
v -0.375000 0.884062 1.375000
v -0.375000 1.055937 -1.375000
v -0.375000 0.884062 -1.375000
v 2.375000 1.055937 1.375000
v 2.375000 0.884062 1.375000
v 2.375000 1.055937 -1.375000
v 2.375000 0.884062 -1.375000
v -0.082812 0.635516 1.082811
v -0.082812 0.144300 1.082811
v -0.082812 0.635516 0.567186
v -0.082812 0.144300 0.567186
v 0.432813 0.635516 1.082811
v 0.432813 0.144300 1.082811
v 0.432813 0.635516 0.567186
v 0.432813 0.144300 0.567186
v -0.213290 0.732793 1.392348
v -0.524836 0.732793 1.247079
v -0.277672 0.365000 1.530420
v -0.589217 0.365001 1.385151
v -0.213290 -0.002792 1.392348
v -0.524836 -0.002792 1.247079
v -0.057860 -0.155137 1.059012
v -0.369406 -0.155137 0.913743
v 0.097569 -0.002792 0.725676
v -0.213976 -0.002792 0.580407
v 0.161951 0.365000 0.587604
v -0.149595 0.365000 0.442335
v 0.097569 0.732793 0.725676
v -0.213976 0.732793 0.580407
v -0.057860 0.885138 1.059012
v -0.369406 0.885138 0.913743
v 1.484116 0.117501 1.168758
v 1.484116 0.392501 1.168758
v 0.515885 0.117501 1.168759
v 0.515885 0.392501 1.168759
v -0.168758 0.117501 0.484116
v -0.168758 0.392501 0.484116
v -0.168759 0.117501 -0.484115
v -0.168759 0.392501 -0.484115
v 0.515884 0.117501 -1.168758
v 0.515884 0.392501 -1.168758
v 1.484115 0.117501 -1.168759
v 1.484115 0.392501 -1.168759
v 2.168758 0.117501 -0.484116
v 2.168758 0.392501 -0.484116
v 2.168758 0.117501 0.484115
v 2.168758 0.392501 0.484115
v -0.038125 0.732793 -0.622206
v -0.381875 0.732794 -0.622206
v -0.038125 0.365001 -0.469861
v -0.381875 0.365001 -0.469861
v -0.038125 -0.002792 -0.622206
v -0.381875 -0.002792 -0.622206
v -0.038125 -0.155136 -0.989999
v -0.381875 -0.155136 -0.989999
v -0.038126 -0.002792 -1.357791
v -0.381876 -0.002792 -1.357791
v -0.038126 0.365001 -1.510136
v -0.381876 0.365001 -1.510136
v -0.038126 0.732793 -1.357791
v -0.381876 0.732794 -1.357791
v -0.038125 0.885138 -0.989999
v -0.381875 0.885138 -0.989998
v -0.240978 0.732793 1.530932
v -0.386257 0.732793 1.219391
v -0.379048 0.365000 1.595318
v -0.524327 0.365001 1.283777
v -0.240978 -0.002792 1.530932
v -0.386257 -0.002792 1.219391
v 0.092353 -0.155137 1.375492
v -0.052926 -0.155137 1.063950
v 0.425685 -0.002792 1.220051
v 0.280405 -0.002792 0.908510
v 0.563755 0.365000 1.155666
v 0.418475 0.365000 0.844124
v 0.425685 0.732793 1.220051
v 0.280405 0.732793 0.908510
v 0.092353 0.885138 1.375492
v -0.052926 0.885138 1.063951
v 1.730306 0.624674 1.058750
v 1.730305 0.624675 -1.058750
v 1.622746 0.365000 1.058750
v 1.622744 0.365000 -1.058750
v 1.730306 0.105325 1.058750
v 1.730305 0.105326 -1.058750
v 1.989981 -0.002235 1.058749
v 1.989980 -0.002235 -1.058751
v 2.249656 0.105325 1.058749
v 2.249654 0.105326 -1.058751
v 2.357216 0.365000 1.058749
v 2.357215 0.365000 -1.058751
v 2.249655 0.624674 1.058749
v 2.249654 0.624674 -1.058751
v 1.989981 0.732235 1.058749
v 1.989979 0.732235 -1.058751
v 1.622198 0.732793 1.381875
v 1.622198 0.732793 1.038125
v 1.469854 0.365001 1.381875
v 1.469853 0.365001 1.038125
v 1.622198 -0.002792 1.381875
v 1.622198 -0.002792 1.038125
v 1.989991 -0.155136 1.381874
v 1.989991 -0.155136 1.038124
v 2.357783 -0.002792 1.381874
v 2.357783 -0.002792 1.038124
v 2.510128 0.365001 1.381874
v 2.510128 0.365001 1.038124
v 2.357783 0.732793 1.381874
v 2.357783 0.732793 1.038124
v 1.989991 0.885138 1.381874
v 1.989991 0.885138 1.038124
v -0.175625 0.897813 1.175625
v -0.175625 0.382188 1.175625
v -0.175625 0.897813 -1.175625
v -0.175625 0.382188 -1.175625
v 2.175625 0.897813 1.175625
v 2.175625 0.382188 1.175625
v 2.175625 0.897813 -1.175625
v 2.175625 0.382188 -1.175625
v 1.622197 0.732793 -1.038125
v 2.381875 0.732792 -0.622207
v 1.622196 0.732794 -1.381875
v 2.038125 0.732792 -0.622207
v 1.469852 0.365001 -1.038125
v 2.381875 0.364999 -0.469863
v 1.469852 0.365001 -1.381875
v 2.038125 0.364999 -0.469862
v 1.622197 -0.002792 -1.038125
v 2.381875 -0.002793 -0.622207
v 1.622196 -0.002792 -1.381875
v 2.038125 -0.002793 -0.622207
v 1.989989 -0.155136 -1.038125
v 2.381875 -0.155138 -0.990000
v 1.989989 -0.155136 -1.381876
v 2.038125 -0.155138 -0.990000
v 2.381875 -0.002793 -1.357792
v 2.357781 -0.002792 -1.381876
v 2.381875 0.732792 -1.357792
v 2.357781 0.732794 -1.381876
v 1.989989 0.885138 -1.038125
v 2.381875 0.885136 -0.990000
v 1.989989 0.885138 -1.381875
v 2.038125 0.885136 -0.990000
v 2.357777 -0.002793 -1.357792
v 2.357781 -0.002792 -1.357793
v 2.038125 -0.135198 -1.038126
v 2.038125 -0.135198 -1.038140
v 2.381864 0.055349 -1.381876
v 2.381875 0.055375 -1.381876
v 2.381866 0.674649 -1.381876
v 2.381875 0.674627 -1.381876
v 2.357782 0.732792 -1.357792
v 2.357781 0.732794 -1.357788
v 2.038125 0.865200 -1.038131
v 2.038125 0.865200 -1.038125
v 2.058750 0.624674 -0.730315
v -0.058750 0.624675 -0.730314
v 2.058750 0.365000 -0.622754
v -0.058750 0.365000 -0.622753
v 2.058750 0.105325 -0.730315
v -0.058750 0.105326 -0.730314
v 2.058750 -0.002235 -0.989990
v -0.058750 -0.002235 -0.989989
v 2.058750 0.105325 -1.249664
v -0.058750 0.105326 -1.249663
v 2.058750 0.365000 -1.357225
v -0.058750 0.365000 -1.357224
v 2.058750 0.624674 -1.249664
v -0.058750 0.624674 -1.249663
v 2.058750 0.732235 -0.989989
v -0.058750 0.732235 -0.989989
vn -0.0000 1.0000 -0.0000
vn -0.0000 -0.0000 -1.0000
vn 1.0000 -0.0000 -0.0000
vn -0.0000 -1.0000 -0.0000
vn -1.0000 -0.0000 -0.0000
vn -0.0000 -0.0000 1.0000
vn -0.3904 0.3827 0.8373
vn -0.3904 -0.3827 0.8373
vn -0.1617 -0.9239 0.3468
vn 0.1617 -0.9239 -0.3468
vn 0.3904 -0.3827 -0.8373
vn 0.3904 0.3827 -0.8373
vn -0.9063 -0.0000 -0.4226
vn 0.1617 0.9239 -0.3468
vn -0.1617 0.9239 0.3468
vn 0.9063 -0.0000 0.4226
vn -0.7071 -0.0000 0.7071
vn -0.7071 -0.0000 -0.7071
vn 0.7071 -0.0000 -0.7071
vn 0.7071 -0.0000 0.7071
vn -0.0000 0.3827 0.9239
vn -0.0000 -0.3827 0.9239
vn -0.0000 -0.9239 0.3827
vn -0.0000 -0.9239 -0.3827
vn -0.0000 -0.3827 -0.9239
vn -0.0000 0.3827 -0.9239
vn -0.0000 0.9239 -0.3827
vn -0.0000 0.9239 0.3827
vn -0.8373 0.3827 0.3905
vn -0.8373 -0.3827 0.3905
vn -0.3468 -0.9239 0.1617
vn 0.3468 -0.9239 -0.1617
vn 0.8373 -0.3827 -0.3905
vn 0.8373 0.3827 -0.3905
vn -0.4226 -0.0000 -0.9063
vn 0.3468 0.9239 -0.1617
vn -0.3468 0.9239 0.1617
vn 0.4226 -0.0000 0.9063
vn -0.9239 0.3827 -0.0000
vn -0.9239 -0.3827 -0.0000
vn -0.3827 -0.9239 -0.0000
vn 0.3827 -0.9239 -0.0000
vn 0.9239 -0.3827 -0.0000
vn 0.9239 0.3827 -0.0000
vn 0.3827 0.9239 -0.0000
vn -0.3827 0.9239 -0.0000
vn 0.6670 0.2773 -0.6915
vn -0.0000 -0.3174 -0.9483
vn 0.3752 -0.9269 -0.0000
vn 0.4190 -0.9080 -0.0000
vn 0.9082 0.4186 -0.0000
vn 0.3914 0.9202 -0.0000
vn -0.0000 0.9245 -0.3811
vn -0.0000 -0.3825 -0.9239
vt 1.000000 1.000000
vt 0.000000 -0.000000
vt 1.000000 0.000000
vt 1.000000 0.250000
vt 0.000000 0.312500
vt 1.000000 0.312500
vt 1.000000 0.187500
vt 0.000000 0.250000
vt 0.375000 0.500000
vt 0.125000 0.750000
vt 0.125000 0.500000
vt 1.000000 0.062500
vt 0.000000 0.125000
vt 1.000000 0.125000
vt 0.000000 0.187500
vt 0.875000 0.500000
vt 0.625000 0.750000
vt 0.625000 0.500000
vt 0.375000 1.000000
vt 0.375000 0.750000
vt 0.625000 0.000000
vt 0.375000 0.250000
vt 0.375000 0.000000
vt 0.625000 0.250000
vt 0.625000 1.000000
vt 0.812500 0.750000
vt 0.812500 1.000000
vt 0.692694 0.724861
vt 0.692694 0.279533
vt 0.247366 0.279533
vt 0.200060 0.375761
vt 0.624239 0.200060
vt 0.799940 0.624239
vt 0.937500 0.625000
vt 0.500000 0.500000
vt 0.937500 0.500000
vt 0.437500 0.625000
vt 0.000000 0.500000
vt 0.437500 0.500000
vt 0.414228 0.999936
vt 0.000064 0.000064
vt 0.414228 0.000064
vt 0.414228 0.999936
vt 0.000064 0.000064
vt 0.414228 0.000064
vt 0.292935 0.000100
vt 0.707065 0.000100
vt 0.292935 0.999900
vt 0.000064 0.000064
vt 0.414228 0.000064
vt 0.414228 0.999936
vt 0.000064 0.000064
vt 0.414228 0.000064
vt 0.292935 0.999900
vt 0.000100 0.292935
vt 0.707065 0.000100
vt 0.247366 0.724861
vt 0.247366 0.279533
vt 0.692694 0.279533
vt 0.375761 0.799940
vt 0.000100 0.292935
vt 0.155136 0.502197
vt 0.470030 0.187303
vt 0.784925 0.502197
vt 0.257763 0.999964
vt 0.125037 0.000036
vt 0.257764 0.000036
vt 0.757763 0.999964
vt 0.625037 0.000036
vt 0.757764 0.000036
vt 0.632763 0.999964
vt 0.500037 0.000036
vt 0.632764 0.000036
vt 0.507763 0.999964
vt 0.375037 0.000036
vt 0.507764 0.000036
vt 0.382763 0.999964
vt 0.250037 0.000036
vt 0.382764 0.000036
vt 0.132763 0.999964
vt 0.000037 0.000036
vt 0.132764 0.000036
vt 0.799940 0.375761
vt 0.470030 0.817091
vt 0.470030 0.187303
vt -0.000000 0.750000
vt 1.000000 0.750000
vt 0.125000 0.625000
vt 0.250000 0.375000
vt 0.250000 0.625000
vt 0.414228 0.929886
vt 0.348757 0.999936
vt 0.000065 0.999936
vt 0.000064 0.929884
vt 0.065539 0.999936
vt 0.224837 0.311364
vt 0.220867 0.685927
vt 0.774495 0.504491
vt 0.187500 0.375000
vt 0.223055 0.352766
vt 0.799940 0.591719
vt 0.000064 0.000064
vt 0.414227 0.999936
vt 0.000064 0.999935
vt 0.414226 0.000064
vt 0.000063 0.999936
vt 0.000063 0.000065
vt 0.414227 0.000064
vt 0.000064 0.999936
vt 0.652876 0.999900
vt 0.254619 0.038423
vt 0.999899 0.292934
vt 0.125000 0.375000
vt 0.246641 0.953606
vt 0.799940 0.375760
vt 0.000064 0.929886
vt 0.375761 0.200060
vt 0.000064 0.070158
vt 0.414228 0.999936
vt 0.000064 0.999936
vt 0.382764 0.000036
vt 0.229047 0.690376
vt 0.228673 0.690362
vt 0.780017 0.503417
vt -0.000000 1.000000
vt 0.000000 0.062500
vt 0.875000 0.750000
vt 0.155136 0.502197
vt 0.247366 0.724861
vt 0.470030 0.817091
vt 0.470030 0.187303
vt 0.624239 0.799940
vt 0.200060 0.624239
vt 0.500000 0.625000
vt 0.000000 0.625000
vt 0.000064 0.999936
vt 0.999900 0.292934
vt 0.999900 0.707065
vt 0.707065 0.999900
vt 0.000100 0.707065
vt 0.000064 0.999936
vt 0.000064 0.999936
vt 0.999900 0.292935
vt 0.999900 0.707065
vt 0.707065 0.999900
vt 0.000100 0.707065
vt 0.292935 0.000100
vt 0.784925 0.502197
vt 0.692694 0.724861
vt 0.155136 0.502197
vt 0.470030 0.187303
vt 0.470031 0.817091
vt 0.247367 0.279533
vt 0.692694 0.279533
vt 0.692694 0.724861
vt 0.125036 0.999964
vt 0.625036 0.999964
vt 0.500036 0.999964
vt 0.375036 0.999964
vt 0.250037 0.999964
vt 0.000036 0.999964
vt 0.247366 0.279533
vt 0.247367 0.724861
vt 0.000064 0.929872
vt 0.235061 0.721263
vt 0.456549 0.815769
vt 0.679990 0.725979
vt 0.684706 0.281050
vt 0.463218 0.186544
vt 0.239777 0.276334
vt 0.414227 0.000064
vt 0.414227 0.999936
vt 0.254606 0.038429
vt 0.292934 0.000100
vt 0.652869 0.999900
vt 0.000065 0.999936
vt 0.414228 0.070143
vt 0.415056 0.200066
vt 0.414228 0.000064
vt 0.375037 0.999964
vt 0.229107 0.316279
vt 0.229078 0.316249
vt 0.243667 0.281144
vt 0.465862 0.189153
vt 0.688026 0.281221
vt 0.687948 0.725580
vt 0.465753 0.817571
vt 0.243590 0.725502
s 0
usemtl ionic_volute
f 2/9/4 8/10/4 6/11/4
f 30/28/13 26/29/13 22/30/13
f 62/57/5 58/58/5 54/59/5
f 67/62/38 71/63/38 75/64/38
f 111/84/6 99/64/6 103/85/6
f 146/91/43 138/40/43 149/92/43
f 140/93/44 153/94/44 151/95/44
f 150/96/3 152/97/3 126/98/3
f 130/108/23 136/109/23 134/49/23
f 151/114/47 139/115/47 152/2/47
f 146/116/48 137/117/48 145/118/48
f 151/122/2 152/123/2 127/124/2
f 2/9/4 4/20/4 8/10/4
f 22/30/13 20/128/13 30/28/13
f 20/128/13 18/129/13 30/28/13
f 18/129/13 32/130/13 30/28/13
f 30/28/13 28/64/13 26/29/13
f 26/29/13 24/131/13 22/30/13
f 54/59/5 52/148/5 50/149/5
f 50/149/5 64/130/5 62/57/5
f 62/57/5 60/150/5 58/58/5
f 58/58/5 56/151/5 54/59/5
f 54/59/5 50/149/5 62/57/5
f 79/152/38 65/57/38 67/62/38
f 67/62/38 69/153/38 71/63/38
f 71/63/38 73/154/38 75/64/38
f 75/64/38 77/155/38 79/152/38
f 79/152/38 67/62/38 75/64/38
f 111/84/6 97/149/6 99/64/6
f 99/64/6 101/59/6 103/85/6
f 103/85/6 105/162/6 107/150/6
f 107/150/6 109/163/6 103/85/6
f 109/163/6 111/84/6 103/85/6
f 140/93/51 154/164/51 153/94/51
f 152/97/3 139/165/3 142/166/3
f 142/166/3 122/167/3 152/97/3
f 122/167/3 126/98/3 152/97/3
f 126/98/3 130/168/3 150/96/3
f 130/168/3 134/169/3 150/96/3
f 134/169/3 137/170/3 150/96/3
f 130/108/23 132/40/23 136/109/23
f 151/114/26 153/177/26 139/115/26
f 146/116/54 150/178/54 137/117/54
f 150/181/2 149/182/2 138/183/2
f 138/183/2 135/184/2 150/181/2
f 135/184/2 131/185/2 150/181/2
f 131/185/2 127/124/2 150/181/2
f 127/124/2 123/186/2 151/122/2
f 150/181/2 127/124/2 152/123/2
f 123/186/2 143/187/2 151/122/2
f 143/187/2 140/188/2 151/122/2
usemtl ionic_egg
f 3/4/2 8/5/2 4/6/2
f 7/7/3 6/8/3 8/4/3
f 1/12/5 4/13/5 2/14/5
f 5/14/6 2/15/6 6/7/6
f 34/34/6 35/35/6 33/36/6
f 36/37/17 37/38/17 35/39/17
f 38/37/5 39/38/5 37/39/5
f 40/37/18 41/38/18 39/39/18
f 42/40/2 43/41/2 41/42/2
f 44/43/19 45/44/19 43/45/19
f 40/46/1 38/47/1 46/48/1
f 46/40/3 47/49/3 45/50/3
f 48/51/20 33/52/20 47/53/20
f 117/16/1 115/17/1 113/18/1
f 115/1/2 120/86/2 116/87/2
f 119/1/3 118/86/3 120/87/3
f 114/9/4 120/10/4 118/11/4
f 113/1/5 116/86/5 114/87/5
f 117/1/6 114/86/6 118/87/6
f 3/4/2 7/8/2 8/5/2
f 7/7/3 5/15/3 6/8/3
f 1/12/5 3/126/5 4/13/5
f 5/14/6 1/13/6 2/15/6
f 34/34/6 36/134/6 35/35/6
f 36/37/17 38/135/17 37/38/17
f 38/37/5 40/135/5 39/38/5
f 40/37/18 42/135/18 41/38/18
f 42/40/2 44/136/2 43/41/2
f 44/43/19 46/93/19 45/44/19
f 38/47/1 36/137/1 34/138/1
f 34/138/1 48/139/1 38/47/1
f 48/139/1 46/48/1 38/47/1
f 46/48/1 44/140/1 42/61/1
f 42/61/1 40/46/1 46/48/1
f 46/40/3 48/141/3 47/49/3
f 48/51/20 34/142/20 33/52/20
f 117/16/1 119/127/1 115/17/1
f 115/1/2 119/125/2 120/86/2
f 119/1/3 117/125/3 118/86/3
f 114/9/4 116/20/4 120/10/4
f 113/1/5 115/125/5 116/86/5
f 117/1/6 113/125/6 114/86/6
usemtl ionic_capital
f 5/1/1 3/2/1 1/3/1
f 13/16/1 11/17/1 9/18/1
f 11/17/2 16/19/2 12/20/2
f 15/21/3 14/22/3 16/23/3
f 10/9/4 16/10/4 14/11/4
f 9/18/5 12/20/5 10/9/5
f 13/24/6 10/9/6 14/22/6
f 18/25/7 19/26/7 17/27/7
f 20/25/8 21/26/8 19/27/8
f 22/25/9 23/26/9 21/27/9
f 24/25/10 25/26/10 23/27/10
f 26/25/11 27/26/11 25/27/11
f 28/25/12 29/26/12 27/27/12
f 29/27/14 32/17/14 31/26/14
f 32/25/15 17/26/15 31/27/15
f 23/31/16 27/32/16 31/33/16
f 39/54/4 43/55/4 47/56/4
f 50/25/21 51/26/21 49/27/21
f 52/25/22 53/26/22 51/27/22
f 54/25/23 55/26/23 53/27/23
f 56/25/24 57/26/24 55/27/24
f 58/25/25 59/26/25 57/27/25
f 60/25/26 61/26/26 59/27/26
f 62/25/27 63/26/27 61/27/27
f 63/27/28 50/17/28 49/26/28
f 63/33/3 51/60/3 55/31/3
f 65/27/29 68/17/29 67/26/29
f 68/25/30 69/26/30 67/27/30
f 70/25/31 71/26/31 69/27/31
f 72/25/32 73/26/32 71/27/32
f 73/27/33 76/17/33 75/26/33
f 75/27/34 78/17/34 77/26/34
f 78/48/35 74/61/35 70/47/35
f 78/25/36 79/26/36 77/27/36
f 80/25/37 65/26/37 79/27/37
f 82/65/39 83/66/39 81/67/39
f 84/68/40 85/69/40 83/70/40
f 86/71/41 87/72/41 85/73/41
f 88/74/42 89/75/42 87/76/42
f 90/77/43 91/78/43 89/79/43
f 92/65/44 93/66/44 91/67/44
f 88/46/2 86/47/2 94/48/2
f 94/80/45 95/81/45 93/82/45
f 96/51/46 81/52/46 95/53/46
f 93/83/6 95/33/6 87/31/6
f 98/25/39 99/26/39 97/27/39
f 100/25/40 101/26/40 99/27/40
f 101/27/41 104/17/41 103/26/41
f 103/27/42 106/17/42 105/26/42
f 106/25/43 107/26/43 105/27/43
f 107/27/44 110/17/44 109/26/44
f 110/48/2 106/61/2 102/47/2
f 110/25/45 111/26/45 109/27/45
f 112/25/46 97/26/46 111/27/46
f 123/25/39 125/26/39 121/27/39
f 127/25/40 129/26/40 125/27/40
f 129/27/41 135/17/41 133/26/41
f 145/88/42 148/89/42 135/90/42
f 155/99/45 154/90/45 143/88/45
f 143/51/46 121/52/46 141/53/46
f 147/100/6 156/101/6 125/60/6
f 124/102/21 126/103/21 122/104/21
f 126/105/22 132/106/22 130/107/22
f 134/89/24 136/90/24 148/90/24
f 156/110/5 147/111/5 128/112/5
f 154/90/27 155/90/27 142/113/27
f 144/51/28 122/52/28 142/53/28
f 158/102/21 159/119/21 157/120/21
f 160/68/22 161/69/22 159/70/22
f 162/71/23 163/72/23 161/73/23
f 164/74/24 165/75/24 163/76/24
f 166/77/25 167/78/25 165/121/25
f 168/65/26 169/66/26 167/67/26
f 164/46/5 162/47/5 170/48/5
f 170/80/27 171/81/27 169/82/27
f 172/51/28 157/52/28 171/53/28
f 169/83/3 171/33/3 163/31/3
f 5/1/1 7/125/1 3/2/1
f 13/16/1 15/127/1 11/17/1
f 11/17/2 15/25/2 16/19/2
f 15/21/3 13/24/3 14/22/3
f 10/9/4 12/20/4 16/10/4
f 9/18/5 11/17/5 12/20/5
f 13/24/6 9/18/6 10/9/6
f 18/25/7 20/17/7 19/26/7
f 20/25/8 22/17/8 21/26/8
f 22/25/9 24/17/9 23/26/9
f 24/25/10 26/17/10 25/26/10
f 26/25/11 28/17/11 27/26/11
f 28/25/12 30/17/12 29/26/12
f 29/27/14 30/25/14 32/17/14
f 32/25/15 18/17/15 17/26/15
f 31/33/16 17/132/16 19/60/16
f 19/60/16 21/133/16 23/31/16
f 23/31/16 25/117/16 27/32/16
f 27/32/16 29/83/16 31/33/16
f 31/33/16 19/60/16 23/31/16
f 47/56/4 33/143/4 35/144/4
f 35/144/4 37/145/4 39/54/4
f 39/54/4 41/146/4 43/55/4
f 43/55/4 45/147/4 47/56/4
f 47/56/4 35/144/4 39/54/4
f 50/25/21 52/17/21 51/26/21
f 52/25/22 54/17/22 53/26/22
f 54/25/23 56/17/23 55/26/23
f 56/25/24 58/17/24 57/26/24
f 58/25/25 60/17/25 59/26/25
f 60/25/26 62/17/26 61/26/26
f 62/25/27 64/17/27 63/26/27
f 63/27/28 64/25/28 50/17/28
f 63/33/3 49/132/3 51/60/3
f 51/60/3 53/133/3 55/31/3
f 55/31/3 57/117/3 59/32/3
f 59/32/3 61/83/3 55/31/3
f 61/83/3 63/33/3 55/31/3
f 65/27/29 66/25/29 68/17/29
f 68/25/30 70/17/30 69/26/30
f 70/25/31 72/17/31 71/26/31
f 72/25/32 74/17/32 73/26/32
f 73/27/33 74/25/33 76/17/33
f 75/27/34 76/25/34 78/17/34
f 70/47/35 68/137/35 66/138/35
f 66/138/35 80/139/35 78/48/35
f 78/48/35 76/140/35 74/61/35
f 74/61/35 72/46/35 70/47/35
f 70/47/35 66/138/35 78/48/35
f 78/25/36 80/17/36 79/26/36
f 80/25/37 66/17/37 65/26/37
f 82/65/39 84/156/39 83/66/39
f 84/68/40 86/157/40 85/69/40
f 86/71/41 88/158/41 87/72/41
f 88/74/42 90/159/42 89/75/42
f 90/77/43 92/160/43 91/78/43
f 92/65/44 94/156/44 93/66/44
f 86/47/2 84/137/2 82/138/2
f 82/138/2 96/139/2 86/47/2
f 96/139/2 94/48/2 86/47/2
f 94/48/2 92/140/2 90/61/2
f 90/61/2 88/46/2 94/48/2
f 94/80/45 96/161/45 95/81/45
f 96/51/46 82/142/46 81/52/46
f 95/33/6 81/132/6 83/60/6
f 83/60/6 85/133/6 95/33/6
f 85/133/6 87/31/6 95/33/6
f 87/31/6 89/117/6 91/32/6
f 91/32/6 93/83/6 87/31/6
f 98/25/39 100/17/39 99/26/39
f 100/25/40 102/17/40 101/26/40
f 101/27/41 102/25/41 104/17/41
f 103/27/42 104/25/42 106/17/42
f 106/25/43 108/17/43 107/26/43
f 107/27/44 108/25/44 110/17/44
f 102/47/2 100/137/2 98/138/2
f 98/138/2 112/139/2 110/48/2
f 110/48/2 108/140/2 106/61/2
f 106/61/2 104/46/2 102/47/2
f 102/47/2 98/138/2 110/48/2
f 110/25/45 112/17/45 111/26/45
f 112/25/46 98/17/46 97/26/46
f 123/25/39 127/17/39 125/26/39
f 127/25/40 131/17/40 129/26/40
f 129/27/41 131/25/41 135/17/41
f 148/89/49 147/89/49 133/89/49
f 133/89/42 135/90/42 148/89/42
f 135/90/42 138/88/42 145/88/42
f 138/88/50 146/88/50 145/88/50
f 140/90/45 143/88/45 154/90/45
f 143/88/45 141/113/45 155/99/45
f 141/113/52 156/99/52 155/99/52
f 143/51/46 123/142/46 121/52/46
f 156/101/6 141/33/6 121/132/6
f 121/132/6 125/60/6 156/101/6
f 125/60/6 129/133/6 147/100/6
f 129/133/6 133/31/6 147/100/6
f 124/102/21 128/171/21 126/103/21
f 126/105/22 128/172/22 132/106/22
f 148/90/24 145/113/24 134/89/24
f 145/113/24 137/113/24 134/89/24
f 147/111/5 148/173/5 136/174/5
f 136/174/5 132/47/5 147/111/5
f 132/47/5 128/112/5 147/111/5
f 128/112/5 124/138/5 156/110/5
f 124/138/5 144/139/5 156/110/5
f 144/139/5 155/175/5 156/110/5
f 155/90/27 144/88/27 142/113/27
f 142/113/27 139/99/27 154/90/27
f 139/99/53 153/99/53 154/90/53
f 144/51/28 124/176/28 122/52/28
f 158/102/21 160/179/21 159/119/21
f 160/68/22 162/157/22 161/69/22
f 162/71/23 164/158/23 163/72/23
f 164/74/24 166/180/24 165/75/24
f 166/77/25 168/160/25 167/78/25
f 168/65/26 170/156/26 169/66/26
f 162/47/5 160/137/5 158/138/5
f 158/138/5 172/139/5 162/47/5
f 172/139/5 170/48/5 162/47/5
f 170/48/5 168/140/5 166/61/5
f 166/61/5 164/46/5 170/48/5
f 170/80/27 172/161/27 171/81/27
f 172/51/28 158/142/28 157/52/28
f 171/33/3 157/132/3 159/60/3
f 159/60/3 161/133/3 171/33/3
f 161/133/3 163/31/3 171/33/3
f 163/31/3 165/117/3 167/32/3
f 167/32/3 169/83/3 163/31/3
