# Blender 5.1.2
# www.blender.org
mtllib giant_tuscan_capital.mtl
o Cube.292
v 0.999999 -0.099998 0.000005
v -0.312059 1.000001 1.312058
v -0.312059 0.725000 1.312058
v 0.510116 -0.099998 1.182685
v 0.510116 0.093261 1.182685
v -0.182682 -0.099998 0.489885
v -0.182682 0.093261 0.489885
v 0.576829 0.093261 1.021628
v -0.021624 0.093261 0.423173
v 0.999999 -0.099998 1.182685
v 0.576829 0.533261 1.021628
v -0.021624 0.533261 0.423173
v 0.528475 0.533261 1.138364
v -0.138360 0.533261 0.471528
v 0.456528 0.615763 1.312058
v -0.312055 0.615763 0.543478
v -0.312058 0.725257 0.543478
v 0.458407 0.725188 1.312058
v 0.999999 1.000001 1.312058
v 0.999999 -0.099998 1.182685
v 0.999999 0.093261 1.182685
v 0.999999 0.093261 1.021628
v 0.999999 0.533261 1.021628
v 0.999999 0.533261 1.138364
v 0.999999 0.615763 1.312058
v 1.000938 0.725222 1.312058
v -0.312059 1.000001 0.000000
v 0.999999 1.000001 0.000000
v -0.182682 -0.099998 0.000005
v -0.182682 0.093261 0.000005
v -0.021624 0.093261 0.000005
v -0.021624 0.533261 0.000005
v -0.138360 0.533261 0.000005
v -0.312055 0.615763 0.000007
v -0.312058 0.725257 0.000007
v 0.999999 -0.099998 0.000005
v 0.999999 1.000001 0.000000
v -0.182682 -0.099998 0.000005
vn -0.0000 1.0000 -0.0000
vn -0.0000 -0.0000 1.0000
vn -0.7071 -0.0000 0.7071
vn -1.0000 -0.0000 -0.0000
vn -0.4290 -0.9033 -0.0000
vn -0.0000 -1.0000 -0.0000
vn -0.3034 -0.9033 0.3034
vn 0.0002 -1.0000 -0.0003
vn -0.0000 -0.9033 0.4290
vn 1.0000 -0.0000 -0.0000
vn -0.7062 0.0121 0.7079
vn 1.0000 0.0034 -0.0055
vn 1.0000 -0.0086 0.0041
vn 1.0000 -0.0049 -0.0000
vn -0.0000 -0.0000 -1.0000
vt 0.999899 0.000100
vt 0.000100 0.999900
vt 0.000100 0.000100
vt 0.873326 0.205603
vt 0.384486 0.047497
vt 0.873326 0.047497
vt 0.217482 0.100099
vt 0.024224 0.899901
vt 0.024225 0.100099
vt 0.534093 0.977592
vt 0.652061 0.146906
vt 0.652061 0.912985
vt 0.659091 0.538068
vt 0.777063 0.155016
vt 0.777063 0.538068
vt 0.887136 0.067718
vt 0.175364 0.494782
vt 0.175364 0.067718
vt 0.974818 0.005218
vt 0.618932 0.432282
vt 0.618932 0.005218
vt 0.832892 0.092257
vt 0.978471 0.525985
vt 0.832892 0.525985
vt 0.573298 0.761181
vt 0.487557 0.373048
vt 0.573298 0.373048
vt 0.000051 0.000051
vt 0.256539 0.000056
vt 0.256539 0.414226
vt 0.198298 0.824896
vt 0.112557 0.013113
vt 0.198298 0.048628
vt 0.290801 0.890337
vt 0.819605 0.798570
vt 0.820522 0.890337
vt 0.020392 0.066272
vt 0.165971 0.999908
vt 0.020392 0.933728
vt 0.009059 0.390348
vt 0.990456 0.298587
vt 0.992157 0.390348
vt 0.812484 0.814477
vt 0.185070 0.814477
vt 0.812483 0.185523
vt 0.687551 0.000051
vt 0.944095 0.000051
vt 0.943919 0.586791
vt 0.586005 0.128839
vt 0.981719 0.060070
vt 0.983093 0.128839
vt 0.207892 0.532743
vt 0.353471 0.099015
vt 0.353471 0.598923
vt 0.948298 0.549842
vt 0.862557 0.937976
vt 0.862557 0.514328
vt 0.034091 0.334324
vt 0.152063 0.717376
vt 0.034091 0.781985
vt 0.370219 0.317718
vt 0.014333 0.744782
vt 0.014333 0.317718
vt 0.617896 0.268103
vt 0.129056 0.109997
vt 0.617896 0.109997
vt 0.973178 0.998899
vt 0.000099 0.998928
vt 0.215921 0.575099
vt 0.972191 0.999028
vt 0.095951 0.999901
vt 0.095950 0.999025
vt 0.585529 0.000514
vt 0.999486 0.000100
vt 0.999487 0.000514
vt 0.999899 0.999900
vt 0.384486 0.205603
vt 0.217482 0.899901
vt 0.534093 0.082300
vt 0.659091 0.090407
vt 0.887136 0.494782
vt 0.974818 0.432282
vt 0.978471 0.026077
vt 0.487557 0.796696
vt 0.256779 0.999949
vt 0.000051 0.999949
vt 0.112557 0.860410
vt 0.290801 0.798541
vt 0.165971 0.000092
vt 0.009059 0.298530
vt 0.943887 0.999949
vt 0.687551 0.999234
vt 0.585317 0.060049
vt 0.207892 0.099015
vt 0.948298 0.937976
vt 0.152063 0.334324
vt 0.370219 0.744782
vt 0.129056 0.268103
vt 0.000347 0.749284
vt 0.000447 0.649835
vt 0.129344 0.575011
vt 0.215921 0.175579
vt 0.096541 0.175579
vt 0.096541 0.000099
vt 0.973175 0.000099
vt 0.973190 0.999901
vt 0.095951 0.823624
vt 0.215277 0.823624
vt 0.215279 0.424283
vt 0.128790 0.424282
vt 0.000099 0.250028
vt 0.000100 0.349404
vt 0.000099 0.000671
vt 0.972194 0.000674
vt 0.973194 0.000099
vt 0.999487 0.999900
vt 0.000100 0.999900
vt 0.000100 0.585941
s 0
usemtl ionic_capital
f 27/1/1 19/2/1 28/3/1
f 21/4/2 4/5/2 20/6/2
f 5/7/3 6/8/3 4/9/3
f 7/10/1 8/11/1 9/12/1
f 30/13/1 9/14/1 31/15/1
f 8/16/3 12/17/3 9/18/3
f 9/19/4 32/20/4 31/21/4
f 14/22/5 34/23/5 33/24/5
f 12/25/6 33/26/6 32/27/6
f 27/28/4 35/29/4 17/30/4
f 11/31/6 14/32/6 12/33/6
f 16/34/4 35/35/4 34/36/4
f 13/37/7 16/38/7 14/39/7
f 15/40/3 17/41/3 16/42/3
f 3/43/8 17/44/8 18/45/8
f 2/46/2 3/47/2 18/48/2
f 25/49/2 18/50/2 15/51/2
f 13/52/9 25/53/9 15/54/9
f 11/55/6 24/56/6 13/57/6
f 21/58/1 8/59/1 5/60/1
f 22/61/2 11/62/2 8/63/2
f 7/64/4 29/65/4 6/66/4
f 37/67/10 19/68/10 23/69/10
f 36/70/1 38/71/1 29/72/1
f 6/73/1 29/74/1 38/75/1
f 27/1/1 2/76/1 19/2/1
f 21/4/2 5/77/2 4/5/2
f 5/7/3 7/78/3 6/8/3
f 7/10/1 5/79/1 8/11/1
f 30/13/1 7/80/1 9/14/1
f 8/16/3 11/81/3 12/17/3
f 9/19/4 12/82/4 32/20/4
f 14/22/5 16/83/5 34/23/5
f 12/25/6 14/84/6 33/26/6
f 17/30/4 3/85/4 2/86/4
f 2/86/4 27/28/4 17/30/4
f 11/31/6 13/87/6 14/32/6
f 16/34/4 17/88/4 35/35/4
f 13/37/7 15/89/7 16/38/7
f 15/40/11 18/90/11 17/41/11
f 26/91/2 19/92/2 18/48/2
f 19/92/2 2/46/2 18/48/2
f 25/49/2 26/93/2 18/50/2
f 13/52/9 24/94/9 25/53/9
f 11/55/6 23/95/6 24/56/6
f 21/58/1 22/96/1 8/59/1
f 22/61/2 23/97/2 11/62/2
f 7/64/4 30/98/4 29/65/4
f 19/68/12 26/99/12 23/69/12
f 26/99/13 25/100/13 24/101/13
f 23/69/14 26/99/14 24/101/14
f 22/102/10 21/103/10 20/104/10
f 22/102/10 20/104/10 36/105/10
f 23/69/10 22/102/10 36/105/10
f 23/69/10 36/105/10 37/67/10
f 37/67/1 28/106/1 19/68/1
f 29/72/15 30/107/15 31/108/15
f 32/109/15 33/110/15 35/111/15
f 33/110/15 34/112/15 35/111/15
f 32/109/15 35/111/15 27/113/15
f 28/114/1 37/115/1 36/70/1
f 32/109/15 27/113/15 28/114/15
f 31/108/15 32/109/15 36/70/15
f 32/109/15 28/114/15 36/70/15
f 29/72/15 31/108/15 36/70/15
f 36/116/6 20/117/6 4/118/6
f 38/75/6 36/116/6 6/73/6
f 36/116/6 4/118/6 6/73/6
l 10 1
