# Blender 5.1.2
# www.blender.org
mtllib giant_roman_doric_capital.mtl
o Cube.295
v 0.490472 -0.792929 1.230108
v 0.490472 -0.533354 1.230108
v -0.230109 -0.792929 0.509527
v -0.230109 -0.533354 0.509527
v 0.583440 -0.533354 1.005664
v -0.005665 -0.533354 0.416559
v 0.583440 -0.249793 1.005664
v -0.005665 -0.249793 0.416559
v 0.552378 -0.249793 1.080654
v -0.080654 -0.249793 0.447621
v 0.552378 -0.001678 1.080654
v -0.080654 -0.001678 0.447621
v 0.450570 0.352773 1.326440
v -0.326441 0.352773 0.549430
v 0.450570 0.565444 1.326440
v -0.326441 0.565444 0.549430
v -0.567523 0.813559 1.567523
v -0.567523 1.001659 1.567523
v -0.326441 0.565438 1.326441
v -0.567523 0.813559 0.000000
v -0.567523 1.001659 0.000000
v -0.326441 0.565438 0.000000
v 1.000000 0.813559 1.567523
v 1.000000 1.001659 1.567523
v 1.000000 0.565438 1.326441
v 1.000000 0.565438 0.000000
v 1.000000 1.001659 0.000000
v 1.000000 -0.792929 1.230108
v 1.000000 -0.533354 1.230108
v 1.000000 -0.533354 1.005664
v 1.000000 -0.249793 1.005664
v 1.000000 -0.249793 1.080654
v 1.000000 -0.001678 1.080654
v 1.000000 0.352773 1.326440
v 1.000000 0.565444 1.326440
v -0.230109 -0.792929 -0.000000
v -0.230109 -0.533354 -0.000000
v -0.005665 -0.533354 -0.000001
v -0.005665 -0.249793 -0.000001
v -0.080654 -0.249793 -0.000001
v -0.080654 -0.001678 -0.000001
v -0.326441 0.352773 -0.000000
v -0.326441 0.565444 -0.000000
v 1.000000 -0.792929 -0.000000
v 0.130182 -0.792929 0.869818
v 0.130182 -0.533354 0.869818
v 0.288887 -0.533354 0.711112
v 0.288887 -0.249793 0.711112
v 0.235862 -0.249793 0.764137
v 0.235862 -0.001678 0.764137
v 0.062065 0.352773 0.937935
v 0.062065 0.565444 0.937935
vn -0.0000 -0.0000 1.0000
vn -0.7071 -0.0000 0.7071
vn -0.0000 1.0000 -0.0000
vn -1.0000 -0.0000 -0.0000
vn -0.0000 -1.0000 -0.0000
vn -0.8218 -0.5698 -0.0000
vn -0.5811 -0.5698 0.5811
vn -0.0000 -0.6969 0.7172
vn -0.7172 -0.6969 -0.0000
vn -0.0000 -0.5698 0.8218
vn -0.0000 -0.0000 -1.0000
vn 1.0000 -0.0000 -0.0000
vn 0.0166 0.0072 0.9998
vn -0.9979 -0.0257 0.0594
vt 0.638386 0.986500
vt 0.187246 0.760930
vt 0.638386 0.760930
vt 0.700886 0.238164
vt 0.249746 0.012594
vt 0.700886 0.012594
vt 0.602528 0.319231
vt 0.406779 0.686723
vt 0.406779 0.319231
vt 0.831002 0.547289
vt 0.635252 0.914781
vt 0.635252 0.547289
vt 0.542588 0.035003
vt 0.791318 0.400395
vt 0.542588 0.400395
vt 0.127031 0.035003
vt 0.375760 0.400395
vt 0.127031 0.400395
vt 0.338322 0.052968
vt 0.555960 0.445606
vt 0.338322 0.445606
vt 0.661980 0.608070
vt 0.612646 0.334027
vt 0.661980 0.334027
vt 0.516285 0.919322
vt 0.466952 0.645279
vt 0.516285 0.645279
vt 0.732353 0.156442
vt 0.949991 0.549080
vt 0.732353 0.549080
vt 0.270692 0.126631
vt 0.649040 0.519269
vt 0.270692 0.519269
vt 0.187497 0.108109
vt 0.565846 0.500747
vt 0.187498 0.500747
vt 0.057042 0.161497
vt 0.243589 0.643437
vt 0.057042 0.643437
vt 0.763572 0.078302
vt 0.950119 0.560243
vt 0.763572 0.560243
vt 0.934687 0.250000
vt 0.852187 0.937510
vt 0.852187 0.250000
vt 0.000000 1.000000
vt 1.000000 0.000000
vt 1.000000 1.000000
vt 0.164838 0.750000
vt 0.316573 0.168228
vt 0.316573 0.750000
vt 0.977201 0.104570
vt 0.104570 0.977201
vt 0.104570 0.104571
vt 0.580812 0.250000
vt 0.732546 0.831772
vt 0.580812 0.937510
vt 0.332324 0.937510
vt 0.414824 0.250000
vt 0.414824 0.937510
vt 0.763572 0.501841
vt 0.950119 0.983782
vt 0.763572 0.983782
vt 0.235207 0.898368
vt 0.518968 0.603889
vt 0.518968 0.965345
vt 0.774158 0.284947
vt 0.991796 0.677585
vt 0.774158 0.677585
vt 0.183923 0.371235
vt 0.134589 0.645279
vt 0.134589 0.350800
vt 0.376615 0.620299
vt 0.625344 0.985691
vt 0.376615 0.985691
vt 0.956002 0.473414
vt 0.760252 0.105922
vt 0.956002 0.023905
vt 0.873684 0.467053
vt 0.422544 0.241483
vt 0.873684 0.241483
vt 0.256182 0.750019
vt 0.019148 0.512985
vt 0.828432 0.177769
vt 0.057042 0.460452
vt 0.243589 0.942393
vt 0.057042 0.942393
vt 0.187498 0.893386
vt 0.565846 0.982688
vt 0.732353 0.450920
vt 0.949991 0.843558
vt 0.732353 0.843558
vt 0.661980 0.059983
vt 0.612646 0.039548
vt 0.542588 0.309047
vt 0.791318 0.674439
vt 0.542588 0.674439
vt 0.831002 0.659666
vt 0.635252 0.292174
vt 0.831002 0.210157
vt 0.976741 0.238164
vt 0.525601 0.012594
vt 0.976741 0.012594
vt 0.278310 0.999947
vt 0.000053 0.153834
vt 0.278311 0.000053
vt 0.035209 0.000053
vt 0.313467 0.153835
vt 0.035209 0.999947
vt 0.795496 0.582485
vt 0.976822 0.999723
vt 0.976403 0.999901
vt 0.000828 0.999366
vt 0.000099 0.999901
vt 0.181639 0.582174
vt 0.187246 0.986500
vt 0.249746 0.238164
vt 0.602528 0.768740
vt 0.831002 0.996798
vt 0.791318 0.035003
vt 0.375761 0.035003
vt 0.555960 0.052968
vt 0.612646 0.628505
vt 0.466952 0.939757
vt 0.949991 0.156442
vt 0.649040 0.037328
vt 0.565846 0.018806
vt 0.243589 0.161497
vt 0.950120 0.078302
vt 0.934687 0.937510
vt 0.000000 0.000000
vt 0.164838 0.062490
vt 0.977201 0.977201
vt 0.732546 0.250000
vt 0.332324 0.250000
vt 0.950119 0.501841
vt 0.235207 0.603889
vt 0.991797 0.284947
vt 0.183923 0.645279
vt 0.625345 0.620299
vt 0.760252 0.473414
vt 0.422544 0.467053
vt 0.019148 0.177769
vt 0.828432 0.987053
vt 0.493216 0.987053
vt 0.243589 0.460452
vt 0.949991 0.450920
vt 0.791318 0.309047
vt 0.635252 0.659666
vt 0.525601 0.238164
vt 0.000053 0.999947
vt 0.158325 0.000053
vt 0.155195 0.000053
vt 0.313467 0.999947
vt 0.000099 0.999901
vt 0.000099 0.000099
vt 0.740301 0.399864
vt 0.905499 0.000099
vt 0.740301 0.191154
vt 0.905499 0.191154
vt 0.795496 0.399864
vt 0.976664 0.843191
vt 0.000256 0.843185
vt 0.181639 0.399650
vt 0.236804 0.399650
vt 0.236804 0.191052
vt 0.071694 0.191052
vt 0.071694 0.000099
vt 0.976609 0.000099
vt 0.976609 0.999366
s 0
usemtl doric_small
f 29/1/1 1/2/1 28/3/1
f 46/4/2 3/5/2 45/6/2
f 37/7/3 6/8/3 38/9/3
f 46/10/3 5/11/3 47/12/3
f 5/13/2 48/14/2 47/15/2
f 6/16/4 39/17/4 38/18/4
f 10/19/4 41/20/4 40/21/4
f 7/22/5 49/23/5 48/24/5
f 8/25/5 40/26/5 39/27/5
f 9/28/2 50/29/2 49/30/2
f 12/31/6 42/32/6 41/33/6
f 11/34/7 51/35/7 50/36/7
f 13/37/2 52/38/2 51/39/2
f 14/40/4 43/41/4 42/42/4
f 24/43/1 17/44/1 23/45/1
f 21/46/3 24/47/3 27/48/3
f 23/49/8 19/50/8 25/51/8
f 25/52/5 22/53/5 26/54/5
f 20/55/9 19/56/9 17/57/9
f 18/58/4 20/59/4 17/60/4
f 34/61/1 15/62/1 13/63/1
f 11/64/10 34/65/10 13/66/10
f 32/67/1 11/68/1 9/69/1
f 7/70/5 32/71/5 9/72/5
f 30/73/1 7/74/1 5/75/1
f 29/76/3 5/77/3 2/78/3
f 4/79/4 36/80/4 3/81/4
f 45/82/5 3/83/5 44/84/5
f 51/85/2 16/86/2 14/87/2
f 12/88/7 51/35/7 14/89/7
f 49/90/2 12/91/2 10/92/2
f 8/93/5 49/23/5 10/94/5
f 47/95/2 8/96/2 6/97/2
f 46/98/3 6/99/3 4/100/3
f 2/101/2 45/102/2 1/103/2
f 27/104/11 22/105/11 21/106/11
f 24/107/12 25/108/12 27/109/12
f 41/110/13 43/111/13 22/112/13
f 25/113/14 35/114/14 33/115/14
f 29/1/1 2/116/1 1/2/1
f 46/4/2 4/117/2 3/5/2
f 37/7/3 4/118/3 6/8/3
f 46/10/3 2/119/3 5/11/3
f 5/13/2 7/120/2 48/14/2
f 6/16/4 8/121/4 39/17/4
f 10/19/4 12/122/4 41/20/4
f 7/22/5 9/123/5 49/23/5
f 8/25/5 10/124/5 40/26/5
f 9/28/2 11/125/2 50/29/2
f 12/31/6 14/126/6 42/32/6
f 11/34/7 13/127/7 51/35/7
f 13/37/2 15/128/2 52/38/2
f 14/40/4 16/129/4 43/41/4
f 24/43/1 18/130/1 17/44/1
f 21/46/3 18/131/3 24/47/3
f 23/49/8 17/132/8 19/50/8
f 25/52/5 19/133/5 22/53/5
f 20/55/9 22/134/9 19/56/9
f 18/58/4 21/135/4 20/59/4
f 34/61/1 35/136/1 15/62/1
f 11/64/10 33/137/10 34/65/10
f 32/67/1 33/138/1 11/68/1
f 7/70/5 31/139/5 32/71/5
f 30/73/1 31/140/1 7/74/1
f 29/76/3 30/141/3 5/77/3
f 4/79/4 37/142/4 36/80/4
f 3/83/5 36/143/5 44/84/5
f 44/84/5 28/144/5 1/145/5
f 1/145/5 45/82/5 44/84/5
f 51/85/2 52/146/2 16/86/2
f 12/88/7 50/36/7 51/35/7
f 49/90/2 50/147/2 12/91/2
f 8/93/5 48/24/5 49/23/5
f 47/95/2 48/148/2 8/96/2
f 46/98/3 47/149/3 6/99/3
f 2/101/2 46/150/2 45/102/2
f 26/151/11 22/105/11 27/104/11
f 22/105/11 20/152/11 21/106/11
f 23/153/12 25/108/12 24/107/12
f 25/108/12 26/154/12 27/109/12
f 22/112/11 26/155/11 41/110/11
f 26/155/11 44/156/11 39/157/11
f 41/110/11 26/155/11 39/157/11
f 44/156/11 36/158/11 38/159/11
f 36/158/11 37/160/11 38/159/11
f 44/156/11 38/159/11 39/157/11
f 39/157/11 40/161/11 41/110/11
f 41/110/11 42/162/11 43/111/11
f 35/114/12 34/163/12 33/115/12
f 33/115/12 32/164/12 31/165/12
f 30/166/12 29/167/12 28/168/12
f 30/166/12 28/168/12 44/169/12
f 44/169/12 26/170/12 31/165/12
f 26/170/12 25/113/12 33/115/12
f 31/165/12 30/166/12 44/169/12
f 33/115/12 31/165/12 26/170/12
