# Blender 5.1.1
# www.blender.org
mtllib giant_roman_corinthian_base.mtl
o Cube.286
v 0.510710 0.787500 1.181248
v 0.510710 1.050000 1.181248
v -0.181250 0.787500 0.489288
v -0.181250 1.050000 0.489288
v 0.456341 0.262500 1.312510
v 0.456341 0.525000 1.312510
v -0.312509 0.262500 0.543659
v -0.312509 0.525000 0.543659
v 0.565076 0.525000 1.050000
v 0.565076 0.787500 1.050000
v -0.050000 0.525000 0.434924
v -0.050000 0.787500 0.434924
v 0.510710 1.050000 0.489288
v 1.000000 0.787500 1.181248
v 1.000000 1.050000 1.181248
v 1.000000 0.262500 1.312510
v 1.000000 0.525000 1.312510
v 1.000000 0.525000 1.050000
v 1.000000 0.787500 1.050000
v 1.000000 1.050000 0.489288
v 1.000000 0.525000 0.000000
v 1.000000 0.525000 0.768850
v 1.000000 0.262500 0.000000
v 1.000000 0.262500 0.768850
v -0.181250 0.787500 0.000002
v -0.181250 1.050000 0.000002
v -0.312509 0.262500 0.000002
v -0.312509 0.525000 0.000002
v -0.050000 0.525000 0.000002
v -0.050000 0.787500 0.000002
v 0.510710 1.050000 0.000002
v 0.231148 0.525000 0.000002
v -0.087319 0.525000 0.000002
v 0.231152 0.262500 0.000002
v -0.087317 0.262500 0.000002
v 1.000000 1.050000 0.000002
v 1.000000 0.787500 0.000002
v 1.000000 0.525000 0.000002
v 1.000000 0.787500 0.000002
v 0.456341 0.000000 1.312510
v 0.456341 0.262500 1.312510
v -0.312509 0.000000 0.543659
v -0.312509 0.262500 0.543659
v 1.000000 0.262500 0.384425
v -0.312500 0.262500 1.312502
v 1.000000 0.000000 1.312510
v 1.000000 0.262500 1.312510
v 1.000000 0.262500 1.050000
v 1.000000 0.262500 0.000000
v 1.000000 0.262500 0.768850
v 1.000000 0.000000 0.000000
v 1.000000 0.000000 0.768850
v -0.312509 0.000000 0.000002
v -0.312509 0.262500 0.000002
v -0.312500 0.000000 1.312502
v 0.231148 0.262500 0.000002
v -0.087319 0.262500 0.000002
v 0.231152 0.000000 0.000002
v -0.087317 0.000000 0.000002
v -0.199913 0.000000 0.000002
v 1.000000 0.262500 0.000002
vn -0.0000 -0.0000 1.0000
vn -0.7071 -0.0000 0.7071
vn -0.0000 -0.0000 -1.0000
vn -0.0000 1.0000 -0.0000
vn -0.0000 -1.0000 -0.0000
vn 1.0000 -0.0000 -0.0000
vn -1.0000 -0.0000 -0.0000
vn 0.9950 -0.0995 -0.0000
vn 0.9806 -0.1961 -0.0000
vt 0.250000 0.625000
vt 0.750000 0.875000
vt 0.250000 0.875000
vt 1.000000 0.625000
vt 0.000000 0.375000
vt 1.000000 0.375000
vt 0.437500 0.375000
vt 1.000000 1.000000
vt 0.000000 0.750000
vt 1.000000 0.750000
vt 0.000047 0.414222
vt 0.000047 0.000047
vt 0.222248 0.000047
vt 0.437500 0.250000
vt 0.000000 0.000000
vt 0.437500 0.000000
vt 0.937500 0.250000
vt 0.062500 0.000000
vt 0.937500 0.000000
vt 0.000100 0.707065
vt 0.499999 0.500000
vt 0.292935 0.999900
vt 0.125000 0.187500
vt 0.625000 0.875000
vt 0.125000 0.875000
vt 0.187500 0.125000
vt 0.875000 0.125000
vt 0.875000 0.812500
vt 0.999898 0.585771
vt 0.999898 0.828362
vt 0.585769 0.999900
vt 0.999898 0.999900
vt 0.414231 0.000100
vt 0.999900 0.000100
vt 0.750000 0.250000
vt 0.250000 0.750000
vt 0.250000 0.250000
vt 0.499999 0.500000
vt 0.000100 0.292935
vt 0.292935 0.000100
vt 0.000100 0.414231
vt 0.000100 0.000100
vt 0.499998 0.500000
vt 0.000047 0.000047
vt 0.222249 0.000047
vt 0.222249 0.414219
vt 0.562500 0.750000
vt 0.562500 0.000000
vt 0.000000 0.250000
vt 0.125000 0.250000
vt 0.625000 1.000000
vt 0.125000 1.000000
vt 0.250000 0.125000
vt 0.750000 0.375000
vt 0.250000 0.375000
vt 0.000068 0.999950
vt 0.249963 0.999700
vt 0.249963 0.000050
vt 0.203763 0.414221
vt 0.003783 0.999953
vt 0.003783 0.200033
vt 0.250025 0.000050
vt 0.000050 0.999950
vt 0.000050 0.000050
vt 0.000045 0.414223
vt 0.000045 0.171603
vt 0.200025 0.000045
vt 0.562500 0.250000
vt 0.734379 1.000000
vt 0.734379 0.750000
vt 0.707065 0.000100
vt 0.999900 0.999900
vt 0.414231 0.999900
vt 0.999898 0.414232
vt 0.000052 0.998053
vt 0.000052 0.001948
vt 0.999898 0.171639
vt 0.000100 0.585769
vt 0.267958 0.750000
vt 0.875000 0.562500
vt 0.312500 0.812500
vt 0.312500 0.562500
vt 0.585769 0.000100
vt 0.999898 0.085870
vt 0.750000 0.625000
vt 0.000000 0.625000
vt 0.437500 0.625000
vt 0.000000 1.000000
vt 0.222248 0.999953
vt 0.000047 0.999953
vt 0.062500 0.250000
vt 0.000100 0.500000
vt 0.499999 0.999900
vt 0.625000 0.187500
vt 0.750000 0.750000
vt 0.499999 0.000100
vt 0.000100 0.500000
vt 0.499998 0.000100
vt 0.222249 0.999953
vt 0.000047 0.999953
vt 0.562500 1.000000
vt 0.625000 0.250000
vt 0.750000 0.125000
vt 0.000050 0.000050
vt 0.000050 0.999700
vt 0.003783 0.000045
vt 0.203763 0.000045
vt 0.203763 0.999955
vt 0.000045 0.414188
vt 0.250025 0.999950
vt 0.000045 0.000045
vt 0.200025 0.999955
vt 0.000045 0.999955
vt 0.267958 1.000000
vt 0.000100 0.999900
vt 0.999898 0.000100
vt 0.000045 0.085824
s 0
usemtl ionic_base
f 15/1/1 1/2/1 14/3/1
f 2/4/2 3/5/2 1/6/2
f 17/4/1 5/7/1 16/6/1
f 6/8/2 7/9/2 5/10/2
f 31/11/3 36/12/3 39/13/3
f 19/14/1 9/15/1 18/16/1
f 10/17/2 11/18/2 9/19/2
f 10/20/4 37/21/4 12/22/4
f 20/23/4 2/24/4 15/25/4
f 2/26/4 13/27/4 4/28/4
f 32/29/4 33/30/4 8/31/4
f 33/30/4 28/32/4 8/31/4
f 8/31/4 22/33/4 21/34/4
f 13/35/4 36/36/4 31/37/4
f 38/38/5 9/39/5 11/40/5
f 6/41/4 17/42/4 22/33/4
f 39/43/5 1/39/5 3/40/5
f 39/44/6 36/45/6 20/46/6
f 12/8/7 29/47/7 11/10/7
f 7/48/7 28/49/7 27/15/7
f 13/50/4 26/51/4 4/52/4
f 4/53/7 25/54/7 3/55/7
f 8/31/4 21/34/4 32/29/4
f 21/56/6 37/57/6 19/58/6
f 24/59/6 38/60/6 18/61/6
f 21/62/3 30/63/3 37/64/3
f 34/65/3 35/66/3 28/67/3
f 47/68/1 40/15/1 46/48/1
f 45/69/7 42/9/7 55/70/7
f 43/31/4 44/71/4 49/34/4
f 56/29/4 57/30/4 43/31/4
f 57/30/4 54/32/4 43/31/4
f 51/72/5 52/73/5 58/74/5
f 41/41/4 44/71/4 45/75/4
f 55/76/5 59/77/5 40/78/5
f 41/41/4 47/42/4 50/33/4
f 41/8/1 55/79/1 40/10/1
f 40/78/5 58/74/5 52/73/5
f 42/80/7 54/81/7 53/82/7
f 42/83/5 60/84/5 55/76/5
f 43/31/4 49/34/4 56/29/4
f 52/59/6 61/60/6 48/61/6
f 58/65/3 59/66/3 54/67/3
f 15/1/1 2/85/1 1/2/1
f 2/4/2 4/86/2 3/5/2
f 17/4/1 6/87/1 5/7/1
f 6/8/2 8/88/2 7/9/2
f 39/13/3 25/89/3 31/11/3
f 25/89/3 26/90/3 31/11/3
f 19/14/1 10/49/1 9/15/1
f 10/17/2 12/91/2 11/18/2
f 19/92/4 37/21/4 10/20/4
f 37/21/4 30/93/4 12/22/4
f 20/23/4 13/94/4 2/24/4
f 8/31/4 6/41/4 22/33/4
f 13/35/4 20/95/4 36/36/4
f 11/40/5 29/96/5 38/38/5
f 38/38/5 18/97/5 9/39/5
f 3/40/5 25/98/5 39/43/5
f 39/43/5 14/97/5 1/39/5
f 20/46/6 15/99/6 14/100/6
f 14/100/6 39/44/6 20/46/6
f 12/8/7 30/101/7 29/47/7
f 7/48/7 8/68/7 28/49/7
f 13/50/4 31/102/4 26/51/4
f 4/53/7 26/103/7 25/54/7
f 18/104/6 38/105/6 19/58/6
f 38/105/6 21/56/6 19/58/6
f 17/106/6 16/107/6 18/61/6
f 16/107/6 24/59/6 18/61/6
f 24/59/6 23/108/6 38/60/6
f 18/61/8 22/109/8 17/106/8
f 21/62/3 29/110/3 30/63/3
f 35/66/3 27/111/3 28/67/3
f 28/67/3 38/112/3 34/65/3
f 38/112/3 23/113/3 34/65/3
f 47/68/1 41/49/1 40/15/1
f 45/69/7 43/88/7 42/9/7
f 43/31/4 45/75/4 44/71/4
f 41/41/4 50/33/4 44/71/4
f 55/76/5 60/84/5 59/77/5
f 41/8/1 45/114/1 55/79/1
f 52/73/5 46/115/5 40/78/5
f 40/78/5 59/77/5 58/74/5
f 42/80/7 43/28/7 54/81/7
f 42/83/5 53/116/5 60/84/5
f 47/106/6 46/107/6 48/61/6
f 46/107/6 52/59/6 48/61/6
f 52/59/6 51/108/6 61/60/6
f 48/61/9 50/109/9 47/106/9
f 60/117/3 53/111/3 54/67/3
f 54/67/3 61/112/3 58/65/3
f 61/112/3 51/113/3 58/65/3
f 59/66/3 60/117/3 54/67/3
