# Blender 5.1.0
# www.blender.org
mtllib giant_column_down.mtl
o column_giant
v 0.414216 0.000000 -0.000007
v 0.414216 1.000000 -0.000007
v 1.000007 0.000000 0.585783
v 1.000007 1.000000 0.585783
v -0.000000 0.000000 -0.000007
v -0.000000 1.000000 -0.000007
v 1.000007 0.000000 1.000000
v 1.000007 1.000000 1.000000
v 0.000007 0.000000 1.000000
v -0.000000 0.000000 -0.000007
v 0.000007 0.000000 1.000000
v 0.000007 1.000000 1.000000
v 0.414216 -0.750000 -0.000007
v 1.000007 -0.750000 0.585783
v 1.000007 -0.750000 1.000000
v -0.000000 -0.750000 -0.000007
v 0.000007 -0.750000 1.000000
vn -0.0000 -0.0000 -1.0000
vn 0.7071 -0.0000 -0.7071
vn 1.0000 -0.0000 -0.0000
vn -0.0000 -0.0000 1.0000
vn -1.0000 -0.0000 -0.0000
vn -0.0000 1.0000 -0.0000
vn -0.0000 -1.0000 -0.0000
vt 0.500000 1.000000
vt 0.085200 0.000000
vt 0.500000 0.000000
vt 0.080169 0.999909
vt 0.908451 0.000091
vt 0.080169 0.000091
vt 0.414240 1.000000
vt 0.000000 0.000000
vt 0.414240 0.000000
vt 1.000000 0.750000
vt 1.000000 0.000000
vt 0.999896 0.999896
vt 0.000096 0.000104
vt 0.999896 0.000104
vt 0.000676 0.999900
vt 0.000676 0.001100
vt 0.999476 0.001100
vt 0.414231 0.999900
vt 0.000100 0.999900
vt 0.000100 0.000107
vt 0.414240 0.750000
vt 0.083380 0.000074
vt 0.501500 0.749926
vt 0.501500 0.000074
vt 0.908203 0.000000
vt 0.080078 0.750000
vt 0.080078 0.000000
vt 0.085200 1.000000
vt 0.908451 0.999909
vt 0.000000 1.000000
vt 0.000000 0.750000
vt 0.000096 0.999896
vt 0.999476 0.999900
vt 0.000100 0.000100
vt 0.999900 0.000100
vt 0.999900 0.414231
vt 0.083380 0.749926
vt 0.908203 0.750000
s 0
usemtl column_mat_side
f 6/1/1 1/2/1 5/3/1
f 2/4/2 3/5/2 1/6/2
f 4/7/3 7/8/3 3/9/3
f 11/8/4 15/10/4 7/11/4
f 12/12/5 10/13/5 11/14/5
f 12/15/4 11/16/4 7/17/4
f 7/8/3 14/21/3 3/9/3
f 1/22/1 16/23/1 10/24/1
f 3/25/2 13/26/2 1/27/2
f 10/8/5 17/10/5 11/11/5
f 6/1/1 2/28/1 1/2/1
f 2/4/2 4/29/2 3/5/2
f 4/7/3 8/30/3 7/8/3
f 11/8/4 17/31/4 15/10/4
f 12/12/5 6/32/5 10/13/5
f 7/17/4 8/33/4 12/15/4
f 11/16/6 9/34/6 7/17/6
f 7/8/3 15/31/3 14/21/3
f 1/22/1 13/37/1 16/23/1
f 3/25/2 14/38/2 13/26/2
f 10/8/5 16/31/5 17/10/5
usemtl column_mat_top
f 2/18/6 6/19/6 12/20/6
f 14/18/7 15/19/7 17/20/7
f 8/35/6 4/36/6 12/20/6
f 4/36/6 2/18/6 12/20/6
f 16/35/7 13/36/7 17/20/7
f 13/36/7 14/18/7 17/20/7
l 5 10
