# Blender 5.1.2
# www.blender.org
mtllib giant_roman_corinthian_capital.mtl
o Cube
v 0.539006 -1.492415 1.117430
v 0.539006 -1.351892 1.117430
v -0.112939 -1.492415 0.465485
v -0.112939 -1.351892 0.465485
v 0.584630 -1.351892 1.007284
v -0.002793 -1.351892 0.419862
v 0.544958 -0.086892 1.103058
v -0.098568 -0.086892 0.459532
v 0.544958 0.545608 1.103058
v -0.098568 0.545608 0.459532
v 0.543921 -0.782642 1.105564
v -0.101073 -0.782642 0.460570
v 0.585366 -0.782642 1.005507
v -0.001016 -0.782642 0.419125
v 0.504181 -0.086892 1.201503
v -0.197013 -0.086892 0.500309
v 1.000085 0.503563 1.048206
v 1.000093 0.462820 1.170355
v 0.862314 0.557696 1.066271
v 0.862322 0.516953 1.188421
v 0.805248 0.688388 1.109868
v 0.805256 0.647645 1.232018
v 0.862316 0.819082 1.153458
v 0.862324 0.778338 1.275607
v 1.000087 0.873218 1.171506
v 1.000096 0.832475 1.293655
v -0.148945 0.819086 0.142350
v -0.271094 0.778342 0.142357
v -0.105348 0.688394 0.199416
v -0.227498 0.647650 0.199423
v -0.061759 0.557700 0.142348
v -0.183908 0.516957 0.142356
v -0.043710 0.503563 -0.000024
v -0.165859 0.462820 -0.000016
v -0.167010 0.873218 0.004578
v -0.289159 0.832475 0.004586
v 0.768294 0.410555 1.138300
v 0.768288 0.410555 1.053316
v 0.730630 0.319627 1.138302
v 0.730625 0.319627 1.053319
v 0.768294 0.228700 1.138300
v 0.768288 0.228700 1.053316
v 0.859221 0.191037 1.138294
v 0.859216 0.191037 1.053311
v 0.950148 0.228700 1.138289
v 0.950143 0.228700 1.053306
v 0.987811 0.319627 1.138287
v 0.987806 0.319627 1.053303
v 0.950148 0.410554 1.138289
v 0.950143 0.410554 1.053306
v 0.859221 0.448218 1.138294
v 0.859216 0.448218 1.053311
v -0.048811 0.410553 0.235439
v -0.133795 0.410553 0.235443
v -0.048810 0.319626 0.273103
v -0.133793 0.319626 0.273107
v -0.048812 0.228698 0.235439
v -0.133795 0.228698 0.235444
v -0.048816 0.191035 0.144512
v -0.133799 0.191035 0.144516
v -0.048820 0.228698 0.053585
v -0.133804 0.228698 0.053589
v -0.048822 0.319625 0.015922
v -0.133806 0.319625 0.015926
v -0.048820 0.410552 0.053585
v -0.133804 0.410552 0.053589
v -0.048816 0.448216 0.144512
v -0.133799 0.448216 0.144516
v -0.261761 0.514671 1.413595
v -0.337833 0.514671 1.250466
v -0.334057 0.322087 1.447310
v -0.410130 0.322087 1.284180
v -0.261761 0.129503 1.413595
v -0.337833 0.129503 1.250466
v -0.087222 0.049732 1.332203
v -0.163294 0.049732 1.169073
v 0.087317 0.129503 1.250809
v 0.011245 0.129503 1.087680
v 0.159613 0.322087 1.217095
v 0.083541 0.322087 1.053966
v 0.087317 0.514671 1.250809
v 0.011245 0.514671 1.087680
v -0.087222 0.594442 1.332203
v -0.163294 0.594442 1.169073
v 0.430553 -0.062137 0.892143
v 0.506625 -0.062137 1.055272
v 0.578922 0.130447 1.021558
v 0.502849 0.130447 0.858429
v 0.506625 0.323031 1.055272
v 0.430553 0.323031 0.892143
v -0.247263 0.514672 1.341034
v -0.410396 0.514672 1.264969
v -0.280974 0.322088 1.413332
v -0.444107 0.322088 1.337266
v -0.247263 0.129503 1.341034
v -0.410396 0.129504 1.264969
v -0.165878 0.049733 1.166491
v -0.329010 0.049733 1.090426
v -0.084492 0.129503 0.991949
v -0.247625 0.129503 0.915883
v -0.050782 0.322088 0.919651
v -0.213914 0.322088 0.843586
v -0.084492 0.514672 0.991949
v -0.247625 0.514672 0.915883
v -0.165878 0.594443 1.166491
v -0.329010 0.594443 1.090426
v -0.048923 -0.065257 0.489739
v 0.114209 -0.065257 0.565805
v 0.147920 0.127327 0.493507
v -0.015212 0.127327 0.417442
v 0.114209 0.319912 0.565805
v -0.048923 0.319912 0.489739
v -0.383489 0.802472 0.000000
v -0.383489 1.000128 0.000000
v 1.000000 1.000128 1.383489
v 1.000000 0.802472 1.383489
v 1.000000 0.520532 0.000001
v 1.000000 1.000128 0.000000
v -0.792029 1.000128 1.647597
v -0.647596 1.000128 1.792029
v -0.647596 0.802472 1.792029
v -0.792029 0.802472 1.647597
v -0.118567 0.802472 0.000001
v 1.000000 0.802472 1.118568
v -0.448876 0.802472 1.332102
v -0.332101 0.802472 1.448878
v -0.118567 0.520532 0.000001
v 1.000000 0.520532 1.118568
v -0.448876 0.520532 1.332102
v -0.332101 0.520532 1.448878
v 1.000000 -1.492415 1.117430
v 1.000000 -1.351892 1.117430
v 1.000000 -1.351892 1.007284
v 1.000000 -0.086892 1.103058
v 1.000000 0.545608 1.103058
v 1.000000 -0.782642 1.105564
v 1.000000 -0.782642 1.005507
v 1.000000 -0.086892 1.201503
v -0.112939 -1.492415 0.000000
v -0.112939 -1.351892 0.000000
v -0.002793 -1.351892 0.000001
v -0.098568 -0.086892 0.000000
v -0.098568 0.545608 0.000000
v -0.101073 -0.782642 0.000001
v -0.001016 -0.782642 0.000002
v -0.197013 -0.086892 0.000001
v -0.112939 -1.492415 0.000000
v -0.101073 -0.782642 0.000000
v -0.001016 -0.782642 0.000000
v -0.197013 -0.086892 -0.000000
v -0.166410 0.871419 0.000000
v -0.288558 0.830673 -0.000000
v -0.112939 -1.351892 -0.000000
v -0.002793 -1.351892 0.000000
v -0.098568 -0.086892 0.000000
v -0.098568 0.545608 0.000000
v 1.000000 -1.492415 0.000000
vn -0.0000 -0.0000 1.0000
vn -0.7071 -0.0000 0.7071
vn -0.0000 1.0000 -0.0000
vn -1.0000 -0.0000 -0.0000
vn -0.9854 -0.1701 -0.0000
vn -0.6968 -0.1701 0.6968
vn -0.9625 -0.2712 -0.0000
vn -0.6806 -0.2712 0.6806
vn -0.3827 -0.8764 -0.2923
vn -0.9239 -0.3630 -0.1210
vn -0.9239 0.3630 0.1211
vn 0.0001 -0.3164 0.9486
vn -0.3827 0.8764 0.2924
vn -0.0001 0.3164 -0.9486
vn -0.1210 0.3630 0.9239
vn 0.1211 -0.3630 0.9239
vn 0.2937 -0.8805 0.3721
vn -0.2924 0.8764 -0.3827
vn -0.2923 0.8764 0.3827
vn -0.9239 0.3827 0.0001
vn -0.9239 -0.3827 0.0001
vn -0.3827 -0.9239 -0.0000
vn 0.3827 -0.9239 -0.0000
vn 0.9239 -0.3827 -0.0001
vn 0.9239 0.3827 -0.0001
vn -0.0001 -0.0000 -1.0000
vn 0.3827 0.9239 -0.0000
vn -0.3827 0.9239 -0.0000
vn 0.0001 -0.0000 1.0000
vn -0.0000 0.3827 0.9239
vn -0.0000 -0.3827 0.9239
vn -0.0000 -0.9239 0.3827
vn -0.0000 -0.9239 -0.3827
vn -0.0000 -0.3827 -0.9239
vn -0.0000 0.3827 -0.9239
vn -1.0000 -0.0000 0.0001
vn -0.0000 0.9239 -0.3827
vn -0.0000 0.9239 0.3827
vn 1.0000 -0.0000 -0.0001
vn -0.8373 0.3827 0.3905
vn -0.8373 -0.3827 0.3905
vn -0.3468 -0.9239 0.1617
vn 0.3468 -0.9239 -0.1617
vn 0.4226 -0.0000 0.9063
vn 0.3468 0.9239 -0.1617
vn -0.4226 -0.0000 -0.9063
vn -0.3468 0.9239 0.1617
vn 0.8373 -0.3827 -0.3905
vn 0.8373 0.3827 -0.3905
vn -0.3904 0.3827 0.8373
vn -0.3904 -0.3827 0.8373
vn -0.1617 -0.9239 0.3468
vn 0.1617 -0.9239 -0.3468
vn 0.9063 -0.0000 0.4226
vn 0.1617 0.9239 -0.3468
vn -0.9063 -0.0000 -0.4226
vn -0.1617 0.9239 0.3468
vn 0.3904 -0.3827 -0.8373
vn 0.3904 0.3827 -0.8373
vn -0.0000 -1.0000 -0.0000
vn -0.9706 -0.0000 -0.2407
vn 0.2407 -0.0000 0.9706
vn -0.0000 -0.2712 0.9625
vn -0.0000 -0.1701 0.9854
vn -0.0000 -0.0000 -1.0000
vn 1.0000 -0.0000 -0.0000
vn -0.9486 -0.3164 0.0001
vn 0.9486 0.3164 -0.0001
vt 0.246588 0.382799
vt 0.198285 0.636336
vt 0.198285 0.382799
vt 0.621609 0.238664
vt 0.573306 0.745738
vt 0.573306 0.238664
vt 0.984568 0.700438
vt 0.936677 0.319399
vt 0.984568 0.299562
vt 0.842836 0.157830
vt 0.808972 0.191694
vt 0.721603 0.655721
vt 0.752732 0.956389
vt 0.721603 0.969279
vt 0.878497 0.500000
vt 0.847368 0.643885
vt 0.847368 0.500000
vt 0.317089 0.010480
vt 0.742355 0.989520
vt 0.317089 0.989520
vt 0.278497 0.119813
vt 0.780948 0.698181
vt 0.278497 0.698181
vt 0.823466 0.585122
vt 0.268775 0.148012
vt 0.823466 0.148012
vt 0.759540 0.065137
vt 0.207700 0.977483
vt 0.207700 0.022517
vt 0.855168 0.092879
vt 0.754587 0.509686
vt 0.754588 0.092879
vt 0.117623 0.043895
vt 0.217685 0.914658
vt 0.117623 0.956105
vt 0.126342 0.254067
vt 0.852692 0.670700
vt 0.126373 0.670725
vt 0.128127 0.914706
vt 0.850970 0.004172
vt 0.850970 0.995828
vt 0.475296 0.521521
vt 0.452431 0.466320
vt 0.475296 0.466320
vt 0.473702 0.517672
vt 0.454025 0.470168
vt 0.473702 0.470168
vt 0.473702 0.517672
vt 0.454025 0.470168
vt 0.473702 0.470168
vt 0.108497 0.407882
vt 0.082254 0.348598
vt 0.105618 0.288120
vt 0.475296 0.466320
vt 0.452431 0.521520
vt 0.452431 0.466320
vt 0.467569 0.454618
vt 0.500127 0.454618
vt 0.523150 0.477641
vt 0.454025 0.517672
vt 0.473702 0.517672
vt 0.454025 0.470168
vt 0.473702 0.470168
vt 0.453191 0.466320
vt 0.475296 0.466320
vt 0.452431 0.521521
vt 0.452431 0.466320
vt 0.457339 0.509670
vt 0.470387 0.478170
vt 0.470387 0.509670
vt 0.470387 0.509670
vt 0.457340 0.478170
vt 0.471521 0.512406
vt 0.456206 0.475434
vt 0.471521 0.475434
vt 0.471521 0.512406
vt 0.457340 0.478170
vt 0.470387 0.478170
vt 0.470387 0.509670
vt 0.473487 0.468906
vt 0.494210 0.468906
vt 0.473487 0.518935
vt 0.456206 0.512406
vt 0.471521 0.512406
vt 0.604078 0.360745
vt 0.469058 0.304227
vt 0.467634 0.686714
vt 0.457340 0.509670
vt 0.457339 0.478170
vt 0.456206 0.512406
vt 0.470387 0.478170
vt 0.457340 0.509670
vt 0.602840 0.359508
vt 0.604310 0.629965
vt 0.333852 0.631434
vt 0.471521 0.512406
vt 0.471521 0.475434
vt 0.494210 0.468905
vt 0.508863 0.483559
vt 0.508863 0.504282
vt 0.491068 0.653309
vt 0.436208 0.721692
vt 0.436208 0.653309
vt 0.241068 0.846692
vt 0.186208 0.778309
vt 0.241068 0.778309
vt 0.360779 0.842804
vt 0.419040 0.907196
vt 0.360779 0.907196
vt 0.169041 0.467804
vt 0.110780 0.532195
vt 0.110780 0.467804
vt 0.789302 0.550901
vt 0.750692 0.699099
vt 0.750692 0.507948
vt 0.534222 0.110155
vt 0.592483 0.264846
vt 0.534222 0.264846
vt 0.454004 0.421870
vt 0.513692 0.421870
vt 0.454004 0.565970
vt 0.493778 0.421699
vt 0.433948 0.566141
vt 0.433948 0.421700
vt 0.480081 0.454767
vt 0.447645 0.533074
vt 0.447645 0.454767
vt 0.478543 0.733875
vt 0.273347 0.530471
vt 0.476751 0.325274
vt 0.477681 0.460562
vt 0.450046 0.527278
vt 0.450046 0.460562
vt 0.477681 0.460562
vt 0.450046 0.460562
vt 0.782361 0.163835
vt 0.727759 0.336165
vt 0.727759 0.145013
vt 0.346722 0.610154
vt 0.404983 0.764846
vt 0.346722 0.764846
vt 0.063192 0.800901
vt 0.101801 0.949099
vt 0.063192 0.992052
vt 0.844862 0.520013
vt 0.790259 0.729987
vt 0.790259 0.538835
vt 0.803568 0.596691
vt 0.748708 0.528308
vt 0.803568 0.528308
vt 0.248708 0.284192
vt 0.303567 0.215808
vt 0.303567 0.284192
vt 0.794040 0.217804
vt 0.735779 0.282196
vt 0.735779 0.217804
vt 0.794040 0.155304
vt 0.735779 0.219696
vt 0.735779 0.155304
vt 0.163220 0.736845
vt 0.124610 0.888156
vt 0.124610 0.693891
vt 0.714466 0.171395
vt 0.656204 0.328605
vt 0.656204 0.171395
vt 0.477948 0.733877
vt 0.622323 0.673826
vt 0.332971 0.385323
vt 0.493950 0.566555
vt 0.433777 0.421286
vt 0.493950 0.421286
vt 0.480081 0.533074
vt 0.447645 0.454767
vt 0.480081 0.454767
vt 0.411529 0.463965
vt 0.513804 0.421601
vt 0.556167 0.523875
vt 0.477681 0.527278
vt 0.477681 0.460562
vt 0.788360 0.705956
vt 0.842962 0.919044
vt 0.788360 0.900221
vt 0.406205 0.233895
vt 0.464466 0.391105
vt 0.406205 0.391105
vt 0.749609 0.736845
vt 0.788219 0.888155
vt 0.749609 0.931109
vt 0.780463 0.143456
vt 0.725860 0.356544
vt 0.725860 0.162279
vt 0.904885 -0.796456
vt 0.522528 -0.776497
vt 0.522528 -0.796456
vt 0.259310 0.074529
vt 0.371115 0.643540
vt 0.259310 0.812573
vt 0.753210 0.054987
vt 0.833505 0.257492
vt 0.761698 0.257482
vt 0.251479 0.010479
vt 0.183542 0.943997
vt 0.183542 0.010479
vt 0.592601 0.010479
vt 0.524664 0.943997
vt 0.524664 0.010479
vt 0.094276 0.285137
vt 0.873420 0.170308
vt 0.695794 0.886655
vt 0.222674 0.215170
vt 0.110869 0.784181
vt 0.110877 0.187427
vt 0.181000 0.235747
vt 0.810929 0.328701
vt 0.324568 0.815008
vt 0.076169 0.168200
vt 0.173075 0.922960
vt 0.076169 0.922960
vt 0.292291 0.207919
vt 0.389198 0.962680
vt 0.292291 0.962680
vt 0.426238 0.212664
vt 0.335418 0.309570
vt 0.335418 0.212664
vt 0.128116 0.807679
vt 0.850959 0.392973
vt 0.850959 0.888801
vt 0.417409 0.968443
vt 0.317348 0.553778
vt 0.417409 0.512345
vt 0.759540 0.165891
vt 0.207700 0.600754
vt 0.207700 0.123272
vt 0.279688 0.240690
vt 0.779756 0.816315
vt 0.279688 0.816315
vt 0.500000 0.878497
vt 0.643885 0.847368
vt 0.656779 0.878497
vt 0.842836 0.842170
vt 0.936677 0.680601
vt 0.820697 0.250000
vt 0.789058 0.248580
vt 0.820697 0.248580
vt 0.638165 0.187500
vt 0.796280 0.189296
vt 0.638165 0.189296
vt 0.847368 0.498580
vt 0.878497 0.498580
vt 0.807591 0.190314
vt 0.841456 0.156450
vt 0.934109 0.027702
vt 0.885806 0.281239
vt 0.885806 0.027702
vt 0.984961 0.300870
vt 0.984961 0.501302
vt 0.501074 0.503255
vt 0.565172 0.950913
vt 0.108186 0.927679
vt 0.076382 0.645103
vt 0.344197 0.000059
vt 0.346615 0.804417
vt 0.143315 0.806701
vt 0.346615 0.002090
vt 0.346615 0.994712
vt 0.203359 0.806701
vt 0.444546 0.477641
vt 0.164903 0.261878
vt 0.519744 0.980131
vt 0.532248 0.999924
vt 0.491799 0.354738
vt 0.763926 0.259907
vt 0.761867 0.091316
vt 0.822344 0.114680
vt 0.444546 0.510200
vt 0.444546 0.477641
vt 0.523150 0.509118
vt 0.246588 0.636336
vt 0.621609 0.745738
vt 0.752731 0.668611
vt 0.878497 0.656779
vt 0.742355 0.010480
vt 0.780948 0.119813
vt 0.268775 0.627962
vt 0.759540 0.934863
vt 0.855168 0.551334
vt 0.217685 0.085342
vt 0.852692 0.172509
vt 0.128065 0.085344
vt 0.452431 0.521521
vt 0.454025 0.517672
vt 0.168975 0.431246
vt 0.475296 0.521520
vt 0.523150 0.510200
vt 0.454025 0.517672
vt 0.453192 0.521520
vt 0.475296 0.521521
vt 0.457340 0.509670
vt 0.508863 0.483559
vt 0.508863 0.504282
vt 0.494210 0.518935
vt 0.458833 0.504282
vt 0.458833 0.483559
vt 0.456206 0.512406
vt 0.333620 0.359738
vt 0.277103 0.494759
vt 0.332613 0.630197
vt 0.603073 0.631203
vt 0.659590 0.496182
vt 0.470387 0.509670
vt 0.277104 0.496510
vt 0.332383 0.360977
vt 0.467307 0.304229
vt 0.659588 0.494432
vt 0.469385 0.686712
vt 0.494210 0.518935
vt 0.473487 0.518935
vt 0.458833 0.504282
vt 0.458833 0.483559
vt 0.473487 0.468905
vt 0.491068 0.721692
vt 0.186208 0.846692
vt 0.419040 0.842804
vt 0.169041 0.532195
vt 0.789302 0.742052
vt 0.592483 0.110155
vt 0.555898 0.464076
vt 0.555898 0.523764
vt 0.513692 0.565970
vt 0.411798 0.523764
vt 0.411798 0.464076
vt 0.493778 0.566141
vt 0.480081 0.533074
vt 0.621476 0.384478
vt 0.681948 0.528678
vt 0.622743 0.673403
vt 0.333818 0.674670
vt 0.332551 0.385746
vt 0.782361 0.354987
vt 0.404983 0.610154
vt 0.101801 0.757948
vt 0.844862 0.711165
vt 0.748708 0.596691
vt 0.248708 0.215808
vt 0.794040 0.282196
vt 0.794040 0.219696
vt 0.163220 0.931109
vt 0.714466 0.328605
vt 0.681950 0.529274
vt 0.621898 0.384899
vt 0.477346 0.325272
vt 0.273345 0.529875
vt 0.333396 0.674251
vt 0.433777 0.566555
vt 0.447645 0.533074
vt 0.513804 0.566239
vt 0.453893 0.566239
vt 0.411529 0.523875
vt 0.453893 0.421601
vt 0.556167 0.463965
vt 0.842962 0.724779
vt 0.464466 0.233895
vt 0.788219 0.693891
vt 0.780463 0.337721
vt 0.904885 -0.776497
vt 0.371107 0.046786
vt 0.842019 0.054987
vt 0.251479 0.943997
vt 0.592601 0.943997
vt 0.094276 0.886655
vt 0.810624 0.107511
vt 0.222674 0.953214
vt 0.231844 0.184992
vt 0.810944 0.815008
vt 0.173075 0.168200
vt 0.389197 0.207919
vt 0.426238 0.309570
vt 0.128085 0.392998
vt 0.317346 0.968443
vt 0.759540 0.600754
vt 0.779756 0.240690
vt 0.500000 0.847368
vt 0.808972 0.808306
vt 0.789058 0.250000
vt 0.796280 0.187500
vt 0.934109 0.281239
vt 0.984961 0.503255
vt 0.501074 0.017415
vt 0.701506 0.017415
vt 0.074327 0.000075
vt 0.565172 0.046989
vt 0.046380 0.302695
vt 0.081675 0.999925
vt 0.057426 0.954799
vt 0.030397 0.654613
vt 0.000075 0.297369
vt 0.139294 0.999941
vt 0.000059 0.994712
vt 0.000059 0.002090
vt 0.207380 0.999941
vt 0.000059 0.804417
vt 0.002477 0.000059
vt 0.000076 0.038071
vt 0.000076 0.965862
vt 0.522108 0.049855
vt 0.501337 0.000076
vt 0.468862 0.072371
vt 0.538807 0.347557
vt 0.535007 0.694179
vt 0.582062 0.697596
vt 0.848587 0.173965
vt 0.825223 0.234442
vt 0.765939 0.260685
vt 0.523150 0.510200
vt 0.500128 0.533222
vt 0.467569 0.533222
s 0
usemtl corinthian
f 15/12/3 8/13/3 16/14/3
f 146/15/3 8/16/3 142/17/3
f 7/18/2 10/19/2 8/20/2
f 8/21/4 143/22/4 142/23/4
f 6/24/5 144/25/5 141/26/5
f 6/27/6 11/28/6 12/29/6
f 144/30/3 14/31/3 145/32/3
f 11/33/3 14/34/3 12/35/3
f 14/36/7 146/37/7 145/38/7
f 14/39/8 15/40/8 16/41/8
f 18/42/9 19/43/9 17/44/9
f 20/45/10 21/46/10 19/47/10
f 22/48/11 23/49/11 21/50/11
f 23/54/13 26/55/13 25/56/13
f 19/57/14 21/58/14 23/59/14
f 28/46/15 29/45/15 27/60/15
f 30/61/16 31/62/16 29/63/16
f 31/54/17 34/55/17 33/56/17
f 151/64/18 36/55/18 35/56/18
f 35/65/19 28/66/19 27/67/19
f 37/68/20 40/69/20 39/70/20
f 40/71/21 41/72/21 39/69/21
f 42/73/22 43/74/22 41/75/22
f 44/76/23 45/74/23 43/75/23
f 46/71/24 47/77/24 45/78/24
f 48/79/25 49/72/25 47/69/25
f 44/80/26 42/81/26 50/82/26
f 49/75/27 52/83/27 51/74/27
f 52/84/28 37/74/28 51/75/28
f 54/72/30 55/79/30 53/88/30
f 56/70/31 57/89/31 55/69/31
f 57/75/32 60/83/32 59/74/32
f 59/75/33 62/90/33 61/74/33
f 62/71/34 63/77/34 61/78/34
f 63/91/35 66/92/35 65/89/35
f 66/73/37 67/74/37 65/75/37
f 68/96/38 53/74/38 67/97/38
f 63/98/39 65/99/39 67/100/39
f 76/119/46 74/120/46 82/121/46
f 81/122/45 84/123/45 83/124/45
f 83/125/47 70/126/47 69/127/47
f 86/131/48 88/132/48 87/133/48
f 87/134/49 90/132/49 89/135/49
f 104/169/55 105/170/55 103/171/55
f 106/172/57 91/173/57 105/174/57
f 97/175/54 101/176/54 105/177/54
f 108/131/58 110/132/58 109/133/58
f 110/178/59 111/135/59 109/179/59
f 13/225/63 138/226/63 15/227/63
f 136/228/3 13/229/3 11/230/3
f 5/231/64 136/232/64 11/233/64
f 134/234/1 9/235/1 7/236/1
f 138/237/3 7/238/3 15/239/3
f 144/242/3 149/243/3 148/244/3
f 142/245/4 156/246/4 155/247/4
f 146/15/3 155/248/3 150/249/3
f 17/267/39 26/55/39 18/268/39
f 31/275/68 33/276/68 151/277/68
f 15/12/3 7/280/3 8/13/3
f 146/15/3 16/281/3 8/16/3
f 7/18/2 9/282/2 10/19/2
f 8/21/4 10/283/4 143/22/4
f 6/24/5 12/284/5 144/25/5
f 6/27/6 5/285/6 11/28/6
f 144/30/3 12/286/3 14/31/3
f 11/33/3 13/287/3 14/34/3
f 14/36/7 16/288/7 146/37/7
f 14/39/8 13/289/8 15/40/8
f 18/42/9 20/290/9 19/43/9
f 20/45/10 22/60/10 21/46/10
f 22/48/11 24/291/11 23/49/11
f 23/54/13 24/293/13 26/55/13
f 23/59/14 25/294/14 17/267/14
f 17/267/14 19/57/14 23/59/14
f 28/46/15 30/47/15 29/45/15
f 30/61/16 32/295/16 31/62/16
f 31/54/17 32/293/17 34/55/17
f 151/64/18 152/296/18 36/55/18
f 35/65/19 36/297/19 28/66/19
f 37/68/20 38/89/20 40/69/20
f 40/71/21 42/298/21 41/72/21
f 42/73/22 44/83/22 43/74/22
f 44/76/23 46/90/23 45/74/23
f 46/71/24 48/298/24 47/77/24
f 48/79/25 50/88/25 49/72/25
f 42/81/26 40/299/26 50/82/26
f 40/299/26 38/300/26 50/82/26
f 38/300/26 52/301/26 50/82/26
f 50/82/26 48/302/26 46/303/26
f 46/303/26 44/80/26 50/82/26
f 49/75/27 50/73/27 52/83/27
f 52/84/28 38/304/28 37/74/28
f 54/72/30 56/69/30 55/79/30
f 56/70/31 58/68/31 57/89/31
f 57/75/32 58/73/32 60/83/32
f 59/75/33 60/76/33 62/90/33
f 62/71/34 64/298/34 63/77/34
f 63/91/35 64/310/35 66/92/35
f 66/73/37 68/83/37 67/74/37
f 68/96/38 54/90/38 53/74/38
f 67/100/39 53/316/39 55/317/39
f 55/317/39 57/318/39 67/100/39
f 57/318/66 59/319/66 67/100/66
f 59/319/39 61/320/39 67/100/39
f 61/320/39 63/98/39 67/100/39
f 74/120/46 72/327/46 70/328/46
f 70/328/46 84/329/46 74/120/46
f 84/329/46 82/121/46 74/120/46
f 82/121/46 80/330/46 78/331/46
f 78/331/46 76/119/46 82/121/46
f 81/122/45 82/332/45 84/123/45
f 83/125/47 84/333/47 70/126/47
f 86/131/48 85/178/48 88/132/48
f 87/134/49 88/178/49 90/132/49
f 104/169/55 106/354/55 105/170/55
f 106/172/57 92/355/57 91/173/57
f 105/177/54 91/356/54 97/175/54
f 91/356/54 93/357/54 97/175/54
f 93/357/54 95/358/54 97/175/54
f 97/175/54 99/359/54 101/176/54
f 101/176/54 103/360/54 105/177/54
f 108/131/58 107/178/58 110/132/58
f 110/178/59 112/132/59 111/135/59
f 13/225/63 137/378/63 138/226/63
f 136/228/3 137/379/3 13/229/3
f 5/231/64 133/380/64 136/232/64
f 134/234/1 135/381/1 9/235/1
f 138/237/3 134/382/3 7/238/3
f 144/242/3 145/384/3 149/243/3
f 142/245/4 143/385/4 156/246/4
f 146/15/3 142/17/3 155/248/3
f 17/267/39 25/294/39 26/55/39
f 35/414/68 27/415/68 151/277/68
f 27/415/68 29/416/68 151/277/68
f 29/416/68 31/275/68 151/277/68
usemtl base
f 132/1/1 1/2/1 131/3/1
f 2/4/2 3/5/2 1/6/2
f 2/7/3 6/8/3 4/9/3
f 140/10/3 6/8/3 141/11/3
f 24/51/12 22/52/12 20/53/12
f 69/101/40 72/102/40 71/103/40
f 72/104/41 73/105/41 71/106/41
f 73/107/42 76/108/42 75/109/42
f 76/110/43 77/111/43 75/112/43
f 79/113/44 89/114/44 81/115/44
f 82/116/45 89/117/45 90/118/45
f 80/136/46 85/137/46 78/138/46
f 77/139/42 85/140/42 86/141/42
f 80/142/46 90/143/46 88/144/46
f 77/145/44 87/146/44 79/147/44
f 92/148/50 93/149/50 91/150/50
f 93/151/51 96/152/51 95/153/51
f 96/154/52 97/155/52 95/156/52
f 98/157/53 99/158/53 97/159/53
f 101/160/54 111/161/54 103/162/54
f 103/163/55 112/164/55 104/165/55
f 100/180/56 110/181/56 107/182/56
f 99/183/52 107/184/52 108/185/52
f 102/186/56 112/187/56 110/188/56
f 99/189/54 109/190/54 101/191/54
f 120/192/2 122/193/2 121/194/2
f 113/195/60 125/196/60 122/197/60
f 121/198/60 125/199/60 126/200/60
f 119/201/61 113/202/61 122/203/61
f 115/204/62 121/205/62 116/206/62
f 114/207/3 120/208/3 115/209/3
f 116/210/60 126/211/60 124/212/60
f 130/213/60 127/214/60 128/215/60
f 123/216/61 129/217/61 125/218/61
f 126/219/62 128/220/62 124/221/62
f 125/222/2 130/223/2 126/224/2
f 132/240/3 5/241/3 2/7/3
f 140/10/3 154/250/3 153/251/3
f 4/252/4 139/253/4 3/254/4
f 3/255/60 139/256/60 157/257/60
f 157/258/65 154/259/65 149/260/65
f 117/261/65 127/262/65 123/263/65
f 118/264/66 115/265/66 124/266/66
f 128/269/4 135/270/4 137/271/4
f 152/272/67 34/273/67 32/274/67
f 132/1/1 2/278/1 1/2/1
f 2/4/2 4/279/2 3/5/2
f 2/7/3 5/241/3 6/8/3
f 140/10/3 4/9/3 6/8/3
f 20/53/12 18/268/12 26/292/12
f 26/292/12 24/51/12 20/53/12
f 69/101/40 70/321/40 72/102/40
f 72/104/41 74/322/41 73/105/41
f 73/107/42 74/323/42 76/108/42
f 76/110/43 78/324/43 77/111/43
f 79/113/44 87/325/44 89/114/44
f 82/116/45 81/326/45 89/117/45
f 80/136/46 88/339/46 85/137/46
f 77/139/42 78/340/42 85/140/42
f 80/142/46 82/341/46 90/143/46
f 77/145/44 86/342/44 87/146/44
f 92/148/50 94/343/50 93/149/50
f 93/151/51 94/344/51 96/152/51
f 96/154/52 98/345/52 97/155/52
f 98/157/53 100/346/53 99/158/53
f 101/160/54 109/347/54 111/161/54
f 103/163/55 111/348/55 112/164/55
f 100/180/56 102/361/56 110/181/56
f 99/183/52 100/362/52 107/184/52
f 102/186/56 104/363/56 112/187/56
f 99/189/54 108/364/54 109/190/54
f 120/192/2 119/365/2 122/193/2
f 113/195/60 123/366/60 125/196/60
f 121/198/60 122/367/60 125/199/60
f 119/201/61 114/368/61 113/202/61
f 115/204/62 120/369/62 121/205/62
f 115/209/3 118/370/3 114/207/3
f 114/207/3 119/371/3 120/208/3
f 116/210/60 121/372/60 126/211/60
f 129/373/60 127/214/60 130/213/60
f 127/214/60 117/374/60 128/215/60
f 123/216/61 127/375/61 129/217/61
f 126/219/62 130/376/62 128/220/62
f 125/222/2 129/377/2 130/223/2
f 132/240/3 133/383/3 5/241/3
f 140/10/3 141/11/3 154/250/3
f 4/252/4 140/386/4 139/253/4
f 139/256/60 147/387/60 157/257/60
f 157/257/60 131/388/60 1/389/60
f 1/389/60 3/255/60 157/257/60
f 156/390/65 117/391/65 155/392/65
f 117/391/65 157/258/65 149/260/65
f 155/392/65 117/391/65 149/260/65
f 157/258/65 147/393/65 154/259/65
f 147/393/65 153/394/65 154/259/65
f 154/259/65 148/395/65 149/260/65
f 149/260/65 150/396/65 155/392/65
f 123/263/65 113/397/65 114/398/65
f 114/398/65 118/399/65 123/263/65
f 118/399/65 117/261/65 123/263/65
f 115/265/66 116/400/66 124/266/66
f 124/266/66 128/401/66 117/402/66
f 117/402/66 118/264/66 124/266/66
f 157/403/66 117/404/66 137/271/66
f 117/404/66 128/269/66 137/271/66
f 132/405/66 131/406/66 133/407/66
f 131/406/66 157/403/66 133/407/66
f 137/271/66 136/408/66 133/407/66
f 137/271/66 133/407/66 157/403/66
f 134/409/66 138/410/66 137/271/66
f 135/270/66 134/409/66 137/271/66
f 32/274/67 30/411/67 152/272/67
f 30/411/67 28/412/67 152/272/67
f 28/412/67 36/413/67 152/272/67
usemtl volute
f 49/85/29 51/86/29 43/87/29
f 66/93/36 62/94/36 58/95/36
f 75/128/44 79/129/44 83/130/44
f 98/166/56 96/167/56 104/168/56
f 51/86/29 37/305/29 39/306/29
f 39/306/29 41/307/29 51/86/29
f 41/307/29 43/87/29 51/86/29
f 43/87/29 45/308/29 47/309/29
f 47/309/29 49/85/29 43/87/29
f 58/95/4 56/311/4 54/312/4
f 54/312/36 68/313/36 58/95/36
f 68/313/4 66/93/4 58/95/4
f 66/93/36 64/314/36 62/94/36
f 62/94/4 60/315/4 58/95/4
f 83/130/44 69/334/44 71/335/44
f 71/335/44 73/336/44 83/130/44
f 73/336/44 75/128/44 83/130/44
f 75/128/44 77/337/44 79/129/44
f 79/129/44 81/338/44 83/130/44
f 96/167/56 94/349/56 104/168/56
f 94/349/56 92/350/56 104/168/56
f 92/350/56 106/351/56 104/168/56
f 104/168/56 102/352/56 100/353/56
f 100/353/56 98/166/56 104/168/56
