# Blender 5.1.1
# www.blender.org
mtllib giant_doric_capital.mtl
o doric_capital_giant
v 0.440808 0.199999 1.350010
v 0.440808 0.399999 1.350010
v -0.350010 0.199999 0.559192
v -0.350010 0.399999 0.559192
v 0.592256 -0.273393 0.984382
v 0.015618 -0.273393 0.407744
v -0.375000 1.000000 1.375000
v -0.375000 0.400000 1.375000
v -0.375000 0.400000 0.000000
v -0.375000 1.000000 0.000000
v 1.000000 1.000000 1.375000
v -0.350010 0.400000 0.000000
v 1.000000 0.400000 1.375000
v 1.000000 1.000000 0.000000
v -0.350010 0.199999 0.000000
v 0.015618 -0.273393 0.000000
v 1.000000 0.199999 1.350010
v 1.000000 0.399999 1.350010
v 1.000000 -0.273393 0.984382
v 1.000000 1.000000 1.375000
v 1.000000 0.400000 1.375000
v 1.000000 0.199999 1.350010
v 1.000000 0.399999 1.350010
v 1.000000 -0.273393 0.984382
v 1.000000 1.000000 1.375000
v 1.000000 0.400000 1.375000
v 1.000000 0.199999 1.350010
v 1.000000 0.399999 1.350010
v 1.000000 -0.273393 0.984382
v 1.000000 0.399999 0.000000
v 1.000000 0.199999 0.000000
v 1.000000 -0.273393 0.000000
vn -0.0000 -0.0000 1.0000
vn -0.7071 -0.0000 0.7071
vn -0.0000 -0.6113 0.7914
vn -0.5596 -0.6113 0.5596
vn -0.0000 1.0000 -0.0000
vn -1.0000 -0.0000 -0.0000
vn -0.7914 -0.6113 -0.0000
vn -0.0000 -1.0000 -0.0000
vn -0.0000 -0.0000 -1.0000
vn 1.0000 -0.0000 -0.0000
vt 0.500000 0.562500
vt 0.000000 0.375000
vt 0.500000 0.375000
vt 0.000000 0.625000
vt 1.000000 0.812500
vt 0.000000 0.812500
vt 0.997284 0.812403
vt 0.503241 0.187597
vt 0.997284 0.187597
vt 0.000000 0.750000
vt 0.875000 0.187500
vt 1.000000 0.750000
vt 0.000100 0.999900
vt 0.999900 0.000100
vt 0.999900 0.999900
vt 1.000000 0.437500
vt 0.000000 0.000000
vt 1.000000 0.000000
vt 0.000000 0.562500
vt 1.000000 1.000000
vt 0.000000 1.000000
vt 0.997285 0.187597
vt 0.503241 0.812403
vt 0.375097 0.187597
vt 0.500000 0.625000
vt 0.500000 0.812500
vt 0.539144 0.517517
vt 0.588910 0.502733
vt 0.556172 0.535340
vt 0.585804 0.493129
vt 0.702371 0.447696
vt 0.114967 0.237935
vt 0.058674 0.349304
vt 0.120597 0.288075
vt 0.592004 0.512324
vt 0.573239 0.553139
vt 0.697094 0.440010
vt 0.049553 0.359101
vt 0.123400 0.313148
vt 0.000100 0.001437
vt 0.998563 0.586323
vt 0.000100 0.999900
vt 0.999882 0.000118
vt 0.999882 0.999900
vt 0.981711 0.000118
vt 0.000000 0.437500
vt 1.000000 0.562500
vt 1.000000 0.625000
vt 0.000059 0.729139
vt 0.350676 0.000059
vt 0.350676 0.999941
vt 0.350676 0.729139
vt 0.000059 0.000059
vt 0.350676 0.000059
vt 0.375097 0.812403
vt 0.125000 0.187500
vt 0.000100 0.000100
vt 0.997285 0.812403
vt 0.705008 0.451532
vt 0.076919 0.329675
vt 0.000110 0.000100
vt 0.413925 0.000514
vt 0.998563 0.999900
vt 0.000100 0.999900
vt 0.000100 0.981729
vt 0.000100 0.000118
vt 0.999882 0.000100
vt 0.000059 0.000059
vt 0.000059 0.999941
s 0
usemtl all
f 18/1/1 1/2/1 17/3/1
f 2/4/2 3/5/2 1/6/2
f 17/7/3 5/8/3 19/9/3
f 3/10/4 5/11/4 1/12/4
f 10/13/5 11/14/5 14/15/5
f 11/16/1 8/17/1 13/18/1
f 7/19/6 9/20/6 8/21/6
f 15/22/7 6/23/7 3/24/7
f 15/25/6 4/5/6 12/26/6
f 18/27/5 22/28/5 23/29/5
f 17/30/5 24/31/5 22/28/5
f 11/32/5 21/33/5 20/34/5
f 23/29/5 27/35/5 28/36/5
f 22/28/5 29/37/5 27/35/5
f 20/34/5 26/38/5 25/39/5
f 29/40/8 6/41/8 32/42/8
f 13/43/8 8/44/8 28/45/8
f 14/20/5 11/21/5 25/21/5
f 14/18/9 30/16/9 12/46/9
f 30/19/9 15/16/9 12/47/9
f 28/10/10 31/48/10 30/12/10
f 29/49/10 31/50/10 27/51/10
f 16/52/9 31/53/9 32/54/9
f 18/1/1 2/19/1 1/2/1
f 2/4/2 4/48/2 3/5/2
f 17/7/3 1/55/3 5/8/3
f 3/10/4 6/56/4 5/11/4
f 10/13/5 7/57/5 11/14/5
f 11/16/1 7/46/1 8/17/1
f 7/19/6 10/47/6 9/20/6
f 15/22/7 16/58/7 6/23/7
f 15/25/6 3/48/6 4/5/6
f 18/27/5 17/30/5 22/28/5
f 17/30/5 19/59/5 24/31/5
f 11/32/5 13/60/5 21/33/5
f 23/29/5 22/28/5 27/35/5
f 22/28/5 24/31/5 29/37/5
f 20/34/5 21/33/5 26/38/5
f 19/61/8 5/62/8 6/41/8
f 6/41/8 16/63/8 32/42/8
f 29/40/5 19/61/5 6/41/5
f 8/44/8 9/64/8 12/65/8
f 12/65/8 30/66/8 28/45/8
f 8/44/8 12/65/8 28/45/8
f 28/45/5 26/67/5 13/43/5
f 26/19/10 28/19/10 25/21/10
f 28/19/10 30/47/10 14/20/10
f 25/21/10 28/19/10 14/20/10
f 9/46/9 10/17/9 12/46/9
f 10/17/9 14/18/9 12/46/9
f 30/19/9 31/46/9 15/16/9
f 28/10/10 27/4/10 31/48/10
f 29/49/10 32/68/10 31/50/10
f 16/52/9 15/69/9 31/53/9
