# Blender 5.1.1
# www.blender.org
mtllib giant_roman_ionic_base.mtl
o small_roman_ionic_base
v -0.255773 0.825001 0.531141
v -0.255773 1.100001 0.531141
v 0.468857 0.825001 1.255771
v 0.468857 1.100001 1.255771
v -0.118760 0.550001 0.474388
v -0.118760 0.825000 0.474388
v 0.525610 0.550001 1.118758
v 0.525610 0.825000 1.118758
v 0.101248 0.275001 0.383258
v 0.101248 0.550001 0.383258
v 0.616740 0.275001 0.898750
v 0.616740 0.550001 0.898750
v 0.018748 0.275000 0.981250
v 0.018748 0.000000 0.981250
v -0.255773 0.825001 0.000000
v -0.255773 1.100001 0.000000
v -0.118760 0.550001 0.000000
v -0.118760 0.825000 0.000000
v 0.101248 0.275001 0.000000
v 0.101248 0.550001 0.000000
v 0.018748 0.000000 0.000000
v 0.018748 0.275000 0.000000
v 1.000000 0.825001 1.255771
v 1.000000 1.100001 1.255771
v 1.000000 0.550001 1.118758
v 1.000000 0.825000 1.118758
v 1.000000 0.275001 0.898750
v 1.000000 0.550001 0.898750
v 1.000000 0.000000 0.981250
v 1.000000 0.275000 0.981250
v 1.000000 1.100001 0.000000
v 1.000000 0.275000 -0.000000
v 1.000000 0.000000 0.000000
v 1.000000 0.550001 0.000000
v 1.000000 0.825001 0.000000
v 1.000000 1.100001 0.627886
v 1.000000 0.825001 0.627886
v 1.000000 0.550001 0.559379
v 1.000000 0.825001 0.559379
v 0.372113 1.100001 0.000000
v 0.372113 0.825001 0.000000
v 0.440620 0.550001 0.000000
v 0.440620 0.825001 0.000000
v 0.106542 0.825001 0.893456
v 0.106542 1.100001 0.893456
v 0.018748 0.000000 0.490625
v 0.018748 0.275000 0.490625
v 1.000000 0.275000 0.490625
v 1.000000 0.000000 0.490625
v 0.509374 0.275000 0.981250
v 0.509374 0.000000 0.981250
v 0.509374 0.275000 0.000000
v 0.509374 0.000000 0.000000
v 0.509374 0.000000 0.490625
v 0.509374 0.275000 0.490625
v 0.468350 1.100001 0.000000
v 1.000000 1.100001 0.529122
v 0.468564 1.100001 0.529977
vn -0.0000 -0.0000 1.0000
vn -0.7071 -0.0000 0.7071
vn -1.0000 -0.0000 -0.0000
vn -0.0000 1.0000 -0.0000
vn -0.0000 -1.0000 -0.0000
vn 1.0000 -0.0000 -0.0000
vn -0.0000 -0.0000 -1.0000
vt 0.255756 0.655767
vt 0.532988 0.128908
vt 0.532988 0.655767
vt 0.161360 0.586049
vt 0.438592 0.077791
vt 0.438592 0.586049
vt 0.444689 0.544803
vt 0.733709 0.093431
vt 0.733709 0.544803
vt 0.668540 0.954205
vt 0.957560 0.087146
vt 0.957560 0.954205
vt 0.448734 0.648752
vt 0.731913 0.276569
vt 0.731913 0.648752
vt 0.214682 0.825224
vt 0.497861 0.117276
vt 0.497861 0.825224
vt 0.467117 0.538534
vt 0.724354 0.014037
vt 0.724354 0.538534
vt 0.453953 0.719341
vt 0.196716 0.194845
vt 0.453953 0.194845
vt 0.444280 0.723977
vt 0.727459 0.351795
vt 0.727459 0.723977
vt 0.408339 0.667316
vt 0.697359 0.215946
vt 0.697359 0.667316
vt 0.970488 0.855690
vt 0.693256 0.328833
vt 0.970488 0.328833
vt 0.940577 0.935245
vt 0.449956 0.444623
vt 0.940577 0.444623
vt 0.990695 0.500749
vt 0.500072 0.010128
vt 0.990695 0.010128
vt 0.033459 0.044356
vt 0.253470 0.864513
vt 0.033459 0.955644
vt 0.187064 0.708813
vt 0.050053 0.234435
vt 0.187064 0.234435
vt 0.287007 0.944318
vt 0.012010 0.316437
vt 0.287007 0.316437
vt 0.089319 0.378937
vt 0.364317 0.938311
vt 0.089319 0.938311
vt 0.335040 0.054565
vt 0.060042 0.953308
vt 0.060043 0.054565
vt 0.320836 0.503937
vt 0.045838 0.013316
vt 0.320836 0.013315
vt 0.350764 0.316437
vt 0.075766 0.944319
vt 0.075766 0.316437
vt 0.364798 0.938312
vt 0.089800 0.378937
vt 0.364798 0.378937
vt 0.058786 0.054564
vt 0.333783 0.953309
vt 0.058786 0.953309
vt 0.320322 0.503937
vt 0.045324 0.994559
vt 0.045324 0.503937
vt 0.349507 0.592674
vt 0.074510 0.691437
vt 0.074510 0.063556
vt 0.364316 0.069562
vt 0.089319 0.628937
vt 0.089319 0.069562
vt 0.350764 0.691437
vt 0.075766 0.691437
vt 0.075766 0.595201
vt 0.364797 0.069561
vt 0.089800 0.628937
vt 0.089800 0.069561
vt 0.661360 0.969307
vt 0.938592 0.461049
vt 0.938592 0.969307
vt 0.045838 0.994558
vt 0.320836 0.994558
vt 0.990695 0.510128
vt 0.500072 0.019507
vt 0.990694 0.019507
vt 0.003077 0.997745
vt 0.493698 0.507123
vt 0.493698 0.997745
vt 0.571716 0.806338
vt 0.828953 0.281841
vt 0.828953 0.806338
vt 0.556198 0.550868
vt 0.065577 0.060245
vt 0.556198 0.060245
vt 0.543817 0.510128
vt 0.053194 0.019507
vt 0.543816 0.019507
vt 0.320322 0.013315
vt 0.045324 0.013315
vt 0.543817 0.938249
vt 0.053195 0.447628
vt 0.543817 0.447628
vt 0.012456 0.988368
vt 0.503077 0.497745
vt 0.503077 0.988368
vt 0.279617 0.875530
vt 0.536854 0.351034
vt 0.536854 0.875530
vt 0.422519 0.578645
vt 0.060508 0.215177
vt 0.784823 0.216341
vt 0.247133 0.590759
vt 0.247133 0.059633
vt 0.874999 0.059633
vt 0.036259 0.434633
vt 0.565365 0.966267
vt 0.035405 0.966053
vt 0.940366 0.312500
vt 0.409241 0.940367
vt 0.410405 0.216053
vt 0.013203 0.073410
vt 0.141481 0.020276
vt 0.141481 0.500000
vt 0.050053 0.765566
vt 0.187063 0.291186
vt 0.187063 0.765566
vt 0.099204 0.737198
vt 0.319215 0.353933
vt 0.319215 0.737198
vt 0.319215 0.646066
vt 0.099204 0.262803
vt 0.319215 0.262803
vt 0.255756 0.128908
vt 0.161360 0.077791
vt 0.444689 0.093431
vt 0.668540 0.087146
vt 0.448734 0.276569
vt 0.214682 0.117276
vt 0.467117 0.014037
vt 0.196716 0.719341
vt 0.444280 0.351795
vt 0.408339 0.215946
vt 0.693256 0.855690
vt 0.449956 0.935245
vt 0.500072 0.500749
vt 0.253470 0.135487
vt 0.050053 0.765565
vt 0.012010 0.944318
vt 0.364317 0.378937
vt 0.335040 0.953309
vt 0.045838 0.503937
vt 0.350764 0.944318
vt 0.089800 0.938312
vt 0.333784 0.054564
vt 0.320322 0.994559
vt 0.349507 0.063556
vt 0.349507 0.691437
vt 0.364317 0.628937
vt 0.075766 0.063555
vt 0.350764 0.063555
vt 0.364798 0.628937
vt 0.661360 0.461049
vt 0.500072 0.510128
vt 0.003077 0.507123
vt 0.571716 0.281841
vt 0.065577 0.550868
vt 0.053195 0.510128
vt 0.053195 0.938249
vt 0.012456 0.497745
vt 0.279617 0.351034
vt 0.060215 0.940949
vt 0.973759 0.059633
vt 0.972905 0.591053
vt 0.565365 0.434633
vt 0.940366 0.216267
vt 0.940365 0.940367
vt 0.141481 0.979724
vt 0.013203 0.926590
vt 0.050053 0.234434
vt 0.099204 0.262802
vt 0.099204 0.737197
s 0
usemtl ionic_base
f 24/1/1 3/2/1 23/3/1
f 45/4/2 1/5/2 44/6/2
f 26/7/1 7/8/1 25/9/1
f 8/10/2 5/11/2 7/12/2
f 28/13/1 11/14/1 27/15/1
f 12/16/2 9/17/2 11/18/2
f 50/19/1 14/20/1 51/21/1
f 46/22/3 22/23/3 21/24/3
f 10/25/3 19/26/3 9/27/3
f 6/28/3 17/29/3 5/30/3
f 1/31/3 16/32/3 15/33/3
f 55/34/4 30/35/4 48/36/4
f 53/37/5 49/38/5 54/39/5
f 5/40/5 12/41/5 7/42/5
f 6/43/5 15/44/5 18/45/5
f 24/46/6 37/47/6 36/48/6
f 39/49/6 34/50/6 35/51/6
f 27/52/6 34/53/6 28/54/6
f 48/55/6 33/56/6 32/57/6
f 41/58/7 16/59/7 40/60/7
f 35/61/7 42/62/7 43/63/7
f 34/64/7 19/65/7 20/66/7
f 52/67/7 33/68/7 53/69/7
f 57/70/6 37/71/6 35/72/6
f 25/73/6 39/74/6 26/75/6
f 41/76/7 40/77/7 56/78/7
f 18/79/7 42/80/7 17/81/7
f 4/82/2 44/83/2 3/84/2
f 29/85/6 48/55/6 30/86/6
f 54/87/5 29/88/5 51/89/5
f 55/90/4 32/91/4 52/92/4
f 13/93/3 46/94/3 14/95/3
f 22/96/4 55/97/4 52/98/4
f 46/99/5 51/100/5 14/101/5
f 22/102/7 53/69/7 21/103/7
f 21/104/5 54/105/5 46/106/5
f 13/107/4 55/108/4 47/109/4
f 30/110/1 51/111/1 29/112/1
f 45/113/4 58/114/4 2/115/4
f 4/116/4 24/117/4 36/118/4
f 57/119/4 56/120/4 58/121/4
f 40/122/4 2/123/4 58/124/4
f 8/125/5 3/126/5 44/127/5
f 23/128/5 8/129/5 26/130/5
f 25/131/5 12/132/5 28/133/5
f 10/134/5 17/135/5 20/136/5
f 24/1/1 4/137/1 3/2/1
f 45/4/2 2/138/2 1/5/2
f 26/7/1 8/139/1 7/8/1
f 8/10/2 6/140/2 5/11/2
f 28/13/1 12/141/1 11/14/1
f 12/16/2 10/142/2 9/17/2
f 50/19/1 13/143/1 14/20/1
f 46/22/3 47/144/3 22/23/3
f 10/25/3 20/145/3 19/26/3
f 6/28/3 18/146/3 17/29/3
f 1/31/3 2/147/3 16/32/3
f 55/34/4 50/148/4 30/35/4
f 53/37/5 33/149/5 49/38/5
f 5/40/5 10/150/5 12/41/5
f 6/43/5 1/151/5 15/44/5
f 24/46/6 23/152/6 37/47/6
f 39/49/6 38/153/6 34/50/6
f 27/52/6 32/154/6 34/53/6
f 48/55/6 49/155/6 33/56/6
f 41/58/7 15/156/7 16/59/7
f 35/61/7 34/157/7 42/62/7
f 34/64/7 32/158/7 19/65/7
f 52/67/7 32/159/7 33/68/7
f 35/72/6 31/160/6 57/70/6
f 57/70/6 36/161/6 37/71/6
f 25/73/6 38/162/6 39/74/6
f 56/78/7 31/163/7 35/164/7
f 35/164/7 41/76/7 56/78/7
f 18/79/7 43/165/7 42/80/7
f 4/82/2 45/166/2 44/83/2
f 29/85/6 49/155/6 48/55/6
f 54/87/5 49/167/5 29/88/5
f 55/90/4 48/168/4 32/91/4
f 13/93/3 47/169/3 46/94/3
f 22/96/4 47/170/4 55/97/4
f 46/99/5 54/171/5 51/100/5
f 22/102/7 52/67/7 53/69/7
f 21/104/5 53/172/5 54/105/5
f 13/107/4 50/173/4 55/108/4
f 30/110/1 50/174/1 51/111/1
f 45/113/4 4/175/4 58/114/4
f 57/176/4 58/177/4 36/118/4
f 58/177/4 4/116/4 36/118/4
f 57/119/4 31/178/4 56/120/4
f 58/124/4 56/179/4 40/122/4
f 40/122/4 16/180/4 2/123/4
f 44/127/5 1/181/5 6/182/5
f 6/182/5 8/125/5 44/127/5
f 23/128/5 3/183/5 8/129/5
f 25/131/5 7/184/5 12/132/5
f 10/134/5 5/185/5 17/135/5
