# Blender 5.1.1
# www.blender.org
mtllib giant_ionic_capital_right.mtl
o ionic_capital_giant
v -0.031250 0.841875 -0.347500
v -0.031250 0.326250 -0.347500
v 0.515885 0.061564 -0.168758
v 0.515885 0.336564 -0.168758
v 0.377794 0.676856 -0.038125
v 0.377794 0.676856 -0.381875
v 0.530138 0.309063 -0.038125
v 0.530138 0.309063 -0.381875
v 0.377794 -0.058729 -0.038125
v 0.377794 -0.058729 -0.381875
v 0.010001 -0.211074 -0.038125
v 0.010001 -0.211074 -0.381875
v -0.357792 -0.058729 -0.038125
v -0.357792 -0.058729 -0.381875
v -0.510136 0.309063 -0.038125
v -0.510136 0.309063 -0.381875
v -0.357792 0.676856 -0.038125
v -0.357792 0.676856 -0.381875
v 0.010001 0.829200 -0.038125
v 0.010001 0.829200 -0.381875
v -0.031250 0.061564 1.000000
v 0.274727 0.061564 1.000000
v -0.031250 0.326250 1.000000
v -0.031250 0.841875 1.000000
v 1.000000 0.841875 1.000000
v 1.000000 0.326250 1.000000
v 0.269684 0.568738 -0.058750
v 0.377244 0.309063 -0.058750
v 0.269683 0.049389 -0.058750
v 0.010009 -0.058172 -0.058750
v -0.249666 0.049389 -0.058750
v 1.000000 0.061564 1.000000
v -0.357226 0.309063 -0.058750
v -0.249666 0.568738 -0.058750
v 0.010009 0.676298 -0.058750
v -0.117187 1.000000 -0.375000
v -0.117187 0.828125 -0.375000
v 1.000000 1.000000 -0.375000
v 1.000000 0.828125 -0.375000
v 1.000000 0.841875 -0.347500
v 1.000000 0.326250 -0.347500
v 1.000000 0.061564 -0.168758
v 0.173563 0.336564 0.173563
v 0.269684 0.568738 1.000000
v 0.377244 0.309063 1.000000
v 0.269683 0.049389 1.000000
v 0.010009 -0.058172 1.000000
v -0.249666 0.049389 1.000000
v -0.357226 0.309063 1.000000
v -0.249666 0.568738 1.000000
v 0.010009 0.676298 1.000000
v -0.117187 1.000000 1.000000
v -0.117187 0.828125 1.000000
v 1.000000 0.828125 1.000000
v 1.000000 1.000000 1.000000
v 0.173563 0.061564 0.173563
v 1.000000 0.326250 -0.168758
v 0.173563 0.061564 1.000000
vn -0.0000 -1.0000 -0.0000
vn -0.0000 -0.0000 -1.0000
vn 1.0000 -0.0000 -0.0000
vn 0.9239 0.3827 -0.0000
vn 0.9239 -0.3827 -0.0000
vn 0.3827 -0.9239 -0.0000
vn -0.3827 -0.9239 -0.0000
vn -0.9239 -0.3827 -0.0000
vn -0.9239 0.3827 -0.0000
vn -0.3827 0.9239 -0.0000
vn 0.3827 0.9239 -0.0000
vn -0.0000 -0.0000 1.0000
vn -1.0000 -0.0000 -0.0000
vn -0.0000 1.0000 -0.0000
vn -0.7071 -0.0000 -0.7071
vt 0.358419 0.625000
vt 0.375000 0.750000
vt 0.250000 0.750000
vt 0.500000 1.000000
vt -0.000000 0.750000
vt 0.500000 0.750000
vt 0.000048 0.999952
vt 0.226494 0.000048
vt 0.226494 0.999952
vt 0.750000 0.062500
vt 0.375000 0.437500
vt 0.375000 0.062500
vt 0.875000 0.562500
vt 0.500000 0.937500
vt 0.500000 0.562500
vt 0.000000 0.437500
vt 0.000000 0.062500
vt 0.375000 0.562500
vt 0.000000 0.937500
vt 0.000000 0.562500
vt 0.625000 0.312500
vt 0.250000 0.687500
vt 0.250000 0.312500
vt 0.625000 0.562500
vt 1.000000 0.937500
vt 0.625000 0.937500
vt 0.273426 0.724867
vt 0.275133 0.273426
vt 0.726574 0.275133
vt 1.000000 0.062500
vt 0.625000 0.437500
vt 0.625000 0.062500
vt 0.875000 0.062500
vt 0.500000 0.437500
vt 0.500000 0.062500
vt 0.200060 0.375761
vt 0.624239 0.200060
vt 0.799940 0.624239
vt 0.371963 0.809108
vt 0.190892 0.628037
vt 0.800618 0.363473
vt 0.000064 0.000064
vt 0.414228 0.500000
vt 0.000064 0.500000
vt 0.000064 0.999936
vt 0.000064 0.500000
vt 0.019483 0.500000
vt 0.000000 0.000000
vt 0.250000 1.000000
vt 0.000000 1.000000
vt 0.750000 1.000000
vt 1.000000 0.000000
vt 1.000000 1.000000
vt 0.500000 0.000000
vt 0.250000 0.000000
vt 0.414228 0.500000
vt 0.000064 0.500000
vt 0.375000 0.625000
vt 0.250000 0.625000
vt 1.000000 0.187500
vt 0.000000 0.312500
vt 1.000000 0.312500
vt 0.000062 0.999938
vt 0.382668 0.000062
vt 0.382668 0.999938
vt 0.750000 0.625000
vt 0.625000 0.750000
vt 0.625000 0.625000
vt 0.125027 0.000035
vt 0.000035 0.999965
vt 0.000036 0.000035
vt 0.382668 0.999938
vt 0.000062 0.999938
vt 0.000062 0.867308
vt 0.000071 0.999929
vt 0.500000 0.000071
vt 0.500000 0.999929
vt 0.000039 0.000039
vt 0.153873 0.999961
vt 0.000039 0.999961
vt 0.812444 0.999910
vt 0.000090 0.000090
vt 0.812444 0.000090
vt 0.000051 0.000051
vt 0.256690 0.000051
vt 0.256690 0.703275
vt 0.707072 0.000084
vt 0.707072 0.999916
vt 0.000084 0.707072
vt 0.000048 0.000048
vt 0.750000 0.437500
vt 0.875000 0.937500
vt 0.375000 0.937500
vt 0.625000 0.687500
vt 1.000000 0.562500
vt 0.819217 0.501207
vt 0.724867 0.726573
vt 0.498793 0.819217
vt 0.180783 0.498793
vt 0.501207 0.180783
vt 1.000000 0.437500
vt 0.875000 0.437500
vt 0.624239 0.799940
vt 0.375761 0.799940
vt 0.200060 0.624239
vt 0.375761 0.200060
vt 0.799940 0.375761
vt 0.190892 0.371963
vt 0.371963 0.190892
vt 0.628037 0.190892
vt 0.809108 0.371963
vt 0.809108 0.628037
vt 0.628037 0.809108
vt 0.414228 0.000064
vt 0.414228 0.999936
vt 0.750000 0.000000
vt 0.414228 0.999936
vt 0.000000 0.187500
vt 0.000062 0.000062
vt 0.750000 0.750000
vt 0.125026 0.999965
vt 0.000062 0.000062
vt 0.382668 0.000062
vt 0.000071 0.000071
vt 0.153873 0.000039
vt 0.000090 0.999910
vt 0.256690 0.999949
vt 0.000051 0.999949
vt 0.256690 0.801363
vt 0.292928 0.999916
vt 0.000084 0.000084
vt 0.086626 0.000084
s 0
usemtl volute
f 57/1/1 23/3/1 2/2/1
f 18/27/2 10/29/2 14/28/2
f 11/36/12 19/38/12 15/37/12
f 27/42/4 44/44/4 45/43/4
f 29/45/5 22/47/5 46/46/5
f 51/56/11 44/57/11 27/45/11
f 39/58/1 54/59/1 53/3/1
f 25/66/14 40/68/14 1/67/14
f 23/3/1 57/1/1 26/59/1
f 57/1/1 2/2/1 41/58/1
f 10/29/2 6/97/2 8/96/2
f 6/97/2 18/27/2 20/98/2
f 18/27/2 14/28/2 16/99/2
f 14/28/2 10/29/2 12/100/2
f 10/29/2 18/27/2 6/97/2
f 19/38/12 7/104/12 5/103/12
f 7/104/12 11/36/12 9/105/12
f 11/36/12 15/37/12 13/106/12
f 15/37/12 19/38/12 17/107/12
f 19/38/12 11/36/12 7/104/12
f 27/42/4 45/43/4 28/114/4
f 22/47/5 28/115/5 45/56/5
f 28/115/5 22/47/5 29/45/5
f 51/56/11 27/45/11 35/117/11
f 39/58/1 53/3/1 37/2/1
f 25/66/14 1/67/14 24/120/14
usemtl ionic
f 40/4/2 41/6/2 2/5/2
f 38/60/2 39/62/2 37/61/2
f 36/60/13 37/62/13 53/61/13
f 57/6/2 42/34/2 3/16/2
f 4/6/15 3/34/15 56/16/15
f 40/4/2 2/5/2 1/50/2
f 38/60/2 37/61/2 36/118/2
f 36/60/13 53/61/13 52/118/13
f 57/6/2 3/16/2 4/5/2
f 4/6/15 56/16/15 43/5/15
usemtl all
f 42/7/3 57/9/3 26/8/3
f 6/10/4 5/12/4 7/11/4
f 8/13/5 7/15/5 9/14/5
f 10/12/6 9/17/6 11/16/6
f 12/18/7 11/20/7 13/19/7
f 14/21/8 13/23/8 15/22/8
f 15/24/9 17/26/9 18/25/9
f 18/30/10 17/32/10 19/31/10
f 20/33/11 19/35/11 5/34/11
f 49/39/12 22/41/12 50/40/12
f 29/48/6 46/50/6 47/49/6
f 47/51/7 48/53/7 31/52/7
f 31/54/8 48/4/8 49/51/8
f 49/49/9 50/4/9 34/54/9
f 34/49/10 50/55/10 51/48/10
f 1/63/13 2/65/13 23/64/13
f 55/69/3 54/71/3 39/70/3
f 40/72/3 57/74/3 41/73/3
f 24/75/12 23/77/12 26/76/12
f 53/78/12 54/80/12 55/79/12
f 55/81/14 38/83/14 36/82/14
f 26/84/12 22/86/12 32/85/12
f 32/87/1 56/89/1 42/88/1
f 42/7/3 26/8/3 32/90/3
f 6/10/4 7/11/4 8/91/4
f 8/13/5 9/14/5 10/92/5
f 10/12/6 11/16/6 12/11/6
f 12/18/7 13/19/7 14/93/7
f 14/21/8 15/22/8 16/94/8
f 15/24/9 18/25/9 16/95/9
f 18/30/10 19/31/10 20/101/10
f 20/33/11 5/34/11 6/102/11
f 50/40/12 22/41/12 51/108/12
f 51/108/12 22/41/12 44/109/12
f 44/109/12 22/41/12 45/110/12
f 22/41/12 47/112/12 46/111/12
f 47/112/12 22/41/12 48/113/12
f 48/113/12 22/41/12 49/39/12
f 29/48/6 47/49/6 30/55/6
f 47/51/7 31/52/7 30/116/7
f 31/54/8 49/51/8 33/116/8
f 49/49/9 34/54/9 33/55/9
f 34/49/10 51/48/10 35/50/10
f 1/63/13 23/64/13 24/119/13
f 55/69/3 39/70/3 38/121/3
f 57/74/3 25/123/3 26/122/3
f 25/123/3 57/74/3 40/72/3
f 24/75/12 26/76/12 25/124/12
f 53/78/12 55/79/12 52/125/12
f 55/81/14 36/82/14 52/126/14
f 21/127/12 58/129/12 23/128/12
f 23/128/12 22/86/12 26/84/12
f 58/129/12 22/86/12 23/128/12
f 42/88/1 56/89/1 3/130/1
f 56/89/1 22/132/1 58/131/1
f 22/132/1 56/89/1 32/87/1
