# Blender 5.1.2
# www.blender.org
mtllib giant_tuscan_base.mtl
o Cube.293
v -0.375010 0.550002 0.569168
v -0.375010 0.907502 0.569168
v 0.430452 0.550002 1.374630
v 0.430452 0.907502 1.374630
v -0.375000 0.550001 1.374620
v -0.375000 0.000001 1.374620
v 0.430452 0.907502 0.569168
v 1.000000 0.000001 1.374620
v -0.375000 0.000001 -0.000380
v 1.000000 0.000001 -0.000380
v 1.000000 0.550002 1.374630
v 1.000000 0.907502 1.374630
v 1.000000 0.907502 0.569168
v -0.375010 0.550002 -0.000380
v -0.375010 0.907502 -0.000380
v 0.430452 0.907502 -0.000380
v 1.000000 0.907502 -0.000380
vn -0.0000 -0.0000 1.0000
vn -0.7071 -0.0000 0.7071
vn -0.0000 1.0000 -0.0000
vn -0.0000 -1.0000 -0.0000
vn -1.0000 -0.0000 -0.0000
vn -0.0000 -0.0000 -1.0000
vn 1.0000 -0.0000 -0.0000
vt 0.687579 0.999921
vt 1.002671 0.500079
vt 1.002671 0.999921
vt 1.000000 0.000000
vt 0.687500 1.000000
vt 0.687500 0.000000
vt 0.000000 0.562500
vt 0.000000 0.000000
vt 0.562500 0.000000
vt 0.500000 0.437500
vt 0.875000 1.000000
vt 0.500000 1.000000
vt 0.437500 1.000000
vt 0.437500 0.437500
vt 1.000000 0.437500
vt 0.999900 0.999900
vt 0.500000 0.500000
vt 0.999900 0.500000
vt 0.400013 0.585773
vt 0.400013 0.999937
vt 0.000063 0.999937
vt 0.500000 0.875000
vt 0.875000 0.500000
vt 0.875000 0.875000
vt 0.659970 0.585772
vt 0.659970 0.999919
vt 0.000081 0.999919
vt 0.437500 0.875000
vt 1.000000 0.500000
vt 1.000000 0.875000
vt 0.000081 0.585772
vt 0.000081 0.000081
vt 0.260037 0.000081
vt 0.400013 0.414227
vt 0.000063 0.999937
vt 0.000063 0.000063
vt 0.000079 0.499921
vt 0.315171 0.000079
vt 0.315171 0.499921
vt 0.687579 0.500079
vt 1.000000 1.000000
vt 0.875000 0.437500
vt 0.500000 0.999900
vt 0.000063 0.000063
vt 0.400013 0.000063
vt 0.500000 0.500000
vt 0.000081 0.000088
vt 0.400014 0.000081
vt 0.659970 0.000081
vt 0.437500 0.500000
vt 0.659970 0.000088
vt 0.659970 0.999919
vt 0.400013 0.000063
vt 0.400013 0.999937
vt 0.000079 0.000079
s 0
usemtl ionic_base_small
f 12/1/1 3/2/1 11/3/1
f 4/4/2 1/5/2 3/6/2
f 1/7/3 5/8/3 3/9/3
f 13/10/3 4/11/3 12/12/3
f 4/13/3 7/14/3 2/15/3
f 6/16/4 10/17/4 8/18/4
f 1/19/5 14/20/5 9/21/5
f 13/22/3 16/23/3 7/24/3
f 16/25/6 17/26/6 10/27/6
f 7/28/3 15/29/3 2/30/3
f 13/31/7 12/32/7 11/33/7
f 3/34/1 6/35/1 8/36/1
f 2/37/5 14/38/5 1/39/5
f 12/1/1 4/40/1 3/2/1
f 4/4/2 2/41/2 1/5/2
f 13/10/3 7/42/3 4/11/3
f 6/16/4 9/43/4 10/17/4
f 9/21/5 6/44/5 1/19/5
f 6/44/5 5/45/5 1/19/5
f 13/22/3 17/46/3 16/23/3
f 10/27/6 9/47/6 16/25/6
f 9/47/6 14/48/6 16/25/6
f 14/48/6 15/49/6 16/25/6
f 7/28/3 16/50/3 15/29/3
f 11/33/7 8/51/7 13/31/7
f 8/51/7 10/52/7 13/31/7
f 10/52/7 17/27/7 13/31/7
f 8/36/1 11/53/1 3/34/1
f 3/34/1 5/54/1 6/35/1
f 2/37/5 15/55/5 14/38/5
