# Blender 5.1.2
# www.blender.org
mtllib large_composite_capital.mtl
o composite
v 0.616537 0.954560 1.310188
v 0.616543 0.925217 1.398161
v 0.663466 0.847085 1.274336
v 0.663472 0.817741 1.362309
v 0.614641 0.738864 1.238242
v 0.614647 0.709520 1.326215
v 0.498665 0.693291 1.223049
v 0.498671 0.663948 1.311021
v 0.383474 0.737063 1.237657
v 0.383479 0.707720 1.325629
v 0.336545 0.844539 1.273509
v 0.336551 0.815195 1.361481
v 0.385369 0.952760 1.309603
v 0.385375 0.923416 1.397576
v 0.501346 0.998332 1.324796
v 0.501352 0.968989 1.412769
v 0.186305 0.534106 -0.257335
v 0.186305 0.704698 -0.257335
v 0.813697 0.534106 -0.257335
v 0.813697 0.704698 -0.257335
v 1.257331 0.534106 0.186299
v 1.257331 0.704698 0.186299
v 1.257331 0.534106 0.813691
v 1.257331 0.704698 0.813691
v 0.813697 0.534106 1.257325
v 0.813697 0.704698 1.257325
v 0.186305 0.534106 1.257325
v 0.186305 0.704698 1.257325
v -0.257328 0.534106 0.813691
v -0.257328 0.704698 0.813691
v -0.257328 0.534106 0.186299
v -0.257328 0.704698 0.186299
v -0.310192 0.954560 0.616537
v -0.398165 0.925216 0.616542
v -0.274341 0.847085 0.663465
v -0.362313 0.817741 0.663471
v -0.238246 0.738864 0.614641
v -0.326219 0.709520 0.614647
v -0.223053 0.693291 0.498665
v -0.311025 0.663948 0.498670
v -0.237660 0.737063 0.383473
v -0.325632 0.707720 0.383479
v -0.273512 0.844539 0.336545
v -0.361484 0.815195 0.336550
v -0.309606 0.952760 0.385369
v -0.397579 0.923416 0.385374
v -0.324800 0.998332 0.501345
v -0.412772 0.968989 0.501351
v 0.383463 0.954560 -0.310190
v 0.383458 0.925216 -0.398162
v 0.336535 0.847085 -0.274338
v 0.336529 0.817741 -0.362311
v 0.385359 0.738864 -0.238243
v 0.385354 0.709520 -0.326216
v 0.501335 0.693291 -0.223049
v 0.501330 0.663948 -0.311022
v 0.616526 0.737063 -0.237656
v 0.616521 0.707720 -0.325629
v 0.663455 0.844539 -0.273508
v 0.663450 0.815195 -0.361480
v 0.614631 0.952760 -0.309603
v 0.614626 0.923416 -0.397575
v 0.498655 0.998332 -0.324797
v 0.498650 0.968989 -0.412769
v -0.258200 0.642872 1.435364
v -0.346963 0.642872 1.245021
v -0.342557 0.418161 1.474703
v -0.431320 0.418161 1.284360
v -0.258200 0.193449 1.435364
v -0.346963 0.193449 1.245021
v -0.054544 0.100371 1.340393
v -0.143307 0.100371 1.150050
v 0.149112 0.193449 1.245422
v 0.060349 0.193449 1.055079
v 0.233469 0.418161 1.206083
v 0.144706 0.418161 1.015741
v 0.149112 0.642872 1.245422
v 0.060349 0.642872 1.055079
v -0.054544 0.735951 1.340393
v -0.143307 0.735951 1.150050
v 0.177782 0.139778 1.000316
v 0.266545 0.139778 1.190659
v 0.350901 0.364489 1.151321
v 0.262138 0.364489 0.960978
v -0.241281 0.642871 1.350688
v -0.431628 0.642871 1.261933
v -0.280616 0.418160 1.435046
v -0.470963 0.418160 1.346292
v -0.241282 0.193448 1.350688
v -0.431628 0.193448 1.261933
v -0.146319 0.100370 1.147028
v -0.336666 0.100370 1.058273
v -0.051357 0.193448 0.943368
v -0.241704 0.193448 0.854613
v -0.012022 0.418160 0.859009
v -0.202369 0.418160 0.770254
v -0.051357 0.642871 0.943368
v -0.241704 0.642871 0.854613
v -0.146319 0.735949 1.147028
v -0.336666 0.735950 1.058273
v -0.186946 0.139777 0.737178
v 0.003401 0.139777 0.825933
v 0.042735 0.364488 0.741574
v -0.147611 0.364488 0.652819
v -0.435362 0.642874 -0.258199
v -0.245019 0.642874 -0.346962
v -0.474701 0.418163 -0.342556
v -0.284358 0.418163 -0.431319
v -0.435362 0.193452 -0.258199
v -0.245019 0.193452 -0.346962
v -0.340392 0.100373 -0.054543
v -0.150048 0.100373 -0.143306
v -0.245421 0.193452 0.149113
v -0.055078 0.193452 0.060350
v -0.206083 0.418163 0.233470
v -0.015740 0.418163 0.144707
v -0.245421 0.642874 0.149113
v -0.055078 0.642874 0.060350
v -0.340392 0.735953 -0.054543
v -0.150049 0.735953 -0.143306
v -0.000315 0.139780 0.177783
v -0.190658 0.139780 0.266546
v -0.151320 0.364492 0.350903
v 0.039023 0.364492 0.262140
v 1.241284 0.642872 -0.350681
v 1.431631 0.642872 -0.261926
v 1.280620 0.418161 -0.435040
v 1.470966 0.418161 -0.346284
v 1.241285 0.193449 -0.350681
v 1.431631 0.193449 -0.261925
v 1.146321 0.100371 -0.147022
v 1.336667 0.100371 -0.058266
v 1.051357 0.193449 0.056637
v 1.241704 0.193450 0.145393
v 1.012022 0.418161 0.140996
v 1.202368 0.418161 0.229752
v 1.051357 0.642872 0.056637
v 1.241703 0.642872 0.145393
v 1.146321 0.735951 -0.147022
v 1.336667 0.735951 -0.058266
v 1.186945 0.139778 0.262828
v 0.996599 0.139778 0.174072
v 0.957264 0.364490 0.258431
v 1.147610 0.364490 0.347187
v -0.350686 0.642875 -0.241282
v -0.261931 0.642875 -0.431629
v -0.435045 0.418163 -0.280618
v -0.346290 0.418163 -0.470964
v -0.350686 0.193452 -0.241283
v -0.261931 0.193452 -0.431629
v -0.147026 0.100373 -0.146320
v -0.058271 0.100373 -0.336666
v 0.056633 0.193452 -0.051357
v 0.145388 0.193452 -0.241704
v 0.140992 0.418163 -0.012022
v 0.229747 0.418163 -0.202369
v 0.056633 0.642875 -0.051357
v 0.145388 0.642875 -0.241704
v -0.147026 0.735953 -0.146320
v -0.058271 0.735953 -0.336666
v 0.262824 0.139780 -0.186946
v 0.174069 0.139780 0.003401
v 0.258427 0.364492 0.042736
v 0.347182 0.364492 -0.147611
v 1.258205 0.642874 -0.435356
v 1.346966 0.642874 -0.245013
v 1.342562 0.418162 -0.474694
v 1.431324 0.418162 -0.284351
v 1.258205 0.193451 -0.435356
v 1.346967 0.193451 -0.245013
v 1.054548 0.100373 -0.340386
v 1.143310 0.100373 -0.150043
v 0.850892 0.193451 -0.245416
v 0.939654 0.193451 -0.055073
v 0.766535 0.418162 -0.206078
v 0.855296 0.418162 -0.015735
v 0.850892 0.642874 -0.245416
v 0.939654 0.642874 -0.055073
v 1.054549 0.735952 -0.340386
v 1.143310 0.735952 -0.150043
v 0.822220 0.139780 -0.000311
v 0.733459 0.139780 -0.190654
v 0.649102 0.364491 -0.151316
v 0.737863 0.364491 0.039027
v 1.435365 0.642873 1.258197
v 1.245022 0.642873 1.346960
v 1.474704 0.418162 1.342553
v 1.284361 0.418162 1.431317
v 1.435365 0.193450 1.258197
v 1.245022 0.193450 1.346960
v 1.340393 0.100372 1.054541
v 1.150050 0.100372 1.143305
v 1.245420 0.193450 0.850886
v 1.055078 0.193450 0.939650
v 1.206082 0.418162 0.766529
v 1.015739 0.418162 0.855293
v 1.245420 0.642873 0.850886
v 1.055078 0.642873 0.939650
v 1.340393 0.735952 1.054541
v 1.150050 0.735952 1.143305
v 1.000315 0.139779 0.822217
v 1.190657 0.139779 0.733453
v 1.151319 0.364490 0.649096
v 0.960976 0.364490 0.737860
v 1.350689 0.642873 1.241277
v 1.261935 0.642873 1.431624
v 1.435048 0.418161 1.280612
v 1.346294 0.418162 1.470959
v 1.350689 0.193450 1.241277
v 1.261935 0.193450 1.431624
v 1.147028 0.100372 1.146316
v 1.058275 0.100372 1.336663
v 0.943368 0.193450 1.051354
v 0.854614 0.193450 1.241701
v 0.859009 0.418161 1.012020
v 0.770256 0.418161 1.202367
v 0.943368 0.642873 1.051354
v 0.854614 0.642873 1.241702
v 1.147028 0.735951 1.146316
v 1.058275 0.735951 1.336663
v 0.737179 0.139779 1.186944
v 0.825933 0.139779 0.996597
v 0.741574 0.364490 0.957263
v 0.652820 0.364490 1.147610
v 1.310187 0.954560 0.383470
v 1.398159 0.925216 0.383465
v 1.274335 0.847085 0.336541
v 1.362308 0.817741 0.336536
v 1.238240 0.738864 0.385365
v 1.326213 0.709520 0.385360
v 1.223046 0.693291 0.501341
v 1.311018 0.663948 0.501337
v 1.237652 0.737063 0.616533
v 1.325625 0.707720 0.616528
v 1.273504 0.844539 0.663462
v 1.361476 0.815195 0.663457
v 1.309599 0.952760 0.614638
v 1.397571 0.923416 0.614633
v 1.324793 0.998332 0.498662
v 1.412766 0.968989 0.498657
v -0.342165 0.871220 0.500000
v 1.342165 1.000126 0.500000
v -0.342165 1.000126 0.500000
v 1.342165 0.871220 0.500000
v 0.500000 0.871220 -0.342165
v 0.500000 1.000126 1.342165
v 0.500000 0.871220 1.342165
v 0.500000 1.000126 -0.342165
v 0.500000 0.687346 0.500000
v 0.500000 1.000126 0.500000
v 1.590853 1.000126 -0.502933
v 1.502934 1.000126 -0.590853
v 1.502934 0.871220 -0.590853
v 1.590853 0.871220 -0.502934
v 1.502934 1.000126 1.590853
v 1.590853 1.000126 1.502934
v 1.590853 0.871220 1.502934
v 1.502934 0.871220 1.590853
v -0.502933 1.000126 -0.590853
v -0.590853 1.000126 -0.502933
v -0.590853 0.871220 -0.502934
v -0.502933 0.871220 -0.590853
v -0.590853 1.000126 1.502934
v -0.502933 1.000126 1.590853
v -0.502933 0.871220 1.590853
v -0.590853 0.871220 1.502934
v -0.180900 0.871220 0.500000
v 1.180900 0.871220 0.500000
v 0.500000 0.871220 -0.180900
v 0.500000 0.871220 1.180900
v 1.381968 0.871220 -0.310883
v 1.310884 0.871220 -0.381967
v -0.381967 0.871220 1.310884
v -0.310883 0.871220 1.381968
v 1.310884 0.871220 1.381968
v 1.381968 0.871220 1.310884
v -0.310883 0.871220 -0.381967
v -0.381967 0.871220 -0.310883
v -0.180900 0.687346 0.500000
v 1.180900 0.687346 0.500000
v 0.500000 0.687346 -0.180900
v 0.500000 0.687346 1.180901
v 1.381968 0.687346 -0.310883
v 1.310884 0.687346 -0.381967
v -0.381967 0.687346 1.310884
v -0.310883 0.687346 1.381968
v 1.310884 0.687346 1.381968
v 1.381968 0.687346 1.310884
v -0.310883 0.687346 -0.381967
v -0.381967 0.687346 -0.310883
v 0.182402 -0.920577 -0.266751
v 0.182402 -0.761903 -0.266751
v 0.817598 -0.920577 -0.266751
v 0.817598 -0.761903 -0.266751
v 1.266749 -0.920577 0.182400
v 1.266749 -0.761903 0.182400
v 1.266749 -0.920577 0.817596
v 1.266749 -0.761903 0.817596
v 0.817598 -0.920577 1.266747
v 0.817598 -0.761903 1.266747
v 0.182402 -0.920577 1.266747
v 0.182402 -0.761903 1.266747
v -0.266749 -0.920577 0.817596
v -0.266749 -0.761903 0.817596
v -0.266749 -0.920577 0.182400
v -0.266749 -0.761903 0.182400
v 0.817598 -0.761903 -0.266751
v 0.182402 -0.761903 -0.266751
v 1.266749 -0.761903 0.182400
v 1.266749 -0.761903 0.817596
v 0.817598 -0.761903 1.266747
v 0.182402 -0.761903 1.266747
v -0.266749 -0.761903 0.817596
v -0.266749 -0.761903 0.182400
v 0.773091 -0.761903 -0.159303
v 0.226909 -0.761903 -0.159303
v 1.159301 -0.761903 0.226906
v 1.159301 -0.761903 0.773089
v 0.773091 -0.761903 1.159299
v 0.226909 -0.761903 1.159299
v -0.159301 -0.761903 0.773089
v -0.159301 -0.761903 0.226906
v 0.842521 -0.246278 -0.326921
v 0.157479 -0.246278 -0.326921
v 1.326919 -0.246278 0.157477
v 1.326919 -0.246278 0.842519
v 0.842521 -0.246278 1.326916
v 0.157479 -0.246278 1.326916
v -0.326919 -0.246278 0.842519
v -0.326919 -0.246278 0.157477
v 0.764443 -0.246278 -0.138424
v 0.235557 -0.246278 -0.138424
v 1.138422 -0.246278 0.235554
v 1.138421 -0.246278 0.764440
v 0.764443 -0.246278 1.138419
v 0.235557 -0.246278 1.138419
v -0.138422 -0.246278 0.764440
v -0.138422 -0.246278 0.235555
v 0.843277 0.228097 -0.328746
v 0.156723 0.228097 -0.328746
v 1.328743 0.228097 0.156721
v 1.328743 0.228097 0.843274
v 0.843277 0.228097 1.328741
v 0.156723 0.228097 1.328741
v -0.328743 0.228097 0.843274
v -0.328743 0.228097 0.156721
v 0.780297 0.228097 -0.176700
v 0.219703 0.228097 -0.176699
v 1.176697 0.228097 0.219700
v 1.176697 0.228097 0.780294
v 0.780297 0.228097 1.176694
v 0.219703 0.228097 1.176694
v -0.176697 0.228097 0.780294
v -0.176697 0.228097 0.219700
v 0.811033 0.702472 -0.250902
v 0.188967 0.702472 -0.250902
v 1.250900 0.702472 0.188965
v 1.250900 0.702472 0.811031
v 0.811033 0.702472 1.250898
v 0.188967 0.702472 1.250898
v -0.250900 0.702472 0.811031
v -0.250900 0.702472 0.188965
vn 0.9239 0.3630 0.1210
vn 0.9193 -0.3732 -0.1246
vn 0.3827 -0.8764 -0.2924
vn -0.3719 -0.8806 -0.2937
vn -0.9239 -0.3630 -0.1210
vn -0.9193 0.3732 0.1246
vn 0.0001 -0.3164 0.9486
vn -0.3827 0.8764 0.2924
vn 0.3719 0.8806 0.2937
vn -0.0001 0.3164 -0.9486
vn -0.0000 -0.0000 -1.0000
vn 0.7071 -0.0000 -0.7071
vn 1.0000 -0.0000 -0.0000
vn 0.7071 -0.0000 0.7071
vn -0.0000 -0.0000 1.0000
vn -0.7071 -0.0000 0.7071
vn -0.0000 1.0000 -0.0000
vn -1.0000 -0.0000 -0.0000
vn -0.7071 -0.0000 -0.7071
vn -0.0000 -1.0000 -0.0000
vn -0.1210 0.3630 0.9239
vn 0.1245 -0.3732 0.9193
vn 0.2924 -0.8764 0.3827
vn 0.2937 -0.8806 -0.3719
vn 0.1210 -0.3630 -0.9239
vn -0.1245 0.3732 -0.9193
vn -0.9486 -0.3164 0.0001
vn -0.2924 0.8764 -0.3827
vn -0.2937 0.8806 0.3719
vn 0.9486 0.3164 -0.0001
vn -0.9239 0.3630 -0.1210
vn -0.9193 -0.3732 0.1245
vn -0.3827 -0.8764 0.2924
vn 0.3719 -0.8806 0.2937
vn 0.9239 -0.3630 0.1210
vn 0.9193 0.3732 -0.1245
vn -0.0001 -0.3164 -0.9486
vn 0.3827 0.8764 -0.2924
vn -0.3719 0.8806 -0.2937
vn 0.0001 0.3164 0.9486
vn -0.8373 0.3827 0.3905
vn -0.8373 -0.3827 0.3905
vn -0.3468 -0.9239 0.1617
vn 0.3468 -0.9239 -0.1617
vn -0.4226 -0.0000 -0.9063
vn 0.8373 0.3827 -0.3905
vn 0.3468 0.9239 -0.1617
vn -0.3468 0.9239 0.1617
vn 0.4226 -0.0000 0.9063
vn 0.8373 -0.3827 -0.3905
vn -0.3904 0.3827 0.8373
vn -0.3904 -0.3827 0.8373
vn -0.1617 -0.9239 0.3468
vn 0.1617 -0.9239 -0.3468
vn -0.9063 -0.0000 -0.4226
vn 0.3904 0.3827 -0.8373
vn 0.1617 0.9239 -0.3468
vn -0.1617 0.9239 0.3468
vn 0.9063 -0.0000 0.4226
vn 0.3904 -0.3827 -0.8373
vn -0.3905 0.3827 -0.8373
vn -0.3905 -0.3827 -0.8373
vn -0.1617 -0.9239 -0.3468
vn 0.1617 -0.9239 0.3468
vn 0.1617 0.9239 0.3468
vn 0.3905 0.3827 0.8373
vn 0.9063 -0.0000 -0.4226
vn -0.1617 0.9239 -0.3468
vn -0.9063 -0.0000 0.4226
vn 0.3905 -0.3827 0.8373
vn -0.8373 0.3827 -0.3904
vn -0.8373 -0.3827 -0.3904
vn -0.3468 -0.9239 -0.1617
vn 0.3468 -0.9239 0.1617
vn 0.8373 0.3827 0.3904
vn 0.4226 -0.0000 -0.9063
vn 0.3468 0.9239 0.1617
vn -0.3468 0.9239 -0.1617
vn -0.4226 -0.0000 0.9063
vn 0.8373 -0.3827 0.3904
vn 0.1210 0.3630 -0.9239
vn -0.1245 -0.3732 -0.9193
vn -0.2923 -0.8764 -0.3827
vn -0.2937 -0.8806 0.3719
vn -0.1210 -0.3630 0.9239
vn 0.1245 0.3732 0.9193
vn 0.9486 -0.3164 -0.0001
vn 0.2923 0.8764 0.3827
vn 0.2937 0.8806 -0.3719
vn -0.9486 0.3164 0.0001
vn 0.9706 -0.0000 0.2407
vn -0.2407 -0.0000 -0.9706
vn -0.2407 -0.0000 0.9706
vn 0.9706 -0.0000 -0.2407
vn 0.2407 -0.0000 -0.9706
vn -0.9706 -0.0000 0.2407
vn -0.9706 -0.0000 -0.2407
vn 0.2407 -0.0000 0.9706
vn -0.9510 -0.3092 -0.0000
vn -0.0000 -0.3092 0.9510
vn 0.9510 -0.3092 -0.0000
vn -0.0000 -0.3092 -0.9510
vn -0.6725 -0.3092 -0.6725
vn -0.6725 -0.3092 0.6725
vn 0.6725 -0.3092 0.6725
vn 0.6725 -0.3092 -0.6725
vn -0.6563 -0.3724 -0.6563
vn -0.6563 -0.3724 0.6563
vn 0.6563 -0.3724 0.6563
vn 0.6563 -0.3724 -0.6563
vn -0.9281 -0.3724 -0.0000
vn -0.0000 -0.3724 0.9281
vn 0.9281 -0.3724 -0.0000
vn -0.0000 -0.3724 -0.9281
vn -0.9880 -0.1545 -0.0000
vn -0.0000 -0.1545 0.9880
vn 0.9880 -0.1545 -0.0000
vn -0.0000 -0.1545 -0.9880
vn -0.6986 -0.1545 -0.6986
vn -0.6986 -0.1545 0.6986
vn 0.6986 -0.1545 0.6986
vn 0.6986 -0.1545 -0.6986
vn 0.9486 -0.3164 -0.0000
vn -0.9486 0.3164 -0.0000
vt 0.125000 0.812500
vt 0.000000 1.000000
vt 0.000000 0.812500
vt 0.312500 0.125000
vt 0.187500 0.312500
vt 0.187500 0.125000
vt 0.125000 0.500000
vt 0.000000 0.687500
vt 0.000000 0.500000
vt 1.000000 0.062500
vt 0.875000 0.250000
vt 0.875000 0.062500
vt 0.937500 0.625000
vt 0.812500 0.812500
vt 0.812500 0.625000
vt 0.250000 0.125000
vt 0.375000 0.312500
vt 0.250000 0.312500
vt 0.499076 0.363302
vt 0.596007 0.402687
vt 0.403993 0.597313
vt 0.250000 0.625000
vt 0.125000 0.625000
vt 0.687500 0.687500
vt 0.562500 0.875000
vt 0.562500 0.687500
vt 0.799940 0.375761
vt 0.799940 0.624239
vt 0.200060 0.375761
vt 0.500000 0.500000
vt 0.937500 0.500000
vt 0.687500 0.625000
vt 0.250000 0.500000
vt 0.687500 0.500000
vt 0.937500 0.500000
vt 0.437500 0.625000
vt 0.437500 0.500000
vt 0.652093 0.132814
vt 0.867185 0.652093
vt 0.347907 0.867185
vt 0.867180 0.652091
vt 0.347909 0.867180
vt 0.132820 0.347909
vt 0.937500 0.187500
vt 0.812500 0.375000
vt 0.812500 0.187500
vt 0.812500 0.437500
vt 0.687500 0.437500
vt 0.187500 0.250000
vt 0.062500 0.437500
vt 0.062500 0.250000
vt 0.812500 0.500000
vt 0.687500 0.500000
vt 0.812500 0.687500
vt 0.687500 0.875000
vt 0.749076 0.050802
vt 0.846007 0.090187
vt 0.653993 0.284813
vt 0.687500 0.187500
vt 0.687500 0.375000
vt 0.375000 0.437500
vt 0.250000 0.437500
vt 0.062500 0.312500
vt 0.062500 0.125000
vt 0.812500 0.750000
vt 0.687500 0.937500
vt 0.687500 0.750000
vt 0.937500 0.250000
vt 0.812500 0.250000
vt 0.250000 0.687500
vt 0.125000 0.875000
vt 0.125000 0.687500
vt 0.750000 0.125000
vt 0.625000 0.312500
vt 0.625000 0.125000
vt 0.750000 0.750000
vt 0.625000 0.937500
vt 0.625000 0.750000
vt 0.749076 0.675802
vt 0.846007 0.715187
vt 0.653993 0.909813
vt 0.437500 0.500000
vt 0.312500 0.687500
vt 0.312500 0.500000
vt 0.750000 0.250000
vt 0.625000 0.437500
vt 0.625000 0.250000
vt 0.187500 0.375000
vt 0.062500 0.500000
vt 0.062500 0.375000
vt 0.750000 0.562500
vt 0.625000 0.687500
vt 0.625000 0.562500
vt 0.875000 0.500000
vt 0.750000 0.625000
vt 0.750000 0.500000
vt 0.625000 0.375000
vt 0.500000 0.375000
vt 0.000100 0.292935
vt 0.000100 0.707065
vt 0.500000 0.312500
vt 0.500000 0.437500
vt 0.292935 0.000100
vt 0.707065 0.000100
vt 0.437500 0.375000
vt 0.312500 0.375000
vt 0.312500 0.437500
vt 0.187500 0.562500
vt 0.187500 0.437500
vt 0.498901 0.686172
vt 0.313828 0.498901
vt 0.501099 0.313828
vt 0.414228 0.999936
vt 0.000064 0.000064
vt 0.414228 0.000064
vt 0.000064 0.999936
vt 0.000064 0.000064
vt 0.414228 0.000064
vt 0.414228 0.999936
vt 0.062500 0.687500
vt 0.062500 0.812500
vt 0.812500 0.875000
vt 0.062500 0.062500
vt 0.187500 0.187500
vt 0.062500 0.187500
vt 0.312500 0.750000
vt 0.187500 0.875000
vt 0.187500 0.750000
vt 0.312500 0.187500
vt 0.437500 0.312500
vt 0.312500 0.312500
vt 0.187500 0.500000
vt 0.062500 0.562500
vt 0.632420 0.630867
vt 0.630867 0.367579
vt 0.367579 0.369133
vt 0.500000 0.562500
vt 0.625000 0.500000
vt 0.624239 0.200060
vt 0.375761 0.200060
vt 0.375000 0.562500
vt 0.875000 0.625000
vt 0.937500 0.750000
vt 0.292935 0.999900
vt 0.369133 0.367579
vt 0.000064 0.999936
vt 0.750000 0.312500
vt 0.687500 0.312500
vt 0.500000 0.062500
vt 0.375000 0.187500
vt 0.375000 0.062500
vt 0.125000 0.437500
vt 0.125000 0.312500
vt 0.687500 0.812500
vt 0.625000 0.812500
vt 0.000065 0.999936
vt 0.000064 0.000064
vt 0.000064 0.000064
vt 0.414228 0.000064
vt 0.875000 0.750000
vt 0.750000 0.875000
vt 0.875000 0.125000
vt 0.312500 0.625000
vt 0.812500 0.062500
vt 0.812500 0.562500
vt 0.687500 0.562500
vt 0.437500 0.750000
vt 0.312500 0.875000
vt 0.812500 0.312500
vt 0.250000 0.750000
vt 0.125000 0.750000
vt 0.562500 0.500000
vt 0.437500 0.125000
vt 0.312500 0.250000
vt 0.999900 0.707065
vt 0.562500 0.562500
vt 0.312500 0.562500
vt 0.250000 0.562500
vt 0.500000 0.187500
vt 0.250000 0.062500
vt 0.250000 0.187500
vt 0.500000 0.937500
vt 0.500000 0.812500
vt 0.750000 0.187500
vt 0.750000 0.062500
vt 0.125000 0.562500
vt 0.937500 0.562500
vt 0.187500 0.625000
vt 0.187500 0.687500
vt 0.501098 0.686172
vt 0.062500 0.875000
vt 0.062500 0.750000
vt 0.625000 0.187500
vt 0.625000 0.625000
vt 0.500000 0.625000
vt 0.687500 0.250000
vt 0.562500 0.437500
vt 0.562500 0.250000
vt 0.125000 0.062500
vt 0.250000 0.250000
vt 0.125000 0.250000
vt 0.750000 0.937500
vt 0.125000 0.937500
vt 0.186576 0.613302
vt 0.283507 0.652687
vt 0.091493 0.847313
vt 0.562500 0.625000
vt 0.437500 0.812500
vt 0.389026 0.520428
vt 0.677653 0.495747
vt 0.672717 0.520428
vt 0.715580 0.292719
vt 0.346163 0.312003
vt 0.346163 0.292719
vt 0.488671 0.643788
vt 0.573072 0.559387
vt 0.573072 0.643788
vt 0.661480 0.130867
vt 0.400263 0.103597
vt 0.661480 0.103597
vt 0.055537 0.869496
vt 0.743722 0.955519
vt 0.055537 0.955519
vt 0.111795 0.366414
vt 0.799980 0.452437
vt 0.111795 0.452437
vt 0.728597 0.868363
vt 0.167110 0.868385
vt 0.167110 0.307006
vt 0.256337 0.280684
vt 0.787423 0.385038
vt 0.230436 0.385029
vt 0.186779 0.607011
vt 0.874965 0.693035
vt 0.186779 0.693035
vt 0.261763 0.396179
vt 0.949949 0.310156
vt 0.949949 0.396179
vt 0.167110 0.199632
vt 0.894283 0.307006
vt 0.332796 0.868363
vt 0.947413 0.624395
vt 0.416327 0.728749
vt 0.258566 0.624395
vt 0.199263 0.480566
vt 0.887449 0.394543
vt 0.887449 0.480566
vt 0.261763 0.806996
vt 0.949949 0.893019
vt 0.261763 0.893019
vt 0.894283 0.809801
vt 0.835567 0.868385
vt 0.167110 0.702427
vt 0.815363 0.175857
vt 0.740394 0.364855
vt 0.732474 0.175857
vt 0.283650 0.025785
vt 0.971836 0.111808
vt 0.283650 0.111808
vt 0.021166 0.219527
vt 0.709351 0.305550
vt 0.021166 0.305550
vt 0.728597 0.141070
vt 0.835567 0.868385
vt 0.167110 0.702427
vt 0.441860 0.700825
vt 0.516801 0.889834
vt 0.449780 0.889823
vt 0.682802 0.403678
vt 0.750781 0.524529
vt 0.682802 0.524529
vt 0.463321 0.570040
vt 0.985906 0.439393
vt 0.985906 0.570040
vt 0.007095 0.991895
vt 0.529680 0.861249
vt 0.529680 0.991895
vt 0.344570 0.409920
vt 0.276591 0.530771
vt 0.276591 0.409920
vt 0.112611 0.840024
vt 0.643696 0.944378
vt 0.086710 0.944369
vt 0.449766 0.472712
vt 0.374824 0.661720
vt 0.366876 0.472712
vt 0.096966 0.311895
vt 0.628051 0.416249
vt 0.071066 0.416240
vt 0.900557 0.533766
vt 0.369472 0.638119
vt 0.211711 0.533766
vt 0.215724 0.161927
vt 0.746809 0.266280
vt 0.189824 0.266271
vt 0.975541 0.743153
vt 0.444456 0.847506
vt 0.286694 0.743153
vt 0.227895 0.113356
vt 0.152954 0.302365
vt 0.145006 0.113356
vt 0.975542 0.452539
vt 0.444456 0.556893
vt 0.286695 0.452539
vt 0.793890 0.746660
vt 0.746411 0.794026
vt 0.205958 0.659855
vt 0.205911 0.340158
vt 0.793838 0.253327
vt 0.659888 0.794018
vt 0.659888 0.794018
vt 0.205911 0.794037
vt 0.205911 0.340158
vt 0.339861 0.794018
vt 0.205911 0.253327
vt 0.253392 0.205963
vt 0.194595 0.301313
vt 0.717180 0.170667
vt 0.717180 0.301313
vt 0.682802 0.678646
vt 0.750781 0.799497
vt 0.682802 0.799497
vt 0.041466 0.182555
vt 0.564051 0.051909
vt 0.564051 0.182555
vt 0.007095 0.660668
vt 0.529680 0.530022
vt 0.529680 0.660668
vt 0.041466 0.860653
vt 0.564051 0.730007
vt 0.564051 0.860653
vt 0.225812 0.444291
vt 0.157834 0.565142
vt 0.157834 0.444291
vt 0.929648 0.535668
vt 0.407063 0.405022
vt 0.929648 0.405022
vt 0.060192 0.866895
vt 0.582777 0.736249
vt 0.582777 0.866895
vt 0.052194 0.656479
vt 0.687137 0.815214
vt 0.052194 0.815214
vt 0.068955 0.769543
vt 0.703898 0.928279
vt 0.068955 0.928279
vt 0.078616 0.351366
vt 0.713559 0.510101
vt 0.078616 0.510101
vt 0.299632 0.529204
vt 0.934575 0.687940
vt 0.299632 0.687940
vt 0.299632 0.822381
vt 0.934575 0.981117
vt 0.299632 0.981117
vt 0.362132 0.101366
vt 0.997075 0.260101
vt 0.362132 0.260101
vt 0.173852 0.640463
vt 0.704745 0.640463
vt 0.047363 0.063013
vt 0.682306 0.221749
vt 0.047363 0.221749
vt 0.193955 0.240858
vt 0.828898 0.399593
vt 0.193955 0.399593
vt 0.999900 0.707065
vt 0.707065 0.999900
vt 0.292935 0.000100
vt 0.814806 0.819337
vt 0.148266 0.914557
vt 0.100656 0.819337
vt 0.298852 0.577963
vt 0.829745 0.577963
vt 0.829745 0.577963
vt 0.361352 0.515463
vt 0.892245 0.515463
vt 0.298852 0.640463
vt 0.829745 0.640463
vt 0.704745 0.233783
vt 0.173852 0.233783
vt 0.236352 0.702963
vt 0.767245 0.702963
vt 0.299532 0.377380
vt 0.914081 0.927875
vt 0.239377 0.927875
vt 0.771622 0.458829
vt 0.105084 0.554049
vt 0.057474 0.458829
vt 0.971052 0.831273
vt 0.304514 0.926493
vt 0.256904 0.831273
vt 0.934974 0.045483
vt 0.268436 0.140703
vt 0.220826 0.045483
vt 0.232762 0.651149
vt 0.899301 0.746368
vt 0.280372 0.746368
vt 0.959123 0.396324
vt 0.292583 0.491544
vt 0.244973 0.396324
vt 0.759428 0.636668
vt 0.092890 0.731888
vt 0.045280 0.636668
vt 0.088721 0.276160
vt 0.755260 0.371380
vt 0.136331 0.371380
vt 0.748594 0.798057
vt 0.099031 0.974193
vt 0.015494 0.798057
vt 0.657472 0.358000
vt 0.059364 0.908542
vt 0.119519 0.358047
vt 0.884384 0.365462
vt 0.286276 0.916004
vt 0.346430 0.365510
vt 0.687229 0.331973
vt 0.089121 0.882516
vt 0.149276 0.332021
vt 0.653741 0.053755
vt 0.055633 0.604298
vt 0.115787 0.053803
vt 0.342699 0.283701
vt 0.957248 0.834195
vt 0.282544 0.834195
vt 0.182764 0.040394
vt 0.797313 0.590888
vt 0.122610 0.590888
vt 0.923050 0.052986
vt 0.324942 0.603528
vt 0.385097 0.053034
vt 0.909736 0.035324
vt 0.341925 0.575554
vt 0.409315 0.035373
vt 0.020324 0.247781
vt 0.669864 0.423918
vt 0.103861 0.423916
vt 0.164371 0.574491
vt 0.813911 0.750628
vt 0.247908 0.750627
vt 1.005700 0.415958
vt 0.356136 0.592093
vt 0.272599 0.415958
vt 0.770191 0.060281
vt 0.120628 0.236416
vt 0.037091 0.060281
vt 0.070624 0.694661
vt 0.720164 0.870797
vt 0.154161 0.870796
vt 0.258113 0.132430
vt 0.907652 0.308567
vt 0.341650 0.308566
vt 0.998600 0.694936
vt 0.349036 0.871072
vt 0.265499 0.694936
vt 0.991224 0.580626
vt 0.297478 0.717229
vt 0.226895 0.580627
vt 0.645525 0.234766
vt 0.077714 0.774996
vt 0.145104 0.234815
vt 0.082604 0.052146
vt 0.664800 0.592326
vt 0.015214 0.592326
vt 0.322949 0.104985
vt 0.905145 0.645165
vt 0.255559 0.645165
vt 0.789567 0.330787
vt 0.221756 0.871017
vt 0.289146 0.330837
vt 0.883314 0.424540
vt 0.315503 0.964770
vt 0.382893 0.424590
vt 0.392548 0.424584
vt 0.974744 0.964764
vt 0.325158 0.964764
vt 0.587844 0.414885
vt 0.020033 0.955115
vt 0.087423 0.414934
vt 0.261512 0.886245
vt 0.949407 0.473508
vt 0.949407 0.886245
vt 0.957696 0.845095
vt 0.263951 0.981698
vt 0.193368 0.845095
vt 0.051601 0.364418
vt 0.746327 0.500953
vt 0.122184 0.501021
vt 0.046776 0.736862
vt 0.741503 0.873396
vt 0.117359 0.873465
vt 0.948035 0.186579
vt 0.254289 0.323182
vt 0.183706 0.186579
vt 0.964796 0.316410
vt 0.271050 0.453013
vt 0.200467 0.316410
vt 0.214953 0.455890
vt 0.909679 0.592425
vt 0.285536 0.592494
vt 0.784683 0.080896
vt 0.090937 0.217499
vt 0.020354 0.080896
vt 0.294832 -0.000990
vt 0.709553 -0.000990
vt 0.294832 1.000235
vt 0.918166 0.960681
vt 0.230271 0.547944
vt 0.918166 0.547944
vt 0.786055 0.939084
vt 0.098160 0.526347
vt 0.786055 0.526347
vt 0.292765 0.645907
vt 0.980660 0.233170
vt 0.980660 0.645907
vt 0.023724 0.456126
vt 0.711619 0.043389
vt 0.711619 0.456126
vt 0.232829 0.837495
vt 0.691440 0.562328
vt 0.691440 0.837495
vt 0.906224 0.472899
vt 0.218329 0.060162
vt 0.906224 0.060162
vt 0.742872 0.645907
vt 0.054977 0.233170
vt 0.742872 0.233170
vt 0.125000 1.000000
vt 1.000000 0.250000
vt 0.937500 0.812500
vt 0.375000 0.125000
vt 0.636698 0.499076
vt 0.597313 0.596007
vt 0.500924 0.636698
vt 0.363302 0.500923
vt 0.402687 0.403993
vt 0.250000 0.812500
vt 0.624239 0.799940
vt 0.375761 0.799940
vt 0.200060 0.624239
vt 0.000000 0.625000
vt 0.867185 0.347907
vt 0.652093 0.867185
vt 0.132815 0.652093
vt 0.132815 0.347907
vt 0.347907 0.132814
vt 0.652091 0.867180
vt 0.132820 0.652091
vt 0.347909 0.132820
vt 0.652091 0.132820
vt 0.867180 0.347909
vt 0.937500 0.375000
vt 0.886698 0.186576
vt 0.847313 0.283507
vt 0.750924 0.324198
vt 0.613302 0.188423
vt 0.652687 0.091493
vt 0.375000 0.625000
vt 0.812500 0.937500
vt 0.937500 0.437500
vt 0.250000 0.875000
vt 0.886698 0.811576
vt 0.847313 0.908507
vt 0.750924 0.949198
vt 0.613302 0.813423
vt 0.652687 0.716493
vt 0.437500 0.687500
vt 0.750000 0.437500
vt 0.750000 0.687500
vt 0.999900 0.292934
vt 0.707065 0.999900
vt 0.632421 0.369133
vt 0.686172 0.501098
vt 0.630867 0.632420
vt 0.367580 0.630867
vt 0.187500 0.062500
vt 0.437500 0.187500
vt 0.125000 0.375000
vt 0.686172 0.498901
vt 0.498901 0.313828
vt 0.313828 0.501098
vt 0.369133 0.632420
vt 0.000064 0.999936
vt 0.875000 0.875000
vt 0.937500 0.062500
vt 0.437500 0.875000
vt 0.562500 0.375000
vt 0.437500 0.250000
vt 0.875000 0.187500
vt 0.125000 0.187500
vt 0.187500 0.812500
vt 0.875000 0.937500
vt 0.250000 0.937500
vt 0.324198 0.749076
vt 0.284813 0.846007
vt 0.188424 0.886698
vt 0.050802 0.750923
vt 0.090187 0.653993
vt 0.562500 0.812500
vt 0.384090 0.495747
vt 0.715580 0.312003
vt 0.488671 0.559387
vt 0.400263 0.130867
vt 0.743722 0.869496
vt 0.799980 0.366414
vt 0.835567 0.141048
vt 0.894283 0.199632
vt 0.945184 0.280684
vt 0.874965 0.607011
vt 0.261763 0.310156
vt 0.225826 0.141048
vt 0.894283 0.868385
vt 0.973313 0.728740
vt 0.199263 0.394543
vt 0.949949 0.806996
vt 0.167110 0.141048
vt 0.728597 0.141070
vt 0.807415 0.364865
vt 0.971836 0.025785
vt 0.709351 0.219527
vt 0.167110 0.141048
vt 0.894283 0.809801
vt 0.524749 0.700825
vt 0.750781 0.403678
vt 0.463321 0.439393
vt 0.007095 0.861249
vt 0.344570 0.530771
vt 0.801458 0.840024
vt 0.441846 0.661710
vt 0.785813 0.311895
vt 0.926457 0.638111
vt 0.904570 0.161927
vt 1.001441 0.847497
vt 0.219976 0.302354
vt 1.001442 0.556884
vt 0.205938 0.205974
vt 0.659916 0.205974
vt 0.205911 0.794037
vt 0.746357 0.205963
vt 0.746357 0.205963
vt 0.793838 0.253327
vt 0.793838 0.340158
vt 0.793838 0.794037
vt 0.194595 0.170667
vt 0.750781 0.678646
vt 0.041466 0.051909
vt 0.007095 0.530022
vt 0.041466 0.730007
vt 0.225812 0.565142
vt 0.407063 0.535668
vt 0.060192 0.736249
vt 0.687137 0.656479
vt 0.703898 0.769543
vt 0.713559 0.351366
vt 0.934575 0.529204
vt 0.934575 0.822381
vt 0.997075 0.101366
vt 0.682306 0.063013
vt 0.828898 0.240858
vt 0.000100 0.707065
vt 0.000100 0.292935
vt 0.707065 0.000100
vt 0.999900 0.292935
vt 0.767196 0.914557
vt 0.837485 0.377332
vt 0.724012 0.554049
vt 0.923442 0.926493
vt 0.887365 0.140703
vt 0.946911 0.651149
vt 0.911513 0.491544
vt 0.711818 0.731888
vt 0.802869 0.276160
vt 0.665033 0.974194
vt 0.734067 0.908542
vt 0.960979 0.916004
vt 0.763825 0.882516
vt 0.730336 0.604298
vt 0.880652 0.283653
vt 0.720717 0.040346
vt 0.999645 0.603528
vt 0.991511 0.575554
vt 0.753425 0.247781
vt 0.897472 0.574491
vt 0.922139 0.592095
vt 0.686630 0.236418
vt 0.803725 0.694661
vt 0.991213 0.132430
vt 0.915039 0.871073
vt 0.921621 0.717161
vt 0.727300 0.774996
vt 0.583026 0.052096
vt 0.823370 0.104935
vt 0.871342 0.871017
vt 0.965089 0.964770
vt 0.892969 0.424534
vt 0.669619 0.955115
vt 0.261512 0.473508
vt 0.888093 0.981630
vt 0.815930 0.364418
vt 0.811105 0.736862
vt 0.878432 0.323114
vt 0.895193 0.452945
vt 0.979282 0.455890
vt 0.715080 0.217431
vt 1.002805 0.292262
vt 1.002805 0.706983
vt 0.709553 1.000235
vt 0.001580 0.706983
vt 0.001580 0.292262
vt 0.230271 0.960681
vt 0.098160 0.939084
vt 0.292765 0.233170
vt 0.023724 0.043389
vt 0.232829 0.562328
vt 0.218329 0.472899
vt 0.054977 0.645907
s 0
usemtl corinthian
f 2/1/1 3/2/1 1/3/1
f 4/4/2 5/5/2 3/6/2
f 6/7/3 7/8/3 5/9/3
f 8/10/4 9/11/4 7/12/4
f 10/13/5 11/14/5 9/15/5
f 11/16/6 14/17/6 13/18/6
f 8/19/7 6/20/7 14/21/7
f 14/22/8 15/1/8 13/23/8
f 16/24/9 1/25/9 15/26/9
f 13/27/10 15/28/10 7/29/10
f 34/44/21 35/45/21 33/46/21
f 36/47/22 37/32/22 35/48/22
f 38/49/23 39/50/23 37/51/23
f 40/52/24 41/24/24 39/53/24
f 42/4/25 43/5/25 41/6/25
f 44/54/26 45/55/26 43/24/26
f 40/56/27 38/57/27 46/58/27
f 45/59/28 48/45/28 47/60/28
f 48/61/29 33/22/29 47/62/29
f 45/27/30 47/28/30 39/29/30
f 50/6/31 51/63/31 49/64/31
f 52/65/32 53/66/32 51/67/32
f 54/68/33 55/47/33 53/69/33
f 56/70/34 57/71/34 55/72/34
f 58/73/35 59/74/35 57/75/35
f 60/76/36 61/77/36 59/78/36
f 56/79/37 54/80/37 62/81/37
f 62/82/38 63/83/38 61/84/38
f 64/85/39 49/86/39 63/87/39
f 61/27/40 63/28/40 55/29/40
f 74/99/45 84/100/45 81/99/45
f 74/99/45 72/103/45 70/104/45
f 81/113/50 83/114/50 82/115/50
f 74/116/43 82/117/43 73/117/43
f 75/118/47 84/119/47 76/119/47
f 95/139/59 97/27/59 99/28/59
f 101/113/60 103/114/60 102/115/60
f 94/116/53 102/117/53 93/117/53
f 95/118/57 104/119/57 96/119/57
f 93/140/59 103/139/59 95/139/59
f 116/119/65 123/118/65 124/119/65
f 112/103/67 110/104/67 118/144/67
f 122/115/70 124/146/70 123/114/70
f 116/100/67 121/99/67 114/99/67
f 113/117/63 121/116/63 122/117/63
f 131/29/55 135/139/55 139/28/55
f 141/113/52 143/114/52 142/115/52
f 134/116/54 142/117/54 133/117/54
f 135/118/58 144/119/58 136/119/58
f 133/140/55 143/139/55 135/139/55
f 154/116/73 162/117/73 153/117/73
f 157/27/79 159/28/79 151/29/79
f 161/113/80 163/114/80 162/115/80
f 155/118/77 164/119/77 156/119/77
f 153/140/79 163/139/79 155/139/79
f 176/100/49 181/99/49 174/99/49
f 170/104/49 166/175/49 178/144/49
f 181/113/42 183/114/42 182/115/42
f 173/117/44 181/116/44 182/117/44
f 176/119/48 183/118/48 184/119/48
f 196/100/69 201/99/69 194/99/69
f 198/144/69 194/99/69 190/104/69
f 201/113/62 203/114/62 202/115/62
f 193/117/64 201/116/64 202/117/64
f 195/118/68 204/119/68 196/119/68
f 216/119/78 223/118/78 224/119/78
f 211/29/76 215/139/76 219/28/76
f 221/113/72 223/114/72 222/115/72
f 215/139/76 222/140/76 223/139/76
f 214/116/74 222/117/74 213/117/74
f 226/194/81 227/183/81 225/195/81
f 228/196/82 229/197/82 227/198/82
f 229/199/83 232/200/83 231/201/83
f 232/160/84 233/202/84 231/76/84
f 234/10/85 235/11/85 233/12/85
f 236/170/86 237/203/86 235/171/86
f 232/204/87 230/205/87 238/206/87
f 238/207/88 239/208/88 237/36/88
f 240/4/89 225/5/89 239/6/89
f 237/27/90 239/28/90 231/29/90
f 304/359/7 312/360/7 313/359/7
f 300/373/7 310/374/7 311/373/7
f 306/373/7 313/375/7 314/373/7
f 296/376/7 307/377/7 309/376/7
f 302/378/7 311/379/7 312/378/7
f 292/373/7 314/375/7 308/373/7
f 294/380/7 308/381/7 307/380/7
f 298/382/7 309/383/7 310/382/7
f 322/384/99 329/385/99 330/386/99
f 323/408/17 333/409/17 325/410/17
f 319/411/100 328/412/100 320/413/100
f 317/414/101 326/415/101 318/416/101
f 316/417/102 323/418/102 315/419/102
f 322/420/103 324/421/103 316/422/103
f 321/423/104 328/424/104 329/425/104
f 319/426/105 326/427/105 327/428/105
f 315/429/106 325/430/106 317/431/106
f 338/432/107 340/433/107 332/434/107
f 330/435/17 337/436/17 338/437/17
f 328/438/17 335/439/17 336/440/17
f 325/441/17 334/442/17 326/443/17
f 324/444/17 331/445/17 323/446/17
f 324/447/17 338/448/17 332/449/17
f 329/450/17 336/451/17 337/452/17
f 326/453/17 335/454/17 327/455/17
f 341/456/17 350/457/17 342/458/17
f 336/459/108 345/460/108 337/461/108
f 335/462/109 342/463/109 343/464/109
f 333/465/110 339/466/110 341/467/110
f 337/468/111 346/469/111 338/470/111
f 335/471/112 344/472/112 336/473/112
f 334/474/113 341/475/113 342/476/113
f 332/477/114 339/478/114 331/479/114
f 340/483/17 347/484/17 339/485/17
f 340/486/17 354/487/17 348/488/17
f 345/489/17 352/490/17 353/491/17
f 342/492/17 351/493/17 343/494/17
f 339/495/17 349/496/17 341/497/17
f 346/498/17 353/499/17 354/500/17
f 343/501/17 352/502/17 344/503/17
f 358/504/17 357/505/17 361/506/17
f 2/1/1 4/528/1 3/2/1
f 4/4/2 6/131/2 5/5/2
f 6/7/3 8/72/3 7/8/3
f 8/10/4 10/529/4 9/11/4
f 10/13/5 12/530/5 11/14/5
f 11/16/6 12/531/6 14/17/6
f 6/20/7 4/532/7 2/533/7
f 2/533/7 16/534/7 6/20/7
f 16/534/7 14/21/7 6/20/7
f 14/21/7 12/535/7 10/536/7
f 10/536/7 8/19/7 14/21/7
f 14/22/8 16/537/8 15/1/8
f 16/24/9 2/55/9 1/25/9
f 15/28/10 1/538/10 3/539/10
f 3/539/10 5/540/10 15/28/10
f 5/540/10 7/29/10 15/28/10
f 7/29/10 9/140/10 11/139/10
f 11/139/10 13/27/10 7/29/10
f 34/44/21 36/552/21 35/45/21
f 36/47/22 38/15/22 37/32/22
f 38/49/23 40/109/23 39/50/23
f 40/52/24 42/54/24 41/24/24
f 42/4/25 44/131/25 43/5/25
f 44/54/26 46/122/26 45/55/26
f 38/57/27 36/553/27 34/554/27
f 34/554/27 48/555/27 38/57/27
f 48/555/27 46/58/27 38/57/27
f 46/58/27 44/556/27 42/557/27
f 42/557/27 40/56/27 46/58/27
f 45/59/28 46/46/28 48/45/28
f 48/61/29 34/558/29 33/22/29
f 47/28/30 33/538/30 35/539/30
f 35/539/30 37/540/30 47/28/30
f 37/540/30 39/29/30 47/28/30
f 39/29/30 41/140/30 43/139/30
f 43/139/30 45/27/30 39/29/30
f 50/6/31 52/5/31 51/63/31
f 52/65/32 54/559/32 53/66/32
f 54/68/33 56/560/33 55/47/33
f 56/70/34 58/561/34 57/71/34
f 58/73/35 60/147/35 59/74/35
f 60/76/36 62/202/36 61/77/36
f 54/80/37 52/562/37 50/563/37
f 50/563/37 64/564/37 54/80/37
f 64/564/37 62/81/37 54/80/37
f 62/81/37 60/565/37 58/566/37
f 58/566/37 56/79/37 62/81/37
f 62/82/38 64/567/38 63/83/38
f 64/85/39 50/568/39 49/86/39
f 63/28/40 49/538/40 51/539/40
f 51/539/40 53/540/40 63/28/40
f 53/540/40 55/29/40 63/28/40
f 55/29/40 57/140/40 59/139/40
f 59/139/40 61/27/40 55/29/40
f 74/99/45 76/100/45 84/100/45
f 70/104/45 68/570/45 66/175/45
f 66/175/45 80/571/45 70/104/45
f 80/571/45 78/144/45 70/104/45
f 78/144/45 76/100/45 70/104/45
f 76/100/45 74/99/45 70/104/45
f 81/113/50 84/146/50 83/114/50
f 74/116/43 81/116/43 82/117/43
f 75/118/47 83/118/47 84/119/47
f 99/28/59 85/538/59 87/539/59
f 87/539/59 89/540/59 99/28/59
f 89/540/59 91/29/59 99/28/59
f 91/29/59 93/140/59 99/28/59
f 93/140/59 95/139/59 99/28/59
f 101/113/60 104/146/60 103/114/60
f 94/116/53 101/116/53 102/117/53
f 95/118/57 103/118/57 104/119/57
f 93/140/59 102/140/59 103/139/59
f 116/119/65 115/118/65 123/118/65
f 110/104/67 108/570/67 106/175/67
f 106/175/67 120/571/67 110/104/67
f 120/571/67 118/144/67 110/104/67
f 118/144/67 116/100/67 114/99/67
f 114/99/67 112/103/67 118/144/67
f 122/115/70 121/113/70 124/146/70
f 116/100/67 124/100/67 121/99/67
f 113/117/63 114/116/63 121/116/63
f 139/28/55 125/538/55 127/539/55
f 127/539/55 129/540/55 131/29/55
f 131/29/55 133/140/55 135/139/55
f 135/139/55 137/27/55 139/28/55
f 139/28/55 127/539/55 131/29/55
f 141/113/52 144/146/52 143/114/52
f 134/116/54 141/116/54 142/117/54
f 135/118/58 143/118/58 144/119/58
f 133/140/55 142/140/55 143/139/55
f 154/116/73 161/116/73 162/117/73
f 159/28/79 145/538/79 151/29/79
f 145/538/79 147/539/79 151/29/79
f 147/539/79 149/540/79 151/29/79
f 151/29/79 153/140/79 155/139/79
f 155/139/79 157/27/79 151/29/79
f 161/113/80 164/146/80 163/114/80
f 155/118/77 163/118/77 164/119/77
f 153/140/79 162/140/79 163/139/79
f 176/100/49 184/100/49 181/99/49
f 170/104/49 168/570/49 166/175/49
f 166/175/49 180/571/49 178/144/49
f 178/144/49 176/100/49 174/99/49
f 174/99/49 172/103/49 178/144/49
f 172/103/49 170/104/49 178/144/49
f 181/113/42 184/146/42 183/114/42
f 173/117/44 174/116/44 181/116/44
f 176/119/48 175/118/48 183/118/48
f 196/100/69 204/100/69 201/99/69
f 190/104/69 188/570/69 186/175/69
f 186/175/69 200/571/69 190/104/69
f 200/571/69 198/144/69 190/104/69
f 198/144/69 196/100/69 194/99/69
f 194/99/69 192/103/69 190/104/69
f 201/113/62 204/146/62 203/114/62
f 193/117/64 194/116/64 201/116/64
f 195/118/68 203/118/68 204/119/68
f 216/119/78 215/118/78 223/118/78
f 219/28/76 205/538/76 207/539/76
f 207/539/76 209/540/76 219/28/76
f 209/540/76 211/29/76 219/28/76
f 211/29/76 213/140/76 215/139/76
f 215/139/76 217/27/76 219/28/76
f 221/113/72 224/146/72 223/114/72
f 215/139/76 213/140/76 222/140/76
f 214/116/74 221/116/74 222/117/74
f 226/194/81 228/155/81 227/183/81
f 228/196/82 230/48/82 229/197/82
f 229/199/83 230/180/83 232/200/83
f 232/160/84 234/592/84 233/202/84
f 234/10/85 236/529/85 235/11/85
f 236/170/86 238/593/86 237/203/86
f 230/205/123 228/594/123 226/595/123
f 226/595/87 240/596/87 230/205/87
f 240/596/87 238/206/87 230/205/87
f 238/206/87 236/597/87 234/598/87
f 234/598/87 232/204/87 238/206/87
f 238/207/88 240/599/88 239/208/88
f 240/4/89 226/131/89 225/5/89
f 239/28/124 225/538/124 227/539/124
f 227/539/90 229/540/90 239/28/90
f 229/540/90 231/29/90 239/28/90
f 231/29/90 233/140/90 235/139/90
f 235/139/90 237/27/90 231/29/90
f 304/359/7 302/360/7 312/360/7
f 300/373/7 298/374/7 310/374/7
f 306/373/7 304/375/7 313/375/7
f 296/376/7 294/377/7 307/377/7
f 302/378/7 300/379/7 311/379/7
f 292/373/7 306/375/7 314/375/7
f 294/380/7 292/381/7 308/381/7
f 298/382/7 296/383/7 309/383/7
f 322/384/99 321/665/99 329/385/99
f 323/408/17 331/673/17 333/409/17
f 319/411/100 327/674/100 328/412/100
f 317/414/101 325/675/101 326/415/101
f 316/417/102 324/676/102 323/418/102
f 322/420/103 330/677/103 324/421/103
f 321/423/104 320/678/104 328/424/104
f 319/426/105 318/679/105 326/427/105
f 315/429/106 323/680/106 325/430/106
f 338/432/107 346/681/107 340/433/107
f 330/435/17 329/682/17 337/436/17
f 328/438/17 327/683/17 335/439/17
f 325/441/17 333/684/17 334/442/17
f 324/444/17 332/685/17 331/445/17
f 324/447/17 330/686/17 338/448/17
f 329/450/17 328/687/17 336/451/17
f 326/453/17 334/688/17 335/454/17
f 341/456/17 349/689/17 350/457/17
f 336/459/108 344/690/108 345/460/108
f 335/462/109 334/691/109 342/463/109
f 333/465/110 331/692/110 339/466/110
f 337/468/111 345/693/111 346/469/111
f 335/471/112 343/694/112 344/472/112
f 334/474/113 333/695/113 341/475/113
f 332/477/114 340/696/114 339/478/114
f 340/483/17 348/698/17 347/484/17
f 340/486/17 346/699/17 354/487/17
f 345/489/17 344/700/17 352/490/17
f 342/492/17 350/701/17 351/493/17
f 339/495/17 347/702/17 349/496/17
f 346/498/17 345/703/17 353/499/17
f 343/501/17 351/704/17 352/502/17
f 357/505/17 355/705/17 361/506/17
f 355/705/17 356/706/17 361/506/17
f 356/706/17 362/707/17 361/506/17
f 361/506/17 360/708/17 359/709/17
f 359/709/17 358/504/17 361/506/17
usemtl volute
f 71/110/49 75/111/49 79/112/49
f 90/134/55 86/135/55 98/136/55
f 117/145/69 119/112/69 111/110/69
f 130/134/59 126/135/59 138/136/59
f 150/134/76 146/135/76 158/136/76
f 177/145/45 179/112/45 171/110/45
f 197/145/67 199/112/67 191/110/67
f 212/190/79 210/134/79 218/136/79
f 79/112/49 65/572/49 67/573/49
f 67/573/49 69/574/49 79/112/49
f 69/574/49 71/110/49 79/112/49
f 71/110/49 73/575/49 75/111/49
f 75/111/49 77/145/49 79/112/49
f 90/134/55 88/579/55 86/135/55
f 86/135/55 100/580/55 98/136/55
f 98/136/55 96/581/55 94/582/55
f 94/582/55 92/190/55 98/136/55
f 92/190/55 90/134/55 98/136/55
f 119/112/69 105/572/69 107/573/69
f 107/573/69 109/574/69 119/112/69
f 109/574/69 111/110/69 119/112/69
f 111/110/69 113/575/69 115/111/69
f 115/111/69 117/145/69 111/110/69
f 130/134/59 128/579/59 126/135/59
f 126/135/59 140/580/59 138/136/59
f 138/136/59 136/581/59 130/134/59
f 136/581/59 134/582/59 130/134/59
f 134/582/59 132/190/59 130/134/59
f 150/134/76 148/579/76 146/135/76
f 146/135/76 160/580/76 158/136/76
f 158/136/76 156/581/76 154/582/76
f 154/582/76 152/190/76 158/136/76
f 152/190/76 150/134/76 158/136/76
f 179/112/45 165/572/45 171/110/45
f 165/572/45 167/573/45 171/110/45
f 167/573/45 169/574/45 171/110/45
f 171/110/45 173/575/45 175/111/45
f 175/111/45 177/145/45 171/110/45
f 199/112/67 185/572/67 191/110/67
f 185/572/67 187/573/67 191/110/67
f 187/573/67 189/574/67 191/110/67
f 191/110/67 193/575/67 195/111/67
f 195/111/67 197/145/67 191/110/67
f 210/134/79 208/579/79 206/135/79
f 206/135/79 220/580/79 210/134/79
f 220/580/79 218/136/79 210/134/79
f 218/136/79 216/581/79 214/582/79
f 214/582/79 212/190/79 218/136/79
usemtl base
f 22/38/17 18/39/17 30/40/17
f 31/41/20 19/42/20 23/43/20
f 66/88/41 67/89/41 65/90/41
f 68/91/42 69/92/42 67/93/42
f 70/94/43 71/95/43 69/96/43
f 72/97/44 73/30/44 71/98/44
f 75/101/46 78/86/46 77/102/46
f 78/105/47 79/84/47 77/106/47
f 80/107/48 65/108/48 79/109/48
f 73/120/49 83/1/49 75/121/49
f 85/67/51 88/122/51 87/55/51
f 87/123/52 90/124/52 89/125/52
f 90/126/53 91/127/53 89/128/53
f 91/129/54 94/130/54 93/131/54
f 94/7/55 104/88/55 101/132/55
f 96/108/56 97/120/56 95/133/56
f 98/86/57 99/137/57 97/102/57
f 99/98/58 86/138/58 85/30/58
f 105/61/61 108/137/61 107/141/61
f 108/142/62 109/76/62 107/95/62
f 109/64/63 112/49/63 111/51/63
f 112/126/64 113/127/64 111/128/64
f 115/15/66 118/143/66 117/65/66
f 117/88/65 120/84/65 119/132/65
f 120/88/68 105/89/68 119/90/68
f 113/59/69 123/147/69 115/148/69
f 126/149/56 127/150/56 125/151/56
f 128/86/60 129/137/60 127/102/60
f 130/18/54 131/152/54 129/153/54
f 132/52/53 133/32/53 131/53/53
f 136/92/59 141/154/59 134/155/59
f 135/118/51 138/156/51 137/157/51
f 138/113/58 139/158/58 137/159/58
f 140/17/57 125/62/57 139/18/57
f 146/160/71 147/161/71 145/76/71
f 148/162/72 149/85/72 147/73/72
f 150/36/73 151/126/73 149/163/73
f 151/164/74 154/44/74 153/46/74
f 155/48/75 158/165/75 157/166/75
f 158/167/77 159/168/77 157/126/77
f 159/59/78 146/169/78 145/148/78
f 156/76/76 161/122/76 154/161/76
f 165/23/46 168/170/46 167/171/46
f 168/91/50 169/92/50 167/93/50
f 169/105/44 172/172/44 171/82/44
f 172/173/43 173/174/43 171/4/43
f 175/118/41 178/156/41 177/157/41
f 178/113/48 179/158/48 177/159/48
f 179/176/47 166/24/47 165/26/47
f 173/62/45 183/177/45 175/178/45
f 186/179/66 187/17/66 185/150/66
f 187/180/70 190/150/70 189/181/70
f 190/172/64 191/36/64 189/82/64
f 192/155/63 193/182/63 191/183/63
f 196/12/61 197/184/61 195/185/61
f 197/152/68 200/178/68 199/186/68
f 200/105/65 185/84/65 199/106/65
f 193/125/67 203/153/67 195/63/67
f 205/67/75 208/122/75 207/55/75
f 207/47/80 210/187/80 209/165/80
f 209/132/74 212/163/74 211/188/74
f 212/189/73 213/121/73 211/120/73
f 216/13/71 217/65/71 215/15/71
f 218/128/78 219/191/78 217/192/78
f 220/46/77 205/148/77 219/59/77
f 216/193/79 221/148/79 214/74/79
f 254/209/12 252/210/12 251/211/12
f 264/212/16 266/213/16 265/214/16
f 255/215/14 257/216/14 256/217/14
f 259/218/19 261/219/19 260/220/19
f 251/221/91 244/222/91 254/223/91
f 248/224/92 253/225/92 245/226/92
f 248/227/17 250/228/17 242/229/17
f 245/230/20 272/231/20 269/232/20
f 255/233/93 247/234/93 258/235/93
f 244/236/94 256/237/94 257/238/94
f 255/239/17 242/240/17 246/241/17
f 241/242/20 273/243/20 266/244/20
f 262/245/95 248/246/95 245/247/95
f 243/248/96 261/249/96 241/250/96
f 259/251/17 260/252/17 243/253/17
f 266/254/20 274/255/20 265/256/20
f 263/257/97 241/258/97 266/259/97
f 246/260/98 265/261/98 247/262/98
f 243/263/17 264/264/17 246/265/17
f 261/266/20 277/267/20 278/268/20
f 278/269/19 289/270/19 290/271/19
f 270/272/93 287/273/93 275/274/93
f 278/275/96 279/276/96 267/277/96
f 275/278/14 288/279/14 276/280/14
f 244/281/20 276/282/20 268/283/20
f 254/284/20 272/285/20 253/286/20
f 241/287/20 278/288/20 267/289/20
f 244/290/20 271/291/20 254/292/20
f 247/293/20 274/294/20 270/295/20
f 247/296/20 275/297/20 258/298/20
f 258/299/20 276/300/20 257/301/20
f 245/302/20 277/303/20 262/304/20
f 284/305/20 283/306/20 280/307/20
f 280/308/20 287/309/20 282/310/20
f 281/311/20 249/312/20 279/313/20
f 282/314/20 286/315/20 285/316/20
f 267/317/97 285/318/97 273/319/97
f 272/320/12 283/321/12 284/322/12
f 276/323/94 280/324/94 268/325/94
f 268/326/91 283/327/91 271/328/91
f 274/329/98 282/330/98 270/331/98
f 273/332/16 286/333/16 274/334/16
f 277/335/95 281/336/95 289/337/95
f 272/338/92 281/339/92 269/340/92
f 292/341/11 293/342/11 291/343/11
f 294/344/12 295/345/12 293/346/12
f 296/347/13 297/348/13 295/349/13
f 298/350/14 299/351/14 297/352/14
f 300/353/15 301/354/15 299/355/15
f 302/356/16 303/357/16 301/358/16
f 304/361/18 305/362/18 303/363/18
f 306/364/19 291/365/19 305/366/19
f 303/367/20 305/368/20 297/369/20
f 311/370/17 320/371/17 312/372/17
f 309/387/17 318/388/17 310/389/17
f 308/390/17 315/391/17 307/392/17
f 314/393/17 316/394/17 308/395/17
f 313/396/17 320/397/17 321/398/17
f 310/399/17 319/400/17 311/401/17
f 307/402/17 317/403/17 309/404/17
f 314/405/17 321/406/17 322/407/17
f 353/480/115 362/481/115 354/482/115
f 352/507/116 359/508/116 360/509/116
f 350/510/117 357/511/117 358/512/117
f 348/513/118 355/514/118 347/515/118
f 354/516/119 356/517/119 348/518/119
f 352/519/120 361/520/120 353/521/120
f 351/522/121 358/523/121 359/524/121
f 349/525/122 355/526/122 357/527/122
f 22/38/17 20/542/17 18/39/17
f 18/39/17 32/543/17 30/40/17
f 30/40/17 28/544/17 22/38/17
f 28/544/17 26/545/17 22/38/17
f 26/545/17 24/546/17 22/38/17
f 31/41/20 17/547/20 19/42/20
f 19/42/20 21/548/20 23/43/20
f 23/43/20 25/549/20 31/41/20
f 25/549/20 27/550/20 31/41/20
f 27/550/20 29/551/20 31/41/20
f 66/88/41 68/132/41 67/89/41
f 68/91/42 70/569/42 69/92/42
f 70/94/43 72/142/43 71/95/43
f 72/97/44 74/138/44 73/30/44
f 75/101/46 76/74/46 78/86/46
f 78/105/47 80/82/47 79/84/47
f 80/107/48 66/177/48 65/108/48
f 73/120/49 82/72/49 83/1/49
f 85/67/51 86/65/51 88/122/51
f 87/123/52 88/576/52 90/124/52
f 90/126/53 92/168/53 91/127/53
f 91/129/54 92/577/54 94/130/54
f 94/7/55 96/578/55 104/88/55
f 96/108/56 98/189/56 97/120/56
f 98/86/57 100/93/57 99/137/57
f 99/98/58 100/97/58 86/138/58
f 105/61/61 106/102/61 108/137/61
f 108/142/62 110/160/62 109/76/62
f 109/64/63 110/6/63 112/49/63
f 112/126/64 114/168/64 113/127/64
f 115/15/66 116/13/66 118/143/66
f 117/88/65 118/106/65 120/84/65
f 120/88/68 106/132/68 105/89/68
f 113/59/69 122/184/69 123/147/69
f 126/149/56 128/179/56 127/150/56
f 128/86/60 130/93/60 129/137/60
f 130/18/54 132/62/54 131/152/54
f 132/52/53 134/15/53 133/32/53
f 136/92/59 144/24/59 141/154/59
f 135/118/51 136/119/51 138/156/51
f 138/113/58 140/583/58 139/158/58
f 140/17/57 126/61/57 125/62/57
f 146/160/71 148/584/71 147/161/71
f 148/162/72 150/11/72 149/85/72
f 150/36/73 152/167/73 151/126/73
f 151/164/74 152/585/74 154/44/74
f 155/48/75 156/47/75 158/165/75
f 158/167/77 160/586/77 159/168/77
f 159/59/78 160/46/78 146/169/78
f 156/76/76 164/65/76 161/122/76
f 165/23/46 166/22/46 168/170/46
f 168/91/50 170/569/50 169/92/50
f 169/105/44 170/587/44 172/172/44
f 172/173/43 174/588/43 173/174/43
f 175/118/41 176/119/41 178/156/41
f 178/113/48 180/583/48 179/158/48
f 179/176/47 180/166/47 166/24/47
f 173/62/45 182/107/45 183/177/45
f 186/179/66 188/101/66 187/17/66
f 187/180/70 188/151/70 190/150/70
f 190/172/64 192/207/64 191/36/64
f 192/155/63 194/77/63 193/182/63
f 196/12/61 198/589/61 197/184/61
f 197/152/68 198/62/68 200/178/68
f 200/105/65 186/82/65 185/84/65
f 193/125/67 202/590/67 203/153/67
f 205/67/75 206/65/75 208/122/75
f 207/47/80 208/560/80 210/187/80
f 209/132/74 210/84/74 212/163/74
f 212/189/73 214/591/73 213/121/73
f 216/13/71 218/143/71 217/65/71
f 218/128/78 220/127/78 219/191/78
f 220/46/77 206/169/77 205/148/77
f 216/193/79 224/59/79 221/148/79
f 254/209/12 253/600/12 252/210/12
f 264/212/16 263/601/16 266/213/16
f 255/215/14 258/602/14 257/216/14
f 259/218/19 262/603/19 261/219/19
f 251/221/91 242/604/91 244/222/91
f 248/224/92 252/605/92 253/225/92
f 242/229/17 251/606/17 252/607/17
f 252/607/17 248/227/17 242/229/17
f 245/230/20 253/608/20 272/231/20
f 255/233/93 246/609/93 247/234/93
f 244/236/94 242/610/94 256/237/94
f 256/611/17 242/240/17 255/239/17
f 242/240/17 250/612/17 246/241/17
f 241/242/20 267/613/20 273/243/20
f 262/245/95 259/614/95 248/246/95
f 243/248/96 260/615/96 261/249/96
f 250/616/17 248/617/17 243/253/17
f 248/617/17 259/251/17 243/253/17
f 266/254/20 273/618/20 274/255/20
f 263/257/97 243/619/97 241/258/97
f 246/260/98 264/620/98 265/261/98
f 246/265/17 250/621/17 243/263/17
f 243/263/17 263/622/17 264/264/17
f 261/266/20 262/623/20 277/267/20
f 278/269/19 277/624/19 289/270/19
f 270/272/93 282/625/93 287/273/93
f 278/275/96 290/626/96 279/276/96
f 275/278/14 287/627/14 288/279/14
f 244/281/20 257/628/20 276/282/20
f 254/284/20 271/629/20 272/285/20
f 241/287/20 261/630/20 278/288/20
f 244/290/20 268/631/20 271/291/20
f 247/293/20 265/632/20 274/294/20
f 247/296/20 270/633/20 275/297/20
f 258/299/20 275/634/20 276/300/20
f 245/302/20 269/635/20 277/303/20
f 249/636/20 281/637/20 280/307/20
f 281/637/20 284/305/20 280/307/20
f 282/310/20 249/638/20 280/308/20
f 280/308/20 288/639/20 287/309/20
f 279/313/20 290/640/20 289/641/20
f 289/641/20 281/311/20 279/313/20
f 285/316/20 279/642/20 282/314/20
f 279/642/20 249/643/20 282/314/20
f 267/317/97 279/644/97 285/318/97
f 272/320/12 271/645/12 283/321/12
f 276/323/94 288/646/94 280/324/94
f 268/326/91 280/647/91 283/327/91
f 274/329/98 286/648/98 282/330/98
f 273/332/16 285/649/16 286/333/16
f 277/335/95 269/650/95 281/336/95
f 272/338/92 284/651/92 281/339/92
f 292/341/11 294/652/11 293/342/11
f 294/344/12 296/653/12 295/345/12
f 296/347/13 298/654/13 297/348/13
f 298/350/14 300/655/14 299/351/14
f 300/353/15 302/656/15 301/354/15
f 302/356/16 304/657/16 303/357/16
f 304/361/18 306/658/18 305/362/18
f 306/364/19 292/659/19 291/365/19
f 305/368/20 291/144/20 293/660/20
f 293/660/20 295/661/20 305/368/20
f 295/661/20 297/369/20 305/368/20
f 297/369/20 299/662/20 301/663/20
f 301/663/20 303/367/20 297/369/20
f 311/370/17 319/664/17 320/371/17
f 309/387/17 317/666/17 318/388/17
f 308/390/17 316/667/17 315/391/17
f 314/393/17 322/668/17 316/394/17
f 313/396/17 312/669/17 320/397/17
f 310/399/17 318/670/17 319/400/17
f 307/402/17 315/671/17 317/403/17
f 314/405/17 313/672/17 321/406/17
f 353/480/115 361/697/115 362/481/115
f 352/507/116 351/710/116 359/508/116
f 350/510/117 349/711/117 357/511/117
f 348/513/118 356/712/118 355/514/118
f 354/516/119 362/713/119 356/517/119
f 352/519/120 360/714/120 361/520/120
f 351/522/121 350/715/121 358/523/121
f 349/525/122 347/716/122 355/526/122
usemtl ionic
f 18/13/11 19/30/11 17/31/11
f 20/32/12 21/33/12 19/34/12
f 22/13/13 23/30/13 21/35/13
f 24/32/14 25/33/14 23/34/14
f 26/36/15 27/9/15 25/37/15
f 28/32/16 29/33/16 27/34/16
f 30/32/18 31/33/18 29/34/18
f 32/32/19 17/33/19 31/34/19
f 18/13/11 20/195/11 19/30/11
f 20/32/12 22/22/12 21/33/12
f 22/13/13 24/195/13 23/30/13
f 24/32/14 26/22/14 25/33/14
f 26/36/15 28/541/15 27/9/15
f 28/32/16 30/22/16 29/33/16
f 30/32/18 32/22/18 31/33/18
f 32/32/19 18/22/19 17/33/19
