# Blender 5.1.1
# www.blender.org
mtllib large_greek_corinthian_capital.mtl
o corinthian
v -0.565393 0.850001 0.500000
v 1.565393 1.000001 0.500000
v -0.565393 1.000001 0.500000
v 1.565393 0.850001 0.500000
v 0.500000 0.850001 -0.565393
v 0.500000 1.000001 1.565393
v 0.500000 0.850001 1.565393
v 0.500000 1.000001 -0.565393
v 0.500000 0.636038 0.500001
v 0.500000 1.000001 0.500000
v 1.880000 1.000001 -0.768776
v 1.768776 1.000001 -0.880000
v 1.768776 0.850001 -0.880000
v 1.880000 0.850001 -0.768776
v 1.768776 1.000001 1.880000
v 1.880000 1.000001 1.768776
v 1.880000 0.850001 1.768776
v 1.768776 0.850001 1.880000
v -0.768776 1.000001 -0.880000
v -0.880000 1.000001 -0.768776
v -0.880000 0.850001 -0.768776
v -0.768776 0.850001 -0.880000
v -0.880000 1.000001 1.768776
v -0.768776 1.000001 1.880000
v -0.768776 0.850001 1.880000
v -0.880000 0.850001 1.768776
v -0.361383 0.850001 0.500001
v 1.361383 0.850001 0.500001
v 0.500000 0.850001 -0.361382
v 0.500000 0.850001 1.361383
v 1.615746 0.850001 -0.525820
v 1.525820 0.850001 -0.615745
v -0.615746 0.850001 1.525821
v -0.525820 0.850001 1.615747
v 1.525820 0.850001 1.615747
v 1.615746 0.850001 1.525821
v -0.525820 0.850001 -0.615745
v -0.615746 0.850001 -0.525820
v -0.361383 0.636038 0.500001
v 1.361383 0.636038 0.500001
v 0.500000 0.636038 -0.361382
v 0.500000 0.636038 1.361383
v 1.615746 0.636038 -0.525820
v 1.525820 0.636038 -0.615745
v -0.615746 0.636038 1.525821
v -0.525820 0.636038 1.615747
v 1.525820 0.636038 1.615747
v 1.615746 0.636038 1.525821
v -0.525820 0.636038 -0.615745
v -0.615746 0.636038 -0.525820
v 0.369372 0.469437 1.276698
v 0.369373 0.899655 1.393673
v 0.630625 0.469437 1.276698
v 0.630625 0.899655 1.393673
v 0.369373 0.416883 1.475725
v 0.369373 0.847101 1.592700
v 0.630625 0.416883 1.475725
v 0.630625 0.847101 1.592700
v -0.276701 0.469437 0.369370
v -0.393676 0.899655 0.369370
v -0.276701 0.469437 0.630622
v -0.393676 0.899655 0.630622
v -0.475728 0.416883 0.369370
v -0.592703 0.847100 0.369370
v -0.475727 0.416883 0.630622
v -0.592703 0.847100 0.630622
v 0.630628 0.469437 -0.276703
v 0.630628 0.899655 -0.393679
v 0.369376 0.469437 -0.276703
v 0.369376 0.899655 -0.393679
v 0.630628 0.416883 -0.475730
v 0.630628 0.847100 -0.592705
v 0.369376 0.416883 -0.475730
v 0.369376 0.847100 -0.592705
v 1.276701 0.469437 0.630625
v 1.393676 0.899655 0.630625
v 1.276701 0.469437 0.369373
v 1.393676 0.899655 0.369373
v 1.475728 0.416883 0.630625
v 1.592703 0.847100 0.630625
v 1.475728 0.416883 0.369373
v 1.592703 0.847100 0.369373
v 0.774398 0.222838 1.293176
v 0.774402 0.185014 1.374771
v 0.818427 0.127899 1.248251
v 0.818431 0.086522 1.338292
v 0.774397 0.032960 1.203330
v 0.774401 -0.011971 1.301816
v 0.668100 -0.006366 1.184726
v 0.668103 -0.052769 1.286710
v 0.561803 0.032958 1.203337
v 0.561806 -0.011973 1.301823
v 0.517774 0.127896 1.248262
v 0.517777 0.086520 1.338302
v 0.561804 0.222835 1.293183
v 0.561807 0.185013 1.374779
v 0.668101 0.262161 1.311788
v 0.668105 0.225811 1.389884
v 0.223866 0.185014 1.374784
v 0.223861 0.222836 1.293189
v 0.179836 0.086521 1.338308
v 0.179831 0.127896 1.248268
v 0.223865 -0.011972 1.301828
v 0.223860 0.032958 1.203343
v 0.330161 -0.052768 1.286714
v 0.330157 -0.006365 1.184730
v 0.436459 -0.011970 1.301819
v 0.436454 0.032961 1.203333
v 0.480489 0.086523 1.338295
v 0.480485 0.127900 1.248254
v 0.436460 0.185016 1.374774
v 0.436456 0.222839 1.293180
v 0.330163 0.225812 1.389889
v 0.330159 0.262162 1.311792
v -0.374784 0.185014 0.223858
v -0.293189 0.222836 0.223854
v -0.338308 0.086520 0.179828
v -0.248268 0.127897 0.179824
v -0.301829 -0.011972 0.223857
v -0.203343 0.032958 0.223853
v -0.286715 -0.052768 0.330154
v -0.184731 -0.006365 0.330150
v -0.301820 -0.011970 0.436451
v -0.203334 0.032961 0.436447
v -0.338296 0.086523 0.480481
v -0.248256 0.127900 0.480477
v -0.374775 0.185016 0.436452
v -0.293180 0.222839 0.436448
v -0.389889 0.225812 0.330155
v -0.311792 0.262162 0.330151
v -0.293179 0.222838 0.774391
v -0.374773 0.185014 0.774394
v -0.248254 0.127899 0.818420
v -0.338294 0.086522 0.818424
v -0.203333 0.032960 0.774390
v -0.301818 -0.011971 0.774393
v -0.184728 -0.006366 0.668093
v -0.286712 -0.052769 0.668096
v -0.203339 0.032958 0.561796
v -0.301825 -0.011973 0.561799
v -0.248263 0.127896 0.517767
v -0.338304 0.086520 0.517770
v -0.293185 0.222835 0.561797
v -0.374780 0.185013 0.561800
v -0.311790 0.262161 0.668094
v -0.389886 0.225811 0.668097
v 0.225613 0.222838 -0.293184
v 0.225610 0.185015 -0.374779
v 0.181583 0.127899 -0.248260
v 0.181580 0.086522 -0.338300
v 0.225613 0.032960 -0.203338
v 0.225610 -0.011971 -0.301823
v 0.331910 -0.006366 -0.184733
v 0.331907 -0.052769 -0.286717
v 0.438207 0.032958 -0.203343
v 0.438204 -0.011973 -0.301829
v 0.482237 0.127896 -0.248267
v 0.482234 0.086520 -0.338308
v 0.438207 0.222835 -0.293189
v 0.438204 0.185013 -0.374784
v 0.331910 0.262161 -0.311794
v 0.331907 0.225811 -0.389891
v 0.776146 0.185014 -0.374787
v 0.776149 0.222836 -0.293192
v 0.820176 0.086520 -0.338311
v 0.820179 0.127896 -0.248270
v 0.776146 -0.011972 -0.301831
v 0.776150 0.032958 -0.203346
v 0.669849 -0.052768 -0.286718
v 0.669853 -0.006365 -0.184734
v 0.563552 -0.011970 -0.301824
v 0.563556 0.032961 -0.203338
v 0.519522 0.086523 -0.338300
v 0.519526 0.127900 -0.248259
v 0.563551 0.185016 -0.374779
v 0.563555 0.222839 -0.293184
v 0.669848 0.225812 -0.389892
v 0.669852 0.262162 -0.311796
v 1.374783 0.185014 0.776147
v 1.293188 0.222836 0.776151
v 1.338307 0.086520 0.820177
v 1.248266 0.127897 0.820180
v 1.301828 -0.011972 0.776147
v 1.203342 0.032958 0.776151
v 1.286715 -0.052768 0.669850
v 1.184731 -0.006365 0.669854
v 1.301821 -0.011970 0.563553
v 1.203335 0.032961 0.563557
v 1.338297 0.086523 0.519523
v 1.248257 0.127901 0.519527
v 1.374776 0.185016 0.563553
v 1.293181 0.222839 0.563556
v 1.389889 0.225812 0.669850
v 1.311793 0.262162 0.669853
v 1.293182 0.222838 0.225614
v 1.374777 0.185015 0.225611
v 1.248258 0.127899 0.181584
v 1.338298 0.086522 0.181581
v 1.203336 0.032960 0.225613
v 1.301822 -0.011971 0.225611
v 1.184731 -0.006366 0.331910
v 1.286715 -0.052769 0.331908
v 1.203341 0.032958 0.438208
v 1.301826 -0.011973 0.438205
v 1.248265 0.127896 0.482237
v 1.338305 0.086520 0.482235
v 1.293187 0.222835 0.438208
v 1.374782 0.185013 0.438205
v 1.311792 0.262161 0.331911
v 1.389889 0.225811 0.331908
v 1.507334 0.585310 1.409092
v 1.427647 0.585310 1.579995
v 1.583075 0.386484 1.444408
v 1.503388 0.386484 1.615311
v 1.507334 0.187657 1.409092
v 1.427647 0.187657 1.579995
v 1.324478 0.105301 1.323832
v 1.244791 0.105301 1.494734
v 1.141622 0.187657 1.238571
v 1.061935 0.187657 1.409473
v 1.065881 0.386484 1.203254
v 0.986193 0.386484 1.374157
v 1.141622 0.585310 1.238571
v 1.061935 0.585310 1.409473
v 1.324478 0.667667 1.323831
v 1.244791 0.667667 1.494734
v 1.583354 0.585310 1.424280
v 1.412455 0.585310 1.503976
v 1.618674 0.386483 1.500019
v 1.447776 0.386483 1.579715
v 1.583354 0.187657 1.424280
v 1.412455 0.187657 1.503976
v 1.498083 0.105301 1.241428
v 1.327185 0.105301 1.321125
v 1.412813 0.187657 1.058577
v 1.241915 0.187657 1.138273
v 1.377493 0.386483 0.982837
v 1.206594 0.386483 1.062534
v 1.412813 0.585310 1.058577
v 1.241915 0.585310 1.138273
v 1.498083 0.667666 1.241428
v 1.327185 0.667667 1.321125
v 1.424289 0.585310 -0.583347
v 1.503984 0.585310 -0.412448
v 1.500029 0.386483 -0.618667
v 1.579724 0.386483 -0.447768
v 1.424289 0.187657 -0.583347
v 1.503984 0.187657 -0.412448
v 1.241437 0.105300 -0.498079
v 1.321131 0.105300 -0.327180
v 1.058585 0.187657 -0.412811
v 1.138279 0.187657 -0.241911
v 0.982845 0.386483 -0.377491
v 1.062539 0.386483 -0.206592
v 1.058585 0.585310 -0.412811
v 1.138279 0.585310 -0.241911
v 1.241437 0.667666 -0.498079
v 1.321131 0.667666 -0.327180
v -0.507327 0.585310 -0.409100
v -0.427639 0.585310 -0.580002
v -0.583068 0.386484 -0.444416
v -0.503380 0.386484 -0.615318
v -0.507327 0.187657 -0.409100
v -0.427638 0.187657 -0.580002
v -0.324471 0.105301 -0.323838
v -0.244783 0.105301 -0.494740
v -0.141616 0.187657 -0.238576
v -0.061928 0.187657 -0.409478
v -0.065875 0.386484 -0.203259
v 0.013813 0.386484 -0.374161
v -0.141616 0.585310 -0.238576
v -0.061928 0.585310 -0.409478
v -0.324472 0.667667 -0.323838
v -0.244783 0.667667 -0.494740
v 1.409101 0.585310 -0.507330
v 1.580003 0.585310 -0.427641
v 1.444418 0.386484 -0.583071
v 1.615320 0.386484 -0.503382
v 1.409101 0.187657 -0.507330
v 1.580003 0.187657 -0.427641
v 1.323838 0.105301 -0.324475
v 1.494740 0.105301 -0.244786
v 1.238575 0.187657 -0.141620
v 1.409477 0.187657 -0.061931
v 1.203259 0.386484 -0.065879
v 1.374160 0.386484 0.013810
v 1.238575 0.585310 -0.141620
v 1.409477 0.585310 -0.061931
v 1.323838 0.667667 -0.324475
v 1.494740 0.667667 -0.244786
v -0.583347 0.585310 -0.424288
v -0.412448 0.585310 -0.503983
v -0.618667 0.386483 -0.500027
v -0.447768 0.386483 -0.579723
v -0.583347 0.187657 -0.424288
v -0.412448 0.187657 -0.503983
v -0.498078 0.105300 -0.241436
v -0.327179 0.105300 -0.321131
v -0.412808 0.187657 -0.058584
v -0.241909 0.187657 -0.138279
v -0.377489 0.386483 0.017156
v -0.206590 0.386483 -0.062539
v -0.412808 0.585310 -0.058584
v -0.241909 0.585310 -0.138279
v -0.498078 0.667666 -0.241436
v -0.327179 0.667666 -0.321131
v -0.409093 0.585310 1.507329
v -0.579996 0.585310 1.427641
v -0.444410 0.386484 1.583070
v -0.615312 0.386484 1.503382
v -0.409093 0.187657 1.507329
v -0.579996 0.187657 1.427641
v -0.323832 0.105301 1.324473
v -0.494734 0.105301 1.244785
v -0.238570 0.187657 1.141618
v -0.409472 0.187657 1.061930
v -0.203254 0.386484 1.065876
v -0.374156 0.386484 0.986189
v -0.238570 0.585310 1.141618
v -0.409472 0.585310 1.061930
v -0.323832 0.667667 1.324473
v -0.494734 0.667667 1.244785
v -0.424281 0.585310 1.583349
v -0.503977 0.585310 1.412451
v -0.500021 0.386483 1.618669
v -0.579717 0.386483 1.447770
v -0.424281 0.187657 1.583349
v -0.503977 0.187657 1.412451
v -0.241429 0.105300 1.498080
v -0.321125 0.105300 1.327181
v -0.058578 0.187657 1.412810
v -0.138273 0.187657 1.241911
v 0.017162 0.386483 1.377490
v -0.062534 0.386483 1.206591
v -0.058578 0.585310 1.412810
v -0.138273 0.585310 1.241911
v -0.241429 0.667666 1.498080
v -0.321125 0.667666 1.327181
v 0.128149 -1.402999 -0.397729
v 0.128149 -1.282999 -0.397729
v 0.871851 -1.402999 -0.397729
v 0.871851 -1.282999 -0.397729
v 1.397729 -1.402999 0.128148
v 1.397729 -1.282999 0.128148
v 1.397729 -1.402999 0.871851
v 1.397729 -1.282999 0.871851
v 0.871851 -1.402999 1.397728
v 0.871851 -1.282999 1.397728
v 0.128149 -1.402999 1.397728
v 0.128149 -1.282999 1.397728
v -0.397728 -1.402999 0.871851
v -0.397728 -1.282999 0.871851
v -0.397728 -1.402999 0.128148
v -0.397728 -1.282999 0.128148
v 0.815506 -1.282999 -0.261700
v 0.184494 -1.282999 -0.261700
v 1.261700 -1.282999 0.184493
v 1.261700 -1.282999 0.815506
v 0.815506 -1.282999 1.261699
v 0.184494 -1.282999 1.261699
v -0.261700 -1.282999 0.815506
v -0.261700 -1.282999 0.184493
v 0.815506 -0.922999 -0.261700
v 0.184494 -0.922999 -0.261700
v 1.261700 -0.922999 0.184493
v 1.261700 -0.922999 0.815506
v 0.815506 -0.922999 1.261699
v 0.184494 -0.922999 1.261699
v -0.261700 -0.922999 0.815506
v -0.261700 -0.922999 0.184493
v 0.875407 -0.202999 -0.406314
v 0.124593 -0.202999 -0.406314
v 1.406313 -0.202999 0.124592
v 1.406313 -0.202999 0.875406
v 0.875407 -0.202999 1.406312
v 0.124593 -0.202999 1.406312
v -0.406313 -0.202999 0.875406
v -0.406313 -0.202999 0.124592
v 0.789538 -0.202999 -0.199007
v 0.210462 -0.202999 -0.199007
v 1.199007 -0.202999 0.210461
v 1.199007 -0.202999 0.789537
v 0.789538 -0.202999 1.199006
v 0.210462 -0.202999 1.199006
v -0.199006 -0.202999 0.789537
v -0.199006 -0.202999 0.210461
v 0.917131 0.637001 -0.507042
v 0.082869 0.637001 -0.507042
v 1.507043 0.637001 0.082870
v 1.507043 0.637001 0.917132
v 0.917131 0.637001 1.507044
v 0.082869 0.637001 1.507044
v -0.507043 0.637001 0.917132
v -0.507043 0.637001 0.082870
v -0.722696 0.850001 -0.134388
v -0.722696 1.000001 -0.134388
v -0.488564 0.850001 -0.012910
v -0.488564 0.636038 -0.012910
v -0.722696 0.850001 1.134388
v -0.722696 1.000001 1.134388
v -0.488564 0.850001 1.012911
v -0.488564 0.636038 1.012911
v -0.134388 0.850001 1.722696
v -0.134388 1.000001 1.722696
v -0.012910 0.850001 1.488565
v -0.012910 0.636038 1.488565
v 1.134388 0.850001 1.722696
v 1.134388 1.000001 1.722696
v 1.012910 0.850001 1.488565
v 1.012910 0.636038 1.488565
v 1.722696 0.850001 1.134388
v 1.722696 1.000001 1.134388
v 1.488565 0.850001 1.012911
v 1.488565 0.636038 1.012911
v 1.722696 0.850001 -0.134388
v 1.722696 1.000001 -0.134388
v 1.488565 0.850001 -0.012910
v 1.488565 0.636038 -0.012910
v 1.134388 0.850001 -0.722696
v 1.134388 1.000001 -0.722696
v 1.012910 0.850001 -0.488564
v 1.012910 0.636038 -0.488564
v -0.134388 0.850001 -0.722696
v -0.134388 1.000001 -0.722696
v -0.012910 0.850001 -0.488564
v -0.012910 0.636038 -0.488564
vn 0.7071 -0.0000 -0.7071
vn -0.7071 -0.0000 0.7071
vn 0.7071 -0.0000 0.7071
vn -0.7071 -0.0000 -0.7071
vn 0.9706 -0.0000 0.2407
vn -0.2407 -0.0000 -0.9706
vn -0.0000 1.0000 -0.0000
vn -0.0000 -1.0000 -0.0000
vn -0.2407 -0.0000 0.9706
vn 0.9706 -0.0000 -0.2407
vn 0.2407 -0.0000 -0.9706
vn -0.9706 -0.0000 0.2407
vn -0.9706 -0.0000 -0.2407
vn 0.2407 -0.0000 0.9706
vn -0.0000 0.2624 -0.9650
vn 1.0000 -0.0000 -0.0000
vn -0.0000 -0.2624 0.9650
vn -1.0000 -0.0000 -0.0000
vn -0.0000 -0.9669 -0.2553
vn -0.0000 0.9669 0.2553
vn 0.9650 0.2624 -0.0000
vn -0.0000 -0.0000 1.0000
vn -0.9650 -0.2624 -0.0000
vn -0.0000 -0.0000 -1.0000
vn 0.2553 -0.9669 -0.0000
vn -0.2553 0.9669 -0.0000
vn -0.0000 0.2624 0.9650
vn -0.0000 -0.2624 -0.9650
vn -0.0000 -0.9669 0.2553
vn -0.0000 0.9669 -0.2553
vn -0.9650 0.2624 -0.0000
vn 0.9650 -0.2624 -0.0000
vn -0.2553 -0.9669 -0.0000
vn 0.2553 0.9669 -0.0000
vn 0.9222 0.3508 0.1626
vn 0.9222 -0.3513 -0.1615
vn 0.3787 -0.8420 -0.3842
vn -0.3788 -0.8420 -0.3841
vn -0.9222 -0.3513 -0.1614
vn -0.9222 0.3508 0.1626
vn -0.0000 -0.3473 0.9378
vn -0.3788 0.8390 0.3906
vn 0.3788 0.8391 0.3905
vn -0.0000 0.4277 -0.9039
vn -0.9218 0.3522 0.1619
vn -0.9219 -0.3526 -0.1608
vn -0.3779 -0.8427 -0.3834
vn 0.3779 -0.8427 -0.3834
vn 0.9219 -0.3525 -0.1609
vn 0.9218 0.3522 0.1618
vn 0.3778 0.8400 0.3894
vn -0.3778 0.8400 0.3894
vn -0.1619 0.3522 -0.9218
vn 0.1608 -0.3526 -0.9219
vn 0.3834 -0.8427 -0.3779
vn 0.3834 -0.8427 0.3779
vn 0.1609 -0.3525 0.9219
vn -0.1618 0.3522 0.9218
vn 0.9039 0.4277 -0.0000
vn -0.3894 0.8400 0.3778
vn -0.3894 0.8400 -0.3778
vn -0.9378 -0.3473 -0.0000
vn -0.1626 0.3508 0.9222
vn 0.1615 -0.3513 0.9222
vn 0.3842 -0.8420 0.3787
vn 0.3841 -0.8420 -0.3788
vn 0.1614 -0.3513 -0.9222
vn -0.1626 0.3508 -0.9222
vn -0.3906 0.8390 -0.3788
vn -0.3905 0.8391 0.3788
vn -0.9222 0.3508 -0.1626
vn -0.9222 -0.3513 0.1615
vn -0.3787 -0.8420 0.3842
vn 0.3788 -0.8420 0.3841
vn 0.9222 -0.3513 0.1614
vn 0.9222 0.3508 -0.1626
vn -0.0000 -0.3473 -0.9378
vn 0.3788 0.8390 -0.3906
vn -0.3788 0.8391 -0.3905
vn -0.0000 0.4277 0.9039
vn 0.9218 0.3522 -0.1619
vn 0.9219 -0.3526 0.1608
vn 0.3779 -0.8427 0.3834
vn -0.3779 -0.8427 0.3834
vn -0.9219 -0.3525 0.1609
vn -0.9218 0.3522 -0.1618
vn -0.3778 0.8400 -0.3894
vn 0.3778 0.8400 -0.3894
vn 0.1619 0.3522 0.9218
vn -0.1608 -0.3526 0.9219
vn -0.3834 -0.8427 0.3779
vn -0.3834 -0.8427 -0.3779
vn -0.1609 -0.3525 -0.9219
vn 0.1618 0.3522 -0.9218
vn -0.9039 0.4277 -0.0000
vn 0.3894 0.8400 -0.3778
vn 0.3894 0.8400 0.3778
vn 0.9378 -0.3473 -0.0000
vn 0.1626 0.3508 -0.9222
vn -0.1615 -0.3513 -0.9222
vn -0.3841 -0.8420 -0.3788
vn -0.3841 -0.8420 0.3787
vn -0.1614 -0.3513 0.9222
vn 0.1626 0.3508 0.9222
vn 0.3905 0.8390 0.3788
vn 0.3905 0.8391 -0.3788
vn 0.8355 0.3875 0.3896
vn 0.8355 -0.3875 0.3896
vn 0.3425 -0.9258 0.1597
vn -0.3425 -0.9258 -0.1597
vn -0.8355 -0.3875 -0.3896
vn -0.8355 0.3875 -0.3896
vn -0.4226 -0.0000 0.9063
vn -0.3425 0.9258 -0.1597
vn 0.3425 0.9258 0.1597
vn 0.4226 -0.0000 -0.9063
vn 0.3896 0.3875 0.8355
vn 0.3896 -0.3875 0.8355
vn 0.1597 -0.9258 0.3425
vn -0.1597 -0.9258 -0.3425
vn -0.3896 -0.3875 -0.8355
vn -0.3896 0.3875 -0.8355
vn -0.9063 -0.0000 0.4226
vn -0.1597 0.9258 -0.3425
vn 0.1597 0.9258 0.3425
vn 0.9063 -0.0000 -0.4226
vn 0.8355 0.3875 -0.3896
vn 0.8355 -0.3875 -0.3896
vn 0.3425 -0.9258 -0.1597
vn -0.3425 -0.9258 0.1597
vn -0.8355 -0.3875 0.3896
vn -0.8355 0.3875 0.3896
vn 0.4226 -0.0000 0.9063
vn -0.3425 0.9258 0.1597
vn 0.3425 0.9258 -0.1597
vn -0.4226 -0.0000 -0.9063
vn 0.3896 0.3875 -0.8355
vn 0.3896 -0.3875 -0.8355
vn 0.1597 -0.9258 -0.3425
vn -0.1597 -0.9258 0.3425
vn -0.3896 -0.3875 0.8355
vn -0.3896 0.3875 0.8355
vn 0.9063 -0.0000 0.4226
vn -0.1597 0.9258 0.3425
vn 0.1597 0.9258 -0.3425
vn -0.9063 -0.0000 -0.4226
vn -0.6933 -0.1969 -0.6933
vn -0.6933 -0.1969 0.6933
vn 0.6933 -0.1969 0.6933
vn 0.6933 -0.1969 -0.6933
vn -0.9804 -0.1969 -0.0000
vn -0.0000 -0.1969 0.9804
vn 0.9804 -0.1969 -0.0000
vn -0.0000 -0.1969 -0.9804
vn -0.6639 -0.3443 -0.6639
vn -0.6639 -0.3443 0.6639
vn 0.6639 -0.3443 0.6639
vn 0.6639 -0.3443 -0.6639
vn -0.9389 -0.3443 -0.0000
vn -0.0000 -0.3443 0.9389
vn 0.9389 -0.3443 -0.0000
vn -0.0000 -0.3443 -0.9389
vn 0.1608 -0.3525 -0.9219
vn 0.9219 -0.3525 0.1608
vn -0.3841 -0.8420 0.3788
vn -0.3842 -0.8420 -0.3787
vn 0.3906 0.8390 0.3788
vn -0.1608 -0.3525 0.9219
vn 0.1618 0.3522 0.9218
vt 0.683676 0.391237
vt 0.530069 0.237630
vt 0.683676 0.237630
vt 0.453226 0.391237
vt 0.299619 0.237630
vt 0.453226 0.237630
vt 0.798901 0.506462
vt 0.645294 0.352855
vt 0.798901 0.352855
vt 0.338001 0.852137
vt 0.184394 0.698530
vt 0.338001 0.698530
vt 0.862898 0.921001
vt 0.236660 0.764441
vt 0.862898 0.764441
vt 0.833573 0.911226
vt 0.207335 0.754666
vt 0.833573 0.754666
vt 0.442058 0.863059
vt 0.021204 0.021351
vt 0.862912 0.442205
vt 0.540067 0.656465
vt 0.647020 0.265026
vt 0.774204 0.777945
vt 0.876523 0.397601
vt 0.250285 0.241042
vt 0.876523 0.241042
vt 0.800398 0.723726
vt 0.174160 0.567166
vt 0.800398 0.567166
vt 0.021204 0.021351
vt 0.862912 0.442205
vt 0.215896 0.632397
vt 0.728817 0.555567
vt 0.850296 0.789703
vt 0.675398 0.723726
vt 0.049160 0.567166
vt 0.675398 0.567166
vt 0.800398 0.460101
vt 0.174160 0.303542
vt 0.800398 0.303542
vt 0.141448 0.562449
vt 0.562302 0.141595
vt 0.983156 0.983303
vt 0.713605 0.760995
vt 0.359419 0.607963
vt 0.449347 0.518035
vt 0.675398 0.786226
vt 0.049160 0.629666
vt 0.675398 0.629666
vt 0.862898 0.647601
vt 0.236660 0.491042
vt 0.862898 0.491042
vt 0.141448 0.021351
vt 0.162063 0.934722
vt 0.315096 0.580535
vt 0.405023 0.670463
vt 0.260488 0.575109
vt 0.377132 0.341821
vt 0.377132 0.575109
vt 0.398648 0.334350
vt 0.930322 0.121680
vt 0.930322 0.334350
vt 0.168198 0.963200
vt 0.699872 0.750530
vt 0.699872 0.963200
vt 0.606163 0.920784
vt 0.722807 0.687496
vt 0.722807 0.920784
vt 0.343535 0.708392
vt 0.734974 0.815344
vt 0.222055 0.942528
vt 0.383179 0.252778
vt 0.536212 0.606964
vt 0.271953 0.364004
vt 0.704524 0.777166
vt 0.313085 0.670214
vt 0.826004 0.543030
vt 0.861045 0.257045
vt 0.348126 0.333875
vt 0.226645 0.099738
vt 0.604107 0.266593
vt 0.497155 0.658032
vt 0.369972 0.145113
vt 0.569897 0.683253
vt 0.493067 0.170334
vt 0.727203 0.048854
vt 0.886663 0.239004
vt 0.532477 0.392037
vt 0.775437 0.127778
vt 0.511778 0.143688
vt 0.588608 0.656608
vt 0.354471 0.778088
vt 0.500000 -0.000000
vt 1.000000 0.562500
vt 0.000000 1.000000
vt 1.000000 0.875000
vt 0.875000 1.000000
vt 0.437500 1.000000
vt 0.562500 0.000000
vt 1.000000 1.000000
vt 0.000000 0.562500
vt 0.000000 0.437500
vt 1.000000 0.000000
vt 0.562500 1.000000
vt 0.187748 0.805025
vt 0.719422 0.592355
vt 0.719422 0.805025
vt 0.145263 0.920783
vt 0.261907 0.687496
vt 0.261907 0.920783
vt 0.072523 0.334350
vt 0.604198 0.121680
vt 0.604198 0.334350
vt 0.283423 0.449575
vt 0.815097 0.236905
vt 0.815097 0.449575
vt 0.187748 0.334350
vt 0.719422 0.121680
vt 0.719422 0.334350
vt 0.606163 0.459884
vt 0.722807 0.226596
vt 0.722807 0.459884
vt 0.398648 0.910475
vt 0.930322 0.697805
vt 0.930322 0.910475
vt 0.398648 0.963200
vt 0.930322 0.750530
vt 0.930322 0.963200
vt 0.234583 0.057369
vt 0.575875 0.398661
vt 0.234583 0.398661
vt 0.874581 0.932043
vt 0.627227 0.561012
vt 0.874581 0.561012
vt 0.775010 1.099556
vt 0.496347 0.681561
vt 0.775010 0.681561
vt 0.745731 0.402837
vt 0.498377 0.773868
vt 0.498377 0.402837
vt 0.058826 0.572962
vt 0.290732 0.804868
vt 0.058826 0.804868
vt 0.519726 0.572962
vt 0.751632 0.804868
vt 0.519726 0.804868
vt 0.234583 0.057369
vt 0.298456 0.932043
vt 0.051102 0.561012
vt 0.298456 0.561012
vt 0.429336 0.523431
vt 0.150672 0.105436
vt 0.429336 0.105436
vt 0.627227 0.932043
vt 0.627227 0.561012
vt 0.290732 0.804868
vt 0.519726 0.572962
vt 0.751632 0.804868
vt 0.519726 0.804868
vt 0.575875 0.057369
vt 0.234583 0.398661
vt 0.234583 0.057369
vt 0.298456 0.816818
vt 0.051102 0.445787
vt 0.298456 0.445787
vt 0.323886 0.869106
vt 0.045222 0.451111
vt 0.323886 0.451111
vt 0.759356 0.445787
vt 0.512002 0.816818
vt 0.512002 0.445787
vt 0.058826 0.572962
vt 0.058826 0.804868
vt 0.751632 0.572962
vt 0.562081 0.672268
vt 0.314727 0.301237
vt 0.562081 0.301237
vt 0.659786 0.638657
vt 0.381122 0.220661
vt 0.659786 0.220661
vt 0.433231 0.225112
vt 0.185877 0.596143
vt 0.185877 0.225112
vt 0.290732 0.572962
vt 0.751632 0.572962
vt 0.519726 0.804868
vt 0.519726 0.572962
vt 0.101911 0.493140
vt 0.168641 0.654240
vt 0.101911 0.654240
vt 0.170222 0.658055
vt 0.100331 0.489324
vt 0.170222 0.489324
vt 0.171468 0.661064
vt 0.099084 0.486315
vt 0.171468 0.486315
vt 0.171468 0.486315
vt 0.099084 0.661064
vt 0.099084 0.486315
vt 0.170222 0.489324
vt 0.100331 0.658055
vt 0.100331 0.489324
vt 0.168641 0.493140
vt 0.101911 0.654240
vt 0.101911 0.493140
vt 0.644330 0.643530
vt 0.500566 0.703548
vt 0.643530 0.355670
vt 0.167632 0.495576
vt 0.102920 0.651804
vt 0.102920 0.495576
vt 0.167632 0.651804
vt 0.102920 0.495576
vt 0.543286 0.516505
vt 0.543286 0.630875
vt 0.267172 0.516505
vt 0.101911 0.654240
vt 0.168641 0.493140
vt 0.168641 0.654240
vt 0.170222 0.489324
vt 0.100331 0.658055
vt 0.100331 0.489324
vt 0.171468 0.486315
vt 0.099084 0.661064
vt 0.099084 0.486315
vt 0.099084 0.486315
vt 0.171468 0.486315
vt 0.100331 0.489324
vt 0.168641 0.654240
vt 0.101911 0.493140
vt 0.267172 0.516505
vt 0.348044 0.435633
vt 0.348044 0.711746
vt 0.167632 0.651803
vt 0.102920 0.495576
vt 0.167632 0.495576
vt 0.167632 0.495577
vt 0.102920 0.651803
vt 0.102920 0.495577
vt 0.501795 0.296459
vt 0.642655 0.645194
vt 0.645194 0.357344
vt 0.168641 0.493140
vt 0.168641 0.654240
vt 0.170222 0.489325
vt 0.100331 0.658055
vt 0.100331 0.489325
vt 0.099084 0.661064
vt 0.099084 0.486315
vt 0.171468 0.661064
vt 0.099084 0.486316
vt 0.171468 0.486316
vt 0.170222 0.658055
vt 0.100331 0.489324
vt 0.267172 0.516505
vt 0.348044 0.435633
vt 0.348044 0.711746
vt 0.167632 0.651803
vt 0.102920 0.495577
vt 0.167632 0.495577
vt 0.102920 0.651803
vt 0.102920 0.495577
vt 0.101911 0.493140
vt 0.168641 0.654240
vt 0.101911 0.654240
vt 0.170222 0.489324
vt 0.171468 0.661064
vt 0.099084 0.486315
vt 0.171468 0.486315
vt 0.099084 0.661064
vt 0.170222 0.489324
vt 0.100331 0.658056
vt 0.168641 0.493140
vt 0.101911 0.654240
vt 0.101911 0.493140
vt 0.102920 0.651803
vt 0.102920 0.495576
vt 0.167632 0.495576
vt 0.101911 0.493140
vt 0.101911 0.654240
vt 0.171468 0.486315
vt 0.099084 0.661064
vt 0.099084 0.486315
vt 0.167632 0.495576
vt 0.102920 0.495576
vt 0.167632 0.651803
vt 0.167632 0.495576
vt 0.543286 0.516505
vt 0.267172 0.516505
vt 0.101911 0.654240
vt 0.168641 0.493140
vt 0.168641 0.654240
vt 0.170222 0.489324
vt 0.100331 0.489324
vt 0.171468 0.486316
vt 0.168641 0.654240
vt 0.101911 0.493140
vt 0.168641 0.493140
vt 0.348044 0.435633
vt 0.102920 0.495576
vt 0.102920 0.651803
vt 0.498205 0.703541
vt 0.100331 0.658055
vt 0.171468 0.486315
vt 0.171468 0.486315
vt 0.170222 0.658056
vt 0.100331 0.489324
vt 0.170222 0.489324
vt 0.101911 0.493140
vt 0.168641 0.493140
vt 0.348044 0.435633
vt 0.348044 0.711746
vt 0.101911 0.493140
vt 0.168641 0.654240
vt 0.101911 0.654240
vt 0.170222 0.658055
vt 0.100331 0.489324
vt 0.171468 0.661064
vt 0.099084 0.486315
vt 0.171468 0.486315
vt 0.100331 0.658056
vt 0.100331 0.489324
vt 0.535571 0.485843
vt 0.678174 0.200638
vt 0.678174 0.485843
vt 0.650796 0.946742
vt 0.793399 0.661537
vt 0.793399 0.946742
vt 0.908993 0.947482
vt 0.765651 0.660798
vt 0.908993 0.660798
vt 0.102419 0.947482
vt -0.040923 0.660798
vt 0.102419 0.660798
vt 0.809432 0.920586
vt 0.634783 0.687714
vt 0.809432 0.687693
vt 0.200173 0.730364
vt 0.070379 0.417015
vt 0.200173 0.417015
vt 0.355670 0.643530
vt 0.499434 0.703548
vt 0.356470 0.355670
vt 0.200510 0.416203
vt 0.070042 0.731177
vt 0.070042 0.416203
vt 0.650426 0.947482
vt 0.793768 0.660798
vt 0.793768 0.947482
vt 0.666920 0.465294
vt 0.666920 0.682086
vt 0.143538 0.465294
vt 0.074671 0.946742
vt 0.217274 0.661537
vt 0.217274 0.946742
vt -0.040553 0.370618
vt 0.102049 0.085413
vt 0.102049 0.370618
vt 0.535201 0.947482
vt 0.678543 0.660798
vt 0.678543 0.947482
vt 0.189527 0.717032
vt 0.332869 0.430348
vt 0.332869 0.717032
vt 0.058659 0.805341
vt 0.233308 0.572468
vt 0.233308 0.805361
vt 0.200173 0.417015
vt 0.070379 0.730365
vt 0.070379 0.417015
vt 0.143538 0.465294
vt 0.296833 0.311999
vt 0.296833 0.835381
vt 0.200510 0.731177
vt 0.070042 0.416203
vt 0.200510 0.416203
vt 0.189527 0.717032
vt 0.332869 0.430348
vt 0.354806 0.357344
vt 0.498205 0.296459
vt 0.501795 0.703541
vt 0.678174 0.946742
vt 0.535571 0.661537
vt 0.678174 0.661537
vt 0.703521 0.874467
vt 0.846124 0.589262
vt 0.846124 0.874467
vt 0.209077 0.822482
vt 0.352419 0.535798
vt 0.352419 0.822482
vt 0.678543 0.625206
vt 0.535201 0.338523
vt 0.678543 0.338523
vt 0.189896 0.831518
vt 0.332499 0.546312
vt 0.332499 0.831518
vt 0.200173 0.417015
vt 0.070379 0.730365
vt 0.070379 0.417015
vt 0.200510 0.416203
vt 0.070042 0.731177
vt 0.070042 0.416203
vt 0.535201 0.486582
vt 0.678543 0.199898
vt 0.678543 0.486582
vt 0.332499 0.946742
vt 0.189896 0.661537
vt 0.332499 0.661537
vt 0.535571 0.831517
vt 0.678174 0.546312
vt 0.678174 0.831517
vt 0.332869 0.486582
vt 0.189527 0.199898
vt 0.332869 0.199898
vt 0.304936 0.960198
vt 0.447909 0.674252
vt 0.447909 0.960198
vt 0.447909 0.861752
vt 0.304936 0.575807
vt 0.447909 0.575807
vt 0.694207 0.574912
vt 0.519558 0.342039
vt 0.694207 0.342018
vt 0.200510 0.416203
vt 0.070042 0.731177
vt 0.070042 0.416203
vt 0.332869 0.371357
vt 0.189527 0.084673
vt 0.332869 0.084673
vt 0.666920 0.465294
vt 0.666920 0.682086
vt 0.143538 0.465294
vt 0.074671 0.831518
vt 0.217274 0.546312
vt 0.217274 0.831518
vt 0.209447 0.370618
vt 0.352049 0.085413
vt 0.352049 0.370618
vt 0.332869 0.832257
vt 0.189527 0.545573
vt 0.332869 0.545573
vt 0.765651 0.947482
vt 0.908993 0.947482
vt 0.074672 0.946742
vt 0.217274 0.661537
vt 0.217274 0.946742
vt 0.678543 0.486582
vt 0.535201 0.199898
vt 0.678543 0.199898
vt 0.666920 0.465294
vt 0.666920 0.682086
vt 0.535571 0.946742
vt 0.678174 0.661537
vt 0.678174 0.946742
vt 0.209447 0.601068
vt 0.352049 0.315863
vt 0.352049 0.601068
vt 0.765651 0.947482
vt 0.908993 0.660798
vt 0.074302 0.371357
vt 0.217644 0.084673
vt 0.217644 0.371357
vt -0.040553 0.370618
vt 0.102049 0.085413
vt 0.102049 0.370618
vt 0.634783 0.690116
vt 0.809432 0.457243
vt 0.809432 0.690136
vt 0.143537 0.465294
vt 0.296833 0.311998
vt 0.296833 0.835381
vt 0.200510 0.416203
vt 0.074302 0.947482
vt 0.217644 0.660798
vt 0.217644 0.947482
vt 0.357345 0.645194
vt 0.074671 0.831517
vt 0.217274 0.546312
vt 0.217274 0.831517
vt 0.084447 0.370618
vt 0.227049 0.085413
vt 0.227049 0.370618
vt 0.233760 0.805965
vt 0.058206 0.571885
vt 0.233760 0.571864
vt 0.908993 1.062707
vt 0.765651 0.776023
vt 0.908993 0.776023
vt 0.332499 0.831517
vt 0.189896 0.546312
vt 0.332499 0.546312
vt 0.200173 0.730364
vt 0.070379 0.417015
vt 0.200173 0.417015
vt 0.535201 0.486582
vt 0.666920 0.465294
vt 0.143538 0.465294
vt 0.650796 0.946742
vt 0.793399 0.661537
vt 0.084447 0.716292
vt 0.227049 0.431087
vt 0.227049 0.716292
vt 0.579435 0.805965
vt 0.403881 0.571885
vt 0.579435 0.571864
vt 0.678544 0.947482
vt 0.535201 0.660798
vt 0.678544 0.660798
vt -0.040553 0.831518
vt 0.102049 0.546312
vt 0.102049 0.831518
vt 0.118083 0.344462
vt -0.056566 0.111589
vt 0.118083 0.111569
vt 0.143537 0.465294
vt 0.296833 0.311999
vt 0.200510 0.416203
vt 0.189527 0.601807
vt 0.332869 0.315123
vt 0.332869 0.601807
vt 0.845120 0.811462
vt 0.113351 0.689501
vt 0.845120 0.689501
vt 0.947107 0.546120
vt 0.215337 0.424158
vt 0.947107 0.424158
vt 0.970120 0.663449
vt 0.238351 0.541487
vt 0.970120 0.541487
vt 0.970120 0.936462
vt 0.238351 0.814501
vt 0.970120 0.814501
vt 0.837449 0.398106
vt 0.105680 0.276145
vt 0.837449 0.276145
vt 0.845120 0.811462
vt 0.113351 0.689500
vt 0.845120 0.689500
vt 0.935050 0.435296
vt 0.205911 0.563325
vt 0.138362 0.435296
vt 0.790292 0.405777
vt 0.058522 0.283816
vt 0.790292 0.283816
vt 0.814435 0.515435
vt 0.082666 0.393473
vt 0.814435 0.393473
vt 1.000000 0.687500
vt 0.312500 1.000000
vt 0.000000 0.312500
vt 0.348384 0.070565
vt 0.963707 0.439759
vt 0.348384 0.439759
vt 0.083533 0.271940
vt 0.815062 0.399969
vt 0.151082 0.399969
vt 0.880222 0.092111
vt 0.151082 0.220141
vt 0.083533 0.092112
vt 0.052849 0.794954
vt 0.784378 0.922983
vt 0.120398 0.922983
vt 0.912037 0.654611
vt 0.182898 0.782641
vt 0.115349 0.654612
vt 0.974537 0.732454
vt 0.245397 0.860483
vt 0.177848 0.732454
vt 0.021034 0.217112
vt 0.752562 0.345141
vt 0.088583 0.345141
vt 0.919708 0.482454
vt 0.190569 0.610483
vt 0.123020 0.482454
vt 0.330914 0.212861
vt 0.981177 0.993177
vt 0.330914 0.993177
vt 0.899573 0.057417
vt 0.284251 0.426611
vt 0.284251 0.057417
vt 0.963707 0.360023
vt 0.348384 0.729216
vt 0.348384 0.360023
vt 0.751531 0.070565
vt 0.136209 0.439759
vt 0.136209 0.070565
vt 0.693919 0.225129
vt 0.078596 0.594322
vt 0.078596 0.225129
vt 0.963707 0.494917
vt 0.348384 0.864111
vt 0.348384 0.494917
vt 0.963707 0.567311
vt 0.348384 0.936505
vt 0.348384 0.567311
vt 0.649573 0.070565
vt 0.034251 0.439759
vt 0.034251 0.070565
vt 0.892236 0.456279
vt 0.305183 0.691100
vt 0.187772 0.456279
vt 0.769001 0.053291
vt 0.118738 0.833607
vt 0.118738 0.053291
vt 0.667044 0.053291
vt 0.016780 0.833607
vt 0.016780 0.053291
vt 0.981177 0.053291
vt 0.330914 0.833607
vt 0.330914 0.053291
vt 0.981177 0.053291
vt 0.330914 0.833607
vt 0.330914 0.053291
vt 0.981177 0.833607
vt 0.769002 0.053291
vt 0.118738 0.833607
vt 0.118738 0.053291
vt 0.667044 0.212861
vt 0.016780 0.993177
vt 0.016780 0.212861
vt 0.706593 0.052104
vt 0.017965 0.970275
vt 0.017965 0.052104
vt 0.954736 0.706279
vt 0.367683 0.941100
vt 0.250272 0.706279
vt 0.062772 0.643779
vt 0.649825 0.878600
vt 0.180183 0.878600
vt 0.829736 0.456279
vt 0.242683 0.691100
vt 0.125272 0.456279
vt 0.892236 0.206279
vt 0.305183 0.441100
vt 0.187772 0.206279
vt 0.954736 0.643779
vt 0.367683 0.878600
vt 0.250272 0.643779
vt 0.829736 0.143779
vt 0.242683 0.378600
vt 0.125272 0.143779
vt 0.829736 0.643779
vt 0.242683 0.878600
vt 0.125272 0.643779
vt 0.687500 0.000000
vt 0.749543 0.037441
vt 0.060914 0.955613
vt 0.060914 0.037441
vt 0.080465 0.042329
vt 0.769094 0.960501
vt 0.080465 0.960501
vt 0.060915 0.042329
vt 0.749543 0.960500
vt 0.060915 0.960500
vt 0.749543 0.066767
vt 0.060914 0.984938
vt 0.060914 0.066767
vt 0.975106 0.032554
vt 0.286477 0.950726
vt 0.286477 0.032554
vt 0.291364 0.052104
vt 0.979993 0.970276
vt 0.291364 0.970276
vt 0.749543 0.032554
vt 0.060915 0.950726
vt 0.060915 0.032554
vt 0.745753 0.603514
vt 0.232834 0.526684
vt 0.745754 0.399499
vt 0.398648 0.910475
vt 0.930322 0.697805
vt 0.930322 0.910475
vt 0.814023 0.407376
vt 0.187785 0.250817
vt 0.814023 0.250817
vt 0.072523 0.396850
vt 0.604198 0.184180
vt 0.604198 0.396850
vt 0.833573 0.911226
vt 0.207335 0.754666
vt 0.833573 0.754666
vt 0.228243 0.695491
vt 0.619683 0.588539
vt 0.862642 0.852798
vt 0.257397 0.302305
vt 0.180567 0.815224
vt 0.053383 0.302305
vt 0.876523 0.786226
vt 0.250285 0.629666
vt 0.876523 0.629666
vt 0.791607 0.670907
vt 0.684656 0.279467
vt 0.948914 0.036507
vt 0.283423 0.900700
vt 0.815097 0.688030
vt 0.815097 0.900700
vt 0.728123 0.723726
vt 0.101885 0.567166
vt 0.728123 0.567166
vt 0.129246 0.583986
vt 0.642166 0.660816
vt 0.129247 0.788000
vt 0.948798 0.911226
vt 0.322560 0.754666
vt 0.948798 0.754666
vt 0.158423 0.713200
vt 0.690097 0.500530
vt 0.690097 0.713200
vt 0.752582 0.237276
vt 0.361143 0.344228
vt 0.118182 0.079969
vt 0.948798 0.911226
vt 0.322560 0.754666
vt 0.948798 0.754666
vt 0.194545 0.716870
vt 0.271375 0.203950
vt 0.398559 0.716870
vt 0.833573 0.963951
vt 0.207335 0.807391
vt 0.833573 0.807391
vt 0.398648 0.449575
vt 0.930322 0.236905
vt 0.930322 0.449575
vt 0.367009 0.309918
vt 0.473962 0.701357
vt 0.209702 0.944318
vt 0.833573 0.450326
vt 0.207335 0.293767
vt 0.833573 0.293767
vt 0.530069 0.391237
vt 0.299619 0.391237
vt 0.645294 0.506462
vt 0.184394 0.852137
vt 0.236660 0.921001
vt 0.207335 0.911226
vt 0.983156 0.863059
vt 0.862912 0.983303
vt 0.021204 0.742815
vt 0.742668 0.021351
vt 0.382761 0.022065
vt 0.250285 0.397601
vt 0.174160 0.723726
vt 0.021204 0.742815
vt 0.742668 0.021351
vt 0.983156 0.863059
vt 0.862912 0.983303
vt 0.215897 0.428383
vt 0.049160 0.723726
vt 0.174160 0.460101
vt 0.261692 0.983303
vt 0.021204 0.141595
vt 0.983156 0.261839
vt 0.602379 0.872222
vt 0.049160 0.786226
vt 0.236660 0.647601
vt 0.050836 0.823496
vt 0.260488 0.341821
vt 0.398648 0.121680
vt 0.168198 0.750530
vt 0.606163 0.687496
vt 0.977934 0.551086
vt 0.626140 0.517037
vt 0.070124 0.934473
vt 0.861045 0.461059
vt 0.761414 0.900992
vt 0.365883 0.683253
vt 0.622405 0.481964
vt 0.715792 0.143688
vt 0.000000 0.000000
vt 0.875000 0.000000
vt 1.000000 0.125000
vt -0.000000 0.000000
vt 1.000000 0.437500
vt 0.000000 0.125000
vt 0.125000 0.000000
vt 0.125000 1.000000
vt 0.000000 0.875000
vt 0.187748 0.592355
vt 0.145263 0.687496
vt 0.072523 0.121680
vt 0.283423 0.236905
vt 0.187748 0.121680
vt 0.606163 0.226596
vt 0.398648 0.697805
vt 0.398648 0.750530
vt 0.575875 0.057369
vt 0.627227 0.932043
vt 0.496347 1.099556
vt 0.745731 0.773868
vt 0.051102 0.932043
vt 0.150672 0.523431
vt 0.290732 0.572962
vt 0.751632 0.572962
vt 0.051102 0.816818
vt 0.045222 0.869106
vt 0.759356 0.816818
vt 0.314727 0.672268
vt 0.381122 0.638657
vt 0.433231 0.596143
vt 0.168641 0.493140
vt 0.099084 0.661064
vt 0.171468 0.661064
vt 0.356470 0.644330
vt 0.296452 0.500566
vt 0.355670 0.356470
vt 0.499434 0.296452
vt 0.703548 0.499434
vt 0.102920 0.651804
vt 0.462414 0.711746
vt 0.267172 0.630875
vt 0.348044 0.711746
vt 0.348044 0.435633
vt 0.462414 0.435633
vt 0.101911 0.493140
vt 0.170222 0.658055
vt 0.171468 0.661064
vt 0.100331 0.658055
vt 0.101911 0.654240
vt 0.462414 0.435633
vt 0.543285 0.516505
vt 0.543285 0.630875
vt 0.462414 0.711746
vt 0.267172 0.630875
vt 0.357344 0.354805
vt 0.354805 0.642655
vt 0.296459 0.498204
vt 0.703541 0.501795
vt 0.101911 0.493140
vt 0.171468 0.661064
vt 0.099084 0.661064
vt 0.462414 0.435633
vt 0.543286 0.516505
vt 0.543286 0.630875
vt 0.267172 0.630875
vt 0.102920 0.651803
vt 0.168641 0.493140
vt 0.170222 0.658056
vt 0.168641 0.654240
vt 0.167632 0.651803
vt 0.462414 0.711746
vt 0.348044 0.711746
vt 0.348044 0.435633
vt 0.462414 0.435633
vt 0.168641 0.493140
vt 0.171468 0.661065
vt 0.168641 0.654240
vt 0.167632 0.651803
vt 0.348044 0.711746
vt 0.462414 0.435633
vt 0.101911 0.493140
vt 0.101911 0.654240
vt 0.543285 0.516505
vt 0.543285 0.630875
vt 0.462414 0.435633
vt 0.462414 0.711746
vt 0.099084 0.661064
vt 0.535571 0.200638
vt 0.650796 0.661537
vt -0.040923 0.947482
vt 0.634783 0.920565
vt 0.070379 0.730364
vt 0.643530 0.644330
vt 0.703548 0.500566
vt 0.644330 0.356470
vt 0.500566 0.296452
vt 0.296452 0.499434
vt 0.200510 0.731177
vt 0.650426 0.660798
vt 0.513625 0.835381
vt 0.296833 0.835381
vt 0.143538 0.682086
vt 0.513625 0.311999
vt 0.074671 0.661537
vt -0.040553 0.085413
vt 0.535201 0.660798
vt 0.189527 0.430348
vt 0.058659 0.572489
vt 0.200173 0.730365
vt 0.666920 0.682086
vt 0.513625 0.835381
vt 0.143538 0.682086
vt 0.189527 0.430348
vt 0.642656 0.354805
vt 0.645195 0.642655
vt 0.703541 0.498204
vt 0.296459 0.501795
vt 0.535571 0.946742
vt 0.703521 0.589262
vt 0.209077 0.535798
vt 0.535201 0.625206
vt 0.189896 0.546312
vt 0.200173 0.730365
vt 0.200510 0.731177
vt 0.535201 0.199898
vt 0.189896 0.946742
vt 0.535571 0.546312
vt 0.189527 0.486582
vt 0.304936 0.674252
vt 0.304936 0.861752
vt 0.519558 0.574891
vt 0.189527 0.371357
vt 0.513625 0.835381
vt 0.143538 0.682086
vt 0.296833 0.835381
vt 0.296833 0.311999
vt 0.513625 0.311999
vt 0.074671 0.546312
vt 0.209447 0.085413
vt 0.189527 0.832257
vt 0.074672 0.661537
vt 0.143538 0.682086
vt 0.296833 0.311999
vt 0.535571 0.661537
vt 0.209447 0.315863
vt 0.765651 0.660798
vt 0.074302 0.084673
vt -0.040553 0.085413
vt 0.634783 0.457264
vt 0.513625 0.311998
vt 0.666920 0.465294
vt 0.666920 0.682086
vt 0.143537 0.682086
vt 0.074302 0.660798
vt 0.074671 0.546312
vt 0.084447 0.085413
vt 0.058206 0.805944
vt 0.765651 1.062707
vt 0.189896 0.831517
vt 0.070379 0.730364
vt 0.513625 0.835381
vt 0.650796 0.661537
vt 0.084447 0.431087
vt 0.403880 0.805944
vt 0.535201 0.947482
vt -0.040553 0.546312
vt -0.056566 0.344441
vt 0.513625 0.311999
vt 0.666920 0.682086
vt 0.189527 0.315123
vt 0.113351 0.811462
vt 0.215337 0.546120
vt 0.238351 0.663449
vt 0.238351 0.936462
vt 0.105680 0.398106
vt 0.113351 0.811462
vt 0.869891 0.563325
vt 0.058522 0.405777
vt 0.082666 0.515435
vt 0.687500 1.000000
vt 0.000000 0.687500
vt 0.312500 0.000000
vt 1.000000 0.312500
vt 0.963707 0.070565
vt 0.880222 0.271940
vt 0.815062 0.220141
vt 0.849537 0.794954
vt 0.846877 0.782641
vt 0.909378 0.860483
vt 0.817721 0.217111
vt 0.854548 0.610483
vt 0.981177 0.212861
vt 0.899573 0.426611
vt 0.963707 0.729216
vt 0.751531 0.439759
vt 0.693919 0.594322
vt 0.963707 0.864111
vt 0.963707 0.936505
vt 0.649573 0.439759
vt 0.774825 0.691100
vt 0.769001 0.833607
vt 0.667044 0.833607
vt 0.981177 0.833607
vt 0.769002 0.833607
vt 0.667044 0.993177
vt 0.706593 0.970275
vt 0.837325 0.941100
vt 0.767236 0.643779
vt 0.712325 0.691100
vt 0.774825 0.441100
vt 0.837325 0.878600
vt 0.712325 0.378600
vt 0.712325 0.878600
vt 0.749543 0.955613
vt 0.769094 0.042329
vt 0.749543 0.042329
vt 0.749543 0.984938
vt 0.975106 0.950726
vt 0.979993 0.052104
vt 0.749543 0.950726
vt 0.111354 0.760820
vt 0.398648 0.697805
vt 0.187785 0.407376
vt 0.072523 0.184180
vt 0.207335 0.911226
vt 0.106763 0.461355
vt 0.414703 0.936705
vt 0.250285 0.786226
vt 0.557472 0.792387
vt 0.283423 0.688030
vt 0.101885 0.723726
vt 0.763646 0.426680
vt 0.322560 0.911226
vt 0.158423 0.500530
vt 0.874063 0.471412
vt 0.322560 0.911226
vt 0.037238 0.082470
vt 0.207335 0.963951
vt 0.398648 0.236905
vt 0.601146 0.188438
vt 0.207335 0.450326
s 0
usemtl base
f 14/1/1 12/2/1 11/3/1
f 24/4/2 26/5/2 25/6/2
f 18/7/3 16/8/3 15/9/3
f 22/10/4 20/11/4 19/12/4
f 416/13/5 4/14/5 415/15/5
f 420/16/6 13/17/6 419/18/6
f 420/19/7 10/20/7 416/21/7
f 419/22/8 32/23/8 421/24/8
f 408/25/9 7/26/9 407/27/9
f 412/28/10 17/29/10 411/30/10
f 412/19/7 10/31/7 408/32/7
f 1/33/8 401/34/8 399/35/8
f 424/36/11 5/37/11 423/38/11
f 396/39/12 21/40/12 395/41/12
f 424/42/7 396/43/7 10/44/7
f 25/45/8 33/46/8 34/47/8
f 400/48/13 1/49/13 399/50/13
f 404/51/14 25/52/14 403/53/14
f 400/42/7 24/54/7 404/43/7
f 21/55/8 37/56/8 38/57/8
f 37/58/4 50/59/4 38/60/4
f 30/61/9 410/62/9 409/63/9
f 38/64/12 398/65/12 397/66/12
f 35/67/3 48/68/3 36/69/3
f 411/70/8 36/71/8 413/72/8
f 14/73/8 32/74/8 13/75/8
f 395/76/8 38/77/8 397/78/8
f 4/79/8 417/80/8 415/81/8
f 403/82/8 34/83/8 405/84/8
f 7/85/8 409/86/8 407/87/8
f 18/88/8 36/89/8 17/90/8
f 5/91/8 425/92/8 423/93/8
f 422/94/8 418/95/8 9/96/8
f 48/97/8 47/98/8 410/99/8
f 426/100/8 9/101/8 398/102/8
f 402/103/8 9/104/8 406/105/8
f 27/106/13 402/107/13 401/108/13
f 31/109/1 44/110/1 32/111/1
f 36/112/10 414/113/10 413/114/10
f 28/115/5 418/116/5 417/117/5
f 34/118/14 406/119/14 405/120/14
f 33/121/2 46/122/2 34/123/2
f 29/124/11 426/125/11 425/126/11
f 32/127/6 422/128/6 421/129/6
f 51/130/15 54/131/15 53/132/15
f 54/133/16 57/134/16 53/135/16
f 58/136/17 55/137/17 57/138/17
f 55/139/18 52/140/18 51/141/18
f 53/142/19 55/143/19 51/144/19
f 58/145/20 52/146/20 56/147/20
f 59/148/21 62/131/21 61/132/21
f 62/149/22 65/150/22 61/151/22
f 66/152/23 63/153/23 65/154/23
f 63/135/24 60/155/24 59/156/24
f 61/142/25 63/157/25 59/144/25
f 66/158/26 60/159/26 64/160/26
f 68/161/27 69/162/27 67/163/27
f 70/164/18 73/165/18 69/166/18
f 74/167/28 71/168/28 73/169/28
f 71/170/16 68/171/16 67/172/16
f 69/173/29 71/143/29 67/174/29
f 70/175/30 72/147/30 74/145/30
f 76/161/31 77/162/31 75/163/31
f 78/176/24 81/177/24 77/178/24
f 82/179/32 79/180/32 81/181/32
f 79/182/22 76/183/22 75/184/22
f 81/185/33 75/144/33 77/142/33
f 78/186/34 80/187/34 82/188/34
f 84/189/35 85/190/35 83/191/35
f 86/192/36 87/193/36 85/194/36
f 88/195/37 89/196/37 87/197/37
f 89/198/38 92/199/38 91/200/38
f 91/201/39 94/202/39 93/203/39
f 93/204/40 96/205/40 95/206/40
f 95/210/42 98/211/42 97/212/42
f 98/213/43 83/214/43 97/210/43
f 95/215/44 97/216/44 89/217/44
f 99/218/45 102/219/45 101/220/45
f 101/221/46 104/222/46 103/223/46
f 103/224/47 106/225/47 105/226/47
f 106/195/48 107/227/48 105/228/48
f 108/192/49 109/229/49 107/194/49
f 110/230/50 111/231/50 109/204/50
f 108/232/44 106/233/44 112/234/44
f 112/235/51 113/236/51 111/237/51
f 113/238/52 100/239/52 99/240/52
f 115/218/53 118/244/53 117/245/53
f 117/246/54 120/247/54 119/248/54
f 119/197/55 122/249/55 121/250/55
f 122/251/56 123/252/56 121/253/56
f 124/254/57 125/255/57 123/221/57
f 126/230/58 127/206/58 125/204/58
f 124/256/59 122/257/59 128/258/59
f 128/259/60 129/260/60 127/261/60
f 129/261/61 116/262/61 115/263/61
f 132/264/63 133/265/63 131/266/63
f 134/192/64 135/255/64 133/267/64
f 136/268/65 137/269/65 135/270/65
f 137/228/66 140/271/66 139/227/66
f 139/272/67 142/273/67 141/255/67
f 141/274/68 144/275/68 143/276/68
f 143/210/69 146/277/69 145/212/69
f 146/213/70 131/278/70 145/279/70
f 143/215/59 145/216/59 137/217/59
f 148/280/71 149/190/71 147/281/71
f 150/192/72 151/203/72 149/201/72
f 152/195/73 153/196/73 151/197/73
f 153/282/74 156/283/74 155/284/74
f 155/194/75 158/202/75 157/193/75
f 157/274/76 160/275/76 159/276/76
f 159/285/78 162/262/78 161/286/78
f 162/287/79 147/212/79 161/288/79
f 159/289/80 161/216/80 153/290/80
f 163/291/81 166/292/81 165/293/81
f 165/294/82 168/247/82 167/295/82
f 167/228/83 170/283/83 169/227/83
f 170/195/84 171/252/84 169/296/84
f 172/192/85 173/203/85 171/201/85
f 174/297/86 175/298/86 173/299/86
f 172/256/80 170/300/80 176/234/80
f 176/287/87 177/301/87 175/288/87
f 177/237/88 164/302/88 163/236/88
f 179/291/89 182/292/89 181/293/89
f 181/194/90 184/304/90 183/193/90
f 183/305/91 186/271/91 185/226/91
f 186/251/92 187/284/92 185/306/92
f 188/307/93 189/308/93 187/309/93
f 190/230/94 191/310/94 189/311/94
f 188/290/95 186/312/95 192/313/95
f 192/259/96 193/263/96 191/261/96
f 193/237/97 180/302/97 179/236/97
f 196/314/99 197/315/99 195/316/99
f 198/317/100 199/318/100 197/194/100
f 200/319/101 201/320/101 199/321/101
f 201/228/102 204/271/102 203/227/102
f 203/201/103 206/322/103 205/323/103
f 205/311/104 208/218/104 207/310/104
f 207/210/105 210/277/105 209/212/105
f 210/259/106 195/212/106 209/210/106
f 207/215/95 209/216/95 201/217/95
f 212/324/107 213/325/107 211/326/107
f 214/327/108 215/328/108 213/329/108
f 215/330/109 218/331/109 217/332/109
f 217/333/110 220/334/110 219/335/110
f 219/336/111 222/337/111 221/338/111
f 222/339/112 223/340/112 221/341/112
f 223/345/114 226/346/114 225/347/114
f 226/348/115 211/349/115 225/350/115
f 223/351/116 225/352/116 217/353/116
f 228/354/117 229/355/117 227/356/117
f 230/357/118 231/358/118 229/359/118
f 232/360/119 233/361/119 231/362/119
f 234/363/120 235/364/120 233/365/120
f 236/366/121 237/367/121 235/368/121
f 237/369/122 240/370/122 239/371/122
f 236/372/123 234/373/123 240/374/123
f 240/375/124 241/376/124 239/377/124
f 242/378/125 227/379/125 241/365/125
f 243/383/127 246/384/127 245/385/127
f 246/386/128 247/387/128 245/388/128
f 248/389/129 249/390/129 247/391/129
f 249/392/130 252/393/130 251/394/130
f 252/395/131 253/396/131 251/397/131
f 253/398/132 256/399/132 255/400/132
f 252/372/133 250/373/133 256/374/133
f 255/401/134 258/402/134 257/403/134
f 258/404/135 243/405/135 257/406/135
f 259/407/112 262/408/112 261/409/112
f 262/410/111 263/411/111 261/412/111
f 263/413/110 266/414/110 265/415/110
f 266/416/109 267/417/109 265/418/109
f 267/419/108 270/420/108 269/421/108
f 269/422/107 272/423/107 271/424/107
f 271/425/115 274/426/115 273/427/115
f 273/428/114 260/429/114 259/430/114
f 271/431/113 273/432/113 265/433/113
f 276/434/137 277/435/137 275/436/137
f 278/437/138 279/438/138 277/439/138
f 279/440/139 282/441/139 281/442/139
f 282/443/140 283/332/140 281/444/140
f 284/445/141 285/446/141 283/447/141
f 285/398/142 288/370/142 287/400/142
f 287/377/144 290/346/144 289/376/144
f 289/448/145 276/449/145 275/450/145
f 287/451/146 289/452/146 281/372/146
f 292/453/122 293/454/122 291/455/122
f 294/456/121 295/457/121 293/458/121
f 296/459/120 297/460/120 295/330/120
f 298/461/119 299/462/119 297/463/119
f 300/464/118 301/465/118 299/466/118
f 302/467/117 303/468/117 301/469/117
f 300/470/126 298/471/126 304/472/126
f 303/473/125 306/346/125 305/376/125
f 306/474/124 291/475/124 305/476/124
f 308/478/142 309/479/142 307/480/142
f 310/481/141 311/482/141 309/483/141
f 311/484/140 314/485/140 313/486/140
f 313/487/139 316/488/139 315/489/139
f 315/490/138 318/491/138 317/492/138
f 318/493/137 319/494/137 317/495/137
f 320/375/145 321/376/145 319/377/145
f 322/496/144 307/450/144 321/448/144
f 319/497/143 321/452/143 313/498/143
f 324/499/132 325/500/132 323/329/132
f 326/501/131 327/502/131 325/503/131
f 327/504/130 330/505/130 329/506/130
f 329/507/129 332/508/129 331/509/129
f 332/510/128 333/511/128 331/512/128
f 333/513/127 336/514/127 335/515/127
f 332/516/136 330/517/136 336/374/136
f 336/375/135 337/347/135 335/518/135
f 338/519/134 323/520/134 337/521/134
f 340/522/24 341/523/24 339/524/24
f 342/525/1 343/526/1 341/527/1
f 344/528/16 345/529/16 343/530/16
f 346/531/3 347/532/3 345/533/3
f 348/534/22 349/535/22 347/536/22
f 350/537/2 351/538/2 349/539/2
f 344/540/7 358/541/7 346/542/7
f 352/543/18 353/544/18 351/545/18
f 354/546/4 339/547/4 353/548/4
f 353/549/8 341/550/8 345/551/8
f 352/555/7 360/556/7 361/557/7
f 346/558/7 359/559/7 348/560/7
f 354/561/7 361/562/7 362/563/7
f 342/564/7 357/565/7 344/566/7
f 348/567/7 360/568/7 350/569/7
f 340/570/7 362/571/7 356/572/7
f 340/573/7 355/574/7 342/575/7
f 377/600/7 386/601/7 378/602/7
f 375/625/7 384/626/7 376/627/7
f 374/628/7 381/629/7 382/630/7
f 372/631/7 379/632/7 371/633/7
f 378/634/7 380/635/7 372/636/7
f 376/637/7 385/638/7 377/639/7
f 374/640/7 383/641/7 375/642/7
f 371/643/7 381/644/7 373/645/7
f 393/550/7 391/551/7 389/646/7
f 1/668/8 397/669/8 27/670/8
f 397/671/12 39/672/12 27/673/12
f 3/674/12 395/675/12 1/676/12
f 401/677/13 45/678/13 33/679/13
f 23/680/13 399/681/13 26/682/13
f 399/683/8 33/684/8 26/685/8
f 405/127/14 42/128/14 30/129/14
f 7/686/8 405/687/8 30/688/8
f 6/689/14 403/690/14 7/691/14
f 407/692/8 35/693/8 18/694/8
f 409/695/9 47/696/9 35/697/9
f 15/698/9 407/699/9 18/700/9
f 413/695/10 40/696/10 28/697/10
f 4/701/8 413/702/8 28/703/8
f 2/704/10 411/705/10 4/706/10
f 417/707/5 43/708/5 31/709/5
f 415/710/8 31/711/8 14/712/8
f 11/713/5 415/714/5 14/715/5
f 421/124/6 41/125/6 29/126/6
f 5/716/8 421/717/8 29/718/8
f 8/719/6 419/720/6 5/721/6
f 425/722/11 49/723/11 37/724/11
f 423/725/8 37/726/8 22/727/8
f 19/728/11 423/729/11 22/730/11
f 14/1/1 13/731/1 12/2/1
f 24/4/2 23/732/2 26/5/2
f 18/7/3 17/733/3 16/8/3
f 22/10/4 21/734/4 20/11/4
f 416/13/5 2/735/5 4/14/5
f 420/16/6 12/736/6 13/17/6
f 416/21/7 11/737/7 12/738/7
f 420/19/7 8/739/7 10/20/7
f 416/21/7 12/738/7 420/19/7
f 10/20/7 2/740/7 416/21/7
f 419/22/8 13/741/8 32/23/8
f 408/25/9 6/742/9 7/26/9
f 412/28/10 16/743/10 17/29/10
f 412/19/7 2/744/7 10/31/7
f 10/31/7 6/745/7 408/32/7
f 408/32/7 15/746/7 16/747/7
f 16/747/7 412/19/7 408/32/7
f 1/33/8 27/748/8 401/34/8
f 424/36/11 8/749/11 5/37/11
f 396/39/12 20/750/12 21/40/12
f 10/44/7 8/751/7 424/42/7
f 424/42/7 19/752/7 20/54/7
f 396/43/7 3/753/7 10/44/7
f 424/42/7 20/54/7 396/43/7
f 25/45/8 26/754/8 33/46/8
f 400/48/13 3/755/13 1/49/13
f 404/51/14 24/756/14 25/52/14
f 6/753/7 10/44/7 404/43/7
f 10/44/7 3/751/7 400/42/7
f 400/42/7 23/752/7 24/54/7
f 10/44/7 400/42/7 404/43/7
f 21/55/8 22/757/8 37/56/8
f 37/58/4 49/758/4 50/59/4
f 30/61/9 42/759/9 410/62/9
f 38/64/12 50/760/12 398/65/12
f 35/67/3 47/761/3 48/68/3
f 411/70/8 17/762/8 36/71/8
f 14/73/8 31/763/8 32/74/8
f 395/76/8 21/764/8 38/77/8
f 4/79/8 28/765/8 417/80/8
f 403/82/8 25/766/8 34/83/8
f 7/85/8 30/767/8 409/86/8
f 18/88/8 35/768/8 36/89/8
f 5/91/8 29/769/8 425/92/8
f 9/96/8 41/770/8 422/94/8
f 422/94/8 44/771/8 43/772/8
f 43/772/8 418/95/8 422/94/8
f 418/95/8 40/101/8 9/96/8
f 42/96/8 9/773/8 410/99/8
f 9/773/8 40/104/8 414/774/8
f 410/99/8 9/773/8 414/774/8
f 414/774/8 48/97/8 410/99/8
f 398/102/8 50/775/8 49/776/8
f 49/776/8 426/100/8 398/102/8
f 426/100/8 41/104/8 9/101/8
f 398/102/8 9/101/8 39/96/8
f 402/103/8 39/770/8 9/104/8
f 9/104/8 42/101/8 406/105/8
f 406/105/8 46/777/8 45/778/8
f 45/778/8 402/103/8 406/105/8
f 27/106/13 39/779/13 402/107/13
f 31/109/1 43/780/1 44/110/1
f 36/112/10 48/781/10 414/113/10
f 28/115/5 40/782/5 418/116/5
f 34/118/14 46/783/14 406/119/14
f 33/121/2 45/784/2 46/122/2
f 29/124/11 41/785/11 426/125/11
f 32/127/6 44/786/6 422/128/6
f 51/130/15 52/787/15 54/131/15
f 54/133/16 58/788/16 57/134/16
f 58/136/17 56/789/17 55/137/17
f 55/139/18 56/790/18 52/140/18
f 53/142/19 57/185/19 55/143/19
f 58/145/20 54/175/20 52/146/20
f 59/148/21 60/161/21 62/131/21
f 62/149/22 66/791/22 65/150/22
f 66/152/23 64/792/23 63/153/23
f 63/135/24 64/133/24 60/155/24
f 61/142/25 65/793/25 63/157/25
f 66/158/26 62/794/26 60/159/26
f 68/161/27 70/131/27 69/162/27
f 70/164/18 74/795/18 73/165/18
f 74/167/28 72/796/28 71/168/28
f 71/170/16 72/797/16 68/171/16
f 69/173/29 73/185/29 71/143/29
f 70/175/30 68/146/30 72/147/30
f 76/161/31 78/131/31 77/162/31
f 78/176/24 82/798/24 81/177/24
f 82/179/32 80/799/32 79/180/32
f 79/182/22 80/800/22 76/183/22
f 81/185/33 79/143/33 75/144/33
f 78/186/34 76/159/34 80/187/34
f 84/189/50 86/801/50 85/190/50
f 86/192/49 88/202/49 87/193/49
f 88/195/48 90/802/48 89/196/48
f 89/198/47 90/803/47 92/199/47
f 91/201/46 92/192/46 94/202/46
f 93/204/45 94/230/45 96/205/45
f 95/210/52 96/213/52 98/211/52
f 98/213/51 84/809/51 83/214/51
f 97/216/44 83/810/44 87/811/44
f 83/810/44 85/812/44 87/811/44
f 87/811/44 89/217/44 97/216/44
f 89/217/44 91/813/44 95/215/44
f 91/813/44 93/814/44 95/215/44
f 99/218/40 100/815/40 102/219/40
f 101/221/39 102/816/39 104/222/39
f 103/224/38 104/817/38 106/225/38
f 106/195/37 108/283/37 107/227/37
f 108/192/36 110/818/36 109/229/36
f 110/230/35 112/819/35 111/231/35
f 104/820/44 102/821/44 100/822/44
f 100/822/44 114/823/44 104/820/44
f 114/823/44 112/234/44 106/233/44
f 104/820/44 114/823/44 106/233/44
f 112/234/44 110/824/44 108/232/44
f 112/235/43 114/302/43 113/236/43
f 113/238/42 114/287/42 100/239/42
f 115/218/68 116/829/68 118/244/68
f 117/246/67 118/254/67 120/247/67
f 119/197/66 120/830/66 122/249/66
f 122/251/65 124/831/65 123/252/65
f 124/254/64 126/202/64 125/255/64
f 126/230/63 128/205/63 127/206/63
f 120/832/59 118/833/59 116/834/59
f 116/834/59 130/823/59 120/832/59
f 130/823/59 128/258/59 122/257/59
f 120/832/59 130/823/59 122/257/59
f 128/258/59 126/835/59 124/256/59
f 128/259/70 130/836/70 129/260/70
f 129/261/69 130/287/69 116/262/69
f 132/264/58 134/837/58 133/265/58
f 134/192/57 136/202/57 135/255/57
f 136/268/56 138/199/56 137/269/56
f 137/228/55 138/195/55 140/271/55
f 139/272/163 140/838/163 142/273/163
f 141/274/53 142/839/53 144/275/53
f 143/210/61 144/840/61 146/277/61
f 146/213/60 132/277/60 131/278/60
f 145/216/59 131/841/59 135/824/59
f 131/841/59 133/842/59 135/824/59
f 135/824/59 137/217/59 145/216/59
f 137/217/59 139/843/59 143/215/59
f 139/843/59 141/844/59 143/215/59
f 148/280/86 150/845/86 149/190/86
f 150/192/85 152/202/85 151/203/85
f 152/195/84 154/802/84 153/196/84
f 153/282/83 154/846/83 156/283/83
f 155/194/164 156/192/164 158/202/164
f 157/274/81 158/847/81 160/275/81
f 159/285/88 160/848/88 162/262/88
f 162/287/87 148/262/87 147/212/87
f 161/216/80 147/841/80 153/290/80
f 147/841/80 149/849/80 151/824/80
f 153/290/80 147/841/80 151/824/80
f 153/290/80 155/813/80 159/289/80
f 155/813/80 157/850/80 159/289/80
f 163/291/76 164/851/76 166/292/76
f 165/294/75 166/254/75 168/247/75
f 167/228/74 168/195/74 170/283/74
f 170/195/73 172/831/73 171/252/73
f 172/192/72 174/202/72 173/203/72
f 174/297/71 176/852/71 175/298/71
f 168/832/80 166/853/80 164/854/80
f 164/854/80 178/823/80 168/832/80
f 178/823/80 176/234/80 170/300/80
f 168/832/80 178/823/80 170/300/80
f 176/234/80 174/835/80 172/256/80
f 176/287/79 178/239/79 177/301/79
f 177/237/78 178/235/78 164/302/78
f 179/291/104 180/851/104 182/292/104
f 181/194/103 182/317/103 184/304/103
f 183/305/165 184/195/165 186/271/165
f 186/251/166 188/831/166 187/284/166
f 188/307/100 190/273/100 189/308/100
f 190/230/99 192/218/99 191/310/99
f 184/855/95 182/821/95 180/854/95
f 180/854/95 194/856/95 184/855/95
f 194/856/95 192/313/95 186/312/95
f 184/855/95 194/856/95 186/312/95
f 192/313/95 190/835/95 188/290/95
f 192/259/106 194/262/106 193/263/106
f 193/237/167 194/235/167 180/302/167
f 196/314/94 198/292/94 197/315/94
f 198/317/93 200/222/93 199/318/93
f 200/319/92 202/857/92 201/320/92
f 201/228/91 202/195/91 204/271/91
f 203/201/168 204/307/168 206/322/168
f 205/311/169 206/230/169 208/218/169
f 207/210/97 208/213/97 210/277/97
f 210/259/96 196/277/96 195/212/96
f 209/216/95 195/841/95 201/217/95
f 195/841/95 197/842/95 199/824/95
f 201/217/95 195/841/95 199/824/95
f 201/217/95 203/843/95 207/215/95
f 203/843/95 205/844/95 207/215/95
f 212/324/107 214/858/107 213/325/107
f 214/327/108 216/859/108 215/328/108
f 215/330/109 216/459/109 218/331/109
f 217/333/110 218/860/110 220/334/110
f 219/336/111 220/861/111 222/337/111
f 222/339/112 224/862/112 223/340/112
f 223/345/114 224/868/114 226/346/114
f 226/348/115 212/869/115 211/349/115
f 225/352/116 211/870/116 217/353/116
f 211/870/116 213/871/116 215/872/116
f 217/353/116 211/870/116 215/872/116
f 217/353/116 219/373/116 223/351/116
f 219/373/116 221/873/116 223/351/116
f 228/354/117 230/874/117 229/355/117
f 230/357/118 232/875/118 231/358/118
f 232/360/119 234/876/119 233/361/119
f 234/363/120 236/877/120 235/364/120
f 236/366/121 238/878/121 237/367/121
f 237/369/122 238/879/122 240/370/122
f 232/873/123 230/497/123 228/880/123
f 228/880/123 242/881/123 232/873/123
f 242/881/123 240/374/123 234/373/123
f 232/873/123 242/881/123 234/373/123
f 240/374/123 238/882/123 236/372/123
f 240/375/124 242/346/124 241/376/124
f 242/378/125 228/883/125 227/379/125
f 243/383/127 244/888/127 246/384/127
f 246/386/128 248/889/128 247/387/128
f 248/389/129 250/890/129 249/390/129
f 249/392/130 250/891/130 252/393/130
f 252/395/131 254/892/131 253/396/131
f 253/398/132 254/893/132 256/399/132
f 248/873/133 246/497/133 244/880/133
f 244/880/133 258/881/133 248/873/133
f 258/881/133 256/374/133 250/373/133
f 248/873/133 258/881/133 250/373/133
f 256/374/133 254/882/133 252/372/133
f 255/401/134 256/894/134 258/402/134
f 258/404/135 244/895/135 243/405/135
f 259/407/112 260/896/112 262/408/112
f 262/410/111 264/897/111 263/411/111
f 263/413/110 264/898/110 266/414/110
f 266/416/109 268/899/109 267/417/109
f 267/419/108 268/900/108 270/420/108
f 269/422/107 270/901/107 272/423/107
f 271/425/115 272/868/115 274/426/115
f 273/428/114 274/902/114 260/429/114
f 273/432/113 259/903/113 263/904/113
f 259/903/113 261/905/113 263/904/113
f 263/904/113 265/433/113 273/432/113
f 265/433/113 267/906/113 271/431/113
f 267/906/113 269/907/113 271/431/113
f 276/434/137 278/908/137 277/435/137
f 278/437/138 280/909/138 279/438/138
f 279/440/139 280/910/139 282/441/139
f 282/443/140 284/331/140 283/332/140
f 284/445/141 286/911/141 285/446/141
f 285/398/142 286/893/142 288/370/142
f 287/377/144 288/375/144 290/346/144
f 289/448/145 290/496/145 276/449/145
f 289/452/146 275/881/146 279/912/146
f 275/881/146 277/374/146 279/912/146
f 279/912/146 281/372/146 289/452/146
f 281/372/146 283/913/146 287/451/146
f 283/913/146 285/907/146 287/451/146
f 292/453/122 294/914/122 293/454/122
f 294/456/121 296/915/121 295/457/121
f 296/459/120 298/916/120 297/460/120
f 298/461/119 300/917/119 299/462/119
f 300/464/118 302/918/118 301/465/118
f 302/467/117 304/919/117 303/468/117
f 296/920/126 294/921/126 292/922/126
f 292/922/126 306/903/126 296/920/126
f 306/903/126 304/472/126 298/471/126
f 296/920/126 306/903/126 298/471/126
f 304/472/126 302/923/126 300/470/126
f 303/473/125 304/375/125 306/346/125
f 306/474/124 292/924/124 291/475/124
f 308/478/142 310/925/142 309/479/142
f 310/481/141 312/926/141 311/482/141
f 311/484/140 312/927/140 314/485/140
f 313/487/139 314/928/139 316/488/139
f 315/490/138 316/929/138 318/491/138
f 318/493/137 320/930/137 319/494/137
f 320/375/145 322/346/145 321/376/145
f 322/496/144 308/449/144 307/450/144
f 321/452/143 307/931/143 313/498/143
f 307/931/143 309/871/143 311/872/143
f 313/498/143 307/931/143 311/872/143
f 313/498/143 315/913/143 319/497/143
f 315/913/143 317/907/143 319/497/143
f 324/499/132 326/932/132 325/500/132
f 326/501/131 328/933/131 327/502/131
f 327/504/130 328/934/130 330/505/130
f 329/507/129 330/935/129 332/508/129
f 332/510/128 334/936/128 333/511/128
f 333/513/127 334/937/127 336/514/127
f 328/938/136 326/431/136 324/939/136
f 324/939/136 338/881/136 328/938/136
f 338/881/136 336/374/136 330/517/136
f 328/938/136 338/881/136 330/517/136
f 336/374/136 334/923/136 332/516/136
f 336/375/135 338/346/135 337/347/135
f 338/519/134 324/940/134 323/520/134
f 340/522/24 342/941/24 341/523/24
f 342/525/1 344/942/1 343/526/1
f 344/528/16 346/943/16 345/529/16
f 346/531/3 348/944/3 347/532/3
f 348/534/22 350/945/22 349/535/22
f 350/537/2 352/946/2 351/538/2
f 344/540/7 357/947/7 358/541/7
f 352/543/18 354/948/18 353/544/18
f 354/546/4 340/949/4 339/547/4
f 353/549/8 339/950/8 341/550/8
f 341/550/8 343/951/8 345/551/8
f 345/551/8 347/952/8 349/646/8
f 349/646/8 351/953/8 345/551/8
f 351/953/8 353/549/8 345/551/8
f 352/555/7 350/955/7 360/556/7
f 346/558/7 358/956/7 359/559/7
f 354/561/7 352/957/7 361/562/7
f 342/564/7 355/958/7 357/565/7
f 348/567/7 359/959/7 360/568/7
f 340/570/7 354/960/7 362/571/7
f 340/573/7 356/961/7 355/574/7
f 377/600/7 385/970/7 386/601/7
f 375/625/7 383/977/7 384/626/7
f 374/628/7 373/978/7 381/629/7
f 372/631/7 380/979/7 379/632/7
f 378/634/7 386/980/7 380/635/7
f 376/637/7 384/981/7 385/638/7
f 374/640/7 382/982/7 383/641/7
f 371/643/7 379/983/7 381/644/7
f 389/646/7 387/953/7 393/550/7
f 387/953/7 388/549/7 393/550/7
f 388/549/7 394/950/7 393/550/7
f 393/550/7 392/951/7 391/551/7
f 391/551/7 390/952/7 389/646/7
f 1/668/8 395/991/8 397/669/8
f 397/671/12 398/992/12 39/672/12
f 3/674/12 396/993/12 395/675/12
f 401/677/13 402/994/13 45/678/13
f 23/680/13 400/995/13 399/681/13
f 399/683/8 401/996/8 33/684/8
f 405/127/14 406/786/14 42/128/14
f 7/686/8 403/997/8 405/687/8
f 6/689/14 404/998/14 403/690/14
f 407/692/8 409/999/8 35/693/8
f 409/695/9 410/1000/9 47/696/9
f 15/698/9 408/1001/9 407/699/9
f 413/695/10 414/1000/10 40/696/10
f 4/701/8 411/1002/8 413/702/8
f 2/704/10 412/1003/10 411/705/10
f 417/707/5 418/1004/5 43/708/5
f 415/710/8 417/1005/8 31/711/8
f 11/713/5 416/1006/5 415/714/5
f 421/124/6 422/785/6 41/125/6
f 5/716/8 419/1007/8 421/717/8
f 8/719/6 420/1008/6 419/720/6
f 425/722/11 426/1009/11 49/723/11
f 423/725/8 425/1010/8 37/726/8
f 19/728/11 424/1011/11 423/729/11
usemtl volute
f 92/207/41 90/208/41 96/209/41
f 113/241/41 107/242/41 111/243/41
f 129/241/62 123/242/62 127/243/62
f 140/207/62 138/208/62 144/209/62
f 156/207/77 154/208/77 160/209/77
f 175/243/77 177/241/77 169/303/77
f 191/243/98 193/241/98 185/303/98
f 204/207/98 202/208/98 208/209/98
f 220/342/113 218/343/113 224/344/113
f 239/380/126 241/381/126 233/382/126
f 255/380/136 257/381/136 249/382/136
f 268/342/116 266/343/116 272/344/116
f 284/342/143 282/343/143 288/344/143
f 305/381/123 299/477/123 303/380/123
f 316/342/146 314/343/146 320/344/146
f 337/381/133 331/477/133 335/380/133
f 88/804/41 86/805/41 84/806/41
f 84/806/41 98/807/41 88/804/41
f 98/807/41 96/209/41 90/208/41
f 88/804/41 98/807/41 90/208/41
f 96/209/41 94/808/41 92/207/41
f 113/241/41 99/825/41 103/826/41
f 99/825/41 101/827/41 103/826/41
f 103/826/41 105/303/41 113/241/41
f 105/303/41 107/242/41 113/241/41
f 107/242/41 109/828/41 111/243/41
f 129/241/62 115/825/62 119/826/62
f 115/825/62 117/827/62 119/826/62
f 119/826/62 121/303/62 129/241/62
f 121/303/62 123/242/62 129/241/62
f 123/242/62 125/828/62 127/243/62
f 136/804/62 134/805/62 132/806/62
f 132/806/62 146/807/62 136/804/62
f 146/807/62 144/209/62 138/208/62
f 136/804/62 146/807/62 138/208/62
f 144/209/62 142/808/62 140/207/62
f 152/804/77 150/805/77 148/806/77
f 148/806/77 162/807/77 152/804/77
f 162/807/77 160/209/77 154/208/77
f 152/804/77 162/807/77 154/208/77
f 160/209/77 158/808/77 156/207/77
f 177/241/77 163/825/77 167/826/77
f 163/825/77 165/827/77 167/826/77
f 167/826/77 169/303/77 177/241/77
f 169/303/77 171/242/77 175/243/77
f 171/242/77 173/828/77 175/243/77
f 193/241/98 179/825/98 185/303/98
f 179/825/98 181/827/98 183/826/98
f 185/303/98 179/825/98 183/826/98
f 185/303/98 187/242/98 191/243/98
f 187/242/98 189/828/98 191/243/98
f 200/804/98 198/805/98 196/806/98
f 196/806/98 210/807/98 200/804/98
f 210/807/98 208/209/98 202/208/98
f 200/804/98 210/807/98 202/208/98
f 208/209/98 206/808/98 204/207/98
f 216/863/113 214/864/113 212/865/113
f 212/865/113 226/866/113 216/863/113
f 226/866/113 224/344/113 218/343/113
f 216/863/113 226/866/113 218/343/113
f 224/344/113 222/867/113 220/342/113
f 241/381/126 227/884/126 231/885/126
f 227/884/126 229/886/126 231/885/126
f 231/885/126 233/382/126 241/381/126
f 233/382/126 235/477/126 239/380/126
f 235/477/126 237/887/126 239/380/126
f 257/381/136 243/884/136 247/885/136
f 243/884/136 245/886/136 247/885/136
f 247/885/136 249/382/136 257/381/136
f 249/382/136 251/477/136 255/380/136
f 251/477/136 253/887/136 255/380/136
f 264/863/116 262/864/116 260/865/116
f 260/865/116 274/866/116 264/863/116
f 274/866/116 272/344/116 266/343/116
f 264/863/116 274/866/116 266/343/116
f 272/344/116 270/867/116 268/342/116
f 280/863/143 278/864/143 276/865/143
f 276/865/143 290/866/143 280/863/143
f 290/866/143 288/344/143 282/343/143
f 280/863/143 290/866/143 282/343/143
f 288/344/143 286/867/143 284/342/143
f 305/381/123 291/884/123 295/885/123
f 291/884/123 293/886/123 295/885/123
f 295/885/123 297/382/123 305/381/123
f 297/382/123 299/477/123 305/381/123
f 299/477/123 301/887/123 303/380/123
f 312/863/146 310/864/146 308/865/146
f 308/865/146 322/866/146 312/863/146
f 322/866/146 320/344/146 314/343/146
f 312/863/146 322/866/146 314/343/146
f 320/344/146 318/867/146 316/342/146
f 337/381/133 323/884/133 327/885/133
f 323/884/133 325/886/133 327/885/133
f 327/885/133 329/382/133 337/381/133
f 329/382/133 331/477/133 337/381/133
f 331/477/133 333/887/133 335/380/133
usemtl corinthian
f 357/552/1 363/553/1 365/554/1
f 364/576/147 378/577/147 372/578/147
f 361/579/18 370/580/18 362/581/18
f 359/582/22 368/583/22 360/584/22
f 357/585/16 366/586/16 358/587/16
f 356/588/24 363/589/24 355/590/24
f 362/591/4 364/592/4 356/593/4
f 360/594/2 369/595/2 361/596/2
f 358/597/3 367/598/3 359/599/3
f 368/603/148 377/604/148 369/605/148
f 366/606/149 375/607/149 367/608/149
f 363/609/150 373/610/150 365/611/150
f 369/612/151 378/613/151 370/614/151
f 368/614/152 375/615/152 376/613/152
f 365/616/153 374/617/153 366/618/153
f 364/619/154 371/620/154 363/621/154
f 386/622/155 388/623/155 380/624/155
f 384/647/156 393/648/156 385/649/156
f 383/650/157 390/651/157 391/652/157
f 381/653/158 387/654/158 389/655/158
f 385/656/159 394/657/159 386/658/159
f 383/659/160 392/660/160 384/661/160
f 382/662/161 389/663/161 390/664/161
f 380/665/162 387/666/162 379/667/162
f 357/552/1 355/954/1 363/553/1
f 364/576/147 370/962/147 378/577/147
f 361/579/18 369/963/18 370/580/18
f 359/582/22 367/964/22 368/583/22
f 357/585/16 365/965/16 366/586/16
f 356/588/24 364/966/24 363/589/24
f 362/591/4 370/967/4 364/592/4
f 360/594/2 368/968/2 369/595/2
f 358/597/3 366/969/3 367/598/3
f 368/603/148 376/971/148 377/604/148
f 366/606/149 374/972/149 375/607/149
f 363/609/150 371/973/150 373/610/150
f 369/612/151 377/615/151 378/613/151
f 368/614/152 367/612/152 375/615/152
f 365/616/153 373/974/153 374/617/153
f 364/619/154 372/975/154 371/620/154
f 386/622/155 394/976/155 388/623/155
f 384/647/156 392/984/156 393/648/156
f 383/650/157 382/985/157 390/651/157
f 381/653/158 379/986/158 387/654/158
f 385/656/159 393/987/159 394/657/159
f 383/659/160 391/988/160 392/660/160
f 382/662/161 381/989/161 389/663/161
f 380/665/162 388/990/162 387/666/162
