# Blender 5.1.2
# www.blender.org
mtllib large_roman_doric_capital.mtl
o Cube.295
v 0.118972 -0.340346 -0.419884
v 0.118972 -0.146234 -0.419884
v 0.881028 -0.340346 -0.419884
v 0.881028 -0.146234 -0.419884
v 1.419884 -0.340346 0.118971
v 1.419884 -0.146234 0.118971
v 1.419884 -0.340346 0.881028
v 1.419884 -0.146234 0.881028
v 0.881028 -0.340346 1.419884
v 0.881028 -0.146234 1.419884
v 0.118972 -0.340346 1.419884
v 0.118972 -0.146234 1.419884
v -0.419884 -0.340346 0.881028
v -0.419884 -0.146234 0.881028
v -0.419884 -0.340346 0.118971
v -0.419884 -0.146234 0.118971
v 0.811506 -0.146234 -0.252044
v 0.188493 -0.146234 -0.252044
v 1.252043 -0.146234 0.188493
v 1.252043 -0.146234 0.811506
v 0.811506 -0.146234 1.252043
v 0.188493 -0.146234 1.252043
v -0.252043 -0.146234 0.811506
v -0.252043 -0.146234 0.188493
v 0.811506 0.065814 -0.252044
v 0.188493 0.065814 -0.252044
v 1.252043 0.065814 0.188493
v 1.252043 0.065814 0.811506
v 0.811506 0.065814 1.252043
v 0.188493 0.065814 1.252043
v -0.252043 0.065814 0.811506
v -0.252043 0.065814 0.188493
v 0.834734 0.065814 -0.308121
v 0.165265 0.065814 -0.308121
v 1.308121 0.065814 0.165265
v 1.308121 0.065814 0.834734
v 0.834734 0.065814 1.308120
v 0.165265 0.065814 1.308120
v -0.308121 0.065814 0.834734
v -0.308121 0.065814 0.165265
v 0.834734 0.251357 -0.308121
v 0.165265 0.251357 -0.308121
v 1.308121 0.251357 0.165265
v 1.308121 0.251357 0.834734
v 0.834734 0.251357 1.308120
v 0.165265 0.251357 1.308120
v -0.308121 0.251357 0.834734
v -0.308121 0.251357 0.165265
v 0.910867 0.516418 -0.491922
v 0.089132 0.516418 -0.491922
v 1.491922 0.516418 0.089132
v 1.491922 0.516418 0.910867
v 0.910867 0.516418 1.491922
v 0.089132 0.516418 1.491922
v -0.491922 0.516418 0.910867
v -0.491922 0.516418 0.089133
v 0.910867 0.675454 -0.491922
v 0.089132 0.675454 -0.491922
v 1.491922 0.675454 0.089132
v 1.491922 0.675454 0.910867
v 0.910867 0.675454 1.491922
v 0.089132 0.675454 1.491922
v -0.491922 0.675454 0.910867
v -0.491922 0.675454 0.089133
v 1.672205 0.860997 -0.672205
v -0.672205 0.860997 -0.672205
v 1.672205 0.860997 1.672205
v -0.672205 0.860997 1.672205
v 1.672205 1.001659 -0.672205
v -0.672205 1.001659 -0.672205
v 1.672205 1.001659 1.672205
v -0.672205 1.001659 1.672205
v 1.491922 0.675450 -0.491922
v -0.491922 0.675450 -0.491922
v 1.491922 0.675450 1.491922
v -0.491922 0.675450 1.491922
v 1.672205 0.860997 0.500000
v -0.672205 0.860997 0.500000
v 1.672205 1.001659 0.500000
v -0.672205 1.001659 0.500000
v 1.491922 0.675450 0.500000
v -0.491922 0.675450 0.500000
v 0.500000 0.860997 -0.672205
v 0.500000 0.860997 1.672205
v 0.500000 1.001659 -0.672205
v 0.500000 1.001659 1.672205
v 0.500000 0.675450 -0.491922
v 0.500000 0.675450 1.491922
v 0.500000 0.675450 0.500000
v 0.500000 1.001659 0.500000
v 0.500000 -0.340346 -0.419884
v 0.500000 -0.146234 -0.419884
v 0.500000 -0.146234 -0.252044
v 0.500000 0.065814 -0.252044
v 0.500000 0.065814 -0.308121
v 0.500000 0.251357 -0.308121
v 0.500000 0.516418 -0.491922
v 0.500000 0.675454 -0.491922
v 1.419884 -0.340346 0.500000
v 1.419884 -0.146234 0.500000
v 1.252043 -0.146234 0.499999
v 1.252043 0.065814 0.499999
v 1.308121 0.065814 0.500000
v 1.308121 0.251357 0.500000
v 1.491922 0.516418 0.500000
v 1.491922 0.675454 0.500000
v 0.500000 -0.340346 1.419884
v 0.500000 -0.146234 1.419884
v 0.500000 -0.146234 1.252043
v 0.500000 0.065814 1.252043
v 0.500000 0.065814 1.308120
v 0.500000 0.251357 1.308120
v 0.500000 0.516418 1.491922
v 0.500000 0.675454 1.491922
v -0.419884 -0.340346 0.500000
v -0.419884 -0.146234 0.500000
v -0.252043 -0.146234 0.500000
v -0.252043 0.065814 0.500000
v -0.308121 0.065814 0.500000
v -0.308121 0.251357 0.500000
v -0.491922 0.516418 0.500000
v -0.491922 0.675454 0.500000
v 0.500000 -0.340346 0.500000
v 1.150456 -0.340346 1.150456
v 1.150456 -0.146234 1.150456
v 1.031775 -0.146234 1.031774
v 1.031775 0.065814 1.031774
v 1.071428 0.065814 1.071427
v 1.071428 0.251357 1.071427
v 1.201394 0.516418 1.201395
v 1.201394 0.675454 1.201395
v 1.150456 -0.340346 -0.150456
v 1.150456 -0.146234 -0.150456
v 1.031775 -0.146234 -0.031775
v 1.031775 0.065814 -0.031775
v 1.071428 0.065814 -0.071428
v 1.071428 0.251357 -0.071428
v 1.201394 0.516418 -0.201395
v 1.201394 0.675454 -0.201395
v -0.150456 -0.340346 -0.150456
v -0.150456 -0.146234 -0.150456
v -0.031775 -0.146234 -0.031775
v -0.031775 0.065814 -0.031775
v -0.071428 0.065814 -0.071428
v -0.071428 0.251357 -0.071428
v -0.201395 0.516418 -0.201395
v -0.201395 0.675454 -0.201395
v -0.150456 -0.340346 1.150456
v -0.150456 -0.146234 1.150456
v -0.031775 -0.146234 1.031774
v -0.031775 0.065814 1.031774
v -0.071428 0.065814 1.071427
v -0.071428 0.251357 1.071427
v -0.201395 0.516418 1.201395
v -0.201395 0.675454 1.201395
vn -0.0000 -0.0000 -1.0000
vn 0.7071 -0.0000 -0.7071
vn 1.0000 -0.0000 -0.0000
vn 0.7071 -0.0000 0.7071
vn -0.0000 -0.0000 1.0000
vn -0.7071 -0.0000 0.7071
vn -0.0000 1.0000 -0.0000
vn -1.0000 -0.0000 -0.0000
vn -0.7071 -0.0000 -0.7071
vn -0.0000 -1.0000 -0.0000
vn 0.5811 -0.5698 0.5811
vn 0.5811 -0.5698 -0.5811
vn -0.8218 -0.5698 -0.0000
vn -0.0000 -0.5698 0.8218
vn 0.8218 -0.5698 -0.0000
vn -0.0000 -0.5698 -0.8218
vn -0.5811 -0.5698 -0.5811
vn -0.5811 -0.5698 0.5811
vn -0.7172 -0.6969 -0.0000
vn -0.0000 -0.6969 -0.7172
vn -0.0000 -0.6969 0.7172
vn 0.7172 -0.6969 -0.0000
vt 0.457826 0.812193
vt 0.119470 0.643016
vt 0.457826 0.643016
vt 0.395325 0.688025
vt 0.056970 0.518848
vt 0.395325 0.518848
vt 0.374631 0.272052
vt 0.036276 0.102874
vt 0.374631 0.102874
vt 0.582410 0.438441
vt 0.244054 0.269264
vt 0.582410 0.269264
vt 0.581994 0.958304
vt 0.243638 0.789126
vt 0.581994 0.789126
vt 0.644493 0.209968
vt 0.306138 0.040790
vt 0.644493 0.040790
vt 0.578060 0.375420
vt 0.431248 0.651039
vt 0.431248 0.375420
vt 0.478936 0.438857
vt 0.140581 0.269680
vt 0.478936 0.269680
vt 0.602688 0.688025
vt 0.264333 0.518848
vt 0.602688 0.518848
vt 0.011486 0.820770
vt 0.011486 0.485554
vt 0.248520 0.248520
vt 0.490901 0.059567
vt 0.677448 0.333611
vt 0.490901 0.333611
vt 0.702228 0.541393
vt 0.555416 0.817012
vt 0.555416 0.541393
vt 0.994033 0.354725
vt 0.847221 0.630345
vt 0.847221 0.354725
vt 0.619033 0.603477
vt 0.472221 0.879096
vt 0.472221 0.603477
vt 0.203892 0.583199
vt 0.057080 0.858817
vt 0.057080 0.583199
vt 0.328476 0.354725
vt 0.181664 0.630344
vt 0.181664 0.354725
vt 0.806533 0.603477
vt 0.659721 0.879096
vt 0.659721 0.603477
vt 0.661254 0.396115
vt 0.514442 0.671734
vt 0.514442 0.396115
vt 0.286980 0.608070
vt 0.237646 0.334027
vt 0.286980 0.334027
vt 0.573680 0.080677
vt 0.760227 0.354721
vt 0.573680 0.354721
vt 0.781874 0.391930
vt 0.968421 0.665973
vt 0.781874 0.665973
vt 0.470206 0.184983
vt 0.656753 0.459027
vt 0.470206 0.459027
vt 0.158122 0.018177
vt 0.344669 0.292221
vt 0.158122 0.292221
vt 0.407706 0.391930
vt 0.594253 0.665973
vt 0.407706 0.665973
vt 0.241317 0.018177
vt 0.427864 0.292221
vt 0.241317 0.292221
vt 0.033538 0.225956
vt 0.220085 0.500000
vt 0.033538 0.500000
vt 0.365527 0.102048
vt 0.528756 0.396527
vt 0.365527 0.396527
vt 0.474896 0.628765
vt 0.425562 0.354721
vt 0.474896 0.354721
vt 0.162812 0.940433
vt 0.113478 0.666389
vt 0.162812 0.666389
vt 0.661980 0.608070
vt 0.612646 0.334027
vt 0.661980 0.334027
vt 0.142117 0.690849
vt 0.092784 0.416805
vt 0.142117 0.416805
vt 0.370175 0.815017
vt 0.320841 0.540973
vt 0.370175 0.540973
vt 0.516285 0.919322
vt 0.466952 0.645279
vt 0.516285 0.645279
vt 0.183923 0.919322
vt 0.134589 0.645279
vt 0.183923 0.645279
vt 0.297707 0.102048
vt 0.581468 0.396527
vt 0.297707 0.396526
vt 0.801363 0.039548
vt 0.964592 0.334027
vt 0.801363 0.334027
vt 0.488863 0.350800
vt 0.652092 0.645279
vt 0.488863 0.645279
vt 0.531084 0.205521
vt 0.694313 0.500000
vt 0.531084 0.500000
vt 0.386222 0.246495
vt 0.549450 0.540973
vt 0.386222 0.540973
vt 0.759558 0.205522
vt 0.922786 0.500000
vt 0.759557 0.500000
vt 0.053027 0.018437
vt 0.216256 0.312916
vt 0.053027 0.312916
vt 0.302611 0.039548
vt 0.465840 0.334027
vt 0.302611 0.334027
vt 0.080360 0.221323
vt 0.220271 0.582779
vt 0.080360 0.582779
vt 0.567154 0.102048
vt 0.850915 0.396527
vt 0.567154 0.396526
vt 0.317986 0.102048
vt 0.601747 0.396527
vt 0.317986 0.396526
vt 0.235207 0.309410
vt 0.518968 0.603889
vt 0.235207 0.603889
vt 0.587848 0.308995
vt 0.871610 0.603473
vt 0.587848 0.603473
vt 0.484375 0.205521
vt 0.768136 0.500000
vt 0.484375 0.500000
vt 0.027012 0.205521
vt 0.310774 0.500000
vt 0.027012 0.500000
vt 0.234791 0.288300
vt 0.518552 0.582779
vt 0.234791 0.582779
vt 0.080360 0.221739
vt 0.220271 0.583195
vt 0.080360 0.583195
vt 0.205360 0.221323
vt 0.345271 0.582779
vt 0.205360 0.582779
vt 0.017860 0.055766
vt 0.157771 0.417221
vt 0.017860 0.417221
vt 0.786891 0.138545
vt 0.926801 0.500000
vt 0.786891 0.500000
vt 0.849391 0.263129
vt 0.989301 0.624584
vt 0.849391 0.624584
vt 0.536891 0.055766
vt 0.676801 0.417221
vt 0.536891 0.417221
vt 0.225639 0.138545
vt 0.365549 0.500000
vt 0.225639 0.500000
vt 0.415519 0.750000
vt 0.498019 0.062490
vt 0.498019 0.750000
vt 0.332324 0.750000
vt 0.414824 0.062491
vt 0.414824 0.750000
vt 0.934687 0.250000
vt 0.852187 0.937510
vt 0.852187 0.250000
vt 0.331630 0.250000
vt 0.249130 0.937509
vt 0.249130 0.250000
vt 0.000000 1.000000
vt 1.000000 0.000000
vt 1.000000 1.000000
vt 0.580812 0.750000
vt 0.732546 0.168228
vt 0.732546 0.750000
vt 0.144560 0.750000
vt 0.296294 0.168228
vt 0.296294 0.750000
vt 0.164838 0.750000
vt 0.316573 0.168228
vt 0.316573 0.750000
vt 0.684285 0.750000
vt 0.836019 0.168228
vt 0.836019 0.750000
vt 0.977201 0.104570
vt 0.104570 0.977201
vt 0.104570 0.104571
vt 0.895429 0.104571
vt 0.022798 0.977202
vt 0.022798 0.104571
vt 0.684285 0.250000
vt 0.836020 0.831772
vt 0.684285 0.937509
vt 0.580812 0.250000
vt 0.732546 0.831772
vt 0.580812 0.937510
vt 0.000000 0.000000
vt 0.331629 0.062490
vt 0.249130 0.750000
vt 0.249130 0.062490
vt 0.332324 0.937510
vt 0.414824 0.250000
vt 0.414824 0.937510
vt 0.895429 0.022798
vt 0.022798 0.895429
vt 0.022798 0.022798
vt 0.977201 0.022798
vt 0.104571 0.895429
vt 0.104570 0.022798
vt 0.164838 0.250000
vt 0.316573 0.831772
vt 0.164838 0.937510
vt 0.144560 0.250000
vt 0.296294 0.831772
vt 0.144560 0.937510
vt 0.934687 0.062490
vt 0.852187 0.750000
vt 0.852187 0.062490
vt 0.415519 0.937510
vt 0.498019 0.250000
vt 0.498019 0.937510
vt 0.365549 0.861455
vt 0.225639 0.861455
vt 0.484375 0.794479
vt 0.768136 0.861456
vt 0.694313 0.794479
vt 0.531084 0.794479
vt 0.474896 0.080678
vt 0.425562 0.060244
vt 0.220085 0.774044
vt 0.033538 0.774044
vt 0.057080 0.307580
vt 0.203892 0.246068
vt 0.796181 0.812193
vt 0.796181 0.643016
vt 0.676801 0.778677
vt 0.536891 0.778677
vt 0.587848 0.897952
vt 0.871610 0.964929
vt 0.652092 0.939757
vt 0.488863 0.939757
vt 0.427864 0.566265
vt 0.241317 0.566265
vt 0.286980 0.059983
vt 0.237646 0.039549
vt 0.181664 0.079106
vt 0.328476 0.017594
vt 0.712986 0.272052
vt 0.712986 0.102874
vt 0.989301 0.986039
vt 0.849391 0.986039
vt 0.235207 0.898368
vt 0.518968 0.965345
vt 0.964592 0.628505
vt 0.801363 0.628505
vt 0.183923 0.371235
vt 0.134589 0.350800
vt 0.594253 0.940017
vt 0.407706 0.940017
vt 0.847221 0.079106
vt 0.994033 0.017594
vt 0.920349 0.958304
vt 0.920349 0.789126
vt 0.926801 0.861455
vt 0.786891 0.861455
vt 0.317986 0.691005
vt 0.601747 0.757982
vt 0.516285 0.371235
vt 0.466952 0.350801
vt 0.528756 0.691005
vt 0.365527 0.691005
vt 0.344669 0.566265
vt 0.158122 0.566265
vt 0.817291 0.438857
vt 0.817291 0.269680
vt 0.431248 0.099801
vt 0.578060 0.038289
vt 0.256182 0.750019
vt 0.019148 0.512985
vt 0.828432 0.177769
vt 0.179230 0.179230
vt 0.988514 0.514447
vt 0.751480 0.751480
vt 0.751480 0.248520
vt 0.988514 0.485554
vt 0.179230 0.820770
vt 0.345271 0.944234
vt 0.205360 0.944234
vt 0.216256 0.607395
vt 0.053027 0.607395
vt 0.297707 0.691005
vt 0.581468 0.757982
vt 0.142117 0.142762
vt 0.092784 0.122327
vt 0.968421 0.940017
vt 0.781874 0.940017
vt 0.514442 0.120495
vt 0.661254 0.058983
vt 0.920765 0.438441
vt 0.920765 0.269264
vt 0.157771 0.778677
vt 0.017860 0.778677
vt 0.567154 0.691005
vt 0.850915 0.757982
vt 0.465840 0.628505
vt 0.302611 0.628505
vt 0.370175 0.266930
vt 0.320841 0.246496
vt 0.656753 0.733071
vt 0.470206 0.733071
vt 0.555416 0.265775
vt 0.702228 0.204262
vt 0.733681 0.688025
vt 0.733681 0.518848
vt 0.027012 0.794479
vt 0.310774 0.861456
vt 0.220271 0.944234
vt 0.080360 0.944234
vt 0.549450 0.835452
vt 0.386222 0.835452
vt 0.162812 0.392346
vt 0.113478 0.371912
vt 0.472221 0.327859
vt 0.619033 0.266346
vt 0.677448 0.607655
vt 0.490901 0.607655
vt 0.941043 0.688025
vt 0.941043 0.518848
vt 0.220271 0.944650
vt 0.080360 0.944650
vt 0.234791 0.877257
vt 0.518552 0.944234
vt 0.922786 0.794479
vt 0.759558 0.794479
vt 0.661980 0.059983
vt 0.612646 0.039548
vt 0.760227 0.628765
vt 0.573680 0.628765
vt 0.659721 0.327858
vt 0.806533 0.266346
vt 0.982849 0.209968
vt 0.982849 0.040790
vt 0.119470 0.812193
vt 0.056970 0.688025
vt 0.036276 0.272052
vt 0.244054 0.438441
vt 0.243638 0.958304
vt 0.306138 0.209968
vt 0.578060 0.712551
vt 0.140581 0.438857
vt 0.264333 0.688025
vt 0.485553 0.011486
vt 0.820770 0.011486
vt 0.820770 0.820770
vt 0.677448 0.059567
vt 0.702228 0.878524
vt 0.994033 0.691857
vt 0.619033 0.940608
vt 0.203892 0.920330
vt 0.328476 0.691857
vt 0.806533 0.940609
vt 0.661254 0.733246
vt 0.237646 0.628505
vt 0.760227 0.080677
vt 0.968421 0.391930
vt 0.656753 0.184983
vt 0.344669 0.018177
vt 0.594253 0.391930
vt 0.427864 0.018177
vt 0.220085 0.225956
vt 0.528756 0.102048
vt 0.425562 0.649199
vt 0.113478 0.960867
vt 0.612646 0.628505
vt 0.092784 0.711283
vt 0.320841 0.835451
vt 0.466952 0.939757
vt 0.134589 0.939757
vt 0.581468 0.035071
vt 0.964592 0.039548
vt 0.652092 0.350800
vt 0.694313 0.205521
vt 0.549450 0.246495
vt 0.922786 0.205522
vt 0.216256 0.018437
vt 0.465840 0.039548
vt 0.220271 0.221323
vt 0.850915 0.035071
vt 0.601747 0.035071
vt 0.518968 0.242434
vt 0.871610 0.242018
vt 0.768136 0.138544
vt 0.310774 0.138544
vt 0.518552 0.221323
vt 0.220271 0.221739
vt 0.345271 0.221323
vt 0.157771 0.055766
vt 0.926801 0.138545
vt 0.989301 0.263129
vt 0.676801 0.055766
vt 0.365549 0.138545
vt 0.415519 0.062490
vt 0.332324 0.062490
vt 0.934687 0.937510
vt 0.331630 0.937509
vt 0.580812 0.062490
vt 0.144559 0.062490
vt 0.164838 0.062490
vt 0.684285 0.062490
vt 0.977201 0.977201
vt 0.895429 0.977201
vt 0.836019 0.250000
vt 0.732546 0.250000
vt 0.331630 0.750000
vt 0.332324 0.250000
vt 0.895429 0.895429
vt 0.977201 0.895429
vt 0.316573 0.250000
vt 0.296294 0.250000
vt 0.934687 0.750000
vt 0.415519 0.250000
vt 0.019148 0.177769
vt 0.828432 0.987053
vt 0.493216 0.987053
vt 0.514447 0.988514
vt 0.179230 0.988514
vt 0.988514 0.179230
vt 0.988514 0.820770
vt 0.179230 0.011486
vt 0.514447 0.011486
s 0
usemtl doric_small
f 92/1/1 3/2/1 91/3/1
f 133/4/2 5/5/2 132/6/2
f 100/7/3 7/8/3 99/9/3
f 125/10/4 9/11/4 124/12/4
f 108/13/5 11/14/5 107/15/5
f 149/16/6 13/17/6 148/18/6
f 116/19/7 23/20/7 117/21/7
f 116/22/8 15/23/8 115/24/8
f 141/25/9 1/26/9 140/27/9
f 115/28/10 15/29/10 140/30/10
f 24/31/9 143/32/9 142/33/9
f 133/34/7 17/35/7 134/36/7
f 108/37/7 21/38/7 109/39/7
f 141/40/7 24/41/7 142/42/7
f 92/43/7 18/44/7 93/45/7
f 100/46/7 19/47/7 101/48/7
f 149/49/7 22/50/7 150/51/7
f 125/52/7 20/53/7 126/54/7
f 27/55/10 103/56/10 102/57/10
f 22/58/6 151/59/6 150/60/6
f 20/61/4 127/62/4 126/63/4
f 17/64/2 135/65/2 134/66/2
f 23/67/8 118/68/8 117/69/8
f 21/70/5 110/71/5 109/72/5
f 19/73/3 102/74/3 101/75/3
f 18/76/1 94/77/1 93/78/1
f 39/79/8 120/80/8 119/81/8
f 26/82/10 95/83/10 94/84/10
f 32/85/10 144/86/10 143/87/10
f 30/88/10 152/89/10 151/90/10
f 28/91/10 128/92/10 127/93/10
f 25/94/10 136/95/10 135/96/10
f 31/97/10 119/98/10 118/99/10
f 29/100/10 111/101/10 110/102/10
f 44/103/11 130/104/11 129/105/11
f 37/106/5 112/107/5 111/108/5
f 35/109/3 104/110/3 103/111/3
f 34/112/1 96/113/1 95/114/1
f 40/115/9 145/116/9 144/117/9
f 38/118/6 153/119/6 152/120/6
f 36/121/4 129/122/4 128/123/4
f 33/124/2 137/125/2 136/126/2
f 56/127/9 147/128/9 146/129/9
f 41/130/12 138/131/12 137/132/12
f 47/133/13 121/134/13 120/135/13
f 45/136/14 113/137/14 112/138/14
f 43/139/15 105/140/15 104/141/15
f 42/142/16 97/143/16 96/144/16
f 48/145/17 146/146/17 145/147/17
f 46/148/18 154/149/18 153/150/18
f 54/151/6 155/152/6 154/153/6
f 52/154/4 131/155/4 130/156/4
f 49/157/2 139/158/2 138/159/2
f 55/160/8 122/161/8 121/162/8
f 53/163/5 114/164/5 113/165/5
f 51/166/3 106/167/3 105/168/3
f 50/169/1 98/170/1 97/171/1
f 85/172/1 65/173/1 83/174/1
f 80/175/8 66/176/8 78/177/8
f 86/178/5 68/179/5 84/180/5
f 79/181/3 67/182/3 77/183/3
f 80/184/7 86/185/7 90/186/7
f 78/187/19 74/188/19 82/189/19
f 83/190/20 73/191/20 87/192/20
f 84/193/21 76/194/21 88/195/21
f 77/196/22 75/197/22 81/198/22
f 88/199/10 82/200/10 89/201/10
f 89/202/10 74/203/10 87/204/10
f 77/205/22 73/206/22 65/207/22
f 78/208/19 76/209/19 68/210/19
f 85/186/7 80/211/7 90/185/7
f 69/212/3 77/213/3 65/214/3
f 72/215/8 78/216/8 68/217/8
f 85/184/7 79/185/7 69/186/7
f 81/218/10 87/219/10 73/220/10
f 75/221/10 89/222/10 81/223/10
f 84/224/21 75/225/21 67/226/21
f 83/227/20 74/228/20 66/229/20
f 90/184/7 71/185/7 79/186/7
f 71/230/5 84/231/5 67/232/5
f 70/233/1 83/234/1 66/235/1
f 97/171/1 57/236/1 49/237/1
f 41/238/16 97/143/16 49/239/16
f 95/114/1 41/240/1 33/241/1
f 25/242/10 95/83/10 33/243/10
f 93/78/1 25/244/1 17/245/1
f 92/43/7 17/246/7 4/247/7
f 2/248/1 91/3/1 1/249/1
f 105/168/3 60/250/3 52/251/3
f 44/252/15 105/140/15 52/253/15
f 103/111/3 44/254/3 36/255/3
f 101/75/3 28/256/3 20/257/3
f 28/258/10 103/56/10 36/259/10
f 100/46/7 20/260/7 8/261/7
f 6/262/3 99/9/3 5/263/3
f 113/165/5 62/264/5 54/265/5
f 46/266/14 113/137/14 54/267/14
f 111/108/5 46/268/5 38/269/5
f 30/270/10 111/101/10 38/271/10
f 109/72/5 30/272/5 22/273/5
f 108/37/7 22/274/7 12/275/7
f 10/276/5 107/15/5 9/277/5
f 121/162/8 64/278/8 56/279/8
f 48/280/13 121/134/13 56/281/13
f 32/282/10 119/98/10 40/283/10
f 119/81/8 48/284/8 40/285/8
f 117/69/8 32/286/8 24/287/8
f 14/288/8 115/24/8 13/289/8
f 116/19/7 24/290/7 16/291/7
f 148/292/10 13/293/10 123/294/10
f 123/295/10 7/296/10 124/297/10
f 132/298/10 5/299/10 123/300/10
f 130/156/4 61/301/4 53/302/4
f 128/123/4 45/303/4 37/304/4
f 45/305/11 130/104/11 53/306/11
f 29/307/10 128/92/10 37/308/10
f 126/63/4 29/309/4 21/310/4
f 125/52/7 21/311/7 10/312/7
f 8/313/4 124/12/4 7/314/4
f 138/159/2 59/315/2 51/316/2
f 43/317/12 138/131/12 51/318/12
f 136/126/2 43/319/2 35/320/2
f 27/321/10 136/95/10 35/322/10
f 134/66/2 27/323/2 19/324/2
f 133/34/7 19/325/7 6/326/7
f 4/327/2 132/6/2 3/328/2
f 42/329/17 146/146/17 50/330/17
f 146/129/9 58/331/9 50/332/9
f 144/117/9 42/333/9 34/334/9
f 26/335/10 144/86/10 34/336/10
f 141/40/7 18/337/7 2/338/7
f 142/33/9 26/339/9 18/340/9
f 16/341/9 140/27/9 15/342/9
f 154/153/6 63/343/6 55/344/6
f 47/345/18 154/149/18 55/346/18
f 152/120/6 47/347/6 39/348/6
f 31/349/10 152/89/10 39/350/10
f 150/60/6 31/351/6 23/352/6
f 149/49/7 23/353/7 14/354/7
f 12/355/6 148/18/6 11/356/6
f 92/1/1 4/357/1 3/2/1
f 133/4/2 6/358/2 5/5/2
f 100/7/3 8/359/3 7/8/3
f 125/10/4 10/360/4 9/11/4
f 108/13/5 12/361/5 11/14/5
f 149/16/6 14/362/6 13/17/6
f 116/19/7 14/363/7 23/20/7
f 116/22/8 16/364/8 15/23/8
f 141/25/9 2/365/9 1/26/9
f 140/30/10 1/366/10 91/367/10
f 91/367/10 123/368/10 140/30/10
f 123/368/10 115/28/10 140/30/10
f 24/31/9 32/369/9 143/32/9
f 133/34/7 4/370/7 17/35/7
f 108/37/7 10/371/7 21/38/7
f 141/40/7 16/372/7 24/41/7
f 92/43/7 2/373/7 18/44/7
f 100/46/7 6/374/7 19/47/7
f 149/49/7 12/375/7 22/50/7
f 125/52/7 8/376/7 20/53/7
f 27/55/10 35/377/10 103/56/10
f 22/58/6 30/378/6 151/59/6
f 20/61/4 28/379/4 127/62/4
f 17/64/2 25/380/2 135/65/2
f 23/67/8 31/381/8 118/68/8
f 21/70/5 29/382/5 110/71/5
f 19/73/3 27/383/3 102/74/3
f 18/76/1 26/384/1 94/77/1
f 39/79/8 47/385/8 120/80/8
f 26/82/10 34/386/10 95/83/10
f 32/85/10 40/387/10 144/86/10
f 30/88/10 38/388/10 152/89/10
f 28/91/10 36/389/10 128/92/10
f 25/94/10 33/390/10 136/95/10
f 31/97/10 39/391/10 119/98/10
f 29/100/10 37/392/10 111/101/10
f 44/103/11 52/393/11 130/104/11
f 37/106/5 45/394/5 112/107/5
f 35/109/3 43/395/3 104/110/3
f 34/112/1 42/396/1 96/113/1
f 40/115/9 48/397/9 145/116/9
f 38/118/6 46/398/6 153/119/6
f 36/121/4 44/399/4 129/122/4
f 33/124/2 41/400/2 137/125/2
f 56/127/9 64/401/9 147/128/9
f 41/130/12 49/402/12 138/131/12
f 47/133/13 55/403/13 121/134/13
f 45/136/14 53/404/14 113/137/14
f 43/139/15 51/405/15 105/140/15
f 42/142/16 50/406/16 97/143/16
f 48/145/17 56/407/17 146/146/17
f 46/148/18 54/408/18 154/149/18
f 54/151/6 62/409/6 155/152/6
f 52/154/4 60/410/4 131/155/4
f 49/157/2 57/411/2 139/158/2
f 55/160/8 63/412/8 122/161/8
f 53/163/5 61/413/5 114/164/5
f 51/166/3 59/414/3 106/167/3
f 50/169/1 58/415/1 98/170/1
f 85/172/1 69/416/1 65/173/1
f 80/175/8 70/417/8 66/176/8
f 86/178/5 72/418/5 68/179/5
f 79/181/3 71/419/3 67/182/3
f 80/184/7 72/211/7 86/185/7
f 78/187/19 66/420/19 74/188/19
f 83/190/20 65/421/20 73/191/20
f 84/193/21 68/422/21 76/194/21
f 77/196/22 67/423/22 75/197/22
f 88/199/10 76/424/10 82/200/10
f 89/202/10 82/425/10 74/203/10
f 77/205/22 81/426/22 73/206/22
f 78/208/19 82/427/19 76/209/19
f 85/186/7 70/184/7 80/211/7
f 69/212/3 79/428/3 77/213/3
f 72/215/8 80/429/8 78/216/8
f 85/184/7 90/211/7 79/185/7
f 81/218/10 89/430/10 87/219/10
f 75/221/10 88/431/10 89/222/10
f 84/224/21 88/432/21 75/225/21
f 83/227/20 87/433/20 74/228/20
f 90/184/7 86/211/7 71/185/7
f 71/230/5 86/434/5 84/231/5
f 70/233/1 85/435/1 83/234/1
f 97/171/1 98/170/1 57/236/1
f 41/238/16 96/144/16 97/143/16
f 95/114/1 96/113/1 41/240/1
f 25/242/10 94/84/10 95/83/10
f 93/78/1 94/77/1 25/244/1
f 92/43/7 93/45/7 17/246/7
f 2/248/1 92/1/1 91/3/1
f 105/168/3 106/167/3 60/250/3
f 44/252/15 104/141/15 105/140/15
f 103/111/3 104/110/3 44/254/3
f 101/75/3 102/74/3 28/256/3
f 28/258/10 102/57/10 103/56/10
f 100/46/7 101/48/7 20/260/7
f 6/262/3 100/7/3 99/9/3
f 113/165/5 114/164/5 62/264/5
f 46/266/14 112/138/14 113/137/14
f 111/108/5 112/107/5 46/268/5
f 30/270/10 110/102/10 111/101/10
f 109/72/5 110/71/5 30/272/5
f 108/37/7 109/39/7 22/274/7
f 10/276/5 108/13/5 107/15/5
f 121/162/8 122/161/8 64/278/8
f 48/280/13 120/135/13 121/134/13
f 32/282/10 118/99/10 119/98/10
f 119/81/8 120/80/8 48/284/8
f 117/69/8 118/68/8 32/286/8
f 14/288/8 116/22/8 115/24/8
f 116/19/7 117/21/7 24/290/7
f 13/293/10 115/436/10 123/294/10
f 123/294/10 107/437/10 11/438/10
f 11/438/10 148/292/10 123/294/10
f 9/439/10 107/440/10 123/295/10
f 123/295/10 99/441/10 7/296/10
f 124/297/10 9/439/10 123/295/10
f 5/299/10 99/442/10 123/300/10
f 123/300/10 91/443/10 3/444/10
f 3/444/10 132/298/10 123/300/10
f 130/156/4 131/155/4 61/301/4
f 128/123/4 129/122/4 45/303/4
f 45/305/11 129/105/11 130/104/11
f 29/307/10 127/93/10 128/92/10
f 126/63/4 127/62/4 29/309/4
f 125/52/7 126/54/7 21/311/7
f 8/313/4 125/10/4 124/12/4
f 138/159/2 139/158/2 59/315/2
f 43/317/12 137/132/12 138/131/12
f 136/126/2 137/125/2 43/319/2
f 27/321/10 135/96/10 136/95/10
f 134/66/2 135/65/2 27/323/2
f 133/34/7 134/36/7 19/325/7
f 4/327/2 133/4/2 132/6/2
f 42/329/17 145/147/17 146/146/17
f 146/129/9 147/128/9 58/331/9
f 144/117/9 145/116/9 42/333/9
f 26/335/10 143/87/10 144/86/10
f 141/40/7 142/42/7 18/337/7
f 142/33/9 143/32/9 26/339/9
f 16/341/9 141/25/9 140/27/9
f 154/153/6 155/152/6 63/343/6
f 47/345/18 153/150/18 154/149/18
f 152/120/6 153/119/6 47/347/6
f 31/349/10 151/90/10 152/89/10
f 150/60/6 151/59/6 31/351/6
f 149/49/7 150/51/7 23/353/7
f 12/355/6 149/16/6 148/18/6
