# Blender 5.1.1
# www.blender.org
mtllib large_ionic_base.mtl
o ionic_base_large
v 0.115558 0.618750 -0.428125
v 0.115558 0.825000 -0.428125
v 0.884442 0.618750 -0.428125
v 0.884442 0.825000 -0.428125
v 1.428125 0.618750 0.115558
v 1.428125 0.825000 0.115558
v 1.428125 0.618750 0.884442
v 1.428125 0.825000 0.884442
v 0.884442 0.618750 1.428125
v 0.884442 0.825000 1.428125
v 0.115558 0.618750 1.428125
v 0.115558 0.825000 1.428125
v -0.428125 0.618750 0.884442
v -0.428125 0.825000 0.884442
v -0.428125 0.618750 0.115558
v -0.428125 0.825000 0.115558
v 0.072839 -0.000000 -0.531258
v 0.072839 0.206250 -0.531258
v 0.927161 -0.000000 -0.531258
v 0.927161 0.206250 -0.531258
v 1.531258 -0.000000 0.072839
v 1.531258 0.206250 0.072839
v 1.531258 -0.000000 0.927161
v 1.531258 0.206250 0.927161
v 0.927161 -0.000000 1.531258
v 0.927161 0.206250 1.531258
v 0.072839 -0.000000 1.531258
v 0.072839 0.206250 1.531258
v -0.531258 -0.000000 0.927161
v -0.531258 0.206250 0.927161
v -0.531258 -0.000000 0.072839
v -0.531258 0.206250 0.072839
v 0.115558 0.412500 -0.428125
v 0.115558 0.618750 -0.428125
v 0.884442 0.412500 -0.428125
v 0.884442 0.618750 -0.428125
v 1.428125 0.412500 0.115558
v 1.428125 0.618750 0.115558
v 1.428125 0.412500 0.884442
v 1.428125 0.618750 0.884442
v 0.884442 0.412500 1.428125
v 0.884442 0.618750 1.428125
v 0.115558 0.412500 1.428125
v 0.115558 0.618750 1.428125
v -0.428125 0.412500 0.884442
v -0.428125 0.618750 0.884442
v -0.428125 0.412500 0.115558
v -0.428125 0.618750 0.115558
v 0.158274 0.206250 -0.325000
v 0.158274 0.412500 -0.325000
v 0.841726 0.206250 -0.325000
v 0.841726 0.412500 -0.325000
v 1.325000 0.206250 0.158274
v 1.325000 0.412500 0.158274
v 1.325000 0.206250 0.841726
v 1.325000 0.412500 0.841726
v 0.841726 0.206250 1.325000
v 0.841726 0.412500 1.325000
v 0.158274 0.206250 1.325000
v 0.158274 0.412500 1.325000
v -0.325000 0.206250 0.841726
v -0.325000 0.412500 0.841726
v -0.325000 0.206250 0.158274
v -0.325000 0.412500 0.158274
v 0.115558 0.825000 0.115558
v 0.884442 0.825000 0.884442
v 0.884442 0.825000 0.115558
v 0.115558 0.825000 0.884442
v 0.927161 0.206250 0.927161
v 0.927161 0.206250 0.072839
v 0.072839 0.206250 0.927161
v 0.072839 0.206250 0.072839
vn -0.0000 -0.0000 -1.0000
vn 0.7071 -0.0000 -0.7071
vn 1.0000 -0.0000 -0.0000
vn 0.7071 -0.0000 0.7071
vn -0.0000 -0.0000 1.0000
vn -0.7071 -0.0000 0.7071
vn -0.0000 1.0000 -0.0000
vn -1.0000 -0.0000 -0.0000
vn -0.7071 -0.0000 -0.7071
vn -0.0000 -1.0000 -0.0000
vt 0.875000 0.812500
vt 0.250000 0.625000
vt 0.875000 0.625000
vt 0.625000 0.312500
vt 0.000000 0.125000
vt 0.625000 0.125000
vt 1.000000 0.312500
vt 0.375000 0.125000
vt 1.000000 0.125000
vt 0.875000 0.937500
vt 0.250000 0.750000
vt 0.875000 0.750000
vt 1.000000 0.937500
vt 0.375000 0.750000
vt 1.000000 0.750000
vt 1.000000 0.437500
vt 0.562500 0.437500
vt 0.562500 -0.000000
vt 0.875000 0.187500
vt 0.250000 0.000000
vt 0.875000 0.000000
vt 0.625000 0.937500
vt 0.000000 0.750000
vt 0.625000 0.750000
vt 0.937500 0.562500
vt 0.125000 0.375000
vt 0.937500 0.375000
vt 0.937500 0.687500
vt 0.125000 0.500000
vt 0.937500 0.500000
vt 0.812500 0.312500
vt 0.812500 0.125000
vt 0.937500 0.312500
vt 0.125000 0.125000
vt 0.937500 0.125000
vt 0.937500 0.187500
vt 0.125000 0.000000
vt 0.937500 0.000000
vt 1.000000 0.562500
vt 0.437500 0.562500
vt 0.437500 0.000000
vt 0.812500 0.812500
vt 0.000000 0.625000
vt 0.812500 0.625000
vt 0.812500 0.937500
vt 0.812500 0.750000
vt 1.000000 0.812500
vt 0.375000 0.625000
vt 1.000000 0.625000
vt 0.625000 0.562500
vt 0.000000 0.375000
vt 0.625000 0.375000
vt 0.292935 0.999900
vt 0.000100 0.292935
vt 0.707065 0.000100
vt 0.625000 0.812500
vt 0.625000 0.625000
vt 0.750000 0.312500
vt 0.750000 0.125000
vt 0.750000 0.187500
vt 0.750000 0.000000
vt 1.000000 0.187500
vt 0.375000 0.000000
vt 1.000000 0.000000
vt 0.000100 0.292935
vt 0.707065 0.000100
vt 0.999900 0.707065
vt 0.750000 0.875000
vt 0.125000 0.437500
vt 0.750000 0.437500
vt 0.437500 0.437500
vt 0.000000 0.437500
vt 0.625000 0.187500
vt 0.000000 0.625000
vt 0.000000 0.187500
vt -0.000000 0.562500
vt 0.437500 1.000000
vt 1.000000 0.187500
vt 0.375000 0.625000
vt 0.375000 0.187500
vt 0.562500 1.000000
vt 0.562500 0.562500
vt 1.000000 1.000000
vt 0.375000 0.562500
vt 1.000000 0.562500
vt 0.062500 0.687500
vt 0.687500 0.062500
vt 0.687500 0.687500
vt 0.125000 0.562500
vt 0.937500 0.937500
vt 0.812500 0.687500
vt 0.812500 0.375000
vt 0.250000 0.812500
vt 0.000000 0.312500
vt 0.375000 0.312500
vt 0.250000 0.937500
vt 0.375000 0.937500
vt 0.250000 0.187500
vt 0.000000 0.937500
vt 0.125000 0.687500
vt 0.125000 0.312500
vt 0.125000 0.187500
vt 0.000000 0.812500
vt 0.375000 0.812500
vt 0.000000 0.562500
vt 0.999900 0.292935
vt 0.999900 0.707065
vt 0.707065 0.999900
vt 0.000100 0.707065
vt 0.292935 0.000100
vt 0.375000 0.187500
vt 0.707065 0.999900
vt 0.292935 0.999900
vt 0.000100 0.707065
vt 0.292935 0.000100
vt 0.999900 0.292935
vt 0.125000 0.875000
vt 0.625000 0.625000
vt 1.000000 0.625000
vt 0.375000 1.000000
vt 0.062500 0.062500
vt 0.125000 0.937500
vt 0.000000 0.687500
s 0
usemtl Material
f 2/1/1 3/2/1 1/3/1
f 4/4/2 5/5/2 3/6/2
f 6/7/3 7/8/3 5/9/3
f 8/10/4 9/11/4 7/12/4
f 10/13/5 11/14/5 9/15/5
f 12/4/6 13/5/6 11/6/6
f 4/16/7 67/17/7 6/18/7
f 14/19/8 15/20/8 13/21/8
f 16/22/9 1/23/9 15/24/9
f 18/25/1 19/26/1 17/27/1
f 20/28/2 21/29/2 19/30/2
f 22/31/3 23/5/3 21/32/3
f 24/33/4 25/34/4 23/35/4
f 26/31/5 27/5/5 25/32/5
f 28/36/6 29/37/6 27/38/6
f 20/39/7 70/40/7 22/41/7
f 30/42/8 31/43/8 29/44/8
f 32/45/9 17/23/9 31/46/9
f 34/36/1 35/20/1 33/38/1
f 36/47/2 37/48/2 35/49/2
f 38/50/3 39/51/3 37/52/3
f 40/47/4 41/48/4 39/49/4
f 42/4/5 43/5/5 41/6/5
f 44/13/6 45/14/6 43/15/6
f 46/47/8 47/48/8 45/49/8
f 48/13/9 33/14/9 47/15/9
f 39/53/10 43/54/10 47/55/10
f 50/50/1 51/51/1 49/52/1
f 52/56/2 53/43/2 51/57/2
f 54/4/3 55/5/3 53/6/3
f 56/10/4 57/11/4 55/12/4
f 58/58/5 59/34/5 57/59/5
f 60/56/6 61/43/6 59/57/6
f 62/60/8 63/37/8 61/61/8
f 64/62/9 49/63/9 63/64/9
f 23/65/10 27/66/10 31/67/10
f 67/68/7 8/69/7 6/70/7
f 8/41/7 66/71/7 10/72/7
f 10/73/7 68/74/7 12/75/7
f 12/76/7 68/40/7 14/77/7
f 14/78/7 65/79/7 16/80/7
f 16/81/7 65/82/7 2/39/7
f 65/83/7 4/84/7 2/85/7
f 68/86/7 67/87/7 65/88/7
f 22/38/7 69/89/7 24/37/7
f 24/18/7 69/82/7 26/76/7
f 69/90/7 28/26/7 26/27/7
f 28/72/7 71/17/7 30/81/7
f 71/91/7 32/5/7 30/32/7
f 32/77/7 72/71/7 18/16/7
f 72/45/7 20/51/7 18/92/7
f 2/1/1 4/93/1 3/2/1
f 4/4/2 6/94/2 5/5/2
f 6/7/3 8/95/3 7/8/3
f 8/10/4 10/96/4 9/11/4
f 10/13/5 12/97/5 11/14/5
f 12/4/6 14/94/6 13/5/6
f 14/19/8 16/98/8 15/20/8
f 16/22/9 2/99/9 1/23/9
f 18/25/1 20/89/1 19/26/1
f 20/28/2 22/100/2 21/29/2
f 22/31/3 24/94/3 23/5/3
f 24/33/4 26/101/4 25/34/4
f 26/31/5 28/94/5 27/5/5
f 28/36/6 30/102/6 29/37/6
f 30/42/8 32/103/8 31/43/8
f 32/45/9 18/99/9 17/23/9
f 34/36/1 36/98/1 35/20/1
f 36/47/2 38/104/2 37/48/2
f 38/50/3 40/105/3 39/51/3
f 40/47/4 42/104/4 41/48/4
f 42/4/5 44/94/5 43/5/5
f 44/13/6 46/97/6 45/14/6
f 46/47/8 48/104/8 47/48/8
f 48/13/9 34/97/9 33/14/9
f 47/55/10 33/106/10 35/107/10
f 35/107/10 37/108/10 39/53/10
f 39/53/10 41/109/10 43/54/10
f 43/54/10 45/110/10 47/55/10
f 47/55/10 35/107/10 39/53/10
f 50/50/1 52/105/1 51/51/1
f 52/56/2 54/103/2 53/43/2
f 54/4/3 56/94/3 55/5/3
f 56/10/4 58/96/4 57/11/4
f 58/58/5 60/101/5 59/34/5
f 60/56/6 62/103/6 61/43/6
f 62/60/8 64/102/8 63/37/8
f 64/62/9 50/111/9 49/63/9
f 31/67/10 17/112/10 19/113/10
f 19/113/10 21/114/10 23/65/10
f 23/65/10 25/115/10 27/66/10
f 27/66/10 29/116/10 31/67/10
f 31/67/10 19/113/10 23/65/10
f 67/68/7 66/117/7 8/69/7
f 10/73/7 66/118/7 68/74/7
f 14/78/7 68/119/7 65/79/7
f 65/83/7 67/120/7 4/84/7
f 68/86/7 66/121/7 67/87/7
f 22/38/7 70/25/7 69/89/7
f 69/90/7 71/122/7 28/26/7
f 71/91/7 72/123/7 32/5/7
f 72/45/7 70/99/7 20/51/7
