# Blender 5.1.2
# www.blender.org
mtllib large_roman_doric_base.mtl
o Cube.296
v 0.014466 0.486305 -0.672186
v 0.014466 0.752767 -0.672186
v 0.985534 0.486305 -0.672186
v 0.985534 0.752767 -0.672186
v 1.672182 0.486305 0.014462
v 1.672182 0.752767 0.014462
v 1.672182 0.486305 0.985530
v 1.672182 0.752767 0.985530
v 0.985534 0.486305 1.672178
v 0.985534 0.752767 1.672178
v 0.014466 0.486305 1.672178
v 0.014466 0.752767 1.672178
v -0.672182 0.486305 0.985530
v -0.672182 0.752767 0.985530
v -0.672182 0.486305 0.014462
v -0.672182 0.752767 0.014462
v 0.847669 1.104480 -0.339351
v 0.152331 1.104480 -0.339351
v 1.339348 1.104480 0.152327
v 1.339348 1.104480 0.847666
v 0.847669 1.104480 1.339344
v 0.152331 1.104480 1.339344
v -0.339348 1.104480 0.847666
v -0.339348 1.104480 0.152327
v -0.672174 0.486305 -0.672186
v 1.672174 0.486305 -0.672186
v 1.672174 0.486305 1.672178
v -0.672174 0.486305 1.672178
v -0.672174 -0.000008 -0.672186
v 1.672174 -0.000008 -0.672186
v 1.672174 -0.000008 1.672178
v -0.672174 -0.000008 1.672178
v 1.672174 0.486305 0.499996
v -0.672174 0.486305 0.499996
v 1.672174 -0.000008 0.499996
v -0.672174 -0.000008 0.499996
v 0.500000 0.486305 -0.672186
v 0.500000 0.486305 1.672178
v 0.500000 -0.000008 -0.672186
v 0.500000 -0.000008 1.672178
v 0.500000 -0.000008 0.499996
v 0.500000 0.486305 0.499996
v -0.672182 0.486305 0.499996
v -0.672182 0.752767 0.499996
v -0.339348 1.104480 0.499997
v 0.500000 0.486305 1.672178
v 0.500000 0.752767 1.672178
v 0.500000 1.104480 1.339344
v 1.672182 0.486305 0.499996
v 1.672182 0.752767 0.499996
v 1.339348 1.104480 0.499996
v 0.500000 0.486305 -0.672186
v 0.500000 0.752767 -0.672186
v 0.500000 1.104480 -0.339351
v 0.500000 1.104480 0.499997
v 1.328858 0.486305 -0.328862
v 1.328858 0.752767 -0.328862
v 1.093508 1.104480 -0.093512
v -0.328858 0.486305 -0.328862
v -0.328858 0.752767 -0.328862
v -0.093509 1.104480 -0.093512
v -0.328858 0.486305 1.328854
v -0.328858 0.752767 1.328854
v -0.093509 1.104480 1.093505
v 1.328858 0.486305 1.328854
v 1.328858 0.752767 1.328854
v 1.093508 1.104480 1.093505
vn -0.0000 -0.0000 -1.0000
vn 0.7071 -0.0000 -0.7071
vn 1.0000 -0.0000 -0.0000
vn 0.7071 -0.0000 0.7071
vn -0.0000 -0.0000 1.0000
vn -0.7071 -0.0000 0.7071
vn -0.0000 0.6873 0.7263
vn -1.0000 -0.0000 -0.0000
vn -0.7071 -0.0000 -0.7071
vn -0.0000 1.0000 -0.0000
vn -0.5136 0.6873 -0.5136
vn -0.0000 0.6873 -0.7263
vn 0.7263 0.6873 -0.0000
vn -0.5136 0.6873 0.5136
vn 0.5136 0.6873 0.5136
vn -0.7263 0.6873 -0.0000
vn 0.5136 0.6873 -0.5136
vn -0.0000 -1.0000 -0.0000
vt 0.508376 0.426156
vt 0.926977 0.665357
vt 0.508377 0.665357
vt 0.479725 0.440481
vt 0.898327 0.679682
vt 0.479725 0.679682
vt 0.436119 0.542311
vt 0.854721 0.303111
vt 0.854721 0.542311
vt 0.535065 0.077203
vt 0.953667 0.316404
vt 0.535066 0.316404
vt 0.498617 0.529674
vt 0.917217 0.768875
vt 0.498617 0.768875
vt 0.561107 0.579800
vt 0.979708 0.819001
vt 0.561107 0.819001
vt 0.507499 0.527619
vt 0.819229 0.945704
vt 0.507499 0.945703
vt 0.496661 0.925120
vt 0.915261 0.685919
vt 0.915261 0.925120
vt 0.469962 0.031635
vt 0.888563 0.270836
vt 0.469962 0.270836
vt 0.000000 0.625000
vt 1.000000 1.000000
vt 0.000000 1.000000
vt 0.011593 0.750000
vt 0.011593 0.444142
vt 0.227867 0.227868
vt 0.526357 0.404564
vt 0.838087 0.822649
vt 0.526357 0.822648
vt 0.480793 0.517849
vt 0.792523 0.935934
vt 0.480793 0.935934
vt 0.444994 0.558872
vt 0.756723 0.976957
vt 0.444993 0.976956
vt 0.509433 0.092075
vt 0.821163 0.510160
vt 0.509433 0.510160
vt 0.471018 0.012645
vt 0.782748 0.430729
vt 0.471018 0.430729
vt 0.471024 0.527621
vt 0.782755 0.945705
vt 0.471024 0.945705
vt 0.540680 0.101833
vt 0.852410 0.519918
vt 0.540680 0.519917
vt -0.000000 -0.000000
vt 1.000000 -0.000000
vt 1.000000 0.000000
vt -0.000000 0.375000
vt 1.000000 0.375000
vt 0.000000 0.937500
vt 1.000000 0.562500
vt 1.000000 0.937500
vt 1.000000 0.750000
vt 0.000000 0.750000
vt 0.000000 0.437500
vt 1.000000 0.062500
vt 1.000000 0.437500
vt 0.000000 0.875000
vt 1.000000 0.500000
vt 1.000000 0.875000
vt 0.159294 0.945705
vt 0.035880 0.527620
vt 0.077818 0.685919
vt 0.496420 0.925120
vt 0.077820 0.925120
vt 0.195769 0.945703
vt 0.072356 0.527618
vt 0.080607 0.529674
vt 0.499208 0.768875
vt 0.080607 0.768875
vt 0.133263 0.976956
vt 0.009849 0.558872
vt 0.016269 0.303111
vt 0.434871 0.542311
vt 0.016269 0.542311
vt 0.169063 0.935934
vt 0.045649 0.517849
vt 0.089776 0.426156
vt 0.089777 0.665357
vt 0.227868 0.772132
vt 0.011593 0.555858
vt 0.750000 0.250000
vt 0.250000 0.250000
vt 0.988406 0.555858
vt 0.772132 0.772132
vt 0.250000 0.750000
vt 0.555858 0.011593
vt 0.772132 0.227868
vt 0.228950 0.519917
vt 0.105535 0.101832
vt 0.061124 0.440481
vt 0.061124 0.679682
vt 0.214627 0.822648
vt 0.091213 0.404563
vt 0.051360 0.031635
vt 0.051361 0.270836
vt 0.197703 0.510159
vt 0.074289 0.092075
vt 0.142506 0.579800
vt 0.142506 0.819001
vt 0.159288 0.430729
vt 0.035874 0.012645
vt 0.116464 0.077203
vt 0.116465 0.316404
vt 0.926976 0.426156
vt 0.898327 0.440481
vt 0.436119 0.303111
vt 0.953666 0.077203
vt 0.917217 0.529674
vt 0.979708 0.579800
vt 0.942643 0.527620
vt 0.496660 0.685919
vt 0.888563 0.031635
vt 1.000000 0.625000
vt 0.444142 0.011593
vt 0.750000 0.011593
vt 0.750000 0.750000
vt 0.961501 0.404564
vt 0.915937 0.517849
vt 0.880138 0.558872
vt 0.944577 0.092075
vt 0.906162 0.012645
vt 0.906169 0.527621
vt 0.975824 0.101834
vt 0.000000 0.562500
vt 0.000000 0.062500
vt 0.000000 0.500000
vt 0.496419 0.685919
vt 0.499207 0.529675
vt 0.434871 0.303111
vt 0.011593 0.250000
vt 0.750000 0.988406
vt 0.444142 0.988407
vt 0.555858 0.988406
vt 0.250000 0.988406
vt 0.988407 0.250000
vt 0.988407 0.444142
vt 0.988407 0.750000
vt 0.250000 0.011593
s 0
usemtl roman_doric_base
f 53/1/1 3/2/1 52/3/1
f 57/4/2 5/5/2 56/6/2
f 49/7/3 8/8/3 7/9/3
f 66/10/4 9/11/4 65/12/4
f 47/13/5 11/14/5 46/15/5
f 63/16/6 13/17/6 62/18/6
f 47/19/7 21/20/7 48/21/7
f 43/22/8 16/23/8 15/24/8
f 60/25/9 1/26/9 59/27/9
f 35/28/3 26/29/3 33/30/3
f 51/31/10 19/32/10 58/33/10
f 60/34/11 24/35/11 61/36/11
f 53/37/12 18/38/12 54/39/12
f 50/40/13 19/41/13 51/42/13
f 63/43/14 22/44/14 64/45/14
f 66/46/15 20/47/15 67/48/15
f 44/49/16 23/50/16 45/51/16
f 57/52/17 17/53/17 58/54/17
f 42/29/10 26/55/10 37/56/10
f 36/28/8 28/29/8 34/30/8
f 30/57/18 41/30/18 39/55/18
f 38/29/10 33/55/10 42/57/10
f 35/57/18 40/30/18 41/55/18
f 28/58/5 40/57/5 38/59/5
f 26/60/1 39/61/1 37/62/1
f 29/58/8 34/63/8 25/64/8
f 31/55/3 33/59/3 27/58/3
f 37/65/1 29/66/1 25/67/1
f 38/68/5 31/69/5 27/70/5
f 41/57/18 32/30/18 36/55/18
f 28/29/10 42/55/10 34/57/10
f 39/57/18 36/30/18 29/55/18
f 34/29/10 37/55/10 25/56/10
f 44/49/16 24/71/16 16/72/16
f 14/73/8 43/74/8 13/75/8
f 47/19/7 22/76/7 12/77/7
f 10/78/5 46/79/5 9/80/5
f 50/40/13 20/81/13 8/82/13
f 6/83/3 49/84/3 5/85/3
f 53/37/12 17/86/12 4/87/12
f 2/88/1 52/3/1 1/89/1
f 67/90/10 20/91/10 55/92/10
f 55/93/10 23/94/10 64/95/10
f 55/96/10 18/97/10 61/98/10
f 57/52/17 19/99/17 6/100/17
f 4/101/2 56/6/2 3/102/2
f 60/34/11 18/103/11 2/104/11
f 16/105/9 59/27/9 15/106/9
f 63/43/14 23/107/14 14/108/14
f 12/109/6 62/18/6 11/110/6
f 66/46/15 21/111/15 10/112/15
f 8/113/4 65/12/4 7/114/4
f 53/1/1 4/115/1 3/2/1
f 57/4/2 6/116/2 5/5/2
f 49/7/3 50/117/3 8/8/3
f 66/10/4 10/118/4 9/11/4
f 47/13/5 12/119/5 11/14/5
f 63/16/6 14/120/6 13/17/6
f 47/19/7 10/121/7 21/20/7
f 43/22/8 44/122/8 16/23/8
f 60/25/9 2/123/9 1/26/9
f 35/28/3 30/124/3 26/29/3
f 58/33/10 17/125/10 54/126/10
f 54/126/10 55/127/10 58/33/10
f 55/127/10 51/31/10 58/33/10
f 60/34/11 16/128/11 24/35/11
f 53/37/12 2/129/12 18/38/12
f 50/40/13 6/130/13 19/41/13
f 63/43/14 12/131/14 22/44/14
f 66/46/15 8/132/15 20/47/15
f 44/49/16 14/133/16 23/50/16
f 57/52/17 4/134/17 17/53/17
f 42/29/10 33/30/10 26/55/10
f 36/28/8 32/124/8 28/29/8
f 30/57/18 35/29/18 41/30/18
f 38/29/10 27/30/10 33/55/10
f 35/57/18 31/29/18 40/30/18
f 28/58/5 32/55/5 40/57/5
f 26/60/1 30/135/1 39/61/1
f 29/58/8 36/59/8 34/63/8
f 31/55/3 35/57/3 33/59/3
f 37/65/1 39/136/1 29/66/1
f 38/68/5 40/137/5 31/69/5
f 41/57/18 40/29/18 32/30/18
f 28/29/10 38/30/10 42/55/10
f 39/57/18 41/29/18 36/30/18
f 34/29/10 42/30/10 37/55/10
f 44/49/16 45/51/16 24/71/16
f 14/73/8 44/138/8 43/74/8
f 47/19/7 48/21/7 22/76/7
f 10/78/5 47/139/5 46/79/5
f 50/40/13 51/42/13 20/81/13
f 6/83/3 50/140/3 49/84/3
f 53/37/12 54/39/12 17/86/12
f 2/88/1 53/1/1 52/3/1
f 20/91/10 51/141/10 55/92/10
f 55/92/10 48/142/10 21/143/10
f 21/143/10 67/90/10 55/92/10
f 22/144/10 48/145/10 55/93/10
f 55/93/10 45/146/10 23/94/10
f 64/95/10 22/144/10 55/93/10
f 24/147/10 45/148/10 55/96/10
f 55/96/10 54/149/10 18/97/10
f 61/98/10 24/147/10 55/96/10
f 57/52/17 58/54/17 19/99/17
f 4/101/2 57/4/2 56/6/2
f 60/34/11 61/36/11 18/103/11
f 16/105/9 60/25/9 59/27/9
f 63/43/14 64/45/14 23/107/14
f 12/109/6 63/16/6 62/18/6
f 66/46/15 67/48/15 21/111/15
f 8/113/4 66/10/4 65/12/4
