# Blender 5.1.1
# www.blender.org
mtllib large_column_both.mtl
o column_large
v 0.189338 0.000000 -0.250005
v 0.189338 1.000000 -0.250005
v 0.810662 0.000000 -0.250005
v 0.810662 1.000000 -0.250005
v 1.250005 0.000000 0.189338
v 1.250005 1.000000 0.189338
v 1.250005 0.000000 0.810662
v 1.250005 1.000000 0.810662
v 0.810662 0.000000 1.250005
v 0.810662 1.000000 1.250005
v 0.189338 0.000000 1.250005
v 0.189338 1.000000 1.250005
v -0.250005 0.000000 0.810662
v -0.250005 1.000000 0.810662
v -0.250005 0.000000 0.189338
v -0.250005 1.000000 0.189338
v 0.810662 1.750000 -0.250005
v 0.189338 1.750000 -0.250005
v 1.250005 1.750000 0.189338
v 1.250005 1.750000 0.810662
v 0.810662 1.750000 1.250005
v 0.189338 1.750000 1.250005
v -0.250005 1.750000 0.810662
v -0.250005 1.750000 0.189338
v 0.189338 -0.500000 -0.250005
v 0.810662 -0.500000 -0.250005
v 1.250005 -0.500000 0.189338
v 1.250005 -0.500000 0.810662
v 0.810662 -0.500000 1.250005
v 0.189338 -0.500000 1.250005
v -0.250005 -0.500000 0.810662
v -0.250005 -0.500000 0.189338
v 0.810662 -0.500000 0.810662
v 0.189338 -0.500000 0.189338
v 0.189338 -0.500000 0.810662
v 0.810662 -0.500000 0.189338
v 0.810662 1.750000 0.189338
v 0.189338 1.750000 0.810663
v 0.189338 1.750000 0.189338
v 0.810662 1.750000 0.810663
vn -0.0000 -0.0000 -1.0000
vn 0.7071 -0.0000 -0.7071
vn 1.0000 -0.0000 -0.0000
vn 0.7071 -0.0000 0.7071
vn -0.0000 -0.0000 1.0000
vn -0.7071 -0.0000 0.7071
vn -1.0000 -0.0000 -0.0000
vn -0.7071 -0.0000 -0.7071
vn -0.0000 1.0000 -0.0000
vn -0.0000 -1.0000 -0.0000
vt 0.625000 0.000000
vt 0.625000 1.000000
vt 0.000000 1.000000
vt 0.000000 0.000000
vt 1.000000 0.000000
vt 1.000000 1.000000
vt 0.375000 1.000000
vt 0.375000 0.000000
vt 1.000000 0.750000
vt 0.375000 0.750000
vt 1.000000 0.500000
vt 0.375000 0.500000
vt 1.000000 0.437500
vt 0.561072 0.438928
vt 0.562500 0.000000
vt 0.625000 0.750000
vt 0.000000 0.750000
vt 0.561072 0.438928
vt 0.625000 0.500000
vt 0.000000 0.500000
vt 0.812500 0.000000
vt 0.811072 0.438928
vt 0.188928 0.438928
vt 0.187500 0.000000
vt 0.437500 0.000000
vt 0.438928 0.438928
vt 0.000000 0.437500
vt 0.000000 0.187500
vt 0.438928 0.188928
vt 0.438928 0.811072
vt 0.000000 0.812500
vt 0.000000 0.562500
vt 0.438928 0.561072
vt 0.437500 1.000000
vt 0.187500 1.000000
vt 0.188928 0.561072
vt 0.811072 0.561072
vt 0.812500 1.000000
vt 0.562500 1.000000
vt 0.561072 0.561072
vt 1.000000 0.562500
vt 1.000000 0.812500
vt 0.561072 0.811072
vt 0.561072 0.188928
vt 1.000000 0.187500
vt 0.811072 0.811072
vt 0.188928 0.811072
vt 0.188928 0.188928
vt 0.811072 0.188928
vt 0.811072 0.438928
vt 0.188928 0.438928
vt 0.438928 0.438928
vt 0.438928 0.188928
vt 0.438928 0.811072
vt 0.438928 0.561072
vt 0.188928 0.561072
vt 0.811072 0.561072
vt 0.561072 0.561072
vt 0.561072 0.811072
vt 0.561072 0.188928
vt 0.811072 0.811072
vt 0.188928 0.811072
vt 0.188928 0.188928
vt 0.811072 0.188928
s 0
usemtl column_mat_top
f 17/13/9 37/14/9 19/15/9
f 25/13/10 34/18/10 32/15/10
f 32/21/10 34/22/10 35/23/10 31/24/10
f 31/25/10 35/26/10 30/27/10
f 30/28/10 35/29/10 33/30/10 29/31/10
f 29/32/10 33/33/10 28/34/10
f 28/35/10 33/36/10 36/37/10 27/38/10
f 27/39/10 36/40/10 26/41/10
f 26/42/10 36/43/10 34/44/10 25/45/10
f 36/46/10 33/47/10 35/48/10 34/49/10
f 19/21/9 37/50/9 40/51/9 20/24/9
f 20/25/9 40/52/9 21/27/9
f 21/28/9 40/53/9 38/54/9 22/31/9
f 22/32/9 38/55/9 23/34/9
f 23/35/9 38/56/9 39/57/9 24/38/9
f 24/39/9 39/58/9 18/41/9
f 18/42/9 39/59/9 37/60/9 17/45/9
f 39/61/9 38/62/9 40/63/9 37/64/9
usemtl column_mat_side
f 1/1/1 2/2/1 4/3/1 3/4/1
f 3/5/2 4/6/2 6/7/2 5/8/2
f 5/1/3 6/2/3 8/3/3 7/4/3
f 7/5/4 8/6/4 10/7/4 9/8/4
f 9/1/5 10/2/5 12/3/5 11/4/5
f 11/5/6 12/6/6 14/7/6 13/8/6
f 6/8/2 4/5/2 17/9/2 19/10/2
f 13/1/7 14/2/7 16/3/7 15/4/7
f 15/5/8 16/6/8 2/7/8 1/8/8
f 9/11/5 11/12/5 30/7/5 29/6/5
f 12/4/5 10/1/5 21/16/5 22/17/5
f 2/8/8 16/5/8 24/9/8 18/10/8
f 4/4/1 2/1/1 18/16/1 17/17/1
f 8/4/3 6/1/3 19/16/3 20/17/3
f 14/8/6 12/5/6 22/9/6 23/10/6
f 10/8/4 8/5/4 20/9/4 21/10/4
f 16/4/7 14/1/7 23/16/7 24/17/7
f 15/11/8 1/12/8 25/7/8 32/6/8
f 1/19/1 3/20/1 26/3/1 25/2/1
f 5/19/3 7/20/3 28/3/3 27/2/3
f 11/11/6 13/12/6 31/7/6 30/6/6
f 7/11/4 9/12/4 29/7/4 28/6/4
f 13/19/7 15/20/7 32/3/7 31/2/7
f 3/11/2 5/12/2 27/7/2 26/6/2
