# Blender 5.1.0
# www.blender.org
mtllib large_column.mtl
o column_large
v 0.189338 0.000000 -0.250005
v 0.189338 1.000000 -0.250005
v 0.810662 0.000000 -0.250005
v 0.810662 1.000000 -0.250005
v 1.250005 0.000000 0.189338
v 1.250005 1.000000 0.189338
v 1.250005 0.000000 0.810662
v 1.250005 1.000000 0.810662
v 0.810662 0.000000 1.250005
v 0.810662 1.000000 1.250005
v 0.189338 0.000000 1.250005
v 0.189338 1.000000 1.250005
v -0.250005 0.000000 0.810662
v -0.250005 1.000000 0.810662
v -0.250005 0.000000 0.189338
v -0.250005 1.000000 0.189338
v 0.810662 1.000000 0.810662
v 0.189338 1.000000 0.189338
v 0.810662 1.000000 0.189338
v 0.189338 1.000000 0.810662
v 0.810662 0.000000 0.810662
v 0.189338 0.000000 0.189337
v 0.189338 0.000000 0.810662
v 0.810662 0.000000 0.189338
vn -0.0000 -0.0000 -1.0000
vn 0.7071 -0.0000 -0.7071
vn 1.0000 -0.0000 -0.0000
vn 0.7071 -0.0000 0.7071
vn -0.0000 -0.0000 1.0000
vn -0.7071 -0.0000 0.7071
vn -0.0000 1.0000 -0.0000
vn -1.0000 -0.0000 -0.0000
vn -0.7071 -0.0000 -0.7071
vn -0.0000 -1.0000 -0.0000
vt 0.625000 0.000000
vt 0.625000 1.000000
vt 0.000000 1.000000
vt 0.000000 0.000000
vt 1.000000 0.000000
vt 1.000000 1.000000
vt 0.375000 1.000000
vt 0.375000 0.000000
vt 1.000000 0.437500
vt 0.562500 0.437500
vt 0.562500 -0.000000
vt 0.562500 1.000000
vt 0.562500 0.562500
vt 1.000000 0.562500
vt 0.812500 -0.000000
vt 0.812500 0.437500
vt 0.187500 0.437500
vt 0.187500 -0.000000
vt 0.437500 -0.000000
vt 0.437500 0.437500
vt -0.000000 0.437500
vt 0.000000 0.187500
vt 0.437500 0.187500
vt 0.437500 0.812500
vt 0.000000 0.812500
vt -0.000000 0.562500
vt 0.437500 0.562500
vt 0.437500 1.000000
vt 0.187500 1.000000
vt 0.187500 0.562500
vt 0.812500 0.562500
vt 0.812500 1.000000
vt 1.000000 0.812500
vt 0.562500 0.812500
vt 0.562500 0.187500
vt 1.000000 0.187500
vt 0.811071 0.811072
vt 0.188928 0.811072
vt 0.188928 0.188928
vt 0.811072 0.188928
vt 0.811072 0.811072
vt 0.188928 0.811072
vt 0.188928 0.188928
vt 0.811072 0.188928
s 0
usemtl column_mat_top
f 4/9/7 19/10/7 6/11/7
f 1/12/10 22/13/10 15/14/10
f 6/15/7 19/16/7 17/17/7 8/18/7
f 8/19/7 17/20/7 10/21/7
f 10/22/7 17/23/7 20/24/7 12/25/7
f 12/26/7 20/27/7 14/28/7
f 14/29/7 20/30/7 18/31/7 16/32/7
f 16/12/7 18/13/7 2/14/7
f 2/33/7 18/34/7 19/35/7 4/36/7
f 18/37/7 20/38/7 17/39/7 19/40/7
f 15/29/10 22/30/10 23/31/10 13/32/10
f 13/26/10 23/27/10 11/28/10
f 11/22/10 23/23/10 21/24/10 9/25/10
f 9/19/10 21/20/10 7/21/10
f 7/15/10 21/16/10 24/17/10 5/18/10
f 5/9/10 24/10/10 3/11/10
f 3/33/10 24/34/10 22/35/10 1/36/10
f 24/41/10 21/42/10 23/43/10 22/44/10
usemtl column_mat_side
f 1/1/1 2/2/1 4/3/1 3/4/1
f 3/5/2 4/6/2 6/7/2 5/8/2
f 5/1/3 6/2/3 8/3/3 7/4/3
f 7/5/4 8/6/4 10/7/4 9/8/4
f 9/1/5 10/2/5 12/3/5 11/4/5
f 11/5/6 12/6/6 14/7/6 13/8/6
f 13/1/8 14/2/8 16/3/8 15/4/8
f 15/5/9 16/6/9 2/7/9 1/8/9
