# Blender 5.1.0
# www.blender.org
mtllib large_ionic_capital.mtl
o ionic_capital_large
v -0.273438 0.881406 -0.510625
v -0.273438 0.494688 -0.510625
v 1.273437 0.881406 -0.510625
v 1.273437 0.494688 -0.510625
v -0.273438 0.881406 1.510625
v -0.273438 0.494688 1.510625
v 1.273438 0.881406 1.510625
v 1.273438 0.494688 1.510625
v -0.376569 0.296173 0.863087
v -0.376569 0.502423 0.863087
v -0.376569 0.296173 0.136913
v -0.376569 0.502423 0.136913
v 0.136913 0.296173 -0.376569
v 0.136913 0.502423 -0.376569
v 0.863087 0.296173 -0.376569
v 0.863087 0.502423 -0.376569
v 1.376569 0.296173 0.136913
v 1.376569 0.502423 0.136913
v 1.376569 0.296173 0.863087
v 1.376569 0.502423 0.863087
v 0.863087 0.296173 1.376569
v 0.863087 0.502423 1.376569
v 0.136913 0.296173 1.376569
v 0.136913 0.502423 1.376569
v 0.966655 0.757642 -0.278594
v 0.970710 0.761638 -0.536406
v 0.852396 0.481797 -0.278594
v 0.852438 0.487490 -0.536406
v 0.966655 0.205953 -0.278594
v 0.962659 0.210008 -0.536406
v 1.242499 0.091694 -0.278594
v 1.236806 0.091736 -0.536406
v 1.518344 0.205953 -0.278594
v 1.514289 0.201957 -0.536406
v 1.632602 0.481797 -0.278594
v 1.632561 0.476104 -0.536406
v 1.518344 0.757642 -0.278594
v 1.522340 0.753587 -0.536406
v 1.242499 0.871900 -0.278594
v 1.248192 0.871859 -0.536406
v 0.966655 0.757642 1.536406
v 0.966655 0.757642 1.278594
v 0.852396 0.481797 1.536406
v 0.852396 0.481797 1.278594
v 0.966655 0.205953 1.536406
v 0.966655 0.205953 1.278594
v 1.242499 0.091694 1.536406
v 1.242499 0.091694 1.278594
v 1.518344 0.205953 1.536406
v 1.518344 0.205953 1.278594
v 1.632602 0.481797 1.536406
v 1.632602 0.481797 1.278594
v 1.518344 0.757642 1.536406
v 1.518344 0.757642 1.278594
v 1.242499 0.871900 1.536406
v 1.242499 0.871900 1.278594
v -0.518350 0.757642 1.536406
v -0.518350 0.757642 1.278594
v -0.632608 0.481797 1.536406
v -0.632608 0.481797 1.278594
v -0.518350 0.205953 1.536406
v -0.518350 0.205953 1.278594
v -0.242505 0.091694 1.536406
v -0.242505 0.091694 1.278594
v 0.033339 0.205953 1.536406
v 0.033339 0.205953 1.278594
v 0.147598 0.481797 1.536406
v 0.147598 0.481797 1.278594
v 0.033339 0.757642 1.536406
v 0.033339 0.757642 1.278594
v -0.242505 0.871900 1.536406
v -0.242505 0.871900 1.278594
v -0.518350 0.757642 -0.278594
v -0.518350 0.757642 -0.536406
v -0.632608 0.481797 -0.278594
v -0.632608 0.481797 -0.536406
v -0.518350 0.205953 -0.278594
v -0.518350 0.205953 -0.536406
v -0.242505 0.091694 -0.278594
v -0.242505 0.091694 -0.536406
v 0.033339 0.205953 -0.278594
v 0.033339 0.205953 -0.536406
v 0.147598 0.481797 -0.278594
v 0.147598 0.481797 -0.536406
v 0.033339 0.757642 -0.278594
v 0.033339 0.757642 -0.536406
v -0.242505 0.871900 -0.278594
v -0.242505 0.871900 -0.536406
v -0.437261 0.676553 1.294063
v -0.437261 0.676553 -0.294062
v -0.517932 0.481797 1.294063
v -0.517932 0.481797 -0.294062
v -0.437261 0.287041 1.294063
v -0.437261 0.287042 -0.294062
v -0.242505 0.206371 1.294063
v -0.242505 0.206371 -0.294062
v -0.047749 0.287041 1.294063
v -0.047749 0.287041 -0.294062
v 0.032921 0.481797 1.294063
v 0.032921 0.481797 -0.294062
v -0.047749 0.676553 1.294063
v -0.047749 0.676553 -0.294062
v -0.242505 0.757224 1.294063
v -0.242505 0.757224 -0.294062
v 1.047737 0.676553 1.294063
v 1.047737 0.676553 -0.294062
v 0.967067 0.481797 1.294063
v 0.967067 0.481797 -0.294062
v 1.047737 0.287041 1.294063
v 1.047737 0.287042 -0.294062
v 1.242493 0.206371 1.294063
v 1.242493 0.206371 -0.294062
v 1.437249 0.287041 1.294063
v 1.437249 0.287041 -0.294062
v 1.517920 0.481797 1.294063
v 1.517920 0.481797 -0.294062
v 1.437249 0.676553 1.294063
v 1.437249 0.676553 -0.294062
v 1.242493 0.757224 1.294063
v 1.242493 0.757224 -0.294062
v -0.337891 1.000000 -0.531250
v -0.337891 0.871094 -0.531250
v 1.337890 1.000000 -0.531250
v 1.337890 0.871094 -0.531250
v -0.337891 1.000000 1.531250
v -0.337891 0.871094 1.531250
v 1.337891 1.000000 1.531250
v 1.337891 0.871094 1.531250
v 1.047737 0.676553 0.500000
v 0.967067 0.481797 0.500000
v 1.047737 0.287041 0.500000
v 1.242493 0.206371 0.500000
v 1.437249 0.287041 0.500000
v 1.517920 0.481797 0.500000
v 1.437249 0.676553 0.500000
v 1.242493 0.757224 0.500000
v -0.437261 0.676553 0.500000
v -0.517932 0.481797 0.500000
v -0.437261 0.287041 0.500000
v -0.242505 0.206371 0.500000
v -0.047749 0.287041 0.500000
v 0.032921 0.481797 0.500000
v -0.047749 0.676553 0.500000
v -0.242505 0.757224 0.500000
vn -0.0000 1.0000 -0.0000
vn 1.0000 -0.0000 -0.0000
vn -0.0000 -0.0000 1.0000
vn -0.0000 -1.0000 -0.0000
vn -0.0000 -0.0000 -1.0000
vn -1.0000 -0.0000 -0.0000
vn -0.7071 -0.0000 -0.7071
vn 0.7071 -0.0000 -0.7071
vn 0.7071 -0.0000 0.7071
vn -0.7071 -0.0000 0.7071
vn -0.9238 0.3827 0.0083
vn -0.9238 -0.3827 0.0083
vn -0.3827 -0.9238 0.0083
vn 0.3827 -0.9238 0.0083
vn 0.9238 -0.3827 0.0083
vn 0.9238 0.3827 0.0083
vn 0.3827 0.9238 0.0083
vn -0.3827 0.9238 0.0083
vn -0.9239 0.3827 -0.0000
vn -0.9239 -0.3827 -0.0000
vn -0.3827 -0.9239 -0.0000
vn 0.3827 -0.9239 -0.0000
vn 0.9239 -0.3827 -0.0000
vn 0.9239 0.3827 -0.0000
vn 0.3827 0.9239 -0.0000
vn -0.3827 0.9239 -0.0000
vn -0.9182 0.3961 -0.0083
vn -0.9293 -0.3691 -0.0083
vn -0.3961 -0.9182 -0.0083
vn 0.3691 -0.9293 -0.0083
vn 0.9182 -0.3961 -0.0083
vn 0.9293 0.3691 -0.0083
vn 0.3961 0.9182 -0.0083
vn -0.3691 0.9293 -0.0083
vt 0.875000 0.500000
vt 0.625000 0.750000
vt 0.625000 0.500000
vt 0.375000 1.000000
vt 0.375000 0.750000
vt 1.000000 1.000000
vt -0.000000 0.750000
vt 1.000000 0.750000
vt 0.375000 0.500000
vt 0.125000 0.750000
vt 0.125000 0.500000
vt 0.625000 0.250000
vt 0.375000 0.250000
vt 0.687500 0.687500
vt 0.000000 0.500000
vt 0.687500 0.500000
vt 0.292935 0.000100
vt 0.707065 0.000100
vt 0.292935 0.999900
vt 0.250000 0.312500
vt 0.250000 0.750000
vt 0.500000 0.437500
vt 0.875000 0.875000
vt 0.500000 0.875000
vt 0.375000 0.062500
vt 0.750000 0.500000
vt 0.000000 0.437500
vt 0.375000 0.875000
vt 0.000000 0.875000
vt 0.625000 0.062500
vt 1.000000 0.500000
vt 0.375000 0.562500
vt 0.750000 1.000000
vt 0.266718 0.726062
vt 0.273938 0.266718
vt 0.733282 0.273938
vt 0.000064 0.000064
vt 0.414228 0.999936
vt 0.000064 0.999936
vt 0.625000 0.312500
vt 0.750000 0.062500
vt 0.375000 0.437500
vt 0.875000 0.562500
vt 0.500000 1.000000
vt 0.500000 0.562500
vt 0.414228 0.999936
vt 0.000064 0.000064
vt 0.414228 0.000064
vt 0.414228 0.999936
vt 0.000064 0.000064
vt 0.414228 0.000064
vt 0.498388 0.175159
vt 0.175159 0.501612
vt 0.501612 0.824841
vt 1.000000 0.437500
vt 0.625000 0.875000
vt 0.625000 0.437500
vt 0.875000 0.062500
vt 0.500000 0.500000
vt 0.500000 0.062500
vt 0.875000 1.000000
vt 0.414228 0.000064
vt 0.000065 0.999936
vt 0.000064 0.000064
vt 0.000000 0.062500
vt 0.824841 0.501612
vt 0.734118 0.725196
vt 0.498388 0.824841
vt 1.000000 0.062500
vt 0.125000 0.062500
vt 1.000000 0.562500
vt 0.625000 1.000000
vt 0.625000 0.562500
vt 0.414228 0.999936
vt 0.000064 0.000064
vt 0.414228 0.000064
vt 0.728557 0.730837
vt 0.730837 0.271443
vt 0.271443 0.269163
vt 0.000000 1.000000
vt 0.000000 0.562500
vt 1.000000 0.125000
vt 0.000000 0.375000
vt 0.000000 0.125000
vt 0.000064 0.500000
vt 0.414228 0.500000
vt 0.414228 0.999936
vt 0.000064 0.500000
vt 0.414228 0.500000
vt 0.414228 0.500000
vt 0.000064 0.999936
vt 0.000064 0.500000
vt 0.414228 0.500000
vt 0.000064 0.500000
vt 0.000064 0.500000
vt 0.414228 0.500000
vt 1.000000 0.375000
vt 1.000000 0.625000
vt 0.000000 0.625000
vt 0.000064 0.999936
vt 0.000064 0.500000
vt 0.812444 0.999910
vt 0.000090 0.000090
vt 0.812444 0.000090
vt 1.000000 0.187500
vt -0.000000 0.250000
vt 1.000000 0.250000
vt 0.000000 0.312500
vt 1.000000 0.312500
vt 0.000000 0.187500
vt 1.000000 0.000000
vt 0.000000 0.000000
vt 0.000064 0.000064
vt 0.000064 0.000064
vt 0.414228 0.000064
vt 1.000000 0.875000
vt 0.875000 0.750000
vt -0.000000 0.687500
vt 0.999900 0.292935
vt 0.999900 0.707065
vt 0.707065 0.999900
vt 0.000100 0.707065
vt 0.000100 0.292935
vt 0.875000 0.437500
vt 0.750000 0.562500
vt 0.824833 0.497184
vt 0.726062 0.733282
vt 0.502816 0.824833
vt 0.175167 0.502816
vt 0.497184 0.175167
vt 0.414228 0.000064
vt 0.725196 0.734118
vt 0.824841 0.498388
vt 0.734118 0.274804
vt 0.274804 0.265882
vt 0.265882 0.725196
vt 0.274804 0.734118
vt 0.501612 0.175159
vt 0.175159 0.498388
vt 0.265882 0.274804
vt 0.725196 0.265882
vt 0.000064 0.999936
vt 0.175295 0.490468
vt 0.269163 0.728557
vt 0.490468 0.824705
vt 0.824705 0.509532
vt 0.509532 0.175295
vt 0.000064 0.999936
vt 0.000090 0.999910
s 0
usemtl all
f 5/1/1 3/2/1 1/3/1
f 3/2/2 8/4/2 4/5/2
f 2/9/4 8/10/4 6/11/4
f 5/12/6 2/9/6 6/13/6
f 21/17/4 23/18/4 15/19/4
f 25/20/11 28/2/11 27/21/11
f 27/22/12 30/23/12 29/24/12
f 29/25/13 32/26/13 31/9/13
f 31/27/14 34/28/14 33/29/14
f 33/30/15 36/31/15 35/3/15
f 35/32/16 38/33/16 37/4/16
f 37/25/17 40/26/17 39/9/17
f 39/20/18 26/2/18 25/21/18
f 31/34/3 35/35/3 39/36/3
f 42/37/19 43/38/19 41/39/19
f 44/40/20 45/21/20 43/20/20
f 46/41/21 47/9/21 45/25/21
f 48/42/22 49/29/22 47/27/22
f 50/43/23 51/44/23 49/45/23
f 51/20/24 54/2/24 53/21/24
f 54/34/5 50/35/5 46/36/5
f 54/46/25 55/47/25 53/48/25
f 56/49/26 41/50/26 55/51/26
f 58/55/19 59/56/19 57/57/19
f 60/58/20 61/59/20 59/60/20
f 62/42/21 63/29/21 61/27/21
f 64/58/22 65/59/22 63/60/22
f 65/45/23 68/61/23 67/44/23
f 67/62/24 70/63/24 69/64/24
f 70/34/5 66/35/5 62/36/5
f 70/46/25 71/47/25 69/48/25
f 72/25/26 57/15/26 71/65/26
f 74/69/19 75/3/19 73/30/19
f 76/60/20 77/11/20 75/70/20
f 78/71/21 79/72/21 77/73/21
f 80/74/22 81/75/22 79/76/22
f 81/65/23 84/9/23 83/15/23
f 83/20/24 86/2/24 85/21/24
f 86/40/25 87/21/25 85/20/25
f 88/32/26 73/80/26 87/81/26
f 79/34/3 83/35/3 87/36/3
f 90/8/19 138/80/19 137/7/19
f 92/31/20 139/7/20 138/15/20
f 94/82/21 140/83/21 139/84/21
f 140/7/22 98/6/22 141/80/22
f 98/46/23 142/85/23 141/86/23
f 100/87/24 143/88/24 142/89/24
f 143/90/25 104/91/25 144/92/25
f 104/82/26 137/83/26 144/84/26
f 106/37/19 130/93/19 129/94/19
f 108/46/20 131/95/20 130/96/20
f 110/8/21 132/80/21 131/7/21
f 132/84/22 114/97/22 133/83/22
f 114/98/23 134/29/23 133/99/23
f 134/7/24 118/6/24 135/80/24
f 118/82/25 136/83/25 135/84/25
f 136/96/26 106/100/26 129/101/26
f 125/102/1 123/103/1 121/104/1
f 122/9/4 128/10/4 126/11/4
f 136/96/26 105/50/26 119/51/26
f 135/111/25 119/106/25 117/112/25
f 134/97/24 117/99/24 115/83/24
f 133/8/23 115/80/23 113/7/23
f 111/106/22 133/31/22 113/15/22
f 131/82/21 111/83/21 109/84/21
f 130/96/20 109/113/20 107/51/20
f 129/94/19 107/38/19 105/39/19
f 144/98/26 89/29/26 103/99/26
f 143/90/25 103/47/25 101/48/25
f 142/89/24 101/64/24 99/62/24
f 141/86/23 99/114/23 97/115/23
f 95/84/22 141/97/22 97/83/22
f 93/99/21 140/116/21 95/29/21
f 138/98/20 93/29/20 91/99/20
f 137/111/19 91/106/19 89/112/19
f 5/1/1 7/117/1 3/2/1
f 3/2/2 7/72/2 8/4/2
f 2/9/4 4/5/4 8/10/4
f 5/12/6 1/3/6 2/9/6
f 23/18/4 9/119/4 11/120/4
f 11/120/4 13/121/4 23/18/4
f 13/121/4 15/19/4 23/18/4
f 15/19/4 17/122/4 19/123/4
f 19/123/4 21/17/4 15/19/4
f 25/20/27 26/40/27 28/2/27
f 27/22/28 28/124/28 30/23/28
f 29/25/29 30/41/29 32/26/29
f 31/27/30 32/42/30 34/28/30
f 33/30/31 34/69/31 36/31/31
f 35/32/32 36/125/32 38/33/32
f 37/25/33 38/41/33 40/26/33
f 39/20/34 40/40/34 26/2/34
f 39/36/3 25/126/3 27/127/3
f 27/127/3 29/128/3 31/34/3
f 31/34/3 33/129/3 35/35/3
f 35/35/3 37/130/3 39/36/3
f 39/36/3 27/127/3 31/34/3
f 42/37/19 44/131/19 43/38/19
f 44/40/20 46/2/20 45/21/20
f 46/41/21 48/26/21 47/9/21
f 48/42/22 50/28/22 49/29/22
f 50/43/23 52/61/23 51/44/23
f 51/20/24 52/40/24 54/2/24
f 46/36/5 44/126/5 42/127/5
f 42/127/5 56/128/5 54/34/5
f 54/34/5 52/129/5 50/35/5
f 50/35/5 48/130/5 46/36/5
f 46/36/5 42/127/5 54/34/5
f 54/46/25 56/91/25 55/47/25
f 56/49/26 42/100/26 41/50/26
f 58/55/19 60/116/19 59/56/19
f 60/58/20 62/1/20 61/59/20
f 62/42/21 64/28/21 63/29/21
f 64/58/22 66/1/22 65/59/22
f 65/45/23 66/43/23 68/61/23
f 67/62/24 68/87/24 70/63/24
f 62/36/5 60/126/5 58/127/5
f 58/127/5 72/128/5 70/34/5
f 70/34/5 68/129/5 66/35/5
f 66/35/5 64/130/5 62/36/5
f 62/36/5 58/127/5 70/34/5
f 70/46/25 72/91/25 71/47/25
f 72/25/26 58/9/26 57/15/26
f 74/69/19 76/31/19 75/3/19
f 76/60/20 78/59/20 77/11/20
f 78/71/21 80/6/21 79/72/21
f 80/74/22 82/142/22 81/75/22
f 81/65/23 82/25/23 84/9/23
f 83/20/24 84/40/24 86/2/24
f 86/40/25 88/2/25 87/21/25
f 88/32/26 74/4/26 73/80/26
f 87/36/3 73/126/3 75/127/3
f 75/127/3 77/128/3 79/34/3
f 79/34/3 81/129/3 83/35/3
f 83/35/3 85/130/3 87/36/3
f 87/36/3 75/127/3 79/34/3
f 90/8/19 92/6/19 138/80/19
f 92/31/20 94/8/20 139/7/20
f 94/82/21 96/97/21 140/83/21
f 140/7/22 96/8/22 98/6/22
f 98/46/23 100/148/23 142/85/23
f 100/87/24 102/63/24 143/88/24
f 143/90/25 102/46/25 104/91/25
f 104/82/26 90/97/26 137/83/26
f 106/37/19 108/131/19 130/93/19
f 108/46/20 110/100/20 131/95/20
f 110/8/21 112/6/21 132/80/21
f 132/84/22 112/82/22 114/97/22
f 114/98/23 116/116/23 134/29/23
f 134/7/24 116/8/24 118/6/24
f 118/82/25 120/97/25 136/83/25
f 136/96/26 120/49/26 106/100/26
f 125/102/1 127/149/1 123/103/1
f 122/9/4 124/5/4 128/10/4
f 136/96/26 129/101/26 105/50/26
f 135/111/25 136/107/25 119/106/25
f 134/97/24 135/98/24 117/99/24
f 133/8/23 134/6/23 115/80/23
f 111/106/22 132/107/22 133/31/22
f 131/82/21 132/97/21 111/83/21
f 130/96/20 131/95/20 109/113/20
f 129/94/19 130/93/19 107/38/19
f 144/98/26 137/116/26 89/29/26
f 143/90/25 144/92/25 103/47/25
f 142/89/24 143/88/24 101/64/24
f 141/86/23 142/85/23 99/114/23
f 95/84/22 140/82/22 141/97/22
f 93/99/21 139/98/21 140/116/21
f 138/98/20 139/116/20 93/29/20
f 137/111/19 138/107/19 91/106/19
usemtl volute
f 38/34/5 34/35/5 30/36/5
f 47/52/3 51/53/3 55/54/3
f 67/66/3 69/67/3 71/68/3
f 86/77/5 82/78/5 78/79/5
f 30/36/5 28/126/5 26/127/5
f 26/127/5 40/128/5 38/34/5
f 38/34/5 36/129/5 34/35/5
f 34/35/5 32/130/5 30/36/5
f 30/36/5 26/127/5 38/34/5
f 55/54/3 41/132/3 43/133/3
f 43/133/3 45/134/3 47/52/3
f 47/52/3 49/135/3 51/53/3
f 51/53/3 53/136/3 55/54/3
f 55/54/3 43/133/3 47/52/3
f 71/68/3 57/137/3 63/138/3
f 57/137/3 59/139/3 63/138/3
f 59/139/3 61/140/3 63/138/3
f 63/138/3 65/141/3 71/68/3
f 65/141/3 67/66/3 71/68/3
f 78/79/5 76/143/5 74/144/5
f 74/144/5 88/145/5 86/77/5
f 86/77/5 84/146/5 82/78/5
f 82/78/5 80/147/5 78/79/5
f 78/79/5 74/144/5 86/77/5
usemtl ionic
f 7/6/3 6/7/3 8/8/3
f 1/6/5 4/7/5 2/8/5
f 12/14/7 13/15/7 11/16/7
f 14/14/5 15/15/5 13/16/5
f 16/14/8 17/15/8 15/16/8
f 20/14/9 21/15/9 19/16/9
f 22/14/3 23/15/3 21/16/3
f 24/14/10 9/15/10 23/16/10
f 123/69/2 128/84/2 124/82/2
f 127/105/3 126/106/3 128/107/3
f 121/107/5 124/108/5 122/109/5
f 125/82/6 122/110/6 126/105/6
f 7/6/3 5/80/3 6/7/3
f 1/6/5 3/80/5 4/7/5
f 12/14/7 14/118/7 13/15/7
f 14/14/5 16/118/5 15/15/5
f 16/14/8 18/118/8 17/15/8
f 20/14/9 22/118/9 21/15/9
f 22/14/3 24/118/3 23/15/3
f 24/14/10 10/118/10 9/15/10
f 123/69/2 127/65/2 128/84/2
f 127/105/3 125/110/3 126/106/3
f 121/107/5 123/106/5 124/108/5
f 125/82/6 121/84/6 122/110/6
