# Blender 5.1.2
# www.blender.org
mtllib large_tuscan_capital.mtl
o Cube.292
v 1.490736 1.000004 -0.490738
v 1.490736 0.793753 -0.490738
v 1.490736 1.000004 1.490738
v 1.490736 0.793753 1.490738
v -0.490738 1.000004 -0.490738
v -0.490738 0.793753 -0.490738
v -0.490738 1.000004 1.490738
v -0.490738 0.793753 1.490738
v 0.130088 0.175005 -0.393041
v 0.130088 0.319950 -0.393041
v 0.869910 0.175005 -0.393041
v 0.869910 0.319950 -0.393041
v 1.393043 0.175005 0.130094
v 1.393043 0.319950 0.130094
v 1.393043 0.175005 0.869913
v 1.393043 0.319950 0.869913
v 0.869910 0.175005 1.393048
v 0.869910 0.319950 1.393048
v 0.130088 0.175005 1.393048
v 0.130088 0.319950 1.393048
v -0.393046 0.175005 0.869913
v -0.393046 0.319950 0.869913
v -0.393046 0.175005 0.130094
v -0.393046 0.319950 0.130094
v 0.819535 0.319950 -0.271427
v 0.180462 0.319950 -0.271427
v 1.271428 0.319950 0.180468
v 1.271428 0.319950 0.819539
v 0.819535 0.319950 1.271433
v 0.180462 0.319950 1.271433
v -0.271431 0.319950 0.819539
v -0.271431 0.319950 0.180468
v 0.819535 0.649949 -0.271427
v 0.180462 0.649949 -0.271427
v 1.271428 0.649949 0.180468
v 1.271428 0.649949 0.819539
v 0.819535 0.649949 1.271433
v 0.180462 0.649949 1.271433
v -0.271431 0.649949 0.819539
v -0.271431 0.649949 0.180468
v 0.856047 0.649949 -0.359574
v 0.143950 0.649949 -0.359574
v 1.359575 0.649949 0.143955
v 1.359575 0.649949 0.856051
v 0.856047 0.649949 1.359581
v 0.143950 0.649949 1.359581
v -0.359578 0.649949 0.856051
v -0.359578 0.649949 0.143955
v 0.910374 0.711826 -0.490731
v 0.089623 0.711826 -0.490731
v 1.490733 0.711826 0.089629
v 1.490733 0.711826 0.910381
v 0.910374 0.711826 1.490738
v 0.089623 0.711826 1.490738
v -0.490736 0.711826 0.910381
v -0.490736 0.711826 0.089629
v -0.490738 0.793946 0.089629
v -0.490738 0.793946 0.910381
v 0.908483 0.793946 -0.490734
v 0.089623 0.794040 -0.490731
v 1.490735 0.793946 0.089629
v 1.490735 0.793895 0.908960
v 0.910374 0.793946 1.490738
v 0.091042 0.793895 1.490738
v 0.499999 1.000004 1.490738
v 0.499999 1.000004 -0.490738
v 0.499999 0.175005 1.393048
v 0.499999 0.319950 1.393048
v 0.499999 0.319950 1.271433
v 0.499999 0.649949 1.271433
v 0.499999 0.649949 1.359581
v 0.499999 0.711826 1.490738
v 0.500708 0.793920 1.490738
v 1.490736 1.000004 0.500000
v -0.490738 1.000004 0.500000
v 0.499999 1.000004 0.500000
v 1.393043 0.175005 0.500003
v 1.393043 0.319950 0.500003
v 1.271428 0.319950 0.500003
v 1.271428 0.649949 0.500003
v 1.359575 0.649949 0.500003
v 1.490733 0.711826 0.500005
v 1.490735 0.793920 0.499295
v -0.393046 0.175005 0.500003
v -0.393046 0.319950 0.500003
v -0.271431 0.319950 0.500003
v -0.271431 0.649949 0.500003
v -0.359578 0.649949 0.500003
v -0.490736 0.711826 0.500005
v -0.490738 0.793946 0.500005
v 0.499999 0.175005 -0.393041
v 0.499999 0.319950 -0.393041
v 0.499999 0.319950 -0.271427
v 0.499999 0.649949 -0.271427
v 0.499999 0.649949 -0.359574
v 0.499999 0.711826 -0.490731
v 0.499053 0.793993 -0.490733
vn -0.0000 1.0000 -0.0000
vn -0.0000 -0.0000 1.0000
vn -1.0000 -0.0000 -0.0000
vn 1.0000 -0.0000 -0.0000
vn 0.0005 -1.0000 0.0003
vn -0.0000 -0.0000 -1.0000
vn 0.7071 -0.0000 -0.7071
vn 0.7071 -0.0000 0.7071
vn -0.7071 -0.0000 0.7071
vn -0.7071 -0.0000 -0.7071
vn -0.0000 -1.0000 -0.0000
vn -0.4267 -0.9044 -0.0000
vn -0.0000 -0.9044 0.4267
vn 0.4267 -0.9044 -0.0000
vn -0.0000 -0.9044 -0.4267
vn -0.3017 -0.9044 -0.3017
vn -0.3017 -0.9044 0.3017
vn 0.3017 -0.9044 0.3017
vn 0.3017 -0.9044 -0.3017
vn 0.0002 -1.0000 -0.0003
vn -0.0003 -1.0000 -0.0002
vn -0.0003 -1.0000 0.0003
vn -0.7062 0.0122 0.7079
vn 0.7079 0.0122 0.7062
vn 0.7059 0.0162 -0.7082
vt 0.062500 0.812500
vt 0.812500 0.062500
vt 0.812500 0.812500
vt 0.499291 0.546544
vt 0.292555 0.546533
vt 0.499649 0.456483
vt 0.499649 0.018983
vt 0.706027 0.109055
vt 0.499291 0.109044
vt 0.499649 0.768983
vt 0.706027 0.859055
vt 0.499291 0.859044
vt 0.209820 0.790186
vt 0.209812 0.209814
vt 0.790179 0.209814
vt 0.562225 0.560841
vt 0.195587 0.442259
vt 0.562225 0.442259
vt 0.774079 0.935841
vt 0.040803 0.817259
vt 0.774079 0.817259
vt 0.874725 0.935841
vt 0.508087 0.817259
vt 0.874725 0.817259
vt 0.774079 0.685841
vt 0.040803 0.567259
vt 0.774079 0.567259
vt 0.812225 0.185841
vt 0.445587 0.067259
vt 0.812225 0.067259
vt 0.961579 0.873341
vt 0.228303 0.754759
vt 0.961579 0.754759
vt 0.611339 0.319211
vt 0.699815 0.942225
vt 0.611339 0.990680
vt 0.374725 0.248341
vt 0.008087 0.129759
vt 0.374725 0.129759
vt 0.961579 0.123341
vt 0.228303 0.004759
vt 0.961579 0.004759
vt 0.996248 0.500000
vt 0.500000 0.996248
vt 0.003752 0.500000
vt 0.441182 0.371101
vt 0.174267 0.691399
vt 0.174267 0.371101
vt 0.548839 0.357105
vt 0.637315 0.069825
vt 0.637315 0.357105
vt 0.548837 0.357110
vt 0.637317 0.069821
vt 0.637317 0.357110
vt 0.699815 0.367666
vt 0.361337 0.256701
vt 0.449817 0.879735
vt 0.361338 0.928191
vt 0.673837 0.357110
vt 0.762317 0.069821
vt 0.762317 0.357110
vt 0.798837 0.990691
vt 0.887317 0.367657
vt 0.887317 0.942235
vt 0.048839 0.544605
vt 0.137315 0.257325
vt 0.137315 0.544605
vt 0.875081 0.915362
vt 0.810775 0.306525
vt 0.875080 0.333162
vt 0.430332 0.058601
vt 0.163418 0.378899
vt 0.163418 0.058601
vt 0.742832 0.121101
vt 0.475918 0.441399
vt 0.475918 0.121101
vt 0.860665 0.308601
vt 0.326835 0.628899
vt 0.326835 0.308601
vt 0.798165 0.121101
vt 0.264335 0.441399
vt 0.264335 0.121101
vt 0.985665 0.621101
vt 0.451835 0.941399
vt 0.451835 0.621101
vt 0.451835 0.941399
vt 0.930332 0.058601
vt 0.663418 0.378899
vt 0.663418 0.058601
vt 0.851090 0.075700
vt 0.960274 0.400996
vt 0.851090 0.400996
vt 0.562581 0.717104
vt 0.498275 0.426004
vt 0.562580 0.426004
vt 0.937581 0.967104
vt 0.873275 0.676004
vt 0.937580 0.676004
vt 0.437581 0.467104
vt 0.373275 0.176004
vt 0.437581 0.176004
vt 0.375081 0.904604
vt 0.310775 0.613504
vt 0.375081 0.613504
vt 0.750080 0.083162
vt 0.685775 0.691998
vt 0.685775 0.056525
vt 0.187581 0.727862
vt 0.123275 0.119025
vt 0.187581 0.145662
vt 0.125081 0.083162
vt 0.060775 0.691998
vt 0.060775 0.056525
vt 0.357016 0.878862
vt 0.753619 0.810037
vt 0.754306 0.878862
vt 0.226090 0.075700
vt 0.335274 0.400996
vt 0.226090 0.400996
vt 0.288590 0.450700
vt 0.397774 0.775996
vt 0.288590 0.775997
vt 0.038590 0.263200
vt 0.147774 0.588496
vt 0.038590 0.588497
vt 0.663590 0.237204
vt 0.772774 0.937431
vt 0.663590 0.887796
vt 0.038590 0.237204
vt 0.147774 0.937431
vt 0.038590 0.887796
vt 0.851090 0.887796
vt 0.960274 0.187569
vt 0.960274 0.937431
vt 0.413590 0.762796
vt 0.522774 0.062569
vt 0.522774 0.812431
vt 0.455800 0.128845
vt 0.852201 0.060055
vt 0.852888 0.128845
vt 0.330800 0.566345
vt 0.727201 0.497555
vt 0.727888 0.566345
vt 0.107093 0.253857
vt 0.503633 0.185042
vt 0.504321 0.253857
vt 0.835538 0.878874
vt 0.040678 0.810004
vt 0.834162 0.810046
vt 0.040722 0.378871
vt 0.834119 0.310050
vt 0.835495 0.378870
vt 0.165709 0.878872
vt 0.959131 0.810049
vt 0.960507 0.878872
vt 0.040610 0.566380
vt 0.834230 0.497540
vt 0.835606 0.566380
vt 0.500377 0.544962
vt 0.293761 0.544941
vt 0.500855 0.454933
vt 0.081643 0.852973
vt 0.082354 0.272623
vt 0.663416 0.853685
vt 0.727460 0.978057
vt 0.147107 0.977350
vt 0.728169 0.396288
vt 0.789507 0.209817
vt 0.789507 0.790183
vt 0.207254 0.209821
vt 0.187500 0.812500
vt 0.937500 0.062500
vt 0.937500 0.812500
vt 0.586005 0.128839
vt 0.981719 0.060070
vt 0.983093 0.128839
vt 0.226090 0.486800
vt 0.335274 0.161504
vt 0.335274 0.536435
vt 0.937580 0.593920
vt 0.873275 0.885020
vt 0.873275 0.567284
vt 0.048837 0.390282
vt 0.137317 0.677570
vt 0.048838 0.726027
vt 0.325733 0.371101
vt 0.058818 0.691399
vt 0.058818 0.371101
vt 0.994295 0.185841
vt 0.627657 0.067259
vt 0.994295 0.067259
vt 0.187500 0.937500
vt 0.937500 0.187500
vt 0.937500 0.937500
vt 0.062500 0.937500
vt 0.812500 0.187500
vt 0.812500 0.937500
vt 0.523505 0.566339
vt 0.919219 0.497570
vt 0.920593 0.566339
vt 0.288590 0.924300
vt 0.397774 0.599004
vt 0.397774 0.973935
vt 0.437581 0.031420
vt 0.373275 0.322520
vt 0.373275 0.004784
vt 0.336582 0.058601
vt 0.069668 0.378899
vt 0.069668 0.058601
vt 0.548837 0.202782
vt 0.637317 0.490070
vt 0.548837 0.538527
vt 0.994295 0.935841
vt 0.627657 0.817259
vt 0.994295 0.817259
vt 0.559487 0.878865
vt 0.955476 0.810049
vt 0.956852 0.878865
vt 0.562581 0.281420
vt 0.498275 0.572520
vt 0.498275 0.254784
vt 0.851090 0.549300
vt 0.960274 0.224004
vt 0.960274 0.598935
vt 0.774082 0.058601
vt 0.507168 0.378899
vt 0.507168 0.058601
vt 0.673837 0.140282
vt 0.762317 0.427570
vt 0.673837 0.476027
vt 0.556795 0.248341
vt 0.190157 0.129759
vt 0.556795 0.129759
vt 0.372028 0.253850
vt 0.767844 0.185064
vt 0.769219 0.253850
vt 0.038590 0.736800
vt 0.147774 0.411504
vt 0.147774 0.786435
vt 0.375081 0.468920
vt 0.310775 0.760020
vt 0.310775 0.442284
vt 0.586582 0.121101
vt 0.319668 0.441399
vt 0.319668 0.121101
vt 0.548839 0.202787
vt 0.637315 0.490067
vt 0.548839 0.538522
vt 0.744295 0.560841
vt 0.377657 0.442259
vt 0.744295 0.442259
vt 0.062500 0.062500
vt -0.000321 0.546617
vt -0.000321 0.456483
vt 0.999619 0.456483
vt 0.706027 0.546555
vt 0.999619 0.546617
vt 0.292555 0.109033
vt -0.000321 0.109117
vt -0.000321 0.018983
vt 0.999619 0.018983
vt 0.999619 0.109117
vt 0.292555 0.859033
vt -0.000321 0.859117
vt -0.000321 0.768983
vt 0.999619 0.768983
vt 0.999619 0.859117
vt 0.195587 0.560841
vt 0.040803 0.935841
vt 0.508087 0.935841
vt 0.040803 0.685841
vt 0.445587 0.185841
vt 0.228303 0.873341
vt 0.008087 0.248341
vt 0.228303 0.123341
vt 0.003752 0.294448
vt 0.294447 0.003752
vt 0.500000 0.003752
vt 0.705552 0.003752
vt 0.996248 0.294448
vt 0.996248 0.705552
vt 0.705552 0.996249
vt 0.294447 0.996248
vt 0.003752 0.705552
vt 0.441182 0.691399
vt 0.548839 0.021370
vt 0.548837 0.021365
vt 0.449817 0.305157
vt 0.673837 0.021365
vt 0.798837 0.319201
vt 0.048839 0.208870
vt 0.810775 0.941998
vt 0.430332 0.378899
vt 0.742832 0.441399
vt 0.860665 0.628899
vt 0.798165 0.441399
vt 0.985665 0.941399
vt 0.985665 0.941399
vt 0.930332 0.378899
vt 0.960274 0.026065
vt 0.498275 0.743740
vt 0.873275 0.993740
vt 0.373275 0.493740
vt 0.310775 0.931240
vt 0.750081 0.665362
vt 0.123275 0.754498
vt 0.125081 0.665362
vt 0.357016 0.810016
vt 0.335274 0.026065
vt 0.397774 0.401065
vt 0.147774 0.213565
vt 0.772774 0.187569
vt 0.147774 0.187569
vt 0.851090 0.237204
vt 0.413590 0.112204
vt 0.455800 0.060033
vt 0.330800 0.497533
vt 0.107093 0.185021
vt 0.040678 0.878874
vt 0.040722 0.310007
vt 0.165709 0.810006
vt 0.040610 0.497498
vt 1.000825 0.454933
vt 1.000824 0.545067
vt 0.706994 0.544983
vt 0.000885 0.545067
vt 0.000885 0.454933
vt 0.187500 0.062500
vt 0.585317 0.060049
vt 0.226090 0.161504
vt 0.937580 0.885020
vt 0.137317 0.390282
vt 0.325733 0.691399
vt 0.627657 0.185841
vt 0.187500 0.187500
vt 0.062500 0.187500
vt 0.522817 0.497549
vt 0.288590 0.599004
vt 0.437581 0.322520
vt 0.336582 0.378899
vt 0.637317 0.202782
vt 0.627657 0.935841
vt 0.558799 0.810027
vt 0.562581 0.572520
vt 0.851090 0.224004
vt 0.774082 0.378899
vt 0.762317 0.140282
vt 0.190157 0.248341
vt 0.371341 0.185042
vt 0.038590 0.411504
vt 0.375081 0.760020
vt 0.586582 0.441399
vt 0.637315 0.202787
vt 0.377657 0.560841
s 0
usemtl ionic_capital
f 75/1/1 65/2/1 76/3/1
f 73/4/2 63/5/2 65/6/2
f 75/7/3 57/8/3 90/9/3
f 74/10/4 62/11/4 83/12/4
f 57/13/5 6/14/5 60/15/5
f 92/16/6 11/17/6 91/18/6
f 12/19/7 13/20/7 11/21/7
f 78/22/4 15/23/4 77/24/4
f 16/25/8 17/26/8 15/27/8
f 68/28/2 19/29/2 67/30/2
f 20/31/9 21/32/9 19/33/9
f 24/34/1 26/35/1 10/36/1
f 85/37/3 23/38/3 84/39/3
f 24/40/10 9/41/10 23/42/10
f 77/43/11 67/44/11 84/45/11
f 29/46/2 70/47/2 69/48/2
f 92/49/1 26/50/1 93/51/1
f 78/52/1 27/53/1 79/54/1
f 22/36/1 30/55/1 31/35/1
f 16/56/1 29/57/1 18/58/1
f 85/59/1 31/60/1 86/61/1
f 14/62/1 25/63/1 27/64/1
f 68/65/1 29/66/1 69/67/1
f 33/68/11 43/69/11 35/70/11
f 27/71/4 80/72/4 79/73/4
f 26/74/6 94/75/6 93/76/6
f 32/77/10 34/78/10 26/79/10
f 30/80/9 39/81/9 31/82/9
f 28/83/8 37/84/8 29/85/8
f 25/83/7 35/86/7 27/85/7
f 31/87/3 87/88/3 86/89/3
f 47/90/12 89/91/12 88/92/12
f 39/93/11 88/94/11 87/95/11
f 37/96/11 71/97/11 70/98/11
f 35/99/11 81/100/11 80/101/11
f 34/102/11 95/103/11 94/104/11
f 34/105/11 48/106/11 42/107/11
f 38/108/11 47/109/11 39/110/11
f 37/111/11 44/112/11 45/113/11
f 55/114/3 90/115/3 89/116/3
f 45/117/13 72/118/13 71/119/13
f 43/120/14 82/121/14 81/122/14
f 42/123/15 96/124/15 95/125/15
f 48/126/16 50/127/16 42/128/16
f 46/129/17 55/130/17 47/131/17
f 45/132/18 52/133/18 53/134/18
f 43/135/19 49/136/19 51/137/19
f 53/138/2 73/139/2 72/140/2
f 51/141/4 83/142/4 82/143/4
f 50/144/6 97/145/6 96/146/6
f 50/147/10 57/148/10 60/149/10
f 54/150/9 58/151/9 55/152/9
f 52/153/8 63/154/8 53/155/8
f 49/156/7 61/157/7 51/158/7
f 97/159/6 60/160/6 66/161/6
f 8/162/20 58/163/20 64/164/20
f 4/165/21 63/166/21 62/167/21
f 2/168/22 61/169/22 59/170/22
f 76/171/1 3/172/1 74/173/1
f 72/174/2 64/175/2 54/176/2
f 46/177/13 72/178/13 54/179/13
f 38/180/11 71/181/11 46/182/11
f 68/183/1 30/184/1 20/185/1
f 69/186/2 38/187/2 30/188/2
f 18/189/2 67/190/2 17/191/2
f 66/192/1 74/193/1 1/194/1
f 5/195/1 76/196/1 66/197/1
f 82/198/4 62/199/4 52/200/4
f 44/201/14 82/202/14 52/203/14
f 36/204/11 81/205/11 44/206/11
f 79/207/4 36/208/4 28/209/4
f 78/210/1 28/211/1 16/212/1
f 14/213/4 77/214/4 13/215/4
f 89/216/3 57/217/3 56/218/3
f 40/219/11 88/220/11 48/221/11
f 48/222/12 89/223/12 56/224/12
f 86/225/3 40/226/3 32/227/3
f 85/228/1 32/229/1 24/230/1
f 22/231/3 84/232/3 21/233/3
f 96/234/6 59/235/6 49/236/6
f 41/237/15 96/238/15 49/239/15
f 33/240/11 95/241/11 41/242/11
f 93/243/6 33/244/6 25/245/6
f 92/246/1 25/247/1 12/248/1
f 10/249/6 91/250/6 9/251/6
f 75/1/1 7/252/1 65/2/1
f 63/5/2 4/253/2 3/254/2
f 65/6/2 7/255/2 64/256/2
f 7/255/2 8/257/2 64/256/2
f 63/5/2 3/254/2 65/6/2
f 64/256/2 73/4/2 65/6/2
f 58/258/3 8/259/3 7/260/3
f 75/7/3 5/261/3 57/8/3
f 5/261/3 6/262/3 57/8/3
f 58/258/3 7/260/3 75/7/3
f 90/9/3 58/258/3 75/7/3
f 61/263/4 2/264/4 1/265/4
f 74/10/4 3/266/4 62/11/4
f 3/266/4 4/267/4 62/11/4
f 61/263/4 1/265/4 74/10/4
f 83/12/4 61/263/4 74/10/4
f 92/16/6 12/268/6 11/17/6
f 12/19/7 14/269/7 13/20/7
f 78/22/4 16/270/4 15/23/4
f 16/25/8 18/271/8 17/26/8
f 68/28/2 20/272/2 19/29/2
f 20/31/9 22/273/9 21/32/9
f 24/34/1 32/55/1 26/35/1
f 85/37/3 24/274/3 23/38/3
f 24/40/10 10/275/10 9/41/10
f 23/276/11 9/277/11 91/278/11
f 91/278/11 11/279/11 13/280/11
f 77/43/11 15/281/11 67/44/11
f 15/281/11 17/282/11 67/44/11
f 91/278/11 13/280/11 77/43/11
f 84/45/11 23/276/11 91/278/11
f 19/283/11 21/284/11 67/44/11
f 21/284/11 84/45/11 67/44/11
f 84/45/11 91/278/11 77/43/11
f 29/46/2 37/285/2 70/47/2
f 92/49/1 10/286/1 26/50/1
f 78/52/1 14/287/1 27/53/1
f 22/36/1 20/34/1 30/55/1
f 16/56/1 28/288/1 29/57/1
f 85/59/1 22/289/1 31/60/1
f 14/62/1 12/290/1 25/63/1
f 68/65/1 18/291/1 29/66/1
f 33/68/11 41/292/11 43/69/11
f 27/71/4 35/293/4 80/72/4
f 26/74/6 34/294/6 94/75/6
f 32/77/10 40/295/10 34/78/10
f 30/80/9 38/296/9 39/81/9
f 28/83/8 36/297/8 37/84/8
f 25/83/7 33/298/7 35/86/7
f 31/87/3 39/299/3 87/88/3
f 47/90/12 55/300/12 89/91/12
f 39/93/11 47/301/11 88/94/11
f 37/96/11 45/302/11 71/97/11
f 35/99/11 43/303/11 81/100/11
f 34/102/11 42/304/11 95/103/11
f 34/105/11 40/305/11 48/106/11
f 38/108/11 46/306/11 47/109/11
f 37/111/11 36/307/11 44/112/11
f 55/114/3 58/308/3 90/115/3
f 45/117/13 53/309/13 72/118/13
f 43/120/14 51/310/14 82/121/14
f 42/123/15 50/311/15 96/124/15
f 48/126/16 56/312/16 50/127/16
f 46/129/17 54/313/17 55/130/17
f 45/132/18 44/314/18 52/133/18
f 43/135/19 41/315/19 49/136/19
f 53/138/2 63/316/2 73/139/2
f 51/141/4 61/317/4 83/142/4
f 50/144/6 60/318/6 97/145/6
f 50/147/10 56/319/10 57/148/10
f 54/150/23 64/320/23 58/151/23
f 52/153/24 62/321/24 63/154/24
f 49/156/25 59/322/25 61/157/25
f 1/323/6 2/324/6 59/325/6
f 1/323/6 59/325/6 66/161/6
f 59/325/6 97/159/6 66/161/6
f 6/326/6 5/327/6 60/160/6
f 5/327/6 66/161/6 60/160/6
f 76/171/1 65/328/1 3/172/1
f 72/174/2 73/329/2 64/175/2
f 46/177/13 71/330/13 72/178/13
f 38/180/11 70/331/11 71/181/11
f 68/183/1 69/332/1 30/184/1
f 69/186/2 70/333/2 38/187/2
f 18/189/2 68/334/2 67/190/2
f 66/192/1 76/335/1 74/193/1
f 5/195/1 75/336/1 76/196/1
f 82/198/4 83/337/4 62/199/4
f 44/201/14 81/338/14 82/202/14
f 36/204/11 80/339/11 81/205/11
f 79/207/4 80/340/4 36/208/4
f 78/210/1 79/341/1 28/211/1
f 14/213/4 78/342/4 77/214/4
f 89/216/3 90/343/3 57/217/3
f 40/219/11 87/344/11 88/220/11
f 48/222/12 88/345/12 89/223/12
f 86/225/3 87/346/3 40/226/3
f 85/228/1 86/347/1 32/229/1
f 22/231/3 85/348/3 84/232/3
f 96/234/6 97/349/6 59/235/6
f 41/237/15 95/350/15 96/238/15
f 33/240/11 94/351/11 95/241/11
f 93/243/6 94/352/6 33/244/6
f 92/246/1 93/353/1 25/247/1
f 10/249/6 92/354/6 91/250/6
