# Blender 5.1.2
# www.blender.org
mtllib large_roman_corinthian_capital.mtl
o Cube.306
v 0.199351 -0.625444 -0.222901
v 0.199351 -0.533798 -0.222901
v 0.800649 -0.625444 -0.222901
v 0.800649 -0.533798 -0.222901
v 1.225830 -0.625444 0.202280
v 1.225830 -0.533798 0.202280
v 1.225830 -0.625444 0.803577
v 1.225830 -0.533798 0.803577
v 0.800649 -0.625444 1.228759
v 0.800649 -0.533798 1.228759
v 0.199351 -0.625444 1.228759
v 0.199351 -0.533798 1.228759
v -0.225830 -0.625444 0.803577
v -0.225830 -0.533798 0.803577
v -0.225830 -0.625444 0.202280
v -0.225830 -0.533798 0.202280
v 0.770894 -0.533798 -0.151066
v 0.229106 -0.533798 -0.151066
v 1.153996 -0.533798 0.232035
v 1.153996 -0.533798 0.773823
v 0.770894 -0.533798 1.156924
v 0.229106 -0.533798 1.156924
v -0.153995 -0.533798 0.773823
v -0.153995 -0.533798 0.232035
v 0.796766 0.291202 -0.213529
v 0.203234 0.291202 -0.213529
v 1.216457 0.291202 0.206162
v 1.216457 0.291202 0.799695
v 0.796766 0.291202 1.219385
v 0.203234 0.291202 1.219385
v -0.216457 0.291202 0.799695
v -0.216457 0.291202 0.206162
v 0.796766 0.703702 -0.213529
v 0.203234 0.703702 -0.213529
v 1.216457 0.703702 0.206162
v 1.216457 0.703702 0.799695
v 0.796766 0.703702 1.219385
v 0.203234 0.703702 1.219385
v -0.216457 0.703702 0.799695
v -0.216457 0.703702 0.206162
v 0.202557 -0.162548 -0.215162
v 0.797443 -0.162548 -0.215162
v -0.218091 -0.162548 0.205486
v 0.202557 -0.162548 1.221020
v -0.218091 -0.162548 0.800372
v 1.218091 -0.162548 0.800372
v 0.797443 -0.162548 1.221020
v 1.218091 -0.162548 0.205486
v 0.229586 -0.162548 -0.149908
v -0.152836 -0.162548 0.232515
v 0.229586 -0.162548 1.155765
v 1.152836 -0.162548 0.773342
v 0.770414 -0.162548 -0.149908
v -0.152836 -0.162548 0.773342
v 0.770414 -0.162548 1.155765
v 1.152836 -0.162548 0.232515
v 0.176640 0.291202 -0.277733
v -0.280661 0.291202 0.179568
v 0.176640 0.291202 1.283589
v 1.280661 0.291202 0.826289
v 0.823360 0.291202 -0.277733
v -0.280661 0.291202 0.826289
v 0.823360 0.291202 1.283589
v 1.280661 0.291202 0.179568
v 0.589908 0.882057 1.252244
v 0.589913 0.855485 1.331906
v 0.627125 0.796823 1.223811
v 0.627130 0.770251 1.303474
v 0.589907 0.711588 1.195383
v 0.589912 0.685016 1.275046
v 0.500055 0.676281 1.183613
v 0.500061 0.649710 1.263275
v 0.410205 0.711585 1.195394
v 0.410210 0.685014 1.275057
v 0.372988 0.796819 1.223827
v 0.372993 0.770248 1.303490
v 0.410206 0.882054 1.252255
v 0.410211 0.855482 1.331918
v 0.500057 0.917361 1.264026
v 0.500062 0.890789 1.343688
v -0.249312 0.882057 0.592837
v -0.328974 0.855485 0.592842
v -0.220879 0.796823 0.630054
v -0.300542 0.770251 0.630059
v -0.192451 0.711588 0.592836
v -0.272114 0.685016 0.592841
v -0.180680 0.676281 0.502985
v -0.260343 0.649710 0.502990
v -0.192462 0.711585 0.413134
v -0.272124 0.685014 0.413139
v -0.220894 0.796819 0.375917
v -0.300557 0.770248 0.375922
v -0.249322 0.882054 0.413135
v -0.328985 0.855482 0.413140
v -0.261093 0.917361 0.502986
v -0.340756 0.890789 0.502991
v 0.409021 0.882057 -0.246380
v 0.409016 0.855485 -0.326043
v 0.371804 0.796823 -0.217948
v 0.371799 0.770251 -0.297610
v 0.409022 0.711588 -0.189519
v 0.409017 0.685016 -0.269182
v 0.498873 0.676281 -0.177748
v 0.498868 0.649710 -0.257411
v 0.588723 0.711585 -0.189529
v 0.588719 0.685014 -0.269192
v 0.625941 0.796819 -0.217961
v 0.625936 0.770248 -0.297624
v 0.588723 0.882054 -0.246390
v 0.588718 0.855482 -0.326052
v 0.498872 0.917361 -0.258161
v 0.498867 0.890789 -0.337824
v 1.249313 0.882057 0.410878
v 1.328975 0.855485 0.410874
v 1.220881 0.796823 0.373661
v 1.300543 0.770252 0.373656
v 1.192452 0.711589 0.410878
v 1.272115 0.685017 0.410874
v 1.180680 0.676282 0.500729
v 1.260343 0.649710 0.500725
v 1.192461 0.711586 0.590580
v 1.272124 0.685014 0.590576
v 1.220893 0.796820 0.627797
v 1.300556 0.770248 0.627793
v 1.249321 0.882055 0.590580
v 1.328984 0.855483 0.590576
v 1.261093 0.917361 0.500729
v 1.340756 0.890789 0.500724
v 0.348887 0.615624 1.242369
v 0.348884 0.615624 1.186945
v 0.324324 0.556323 1.242371
v 0.324321 0.556323 1.186947
v 0.348887 0.497023 1.242369
v 0.348884 0.497023 1.186945
v 0.408187 0.472460 1.242366
v 0.408184 0.472460 1.186942
v 0.467488 0.497023 1.242362
v 0.467485 0.497023 1.186938
v 0.492051 0.556323 1.242361
v 0.492048 0.556323 1.186937
v 0.467488 0.615623 1.242362
v 0.467485 0.615623 1.186938
v 0.408188 0.640186 1.242366
v 0.408184 0.640186 1.186942
v 0.651701 0.615622 1.186936
v 0.651704 0.615622 1.242360
v 0.676264 0.556322 1.186935
v 0.676267 0.556322 1.242359
v 0.651701 0.497022 1.186936
v 0.651704 0.497022 1.242360
v 0.592400 0.472458 1.186939
v 0.592403 0.472458 1.242363
v 0.533100 0.497021 1.186943
v 0.533103 0.497021 1.242367
v 0.508537 0.556322 1.186944
v 0.508540 0.556322 1.242368
v 0.533100 0.615622 1.186943
v 0.533103 0.615622 1.242367
v 0.592400 0.640185 1.186939
v 0.592403 0.640185 1.242363
v -0.184007 0.615622 0.653547
v -0.239431 0.615622 0.653550
v -0.184006 0.556322 0.678110
v -0.239430 0.556322 0.678113
v -0.184008 0.497022 0.653547
v -0.239431 0.497022 0.653550
v -0.184010 0.472458 0.594247
v -0.239434 0.472458 0.594250
v -0.184013 0.497021 0.534947
v -0.239437 0.497021 0.534949
v -0.184015 0.556322 0.510384
v -0.239438 0.556322 0.510386
v -0.184013 0.615622 0.534947
v -0.239437 0.615622 0.534949
v -0.184010 0.640185 0.594247
v -0.239434 0.640185 0.594250
v -0.239439 0.615624 0.351812
v -0.184015 0.615624 0.351808
v -0.239441 0.556323 0.327248
v -0.184017 0.556323 0.327245
v -0.239439 0.497023 0.351811
v -0.184015 0.497023 0.351808
v -0.239436 0.472460 0.411112
v -0.184012 0.472460 0.411109
v -0.239433 0.497023 0.470412
v -0.184009 0.497023 0.470409
v -0.239431 0.556323 0.494975
v -0.184007 0.556323 0.494972
v -0.239433 0.615623 0.470412
v -0.184009 0.615623 0.470409
v -0.239436 0.640186 0.411112
v -0.184012 0.640186 0.411109
v 0.651122 0.615624 -0.236511
v 0.651125 0.615624 -0.181087
v 0.675685 0.556323 -0.236512
v 0.675688 0.556323 -0.181088
v 0.651122 0.497023 -0.236511
v 0.651125 0.497023 -0.181087
v 0.591822 0.472460 -0.236508
v 0.591825 0.472460 -0.181084
v 0.532522 0.497023 -0.236505
v 0.532525 0.497023 -0.181081
v 0.507959 0.556323 -0.236504
v 0.507962 0.556323 -0.181080
v 0.532522 0.615623 -0.236505
v 0.532525 0.615623 -0.181081
v 0.591822 0.640186 -0.236508
v 0.591825 0.640186 -0.181084
v 0.348306 0.615622 -0.181080
v 0.348304 0.615622 -0.236504
v 0.323743 0.556322 -0.181079
v 0.323741 0.556322 -0.236503
v 0.348306 0.497022 -0.181081
v 0.348304 0.497022 -0.236504
v 0.407607 0.472458 -0.181083
v 0.407604 0.472458 -0.236507
v 0.466907 0.497021 -0.181086
v 0.466904 0.497021 -0.236510
v 0.491470 0.556322 -0.181087
v 0.491468 0.556322 -0.236511
v 0.466907 0.615622 -0.181086
v 0.466905 0.615622 -0.236510
v 0.407607 0.640185 -0.181083
v 0.407604 0.640185 -0.236507
v 1.184010 0.615622 0.352316
v 1.239434 0.615622 0.352314
v 1.184009 0.556322 0.327753
v 1.239433 0.556322 0.327751
v 1.184010 0.497022 0.352316
v 1.239434 0.497022 0.352314
v 1.184012 0.472458 0.411616
v 1.239436 0.472458 0.411614
v 1.184015 0.497021 0.470917
v 1.239439 0.497021 0.470914
v 1.184016 0.556322 0.495480
v 1.239439 0.556322 0.495477
v 1.184015 0.615622 0.470917
v 1.239439 0.615622 0.470915
v 1.184012 0.640185 0.411616
v 1.239436 0.640185 0.411614
v -0.322887 0.683525 1.421910
v -0.372500 0.683526 1.315521
v -0.370037 0.557927 1.443898
v -0.419650 0.557927 1.337509
v -0.322887 0.432329 1.421910
v -0.372500 0.432329 1.315521
v -0.209058 0.380304 1.368828
v -0.258670 0.380304 1.262439
v -0.095228 0.432329 1.315745
v -0.144840 0.432329 1.209357
v -0.048078 0.557927 1.293758
v -0.097691 0.557927 1.187369
v -0.095228 0.683525 1.315745
v -0.144840 0.683526 1.209357
v -0.209058 0.735550 1.368828
v -0.258670 0.735550 1.262439
v 0.128621 0.307346 1.081832
v 0.178234 0.307346 1.188221
v 0.225384 0.432945 1.166234
v 0.175771 0.432945 1.059845
v 0.178234 0.558543 1.188221
v 0.128621 0.558543 1.081832
v -0.313433 0.683526 1.374587
v -0.419823 0.683526 1.324979
v -0.335418 0.557928 1.421738
v -0.441809 0.557928 1.372130
v -0.313433 0.432329 1.374587
v -0.419823 0.432329 1.324979
v -0.260355 0.380305 1.260755
v -0.366746 0.380305 1.211147
v -0.207278 0.432329 1.146923
v -0.313669 0.432329 1.097315
v -0.185292 0.557928 1.099772
v -0.291683 0.557928 1.050164
v -0.207278 0.683526 1.146923
v -0.313669 0.683526 1.097315
v -0.260355 0.735551 1.260755
v -0.366746 0.735551 1.211147
v -0.184080 0.305312 0.819395
v -0.077689 0.305312 0.869003
v -0.055704 0.430910 0.821852
v -0.162095 0.430910 0.772245
v -0.077689 0.556508 0.869003
v -0.184080 0.556508 0.819395
v -0.421910 0.683525 -0.322893
v -0.315521 0.683526 -0.372505
v -0.443897 0.557927 -0.370043
v -0.337508 0.557927 -0.419655
v -0.421910 0.432329 -0.322893
v -0.315521 0.432329 -0.372505
v -0.368827 0.380304 -0.209063
v -0.262439 0.380304 -0.258675
v -0.315745 0.432329 -0.095233
v -0.209356 0.432329 -0.144846
v -0.293758 0.557927 -0.048084
v -0.187369 0.557927 -0.097696
v -0.315745 0.683525 -0.095233
v -0.209356 0.683526 -0.144846
v -0.368827 0.735550 -0.209063
v -0.262439 0.735550 -0.258675
v -0.079400 0.304961 0.133834
v -0.185788 0.304961 0.183447
v -0.163801 0.430560 0.230597
v -0.057412 0.430560 0.180984
v -0.185788 0.556158 0.183447
v -0.079400 0.556158 0.133834
v 1.313438 0.683526 -0.374588
v 1.419829 0.683526 -0.324979
v 1.335424 0.557928 -0.421738
v 1.441814 0.557928 -0.372130
v 1.313438 0.432329 -0.374588
v 1.419829 0.432329 -0.324979
v 1.260360 0.380305 -0.260756
v 1.366750 0.380305 -0.211147
v 1.207282 0.432329 -0.146924
v 1.313672 0.432329 -0.097316
v 1.185296 0.557928 -0.099774
v 1.291687 0.557928 -0.050165
v 1.207282 0.683526 -0.146924
v 1.313672 0.683526 -0.097316
v 1.260360 0.735551 -0.260756
v 1.366750 0.735551 -0.211148
v 1.182823 0.304078 0.183303
v 1.076433 0.304078 0.133695
v 1.054447 0.429676 0.180846
v 1.160838 0.429676 0.230454
v 1.076433 0.555274 0.133695
v 1.182823 0.555274 0.183303
v -0.374585 0.683526 -0.313437
v -0.324977 0.683526 -0.419827
v -0.421736 0.557928 -0.335422
v -0.372128 0.557928 -0.441813
v -0.374585 0.432329 -0.313437
v -0.324977 0.432329 -0.419827
v -0.260753 0.380305 -0.260359
v -0.211145 0.380305 -0.366750
v -0.146921 0.432329 -0.207281
v -0.097313 0.432329 -0.313672
v -0.099771 0.557928 -0.185296
v -0.050163 0.557928 -0.291686
v -0.146921 0.683526 -0.207281
v -0.097313 0.683526 -0.313672
v -0.260753 0.735551 -0.260359
v -0.211145 0.735551 -0.366750
v 0.181872 0.304733 -0.183493
v 0.132264 0.304733 -0.077102
v 0.179415 0.430332 -0.055117
v 0.229023 0.430332 -0.161507
v 0.132264 0.555930 -0.077102
v 0.181872 0.555930 -0.183493
v 1.322893 0.683525 -0.421912
v 1.372505 0.683526 -0.315523
v 1.370043 0.557927 -0.443899
v 1.419655 0.557927 -0.337510
v 1.322893 0.432329 -0.421912
v 1.372505 0.432329 -0.315523
v 1.209063 0.380304 -0.368830
v 1.258675 0.380304 -0.262441
v 1.095233 0.432329 -0.315748
v 1.144845 0.432329 -0.209359
v 1.048083 0.557927 -0.293761
v 1.097695 0.557927 -0.187372
v 1.095233 0.683525 -0.315748
v 1.144845 0.683526 -0.209359
v 1.209063 0.735550 -0.368830
v 1.258675 0.735550 -0.262441
v 0.864995 0.304427 -0.078858
v 0.815383 0.304427 -0.185247
v 0.768233 0.430025 -0.163260
v 0.817845 0.430025 -0.056871
v 0.815383 0.555624 -0.185247
v 0.864995 0.555624 -0.078858
v 1.421915 0.683525 1.322886
v 1.315526 0.683526 1.372498
v 1.443902 0.557927 1.370035
v 1.337514 0.557927 1.419648
v 1.421915 0.432329 1.322886
v 1.315526 0.432329 1.372498
v 1.368832 0.380304 1.209056
v 1.262443 0.380304 1.258669
v 1.315749 0.432329 1.095226
v 1.209360 0.432329 1.144839
v 1.293761 0.557927 1.048077
v 1.187373 0.557927 1.097690
v 1.315749 0.683525 1.095226
v 1.209360 0.683526 1.144839
v 1.368832 0.735550 1.209056
v 1.262443 0.735550 1.258669
v 1.081531 0.307048 0.870727
v 1.187920 0.307048 0.821114
v 1.165932 0.432647 0.773964
v 1.059544 0.432647 0.823577
v 1.187920 0.558245 0.821114
v 1.081531 0.558245 0.870727
v 1.374590 0.683526 1.313429
v 1.324983 0.683526 1.419820
v 1.421741 0.557928 1.335414
v 1.372134 0.557928 1.441805
v 1.374590 0.432329 1.313429
v 1.324983 0.432329 1.419820
v 1.260758 0.380305 1.260352
v 1.211151 0.380305 1.366743
v 1.146926 0.432329 1.207275
v 1.097318 0.432329 1.313666
v 1.099775 0.557928 1.185290
v 1.050167 0.557928 1.291681
v 1.146926 0.683526 1.207275
v 1.097318 0.683526 1.313666
v 1.260758 0.735551 1.260352
v 1.211151 0.735551 1.366743
v 0.805991 0.299185 1.177828
v 0.855599 0.299185 1.071437
v 0.808448 0.424783 1.049452
v 0.758841 0.424783 1.155843
v 0.855599 0.550381 1.071437
v 0.805991 0.550381 1.177828
v -0.402275 0.871222 0.500000
v 1.402276 1.000128 0.500000
v -0.402275 1.000128 0.500000
v 1.402276 0.871222 0.500000
v 0.500000 0.871222 -0.402275
v 0.500000 1.000128 1.402276
v 0.500000 0.871222 1.402276
v 0.500000 1.000128 -0.402275
v 0.500000 0.687348 0.500001
v 0.500000 1.000128 0.500000
v 1.668715 1.000128 -0.574519
v 1.574520 1.000128 -0.668714
v 1.574520 0.871222 -0.668714
v 1.668715 0.871222 -0.574519
v 1.574520 1.000128 1.668715
v 1.668715 1.000128 1.574520
v 1.668715 0.871222 1.574520
v 1.574520 0.871222 1.668715
v -0.574519 1.000128 -0.668714
v -0.668714 1.000128 -0.574519
v -0.668714 0.871222 -0.574519
v -0.574519 0.871222 -0.668714
v -0.668714 1.000128 1.574520
v -0.574519 1.000128 1.668715
v -0.574519 0.871222 1.668715
v -0.668714 0.871222 1.574520
v -0.229500 0.871222 0.500001
v 1.229501 0.871222 0.500001
v 0.500000 0.871222 -0.229500
v 0.500000 0.871222 1.229501
v 1.444919 0.871222 -0.368761
v 1.368762 0.871222 -0.444919
v -0.444919 0.871222 1.368762
v -0.368761 0.871222 1.444920
v 1.368762 0.871222 1.444920
v 1.444919 0.871222 1.368762
v -0.368761 0.871222 -0.444919
v -0.444919 0.871222 -0.368761
v -0.229500 0.687348 0.500001
v 1.229501 0.687348 0.500001
v 0.500000 0.687348 -0.229500
v 0.500000 0.687348 1.229501
v 1.444919 0.687348 -0.368761
v 1.368762 0.687348 -0.444919
v -0.444919 0.687348 1.368762
v -0.368761 0.687348 1.444920
v 1.368762 0.687348 1.444920
v 1.444919 0.687348 1.368762
v -0.368761 0.687348 -0.444919
v -0.444919 0.687348 -0.368761
v 1.239439 0.615624 0.654055
v 1.184015 0.615624 0.654057
v 1.239440 0.556323 0.678618
v 1.184016 0.556323 0.678620
v 1.239439 0.497023 0.654055
v 1.184015 0.497023 0.654057
v 1.239436 0.472460 0.594754
v 1.184012 0.472460 0.594757
v 1.239433 0.497023 0.535454
v 1.184009 0.497023 0.535457
v 1.239432 0.556323 0.510891
v 1.184008 0.556323 0.510894
v 1.239433 0.615623 0.535454
v 1.184009 0.615623 0.535457
v 1.239436 0.640186 0.594754
v 1.184012 0.640186 0.594757
vn -0.0000 -0.0000 -1.0000
vn 0.7071 -0.0000 -0.7071
vn 1.0000 -0.0000 -0.0000
vn 0.7071 -0.0000 0.7071
vn -0.0000 -0.0000 1.0000
vn -0.7071 -0.0000 0.7071
vn -0.0000 1.0000 -0.0000
vn -1.0000 -0.0000 -0.0000
vn -0.7071 -0.0000 -0.7071
vn -0.0000 -1.0000 -0.0000
vn 0.9854 -0.1701 -0.0000
vn -0.0000 -0.1701 0.9854
vn -0.9854 -0.1701 -0.0000
vn 0.6968 -0.1701 -0.6968
vn 0.6968 -0.1701 0.6968
vn -0.6968 -0.1701 0.6968
vn -0.6968 -0.1701 -0.6968
vn -0.0000 -0.1701 -0.9854
vn 0.9625 -0.2712 -0.0000
vn -0.0000 -0.2712 0.9625
vn -0.9625 -0.2712 -0.0000
vn 0.6806 -0.2712 -0.6806
vn 0.6806 -0.2712 0.6806
vn -0.6806 -0.2712 0.6806
vn -0.6806 -0.2712 -0.6806
vn -0.0000 -0.2712 -0.9625
vn 0.9239 0.3630 0.1210
vn 0.9239 -0.3630 -0.1211
vn 0.3827 -0.8764 -0.2924
vn -0.3827 -0.8764 -0.2923
vn -0.9239 -0.3630 -0.1210
vn -0.9239 0.3630 0.1211
vn 0.0001 -0.3164 0.9486
vn -0.3827 0.8764 0.2924
vn 0.3827 0.8764 0.2923
vn -0.0001 0.3164 -0.9486
vn -0.1210 0.3630 0.9239
vn 0.1211 -0.3630 0.9239
vn 0.2924 -0.8764 0.3827
vn 0.2923 -0.8764 -0.3827
vn 0.1210 -0.3630 -0.9239
vn -0.1211 0.3630 -0.9239
vn -0.9486 -0.3164 0.0001
vn -0.2924 0.8764 -0.3827
vn -0.2923 0.8764 0.3827
vn 0.9486 0.3164 -0.0001
vn -0.9239 0.3630 -0.1210
vn -0.9239 -0.3630 0.1211
vn -0.3827 -0.8764 0.2924
vn 0.3827 -0.8764 0.2923
vn 0.9239 -0.3630 0.1210
vn 0.9239 0.3630 -0.1211
vn -0.0001 -0.3164 -0.9486
vn 0.3827 0.8764 -0.2924
vn -0.3827 0.8764 -0.2923
vn 0.0001 0.3164 0.9486
vn 0.1210 0.3630 -0.9239
vn -0.1211 -0.3630 -0.9239
vn -0.2923 -0.8764 -0.3827
vn -0.2923 -0.8764 0.3827
vn -0.1210 -0.3630 0.9239
vn 0.1211 0.3630 0.9239
vn 0.9486 -0.3164 -0.0001
vn 0.2923 0.8764 0.3827
vn 0.2923 0.8764 -0.3827
vn -0.9486 0.3164 0.0001
vn -0.9239 0.3827 0.0001
vn -0.9239 -0.3827 0.0001
vn -0.3827 -0.9239 -0.0000
vn 0.3827 -0.9239 -0.0000
vn 0.9239 -0.3827 -0.0001
vn 0.9239 0.3827 -0.0001
vn -0.0001 -0.0000 -1.0000
vn 0.3827 0.9239 -0.0000
vn -0.3827 0.9239 -0.0000
vn 0.0001 -0.0000 1.0000
vn -0.0000 0.3827 0.9239
vn -0.0000 -0.3827 0.9239
vn -0.0000 -0.9239 0.3827
vn -0.0000 -0.9239 -0.3827
vn -0.0000 -0.3827 -0.9239
vn -0.0000 0.3827 -0.9239
vn -1.0000 -0.0000 0.0001
vn -0.0000 0.9239 -0.3827
vn -0.0000 0.9239 0.3827
vn 1.0000 -0.0000 -0.0001
vn -0.0001 0.3827 -0.9239
vn -0.0001 -0.3827 -0.9239
vn 0.0001 -0.3827 0.9239
vn 0.0001 0.3827 0.9239
vn 0.9239 0.3827 -0.0000
vn 0.9239 -0.3827 -0.0000
vn -0.9239 -0.3827 -0.0000
vn -0.9239 0.3827 -0.0000
vn -0.8373 0.3827 0.3905
vn -0.8373 -0.3827 0.3905
vn -0.3468 -0.9239 0.1617
vn 0.3468 -0.9239 -0.1617
vn 0.4226 -0.0000 0.9063
vn 0.3468 0.9239 -0.1617
vn -0.4226 -0.0000 -0.9063
vn -0.3468 0.9239 0.1617
vn 0.8373 -0.3827 -0.3905
vn 0.8373 0.3827 -0.3905
vn -0.3904 0.3827 0.8373
vn -0.3904 -0.3827 0.8373
vn -0.1617 -0.9239 0.3468
vn 0.1617 -0.9239 -0.3468
vn 0.9063 -0.0000 0.4226
vn 0.1617 0.9239 -0.3468
vn -0.9063 -0.0000 -0.4226
vn -0.1617 0.9239 0.3468
vn 0.3904 -0.3827 -0.8373
vn 0.3904 0.3827 -0.8373
vn -0.3905 0.3827 -0.8373
vn -0.3905 -0.3827 -0.8373
vn -0.1617 -0.9239 -0.3468
vn 0.1617 -0.9239 0.3468
vn 0.1617 0.9239 0.3468
vn -0.9063 -0.0000 0.4226
vn 0.9063 -0.0000 -0.4226
vn -0.1617 0.9239 -0.3468
vn 0.3905 -0.3827 0.8373
vn 0.3905 0.3827 0.8373
vn -0.8373 0.3827 -0.3904
vn -0.8373 -0.3827 -0.3904
vn -0.3468 -0.9239 -0.1617
vn 0.3468 -0.9239 0.1617
vn 0.3468 0.9239 0.1617
vn -0.4226 -0.0000 0.9063
vn 0.4226 -0.0000 -0.9063
vn -0.3468 0.9239 -0.1617
vn 0.8373 -0.3827 0.3904
vn 0.8373 0.3827 0.3904
vn 0.9706 -0.0000 0.2407
vn -0.2407 -0.0000 -0.9706
vn -0.2407 -0.0000 0.9706
vn 0.9706 -0.0000 -0.2407
vn 0.2407 -0.0000 -0.9706
vn -0.9706 -0.0000 0.2407
vn -0.9706 -0.0000 -0.2407
vn 0.2407 -0.0000 0.9706
vn 0.9486 -0.3164 -0.0000
vn -0.9486 0.3164 -0.0000
vt 0.355968 0.379284
vt 0.307665 0.886357
vt 0.307665 0.379284
vt 0.504408 0.066762
vt 0.456105 0.573836
vt 0.456105 0.066762
vt 0.762229 0.363664
vt 0.713926 0.870738
vt 0.713926 0.363664
vt 0.855989 0.340224
vt 0.807687 0.847297
vt 0.807687 0.340224
vt 0.246588 0.129262
vt 0.198285 0.636336
vt 0.198285 0.129262
vt 0.621609 0.238664
vt 0.573306 0.745738
vt 0.573306 0.238664
vt 0.701105 0.983901
vt 0.936677 0.680601
vt 0.984568 0.700438
vt 0.934109 0.027702
vt 0.885806 0.534776
vt 0.885806 0.027702
vt 0.137207 0.426143
vt 0.088904 0.933216
vt 0.088904 0.426143
vt 0.984962 0.701735
vt 0.300641 0.985190
vt 0.017186 0.300870
vt 0.656779 0.121503
vt 0.356115 0.152632
vt 0.343221 0.121503
vt 0.701105 0.016099
vt 0.320065 0.063990
vt 0.300228 0.016099
vt 0.064657 0.319399
vt 0.016766 0.299562
vt 0.300228 0.983901
vt 0.064657 0.680601
vt 0.320065 0.936010
vt 0.936677 0.319399
vt 0.984568 0.299562
vt 0.681268 0.936010
vt 0.681268 0.063990
vt 0.016766 0.700438
vt 0.513164 0.630495
vt 0.671280 0.994505
vt 0.513164 0.994505
vt 0.940232 0.344279
vt 0.909104 0.043611
vt 0.940232 0.030721
vt 0.721603 0.655721
vt 0.752732 0.956389
vt 0.721603 0.969279
vt 0.721603 0.093221
vt 0.752732 0.393889
vt 0.721603 0.406779
vt 0.346603 0.406779
vt 0.377731 0.106111
vt 0.377732 0.393889
vt 0.878497 0.656779
vt 0.847368 0.356115
vt 0.878497 0.343221
vt 0.343221 0.878497
vt 0.643885 0.847368
vt 0.656779 0.878497
vt 0.121503 0.656779
vt 0.152632 0.356115
vt 0.152632 0.643885
vt 0.605042 0.201332
vt 0.776436 0.615114
vt 0.362654 0.786508
vt 0.388164 0.005495
vt 0.546280 0.369505
vt 0.388164 0.369505
vt 0.700664 0.630495
vt 0.858780 0.994505
vt 0.700664 0.994505
vt 0.700665 0.005495
vt 0.858780 0.369505
vt 0.700665 0.369505
vt 0.638165 0.005495
vt 0.796280 0.369505
vt 0.638165 0.369505
vt 0.700665 0.567995
vt 0.858780 0.932005
vt 0.700665 0.932005
vt 0.138164 0.317995
vt 0.296280 0.682005
vt 0.138164 0.682005
vt 0.696432 0.580365
vt 0.866068 0.919635
vt 0.696432 0.919635
vt 0.508363 0.574998
vt 0.333878 0.286526
vt 0.508363 0.300002
vt 0.570863 0.300002
vt 0.396378 0.588474
vt 0.396378 0.286526
vt 0.945863 0.050002
vt 0.771378 0.338474
vt 0.771378 0.036526
vt 0.758363 0.762498
vt 0.583878 0.474026
vt 0.758363 0.487502
vt 0.383363 0.949998
vt 0.208878 0.661526
vt 0.383363 0.675002
vt 0.258363 0.050002
vt 0.083878 0.338474
vt 0.083878 0.036526
vt 0.883363 0.112502
vt 0.708878 0.400974
vt 0.708878 0.099026
vt 0.508363 0.762498
vt 0.333878 0.474026
vt 0.508363 0.487502
vt 0.695697 0.394213
vt 0.664059 0.118888
vt 0.695697 0.105788
vt 0.383197 0.956713
vt 0.351559 0.681388
vt 0.383197 0.668288
vt 0.820697 0.394213
vt 0.789059 0.118888
vt 0.820697 0.105788
vt 0.848165 0.644215
vt 0.816527 0.368890
vt 0.848165 0.355785
vt 0.355785 0.151835
vt 0.631110 0.183473
vt 0.368890 0.183473
vt 0.151835 0.355785
vt 0.183473 0.631110
vt 0.151835 0.644215
vt 0.644215 0.848165
vt 0.368890 0.816527
vt 0.631110 0.816527
vt 0.664058 0.605788
vt 0.695697 0.881112
vt 0.664058 0.894213
vt 0.062730 0.056391
vt 0.291304 0.344274
vt 0.062750 0.318625
vt 0.750250 0.318625
vt 0.978804 0.030726
vt 0.978804 0.344274
vt 0.312750 0.381125
vt 0.541304 0.093226
vt 0.541304 0.406774
vt 0.750230 0.681391
vt 0.978804 0.969275
vt 0.750250 0.943625
vt 0.500230 0.431391
vt 0.728804 0.719275
vt 0.500250 0.693625
vt 0.687750 0.943625
vt 0.916304 0.655725
vt 0.916304 0.969274
vt 0.312750 0.943625
vt 0.541304 0.655725
vt 0.541304 0.969274
vt 0.250230 0.368891
vt 0.478804 0.656774
vt 0.250250 0.631125
vt 0.454025 0.470168
vt 0.473702 0.517672
vt 0.454025 0.517672
vt 0.473702 0.517672
vt 0.454025 0.470168
vt 0.473702 0.470168
vt 0.475296 0.466320
vt 0.452431 0.521520
vt 0.452431 0.466320
vt 0.475296 0.521521
vt 0.452431 0.466320
vt 0.475296 0.466320
vt 0.473702 0.470168
vt 0.473702 0.517672
vt 0.454025 0.470168
vt 0.473702 0.470168
vt 0.108497 0.407882
vt 0.105618 0.288120
vt 0.225380 0.285241
vt 0.452431 0.466320
vt 0.475296 0.466320
vt 0.523150 0.477641
vt 0.523150 0.510200
vt 0.444546 0.477641
vt 0.475296 0.521521
vt 0.452431 0.466320
vt 0.475296 0.466320
vt 0.454025 0.470168
vt 0.473702 0.470168
vt 0.705461 0.237321
vt 0.702582 0.117559
vt 0.822344 0.114680
vt 0.475296 0.521520
vt 0.475296 0.466320
vt 0.452431 0.521521
vt 0.523150 0.477641
vt 0.523150 0.510200
vt 0.444546 0.477641
vt 0.454025 0.517672
vt 0.473702 0.517672
vt 0.790742 0.493163
vt 0.787863 0.373401
vt 0.907625 0.370522
vt 0.475296 0.521521
vt 0.452431 0.466320
vt 0.475296 0.466320
vt 0.467569 0.533222
vt 0.473702 0.470168
vt 0.454025 0.517672
vt 0.454025 0.470168
vt 0.475296 0.521521
vt 0.452431 0.466320
vt 0.454025 0.517672
vt 0.250184 0.773561
vt 0.310661 0.796925
vt 0.193778 0.919566
vt 0.444546 0.477641
vt 0.500128 0.454618
vt 0.523150 0.510200
vt 0.457339 0.509670
vt 0.470387 0.478170
vt 0.470387 0.509670
vt 0.470387 0.509670
vt 0.457340 0.478170
vt 0.471521 0.512406
vt 0.456206 0.475434
vt 0.471521 0.475434
vt 0.471521 0.512406
vt 0.457340 0.478170
vt 0.470387 0.478170
vt 0.470387 0.509670
vt 0.473487 0.468906
vt 0.494210 0.468906
vt 0.473487 0.518935
vt 0.456206 0.512406
vt 0.471521 0.512406
vt 0.604078 0.360745
vt 0.469058 0.304227
vt 0.467634 0.686714
vt 0.457340 0.509670
vt 0.457339 0.478170
vt 0.457340 0.509670
vt 0.602840 0.359508
vt 0.604310 0.629965
vt 0.333852 0.631434
vt 0.471521 0.512406
vt 0.471521 0.475434
vt 0.494209 0.468906
vt 0.508863 0.483559
vt 0.508863 0.504282
vt 0.456206 0.512406
vt 0.470387 0.478170
vt 0.457340 0.509670
vt 0.494210 0.468905
vt 0.508863 0.483559
vt 0.508863 0.504282
vt 0.457340 0.509670
vt 0.470387 0.509670
vt 0.456206 0.512406
vt 0.469385 0.686712
vt 0.508863 0.483559
vt 0.491068 0.653309
vt 0.436208 0.721692
vt 0.436208 0.653309
vt 0.241068 0.846692
vt 0.186208 0.778309
vt 0.241068 0.778309
vt 0.360779 0.842804
vt 0.419040 0.907196
vt 0.360779 0.907196
vt 0.169041 0.467804
vt 0.110780 0.532195
vt 0.110780 0.467804
vt 0.789302 0.550901
vt 0.750692 0.699099
vt 0.750692 0.507948
vt 0.534222 0.110155
vt 0.592483 0.264846
vt 0.534222 0.264846
vt 0.454004 0.421870
vt 0.513692 0.421870
vt 0.454004 0.565970
vt 0.493778 0.421699
vt 0.433948 0.566141
vt 0.433948 0.421700
vt 0.480081 0.454767
vt 0.447645 0.533074
vt 0.447645 0.454767
vt 0.478543 0.733875
vt 0.273347 0.530471
vt 0.476751 0.325274
vt 0.477681 0.460562
vt 0.450046 0.527278
vt 0.450046 0.460562
vt 0.477681 0.460562
vt 0.450046 0.460562
vt 0.782361 0.163835
vt 0.727759 0.336165
vt 0.727759 0.145013
vt 0.346722 0.610154
vt 0.404983 0.764846
vt 0.346722 0.764846
vt 0.063192 0.800901
vt 0.101801 0.949099
vt 0.063192 0.992052
vt 0.844862 0.520013
vt 0.790259 0.729987
vt 0.790259 0.538835
vt 0.803568 0.596691
vt 0.748708 0.528308
vt 0.803568 0.528308
vt 0.248708 0.284192
vt 0.303567 0.215808
vt 0.303567 0.284192
vt 0.794040 0.217804
vt 0.735779 0.282196
vt 0.735779 0.217804
vt 0.794040 0.155304
vt 0.735779 0.219696
vt 0.735779 0.155304
vt 0.163220 0.736845
vt 0.124610 0.888156
vt 0.124610 0.693891
vt 0.714466 0.171395
vt 0.656204 0.328605
vt 0.656204 0.171395
vt 0.477948 0.733877
vt 0.622323 0.673826
vt 0.332971 0.385323
vt 0.493950 0.566555
vt 0.433777 0.421286
vt 0.493950 0.421286
vt 0.480081 0.533074
vt 0.447645 0.454767
vt 0.480081 0.454767
vt 0.411529 0.463965
vt 0.513804 0.421601
vt 0.556167 0.523875
vt 0.477681 0.527278
vt 0.477681 0.460562
vt 0.788360 0.705956
vt 0.842962 0.919044
vt 0.788360 0.900221
vt 0.406205 0.233895
vt 0.464466 0.391105
vt 0.406205 0.391105
vt 0.749609 0.736845
vt 0.788219 0.888155
vt 0.749609 0.931109
vt 0.780463 0.143456
vt 0.725860 0.356544
vt 0.725860 0.162279
vt 0.748708 0.284192
vt 0.803568 0.215808
vt 0.803568 0.284192
vt 0.748709 0.909192
vt 0.803569 0.840808
vt 0.803569 0.909192
vt 0.169040 0.405304
vt 0.110779 0.469695
vt 0.110779 0.405304
vt 0.794040 0.780304
vt 0.735779 0.844696
vt 0.735779 0.780304
vt 0.213956 0.421179
vt 0.155695 0.578821
vt 0.155695 0.421179
vt 0.467642 0.143189
vt 0.413039 0.356811
vt 0.413039 0.162011
vt 0.453874 0.421555
vt 0.513823 0.421555
vt 0.453874 0.566285
vt 0.493979 0.566626
vt 0.433748 0.421215
vt 0.493979 0.421215
vt 0.480081 0.533074
vt 0.450046 0.527278
vt 0.413036 0.174078
vt 0.374427 0.325922
vt 0.374427 0.131125
vt 0.717641 0.724511
vt 0.663039 0.900489
vt 0.663039 0.705689
vt 0.963956 0.046179
vt 0.905696 0.203821
vt 0.905696 0.046179
vt 0.686927 0.111578
vt 0.725536 0.263422
vt 0.686927 0.306375
vt 0.491068 0.215809
vt 0.436209 0.284192
vt 0.436209 0.215809
vt 0.477681 0.527278
vt 0.477681 0.460562
vt 0.856541 0.655304
vt 0.798279 0.719696
vt 0.798279 0.655304
vt 0.794041 0.217804
vt 0.735780 0.282195
vt 0.735780 0.217804
vt 0.404422 0.170631
vt 0.462683 0.329369
vt 0.404422 0.329369
vt 0.724735 0.661335
vt 0.779338 0.838665
vt 0.724735 0.857487
vt 0.621898 0.384899
vt 0.494053 0.566805
vt 0.433673 0.421036
vt 0.494053 0.421036
vt 0.411367 0.463897
vt 0.513871 0.421439
vt 0.556329 0.523943
vt 0.475077 0.173401
vt 0.436467 0.326599
vt 0.436467 0.130448
vt 0.779337 0.473835
vt 0.724735 0.651165
vt 0.724735 0.455013
vt 0.525183 0.608131
vt 0.466922 0.766869
vt 0.466922 0.608131
vt 0.248967 0.360901
vt 0.287577 0.514099
vt 0.248967 0.557052
vt 0.116068 0.715808
vt 0.061208 0.784191
vt 0.061208 0.715808
vt 0.123709 0.153309
vt 0.178569 0.221692
vt 0.123709 0.221692
vt 0.548279 0.780305
vt 0.606540 0.844696
vt 0.548279 0.844696
vt 0.356541 0.655304
vt 0.298279 0.719696
vt 0.298279 0.655304
vt 0.493998 0.566672
vt 0.493998 0.421168
vt 0.725330 0.099337
vt 0.779932 0.275663
vt 0.725330 0.294485
vt 0.333396 0.674251
vt 0.433728 0.421168
vt 0.556243 0.463933
vt 0.556243 0.523907
vt 0.411453 0.463933
vt 0.787917 0.736403
vt 0.749307 0.888597
vt 0.749307 0.693450
vt 0.154932 0.411837
vt 0.100330 0.588163
vt 0.100330 0.393015
vt 0.717864 0.733537
vt 0.776125 0.891463
vt 0.717864 0.891463
vt 0.061807 0.423903
vt 0.100417 0.576097
vt 0.061807 0.619050
vt 0.123709 0.465809
vt 0.178569 0.534192
vt 0.123709 0.534192
vt 0.186208 0.778309
vt 0.241067 0.846692
vt 0.186208 0.846692
vt 0.356540 0.655304
vt 0.298279 0.719695
vt 0.298279 0.655304
vt 0.419041 0.655305
vt 0.360779 0.719696
vt 0.360779 0.655305
vt 0.411413 0.523924
vt 0.453845 0.566355
vt 0.088185 0.045848
vt 0.029924 0.204152
vt 0.029924 0.045848
vt 0.411413 0.463916
vt 0.453844 0.421485
vt 0.513852 0.421485
vt 0.494024 0.421106
vt 0.433703 0.566734
vt 0.433703 0.421106
vt 0.477681 0.527278
vt 0.450046 0.460562
vt 0.477681 0.460562
vt 0.217154 0.705281
vt 0.162552 0.919719
vt 0.162552 0.724103
vt 0.404923 0.170847
vt 0.463185 0.329153
vt 0.404923 0.329153
vt 0.162758 0.736169
vt 0.124148 0.888831
vt 0.124148 0.693215
vt 0.553568 0.653308
vt 0.498708 0.721691
vt 0.498708 0.653308
vt 0.803568 0.596691
vt 0.748708 0.528308
vt 0.803568 0.528308
vt 0.116068 0.159191
vt 0.061208 0.090808
vt 0.116068 0.090808
vt 0.803568 0.846691
vt 0.748708 0.778308
vt 0.803568 0.778308
vt 0.217035 0.422470
vt 0.158774 0.577530
vt 0.158774 0.422470
vt 0.719580 0.144785
vt 0.664977 0.355215
vt 0.664977 0.163607
vt 0.453988 0.421831
vt 0.513708 0.421831
vt 0.453988 0.566009
vt 0.493803 0.566202
vt 0.433923 0.421639
vt 0.493803 0.421639
vt 0.480081 0.533074
vt 0.681948 0.528678
vt 0.477681 0.527278
vt 0.450046 0.460562
vt 0.477681 0.460562
vt 0.601641 0.675673
vt 0.563031 0.824327
vt 0.563031 0.632720
vt 0.727477 0.144785
vt 0.782080 0.355215
vt 0.727477 0.336393
vt 0.779535 0.172470
vt 0.721274 0.327530
vt 0.721274 0.172470
vt 0.875532 0.425673
vt 0.914142 0.574327
vt 0.875532 0.617280
vt 0.741068 0.346691
vt 0.686208 0.278308
vt 0.741068 0.278308
vt 0.116068 0.778308
vt 0.061208 0.846691
vt 0.061208 0.778308
vt 0.803568 0.284191
vt 0.748708 0.215808
vt 0.803568 0.215808
vt 0.303568 0.846691
vt 0.248708 0.778308
vt 0.303568 0.778308
vt 0.285127 0.607159
vt 0.246517 0.767841
vt 0.246517 0.564205
vt 0.494460 0.420053
vt 0.494460 0.567787
vt 0.433266 0.420053
vt 0.410726 0.463632
vt 0.514136 0.420798
vt 0.556970 0.524208
vt 0.095462 0.388772
vt 0.150065 0.611229
vt 0.095462 0.592406
vt 0.397678 0.167604
vt 0.455939 0.332397
vt 0.397678 0.332397
vt 0.059017 0.419659
vt 0.097627 0.580341
vt 0.059017 0.623295
vt 0.587565 0.138772
vt 0.532962 0.361228
vt 0.532962 0.157594
vt 0.273335 0.546072
vt 0.205398 0.658402
vt 0.205398 0.546072
vt 0.904885 -0.796456
vt 0.522528 -0.776497
vt 0.522528 -0.796456
vt 0.273335 0.546073
vt 0.205398 0.546073
vt 0.389636 0.646651
vt 0.340225 0.728348
vt 0.340225 0.646651
vt 0.848443 0.010479
vt 0.780506 0.943997
vt 0.780506 0.010479
vt 0.507320 0.010479
vt 0.439384 0.943997
vt 0.439383 0.010479
vt 0.271902 0.107511
vt 0.873420 0.107511
vt 0.873420 0.709029
vt 0.394555 0.230790
vt 0.282750 0.799801
vt 0.282757 0.203046
vt 0.336759 0.010479
vt 0.268822 0.943997
vt 0.268822 0.010479
vt 0.894004 0.010479
vt 0.826067 0.943997
vt 0.826067 0.010479
vt 0.810624 0.107511
vt 0.695794 0.886655
vt 0.094276 0.285137
vt 0.259310 0.074529
vt 0.371115 0.643540
vt 0.259310 0.812573
vt 0.763162 0.010479
vt 0.695225 0.943997
vt 0.695225 0.010479
vt 0.972856 0.010479
vt 0.904920 0.943997
vt 0.904919 0.010479
vt 0.094276 0.170308
vt 0.157072 0.107511
vt 0.873420 0.285137
vt 0.753210 0.054987
vt 0.833505 0.257492
vt 0.761698 0.257482
vt 0.251479 0.010479
vt 0.183542 0.943997
vt 0.183542 0.010479
vt 0.592601 0.010479
vt 0.524664 0.943997
vt 0.524664 0.010479
vt 0.094276 0.285137
vt 0.873420 0.170308
vt 0.695794 0.886655
vt 0.323509 0.054987
vt 0.403804 0.257492
vt 0.331997 0.257482
vt 0.219872 0.773823
vt 0.129052 0.870729
vt 0.129052 0.773823
vt 0.013669 0.031516
vt 0.110575 0.786277
vt 0.013669 0.786277
vt 0.548133 0.031517
vt 0.645039 0.786277
vt 0.548133 0.786277
vt 0.983482 0.809627
vt 0.892662 0.906534
vt 0.892662 0.809627
vt 0.566435 0.090170
vt 0.454630 0.659181
vt 0.454638 0.062427
vt 0.154497 0.398748
vt 0.074202 0.601253
vt 0.065688 0.398748
vt 0.894576 0.129230
vt 0.782771 0.698241
vt 0.782778 0.101486
vt 0.103049 0.082350
vt 0.214853 0.651360
vt 0.103049 0.820394
vt 0.222674 0.215170
vt 0.110869 0.784181
vt 0.110877 0.187427
vt 0.806211 0.074529
vt 0.918016 0.643540
vt 0.806211 0.812573
vt 0.357617 0.578449
vt 0.277322 0.780953
vt 0.268809 0.578449
vt 0.673391 0.215170
vt 0.785196 0.784181
vt 0.673391 0.953215
vt 0.810944 0.764253
vt 0.760100 0.815008
vt 0.181015 0.671299
vt 0.181015 0.328701
vt 0.810944 0.235747
vt 0.667376 0.815008
vt 0.667376 0.815008
vt 0.181000 0.815008
vt 0.181015 0.328701
vt 0.181000 0.235747
vt 0.810929 0.328701
vt 0.324568 0.815008
vt 0.076169 0.168200
vt 0.173075 0.922960
vt 0.076169 0.922960
vt 0.340957 0.809628
vt 0.250137 0.906534
vt 0.250137 0.809628
vt 0.240889 0.037358
vt 0.337795 0.792119
vt 0.240889 0.792119
vt 0.593694 0.168200
vt 0.690600 0.922960
vt 0.593694 0.922960
vt 0.292291 0.207919
vt 0.389198 0.962680
vt 0.292291 0.962680
vt 0.426238 0.212664
vt 0.335418 0.309570
vt 0.335418 0.212664
vt 0.462853 0.230700
vt 0.559759 0.985460
vt 0.462853 0.985460
vt 0.462853 0.031516
vt 0.559759 0.786277
vt 0.462853 0.786277
vt 0.457339 0.478171
vt 0.470387 0.509670
vt 0.457339 0.509670
vt 0.355968 0.886357
vt 0.504408 0.573836
vt 0.762228 0.870738
vt 0.855989 0.847297
vt 0.246588 0.636336
vt 0.621609 0.745738
vt 0.934109 0.534776
vt 0.137207 0.933216
vt 0.701506 0.985190
vt 0.017186 0.701735
vt 0.300641 0.017415
vt 0.701506 0.017415
vt 0.984961 0.300870
vt 0.643885 0.152632
vt 0.671280 0.630495
vt 0.909103 0.331389
vt 0.752731 0.668611
vt 0.752731 0.106111
vt 0.346603 0.093221
vt 0.847368 0.643885
vt 0.356115 0.847368
vt 0.121503 0.343221
vt 0.776436 0.372726
vt 0.605042 0.786508
vt 0.191260 0.615114
vt 0.191260 0.372726
vt 0.362654 0.201332
vt 0.546280 0.005495
vt 0.858780 0.630495
vt 0.858780 0.005495
vt 0.796280 0.005495
vt 0.858780 0.567995
vt 0.296280 0.317995
vt 0.866068 0.580365
vt 0.333878 0.588474
vt 0.570863 0.574998
vt 0.945863 0.324998
vt 0.583878 0.775974
vt 0.208878 0.963474
vt 0.258363 0.324998
vt 0.883363 0.387498
vt 0.333878 0.775974
vt 0.664058 0.381112
vt 0.351558 0.943612
vt 0.789058 0.381112
vt 0.816527 0.631110
vt 0.644215 0.151835
vt 0.183473 0.368890
vt 0.355785 0.848165
vt 0.695696 0.618888
vt 0.291304 0.030725
vt 0.750230 0.056391
vt 0.312730 0.118891
vt 0.978804 0.655726
vt 0.728804 0.405726
vt 0.687730 0.681391
vt 0.312730 0.681391
vt 0.478804 0.343226
vt 0.452431 0.521521
vt 0.251623 0.344526
vt 0.228259 0.405003
vt 0.168975 0.431246
vt 0.082254 0.348598
vt 0.164903 0.261878
vt 0.452431 0.521521
vt 0.500128 0.533222
vt 0.444546 0.510200
vt 0.467569 0.454618
vt 0.500127 0.454618
vt 0.452431 0.521521
vt 0.454025 0.517672
vt 0.848587 0.173965
vt 0.825223 0.234442
vt 0.765939 0.260685
vt 0.679218 0.178037
vt 0.761867 0.091316
vt 0.500128 0.533222
vt 0.467569 0.533222
vt 0.444546 0.510200
vt 0.467569 0.454618
vt 0.500128 0.454618
vt 0.452431 0.521521
vt 0.454025 0.517672
vt 0.933868 0.429807
vt 0.910504 0.490284
vt 0.851219 0.516527
vt 0.764499 0.433878
vt 0.847148 0.347158
vt 0.473702 0.517672
vt 0.336904 0.856210
vt 0.313540 0.916687
vt 0.254255 0.942930
vt 0.167535 0.860281
vt 0.190899 0.799804
vt 0.500128 0.533222
vt 0.467569 0.533222
vt 0.444546 0.510200
vt 0.467569 0.454618
vt 0.523150 0.477641
vt 0.508863 0.483559
vt 0.508863 0.504282
vt 0.494210 0.518935
vt 0.458833 0.504282
vt 0.458833 0.483559
vt 0.333620 0.359738
vt 0.277103 0.494759
vt 0.332613 0.630197
vt 0.603073 0.631203
vt 0.659590 0.496182
vt 0.277104 0.496510
vt 0.332383 0.360977
vt 0.467307 0.304229
vt 0.659588 0.494432
vt 0.494209 0.518935
vt 0.473487 0.518935
vt 0.458833 0.504282
vt 0.458833 0.483559
vt 0.473487 0.468906
vt 0.470387 0.509670
vt 0.494210 0.518935
vt 0.473487 0.518935
vt 0.458833 0.504282
vt 0.458833 0.483559
vt 0.473487 0.468905
vt 0.491068 0.721692
vt 0.186208 0.846692
vt 0.419040 0.842804
vt 0.169041 0.532195
vt 0.789302 0.742052
vt 0.592483 0.110155
vt 0.555898 0.464076
vt 0.555898 0.523764
vt 0.513692 0.565970
vt 0.411798 0.523764
vt 0.411798 0.464076
vt 0.493778 0.566141
vt 0.621476 0.384478
vt 0.622743 0.673403
vt 0.333818 0.674670
vt 0.332551 0.385746
vt 0.782361 0.354987
vt 0.404983 0.610154
vt 0.101801 0.757948
vt 0.844862 0.711165
vt 0.748708 0.596691
vt 0.248708 0.215808
vt 0.794040 0.282196
vt 0.794040 0.219696
vt 0.163220 0.931109
vt 0.714466 0.328605
vt 0.681950 0.529274
vt 0.477346 0.325272
vt 0.273345 0.529875
vt 0.433777 0.566555
vt 0.447645 0.533074
vt 0.513804 0.566239
vt 0.453893 0.566239
vt 0.411529 0.523875
vt 0.453893 0.421601
vt 0.556167 0.463965
vt 0.842962 0.724779
vt 0.464466 0.233895
vt 0.788219 0.693891
vt 0.780463 0.337721
vt 0.748708 0.215809
vt 0.748709 0.840808
vt 0.169040 0.469695
vt 0.794040 0.844696
vt 0.213956 0.578821
vt 0.467642 0.337989
vt 0.556213 0.463946
vt 0.556213 0.523895
vt 0.513823 0.566285
vt 0.411483 0.523895
vt 0.411483 0.463946
vt 0.433748 0.566626
vt 0.477681 0.527278
vt 0.413036 0.368875
vt 0.717641 0.919311
vt 0.963956 0.203821
vt 0.725536 0.068625
vt 0.491068 0.284192
vt 0.856541 0.719696
vt 0.794041 0.282195
vt 0.462683 0.170631
vt 0.779338 0.642513
vt 0.433673 0.566805
vt 0.513871 0.566401
vt 0.453825 0.566401
vt 0.411367 0.523943
vt 0.453825 0.421439
vt 0.556329 0.463897
vt 0.475077 0.369552
vt 0.779337 0.669987
vt 0.525183 0.766869
vt 0.287577 0.317948
vt 0.116068 0.784191
vt 0.178568 0.153309
vt 0.606540 0.780305
vt 0.356541 0.719696
vt 0.779932 0.080515
vt 0.433728 0.566672
vt 0.513835 0.566315
vt 0.453861 0.566315
vt 0.411453 0.523907
vt 0.453861 0.421525
vt 0.513835 0.421525
vt 0.787917 0.931551
vt 0.154932 0.606986
vt 0.776125 0.733537
vt 0.100417 0.380949
vt 0.178569 0.465809
vt 0.241067 0.778309
vt 0.356540 0.719695
vt 0.419041 0.719696
vt 0.088185 0.204152
vt 0.556283 0.463916
vt 0.556283 0.523924
vt 0.513852 0.566355
vt 0.494024 0.566734
vt 0.450046 0.527278
vt 0.217154 0.900897
vt 0.463185 0.170847
vt 0.162758 0.931785
vt 0.553568 0.721691
vt 0.748708 0.596691
vt 0.061208 0.159191
vt 0.748708 0.846691
vt 0.217035 0.577530
vt 0.719580 0.336393
vt 0.555937 0.464060
vt 0.555937 0.523780
vt 0.513708 0.566009
vt 0.411759 0.523780
vt 0.411759 0.464060
vt 0.433923 0.566202
vt 0.450046 0.527278
vt 0.601641 0.867281
vt 0.782080 0.163608
vt 0.779535 0.327530
vt 0.914142 0.382719
vt 0.686208 0.346691
vt 0.116068 0.846691
vt 0.748708 0.284191
vt 0.248708 0.846691
vt 0.285127 0.810795
vt 0.494460 0.420053
vt 0.433266 0.567787
vt 0.514136 0.567042
vt 0.453560 0.567042
vt 0.410726 0.524208
vt 0.453560 0.420798
vt 0.556970 0.463632
vt 0.150065 0.407594
vt 0.455939 0.167604
vt 0.097627 0.376705
vt 0.587565 0.342406
vt 0.273335 0.658402
vt 0.904885 -0.776497
vt 0.389636 0.728348
vt 0.848443 0.943997
vt 0.507320 0.943997
vt 0.157072 0.886656
vt 0.094276 0.823859
vt 0.394555 0.968834
vt 0.336759 0.943997
vt 0.894004 0.943997
vt 0.873420 0.170307
vt 0.094276 0.886655
vt 0.371107 0.046786
vt 0.763162 0.943997
vt 0.972856 0.943997
vt 0.873420 0.886655
vt 0.271902 0.886655
vt 0.842019 0.054987
vt 0.251479 0.943997
vt 0.592601 0.943997
vt 0.810624 0.107511
vt 0.412318 0.054987
vt 0.219872 0.870729
vt 0.110575 0.031516
vt 0.645039 0.031517
vt 0.983482 0.906534
vt 0.566435 0.828214
vt 0.146009 0.601243
vt 0.894576 0.867274
vt 0.214846 0.054606
vt 0.222674 0.953214
vt 0.918008 0.046786
vt 0.349129 0.780944
vt 0.785189 0.187427
vt 0.181000 0.184992
vt 0.667376 0.184992
vt 0.180999 0.815008
vt 0.760100 0.184992
vt 0.760100 0.184992
vt 0.810944 0.235747
vt 0.231844 0.184992
vt 0.810944 0.815008
vt 0.173075 0.168200
vt 0.340957 0.906534
vt 0.337795 0.037358
vt 0.690600 0.168200
vt 0.389197 0.207919
vt 0.426238 0.309570
vt 0.559759 0.230700
vt 0.559759 0.031516
vt 0.470387 0.478171
s 0
usemtl corinthian
f 57/31/7 25/32/7 61/33/7
f 32/47/9 34/48/9 26/49/9
f 58/50/7 26/51/7 57/52/7
f 59/53/7 31/54/7 62/55/7
f 60/56/7 29/57/7 63/58/7
f 64/59/7 25/60/7 27/61/7
f 62/62/7 32/63/7 58/64/7
f 63/65/7 30/66/7 59/67/7
f 60/68/7 27/69/7 28/70/7
f 35/71/7 34/72/7 39/73/7
f 30/74/6 39/75/6 31/76/6
f 28/77/4 37/78/4 29/79/4
f 25/80/2 35/81/2 27/82/2
f 31/83/8 40/84/8 32/85/8
f 29/86/5 38/87/5 30/88/5
f 27/89/3 36/90/3 28/91/3
f 26/92/1 33/93/1 25/94/1
f 19/95/11 46/96/11 20/97/11
f 22/98/12 47/99/12 44/100/12
f 24/101/13 45/102/13 43/103/13
f 17/104/14 48/105/14 19/106/14
f 20/107/15 47/108/15 21/109/15
f 23/110/16 44/111/16 45/112/16
f 18/113/17 43/114/17 41/115/17
f 18/116/18 42/117/18 17/118/18
f 48/119/7 52/120/7 46/121/7
f 47/122/7 51/123/7 44/124/7
f 45/125/7 50/126/7 43/127/7
f 42/128/7 56/129/7 48/130/7
f 47/131/7 52/132/7 55/133/7
f 44/134/7 54/135/7 45/136/7
f 41/137/7 50/138/7 49/139/7
f 41/140/7 53/141/7 42/142/7
f 56/143/19 60/144/19 52/145/19
f 51/146/20 63/147/20 59/148/20
f 50/149/21 62/150/21 58/151/21
f 53/152/22 64/153/22 56/154/22
f 52/155/23 63/156/23 55/157/23
f 54/158/24 59/159/24 62/160/24
f 49/161/25 58/162/25 57/163/25
f 49/164/26 61/165/26 53/166/26
f 66/167/27 67/168/27 65/169/27
f 68/170/28 69/171/28 67/172/28
f 69/173/29 72/174/29 71/175/29
f 72/176/30 73/177/30 71/178/30
f 74/168/31 75/167/31 73/179/31
f 76/180/32 77/181/32 75/182/32
f 77/173/34 80/174/34 79/175/34
f 80/176/35 65/186/35 79/187/35
f 77/188/36 79/189/36 71/190/36
f 82/167/37 83/168/37 81/169/37
f 84/170/38 85/171/38 83/172/38
f 85/173/39 88/174/39 87/175/39
f 88/191/40 89/192/40 87/193/40
f 90/168/41 91/167/41 89/179/41
f 92/180/42 93/194/42 91/195/42
f 94/199/44 95/175/44 93/173/44
f 95/200/45 82/201/45 81/186/45
f 93/202/46 95/203/46 87/204/46
f 97/169/47 100/179/47 99/168/47
f 99/172/48 102/205/48 101/171/48
f 102/199/49 103/175/49 101/173/49
f 104/191/50 105/177/50 103/178/50
f 106/168/51 107/167/51 105/179/51
f 108/206/52 109/181/52 107/182/52
f 110/199/54 111/175/54 109/173/54
f 112/210/55 97/211/55 111/212/55
f 111/189/56 99/213/56 103/190/56
f 114/167/57 115/168/57 113/169/57
f 115/214/58 118/215/58 117/216/58
f 118/217/59 119/218/59 117/178/59
f 120/176/60 121/177/60 119/178/60
f 122/168/61 123/167/61 121/179/61
f 123/182/62 126/219/62 125/181/62
f 125/173/64 128/174/64 127/175/64
f 128/210/65 113/211/65 127/212/65
f 119/223/66 123/224/66 127/225/66
f 129/226/67 132/227/67 131/228/67
f 132/229/68 133/230/68 131/227/68
f 134/231/69 135/232/69 133/233/69
f 136/234/70 137/232/70 135/233/70
f 138/229/71 139/235/71 137/236/71
f 140/237/72 141/230/72 139/227/72
f 136/238/73 134/239/73 142/240/73
f 141/233/74 144/241/74 143/232/74
f 144/242/75 129/232/75 143/233/75
f 146/230/72 147/237/72 145/246/72
f 148/228/71 149/247/71 147/227/71
f 149/233/70 152/241/70 151/232/70
f 152/234/69 153/232/69 151/233/69
f 153/236/68 156/248/68 155/235/68
f 156/237/67 157/230/67 155/227/67
f 157/233/75 160/241/75 159/232/75
f 160/252/74 145/232/74 159/253/74
f 155/254/73 157/255/73 159/256/73
f 162/230/77 163/237/77 161/246/77
f 164/228/78 165/247/78 163/227/78
f 165/233/79 168/241/79 167/232/79
f 167/233/80 170/257/80 169/232/80
f 170/229/81 171/235/81 169/236/81
f 171/258/82 174/259/82 173/247/82
f 174/231/84 175/232/84 173/233/84
f 176/252/85 161/232/85 175/253/85
f 171/260/86 173/261/86 175/262/86
f 177/263/87 180/258/87 179/264/87
f 180/229/88 181/230/88 179/227/88
f 181/233/80 184/241/80 183/232/80
f 184/234/79 185/232/79 183/233/79
f 185/236/89 188/248/89 187/235/89
f 188/237/90 189/230/90 187/227/90
f 184/238/86 182/239/86 190/240/86
f 189/233/85 192/241/85 191/232/85
f 192/242/84 177/232/84 191/233/84
f 194/230/91 195/264/91 193/263/91
f 195/227/92 198/248/92 197/230/92
f 198/231/70 199/232/70 197/233/70
f 200/234/69 201/232/69 199/233/69
f 201/236/93 204/248/93 203/235/93
f 203/227/94 206/246/94 205/230/94
f 200/238/76 198/239/76 206/240/76
f 206/231/75 207/232/75 205/233/75
f 207/233/74 194/265/74 193/232/74
f 210/230/94 211/237/94 209/246/94
f 212/228/93 213/247/93 211/227/93
f 214/231/69 215/232/69 213/233/69
f 215/233/70 218/257/70 217/232/70
f 218/229/92 219/235/92 217/236/92
f 219/227/91 222/246/91 221/230/91
f 222/231/74 223/232/74 221/233/74
f 223/253/75 210/257/75 209/232/75
f 219/260/5 221/261/5 223/262/5
f 226/230/82 227/237/82 225/246/82
f 228/228/81 229/247/81 227/227/81
f 229/233/80 232/241/80 231/232/80
f 232/234/79 233/232/79 231/233/79
f 233/236/78 236/248/78 235/235/78
f 235/227/77 238/246/77 237/230/77
f 238/231/85 239/232/85 237/233/85
f 239/253/84 226/257/84 225/232/84
f 235/260/8 237/267/8 239/262/8
f 248/286/101 246/287/101 254/288/101
f 253/289/100 256/290/100 255/291/100
f 255/292/102 242/293/102 241/294/102
f 258/298/103 260/299/103 259/300/103
f 259/301/104 262/299/104 261/302/104
f 276/336/110 277/337/110 275/338/110
f 278/339/112 263/340/112 277/341/112
f 269/342/109 273/343/109 277/344/109
f 280/298/113 282/299/113 281/300/113
f 282/345/114 283/302/114 281/346/114
f 292/377/121 290/378/121 298/379/121
f 298/380/119 299/381/119 297/382/119
f 300/383/122 285/294/122 299/341/122
f 302/301/123 304/384/123 303/302/123
f 303/301/124 306/299/124 305/302/124
f 320/415/112 321/416/112 319/417/112
f 321/341/110 308/293/110 307/294/110
f 313/418/111 317/419/111 321/420/111
f 324/298/106 326/299/106 325/300/106
f 326/345/105 327/302/105 325/301/105
f 342/445/129 349/446/129 350/445/129
f 342/445/129 343/451/129 341/446/129
f 344/339/132 329/294/132 343/341/132
f 341/452/130 343/453/130 335/454/130
f 345/345/133 347/300/133 346/298/133
f 348/345/134 349/302/134 347/346/134
f 362/479/99 372/480/99 370/479/99
f 360/484/99 358/485/99 356/486/99
f 363/487/102 366/488/102 365/489/102
f 366/339/100 351/294/100 365/341/100
f 367/345/96 369/300/96 368/298/96
f 370/490/95 371/491/95 369/492/95
f 362/479/99 367/484/99 360/484/99
f 380/520/120 378/521/120 386/522/120
f 386/523/122 387/524/122 385/525/122
f 388/526/119 373/294/119 387/292/119
f 389/528/116 391/529/116 390/530/116
f 392/345/115 393/302/115 391/346/115
f 407/558/132 416/559/132 408/559/132
f 408/559/132 409/560/132 407/558/132
f 409/341/129 396/293/129 395/294/129
f 401/561/131 405/562/131 409/563/131
f 411/345/126 413/300/126 412/298/126
f 414/345/125 415/302/125 413/346/125
f 468/707/77 469/708/77 467/709/77
f 470/229/78 471/230/78 469/227/78
f 471/233/79 474/241/79 473/232/79
f 474/234/80 475/232/80 473/233/80
f 475/236/81 478/248/81 477/235/81
f 478/237/82 479/230/82 477/227/82
f 474/238/8 472/239/8 480/240/8
f 479/233/84 482/241/84 481/232/84
f 482/242/85 467/232/85 481/233/85
f 57/31/7 26/723/7 25/32/7
f 32/47/9 40/724/9 34/48/9
f 58/50/7 32/725/7 26/51/7
f 59/53/7 30/726/7 31/54/7
f 60/56/7 28/727/7 29/57/7
f 64/59/7 61/728/7 25/60/7
f 62/62/7 31/729/7 32/63/7
f 63/65/7 29/730/7 30/66/7
f 60/68/7 64/731/7 27/69/7
f 35/71/7 33/732/7 34/72/7
f 34/72/7 40/733/7 39/73/7
f 39/73/7 38/734/7 37/735/7
f 37/735/7 36/736/7 39/73/7
f 36/736/7 35/71/7 39/73/7
f 30/74/6 38/737/6 39/75/6
f 28/77/4 36/738/4 37/78/4
f 25/80/2 33/739/2 35/81/2
f 31/83/8 39/740/8 40/84/8
f 29/86/5 37/741/5 38/87/5
f 27/89/3 35/742/3 36/90/3
f 26/92/1 34/743/1 33/93/1
f 19/95/11 48/744/11 46/96/11
f 22/98/12 21/745/12 47/99/12
f 24/101/13 23/746/13 45/102/13
f 17/104/14 42/747/14 48/105/14
f 20/107/15 46/748/15 47/108/15
f 23/110/16 22/749/16 44/111/16
f 18/113/17 24/750/17 43/114/17
f 18/116/18 41/751/18 42/117/18
f 48/119/7 56/752/7 52/120/7
f 47/122/7 55/753/7 51/123/7
f 45/125/7 54/754/7 50/126/7
f 42/128/7 53/755/7 56/129/7
f 47/131/7 46/756/7 52/132/7
f 44/134/7 51/757/7 54/135/7
f 41/137/7 43/758/7 50/138/7
f 41/140/7 49/759/7 53/141/7
f 56/143/19 64/760/19 60/144/19
f 51/146/20 55/761/20 63/147/20
f 50/149/21 54/762/21 62/150/21
f 53/152/22 61/763/22 64/153/22
f 52/155/23 60/764/23 63/156/23
f 54/158/24 51/765/24 59/159/24
f 49/161/25 50/766/25 58/162/25
f 49/164/26 57/767/26 61/165/26
f 66/167/27 68/179/27 67/168/27
f 68/170/28 70/205/28 69/171/28
f 69/173/29 70/199/29 72/174/29
f 72/176/30 74/768/30 73/177/30
f 74/168/31 76/169/31 75/167/31
f 76/180/32 78/219/32 77/181/32
f 77/173/34 78/199/34 80/174/34
f 80/176/35 66/774/35 65/186/35
f 79/189/36 65/775/36 67/213/36
f 67/213/36 69/776/36 79/189/36
f 69/776/36 71/190/36 79/189/36
f 71/190/36 73/777/36 75/778/36
f 75/778/36 77/188/36 71/190/36
f 82/167/37 84/179/37 83/168/37
f 84/170/38 86/205/38 85/171/38
f 85/173/39 86/199/39 88/174/39
f 88/191/40 90/779/40 89/192/40
f 90/168/41 92/169/41 91/167/41
f 92/180/42 94/780/42 93/194/42
f 94/199/44 96/174/44 95/175/44
f 95/200/45 96/210/45 82/201/45
f 95/203/46 81/786/46 83/787/46
f 83/787/46 85/788/46 95/203/46
f 85/788/46 87/204/46 95/203/46
f 87/204/46 89/789/46 91/790/46
f 91/790/46 93/202/46 87/204/46
f 97/169/47 98/167/47 100/179/47
f 99/172/48 100/170/48 102/205/48
f 102/199/49 104/174/49 103/175/49
f 104/191/50 106/791/50 105/177/50
f 106/168/51 108/169/51 107/167/51
f 108/206/52 110/792/52 109/181/52
f 110/199/54 112/174/54 111/175/54
f 112/210/55 98/201/55 97/211/55
f 111/189/56 97/775/56 99/213/56
f 99/213/56 101/776/56 103/190/56
f 103/190/56 105/777/56 111/189/56
f 105/777/56 107/778/56 111/189/56
f 107/778/56 109/188/56 111/189/56
f 114/167/57 116/179/57 115/168/57
f 115/214/58 116/798/58 118/215/58
f 118/217/59 120/174/59 119/218/59
f 120/176/60 122/768/60 121/177/60
f 122/168/61 124/169/61 123/167/61
f 123/182/62 124/180/62 126/219/62
f 125/173/64 126/199/64 128/174/64
f 128/210/65 114/201/65 113/211/65
f 127/225/66 113/804/66 115/805/66
f 115/805/66 117/806/66 119/223/66
f 119/223/66 121/807/66 123/224/66
f 123/224/144 125/808/144 127/225/144
f 127/225/66 115/805/66 119/223/66
f 129/226/67 130/247/67 132/227/67
f 132/229/68 134/248/68 133/230/68
f 134/231/69 136/241/69 135/232/69
f 136/234/70 138/257/70 137/232/70
f 138/229/71 140/248/71 139/235/71
f 140/237/72 142/246/72 141/230/72
f 134/239/73 132/809/73 142/240/73
f 132/809/73 130/810/73 142/240/73
f 130/810/73 144/811/73 142/240/73
f 142/240/73 140/812/73 138/813/73
f 138/813/73 136/238/73 142/240/73
f 141/233/74 142/231/74 144/241/74
f 144/242/75 130/265/75 129/232/75
f 146/230/72 148/227/72 147/237/72
f 148/228/71 150/226/71 149/247/71
f 149/233/70 150/231/70 152/241/70
f 152/234/69 154/257/69 153/232/69
f 153/236/68 154/229/68 156/248/68
f 156/237/67 158/246/67 157/230/67
f 157/233/75 158/231/75 160/241/75
f 160/252/74 146/257/74 145/232/74
f 159/256/73 145/823/73 147/824/73
f 147/824/73 149/825/73 159/256/73
f 149/825/73 151/826/73 159/256/73
f 151/826/73 153/827/73 159/256/73
f 153/827/73 155/254/73 159/256/73
f 162/230/77 164/227/77 163/237/77
f 164/228/78 166/226/78 165/247/78
f 165/233/79 166/231/79 168/241/79
f 167/233/80 168/234/80 170/257/80
f 170/229/81 172/248/81 171/235/81
f 171/258/82 172/828/82 174/259/82
f 174/231/84 176/241/84 175/232/84
f 176/252/85 162/257/85 161/232/85
f 175/262/86 161/829/86 163/830/86
f 163/830/86 165/831/86 175/262/86
f 165/831/3 167/832/3 175/262/3
f 167/832/86 169/833/86 175/262/86
f 169/833/86 171/260/86 175/262/86
f 177/263/87 178/230/87 180/258/87
f 180/229/88 182/248/88 181/230/88
f 181/233/80 182/231/80 184/241/80
f 184/234/79 186/257/79 185/232/79
f 185/236/89 186/229/89 188/248/89
f 188/237/90 190/246/90 189/230/90
f 182/239/86 180/809/86 190/240/86
f 180/809/86 178/810/86 190/240/86
f 178/810/86 192/811/86 190/240/86
f 190/240/86 188/812/86 186/813/86
f 186/813/86 184/238/86 190/240/86
f 189/233/85 190/231/85 192/241/85
f 192/242/84 178/265/84 177/232/84
f 194/230/91 196/258/91 195/264/91
f 195/227/92 196/229/92 198/248/92
f 198/231/70 200/241/70 199/232/70
f 200/234/69 202/257/69 201/232/69
f 201/236/93 202/229/93 204/248/93
f 203/227/94 204/237/94 206/246/94
f 198/239/76 196/809/76 206/240/76
f 196/809/76 194/810/76 206/240/76
f 194/810/76 208/811/76 206/240/76
f 206/240/76 204/812/76 202/813/76
f 202/813/76 200/238/76 206/240/76
f 206/231/75 208/241/75 207/232/75
f 207/233/74 208/242/74 194/265/74
f 210/230/94 212/227/94 211/237/94
f 212/228/93 214/226/93 213/247/93
f 214/231/69 216/241/69 215/232/69
f 215/233/70 216/234/70 218/257/70
f 218/229/92 220/248/92 219/235/92
f 219/227/91 220/237/91 222/246/91
f 222/231/74 224/241/74 223/232/74
f 223/253/75 224/252/75 210/257/75
f 223/262/5 209/829/5 211/830/5
f 211/830/5 213/831/5 223/262/5
f 213/831/5 215/832/5 223/262/5
f 215/832/5 217/833/5 223/262/5
f 217/833/5 219/260/5 223/262/5
f 226/230/82 228/227/82 227/237/82
f 228/228/81 230/226/81 229/247/81
f 229/233/80 230/231/80 232/241/80
f 232/234/79 234/257/79 233/232/79
f 233/236/78 234/229/78 236/248/78
f 235/227/77 236/237/77 238/246/77
f 238/231/85 240/241/85 239/232/85
f 239/253/84 240/252/84 226/257/84
f 239/262/8 225/829/8 227/830/8
f 227/830/8 229/831/8 239/262/8
f 229/831/8 231/832/8 239/262/8
f 231/832/8 233/833/8 239/262/8
f 233/833/8 235/260/8 239/262/8
f 246/287/101 244/840/101 242/841/101
f 242/841/101 256/842/101 246/287/101
f 256/842/101 254/288/101 246/287/101
f 254/288/101 252/843/101 250/844/101
f 250/844/101 248/286/101 254/288/101
f 253/289/100 254/845/100 256/290/100
f 255/292/102 256/526/102 242/293/102
f 258/298/103 257/345/103 260/299/103
f 259/301/104 260/345/104 262/299/104
f 276/336/110 278/863/110 277/337/110
f 278/339/112 264/864/112 263/340/112
f 277/344/109 263/865/109 269/342/109
f 263/865/109 265/866/109 269/342/109
f 265/866/109 267/867/109 269/342/109
f 269/342/109 271/868/109 273/343/109
f 273/343/109 275/869/109 277/344/109
f 280/298/113 279/345/113 282/299/113
f 282/345/114 284/299/114 283/302/114
f 290/378/121 288/880/121 286/881/121
f 286/881/121 300/882/121 290/378/121
f 300/882/121 298/379/121 290/378/121
f 298/379/121 296/883/121 294/884/121
f 294/884/121 292/377/121 298/379/121
f 298/380/119 300/885/119 299/381/119
f 300/383/122 286/293/122 285/294/122
f 302/301/123 301/886/123 304/384/123
f 303/301/124 304/345/124 306/299/124
f 320/415/112 322/896/112 321/416/112
f 321/341/110 322/339/110 308/293/110
f 321/420/111 307/897/111 309/898/111
f 309/898/111 311/899/111 313/418/111
f 313/418/111 315/900/111 317/419/111
f 317/419/111 319/901/111 321/420/111
f 321/420/111 309/898/111 313/418/111
f 324/298/106 323/345/106 326/299/106
f 326/345/105 328/299/105 327/302/105
f 342/445/129 341/446/129 349/446/129
f 342/445/129 344/911/129 343/451/129
f 344/339/132 330/293/132 329/294/132
f 343/453/130 329/912/130 331/913/130
f 331/913/130 333/914/130 343/453/130
f 333/914/130 335/454/130 343/453/130
f 335/454/130 337/915/130 339/916/130
f 339/916/130 341/452/130 335/454/130
f 345/345/133 348/299/133 347/300/133
f 348/345/134 350/299/134 349/302/134
f 362/479/99 364/480/99 372/480/99
f 356/486/99 354/926/99 352/927/99
f 352/927/99 366/928/99 356/486/99
f 366/928/99 364/480/99 356/486/99
f 364/480/99 362/479/99 356/486/99
f 362/479/99 360/484/99 356/486/99
f 363/487/102 364/929/102 366/488/102
f 366/339/100 352/293/100 351/294/100
f 367/345/96 370/299/96 369/300/96
f 370/490/95 372/930/95 371/491/95
f 362/479/99 370/479/99 367/484/99
f 378/521/120 376/940/120 374/941/120
f 374/941/120 388/942/120 378/521/120
f 388/942/120 386/522/120 378/521/120
f 386/522/120 384/943/120 382/944/120
f 382/944/120 380/520/120 386/522/120
f 386/523/122 388/945/122 387/524/122
f 388/526/119 374/293/119 373/294/119
f 389/528/116 392/946/116 391/529/116
f 392/345/115 394/299/115 393/302/115
f 407/558/132 415/956/132 416/559/132
f 408/559/132 410/957/132 409/560/132
f 409/341/129 410/339/129 396/293/129
f 409/563/131 395/958/131 397/959/131
f 397/959/131 399/960/131 401/561/131
f 401/561/131 403/961/131 405/562/131
f 405/562/131 407/962/131 409/563/131
f 409/563/131 397/959/131 401/561/131
f 411/345/126 414/299/126 413/300/126
f 414/345/125 416/299/125 415/302/125
f 468/707/77 470/1017/77 469/708/77
f 470/229/78 472/248/78 471/230/78
f 471/233/79 472/231/79 474/241/79
f 474/234/80 476/257/80 475/232/80
f 475/236/81 476/229/81 478/248/81
f 478/237/82 480/246/82 479/230/82
f 472/239/8 470/809/8 480/240/8
f 470/809/8 468/810/8 480/240/8
f 468/810/8 482/811/8 480/240/8
f 480/240/8 478/812/8 476/813/8
f 476/813/8 474/238/8 480/240/8
f 479/233/84 480/231/84 482/241/84
f 482/242/85 468/265/85 467/232/85
usemtl base
f 2/1/1 3/2/1 1/3/1
f 4/4/2 5/5/2 3/6/2
f 6/7/3 7/8/3 5/9/3
f 8/10/4 9/11/4 7/12/4
f 10/13/5 11/14/5 9/15/5
f 12/16/6 13/17/6 11/18/6
f 10/19/7 22/20/7 12/21/7
f 14/22/8 15/23/8 13/24/8
f 16/25/9 1/26/9 15/27/9
f 15/28/10 3/29/10 7/30/10
f 16/34/7 18/35/7 2/36/7
f 2/36/7 17/37/7 4/38/7
f 8/39/7 19/40/7 20/41/7
f 12/21/7 23/42/7 14/43/7
f 10/19/7 20/41/7 21/44/7
f 14/43/7 24/45/7 16/34/7
f 6/46/7 17/37/7 19/40/7
f 78/183/33 74/184/33 70/185/33
f 94/196/43 90/197/43 86/198/43
f 110/207/53 106/208/53 102/209/53
f 120/220/63 118/221/63 126/222/63
f 241/268/95 244/269/95 243/270/95
f 244/271/96 245/272/96 243/273/96
f 245/274/97 248/275/97 247/276/97
f 248/277/98 249/278/98 247/279/98
f 251/280/99 261/281/99 253/282/99
f 254/283/100 261/284/100 262/285/100
f 252/303/101 257/304/101 250/305/101
f 249/306/97 257/307/97 258/308/97
f 252/309/101 262/310/101 260/311/101
f 249/312/99 259/313/99 251/314/99
f 264/315/105 265/316/105 263/317/105
f 265/318/106 268/319/106 267/320/106
f 268/321/107 269/322/107 267/323/107
f 270/324/108 271/325/108 269/326/108
f 273/327/109 283/328/109 275/329/109
f 275/330/110 284/331/110 276/332/110
f 272/347/111 282/348/111 279/349/111
f 271/350/107 279/351/107 280/352/107
f 274/353/111 284/354/111 282/355/111
f 271/356/109 281/357/109 273/358/109
f 285/359/115 288/360/115 287/361/115
f 287/362/116 290/363/116 289/364/116
f 290/365/117 291/366/117 289/367/117
f 292/368/118 293/369/118 291/370/118
f 297/371/119 306/372/119 298/373/119
f 293/374/120 303/375/120 295/376/120
f 295/385/120 305/386/120 297/387/120
f 296/388/121 301/389/121 294/390/121
f 294/391/117 302/392/117 293/393/117
f 296/394/121 306/395/121 304/396/121
f 307/397/114 310/398/114 309/399/114
f 310/400/113 311/300/113 309/401/113
f 312/402/108 313/403/108 311/404/108
f 314/405/107 315/406/107 313/407/107
f 320/408/112 327/409/112 328/410/112
f 317/411/111 324/412/111 325/413/111
f 317/421/111 327/422/111 319/423/111
f 318/424/109 323/425/109 316/426/109
f 316/427/108 324/428/108 315/429/108
f 318/430/109 328/431/109 326/432/109
f 329/433/125 332/434/125 331/435/125
f 332/436/126 333/437/126 331/438/126
f 333/439/127 336/440/127 335/441/127
f 336/442/128 337/443/128 335/444/128
f 339/447/130 346/448/130 347/449/130
f 339/455/130 349/456/130 341/457/130
f 340/458/131 345/459/131 338/460/131
f 337/461/127 345/462/127 346/463/127
f 340/464/131 350/465/131 348/466/131
f 352/467/104 353/468/104 351/469/104
f 354/470/103 355/471/103 353/472/103
f 356/473/98 357/474/98 355/475/98
f 358/476/97 359/477/97 357/478/97
f 360/481/98 368/482/98 359/483/98
f 359/493/101 369/494/101 361/495/101
f 364/496/102 371/497/102 372/498/102
f 361/499/101 371/500/101 363/501/101
f 373/502/124 376/503/124 375/504/124
f 376/505/123 377/506/123 375/507/123
f 378/508/118 379/509/118 377/510/118
f 380/511/117 381/512/117 379/513/117
f 385/514/122 394/515/122 386/516/122
f 381/517/121 391/518/121 383/519/121
f 383/531/121 393/532/121 385/533/121
f 382/534/120 392/535/120 389/536/120
f 382/537/118 390/538/118 381/539/118
f 384/540/120 394/541/120 392/542/120
f 396/543/134 397/544/134 395/545/134
f 397/546/133 400/547/133 399/548/133
f 400/549/128 401/550/128 399/551/128
f 402/552/127 403/553/127 401/554/127
f 405/555/131 415/556/131 407/557/131
f 404/564/130 414/565/130 411/566/130
f 403/567/128 411/568/128 412/569/128
f 406/570/130 416/571/130 414/572/130
f 403/573/131 413/574/131 405/575/131
f 430/576/2 428/577/2 427/578/2
f 440/579/6 442/580/6 441/581/6
f 434/582/4 432/577/4 431/583/4
f 438/584/9 436/585/9 435/586/9
f 427/587/135 420/588/135 430/589/135
f 424/590/136 429/591/136 421/592/136
f 424/593/7 426/594/7 418/595/7
f 421/596/10 448/597/10 445/598/10
f 431/599/137 423/600/137 434/601/137
f 418/602/138 433/603/138 420/604/138
f 431/605/7 418/606/7 422/607/7
f 417/608/10 449/609/10 442/610/10
f 435/611/139 421/612/139 438/613/139
f 419/614/140 437/615/140 417/616/140
f 435/617/7 436/618/7 419/619/7
f 441/620/10 449/621/10 450/622/10
f 439/623/141 417/624/141 442/625/141
f 422/626/142 441/627/142 423/628/142
f 419/629/7 440/630/7 422/631/7
f 437/632/10 453/633/10 454/634/10
f 453/635/9 466/636/9 454/637/9
f 446/638/137 463/639/137 451/640/137
f 454/641/140 455/642/140 443/643/140
f 451/644/4 464/645/4 452/646/4
f 420/647/10 452/648/10 444/649/10
f 430/650/10 448/651/10 429/652/10
f 417/653/10 454/654/10 443/655/10
f 420/656/10 447/657/10 430/658/10
f 423/659/10 450/660/10 446/661/10
f 423/662/10 451/663/10 434/664/10
f 434/665/10 452/666/10 433/667/10
f 421/668/10 453/669/10 438/670/10
f 460/671/10 459/672/10 456/673/10
f 456/674/10 463/675/10 458/676/10
f 457/677/10 425/678/10 455/679/10
f 462/680/10 455/681/10 458/682/10
f 443/683/141 461/684/141 449/685/141
f 447/686/2 460/687/2 448/688/2
f 452/689/138 456/690/138 444/691/138
f 444/692/135 459/693/135 447/694/135
f 450/695/142 458/696/142 446/697/142
f 449/698/6 462/699/6 450/700/6
f 445/701/139 465/702/139 453/703/139
f 448/704/136 457/705/136 445/706/136
f 2/1/1 4/710/1 3/2/1
f 4/4/2 6/711/2 5/5/2
f 6/7/3 8/712/3 7/8/3
f 8/10/4 10/713/4 9/11/4
f 10/13/5 12/714/5 11/14/5
f 12/16/6 14/715/6 13/17/6
f 10/19/7 21/44/7 22/20/7
f 14/22/8 16/716/8 15/23/8
f 16/25/9 2/717/9 1/26/9
f 15/28/10 1/718/10 3/29/10
f 3/29/10 5/719/10 7/30/10
f 7/30/10 9/720/10 11/721/10
f 11/721/10 13/722/10 7/30/10
f 13/722/10 15/28/10 7/30/10
f 16/34/7 24/45/7 18/35/7
f 2/36/7 18/35/7 17/37/7
f 8/39/7 6/46/7 19/40/7
f 12/21/7 22/20/7 23/42/7
f 10/19/7 8/39/7 20/41/7
f 14/43/7 23/42/7 24/45/7
f 6/46/7 4/38/7 17/37/7
f 70/185/33 68/769/33 66/770/33
f 66/770/33 80/771/33 70/185/33
f 80/771/33 78/183/33 70/185/33
f 78/183/33 76/772/33 74/184/33
f 74/184/33 72/773/33 70/185/33
f 86/198/43 84/781/43 82/782/43
f 82/782/43 96/783/43 86/198/43
f 96/783/43 94/196/43 86/198/43
f 94/196/43 92/784/43 90/197/43
f 90/197/43 88/785/43 86/198/43
f 102/209/53 100/793/53 98/794/53
f 98/794/53 112/795/53 102/209/53
f 112/795/53 110/207/53 102/209/53
f 110/207/53 108/796/53 106/208/53
f 106/208/53 104/797/53 102/209/53
f 118/221/63 116/799/63 114/800/63
f 114/800/143 128/801/143 118/221/143
f 128/801/63 126/222/63 118/221/63
f 126/222/63 124/802/63 122/803/63
f 122/803/143 120/220/143 126/222/143
f 241/268/95 242/834/95 244/269/95
f 244/271/96 246/835/96 245/272/96
f 245/274/97 246/836/97 248/275/97
f 248/277/98 250/837/98 249/278/98
f 251/280/99 259/838/99 261/281/99
f 254/283/100 253/839/100 261/284/100
f 252/303/101 260/850/101 257/304/101
f 249/306/97 250/851/97 257/307/97
f 252/309/101 254/852/101 262/310/101
f 249/312/99 258/853/99 259/313/99
f 264/315/105 266/854/105 265/316/105
f 265/318/106 266/855/106 268/319/106
f 268/321/107 270/856/107 269/322/107
f 270/324/108 272/857/108 271/325/108
f 273/327/109 281/858/109 283/328/109
f 275/330/110 283/859/110 284/331/110
f 272/347/111 274/870/111 282/348/111
f 271/350/107 272/871/107 279/351/107
f 274/353/111 276/872/111 284/354/111
f 271/356/109 280/873/109 281/357/109
f 285/359/115 286/874/115 288/360/115
f 287/362/116 288/875/116 290/363/116
f 290/365/117 292/876/117 291/366/117
f 292/368/118 294/877/118 293/369/118
f 297/371/119 305/878/119 306/372/119
f 293/374/120 302/879/120 303/375/120
f 295/385/120 303/887/120 305/386/120
f 296/388/121 304/888/121 301/389/121
f 294/391/117 301/889/117 302/392/117
f 296/394/121 298/890/121 306/395/121
f 307/397/114 308/891/114 310/398/114
f 310/400/113 312/299/113 311/300/113
f 312/402/108 314/892/108 313/403/108
f 314/405/107 316/893/107 315/406/107
f 320/408/112 319/894/112 327/409/112
f 317/411/111 315/895/111 324/412/111
f 317/421/111 325/902/111 327/422/111
f 318/424/109 326/903/109 323/425/109
f 316/427/108 323/904/108 324/428/108
f 318/430/109 320/905/109 328/431/109
f 329/433/125 330/906/125 332/434/125
f 332/436/126 334/907/126 333/437/126
f 333/439/127 334/908/127 336/440/127
f 336/442/128 338/909/128 337/443/128
f 339/447/130 337/910/130 346/448/130
f 339/455/130 347/917/130 349/456/130
f 340/458/131 348/918/131 345/459/131
f 337/461/127 338/919/127 345/462/127
f 340/464/131 342/920/131 350/465/131
f 352/467/104 354/921/104 353/468/104
f 354/470/103 356/922/103 355/471/103
f 356/473/98 358/923/98 357/474/98
f 358/476/97 360/924/97 359/477/97
f 360/481/98 367/925/98 368/482/98
f 359/493/101 368/931/101 369/494/101
f 364/496/102 363/932/102 371/497/102
f 361/499/101 369/933/101 371/500/101
f 373/502/124 374/934/124 376/503/124
f 376/505/123 378/935/123 377/506/123
f 378/508/118 380/936/118 379/509/118
f 380/511/117 382/937/117 381/512/117
f 385/514/122 393/938/122 394/515/122
f 381/517/121 390/939/121 391/518/121
f 383/531/121 391/947/121 393/532/121
f 382/534/120 384/948/120 392/535/120
f 382/537/118 389/949/118 390/538/118
f 384/540/120 386/950/120 394/541/120
f 396/543/134 398/951/134 397/544/134
f 397/546/133 398/952/133 400/547/133
f 400/549/128 402/953/128 401/550/128
f 402/552/127 404/954/127 403/553/127
f 405/555/131 413/955/131 415/556/131
f 404/564/130 406/963/130 414/565/130
f 403/567/128 404/964/128 411/568/128
f 406/570/130 408/965/130 416/571/130
f 403/573/131 412/966/131 413/574/131
f 430/576/2 429/967/2 428/577/2
f 440/579/6 439/968/6 442/580/6
f 434/582/4 433/967/4 432/577/4
f 438/584/9 437/969/9 436/585/9
f 427/587/135 418/970/135 420/588/135
f 424/590/136 428/971/136 429/591/136
f 418/595/7 427/972/7 428/973/7
f 428/973/7 424/593/7 418/595/7
f 421/596/10 429/974/10 448/597/10
f 431/599/137 422/975/137 423/600/137
f 418/602/138 432/976/138 433/603/138
f 432/977/7 418/606/7 431/605/7
f 418/606/7 426/978/7 422/607/7
f 417/608/10 443/979/10 449/609/10
f 435/611/139 424/980/139 421/612/139
f 419/614/140 436/981/140 437/615/140
f 426/982/7 424/983/7 419/619/7
f 424/983/7 435/617/7 419/619/7
f 441/620/10 442/984/10 449/621/10
f 439/623/141 419/985/141 417/624/141
f 422/626/142 440/986/142 441/627/142
f 422/631/7 426/978/7 419/629/7
f 419/629/7 439/987/7 440/630/7
f 437/632/10 438/988/10 453/633/10
f 453/635/9 465/989/9 466/636/9
f 446/638/137 458/990/137 463/639/137
f 454/641/140 466/991/140 455/642/140
f 451/644/4 463/992/4 464/645/4
f 420/647/10 433/993/10 452/648/10
f 430/650/10 447/994/10 448/651/10
f 417/653/10 437/995/10 454/654/10
f 420/656/10 444/996/10 447/657/10
f 423/659/10 441/997/10 450/660/10
f 423/662/10 446/998/10 451/663/10
f 434/665/10 451/999/10 452/666/10
f 421/668/10 445/1000/10 453/669/10
f 425/1001/10 457/1002/10 456/673/10
f 457/1002/10 460/671/10 456/673/10
f 458/676/10 425/1003/10 456/674/10
f 456/674/10 464/1004/10 463/675/10
f 455/679/10 466/1005/10 465/1006/10
f 465/1006/10 457/677/10 455/679/10
f 461/1007/10 455/681/10 462/680/10
f 455/681/10 425/1008/10 458/682/10
f 443/683/141 455/1009/141 461/684/141
f 447/686/2 459/1010/2 460/687/2
f 452/689/138 464/1011/138 456/690/138
f 444/692/135 456/1012/135 459/693/135
f 450/695/142 462/1013/142 458/696/142
f 449/698/6 461/1014/6 462/699/6
f 445/701/139 457/1015/139 465/702/139
f 448/704/136 460/1016/136 457/705/136
usemtl volute
f 141/243/76 143/244/76 135/245/76
f 158/249/76 154/250/76 150/251/76
f 174/249/83 170/250/83 166/251/83
f 189/243/83 191/244/83 183/245/83
f 205/243/73 207/244/73 199/245/73
f 218/250/1 216/266/1 214/251/1
f 234/250/3 232/266/3 230/251/3
f 247/295/99 251/296/99 255/297/99
f 270/333/111 268/334/111 276/335/111
f 291/295/120 295/296/120 299/297/120
f 312/334/109 308/414/109 320/335/109
f 342/335/131 338/450/131 334/334/131
f 357/295/101 361/296/101 365/297/101
f 387/297/121 375/527/121 379/295/121
f 400/334/130 396/414/130 408/335/130
f 479/243/3 481/244/3 473/245/3
f 143/244/76 129/814/76 131/815/76
f 131/815/76 133/816/76 143/244/76
f 133/816/76 135/245/76 143/244/76
f 135/245/76 137/817/76 139/818/76
f 139/818/76 141/243/76 135/245/76
f 150/251/76 148/819/76 146/820/76
f 146/820/76 160/821/76 150/251/76
f 160/821/76 158/249/76 150/251/76
f 158/249/76 156/822/76 154/250/76
f 154/250/76 152/266/76 150/251/76
f 166/251/8 164/819/8 162/820/8
f 162/820/83 176/821/83 166/251/83
f 176/821/8 174/249/8 166/251/8
f 174/249/83 172/822/83 170/250/83
f 170/250/8 168/266/8 166/251/8
f 191/244/83 177/814/83 179/815/83
f 179/815/83 181/816/83 191/244/83
f 181/816/83 183/245/83 191/244/83
f 183/245/83 185/817/83 187/818/83
f 187/818/83 189/243/83 183/245/83
f 207/244/73 193/814/73 195/815/73
f 195/815/73 197/816/73 207/244/73
f 197/816/73 199/245/73 207/244/73
f 199/245/73 201/817/73 203/818/73
f 203/818/73 205/243/73 199/245/73
f 214/251/1 212/819/1 210/820/1
f 210/820/1 224/821/1 214/251/1
f 224/821/1 222/249/1 214/251/1
f 222/249/1 220/822/1 214/251/1
f 220/822/1 218/250/1 214/251/1
f 230/251/3 228/819/3 226/820/3
f 226/820/3 240/821/3 230/251/3
f 240/821/3 238/249/3 230/251/3
f 238/249/3 236/822/3 230/251/3
f 236/822/3 234/250/3 230/251/3
f 255/297/99 241/846/99 243/527/99
f 243/527/99 245/847/99 255/297/99
f 245/847/99 247/295/99 255/297/99
f 247/295/99 249/848/99 251/296/99
f 251/296/99 253/849/99 255/297/99
f 268/334/111 266/860/111 276/335/111
f 266/860/111 264/414/111 276/335/111
f 264/414/111 278/861/111 276/335/111
f 276/335/111 274/862/111 272/450/111
f 272/450/111 270/333/111 276/335/111
f 299/297/120 285/846/120 287/527/120
f 287/527/120 289/847/120 291/295/120
f 291/295/120 293/848/120 295/296/120
f 295/296/120 297/849/120 299/297/120
f 299/297/120 287/527/120 291/295/120
f 312/334/109 310/860/109 308/414/109
f 308/414/109 322/861/109 320/335/109
f 320/335/109 318/862/109 312/334/109
f 318/862/109 316/450/109 312/334/109
f 316/450/109 314/333/109 312/334/109
f 334/334/131 332/860/131 330/414/131
f 330/414/131 344/861/131 342/335/131
f 342/335/131 340/862/131 338/450/131
f 338/450/131 336/333/131 334/334/131
f 334/334/131 330/414/131 342/335/131
f 365/297/101 351/846/101 357/295/101
f 351/846/101 353/527/101 357/295/101
f 353/527/101 355/847/101 357/295/101
f 357/295/101 359/848/101 361/296/101
f 361/296/101 363/849/101 365/297/101
f 387/297/121 373/846/121 375/527/121
f 375/527/121 377/847/121 379/295/121
f 379/295/121 381/848/121 383/296/121
f 383/296/121 385/849/121 379/295/121
f 385/849/121 387/297/121 379/295/121
f 400/334/130 398/860/130 396/414/130
f 396/414/130 410/861/130 408/335/130
f 408/335/130 406/862/130 400/334/130
f 406/862/130 404/450/130 400/334/130
f 404/450/130 402/333/130 400/334/130
f 481/244/3 467/814/3 469/815/3
f 469/815/3 471/816/3 481/244/3
f 471/816/3 473/245/3 481/244/3
f 473/245/86 475/817/86 477/818/86
f 477/818/3 479/243/3 473/245/3
