# Blender 5.0.1
# www.blender.org
mtllib large_arch_right.mtl
o big-1
usemtl arch_mat
v 0.217051 0.623466 1.005000
v 0.922940 0.999843 1.005000
v 0.884229 1.500654 -0.005000
v 0.884229 1.500654 1.005000
v 0.922940 0.999843 -0.005000
v 0.530725 0.885514 1.005000
v 0.294985 1.328891 -0.005000
v 0.294985 1.328891 1.005000
v 0.530725 0.885514 -0.005000
v 0.580742 1.445270 1.005000
v 0.720932 0.962979 -0.005000
v 0.720932 0.962979 1.005000
v 0.580742 1.445270 -0.005000
v 0.360363 0.770725 1.005000
v 0.039042 1.156438 -0.005000
v 0.039042 1.156438 1.005000
v 0.360363 0.770725 -0.005000
v -0.176263 0.935204 1.005000
v -0.176263 0.935204 -0.005000
v 0.217051 0.623466 -0.005000
v 0.001493 0.002908 1.005000
v -0.500107 0.002908 1.005000
v -0.500107 0.002908 -0.005000
v 0.001493 0.002908 -0.005000
v 0.186189 0.582281 -0.005000
v 0.106849 0.449965 -0.005000
v 0.085051 0.403329 -0.005000
v 0.034416 0.257558 -0.005000
v 0.022606 0.207443 -0.005000
v 0.002817 0.054383 -0.005000
v 0.002817 0.054382 1.005000
v 0.022606 0.207443 1.005000
v 0.034416 0.257558 1.005000
v 0.085051 0.403329 1.005000
v 0.106849 0.449965 1.005000
v 0.186189 0.582281 1.005000
v -0.222630 0.873330 -0.005000
v -0.341826 0.674544 -0.005000
v -0.374573 0.604481 -0.005000
v -0.450645 0.385482 -0.005000
v -0.468388 0.310191 -0.005000
v -0.498118 0.080241 -0.005000
v -0.222630 0.873330 1.005000
v -0.341826 0.674544 1.005000
v -0.374573 0.604481 1.005000
v -0.450645 0.385482 1.005000
v -0.468388 0.310191 1.005000
v -0.498118 0.080241 1.005000
v 0.227756 1.290789 1.005000
v 0.485976 0.860152 -0.005000
v 0.485976 0.860152 1.005000
v 0.227756 1.290789 -0.005000
v 0.671948 0.947319 1.005000
v 0.507151 1.421744 -0.005000
v 0.507151 1.421744 1.005000
v 0.671948 0.947319 -0.005000
v 0.807389 1.492700 1.005000
v 0.871793 0.994549 -0.005000
v 0.871794 0.994549 1.005000
v 0.807389 1.492700 -0.005000
v 0.321741 0.736733 -0.005000
v 0.321741 0.736733 1.005000
v -0.018982 1.105370 -0.005000
v -0.018982 1.105370 1.005000
v 1.000000 0.999843 1.005000
v 1.000000 1.500654 -0.005000
v 1.000000 1.500654 1.005000
v 1.000000 0.999843 -0.005000
vn -0.0000 -0.0000 1.0000
vn 0.9997 -0.0257 -0.0000
vn -0.0000 -1.0000 -0.0000
vn -0.0000 -0.0000 -1.0000
vn -0.9997 0.0257 -0.0000
vn 0.9917 -0.1282 -0.0000
vn 0.8576 -0.5143 -0.0000
vn -0.8002 0.5997 -0.0000
vn -0.9059 0.4234 -0.0000
vn 0.9446 -0.3281 -0.0000
vn -0.9733 0.2294 -0.0000
vn 0.8002 -0.5997 -0.0000
vn 0.9059 -0.4234 -0.0000
vn -0.8576 0.5143 -0.0000
vn 0.9733 -0.2294 -0.0000
vn -0.9446 0.3281 -0.0000
vn -0.4931 0.8700 -0.0000
vn -0.7344 0.6788 -0.0000
vn 0.4931 -0.8700 -0.0000
vn 0.7344 -0.6788 -0.0000
vn -0.3045 0.9525 -0.0000
vn 0.3045 -0.9525 -0.0000
vn 0.1030 -0.9947 -0.0000
vn 0.5800 -0.8146 -0.0000
vn -0.1030 0.9947 -0.0000
vn -0.5800 0.8146 -0.0000
vn 0.2048 -0.9788 -0.0000
vn -0.2048 0.9788 -0.0000
vn -0.4009 0.9161 -0.0000
vn 0.4009 -0.9161 -0.0000
vn 0.6607 -0.7507 -0.0000
vn -0.6607 0.7507 -0.0000
vn -0.9917 0.1282 -0.0000
vn -0.0000 1.0000 -0.0000
vn 1.0000 -0.0000 -0.0000
vt 0.250100 0.250075
vt 0.250100 0.312569
vt 0.749900 0.312569
vt 0.749900 0.250075
vt 0.000000 0.000000
vt 0.000000 0.062500
vt 1.000000 0.062500
vt 1.000000 0.000000
vt 0.903582 0.506833
vt 0.778581 0.506834
vt 0.778581 0.549034
vt 0.903582 0.549033
vt 1.000000 0.250000
vt 1.000000 0.312500
vt 0.000000 0.312500
vt 0.000000 0.250000
vt 0.749900 0.250075
vt 0.749900 0.312569
vt 0.250100 0.312569
vt 0.250100 0.250075
vt 1.000000 0.937500
vt 1.000000 0.812500
vt 0.000000 0.812500
vt 0.000000 0.937500
vt 0.000000 0.437500
vt 1.000000 0.437500
vt 1.000000 0.750000
vt 0.500000 0.750000
vt 0.500000 0.562500
vt 1.000000 0.562500
vt 0.750000 1.000000
vt 0.250000 1.000000
vt 0.250000 0.812500
vt 0.750000 0.812500
vt 0.000000 0.750000
vt 0.000000 0.562500
vt 0.500000 0.562500
vt 0.000000 0.750000
vt -0.000000 0.562500
vt 0.750000 0.812500
vt 0.750000 1.000000
vt 0.250000 0.812500
vt 0.000000 0.500000
vt 1.000000 0.500000
vt 0.000000 1.000000
vt 1.000000 1.000000
vt 0.250100 0.249950
vt 0.250100 0.312443
vt 0.749900 0.312444
vt 0.749900 0.249950
vt 0.999900 0.062400
vt 0.999900 0.249881
vt 0.500025 0.249900
vt 0.500100 0.062400
vt 0.500100 0.250050
vt 0.500100 0.062569
vt 0.999900 0.062569
vt 0.999900 0.250050
vt 0.250100 1.000050
vt 0.250100 0.812569
vt 0.749900 0.812569
vt 0.749900 1.000050
vt 0.250100 0.249975
vt 0.250100 0.312469
vt 0.749900 0.312469
vt 0.749900 0.249975
vt 0.499900 0.062443
vt 0.499900 0.249925
vt 0.000100 0.249925
vt 0.000100 0.062444
vt 0.250100 0.750000
vt 0.250100 0.812494
vt 0.749900 0.812494
vt 0.749900 0.750000
vt 0.999900 0.562494
vt 0.999900 0.749975
vt 0.500100 0.749975
vt 0.500100 0.562494
vt 0.750000 0.500000
vt 0.250000 0.500000
vt 0.250000 0.312500
vt 0.750000 0.312500
vt 0.750000 0.250000
vt 0.250000 0.250000
vt 0.250000 0.749900
vt 0.250025 0.812400
vt 0.749900 0.812419
vt 0.749900 0.749925
vt 0.749900 0.312469
vt 0.749900 0.499950
vt 0.250100 0.499950
vt 0.250100 0.312469
vt 0.000100 0.250050
vt 0.000100 0.062569
vt 0.499900 0.062569
vt 0.499900 0.250050
vt 0.999900 0.062500
vt 0.999900 0.156250
vt 0.500100 0.156250
vt 0.500100 0.062500
vt 1.000000 0.375000
vt 0.000000 0.375000
vt 0.000000 0.906250
vt 1.000000 0.906250
vt 0.500100 0.156310
vt 0.999900 0.156309
vt 0.500000 0.000000
vt 0.500000 1.000000
s 0
usemtl arch_mat
f 59/1/1 2/2/1 4/3/1 57/4/1
f 51/1/1 6/2/1 8/3/1 49/4/1
f 53/1/1 12/2/1 10/3/1 55/4/1
f 31/5/2 21/6/2 24/7/2 30/8/2
f 24/9/3 21/10/3 22/11/3 23/12/3
f 30/1/4 24/2/4 23/3/4 42/4/4
f 42/13/5 23/14/5 22/15/5 48/16/5
f 48/17/1 22/18/1 21/19/1 31/20/1
f 18/17/1 43/18/1 36/19/1 1/20/1
f 44/17/1 45/18/1 34/19/1 35/20/1
f 30/21/6 29/22/6 32/23/6 31/24/6
f 46/17/1 47/18/1 32/19/1 33/20/1
f 35/24/7 26/21/7 25/22/7 36/23/7
f 19/13/8 37/14/8 43/15/8 18/16/8
f 38/13/9 39/14/9 45/15/9 44/16/9
f 33/25/10 28/26/10 27/14/10 34/15/10
f 40/13/11 41/14/11 47/15/11 46/16/11
f 44/27/1 35/28/1 36/29/1 43/30/1
f 20/1/4 25/2/4 37/3/4 19/4/4
f 48/31/1 31/32/1 32/33/1 47/34/1
f 26/1/4 27/2/4 39/3/4 38/4/4
f 46/28/1 33/35/1 34/36/1 45/29/1
f 28/1/4 29/2/4 41/3/4 40/4/4
f 40/37/4 39/28/4 27/38/4 28/39/4
f 1/16/12 36/15/12 25/14/12 20/13/12
f 38/40/4 37/41/4 25/32/4 26/42/4
f 35/43/13 34/36/13 27/30/13 26/44/13
f 38/14/14 44/15/14 43/43/14 37/44/14
f 33/16/15 32/15/15 29/14/15 28/13/15
f 46/23/16 45/45/16 39/46/16 40/22/16
f 7/13/17 52/14/17 49/15/17 8/16/17
f 18/23/18 64/45/18 63/46/18 19/22/18
f 6/35/19 51/23/19 50/22/19 9/27/19
f 1/25/20 20/26/20 61/14/20 62/15/20
f 9/47/4 50/48/4 52/49/4 7/50/4
f 19/51/4 63/52/4 61/53/4 20/54/4
f 6/55/1 53/56/1 55/57/1 8/58/1
f 12/59/1 59/60/1 57/61/1 10/62/1
f 13/13/21 54/14/21 55/15/21 10/16/21
f 12/16/22 53/15/22 56/14/22 11/13/22
f 11/63/4 56/64/4 54/65/4 13/66/4
f 15/67/4 52/68/4 50/69/4 17/70/4
f 5/71/4 58/72/4 60/73/4 3/74/4
f 2/5/23 59/6/23 58/7/23 5/8/23
f 17/21/24 50/22/24 51/23/24 14/24/24
f 3/13/25 60/14/25 57/15/25 4/16/25
f 16/15/26 49/43/26 52/44/26 15/14/26
f 13/75/4 60/76/4 58/77/4 11/78/4
f 11/21/27 58/22/27 59/23/27 12/24/27
f 10/15/28 57/43/28 60/44/28 13/14/28
f 8/23/29 55/45/29 54/46/29 7/22/29
f 9/26/30 56/14/30 53/15/30 6/25/30
f 18/79/1 1/80/1 62/81/1 64/82/1
f 62/36/31 61/30/31 17/44/31 14/43/31
f 64/83/1 62/84/1 14/81/1 16/82/1
f 16/13/32 15/14/32 63/15/32 64/16/32
f 17/85/4 61/86/4 63/87/4 15/88/4
f 7/89/4 54/90/4 56/91/4 9/92/4
f 48/15/33 47/43/33 41/44/33 42/14/33
f 30/33/4 42/40/4 41/31/4 29/32/4
f 14/93/1 51/94/1 49/95/1 16/96/1
f 3/97/4 66/98/4 68/99/4 5/100/4
f 5/26/3 68/101/3 65/102/3 2/25/3
f 4/23/34 67/103/34 66/104/34 3/22/34
f 2/55/1 65/105/1 67/106/1 4/58/1
f 66/107/35 67/108/35 65/46/35 68/8/35
