# Blender 5.1.1
# www.blender.org
mtllib large_scamozzi_ionic_capital.mtl
o ionic_capital_small
v -0.312108 0.367974 1.312105
v -0.312108 0.344428 1.312105
v -0.312108 0.367974 0.925386
v -0.312108 0.344428 0.925386
v 0.074610 0.367974 1.312105
v 0.074610 0.344428 1.312105
v 0.074610 0.367974 0.925386
v 0.074610 0.344428 0.925386
v -0.430725 0.757640 1.648204
v -0.539687 0.757640 1.414550
v -0.534279 0.481797 1.696493
v -0.643238 0.481797 1.462839
v -0.430725 0.205952 1.648204
v -0.539687 0.205952 1.414550
v -0.180727 0.091694 1.531621
v -0.289689 0.091694 1.297967
v 0.069271 0.205952 1.415040
v -0.039691 0.205952 1.181384
v 0.172823 0.481797 1.366751
v 0.063861 0.481797 1.133095
v 0.069271 0.757640 1.415040
v -0.039691 0.757640 1.181384
v -0.180727 0.871898 1.531621
v -0.289689 0.871898 1.297967
v -0.409962 0.757640 1.544266
v -0.643620 0.757640 1.435315
v -0.458247 0.481797 1.647820
v -0.691905 0.481797 1.538871
v -0.409959 0.205952 1.544267
v -0.643620 0.205952 1.435315
v -0.293389 0.091694 1.294265
v -0.527050 0.091694 1.185313
v -0.176819 0.205952 1.044261
v -0.410479 0.205952 0.935311
v -0.128533 0.481797 0.940707
v -0.362194 0.481797 0.831755
v -0.176819 0.757640 1.044261
v -0.410479 0.757640 0.935311
v -0.293389 0.871898 1.294264
v -0.527050 0.871898 1.185313
v -0.648203 0.757640 -0.430730
v -0.414546 0.757640 -0.539690
v -0.696492 0.481797 -0.534282
v -0.462836 0.481797 -0.643242
v -0.648203 0.205952 -0.430730
v -0.414546 0.205952 -0.539690
v -0.531620 0.091694 -0.180732
v -0.297966 0.091694 -0.289692
v -0.415039 0.205952 0.069267
v -0.181383 0.205952 -0.039694
v -0.366750 0.481797 0.172819
v -0.133094 0.481797 0.063860
v -0.415039 0.757640 0.069267
v -0.181383 0.757640 -0.039694
v -0.531620 0.871898 -0.180732
v -0.297966 0.871898 -0.289692
v 1.312108 0.367974 -0.312105
v 1.312108 0.344428 -0.312105
v 1.312108 0.367974 0.074614
v 1.312108 0.344428 0.074614
v 0.925390 0.367974 -0.312105
v 0.925390 0.344428 -0.312105
v 0.925390 0.367974 0.074614
v 0.925390 0.344428 0.074614
v 1.409968 0.757640 -0.544260
v 1.643626 0.757640 -0.435309
v 1.458253 0.481797 -0.647814
v 1.691914 0.481797 -0.538863
v 1.409968 0.205952 -0.544260
v 1.643626 0.205952 -0.435309
v 1.293395 0.091694 -0.294258
v 1.527054 0.091694 -0.185307
v 1.176823 0.205952 -0.044257
v 1.410481 0.205952 0.064695
v 1.128536 0.481797 0.059297
v 1.362196 0.481797 0.168249
v 1.176823 0.757640 -0.044257
v 1.410481 0.757640 0.064695
v 1.293395 0.871898 -0.294259
v 1.527054 0.871898 -0.185307
v 0.136912 0.296172 -0.376569
v 0.136912 0.502422 -0.376569
v 0.863086 0.296172 -0.376569
v 0.863086 0.502422 -0.376569
v 1.376568 0.296172 0.136913
v 1.376568 0.502422 0.136913
v 1.376568 0.296172 0.863087
v 1.376568 0.502422 0.863087
v 0.863086 0.296172 1.376569
v 0.863086 0.502422 1.376569
v 0.136912 0.296172 1.376569
v 0.136912 0.502422 1.376569
v -0.376570 0.296172 0.863087
v -0.376570 0.502422 0.863087
v -0.376570 0.296172 0.136913
v -0.376570 0.502422 0.136913
v -0.544267 0.757640 -0.409967
v -0.435316 0.757640 -0.643625
v -0.647821 0.481797 -0.458252
v -0.538870 0.481797 -0.691913
v -0.544267 0.205952 -0.409967
v -0.435316 0.205952 -0.643625
v -0.294264 0.091694 -0.293394
v -0.185314 0.091694 -0.527055
v -0.044262 0.205952 -0.176824
v 0.064690 0.205952 -0.410482
v 0.059292 0.481797 -0.128539
v 0.168244 0.481797 -0.362197
v -0.044262 0.757640 -0.176824
v 0.064690 0.757640 -0.410482
v -0.294264 0.871898 -0.293394
v -0.185314 0.871898 -0.527055
v 1.430733 0.757640 -0.648198
v 1.539693 0.757640 -0.414541
v 1.534285 0.481797 -0.696487
v 1.643245 0.481797 -0.462831
v 1.430733 0.205952 -0.648198
v 1.539693 0.205952 -0.414541
v 1.180733 0.091694 -0.531617
v 1.289693 0.091694 -0.297963
v 0.930736 0.205952 -0.415038
v 1.039696 0.205952 -0.181382
v 0.827184 0.481797 -0.366749
v 0.936143 0.481797 -0.133093
v 0.930736 0.757640 -0.415039
v 1.039696 0.757640 -0.181382
v 1.180733 0.871898 -0.531617
v 1.289693 0.871898 -0.297963
v -0.312106 0.367974 -0.312109
v -0.312106 0.344428 -0.312109
v 0.074613 0.367974 -0.312109
v 0.074613 0.344428 -0.312109
v -0.312106 0.367974 0.074609
v -0.312106 0.344428 0.074609
v 0.074613 0.367974 0.074609
v 0.074613 0.344428 0.074609
v 1.648209 0.757640 1.430722
v 1.414553 0.757640 1.539683
v 1.696499 0.481797 1.534274
v 1.462844 0.481797 1.643235
v 1.648209 0.205952 1.430722
v 1.414553 0.205952 1.539684
v 1.531624 0.091694 1.180724
v 1.297970 0.091694 1.289686
v 1.415042 0.205952 0.930728
v 1.181387 0.205952 1.039690
v 1.366752 0.481797 0.827174
v 1.133098 0.481797 0.936138
v 1.415042 0.757640 0.930728
v 1.181387 0.757640 1.039690
v 1.531624 0.871898 1.180724
v 1.297970 0.871898 1.289686
v -0.222202 0.494688 0.500000
v 1.222200 0.881406 0.500000
v -0.222202 0.881406 0.500000
v 1.222200 0.494688 0.500000
v 0.499999 0.494688 -0.222201
v 0.499999 0.881406 1.222201
v 0.499999 0.494688 1.222201
v 0.499999 0.881406 -0.222201
v 0.499999 0.494688 0.500000
v 0.499999 0.881406 0.500000
v 1.483451 0.881406 -0.363839
v 1.363840 0.881406 -0.483452
v 1.363840 0.494688 -0.483452
v 1.483451 0.494688 -0.363839
v 1.363838 0.881406 1.483451
v 1.483451 0.881406 1.363839
v 1.483451 0.494688 1.363839
v 1.363838 0.494688 1.483452
v -0.363840 0.881406 -0.483452
v -0.483453 0.881406 -0.363839
v -0.483453 0.494688 -0.363839
v -0.363840 0.494688 -0.483452
v -0.483453 0.881406 1.363839
v -0.363840 0.881406 1.483451
v -0.363840 0.494688 1.483452
v -0.483453 0.494688 1.363839
v 1.544271 0.757640 1.409960
v 1.435322 0.757640 1.643619
v 1.647828 0.481797 1.458244
v 1.538878 0.481797 1.691904
v 1.544271 0.205952 1.409961
v 1.435322 0.205952 1.643619
v 1.294270 0.091694 1.293390
v 1.185320 0.091694 1.527051
v 1.044266 0.205952 1.176820
v 0.935317 0.205952 1.410480
v 0.940712 0.481797 1.128534
v 0.831762 0.481797 1.362195
v 1.044266 0.757640 1.176820
v 0.935317 0.757640 1.410480
v 1.294270 0.871898 1.293390
v 1.185320 0.871898 1.527051
v 1.312106 0.367974 1.312109
v 1.312106 0.344428 1.312109
v 0.925388 0.367974 1.312109
v 0.925388 0.344428 1.312109
v 1.312106 0.367974 0.925391
v 1.312106 0.344428 0.925391
v 0.925388 0.367974 0.925391
v 0.925388 0.344428 0.925391
v -0.275540 0.871094 0.500000
v 1.275540 1.000000 0.500000
v -0.275540 1.000000 0.500000
v 1.275540 0.871094 0.500000
v 0.499999 0.871094 -0.275541
v 0.499999 1.000000 1.275539
v 0.499999 0.871094 1.275539
v 0.499999 1.000000 -0.275541
v 0.499999 0.871094 0.500000
v 0.499999 1.000000 0.500000
v 1.504554 1.000000 -0.423590
v 1.423589 1.000000 -0.504555
v 1.423589 0.871094 -0.504555
v 1.504554 0.871094 -0.423590
v 1.423589 1.000000 1.504555
v 1.504554 1.000000 1.423589
v 1.504554 0.871094 1.423589
v 1.423589 0.871094 1.504555
v -0.423591 1.000000 -0.504555
v -0.504556 1.000000 -0.423590
v -0.504556 0.871094 -0.423590
v -0.423591 0.871094 -0.504555
v -0.504556 1.000000 1.423589
v -0.423591 1.000000 1.504555
v -0.423591 0.871094 1.504555
v -0.504556 0.871094 1.423589
vn 0.4226 -0.0000 0.9063
vn -0.9063 -0.0000 -0.4226
vn -0.9063 -0.0000 0.4226
vn 0.9063 -0.0000 0.4226
vn 0.4226 -0.0000 -0.9063
vn -0.4226 -0.0000 -0.9063
vn 0.9063 -0.0000 -0.4226
vn -0.4226 -0.0000 0.9063
vn -0.0000 -0.0000 -1.0000
vn 0.7071 -0.0000 -0.7071
vn 1.0000 -0.0000 -0.0000
vn 0.7071 -0.0000 0.7071
vn -0.0000 -0.0000 1.0000
vn -0.7071 -0.0000 0.7071
vn -0.0000 1.0000 -0.0000
vn -1.0000 -0.0000 -0.0000
vn -0.7071 -0.0000 -0.7071
vn 0.9572 -0.0000 0.2895
vn -0.2895 -0.0000 -0.9572
vn -0.0000 -1.0000 -0.0000
vn -0.2895 -0.0000 0.9572
vn 0.9572 -0.0000 -0.2895
vn 0.2895 -0.0000 -0.9572
vn -0.9572 -0.0000 0.2895
vn -0.9572 -0.0000 -0.2895
vn 0.2895 -0.0000 0.9572
vn 0.9706 -0.0000 0.2407
vn -0.2407 -0.0000 -0.9706
vn -0.2407 -0.0000 0.9706
vn 0.9706 -0.0000 -0.2407
vn 0.2407 -0.0000 -0.9706
vn -0.9706 -0.0000 0.2407
vn -0.9706 -0.0000 -0.2407
vn 0.2407 -0.0000 0.9706
vn -0.8373 0.3827 0.3905
vn -0.8373 -0.3827 0.3905
vn -0.3468 -0.9239 0.1617
vn 0.3468 -0.9239 -0.1617
vn 0.8373 -0.3827 -0.3905
vn 0.8373 0.3827 -0.3905
vn 0.3468 0.9239 -0.1617
vn -0.3468 0.9239 0.1617
vn -0.3904 0.3827 0.8373
vn -0.3904 -0.3827 0.8373
vn -0.1617 -0.9239 0.3468
vn 0.1617 -0.9239 -0.3468
vn 0.3904 -0.3827 -0.8373
vn 0.3904 0.3827 -0.8373
vn 0.1617 0.9239 -0.3468
vn -0.1617 0.9239 0.3468
vn -0.3905 0.3827 -0.8373
vn -0.3905 -0.3827 -0.8373
vn -0.1617 -0.9239 -0.3468
vn 0.1617 -0.9239 0.3468
vn 0.3905 -0.3827 0.8373
vn 0.3905 0.3827 0.8373
vn 0.1617 0.9239 0.3468
vn -0.1617 0.9239 -0.3468
vn -0.8373 0.3827 -0.3904
vn -0.8373 -0.3827 -0.3904
vn -0.3468 -0.9239 -0.1617
vn 0.3468 -0.9239 0.1617
vn 0.8373 -0.3827 0.3904
vn 0.8373 0.3827 0.3904
vn 0.3468 0.9239 0.1617
vn -0.3468 0.9239 -0.1617
vn -0.9063 -0.0000 0.4227
vt 0.134329 0.542934
vt 0.240249 0.287218
vt 0.495966 0.181296
vt 0.495966 0.904571
vt 0.751682 0.798648
vt 0.240249 0.287218
vt 0.134328 0.542934
vt 0.240249 0.287217
vt 0.495966 0.181295
vt 0.495966 0.904571
vt 0.751682 0.798649
vt 0.240249 0.287217
vt 0.495966 0.904571
vt 0.751682 0.798649
vt 0.240249 0.287217
vt 0.134329 0.542934
vt 0.240249 0.287218
vt 0.495966 0.181296
vt 0.495966 0.904571
vt 0.134329 0.542934
vt 0.495966 0.904571
vt 0.751682 0.798649
vt 0.240249 0.287218
vt 0.751682 0.287218
vt 0.857602 0.542934
vt 0.751682 0.798649
vt 0.240249 0.798649
vt 0.857602 0.542934
vt 0.751682 0.287218
vt 0.495966 0.181297
vt 0.134329 0.542934
vt 0.240249 0.798648
vt 0.751682 0.287217
vt 0.857603 0.542934
vt 0.751682 0.798649
vt 0.495966 0.904571
vt 0.240249 0.798649
vt 0.857602 0.542934
vt 0.751682 0.287217
vt 0.495966 0.181297
vt 0.134329 0.542934
vt 0.240249 0.798649
vt 0.857603 0.542934
vt 0.751682 0.287217
vt 0.495966 0.181297
vt 0.134328 0.542934
vt 0.240249 0.798649
vt 0.751682 0.287218
vt 0.857602 0.542934
vt 0.240249 0.798649
vt 0.751682 0.287218
vt 0.857602 0.542934
vt 0.751682 0.798649
vt 0.240249 0.287218
vt 0.857602 0.542934
vt 0.751682 0.287218
vt 0.495966 0.181297
vt 0.134329 0.542934
vt 0.240249 0.798649
vt 0.704916 0.628356
vt 0.241431 0.495932
vt 0.704916 0.495932
vt 0.291484 0.693138
vt 0.132037 0.308202
vt 0.291484 0.308202
vt 0.937500 0.625000
vt 0.500000 0.500000
vt 0.937500 0.500000
vt 0.700813 0.628356
vt 0.237328 0.495932
vt 0.700813 0.495932
vt 0.291484 0.693138
vt 0.132037 0.308202
vt 0.291484 0.308202
vt 0.299382 0.984540
vt 0.015938 0.300245
vt 0.700233 0.016800
vt 0.946710 0.628356
vt 0.483224 0.495932
vt 0.946710 0.495932
vt 0.291484 0.693138
vt 0.132037 0.308202
vt 0.291484 0.308202
vt 0.050124 0.787650
vt 0.213853 0.951380
vt 0.050124 0.951380
vt 0.725313 0.787650
vt 0.889043 0.951380
vt 0.725313 0.951380
vt 0.356468 0.787650
vt 0.520198 0.951380
vt 0.356468 0.951380
vt 0.723262 0.787650
vt 0.886992 0.951380
vt 0.723262 0.951380
vt 0.983209 0.989107
vt 0.385251 0.749923
vt 0.983209 0.749923
vt 0.614365 0.989107
vt 0.016406 0.749923
vt 0.614365 0.749923
vt 0.745704 0.080040
vt 0.745704 0.623618
vt 0.202125 0.623618
vt 0.767480 0.020020
vt 0.797490 0.170069
vt 0.797490 0.623618
vt 0.614364 0.989107
vt 0.016406 0.749923
vt 0.614364 0.749923
vt 0.232135 1.227217
vt 0.745704 1.167197
vt 0.767480 1.227217
vt 0.253911 1.167197
vt 1.199253 0.080040
vt 1.289283 0.170069
vt 1.289283 0.623618
vt 0.253911 0.080040
vt 0.253911 0.623618
vt -0.289668 0.623618
vt 1.199253 1.167197
vt -0.199638 1.167197
vt -0.289668 1.077167
vt 0.883946 0.186454
vt 0.249807 0.265722
vt 0.883946 0.265722
vt 0.749807 0.061454
vt 0.115669 0.140722
vt 0.749807 0.140722
vt 0.800845 0.017525
vt 0.820565 0.116123
vt 0.820565 0.623618
vt 0.883947 0.186454
vt 0.883947 0.265722
vt 0.749807 0.186454
vt 0.115669 0.265722
vt 0.749807 0.265722
vt 0.820565 0.373618
vt 0.800845 0.979712
vt 0.253911 0.940272
vt 0.115668 0.265722
vt 0.628911 0.056964
vt 0.628911 0.623618
vt 0.062257 0.623618
vt 0.121416 0.940272
vt 0.062257 0.373618
vt 0.628911 0.940272
vt 0.241431 0.628356
vt 0.132037 0.693138
vt 0.500000 0.625000
vt 0.237328 0.628356
vt 0.132037 0.693138
vt 0.983677 0.300244
vt 0.983677 0.701095
vt 0.700233 0.984540
vt 0.015938 0.701095
vt 0.299382 0.016800
vt 0.483224 0.628356
vt 0.213853 0.787650
vt 0.889043 0.787650
vt 0.520198 0.787650
vt 0.886992 0.787650
vt 0.385251 0.989107
vt 0.016406 0.989107
vt 0.202125 0.170069
vt 0.232135 0.020020
vt 0.016406 0.989107
vt 0.202125 1.077167
vt 0.797490 1.077167
vt -0.289668 0.170069
vt -0.199638 0.080040
vt 1.289283 1.077167
vt 0.249807 0.186454
vt 0.115669 0.061454
vt 0.253911 0.056964
vt 0.115669 0.186454
vt 0.253911 0.373618
vt 0.820565 0.881114
vt 0.115668 0.186454
vt 0.062257 0.116123
vt 0.121416 0.056964
vt 0.062257 0.881114
vt 0.628911 0.373618
vt 0.575498 0.500670
vt 0.726879 0.652051
vt 0.575498 0.652051
vt 0.424117 0.803432
vt 0.424117 0.652051
vt 0.575498 0.197908
vt 0.424117 0.349289
vt 0.424117 0.197908
vt 0.424117 0.500670
vt 0.272736 0.652051
vt 0.272736 0.500670
vt 0.575498 0.349289
vt 0.146268 0.849108
vt 0.300080 0.644025
vt 0.300080 0.849108
vt 0.392164 0.726160
vt 0.545977 0.521077
vt 0.545977 0.726160
vt 0.300080 0.849108
vt 0.146268 0.644025
vt 0.300080 0.644025
vt 0.146267 0.357315
vt 0.300080 0.152232
vt 0.300080 0.357315
vt 0.638061 0.357315
vt 0.791873 0.152231
vt 0.791873 0.357315
vt 0.268914 0.638650
vt 0.154606 0.362690
vt 0.268914 0.362690
vt 0.730524 0.405104
vt 0.730524 0.596236
vt 0.269091 0.405104
vt 0.154606 0.362690
vt 0.268914 0.362690
vt 0.392164 0.726160
vt 0.545977 0.521077
vt 0.545977 0.726160
vt 0.638061 0.480263
vt 0.791873 0.275181
vt 0.791873 0.480263
vt 0.300080 0.480263
vt 0.146267 0.275180
vt 0.300080 0.275180
vt 0.761009 0.972057
vt 0.914822 0.766973
vt 0.914822 0.972057
vt 0.761009 0.357315
vt 0.914822 0.152232
vt 0.914822 0.357315
vt 0.177132 0.480264
vt 0.023319 0.275180
vt 0.177132 0.275180
vt 0.638061 0.849108
vt 0.791873 0.644025
vt 0.791873 0.849108
vt 0.146268 0.275180
vt 0.300080 0.275180
vt 0.914821 0.603212
vt 0.761009 0.398128
vt 0.914821 0.398128
vt 0.730524 0.596236
vt 0.404242 0.731387
vt 0.269091 0.405104
vt 0.023319 0.357315
vt 0.177132 0.152232
vt 0.177132 0.357315
vt 0.638061 0.234367
vt 0.791873 0.029283
vt 0.791873 0.234367
vt 0.638061 0.726160
vt 0.791873 0.521077
vt 0.791873 0.726160
vt 0.638061 0.849108
vt 0.791873 0.644025
vt 0.791873 0.849108
vt 0.515112 0.480264
vt 0.668925 0.275180
vt 0.668925 0.480264
vt 0.638061 0.480263
vt 0.791873 0.275180
vt 0.791873 0.480263
vt 0.730524 0.405104
vt 0.269091 0.405104
vt 0.761009 0.480264
vt 0.914822 0.275180
vt 0.914822 0.480264
vt 0.515113 0.357315
vt 0.668925 0.152232
vt 0.668925 0.357315
vt 0.726879 0.500670
vt 0.423028 0.849108
vt 0.269216 0.644025
vt 0.423028 0.644025
vt 0.392164 0.726160
vt 0.545977 0.521077
vt 0.545977 0.726160
vt 0.146268 0.234366
vt 0.300080 0.029284
vt 0.300080 0.234366
vt 0.177132 0.603211
vt 0.023319 0.398129
vt 0.177132 0.398129
vt 0.268914 0.362690
vt 0.154606 0.638650
vt 0.154606 0.362690
vt 0.268914 0.638650
vt 0.154607 0.362690
vt 0.268914 0.362690
vt 0.146268 0.972056
vt 0.300080 0.766973
vt 0.300080 0.972056
vt 0.146268 0.603211
vt 0.300080 0.398129
vt 0.300080 0.603211
vt 0.269091 0.405104
vt 0.595373 0.269953
vt 0.730524 0.596236
vt 0.295262 0.006853
vt 0.704353 0.006853
vt 0.295262 0.994487
vt 0.914821 0.726160
vt 0.761009 0.521077
vt 0.914821 0.521077
vt 0.269216 0.972057
vt 0.423028 0.766973
vt 0.423028 0.972057
vt 0.023319 0.849108
vt 0.177132 0.644025
vt 0.177132 0.849108
vt 0.177132 0.357315
vt 0.023319 0.152232
vt 0.177132 0.152232
vt 0.392164 0.726160
vt 0.545977 0.726160
vt 0.268914 0.638650
vt 0.154607 0.362690
vt 0.268914 0.362690
vt 0.146268 0.849108
vt 0.300080 0.644025
vt 0.300080 0.849108
vt 0.392164 0.726160
vt 0.545977 0.521077
vt 0.545977 0.726160
vt 0.515113 0.480263
vt 0.668925 0.275180
vt 0.668925 0.480263
vt 0.638061 0.480263
vt 0.791873 0.275180
vt 0.791873 0.480263
vt 0.914822 0.357315
vt 0.761009 0.152232
vt 0.914822 0.152232
vt 0.761009 0.480263
vt 0.914821 0.275180
vt 0.914821 0.480263
vt 0.268914 0.638650
vt 0.154606 0.362689
vt 0.268914 0.362689
vt 0.268914 0.638650
vt 0.154607 0.362690
vt 0.268914 0.362690
vt 0.730524 0.405104
vt 0.730524 0.596236
vt 0.515113 0.480263
vt 0.668925 0.275180
vt 0.668925 0.480263
vt 0.914822 0.726160
vt 0.761009 0.521077
vt 0.914822 0.521077
vt 0.761009 0.480263
vt 0.914821 0.275180
vt 0.914821 0.480263
vt 0.515112 0.234367
vt 0.668925 0.029283
vt 0.668925 0.234367
vt 0.914822 0.849108
vt 0.761009 0.644025
vt 0.914822 0.644025
vt 0.269216 0.480263
vt 0.423028 0.275180
vt 0.423028 0.480263
vt 0.146267 0.849108
vt 0.300080 0.644025
vt 0.300080 0.849108
vt 0.392164 0.726160
vt 0.545977 0.521077
vt 0.730524 0.405104
vt 0.730524 0.596236
vt 0.269091 0.405104
vt 0.545976 0.726160
vt 0.392164 0.521077
vt 0.545976 0.521077
vt 0.146267 0.480264
vt 0.300080 0.275180
vt 0.300080 0.480264
vt 0.146268 0.849108
vt 0.300080 0.644025
vt 0.392164 0.357315
vt 0.545977 0.152232
vt 0.545977 0.357315
vt 0.146268 0.603211
vt 0.300080 0.398129
vt 0.300080 0.603211
vt 0.638061 0.357315
vt 0.791873 0.152232
vt 0.791873 0.357315
vt 0.638061 0.357315
vt 0.791873 0.152232
vt 0.791873 0.357315
vt 0.392164 0.726160
vt 0.545976 0.521077
vt 0.392164 0.726160
vt 0.545977 0.521076
vt 0.545977 0.726160
vt 0.545976 0.726160
vt 0.392164 0.521077
vt 0.545976 0.521077
vt 0.404242 0.731386
vt 0.430184 0.447345
vt 0.507957 0.369572
vt 0.507957 0.447345
vt 0.430184 0.447345
vt 0.507957 0.447345
vt 0.507957 0.369572
vt 0.986367 0.500670
vt 0.499807 0.500670
vt 0.499807 0.014111
vt 0.101062 0.183018
vt 0.749807 0.264111
vt 0.263248 0.750670
vt 0.898553 0.818322
vt 0.817460 0.899415
vt 0.249807 0.737229
vt 0.749807 0.737229
vt 0.101062 0.818322
vt 0.263248 0.250670
vt 0.575498 0.803432
vt 0.146268 0.644025
vt 0.392164 0.521077
vt 0.146268 0.849108
vt 0.146267 0.152232
vt 0.638061 0.152231
vt 0.154607 0.638650
vt 0.595373 0.731387
vt 0.404242 0.731387
vt 0.269091 0.596236
vt 0.404242 0.269953
vt 0.595373 0.269953
vt 0.154606 0.638650
vt 0.392164 0.521077
vt 0.638061 0.275181
vt 0.146267 0.480263
vt 0.761009 0.766973
vt 0.761009 0.152232
vt 0.023319 0.480264
vt 0.638061 0.644025
vt 0.146268 0.480263
vt 0.761009 0.603212
vt 0.595373 0.731387
vt 0.269091 0.596236
vt 0.404242 0.269953
vt 0.595373 0.269953
vt 0.023319 0.152232
vt 0.638061 0.029283
vt 0.638061 0.521077
vt 0.638061 0.644025
vt 0.515112 0.275180
vt 0.638061 0.275180
vt 0.269091 0.596236
vt 0.404242 0.269953
vt 0.595373 0.269953
vt 0.761009 0.275180
vt 0.515113 0.152232
vt 0.269216 0.849108
vt 0.392164 0.521077
vt 0.146268 0.029284
vt 0.023319 0.603211
vt 0.268914 0.638650
vt 0.154607 0.638650
vt 0.146268 0.766973
vt 0.146268 0.398129
vt 0.595373 0.731386
vt 0.404242 0.731386
vt 0.269091 0.596236
vt 0.404242 0.269953
vt 0.730524 0.405104
vt 0.993624 0.296125
vt 0.993624 0.705215
vt 0.704353 0.994487
vt 0.005991 0.705215
vt 0.005991 0.296125
vt 0.761009 0.726160
vt 0.269216 0.766973
vt 0.023319 0.644025
vt 0.023319 0.357315
vt 0.392164 0.521077
vt 0.154607 0.638650
vt 0.146268 0.644025
vt 0.392164 0.521077
vt 0.515113 0.275180
vt 0.638061 0.275180
vt 0.761009 0.357315
vt 0.761009 0.275180
vt 0.154606 0.638650
vt 0.154607 0.638650
vt 0.595373 0.731386
vt 0.269091 0.596236
vt 0.404242 0.269954
vt 0.595373 0.269954
vt 0.515113 0.275180
vt 0.761009 0.726160
vt 0.761009 0.275180
vt 0.515112 0.029283
vt 0.761009 0.849108
vt 0.269216 0.275180
vt 0.146267 0.644025
vt 0.392164 0.521077
vt 0.595373 0.731386
vt 0.404242 0.731386
vt 0.269091 0.596236
vt 0.404242 0.269954
vt 0.595373 0.269954
vt 0.392164 0.726160
vt 0.146267 0.275180
vt 0.146268 0.644025
vt 0.392164 0.152232
vt 0.146268 0.398129
vt 0.638061 0.152232
vt 0.638061 0.152232
vt 0.392164 0.521077
vt 0.392164 0.521076
vt 0.392164 0.726160
vt 0.430184 0.369572
vt 0.430184 0.369572
vt 0.249807 0.264111
vt 0.817460 0.101924
vt 0.898553 0.183018
vt 0.736367 0.750670
vt 0.182155 0.101924
vt 0.013248 0.500670
vt 0.499807 0.987229
vt 0.736367 0.250670
vt 0.182155 0.899415
s 1
usemtl ionic_volute
f 19/1/1 21/2/1 23/3/1
f 32/4/2 30/5/2 38/6/2
f 51/7/3 53/8/3 55/9/3
f 72/10/4 70/11/4 78/12/4
f 104/13/5 102/14/5 110/15/5
f 123/16/6 125/17/6 127/18/6
f 143/19/7 147/20/7 151/18/7
f 186/21/8 184/22/8 192/23/8
f 23/3/1 9/24/1 11/25/1
f 11/25/1 13/26/1 23/3/1
f 13/26/1 15/19/1 23/3/1
f 15/19/1 17/27/1 23/3/1
f 17/27/1 19/1/1 23/3/1
f 30/5/2 28/28/2 26/29/2
f 26/29/2 40/30/2 30/5/2
f 40/30/2 38/6/2 30/5/2
f 38/6/2 36/31/2 34/32/2
f 34/32/2 32/4/2 38/6/2
f 55/9/3 41/33/3 43/34/3
f 43/34/3 45/35/3 55/9/3
f 45/35/3 47/36/3 55/9/3
f 47/36/3 49/37/3 55/9/3
f 49/37/3 51/7/3 55/9/3
f 70/11/4 68/38/4 66/39/4
f 66/39/4 80/40/4 70/11/4
f 80/40/4 78/12/4 70/11/4
f 78/12/4 76/41/4 74/42/4
f 74/42/4 72/10/4 78/12/4
f 102/14/5 100/43/5 98/44/5
f 98/44/5 112/45/5 102/14/5
f 112/45/5 110/15/5 102/14/5
f 110/15/5 108/46/5 106/47/5
f 106/47/5 104/13/5 110/15/5
f 127/18/6 113/48/6 115/49/6
f 115/49/6 117/22/6 127/18/6
f 117/22/6 119/21/6 127/18/6
f 119/21/6 121/50/6 127/18/6
f 121/50/6 123/16/6 127/18/6
f 151/18/7 137/51/7 139/52/7
f 139/52/7 141/53/7 151/18/7
f 141/53/7 143/19/7 151/18/7
f 143/19/7 145/27/7 147/20/7
f 147/20/7 149/54/7 151/18/7
f 184/22/8 182/55/8 180/56/8
f 180/56/8 194/57/8 184/22/8
f 194/57/8 192/23/8 184/22/8
f 192/23/8 190/58/8 188/59/8
f 188/59/8 186/21/8 192/23/8
usemtl ionic_egg
f 82/60/9 83/61/9 81/62/9
f 84/63/10 85/64/10 83/65/10
f 86/66/11 87/67/11 85/68/11
f 88/63/12 89/64/12 87/65/12
f 90/69/13 91/70/13 89/71/13
f 92/72/14 93/73/14 91/74/14
f 94/78/16 95/79/16 93/80/16
f 96/81/17 81/82/17 95/83/17
f 166/84/10 164/85/10 163/86/10
f 176/87/14 178/88/14 177/89/14
f 170/90/12 168/91/12 167/92/12
f 174/93/17 172/94/17 171/95/17
f 163/96/18 156/97/18 166/98/18
f 160/99/19 165/100/19 157/101/19
f 160/102/15 162/103/15 154/104/15
f 165/105/20 166/106/20 156/107/20
f 167/96/21 159/97/21 170/98/21
f 154/108/22 169/109/22 156/110/22
f 167/111/15 154/104/15 158/112/15
f 156/107/20 170/113/20 159/114/20
f 171/96/23 157/97/23 174/98/23
f 155/108/24 173/109/24 153/110/24
f 171/115/15 172/116/15 155/117/15
f 157/118/20 161/119/20 153/120/20
f 175/96/25 153/97/25 178/98/25
f 158/108/26 177/109/26 159/110/26
f 155/117/15 176/121/15 158/112/15
f 159/114/20 177/122/20 178/123/20
f 213/124/27 206/125/27 216/126/27
f 210/127/28 215/128/28 207/129/28
f 217/133/29 209/125/29 220/134/29
f 204/135/30 219/136/30 206/137/30
f 221/124/31 207/125/31 224/126/31
f 205/135/32 223/141/32 203/137/32
f 225/133/33 203/125/33 228/134/33
f 208/135/34 227/141/34 209/137/34
f 82/60/9 84/148/9 83/61/9
f 84/63/10 86/149/10 85/64/10
f 86/66/11 88/150/11 87/67/11
f 88/63/12 90/149/12 89/64/12
f 90/69/13 92/151/13 91/70/13
f 92/72/14 94/152/14 93/73/14
f 94/78/16 96/158/16 95/79/16
f 96/81/17 82/149/17 81/82/17
f 166/84/10 165/159/10 164/85/10
f 176/87/14 175/160/14 178/88/14
f 170/90/12 169/161/12 168/91/12
f 174/93/17 173/162/17 172/94/17
f 163/96/18 154/163/18 156/97/18
f 160/99/19 164/164/19 165/100/19
f 154/104/15 163/165/15 164/166/15
f 164/166/15 160/102/15 154/104/15
f 161/119/20 157/118/20 156/107/20
f 157/118/20 165/105/20 156/107/20
f 167/96/21 158/163/21 159/97/21
f 154/108/22 168/167/22 169/109/22
f 168/168/15 154/104/15 167/111/15
f 154/104/15 162/103/15 158/112/15
f 159/114/20 161/119/20 156/107/20
f 156/107/20 169/169/20 170/113/20
f 171/96/23 160/163/23 157/97/23
f 155/108/24 172/167/24 173/109/24
f 162/103/15 160/102/15 155/117/15
f 160/102/15 171/115/15 155/117/15
f 153/120/20 173/170/20 174/171/20
f 174/171/20 157/118/20 153/120/20
f 175/96/25 155/163/25 153/97/25
f 158/108/26 176/167/26 177/109/26
f 158/112/15 162/103/15 155/117/15
f 155/117/15 175/172/15 176/121/15
f 178/123/20 153/120/20 159/114/20
f 153/120/20 161/119/20 159/114/20
f 213/124/27 204/173/27 206/125/27
f 210/127/28 214/174/28 215/128/28
f 217/133/29 208/173/29 209/125/29
f 204/135/30 218/176/30 219/136/30
f 221/124/31 210/173/31 207/125/31
f 205/135/32 222/179/32 223/141/32
f 225/133/33 205/173/33 203/125/33
f 208/135/34 226/179/34 227/141/34
usemtl ionic_capital
f 94/75/15 90/76/15 86/77/15
f 215/130/20 216/131/20 206/132/20
f 206/138/20 220/139/20 209/140/20
f 207/142/20 211/143/20 203/144/20
f 227/145/20 203/146/20 209/147/20
f 86/77/15 84/153/15 82/154/15
f 82/154/15 96/155/15 94/75/15
f 94/75/15 92/156/15 90/76/15
f 90/76/15 88/157/15 86/77/15
f 86/77/15 82/154/15 94/75/15
f 211/119/20 207/175/20 206/132/20
f 207/175/20 215/130/20 206/132/20
f 209/140/20 211/177/20 206/138/20
f 206/138/20 219/178/20 220/139/20
f 203/144/20 223/180/20 224/181/20
f 224/181/20 207/142/20 203/144/20
f 228/182/20 203/146/20 227/145/20
f 203/146/20 211/183/20 209/147/20
f 1/184/15 7/185/15 3/186/15
f 3/186/9 8/187/9 4/188/9
f 7/189/11 6/190/11 8/191/11
f 2/192/20 8/193/20 6/194/20
f 1/184/16 4/188/16 2/192/16
f 5/195/13 2/192/13 6/190/13
f 10/196/35 11/197/35 9/198/35
f 12/199/36 13/200/36 11/201/36
f 13/202/37 16/203/37 15/204/37
f 16/205/38 17/206/38 15/207/38
f 18/208/39 19/209/39 17/210/39
f 20/211/40 21/212/40 19/213/40
f 16/214/6 14/215/6 22/216/6
f 22/211/41 23/217/41 21/218/41
f 24/219/42 9/220/42 23/221/42
f 26/222/43 27/223/43 25/224/43
f 27/225/44 30/226/44 29/227/44
f 30/228/45 31/229/45 29/230/45
f 32/231/46 33/232/46 31/233/46
f 33/234/47 36/235/47 35/236/47
f 36/237/48 37/238/48 35/239/48
f 37/225/49 40/240/49 39/241/49
f 39/242/50 26/243/50 25/244/50
f 39/245/4 27/246/4 31/247/4
f 42/248/51 43/249/51 41/250/51
f 44/251/52 45/252/52 43/253/52
f 46/254/53 47/255/53 45/256/53
f 48/257/54 49/258/54 47/259/54
f 50/260/55 51/261/55 49/262/55
f 52/263/56 53/264/56 51/265/56
f 48/266/7 46/245/7 54/267/7
f 54/268/57 55/269/57 53/270/57
f 56/271/58 41/272/58 55/273/58
f 61/274/15 59/186/15 57/184/15
f 59/186/13 64/187/13 60/188/13
f 63/189/16 62/190/16 64/191/16
f 58/192/20 64/193/20 62/194/20
f 57/184/11 60/188/11 58/192/11
f 61/195/9 58/192/9 62/190/9
f 65/275/48 68/276/48 67/277/48
f 68/278/47 69/279/47 67/280/47
f 70/281/46 71/282/46 69/283/46
f 71/284/45 74/285/45 73/286/45
f 73/287/44 76/288/44 75/289/44
f 76/290/43 77/291/43 75/292/43
f 78/293/50 79/294/50 77/295/50
f 80/296/49 65/297/49 79/298/49
f 71/299/2 75/300/2 79/301/2
f 93/302/20 95/303/20 87/304/20
f 97/305/59 100/306/59 99/307/59
f 100/308/60 101/309/60 99/310/60
f 102/311/61 103/312/61 101/313/61
f 103/314/62 106/315/62 105/316/62
f 106/317/63 107/200/63 105/318/63
f 108/319/64 109/320/64 107/321/64
f 110/322/65 111/323/65 109/324/65
f 112/325/66 97/326/66 111/327/66
f 109/266/8 111/245/8 103/267/8
f 114/328/40 115/329/40 113/330/40
f 116/331/39 117/332/39 115/333/39
f 117/334/38 120/335/38 119/336/38
f 120/337/37 121/338/37 119/339/37
f 122/340/36 123/341/36 121/342/36
f 124/343/35 125/344/35 123/345/35
f 120/346/1 118/347/1 126/299/1
f 126/348/42 127/349/42 125/350/42
f 127/351/41 114/352/41 113/353/41
f 133/274/15 131/186/15 129/184/15
f 131/186/11 136/187/11 132/188/11
f 135/189/13 134/190/13 136/191/13
f 134/194/20 132/188/20 136/193/20
f 129/184/9 132/188/9 130/192/9
f 133/195/16 130/192/16 134/190/16
f 138/354/56 139/355/56 137/356/56
f 140/357/55 141/358/55 139/359/55
f 141/360/54 144/361/54 143/362/54
f 144/363/53 145/364/53 143/365/53
f 146/366/52 147/367/52 145/368/52
f 148/369/51 149/370/51 147/318/51
f 144/371/3 142/372/3 150/373/3
f 149/374/58 152/375/58 151/376/58
f 152/377/57 137/378/57 151/379/57
f 180/380/64 181/381/64 179/198/64
f 182/382/63 183/383/63 181/384/63
f 184/385/62 185/386/62 183/387/62
f 186/388/61 187/389/61 185/390/61
f 188/391/60 189/392/60 187/393/60
f 190/394/59 191/395/59 189/374/59
f 192/396/66 193/397/66 191/398/66
f 193/399/65 180/400/65 179/401/65
f 193/347/5 181/402/5 185/299/5
f 199/274/15 197/186/15 195/184/15
f 197/186/16 202/187/16 198/188/16
f 201/189/9 200/190/9 202/191/9
f 196/192/20 202/193/20 200/194/20
f 195/184/13 198/188/13 196/192/13
f 199/195/11 196/192/11 200/190/11
f 216/403/10 214/404/10 213/405/10
f 226/406/14 228/404/14 227/407/14
f 220/403/12 218/408/12 217/405/12
f 224/403/17 222/408/17 221/405/17
f 210/409/15 212/410/15 204/411/15
f 217/412/15 204/413/15 208/414/15
f 221/415/15 222/416/15 205/417/15
f 205/418/15 226/419/15 208/420/15
f 1/184/15 5/274/15 7/185/15
f 3/186/9 7/421/9 8/187/9
f 7/189/11 5/195/11 6/190/11
f 2/192/20 4/188/20 8/193/20
f 1/184/16 3/186/16 4/188/16
f 5/195/13 1/184/13 2/192/13
f 10/196/35 12/422/35 11/197/35
f 12/199/36 14/423/36 13/200/36
f 13/202/37 14/424/37 16/203/37
f 16/205/38 18/425/38 17/206/38
f 18/208/39 20/426/39 19/209/39
f 20/211/40 22/427/40 21/212/40
f 14/215/6 12/428/6 10/429/6
f 10/429/6 24/430/6 14/215/6
f 24/430/6 22/216/6 14/215/6
f 22/216/6 20/431/6 18/432/6
f 18/432/6 16/214/6 22/216/6
f 22/211/41 24/433/41 23/217/41
f 24/219/42 10/434/42 9/220/42
f 26/222/43 28/435/43 27/223/43
f 27/225/44 28/436/44 30/226/44
f 30/228/45 32/437/45 31/229/45
f 32/231/46 34/438/46 33/232/46
f 33/234/47 34/439/47 36/235/47
f 36/237/48 38/440/48 37/238/48
f 37/225/49 38/441/49 40/240/49
f 39/242/50 40/442/50 26/243/50
f 39/245/4 25/443/4 27/246/4
f 27/246/4 29/444/4 31/247/4
f 31/247/4 33/445/4 35/446/4
f 35/446/4 37/266/4 31/247/4
f 37/266/4 39/245/4 31/247/4
f 42/248/51 44/447/51 43/249/51
f 44/251/52 46/448/52 45/252/52
f 46/254/53 48/449/53 47/255/53
f 48/257/54 50/450/54 49/258/54
f 50/260/55 52/451/55 51/261/55
f 52/263/56 54/452/56 53/264/56
f 46/245/7 44/443/7 42/246/7
f 42/246/7 56/453/7 46/245/7
f 56/453/7 54/267/7 46/245/7
f 54/267/7 52/454/7 50/455/7
f 50/455/7 48/266/7 54/267/7
f 54/268/57 56/456/57 55/269/57
f 56/271/58 42/457/58 41/272/58
f 61/274/15 63/185/15 59/186/15
f 59/186/13 63/421/13 64/187/13
f 63/189/16 61/195/16 62/190/16
f 58/192/20 60/188/20 64/193/20
f 57/184/11 59/186/11 60/188/11
f 61/195/9 57/184/9 58/192/9
f 65/275/48 66/458/48 68/276/48
f 68/278/47 70/459/47 69/279/47
f 70/281/46 72/460/46 71/282/46
f 71/284/45 72/461/45 74/285/45
f 73/287/44 74/462/44 76/288/44
f 76/290/43 78/463/43 77/291/43
f 78/293/50 80/464/50 79/294/50
f 80/296/49 66/465/49 65/297/49
f 79/301/2 65/466/2 71/299/2
f 65/466/2 67/467/2 71/299/2
f 67/467/2 69/468/2 71/299/2
f 71/299/2 73/469/2 75/300/2
f 75/300/2 77/470/2 79/301/2
f 95/303/20 81/471/20 83/472/20
f 83/472/20 85/473/20 95/303/20
f 85/473/20 87/304/20 95/303/20
f 87/304/20 89/474/20 91/475/20
f 91/475/20 93/302/20 87/304/20
f 97/305/59 98/476/59 100/306/59
f 100/308/60 102/477/60 101/309/60
f 102/311/61 104/478/61 103/312/61
f 103/314/62 104/479/62 106/315/62
f 106/317/63 108/480/63 107/200/63
f 108/319/64 110/481/64 109/320/64
f 110/322/65 112/482/65 111/323/65
f 112/325/66 98/483/66 97/326/66
f 111/245/8 97/443/8 99/246/8
f 99/246/8 101/453/8 111/245/8
f 101/453/8 103/267/8 111/245/8
f 103/267/8 105/454/8 107/455/8
f 107/455/8 109/266/8 103/267/8
f 114/328/40 116/484/40 115/329/40
f 116/331/39 118/485/39 117/332/39
f 117/334/38 118/486/38 120/335/38
f 120/337/37 122/487/37 121/338/37
f 122/340/36 124/488/36 123/341/36
f 124/343/35 126/489/35 125/344/35
f 118/347/1 116/490/1 126/299/1
f 116/490/1 114/402/1 126/299/1
f 114/402/1 128/491/1 126/299/1
f 126/299/1 124/492/1 122/493/1
f 122/493/1 120/346/1 126/299/1
f 126/348/42 128/494/42 127/349/42
f 127/351/41 128/495/41 114/352/41
f 133/274/15 135/185/15 131/186/15
f 131/186/11 135/421/11 136/187/11
f 135/189/13 133/195/13 134/190/13
f 134/194/20 130/192/20 132/188/20
f 129/184/9 131/186/9 132/188/9
f 133/195/16 129/184/16 130/192/16
f 138/354/56 140/496/56 139/355/56
f 140/357/55 142/497/55 141/358/55
f 141/360/54 142/498/54 144/361/54
f 144/363/53 146/499/53 145/364/53
f 146/366/52 148/500/52 147/367/52
f 148/369/51 150/501/51 149/370/51
f 142/372/3 140/502/67 138/503/3
f 138/503/3 152/504/3 142/372/3
f 152/504/3 150/373/3 142/372/3
f 150/373/3 148/505/3 146/506/3
f 146/506/3 144/371/3 150/373/3
f 149/374/58 150/507/58 152/375/58
f 152/377/57 138/508/57 137/378/57
f 180/380/64 182/509/64 181/381/64
f 182/382/63 184/510/63 183/383/63
f 184/385/62 186/511/62 185/386/62
f 186/388/61 188/512/61 187/389/61
f 188/391/60 190/513/60 189/392/60
f 190/394/59 192/514/59 191/395/59
f 192/396/66 194/515/66 193/397/66
f 193/399/65 194/516/65 180/400/65
f 193/347/5 179/490/5 181/402/5
f 181/402/5 183/491/5 185/299/5
f 185/299/5 187/492/5 189/493/5
f 189/493/5 191/346/5 185/299/5
f 191/346/5 193/347/5 185/299/5
f 199/274/15 201/185/15 197/186/15
f 197/186/16 201/421/16 202/187/16
f 201/189/9 199/195/9 200/190/9
f 196/192/20 198/188/20 202/193/20
f 195/184/13 197/186/13 198/188/13
f 199/195/11 195/184/11 196/192/11
f 216/403/10 215/517/10 214/404/10
f 226/406/14 225/517/14 228/404/14
f 220/403/12 219/518/12 218/408/12
f 224/403/17 223/518/17 222/408/17
f 204/519/15 213/520/15 214/521/15
f 214/521/15 210/522/15 204/519/15
f 218/523/15 204/413/15 217/412/15
f 204/411/15 212/410/15 208/524/15
f 212/410/15 210/409/15 205/525/15
f 210/526/15 221/415/15 205/417/15
f 208/524/15 212/410/15 205/525/15
f 205/418/15 225/527/15 226/419/15
