# Blender 5.0.1
# www.blender.org
mtllib large_arch.mtl
o HalfBig.001
usemtl arch_mat
v 1.500107 0.002908 -0.005504
v 0.998507 0.002908 -0.005504
v 1.500107 0.002908 1.004496
v 0.998507 0.002908 1.004496
v 0.678259 0.736733 1.004496
v 1.018982 1.105370 -0.005504
v 1.018982 1.105370 1.004496
v 0.678259 0.736733 -0.005504
v 0.328052 0.947319 1.004496
v 0.492849 1.421744 -0.005504
v 0.492849 1.421744 1.004496
v 0.328052 0.947319 -0.005504
v 1.374573 0.604480 1.004496
v 0.914948 0.403329 -0.005504
v 0.914949 0.403329 1.004496
v 1.374573 0.604480 -0.005504
v 0.813811 0.582281 1.004496
v 1.222630 0.873330 -0.005504
v 1.222630 0.873330 1.004496
v 0.813811 0.582281 -0.005504
v 1.468388 0.310191 1.004496
v 0.977394 0.207443 -0.005504
v 0.977394 0.207443 1.004496
v 1.468388 0.310191 -0.005504
v 0.772244 1.290788 1.004496
v 0.514024 0.860152 -0.005504
v 0.514024 0.860152 1.004496
v 0.772244 1.290788 -0.005504
v 0.128207 0.994549 1.004496
v 0.192611 1.492700 -0.005504
v 0.192611 1.492700 1.004496
v 0.128207 0.994549 -0.005504
v 0.419258 1.445270 1.004496
v 0.279068 0.962978 -0.005504
v 0.279068 0.962978 1.004496
v 0.419258 1.445270 -0.005504
v 0.077060 0.999843 1.004496
v 0.115771 1.500654 -0.005504
v 0.115772 1.500654 1.004496
v 0.077060 0.999843 -0.005504
v 0.469275 0.885514 1.004496
v 0.705015 1.328891 -0.005504
v 0.705015 1.328891 1.004496
v 0.469275 0.885514 -0.005504
v 0.960958 1.156438 1.004496
v 0.639636 0.770725 -0.005504
v 0.639637 0.770725 1.004496
v 0.960958 1.156438 -0.005504
v 0.782949 0.623466 1.004496
v 1.176263 0.935204 -0.005504
v 1.176263 0.935204 1.004496
v 0.782949 0.623466 -0.005504
v 1.341826 0.674544 1.004496
v 0.893151 0.449965 -0.005504
v 0.893151 0.449965 1.004496
v 1.341826 0.674544 -0.005504
v 0.965584 0.257558 1.004496
v 1.450645 0.385482 -0.005504
v 1.450645 0.385482 1.004496
v 0.965584 0.257558 -0.005504
v 1.498118 0.080240 1.004496
v 0.997183 0.054382 -0.005504
v 0.997183 0.054382 1.004496
v 1.498118 0.080240 -0.005504
v 0.000000 0.999843 1.004496
v 0.000000 1.500654 -0.005504
v 0.000000 1.500654 1.004496
v 0.000000 0.999843 -0.005504
vn -0.0000 -0.0000 1.0000
vn -0.0000 -1.0000 -0.0000
vn 0.4009 0.9161 -0.0000
vn -0.4009 -0.9161 -0.0000
vn 0.7344 0.6788 -0.0000
vn -0.0000 -0.0000 -1.0000
vn -0.3045 -0.9525 -0.0000
vn 0.3045 0.9525 -0.0000
vn 0.1030 0.9947 -0.0000
vn -0.1030 -0.9947 -0.0000
vn -0.4931 -0.8700 -0.0000
vn -0.9446 -0.3281 -0.0000
vn 0.4931 0.8700 -0.0000
vn 0.9446 0.3281 -0.0000
vn 0.6607 0.7507 -0.0000
vn 0.2048 0.9788 -0.0000
vn -0.6607 -0.7507 -0.0000
vn -0.2048 -0.9788 -0.0000
vn 0.8002 0.5997 -0.0000
vn -0.0000 1.0000 -0.0000
vn -0.8002 -0.5997 -0.0000
vn -0.9059 -0.4234 -0.0000
vn -0.9917 -0.1282 -0.0000
vn 0.9059 0.4234 -0.0000
vn 0.9917 0.1282 -0.0000
vn -0.9733 -0.2294 -0.0000
vn -0.8576 -0.5143 -0.0000
vn 0.9733 0.2294 -0.0000
vn 0.8576 0.5143 -0.0000
vn 0.9997 0.0257 -0.0000
vn 0.5800 0.8146 -0.0000
vn -0.9997 -0.0257 -0.0000
vn -0.5800 -0.8146 -0.0000
vn -0.7344 -0.6788 -0.0000
vn -1.0000 -0.0000 -0.0000
vt 0.250100 0.250075
vt 0.250100 0.312569
vt 0.749900 0.312569
vt 0.749900 0.250075
vt 0.486252 0.513748
vt 0.452225 0.513748
vt 0.452225 0.547775
vt 0.486252 0.547775
vt 0.000000 0.812500
vt 0.000000 1.000000
vt 1.000000 1.000000
vt 1.000000 0.812500
vt 1.000000 0.437500
vt 1.000000 0.312500
vt 0.000000 0.312500
vt -0.000000 0.437500
vt 0.500100 0.750050
vt 0.500100 0.562569
vt 0.999900 0.562569
vt 0.999900 0.750050
vt 0.250100 0.250000
vt 0.250100 0.312500
vt 0.749900 0.312500
vt 0.749900 0.250000
vt 0.000000 0.500000
vt 0.000000 0.562500
vt 1.000000 0.562500
vt 1.000000 0.500000
vt 1.000000 0.250000
vt 0.000000 0.250000
vt 0.500100 0.156310
vt 0.500100 0.062569
vt 0.999900 0.062569
vt 0.999900 0.156309
vt 0.250100 0.500050
vt 0.250100 0.312569
vt 0.749900 0.312569
vt 0.749900 0.500050
vt 0.250100 0.750000
vt 0.250100 0.812500
vt 0.749900 0.812500
vt 0.749900 0.750000
vt 0.999900 0.062500
vt 0.999900 0.250000
vt 0.500100 0.250000
vt 0.500100 0.062500
vt 0.000100 0.250050
vt 0.000100 0.062569
vt 0.499900 0.062569
vt 0.499900 0.250050
vt 0.250100 0.250000
vt 0.250100 0.312500
vt 0.499900 0.562569
vt 0.499900 0.750050
vt 0.000100 0.750050
vt 0.000100 0.562569
vt 0.000000 0.750000
vt 1.000000 0.750000
vt -0.000000 0.312500
vt 1.000000 0.937500
vt 0.000000 0.937500
vt 0.250100 0.750000
vt 0.250100 0.812500
vt 0.749900 0.812500
vt 0.749900 0.750000
vt 0.749900 0.812500
vt 0.749900 1.000000
vt 0.250100 1.000000
vt 0.250100 0.812500
vt 0.500100 0.250050
vt 0.999900 0.250050
vt 0.250100 1.000050
vt 0.250100 0.812569
vt 0.749900 0.812569
vt 0.749900 1.000050
vt 0.000000 0.906250
vt 1.000000 0.906250
vt 0.000000 0.000000
vt 0.000000 0.062500
vt 1.000000 0.062500
vt 1.000000 0.000000
vt 1.000000 0.375000
vt 0.000000 0.375000
vt 0.250100 0.750025
vt 0.250100 0.812519
vt 0.749900 0.812519
vt 0.749900 0.750025
vt 0.999900 0.156250
vt 0.999900 0.250000
vt 0.500100 0.250000
vt 0.500100 0.156250
vt 0.250100 0.250050
vt 0.250100 0.312544
vt 0.749900 0.312544
vt 0.749900 0.250050
vt 0.749900 0.812594
vt 0.749900 1.000075
vt 0.250100 1.000075
vt 0.250100 0.812594
vt 0.000100 0.750050
vt 0.000100 0.562569
vt 0.499900 0.562569
vt 0.999900 0.562544
vt 0.999900 0.750025
vt 0.500100 0.750025
vt 0.500100 0.562544
vt 0.500100 0.000100
vt 0.500100 0.062594
vt 0.999900 0.062594
vt 0.999900 0.000100
vt 0.499900 0.062500
vt 0.499900 0.250000
vt 0.000100 0.250000
vt 0.000100 0.062500
vt 0.749900 0.312519
vt 0.749900 0.500000
vt 0.250100 0.500000
vt 0.250100 0.312519
vt 0.500000 0.000000
vt 0.500000 1.000000
s 0
usemtl arch_mat
f 63/1/1 4/2/1 3/3/1 61/4/1
f 4/5/2 2/6/2 1/7/2 3/8/2
f 47/1/1 5/2/1 7/3/1 45/4/1
f 35/1/1 9/2/1 11/3/1 33/4/1
f 55/1/1 15/2/1 13/3/1 53/4/1
f 49/1/1 17/2/1 19/3/1 51/4/1
f 57/1/1 23/2/1 21/3/1 59/4/1
f 41/1/1 27/2/1 25/3/1 43/4/1
f 37/1/1 29/2/1 31/3/1 39/4/1
f 11/9/3 43/10/3 42/11/3 10/12/3
f 12/13/4 44/14/4 41/15/4 9/16/4
f 7/9/5 51/10/5 50/11/5 6/12/5
f 29/17/1 35/18/1 33/19/1 31/20/1
f 12/21/6 34/22/6 36/23/6 10/24/6
f 9/25/7 35/26/7 34/27/7 12/28/7
f 10/29/8 36/14/8 33/15/8 11/30/8
f 65/31/1 37/32/1 39/33/1 67/34/1
f 9/35/1 41/36/1 43/37/1 11/38/1
f 30/29/9 38/14/9 39/15/9 31/30/9
f 29/30/10 37/15/10 40/14/10 32/29/10
f 32/39/6 40/40/6 38/41/6 30/42/6
f 10/43/6 42/44/6 44/45/6 12/46/6
f 27/47/1 47/48/1 45/49/1 25/50/1
f 26/51/6 44/52/6 42/23/6 28/24/6
f 16/53/6 58/54/6 60/55/6 14/56/6
f 27/57/11 41/9/11 44/12/11 26/58/11
f 14/13/12 60/14/12 57/59/12 15/16/12
f 28/29/13 42/14/13 43/15/13 25/30/13
f 13/9/14 59/10/14 58/11/14 16/12/14
f 6/29/15 48/14/15 45/15/15 7/30/15
f 31/15/16 33/25/16 36/28/16 30/14/16
f 5/30/17 47/15/17 46/14/17 8/29/17
f 32/60/18 34/12/18 35/9/18 29/61/18
f 8/62/6 46/63/6 48/64/6 6/65/6
f 30/66/6 36/67/6 34/68/6 32/69/6
f 5/70/1 49/32/1 51/33/1 7/71/1
f 17/72/1 55/73/1 53/74/1 19/75/1
f 18/29/19 50/14/19 51/15/19 19/30/19
f 67/76/20 39/10/20 38/11/20 66/77/20
f 17/78/21 49/79/21 52/80/21 20/81/21
f 68/82/2 40/14/2 37/59/2 65/83/2
f 20/84/6 52/85/6 50/86/6 18/87/6
f 66/88/6 38/89/6 40/90/6 68/91/6
f 14/92/6 54/93/6 56/94/6 16/95/6
f 24/96/6 64/97/6 62/98/6 22/99/6
f 15/30/22 55/15/22 54/14/22 14/29/22
f 22/60/23 62/12/23 63/9/23 23/61/23
f 16/29/24 56/14/24 53/15/24 13/30/24
f 21/15/25 61/25/25 64/28/25 24/14/25
f 15/100/1 57/101/1 59/102/1 13/54/1
f 23/72/1 63/73/1 61/74/1 21/75/1
f 22/1/6 60/2/6 58/3/6 24/4/6
f 18/103/6 56/104/6 54/105/6 20/106/6
f 23/30/26 57/15/26 60/14/26 22/29/26
f 20/12/27 54/60/27 55/61/27 17/9/27
f 24/29/28 58/14/28 59/15/28 21/30/28
f 19/15/29 53/25/29 56/28/29 18/14/29
f 1/29/30 64/14/30 61/15/30 3/30/30
f 25/15/31 45/25/31 48/28/31 28/14/31
f 4/30/32 63/15/32 62/14/32 2/29/32
f 26/60/33 46/12/33 47/9/33 27/61/33
f 2/107/6 62/108/6 64/109/6 1/110/6
f 28/111/6 48/112/6 46/113/6 26/114/6
f 8/13/34 52/14/34 49/15/34 5/16/34
f 6/115/6 50/116/6 52/117/6 8/118/6
f 68/119/35 65/120/35 67/10/35 66/78/35
