# Blender 5.1.1
# www.blender.org
mtllib large_roman_ionic_base.mtl
o small_roman_ionic_base
v 0.115726 0.618751 -0.427768
v 0.115726 0.825001 -0.427768
v 0.884313 0.618751 -0.427768
v 0.884313 0.825001 -0.427768
v 1.427786 0.618751 0.115705
v 1.427786 0.825001 0.115705
v 1.427786 0.618751 0.884291
v 1.427786 0.825001 0.884291
v 0.884313 0.618751 1.427764
v 0.884313 0.825001 1.427764
v 0.115726 0.618751 1.427764
v 0.115726 0.825001 1.427764
v -0.427747 0.618751 0.884291
v -0.427747 0.825001 0.884291
v -0.427747 0.618751 0.115705
v -0.427747 0.825001 0.115705
v 0.158291 0.412501 -0.325008
v 0.158291 0.618751 -0.325008
v 0.841748 0.412501 -0.325008
v 0.841748 0.618751 -0.325008
v 1.325026 0.412501 0.158269
v 1.325026 0.618751 0.158269
v 1.325026 0.412501 0.841727
v 1.325026 0.618751 0.841727
v 0.841748 0.412501 1.325004
v 0.841748 0.618751 1.325004
v 0.158291 0.412501 1.325004
v 0.158291 0.618751 1.325004
v -0.324986 0.412501 0.841727
v -0.324986 0.618751 0.841727
v -0.324986 0.412501 0.158269
v -0.324986 0.618751 0.158269
v 0.226639 0.206251 -0.160002
v 0.226639 0.412501 -0.160002
v 0.773400 0.206251 -0.160002
v 0.773400 0.412501 -0.160002
v 1.160020 0.206251 0.226617
v 1.160020 0.412501 0.226617
v 1.160020 0.206251 0.773379
v 1.160020 0.412501 0.773379
v 0.773400 0.206251 1.159998
v 0.773400 0.412501 1.159998
v 0.226639 0.206251 1.159998
v 0.226639 0.412501 1.159998
v -0.159980 0.206251 0.773379
v -0.159980 0.412501 0.773379
v -0.159980 0.206251 0.226617
v -0.159980 0.412501 0.226617
v 1.221895 0.206250 -0.221877
v 1.221895 0.000001 -0.221877
v 1.221895 0.206250 1.221873
v 1.221895 0.000001 1.221873
v -0.221855 0.206250 -0.221877
v -0.221855 0.000001 -0.221877
v -0.221855 0.206250 1.221873
v -0.221855 0.000001 1.221873
v 0.884313 0.825001 0.884291
v 0.115726 0.825001 0.115705
v 0.115726 0.825001 0.884291
v 0.884313 0.825001 0.115705
v -0.221855 0.000001 0.499998
v 1.221895 0.206250 0.499998
v -0.221855 0.206250 0.499998
v 1.221895 0.000001 0.499998
v 0.500020 0.000001 -0.221877
v 0.500020 0.206250 1.221873
v 0.500020 0.000001 1.221873
v 0.500020 0.206250 -0.221877
v 0.500020 0.000001 0.499998
v 0.500020 0.206250 0.499998
vn -0.0000 -0.0000 -1.0000
vn 0.7071 -0.0000 -0.7071
vn 1.0000 -0.0000 -0.0000
vn 0.7071 -0.0000 0.7071
vn -0.0000 -0.0000 1.0000
vn -0.7071 -0.0000 0.7071
vn -0.0000 1.0000 -0.0000
vn -1.0000 -0.0000 -0.0000
vn -0.7071 -0.0000 -0.7071
vn -0.0000 -1.0000 -0.0000
vt 0.017352 0.800984
vt 0.225277 0.038585
vt 0.225277 0.800986
vt 0.596576 0.800981
vt 0.804502 0.038588
vt 0.804502 0.800981
vt 0.275713 0.907936
vt 0.483639 0.145542
vt 0.483639 0.907936
vt 0.061805 0.800984
vt 0.269731 0.038587
vt 0.269731 0.800982
vt 0.168759 0.952389
vt 0.376685 0.189995
vt 0.376685 0.952393
vt 0.382668 0.800984
vt 0.590593 0.038585
vt 0.590593 0.800982
vt 0.444843 0.988320
vt 0.444843 0.444843
vt 0.988316 0.444843
vt 0.767352 0.800983
vt 0.975277 0.038584
vt 0.975277 0.800983
vt 0.596576 0.800983
vt 0.804502 0.038586
vt 0.804502 0.800983
vt 0.700098 0.016921
vt 0.983079 0.700098
vt 0.299902 0.983079
vt 0.404985 0.691458
vt 0.621752 0.041156
vt 0.621752 0.691458
vt 0.404985 0.691458
vt 0.621753 0.041156
vt 0.621753 0.691458
vt 0.404986 0.798413
vt 0.621753 0.148110
vt 0.621753 0.798413
vt 0.725849 0.905366
vt 0.942616 0.255065
vt 0.942616 0.905366
vt 0.084124 0.905365
vt 0.300891 0.255065
vt 0.300891 0.905365
vt 0.158271 1.325009
vt -0.325009 0.158269
vt 0.841730 -0.325009
vt 0.511940 0.691458
vt 0.728706 0.041156
vt 0.728706 0.691458
vt 0.618894 0.949817
vt 0.835662 0.299518
vt 0.835662 0.949817
vt 0.985858 0.701249
vt 0.298751 0.985858
vt 0.014142 0.298751
vt 0.109391 0.578314
vt 0.321777 0.047345
vt 0.321777 0.578314
vt 0.751116 0.685269
vt 0.963503 0.154301
vt 0.963503 0.685269
vt 0.216346 1.006129
vt 0.428733 0.475162
vt 0.428733 1.006129
vt 0.751049 0.890175
vt 0.970890 0.377212
vt 0.970890 0.890175
vt 0.216278 0.783220
vt 0.436120 0.270257
vt 0.436120 0.783218
vt 0.109325 0.569311
vt 0.329166 0.056348
vt 0.329166 0.569311
vt 0.226618 1.160004
vt -0.160000 0.226618
vt 0.773382 -0.160004
vt 0.483071 0.721359
vt 0.695458 0.190392
vt 0.695458 0.721359
vt 0.537207 0.899176
vt 0.749595 0.368209
vt 0.749595 0.899176
vt 0.226618 1.160004
vt -0.160000 0.226618
vt 0.773382 -0.160004
vt 0.028122 0.750000
vt 0.750000 0.028122
vt 0.750000 0.750000
vt 0.759938 0.812500
vt 0.952869 0.040787
vt 0.952869 0.812502
vt 0.421029 0.812500
vt 0.613959 0.040780
vt 0.613959 0.812500
vt 0.750000 0.971877
vt 0.028122 0.250000
vt 0.750000 0.250000
vt 0.715483 0.812502
vt 0.908413 0.040780
vt 0.908413 0.812502
vt 0.180714 0.812500
vt 0.373644 0.040778
vt 0.373644 0.812500
vt 0.431844 0.113759
vt 0.972580 0.886241
vt 0.431844 0.886241
vt 0.988317 0.555158
vt 0.444842 0.555158
vt 0.444841 0.011683
vt 0.886241 0.553789
vt 0.113759 0.013053
vt 0.886241 0.013053
vt 0.555157 0.011684
vt 0.555157 0.555157
vt 0.011680 0.555157
vt 0.553788 0.113759
vt 0.013053 0.886241
vt 0.013053 0.113759
vt 0.011680 0.444842
vt 0.555157 0.444842
vt 0.555157 0.988315
vt 0.886241 0.972580
vt 0.113759 0.431844
vt 0.886241 0.431844
vt 0.115706 0.115706
vt 0.884295 0.884295
vt 0.115706 0.884295
vt 0.715483 0.959224
vt 0.908413 0.187502
vt 0.908413 0.959224
vt 0.971877 0.971877
vt 0.250000 0.250000
vt 0.971877 0.250000
vt 0.421029 0.959220
vt 0.613959 0.187500
vt 0.613959 0.959220
vt 0.028122 0.971877
vt 0.250000 0.971877
vt 0.971877 0.750000
vt 0.250000 0.028122
vt 0.971877 0.028122
vt 0.180714 0.959221
vt 0.373644 0.187500
vt 0.373644 0.959221
vt 0.028122 0.028122
vt 0.759938 0.959212
vt 0.952869 0.187502
vt 0.952869 0.959216
vt 0.250000 0.750000
vt 0.017352 0.038585
vt 0.596576 0.038588
vt 0.275713 0.145542
vt 0.061805 0.038587
vt 0.168759 0.189995
vt 0.382668 0.038585
vt 0.767352 0.038584
vt 0.596576 0.038586
vt 0.983079 0.299902
vt 0.700098 0.983079
vt 0.016921 0.700098
vt 0.016921 0.299902
vt 0.299902 0.016921
vt 0.404985 0.041156
vt 0.404985 0.041156
vt 0.404986 0.148110
vt 0.725849 0.255065
vt 0.084124 0.255065
vt 1.325008 0.158270
vt 1.325009 0.841729
vt 0.841730 1.325009
vt -0.325009 0.841730
vt 0.158271 -0.325009
vt 0.511940 0.041156
vt 0.618894 0.299518
vt 0.298751 0.014142
vt 0.701249 0.014142
vt 0.985858 0.298751
vt 0.701249 0.985858
vt 0.014142 0.701249
vt 0.109391 0.047345
vt 0.751116 0.154301
vt 0.216346 0.475162
vt 0.751049 0.377212
vt 0.216278 0.270257
vt 0.109325 0.056348
vt 1.160004 0.226618
vt 1.160000 0.773380
vt 0.773382 1.160004
vt -0.160000 0.773382
vt 0.226618 -0.160004
vt 0.483071 0.190392
vt 0.537207 0.368209
vt 1.160004 0.226618
vt 1.160000 0.773380
vt 0.773382 1.160004
vt -0.160000 0.773380
vt 0.226618 -0.160004
vt 0.759938 0.040787
vt 0.421029 0.040780
vt 0.715483 0.040780
vt 0.180714 0.040778
vt 0.972580 0.113759
vt 0.113759 0.553789
vt 0.553788 0.886241
vt 0.113759 0.972580
vt 0.884295 0.115706
vt 0.715483 0.187502
vt 0.421029 0.187500
vt 0.180714 0.187500
vt 0.759938 0.187500
s 0
usemtl ionic_base
f 2/1/1 3/2/1 1/3/1
f 4/4/2 5/5/2 3/6/2
f 6/7/3 7/8/3 5/9/3
f 8/10/4 9/11/4 7/12/4
f 10/13/5 11/14/5 9/15/5
f 12/16/6 13/17/6 11/18/6
f 4/19/7 60/20/7 6/21/7
f 14/22/8 15/23/8 13/24/8
f 16/25/9 1/26/9 15/27/9
f 15/28/10 3/29/10 7/30/10
f 18/31/1 19/32/1 17/33/1
f 20/34/2 21/35/2 19/36/2
f 22/37/3 23/38/3 21/39/3
f 24/40/4 25/41/4 23/42/4
f 26/43/5 27/44/5 25/45/5
f 28/37/6 29/38/6 27/39/6
f 30/46/7 26/47/7 22/48/7
f 30/49/8 31/50/8 29/51/8
f 32/52/9 17/53/9 31/54/9
f 23/55/10 27/56/10 31/57/10
f 34/58/1 35/59/1 33/60/1
f 36/61/2 37/62/2 35/63/2
f 38/64/3 39/65/3 37/66/3
f 40/67/4 41/68/4 39/69/4
f 42/70/5 43/71/5 41/72/5
f 44/73/6 45/74/6 43/75/6
f 46/76/7 42/77/7 38/78/7
f 46/79/8 47/80/8 45/81/8
f 48/82/9 33/83/9 47/84/9
f 39/85/10 43/86/10 47/87/10
f 63/88/7 66/89/7 70/90/7
f 66/91/5 56/92/5 67/93/5
f 63/94/8 54/95/8 61/96/8
f 64/97/10 67/98/10 69/99/10
f 62/100/3 52/101/3 64/102/3
f 68/103/1 50/104/1 65/105/1
f 6/106/7 57/107/7 8/108/7
f 8/109/7 57/110/7 10/111/7
f 57/112/7 12/113/7 10/114/7
f 12/115/7 59/116/7 14/117/7
f 59/118/7 16/119/7 14/120/7
f 16/121/7 58/122/7 2/123/7
f 58/124/7 4/125/7 2/126/7
f 59/127/7 60/128/7 58/129/7
f 49/130/3 64/131/3 50/132/3
f 50/133/10 69/134/10 65/135/10
f 55/136/8 61/137/8 56/138/8
f 53/139/7 70/99/7 68/97/7
f 68/140/7 62/135/7 49/133/7
f 65/141/10 61/142/10 54/143/10
f 53/144/1 65/145/1 54/146/1
f 69/90/10 56/147/10 61/89/10
f 51/148/5 67/149/5 52/150/5
f 70/151/7 51/143/7 62/141/7
f 2/1/1 4/152/1 3/2/1
f 4/4/2 6/153/2 5/5/2
f 6/7/3 8/154/3 7/8/3
f 8/10/4 10/155/4 9/11/4
f 10/13/5 12/156/5 11/14/5
f 12/16/6 14/157/6 13/17/6
f 14/22/8 16/158/8 15/23/8
f 16/25/9 2/159/9 1/26/9
f 15/28/10 1/160/10 3/29/10
f 3/29/10 5/161/10 7/30/10
f 7/30/10 9/162/10 15/28/10
f 9/162/10 11/163/10 15/28/10
f 11/163/10 13/164/10 15/28/10
f 18/31/1 20/165/1 19/32/1
f 20/34/2 22/166/2 21/35/2
f 22/37/3 24/167/3 23/38/3
f 24/40/4 26/168/4 25/41/4
f 26/43/5 28/169/5 27/44/5
f 28/37/6 30/167/6 29/38/6
f 22/48/7 20/170/7 18/171/7
f 18/171/7 32/172/7 30/46/7
f 30/46/7 28/173/7 26/47/7
f 26/47/7 24/174/7 22/48/7
f 22/48/7 18/171/7 30/46/7
f 30/49/8 32/175/8 31/50/8
f 32/52/9 18/176/9 17/53/9
f 31/57/10 17/177/10 19/178/10
f 19/178/10 21/179/10 23/55/10
f 23/55/10 25/180/10 27/56/10
f 27/56/10 29/181/10 31/57/10
f 31/57/10 19/178/10 23/55/10
f 34/58/1 36/182/1 35/59/1
f 36/61/2 38/183/2 37/62/2
f 38/64/3 40/184/3 39/65/3
f 40/67/4 42/185/4 41/68/4
f 42/70/5 44/186/5 43/71/5
f 44/73/6 46/187/6 45/74/6
f 38/78/7 36/188/7 34/189/7
f 34/189/7 48/190/7 46/76/7
f 46/76/7 44/191/7 42/77/7
f 42/77/7 40/192/7 38/78/7
f 38/78/7 34/189/7 46/76/7
f 46/79/8 48/193/8 47/80/8
f 48/82/9 34/194/9 33/83/9
f 47/87/10 33/195/10 35/196/10
f 35/196/10 37/197/10 39/85/10
f 39/85/10 41/198/10 43/86/10
f 43/86/10 45/199/10 47/87/10
f 47/87/10 35/196/10 39/85/10
f 63/88/7 55/147/7 66/89/7
f 66/91/5 55/200/5 56/92/5
f 63/94/8 53/201/8 54/95/8
f 64/97/10 52/139/10 67/98/10
f 62/100/3 51/202/3 52/101/3
f 68/103/1 49/203/1 50/104/1
f 6/106/7 60/204/7 57/107/7
f 57/112/7 59/205/7 12/113/7
f 59/118/7 58/206/7 16/119/7
f 58/124/7 60/207/7 4/125/7
f 59/127/7 57/208/7 60/128/7
f 49/130/3 62/209/3 64/131/3
f 50/133/10 64/140/10 69/134/10
f 55/136/8 63/210/8 61/137/8
f 53/139/7 63/98/7 70/99/7
f 68/140/7 70/134/7 62/135/7
f 65/141/10 69/151/10 61/142/10
f 53/144/1 68/211/1 65/145/1
f 69/90/10 67/88/10 56/147/10
f 51/148/5 66/212/5 67/149/5
f 70/151/7 66/142/7 51/143/7
