# Blender 5.1.2
# www.blender.org
mtllib large_doric_capital.mtl
o Cube.287
v 1.531255 1.000000 -0.531250
v 1.531255 0.550000 -0.531250
v 1.531255 1.000000 1.531250
v 1.531255 0.550000 1.531250
v -0.531245 1.000000 -0.531250
v -0.531245 0.550000 -0.531250
v -0.531245 1.000000 1.531250
v -0.531245 0.550000 1.531250
v 0.072847 0.433680 -0.531249
v 0.927162 0.433680 -0.531249
v 1.531254 0.433680 0.072843
v 1.531254 0.433680 0.927158
v 0.927162 0.433680 1.531250
v 0.072847 0.433680 1.531250
v -0.531245 0.433680 0.927158
v -0.531245 0.433680 0.072843
v 0.188536 0.072094 -0.251953
v 0.811474 0.072094 -0.251953
v 1.251957 0.072094 0.188531
v 1.251957 0.072094 0.811469
v 0.811474 0.072094 1.251953
v 0.188536 0.072094 1.251953
v -0.251948 0.072094 0.811469
v -0.251948 0.072094 0.188531
v 0.927162 0.554363 1.531250
v 1.531254 0.554363 0.927158
v 1.531254 0.554363 0.072843
v 0.072847 0.554363 1.531250
v 0.072847 0.554363 -0.531249
v 0.927162 0.554363 -0.531249
v -0.531245 0.554363 0.072843
v -0.531245 0.554363 0.927158
v 0.500005 0.550000 -0.531250
v 0.500005 1.000000 1.531250
v 0.500005 0.550000 1.531250
v 0.500005 1.000000 -0.531250
v -0.531245 0.550000 0.500000
v 1.531255 1.000000 0.500000
v -0.531245 1.000000 0.500000
v 1.531255 0.550000 0.500000
v 0.500005 1.000000 0.500000
v 0.811474 0.072094 0.811469
v 0.188536 0.072094 0.188531
v 0.188536 0.072094 0.811469
v 0.811474 0.072094 0.188531
vn -0.0000 1.0000 -0.0000
vn -0.0000 -0.0000 1.0000
vn -1.0000 -0.0000 -0.0000
vn -0.0072 -0.9999 0.0072
vn 1.0000 -0.0000 -0.0000
vn -0.0000 -0.0000 -1.0000
vn 0.7071 -0.0000 -0.7071
vn 0.7071 -0.0000 0.7071
vn -0.7071 -0.0000 0.7071
vn -0.7071 -0.0000 -0.7071
vn 0.5596 -0.6113 0.5596
vn -0.7914 -0.6113 -0.0000
vn 0.5596 -0.6113 -0.5596
vn -0.0000 -0.6113 0.7914
vn -0.5596 -0.6113 -0.5596
vn -0.0000 -0.6113 -0.7914
vn 0.7914 -0.6113 -0.0000
vn -0.5596 -0.6113 0.5596
vn 0.0072 -0.9999 -0.0072
vn -0.0000 -1.0000 -0.0000
vn -1.0000 -0.0001 -0.0000
vn 0.0072 -0.9999 0.0072
vn -0.0000 -0.0002 1.0000
vn -0.0000 -0.0001 1.0000
vn 1.0000 -0.0001 -0.0000
vn -0.0072 -0.9999 -0.0072
vn -0.0000 -0.0001 -1.0000
vt -0.000000 1.000000
vt 1.000000 -0.000000
vt 1.000000 1.000000
vt 1.000000 0.875000
vt 0.000000 0.437500
vt 1.000000 0.437500
vt 1.000000 0.687500
vt 0.000000 0.250000
vt 1.000000 0.250000
vt 0.687500 1.000000
vt 1.000000 0.812500
vt 0.000000 0.375000
vt 1.000000 0.375000
vt -0.000000 0.562500
vt 1.000000 0.562500
vt 0.937500 0.625000
vt 0.000000 0.500000
vt 0.937500 0.500000
vt 1.000000 0.937500
vt 0.062500 0.812500
vt 0.062500 0.437500
vt 0.937500 0.750000
vt 0.000000 0.625000
vt 1.000000 0.125000
vt 0.062500 0.000000
vt 0.937500 0.375000
vt 0.937500 0.250000
vt 0.937500 1.000000
vt 0.000000 0.875000
vt 0.937500 0.875000
vt 0.937500 0.937500
vt 0.500000 0.187500
vt 0.937500 0.062500
vt 0.750000 0.937500
vt 0.312500 0.187500
vt 0.750000 0.062500
vt 0.437500 0.062500
vt 0.000000 0.812500
vt 0.000000 0.187500
vt 0.562500 0.062500
vt 0.125000 0.812500
vt 0.125000 0.187500
vt 0.562500 0.187500
vt 1.000000 0.062500
vt 0.500000 0.937500
vt 0.062500 0.187500
vt 0.500000 0.062500
vt 0.687500 0.062500
vt 0.250000 0.812500
vt 0.250000 0.187500
vt 0.500000 0.812500
vt 0.312500 0.000000
vt 0.000000 0.312500
vt 0.000000 0.000000
vt 0.562500 0.437500
vt 0.562500 0.000000
vt 1.000000 0.500000
vt 0.000000 0.062500
vt 0.000000 0.125000
vt 0.812500 0.437500
vt 0.187500 0.000000
vt 0.812500 0.000000
vt 0.437500 -0.000000
vt 0.437500 0.437500
vt 0.437500 0.187500
vt 0.437500 0.562500
vt 0.437500 1.000000
vt 0.187500 0.562500
vt 0.812500 1.000000
vt 0.187500 1.000000
vt 0.562500 1.000000
vt 0.562500 0.562500
vt 0.562500 0.812500
vt 1.000000 0.187500
vt 0.187500 0.812500
vt 0.812500 0.187500
vt 0.812500 0.812500
vt 0.000000 0.687500
vt 0.500000 1.000000
vt 0.312500 1.000000
vt 1.000000 0.312500
vt 0.687500 0.000000
vt 0.062500 0.937500
vt 0.062500 0.562500
vt 0.000000 0.750000
vt 0.062500 0.125000
vt 0.312500 0.812500
vt 0.437500 0.937500
vt 0.562500 0.937500
vt 0.687500 0.937500
vt 0.500000 0.000000
vt 0.187500 0.437500
vt 0.437500 0.812500
vt 0.812500 0.562500
vt 0.187500 0.187500
s 0
usemtl doric_small
f 39/1/1 34/2/1 41/3/1
f 34/4/2 8/5/2 35/6/2
f 39/7/3 6/8/3 37/9/3
f 2/3/4 27/10/4 30/7/4
f 38/11/5 4/12/5 40/13/5
f 36/3/6 2/14/6 33/15/6
f 29/16/6 10/17/6 9/18/6
f 30/19/7 11/20/7 10/11/7
f 27/15/5 12/21/5 11/6/5
f 26/22/8 13/23/8 12/16/8
f 25/24/2 14/25/2 13/2/2
f 28/26/9 15/8/9 14/27/9
f 32/28/3 16/29/3 15/30/3
f 31/26/10 9/8/10 16/27/10
f 13/31/11 20/32/11 12/33/11
f 16/34/12 23/35/12 15/36/12
f 10/37/13 19/38/13 18/39/13
f 13/40/14 22/41/14 21/42/14
f 9/19/15 24/43/15 16/44/15
f 10/45/16 17/46/16 9/47/16
f 11/48/17 20/49/17 19/50/17
f 14/33/18 23/51/18 22/32/18
f 32/52/19 28/53/19 8/54/19
f 17/6/20 43/55/20 24/56/20
f 5/6/6 33/54/6 6/2/6
f 3/57/2 35/58/2 4/44/2
f 41/1/1 3/2/1 38/3/1
f 36/1/1 38/2/1 1/3/1
f 1/57/5 40/58/5 2/44/5
f 7/15/3 37/59/3 8/24/3
f 5/1/1 41/2/1 36/3/1
f 43/60/20 23/61/20 24/62/20
f 23/63/20 44/64/20 22/5/20
f 44/65/20 21/38/20 22/39/20
f 21/14/20 42/66/20 20/67/20
f 42/68/20 19/69/20 20/70/20
f 19/71/20 45/72/20 18/15/20
f 45/73/20 17/74/20 18/11/20
f 42/75/20 43/76/20 45/77/20
f 39/1/1 7/54/1 34/2/1
f 34/4/2 7/29/2 8/5/2
f 39/7/3 5/78/3 6/8/3
f 40/79/21 4/1/21 26/80/21
f 40/79/21 26/80/21 27/10/21
f 29/81/22 31/82/22 6/2/22
f 30/7/23 29/81/23 33/57/23
f 29/81/23 6/2/23 33/57/23
f 2/3/21 40/79/21 27/10/21
f 30/7/24 33/57/24 2/3/24
f 38/11/5 3/38/5 4/12/5
f 36/3/6 1/1/6 2/14/6
f 29/16/6 30/23/6 10/17/6
f 30/19/7 27/83/7 11/20/7
f 27/15/5 26/84/5 12/21/5
f 26/22/8 25/85/8 13/23/8
f 25/24/2 28/86/2 14/25/2
f 28/26/9 32/12/9 15/8/9
f 32/28/3 31/1/3 16/29/3
f 31/26/10 29/12/10 9/8/10
f 13/31/11 21/51/11 20/32/11
f 16/34/12 24/87/12 23/35/12
f 10/37/13 11/88/13 19/38/13
f 13/40/14 14/89/14 22/41/14
f 9/19/15 17/73/15 24/43/15
f 10/45/16 18/20/16 17/46/16
f 11/48/17 12/90/17 20/49/17
f 14/33/18 15/31/18 23/51/18
f 6/2/25 31/82/25 37/91/25
f 31/82/25 32/52/25 37/91/25
f 25/78/26 26/80/26 4/1/26
f 28/53/27 25/78/27 35/17/27
f 25/78/27 4/1/27 35/17/27
f 8/54/25 37/91/25 32/52/25
f 28/53/27 35/17/27 8/54/27
f 5/6/6 36/5/6 33/54/6
f 3/57/2 34/17/2 35/58/2
f 41/1/1 34/54/1 3/2/1
f 36/1/1 41/54/1 38/2/1
f 1/57/5 38/17/5 40/58/5
f 7/15/3 39/14/3 37/59/3
f 5/1/1 39/54/1 41/2/1
f 43/60/20 44/92/20 23/61/20
f 44/65/20 42/93/20 21/38/20
f 42/68/20 45/94/20 19/69/20
f 45/73/20 43/43/20 17/74/20
f 42/75/20 44/95/20 43/76/20
