# Blender 5.1.1
# www.blender.org
mtllib large_greek_corinthian_base.mtl
o Cube.286
v 0.115558 0.412500 -0.428130
v 0.115558 0.618750 -0.428130
v 0.884442 0.412500 -0.428130
v 0.884442 0.618750 -0.428130
v 1.428125 0.412500 0.115553
v 1.428125 0.618750 0.115553
v 1.428125 0.412500 0.884437
v 1.428125 0.618750 0.884437
v 0.884442 0.412500 1.428120
v 0.884442 0.618750 1.428120
v 0.115558 0.412500 1.428120
v 0.115558 0.618750 1.428120
v -0.428125 0.412500 0.884437
v -0.428125 0.618750 0.884437
v -0.428125 0.412500 0.115553
v -0.428125 0.618750 0.115553
v 0.072839 0.000000 -0.531261
v 0.072839 0.206250 -0.531261
v 0.927161 0.000000 -0.531261
v 0.927161 0.206250 -0.531261
v 1.531258 0.000000 0.072836
v 1.531258 0.206250 0.072836
v 1.531258 0.000000 0.927157
v 1.531258 0.206250 0.927157
v 0.927161 0.000000 1.531254
v 0.927161 0.206250 1.531254
v 0.072839 0.000000 1.531254
v 0.072839 0.206250 1.531254
v -0.531257 0.000000 0.927157
v -0.531257 0.206250 0.927157
v -0.531257 0.000000 0.072836
v -0.531257 0.206250 0.072836
v 0.158274 0.206250 -0.325004
v 0.158274 0.412500 -0.325004
v 0.841726 0.206250 -0.325004
v 0.841726 0.412500 -0.325004
v 1.325000 0.206250 0.158270
v 1.325000 0.412500 0.158270
v 1.325000 0.206250 0.841723
v 1.325000 0.412500 0.841723
v 0.841726 0.206250 1.324997
v 0.841726 0.412500 1.324997
v 0.158274 0.206250 1.324997
v 0.158274 0.412500 1.324997
v -0.325000 0.206250 0.841723
v -0.325000 0.412500 0.841723
v -0.325000 0.206250 0.158270
v -0.325000 0.412500 0.158270
v 0.884442 0.618750 0.884437
v 0.115558 0.618750 0.115553
v 0.115558 0.618750 0.884437
v 0.884442 0.618750 0.115553
vn -0.0000 -0.0000 -1.0000
vn 0.7071 -0.0000 -0.7071
vn 1.0000 -0.0000 -0.0000
vn 0.7071 -0.0000 0.7071
vn -0.0000 -0.0000 1.0000
vn -0.7071 -0.0000 0.7071
vn -0.0000 1.0000 -0.0000
vn -1.0000 -0.0000 -0.0000
vn -0.7071 -0.0000 -0.7071
vn -0.0000 -1.0000 -0.0000
vt 1.000000 0.750000
vt 1.000000 0.937500
vt 0.187500 0.937500
vt 0.187500 0.750000
vt 1.000000 -0.000000
vt 1.000000 0.187500
vt 0.187500 0.187500
vt 0.187500 0.000000
vt 1.000000 0.812500
vt 1.000000 1.000000
vt 0.187500 1.000000
vt 0.187500 0.812500
vt 0.937500 0.750000
vt 0.937500 0.937500
vt 0.125000 0.937500
vt 0.125000 0.750000
vt 0.875000 0.375000
vt 0.875000 0.562500
vt 0.062500 0.562500
vt 0.062500 0.375000
vt 0.875000 0.062500
vt 0.875000 0.250000
vt 0.062500 0.250000
vt 0.062500 0.062500
vt 1.000000 0.562500
vt 0.437500 0.562500
vt 0.437500 0.000000
vt 0.875000 0.437500
vt 0.062500 0.437500
vt 0.812500 0.812500
vt 0.812500 1.000000
vt 0.000000 1.000000
vt 0.000000 0.812500
vt 0.999900 0.292935
vt 0.999900 0.707065
vt 0.707065 0.999900
vt 0.292935 0.999900
vt 0.000100 0.707065
vt 0.000100 0.292935
vt 0.292935 0.000100
vt 0.707065 0.000100
vt 0.937500 0.562500
vt 0.062500 0.750000
vt 0.937500 -0.000000
vt 0.937500 0.187500
vt 0.062500 0.187500
vt 0.062500 0.000000
vt 0.000000 0.562500
vt 0.000000 0.375000
vt 1.000000 0.250000
vt 1.000000 0.437500
vt 0.125000 0.437500
vt 0.125000 0.250000
vt 0.937500 0.687500
vt 0.937500 0.875000
vt 0.062500 0.875000
vt 0.062500 0.687500
vt 0.937500 0.062500
vt 0.937500 0.250000
vt 0.999994 0.707104
vt 0.292896 0.999994
vt 0.000006 0.292896
vt 1.000000 0.125000
vt 1.000000 0.312500
vt 0.125000 0.312500
vt 0.125000 0.125000
vt 0.937500 0.812500
vt 0.937500 1.000000
vt 0.062500 1.000000
vt 0.062500 0.812500
vt 0.999994 0.707104
vt 0.292896 0.999994
vt 0.000006 0.292896
vt 0.875000 0.812500
vt 0.875000 1.000000
vt 0.312500 0.187500
vt 0.312500 0.000000
vt 0.687500 0.812500
vt 0.687500 1.000000
vt 0.687500 0.375000
vt 0.687500 0.562500
vt 0.937500 0.625000
vt 0.250000 0.812500
vt 0.250000 0.625000
vt 0.937500 0.125000
vt 0.937500 0.312500
vt 0.250000 0.312500
vt 0.250000 0.125000
vt 0.999900 0.292934
vt 0.999900 0.707065
vt 0.707065 0.999900
vt 0.292935 0.999900
vt 0.000100 0.707065
vt 0.000100 0.292935
vt 0.292935 0.000100
vt 0.707065 0.000100
vt 0.125000 1.000000
vt 0.125000 0.812500
vt 0.687500 0.062500
vt 0.687500 0.250000
vt 0.000000 0.250000
vt 0.000000 0.062500
vt 0.875000 0.000000
vt 0.875000 0.562500
vt 0.125000 0.562500
vt 0.125000 0.000000
vt 0.562500 0.000000
vt 0.562500 0.562500
vt 0.000000 0.562500
vt 0.000000 0.125000
vt 0.562500 0.125000
vt 0.562500 0.875000
vt 0.000000 0.875000
vt 0.000000 0.437500
vt 0.562500 0.437500
vt 0.562500 1.000000
vt 0.125000 0.437500
vt 0.875000 0.437500
vt 0.875000 1.000000
vt 0.437500 1.000000
vt 0.437500 0.437500
vt 1.000000 0.437500
vt 1.000000 0.875000
vt 0.437500 0.875000
vt 0.437500 0.125000
vt 1.000000 0.125000
vt 0.125000 0.125000
vt 0.875000 0.125000
vt 0.875000 0.875000
vt 0.125000 0.875000
vt 0.707104 0.000006
vt 0.999994 0.292896
vt 0.707104 0.999994
vt 0.000006 0.707104
vt 0.292896 0.000006
vt 0.707104 0.000006
vt 0.999994 0.292896
vt 0.707104 0.999994
vt 0.000006 0.707104
vt 0.292896 0.000006
s 0
usemtl ionic_base
f 1/1/1 2/2/1 4/3/1 3/4/1
f 3/5/2 4/6/2 6/7/2 5/8/2
f 5/9/3 6/10/3 8/11/3 7/12/3
f 7/13/4 8/14/4 10/15/4 9/16/4
f 9/17/5 10/18/5 12/19/5 11/20/5
f 11/21/6 12/22/6 14/23/6 13/24/6
f 4/25/7 52/26/7 6/27/7
f 13/22/8 14/28/8 16/29/8 15/23/8
f 15/30/9 16/31/9 2/32/9 1/33/9
f 1/34/10 3/35/10 5/36/10 7/37/10 9/38/10 11/39/10 13/40/10 15/41/10
f 17/42/1 18/13/1 20/43/1 19/19/1
f 19/44/2 20/45/2 22/46/2 21/47/2
f 21/17/3 22/18/3 24/48/3 23/49/3
f 23/50/4 24/51/4 26/52/4 25/53/4
f 25/54/5 26/55/5 28/56/5 27/57/5
f 27/58/6 28/59/6 30/23/6 29/24/6
f 18/60/7 30/61/7 26/62/7
f 29/63/8 30/64/8 32/65/8 31/66/8
f 31/67/9 32/68/9 18/69/9 17/70/9
f 19/71/10 23/72/10 27/73/10
f 33/74/1 34/75/1 36/11/1 35/12/1
f 35/5/2 36/6/2 38/76/2 37/77/2
f 37/78/3 38/79/3 40/32/3 39/33/3
f 39/80/4 40/81/4 42/48/4 41/49/4
f 41/82/5 42/67/5 44/83/5 43/84/5
f 43/85/6 44/86/6 46/87/6 45/88/6
f 36/89/7 34/90/7 48/91/7 46/92/7 44/93/7 42/94/7 40/95/7 38/96/7
f 45/30/8 46/31/8 48/97/8 47/98/8
f 47/99/9 48/100/9 34/101/9 33/102/9
f 33/34/10 35/35/10 37/36/10 39/37/10 41/38/10 43/39/10 45/40/10 47/41/10
f 6/103/7 52/104/7 49/105/7 8/106/7
f 8/107/7 49/108/7 10/109/7
f 10/110/7 49/111/7 51/112/7 12/113/7
f 12/114/7 51/115/7 14/116/7
f 14/97/7 51/117/7 50/118/7 16/119/7
f 16/120/7 50/121/7 2/122/7
f 2/123/7 50/124/7 52/125/7 4/126/7
f 50/127/7 51/128/7 49/129/7 52/130/7
f 22/131/7 20/132/7 18/60/7
f 18/60/7 32/133/7 30/61/7
f 30/61/7 28/134/7 26/62/7
f 26/62/7 24/135/7 22/131/7
f 22/131/7 18/60/7 26/62/7
f 31/136/10 17/137/10 19/71/10
f 19/71/10 21/138/10 23/72/10
f 23/72/10 25/139/10 27/73/10
f 27/73/10 29/140/10 31/136/10
f 31/136/10 19/71/10 27/73/10
