# Blender 5.1.2
# www.blender.org
mtllib medium_composite_half_capital.mtl
o composite
v 0.249044 0.627310 0.394132
v 0.249044 0.763784 0.394132
v 0.750958 0.627310 0.394132
v 0.750958 0.763784 0.394132
v 1.105865 0.627310 0.749039
v 1.105865 0.763784 0.749039
v -0.105863 0.627310 0.749039
v -0.105863 0.763784 0.749039
v -0.078442 0.754658 1.000003
v -0.148820 0.731184 1.000007
v -0.090128 0.789676 0.907850
v -0.160506 0.766201 0.907854
v -0.118809 0.875656 0.870307
v -0.189187 0.852181 0.870311
v -0.147685 0.962233 0.909366
v -0.218063 0.938758 0.909371
v -0.159840 0.998691 1.002147
v -0.230218 0.975216 1.002152
v 0.407849 0.963673 0.351848
v 0.407845 0.940198 0.281470
v 0.370306 0.877693 0.380529
v 0.370301 0.854218 0.310151
v 0.409365 0.791116 0.409405
v 0.409361 0.767641 0.339027
v 0.502146 0.754658 0.421560
v 0.502142 0.731183 0.351183
v 0.594299 0.789676 0.409875
v 0.594295 0.766201 0.339497
v 0.631842 0.875656 0.381194
v 0.631838 0.852181 0.310816
v 0.592783 0.962233 0.352318
v 0.592779 0.938758 0.281940
v 0.500002 0.998691 0.340163
v 0.499998 0.975216 0.269785
v -0.248290 0.714325 0.393441
v -0.096016 0.714325 0.322431
v -0.279761 0.534555 0.325955
v -0.127486 0.534555 0.254945
v -0.248290 0.354786 0.393441
v -0.096015 0.354786 0.322431
v -0.172313 0.280324 0.556365
v -0.020039 0.280324 0.485355
v -0.096337 0.354786 0.719290
v 0.055938 0.354786 0.648280
v -0.064866 0.534555 0.786776
v 0.087408 0.534556 0.715766
v -0.096337 0.714325 0.719290
v 0.055938 0.714325 0.648280
v -0.172313 0.788787 0.556365
v -0.020039 0.788787 0.485355
v 0.099748 0.311849 0.742227
v -0.052527 0.311849 0.813237
v -0.021056 0.491618 0.880722
v 0.131218 0.491618 0.809712
v 1.093028 0.714323 0.319455
v 1.245305 0.714323 0.390460
v 1.124496 0.534554 0.251968
v 1.276773 0.534554 0.322973
v 1.093028 0.354785 0.319455
v 1.245305 0.354785 0.390460
v 1.017057 0.280322 0.482382
v 1.169334 0.280322 0.553387
v 0.941086 0.354785 0.645310
v 1.093363 0.354785 0.716315
v 0.909618 0.534554 0.712797
v 1.061895 0.534554 0.783801
v 0.941086 0.714323 0.645310
v 1.093363 0.714323 0.716315
v 1.017057 0.788786 0.482382
v 1.169334 0.788786 0.553387
v 1.049556 0.311848 0.810263
v 0.897279 0.311848 0.739258
v 0.865811 0.491617 0.806745
v 1.018088 0.491617 0.877749
v -0.180549 0.714325 0.406974
v -0.109545 0.714325 0.254697
v -0.248036 0.534556 0.375506
v -0.177032 0.534556 0.223229
v -0.180549 0.354787 0.406974
v -0.109545 0.354787 0.254697
v -0.017621 0.280324 0.482944
v 0.053383 0.280324 0.330667
v 0.145307 0.354787 0.558914
v 0.216311 0.354787 0.406637
v 0.212794 0.534556 0.590382
v 0.283798 0.534556 0.438105
v 0.145307 0.714325 0.558914
v 0.216311 0.714325 0.406637
v -0.017621 0.788788 0.482944
v 0.053383 0.788788 0.330667
v 0.310259 0.311850 0.450443
v 0.239255 0.311849 0.602720
v 0.306742 0.491619 0.634188
v 0.377746 0.491619 0.481911
v 1.106564 0.714324 0.251715
v 1.177573 0.714324 0.403990
v 1.174049 0.534555 0.220245
v 1.245059 0.534555 0.372520
v 1.106564 0.354786 0.251715
v 1.177573 0.354786 0.403990
v 0.943639 0.280323 0.327691
v 1.014648 0.280323 0.479966
v 0.780714 0.354786 0.403667
v 0.851723 0.354786 0.555942
v 0.713228 0.534555 0.435137
v 0.784237 0.534555 0.587412
v 0.780714 0.714324 0.403667
v 0.851723 0.714324 0.555942
v 0.943639 0.788787 0.327691
v 1.014648 0.788787 0.479966
v 0.757776 0.311849 0.599751
v 0.686767 0.311849 0.447477
v 0.619281 0.491618 0.478947
v 0.690291 0.491618 0.631222
v 1.148149 0.963673 0.907847
v 1.218527 0.940198 0.907844
v 1.119468 0.877693 0.870304
v 1.189846 0.854218 0.870300
v 1.090592 0.791116 0.909363
v 1.160970 0.767641 0.909359
v 1.159835 0.998691 1.000000
v 1.230213 0.975216 0.999997
v -0.173732 0.897001 1.000000
v 1.173732 1.000126 1.000000
v -0.173732 1.000126 1.000000
v 1.173732 0.897001 1.000000
v 0.500000 0.897001 0.326268
v 0.500000 1.000126 0.326268
v 0.500000 0.749902 1.000000
v 0.500000 1.000126 1.000000
v 1.372683 1.000126 0.197653
v 1.302347 1.000126 0.127318
v 1.302347 0.897001 0.127318
v 1.372683 0.897001 0.197653
v -0.302347 1.000126 0.127318
v -0.372682 1.000126 0.197653
v -0.372682 0.897001 0.197653
v -0.302347 0.897001 0.127318
v -0.044720 0.897001 1.000000
v 1.044720 0.897001 1.000000
v 0.500000 0.897001 0.455280
v 1.205574 0.897001 0.351294
v 1.148707 0.897001 0.294426
v -0.148707 0.897001 0.294426
v -0.205574 0.897001 0.351294
v -0.044720 0.749902 1.000000
v 1.044720 0.749902 1.000000
v 0.500000 0.749902 0.455280
v 1.205574 0.749902 0.351294
v 1.148707 0.749902 0.294426
v -0.148707 0.749902 0.294426
v -0.205574 0.749902 0.351294
v 0.245922 -0.536437 0.386599
v 0.245922 -0.409497 0.386599
v 0.754078 -0.536437 0.386599
v 0.754078 -0.409497 0.386599
v 1.113399 -0.536437 0.745920
v 1.113399 -0.409497 0.745920
v -0.113399 -0.536437 0.745920
v -0.113400 -0.409497 0.745920
v 0.754078 -0.409497 0.386599
v 0.245922 -0.409497 0.386599
v 1.113399 -0.409497 0.745920
v -0.113400 -0.409497 0.745920
v 0.718473 -0.409497 0.472557
v 0.281527 -0.409497 0.472557
v 1.027441 -0.409497 0.781525
v -0.027441 -0.409497 0.781525
v 0.774017 0.003003 0.338463
v 0.225983 0.003003 0.338463
v 1.161535 0.003003 0.725981
v -0.161535 0.003003 0.725981
v 0.711554 0.003003 0.489261
v 0.288446 0.003003 0.489261
v 1.010737 0.003003 0.788444
v -0.010737 0.003003 0.788444
v 0.774621 0.382503 0.337003
v 0.225379 0.382503 0.337003
v 1.162995 0.382503 0.725377
v -0.162995 0.382503 0.725377
v 0.724238 0.382503 0.458640
v 0.275762 0.382503 0.458640
v 1.041357 0.382503 0.775760
v -0.041358 0.382503 0.775760
v 0.748826 0.762003 0.399278
v 0.251174 0.762003 0.399278
v 1.100720 0.762003 0.751172
v -0.100720 0.762003 0.751172
v 1.105865 0.627310 1.001068
v 1.105865 0.763784 1.001068
v -0.105863 0.627310 1.002985
v -0.105863 0.763784 1.002985
v -0.078827 0.755813 1.002942
v -0.149219 0.732381 1.003054
v -0.159723 0.998340 1.003070
v -0.230087 0.974825 1.003182
v 1.078572 0.755064 1.001111
v 1.148964 0.731632 1.001000
v 1.159706 0.998305 1.000983
v 1.230098 0.974872 1.000871
v 0.500000 1.000126 1.002026
v 1.173970 0.897001 1.000960
v 1.173970 1.000126 1.000960
v -0.174499 0.897001 1.003094
v -0.174499 1.000126 1.003094
v 1.045009 0.897001 1.001164
v -0.045436 0.897001 1.002889
v 0.500000 0.749902 1.002026
v 1.045009 0.749902 1.001164
v -0.045436 0.749902 1.002889
v 1.113399 -0.536436 1.001056
v 1.113399 -0.409497 1.001056
v -0.113399 -0.536436 1.002997
v -0.113399 -0.409497 1.002997
v 1.113399 -0.409497 1.001056
v -0.113399 -0.409497 1.002997
v 1.027441 -0.409497 1.001192
v -0.027441 -0.409497 1.002861
v 1.161535 0.003003 1.000980
v -0.161535 0.003003 1.003073
v 1.010737 0.003003 1.001218
v -0.010737 0.003003 1.002835
v 1.162995 0.382503 1.000977
v -0.162995 0.382503 1.003075
v 1.041357 0.382503 1.001170
v -0.041357 0.382503 1.002883
v 1.100720 0.762003 1.001076
v -0.100720 0.762003 1.002977
vn 0.0016 -0.0000 1.0000
vn -0.0000 -0.0000 -1.0000
vn 0.7071 -0.0000 -0.7071
vn -1.0000 -0.0000 -0.0000
vn -0.7071 -0.0000 -0.7071
vn 0.2924 -0.8764 0.3827
vn 0.2937 -0.8806 -0.3719
vn 0.1210 -0.3630 -0.9239
vn -0.1245 0.3732 -0.9193
vn -0.9486 -0.3164 0.0001
vn -0.2924 0.8764 -0.3827
vn 0.9486 0.3164 -0.0001
vn -0.9239 0.3630 -0.1210
vn -0.9193 -0.3732 0.1245
vn -0.3827 -0.8764 0.2924
vn 0.3719 -0.8806 0.2937
vn 0.9239 -0.3630 0.1210
vn 0.9193 0.3732 -0.1245
vn -0.0001 -0.3164 -0.9486
vn 0.3827 0.8764 -0.2924
vn -0.3719 0.8806 -0.2937
vn 0.0001 0.3164 0.9486
vn -0.3905 0.3827 -0.8373
vn -0.3905 -0.3827 -0.8373
vn -0.1617 -0.9239 -0.3468
vn 0.1617 -0.9239 0.3468
vn 0.1617 0.9239 0.3468
vn 0.3905 0.3827 0.8373
vn 0.9063 -0.0000 -0.4226
vn -0.1617 0.9239 -0.3468
vn -0.9063 -0.0000 0.4226
vn 0.3905 -0.3827 0.8373
vn 0.3904 0.3827 -0.8373
vn 0.3904 -0.3827 -0.8373
vn 0.1617 -0.9239 -0.3468
vn -0.1617 -0.9239 0.3468
vn 0.9063 -0.0000 0.4226
vn -0.3904 0.3827 0.8373
vn -0.1617 0.9239 0.3468
vn 0.1617 0.9239 -0.3468
vn -0.9063 -0.0000 -0.4226
vn -0.3904 -0.3827 0.8373
vn -0.8373 0.3827 -0.3904
vn -0.8373 -0.3827 -0.3904
vn -0.3468 -0.9239 -0.1617
vn 0.3468 -0.9239 0.1617
vn 0.8373 0.3827 0.3904
vn 0.4226 -0.0000 -0.9063
vn 0.3468 0.9239 0.1617
vn -0.3468 0.9239 -0.1617
vn -0.4226 -0.0000 0.9063
vn 0.8373 -0.3827 0.3904
vn 0.8373 0.3827 -0.3905
vn 0.8373 -0.3827 -0.3905
vn 0.3468 -0.9239 -0.1617
vn -0.3468 -0.9239 0.1617
vn 0.4226 -0.0000 0.9063
vn -0.8373 0.3827 0.3905
vn -0.3468 0.9239 0.1617
vn 0.3468 0.9239 -0.1617
vn -0.4226 -0.0000 -0.9063
vn -0.8373 -0.3827 0.3905
vn 0.1210 0.3630 -0.9239
vn -0.1245 -0.3732 -0.9193
vn 0.2924 0.8764 0.3827
vn 0.2937 0.8806 -0.3719
vn 0.9706 -0.0000 0.2407
vn -0.2407 -0.0000 -0.9706
vn -0.0000 1.0000 -0.0000
vn -0.0000 -1.0000 -0.0000
vn 0.2407 -0.0000 -0.9706
vn -0.9706 -0.0000 0.2407
vn -0.9706 -0.0000 -0.2407
vn 0.0001 -0.3164 0.9486
vn 0.9510 -0.3092 -0.0000
vn -0.0000 -0.3092 -0.9510
vn -0.6725 -0.3092 -0.6725
vn 0.6725 -0.3092 -0.6725
vn -0.6563 -0.3724 -0.6563
vn 0.6563 -0.3724 -0.6563
vn 0.9281 -0.3724 -0.0000
vn -0.0000 -0.3724 -0.9281
vn 0.9880 -0.1545 -0.0000
vn -0.0000 -0.1545 -0.9880
vn -0.6986 -0.1545 -0.6986
vn 0.6986 -0.1545 -0.6986
vn -0.9880 -0.1545 -0.0000
vn -0.9281 -0.3724 -0.0000
vn -0.9510 -0.3092 -0.0000
vn 1.0000 -0.0000 -0.0000
vn 0.9706 -0.0000 -0.2407
vn 0.9486 -0.3164 -0.0000
vn -0.2923 -0.8764 -0.3827
vn -0.9486 0.3164 -0.0000
vn -0.2937 0.8806 0.3719
vn -0.0016 -0.0000 -1.0000
vn 0.9486 0.3164 -0.0000
vn 0.2924 0.8764 0.3826
vn 0.9706 -0.0000 -0.2406
vn 0.9486 -0.3164 -0.0001
vn -0.2924 -0.8764 -0.3827
vn -0.9486 0.3164 0.0001
vt 0.977739 0.964608
vt 0.886969 0.968097
vt 0.882112 0.901322
vt 0.812534 0.000034
vt 0.925154 0.999966
vt 0.812534 0.999966
vt 0.937500 0.625000
vt 0.500000 0.500000
vt 0.937500 0.500000
vt 0.687500 0.625000
vt 0.250000 0.500000
vt 0.687500 0.500000
vt 0.471355 0.500000
vt 0.250000 0.625000
vt 0.062500 0.431560
vt 0.187500 0.437500
vt 0.062500 0.437500
vt 0.812500 0.500000
vt 0.687500 0.687500
vt 0.687500 0.500000
vt 0.187500 0.125000
vt 0.312500 0.312500
vt 0.187500 0.312500
vt 0.812500 0.687500
vt 0.687500 0.875000
vt 0.653993 0.284813
vt 0.613302 0.188423
vt 0.752259 0.052095
vt 0.687500 0.187500
vt 0.812500 0.375000
vt 0.687500 0.375000
vt 0.624239 0.200060
vt 0.799940 0.375761
vt 0.200060 0.383633
vt 0.062500 0.312500
vt 0.062500 0.125000
vt 0.812500 0.750000
vt 0.687500 0.937500
vt 0.687500 0.750000
vt 0.937500 0.250000
vt 0.812500 0.437500
vt 0.812500 0.250000
vt 0.250000 0.687500
vt 0.125000 0.875000
vt 0.125000 0.687500
vt 0.625000 0.125000
vt 0.750000 0.312500
vt 0.625000 0.312500
vt 0.625000 0.750000
vt 0.750000 0.937500
vt 0.625000 0.937500
vt 0.749076 0.675802
vt 0.846007 0.715187
vt 0.653993 0.909813
vt 0.437500 0.500000
vt 0.312500 0.687500
vt 0.312500 0.500000
vt 0.750000 0.250000
vt 0.625000 0.437500
vt 0.625000 0.250000
vt 0.799940 0.624239
vt 0.200060 0.375761
vt 0.375000 0.437500
vt 0.500000 0.562500
vt 0.375000 0.562500
vt 0.875000 0.625000
vt 0.750000 0.750000
vt 0.750000 0.625000
vt 0.062500 0.250000
vt 0.312500 0.750000
vt 0.187500 0.875000
vt 0.187500 0.750000
vt 0.414228 0.999936
vt 0.414228 0.000064
vt 0.812500 0.625000
vt 0.937500 0.750000
vt 0.292935 0.999900
vt 0.000100 0.292935
vt 0.707065 0.000100
vt 0.312500 0.375000
vt 0.187500 0.500000
vt 0.187500 0.375000
vt 0.062500 0.375000
vt 0.062500 0.500000
vt 0.501099 0.313828
vt 0.686172 0.501098
vt 0.498901 0.686172
vt 0.414228 0.000064
vt 0.000064 0.999936
vt 0.000064 0.000064
vt 0.687500 0.312500
vt 0.000100 0.707065
vt 0.000064 0.999936
vt 0.000064 0.000064
vt 0.500000 0.062500
vt 0.375000 0.187500
vt 0.375000 0.062500
vt 0.500000 0.437500
vt 0.250000 0.312500
vt 0.125000 0.437500
vt 0.125000 0.312500
vt 0.625000 0.687500
vt 0.687500 0.812500
vt 0.625000 0.812500
vt 0.000064 0.000064
vt 0.369133 0.632420
vt 0.501098 0.686172
vt 0.632420 0.630867
vt 0.414228 0.999936
vt 0.000064 0.000064
vt 0.414228 0.000064
vt 0.375000 0.312500
vt 0.250000 0.437500
vt 0.375761 0.200060
vt 0.875000 0.750000
vt 0.750000 0.875000
vt 0.750000 0.125000
vt 0.875000 0.250000
vt 0.437500 0.625000
vt 0.312500 0.625000
vt 0.937500 0.062500
vt 0.812500 0.187500
vt 0.812500 0.062500
vt 0.687500 0.437500
vt 0.812500 0.562500
vt 0.687500 0.562500
vt 0.630867 0.367579
vt 0.367579 0.369133
vt 0.437500 0.750000
vt 0.312500 0.875000
vt 0.812500 0.312500
vt 0.812500 0.875000
vt 0.125000 0.625000
vt 0.250000 0.750000
vt 0.125000 0.750000
vt 0.625000 0.562500
vt 0.750000 0.687500
vt 0.437500 0.375000
vt 0.562500 0.500000
vt 0.437500 0.125000
vt 0.312500 0.250000
vt 0.312500 0.125000
vt 0.999900 0.707065
vt 0.562500 0.562500
vt 0.562500 0.687500
vt 0.313828 0.498901
vt 0.312500 0.562500
vt 0.250000 0.562500
vt 0.500000 0.625000
vt 0.500000 0.812500
vt 0.687500 0.250000
vt 0.562500 0.437500
vt 0.562500 0.250000
vt 0.562500 0.810733
vt 0.437500 0.812500
vt 0.437500 0.810515
vt 0.389026 0.520428
vt 0.677653 0.495747
vt 0.672717 0.520428
vt 0.661480 0.130867
vt 0.400263 0.103597
vt 0.661480 0.103597
vt 0.055537 0.869496
vt 0.743722 0.955519
vt 0.055537 0.955519
vt 0.111795 0.452437
vt 0.799980 0.366414
vt 0.799980 0.452437
vt 0.728597 0.868363
vt 0.167110 0.868385
vt 0.167110 0.307006
vt 0.256337 0.280684
vt 0.787423 0.385038
vt 0.230436 0.385029
vt 0.947413 0.624395
vt 0.970832 0.728740
vt 0.944757 0.624395
vt 0.199263 0.480566
vt 0.887449 0.394543
vt 0.887449 0.480566
vt 0.261763 0.806996
vt 0.949949 0.893019
vt 0.261763 0.893019
vt 0.894283 0.809801
vt 0.835567 0.868385
vt 0.167110 0.702427
vt 0.969182 0.025785
vt 0.971836 0.111808
vt 0.969182 0.111808
vt 0.441860 0.700825
vt 0.516801 0.889834
vt 0.449780 0.889823
vt 0.682802 0.403678
vt 0.750781 0.524529
vt 0.682802 0.524529
vt 0.007095 0.991895
vt 0.529680 0.861249
vt 0.529680 0.991895
vt 0.449766 0.472712
vt 0.374824 0.661720
vt 0.366876 0.472712
vt 0.096966 0.311895
vt 0.628051 0.416249
vt 0.071066 0.416240
vt 0.900557 0.533766
vt 0.369472 0.638119
vt 0.211711 0.533766
vt 0.975542 0.452539
vt 0.444456 0.556893
vt 0.286695 0.452539
vt 0.793890 0.746660
vt 0.746411 0.794026
vt 0.205958 0.659855
vt 0.659888 0.794018
vt 0.205911 0.794037
vt 0.205911 0.340158
vt 0.194595 0.301313
vt 0.196922 0.170667
vt 0.196922 0.301313
vt 0.682802 0.678646
vt 0.750781 0.799497
vt 0.682802 0.799497
vt 0.007095 0.660668
vt 0.529680 0.530022
vt 0.529680 0.660668
vt 0.407063 0.535668
vt 0.929648 0.405022
vt 0.929648 0.535668
vt 0.582777 0.866895
vt 0.060192 0.736249
vt 0.582777 0.736249
vt 0.032576 0.820017
vt 0.455885 0.925844
vt 0.032576 0.925844
vt 0.210423 0.792882
vt 0.633731 0.687055
vt 0.633731 0.792882
vt 0.321848 0.196844
vt 0.536000 0.091017
vt 0.536000 0.196844
vt 0.210422 0.126248
vt 0.633731 0.232075
vt 0.210422 0.232075
vt 0.361352 0.515463
vt 0.892245 0.515463
vt 0.298852 0.577963
vt 0.829745 0.577963
vt 0.704745 0.233783
vt 0.173852 0.233783
vt 0.500693 0.702963
vt 0.767245 0.702963
vt 0.265682 0.467882
vt 0.472989 0.531364
vt 0.265546 0.531364
vt 0.286578 0.841189
vt 0.730950 0.904671
vt 0.318319 0.904671
vt 0.304193 0.067305
vt 0.748566 0.130787
vt 0.335934 0.130787
vt 0.538268 0.628113
vt 0.093895 0.691594
vt 0.062154 0.628113
vt 0.614769 0.778985
vt 0.181714 0.896413
vt 0.126021 0.778985
vt 0.782611 0.421802
vt 0.607968 0.788828
vt 0.602314 0.421818
vt 0.632034 0.396225
vt 0.233296 0.763252
vt 0.273400 0.396257
vt 0.606457 0.040533
vt 0.207720 0.407559
vt 0.247823 0.040564
vt 0.907611 0.183148
vt 0.508873 0.550175
vt 0.548976 0.183180
vt 0.847206 0.151348
vt 0.468654 0.511513
vt 0.513582 0.151381
vt 0.582596 0.440909
vt 0.772137 0.558337
vt 0.582375 0.558336
vt 0.098751 0.120447
vt 0.531791 0.237875
vt 0.154444 0.237875
vt 0.204443 0.626716
vt 0.637483 0.744144
vt 0.260137 0.744143
vt 0.610993 0.514895
vt 0.820283 0.605921
vt 0.611141 0.605943
vt 0.456284 0.239425
vt 0.077731 0.599590
vt 0.122659 0.239458
vt 0.794360 0.577502
vt 0.631571 0.937667
vt 0.626586 0.577518
vt 0.590938 0.487733
vt 0.212385 0.847897
vt 0.257313 0.487766
vt 0.635994 0.774548
vt 0.173482 0.865620
vt 0.126425 0.774549
vt 0.583148 0.454087
vt 0.120636 0.545159
vt 0.073579 0.454087
vt 0.974071 0.213741
vt 0.511559 0.304812
vt 0.464502 0.213741
vt 0.232829 0.917610
vt 0.463128 0.642443
vt 0.463333 0.917610
vt 0.445906 0.597148
vt 0.904517 0.321982
vt 0.904517 0.597148
vt 0.099867 0.428956
vt 0.558479 0.153790
vt 0.558479 0.428956
vt 0.495979 0.597148
vt 0.037367 0.321982
vt 0.495979 0.321982
vt 0.499710 1.000235
vt 0.501294 -0.000990
vt 1.002805 0.706983
vt 0.967017 0.757379
vt 0.734966 0.482213
vt 0.967017 0.482213
vt 0.606795 0.223395
vt 0.396213 0.314466
vt 0.349156 0.223395
vt 0.433467 0.515035
vt 0.607500 0.875167
vt 0.388539 0.875167
vt 0.293022 0.120447
vt 0.101598 0.237875
vt 0.045905 0.120447
vt 0.531361 0.574103
vt 0.718682 0.941098
vt 0.491258 0.941098
vt 0.331983 0.387766
vt 0.122857 0.451248
vt 0.091116 0.387766
vt 0.567431 0.577963
vt 0.050192 0.366594
vt 0.262727 0.472421
vt 0.050192 0.472421
vt 0.000100 0.707065
vt 0.000100 0.292935
vt 0.147127 0.145908
vt 0.205911 0.340158
vt 0.207600 0.794037
vt 0.205911 0.794037
vt 0.793838 0.340158
vt 0.792149 0.794037
vt 0.791431 0.339560
vt 0.564051 0.182555
vt 0.563113 0.051909
vt 0.564051 0.051909
vt 0.261763 0.396179
vt 0.262586 0.310156
vt 0.262586 0.396179
vt 0.112611 0.840024
vt 0.087709 0.944369
vt 0.086710 0.944369
vt 0.894283 0.307006
vt 0.892594 0.868385
vt 0.893483 0.306807
vt 0.728597 0.141070
vt 0.167110 0.142736
vt 0.167110 0.141048
vt 0.187510 0.886327
vt 0.187768 0.613786
vt 0.283507 0.652687
vt 0.125000 0.062500
vt 0.250000 0.247694
vt 0.125000 0.247912
vt 0.200060 0.624239
vt 0.200060 0.378528
vt 0.799940 0.621609
vt 0.250000 0.439378
vt 0.498189 0.867185
vt 0.499350 0.132814
vt 0.867185 0.652093
vt 0.717816 0.500000
vt 0.937500 0.500000
vt 0.347909 0.867180
vt 0.132820 0.652091
vt 0.132820 0.499350
vt 0.185654 0.903659
vt 0.076674 0.904012
vt 0.000043 0.500000
vt 0.738093 0.393179
vt 0.676268 0.606820
vt 0.676268 0.393142
vt 0.862557 0.081701
vt 0.862538 0.294760
vt 0.800730 0.294689
vt 0.003854 0.956034
vt 0.000099 0.051480
vt 0.287580 0.091839
vt 0.287213 0.000099
vt 0.576191 0.113855
vt 0.581073 0.000099
vt 0.889150 0.106237
vt 0.288803 0.908141
vt 0.572751 0.886054
vt 0.288311 0.999901
vt 0.572531 0.999822
vt 0.986627 0.049811
vt 0.904757 0.037164
vt 0.905763 0.035815
vt 0.885859 0.968301
vt 0.925154 0.000034
vt 0.471355 0.625000
vt 0.187500 0.431344
vt 0.749076 0.050802
vt 0.652687 0.091493
vt 0.752001 0.323743
vt 0.750924 0.324198
vt 0.798181 0.625999
vt 0.812500 0.937500
vt 0.937500 0.437500
vt 0.250000 0.875000
vt 0.886698 0.811576
vt 0.847313 0.908507
vt 0.750924 0.949198
vt 0.613302 0.813423
vt 0.652687 0.716493
vt 0.437500 0.687500
vt 0.750000 0.437500
vt 0.624239 0.799940
vt 0.375761 0.799940
vt 0.187500 0.250000
vt 0.999900 0.292934
vt 0.707065 0.999900
vt 0.292935 0.000100
vt 0.632421 0.369133
vt 0.630867 0.632420
vt 0.367580 0.630867
vt 0.369133 0.367579
vt 0.750000 0.187500
vt 0.500000 0.187500
vt 0.000065 0.999936
vt 0.686172 0.498901
vt 0.498901 0.313828
vt 0.313828 0.501098
vt 0.000064 0.999936
vt 0.875000 0.875000
vt 0.875000 0.125000
vt 0.937500 0.187500
vt 0.437500 0.875000
vt 0.750000 0.562500
vt 0.562500 0.375000
vt 0.437500 0.250000
vt 0.312500 0.437500
vt 0.625000 0.625000
vt 0.562500 0.812500
vt 0.384090 0.495747
vt 0.400263 0.130867
vt 0.743722 0.869496
vt 0.111795 0.366414
vt 0.835567 0.141048
vt 0.894283 0.199632
vt 0.945184 0.280684
vt 0.973313 0.728740
vt 0.199263 0.394543
vt 0.949949 0.806996
vt 0.167110 0.141048
vt 0.728597 0.141070
vt 0.971836 0.025785
vt 0.524749 0.700825
vt 0.750781 0.403678
vt 0.007095 0.861249
vt 0.441846 0.661710
vt 0.785813 0.311895
vt 0.926457 0.638111
vt 1.001442 0.556884
vt 0.205938 0.205974
vt 0.659916 0.205974
vt 0.746357 0.205963
vt 0.793838 0.253327
vt 0.194595 0.170667
vt 0.750781 0.678646
vt 0.007095 0.530022
vt 0.407063 0.405022
vt 0.060192 0.866895
vt 0.455885 0.820017
vt 0.210423 0.687055
vt 0.321848 0.091017
vt 0.633731 0.126248
vt 0.504730 0.467882
vt 0.762691 0.841189
vt 0.780307 0.067305
vt 0.506527 0.691594
vt 0.559060 0.896414
vt 0.833674 0.788828
vt 0.683097 0.763252
vt 0.657521 0.407559
vt 0.958674 0.550175
vt 0.901725 0.511513
vt 0.827846 0.440909
vt 0.587500 0.120447
vt 0.693192 0.626716
vt 0.866686 0.514894
vt 0.510802 0.599590
vt 0.848879 0.937667
vt 0.645456 0.847897
vt 0.589590 0.865574
vt 0.536744 0.545113
vt 0.927667 0.304767
vt 0.232829 0.642443
vt 0.445906 0.321982
vt 0.099867 0.153790
vt 0.037367 0.597148
vt 0.709553 -0.000990
vt 1.002805 0.292262
vt 0.709553 1.000235
vt 0.734761 0.757379
vt 0.606944 0.314443
vt 0.602516 0.515018
vt 0.292801 0.237875
vt 0.713028 0.574086
vt 0.331877 0.451248
vt 0.262727 0.366594
vt 0.707065 0.999900
vt 0.855211 0.851754
vt 0.206881 0.339917
vt 0.793838 0.794037
vt 0.563113 0.182555
vt 0.261763 0.310156
vt 0.113435 0.840024
vt 0.894283 0.868385
vt 0.729236 0.143649
vt 0.324198 0.749076
vt 0.284813 0.846007
vt 0.188424 0.886698
vt 0.250000 0.062500
vt 0.375000 0.439595
vt 0.652093 0.132814
vt 0.867185 0.347907
vt 0.652093 0.867185
vt 0.717816 0.625000
vt 0.867180 0.652091
vt 0.652091 0.867180
vt 0.867180 0.498188
vt 0.000135 0.999532
vt 0.000135 0.000469
vt 0.076674 0.095988
vt 0.076337 0.000043
vt 0.185654 0.096341
vt 0.076337 0.999957
vt 0.738093 0.606857
vt 0.800737 0.082764
s 0
usemtl corinthian
f 193/15/6 10/16/6 9/17/6
f 10/18/7 11/19/7 9/20/7
f 11/21/8 14/22/8 13/23/8
f 14/24/9 15/25/9 13/19/9
f 16/26/10 14/27/10 194/28/10
f 15/29/11 18/30/11 17/31/11
f 13/32/12 15/33/12 193/34/12
f 20/21/13 21/35/13 19/36/13
f 22/37/14 23/38/14 21/39/14
f 24/40/15 25/41/15 23/42/15
f 26/43/16 27/44/16 25/45/16
f 27/46/17 30/47/17 29/48/17
f 29/49/18 32/50/18 31/51/18
f 26/52/19 24/53/19 32/54/19
f 32/55/20 33/56/20 31/57/20
f 34/58/21 19/59/21 33/60/21
f 31/33/22 33/61/22 25/62/22
f 46/73/27 53/74/27 54/73/27
f 48/77/29 44/78/29 40/79/29
f 52/88/32 54/89/32 53/90/32
f 44/78/29 54/92/29 51/78/29
f 44/93/25 52/94/25 43/94/25
f 61/62/41 65/32/41 69/61/41
f 72/88/42 74/89/42 73/90/42
f 64/93/35 72/94/35 63/94/35
f 65/74/39 74/73/39 66/73/39
f 65/32/41 72/114/41 73/32/41
f 84/93/45 92/94/45 83/94/45
f 87/33/51 89/61/51 81/62/51
f 92/88/52 94/89/52 93/90/52
f 85/74/49 94/73/49 86/73/49
f 83/114/51 93/32/51 85/32/51
f 106/92/57 111/78/57 104/78/57
f 100/79/57 96/143/57 108/77/57
f 111/109/62 113/90/62 112/88/62
f 104/93/55 112/94/55 103/94/55
f 106/73/59 113/74/59 114/73/59
f 115/149/63 118/104/63 117/150/63
f 118/151/64 119/152/64 117/153/64
f 200/154/65 121/155/65 199/156/65
f 122/142/66 115/23/66 121/21/66
f 158/244/74 161/245/74 163/244/74
f 154/246/74 164/247/74 162/246/74
f 156/248/74 162/249/74 161/248/74
f 212/250/74 163/251/74 215/250/74
f 169/264/69 175/265/69 171/266/69
f 167/267/75 219/268/75 217/269/75
f 166/270/76 169/271/76 165/272/76
f 168/273/77 170/274/77 166/275/77
f 165/276/78 171/277/78 167/278/78
f 176/279/79 178/280/79 174/281/79
f 219/282/69 175/283/69 221/284/69
f 169/285/69 174/286/69 173/287/69
f 170/288/69 176/289/69 174/290/69
f 223/291/69 183/292/69 225/293/69
f 173/294/80 179/295/80 175/296/80
f 175/297/81 223/298/81 221/299/81
f 174/300/82 177/301/82 173/302/82
f 178/303/69 181/304/69 177/305/69
f 180/306/69 182/307/69 178/308/69
f 177/309/69 183/310/69 179/311/69
f 228/324/69 227/325/69 186/326/69
f 224/330/69 184/331/69 180/332/69
f 176/333/88 224/334/88 180/335/88
f 220/336/69 176/337/69 172/338/69
f 168/339/89 220/340/89 172/341/89
f 160/246/74 216/345/74 164/246/74
f 200/373/92 198/374/92 120/375/92
f 119/376/93 198/377/93 197/378/93
f 119/379/94 197/380/94 199/381/94
f 18/63/95 195/382/95 17/113/95
f 199/394/1 198/395/1 200/396/1
f 193/15/6 194/417/6 10/16/6
f 10/18/7 12/24/7 11/19/7
f 11/21/8 12/142/8 14/22/8
f 14/24/9 16/132/9 15/25/9
f 10/418/10 194/28/10 12/419/10
f 194/28/10 196/420/10 16/26/10
f 12/419/10 194/28/10 14/27/10
f 196/420/10 18/421/10 16/26/10
f 15/29/11 16/122/11 18/30/11
f 17/61/97 195/422/97 15/33/97
f 195/422/12 193/34/12 15/33/12
f 193/34/12 9/62/12 11/114/12
f 11/114/12 13/32/12 193/34/12
f 20/21/13 22/23/13 21/35/13
f 22/37/14 24/423/14 23/38/14
f 24/40/15 26/424/15 25/41/15
f 26/43/16 28/425/16 27/44/16
f 27/46/17 28/117/17 30/47/17
f 29/49/18 30/67/18 32/50/18
f 24/53/19 22/426/19 20/427/19
f 20/427/19 34/428/19 24/53/19
f 34/428/19 32/54/19 24/53/19
f 32/54/19 30/429/19 28/430/19
f 28/430/19 26/52/19 32/54/19
f 32/55/20 34/431/20 33/56/20
f 34/58/21 20/432/21 19/59/21
f 33/61/22 19/433/22 21/434/22
f 21/434/22 23/379/22 33/61/22
f 23/379/22 25/62/22 33/61/22
f 25/62/22 27/114/22 29/32/22
f 29/32/22 31/33/22 25/62/22
f 46/73/27 45/74/27 53/74/27
f 40/79/29 38/436/29 36/143/29
f 36/143/29 50/437/29 40/79/29
f 50/437/29 48/77/29 40/79/29
f 48/77/29 46/92/29 44/78/29
f 44/78/29 42/438/29 40/79/29
f 52/88/32 51/109/32 54/89/32
f 44/78/29 46/92/29 54/92/29
f 44/93/25 51/93/25 52/94/25
f 69/61/41 55/433/41 57/434/41
f 57/434/41 59/379/41 61/62/41
f 61/62/41 63/114/41 65/32/41
f 65/32/41 67/33/41 69/61/41
f 69/61/41 57/434/41 61/62/41
f 72/88/42 71/109/42 74/89/42
f 64/93/35 71/93/35 72/94/35
f 65/74/39 73/74/39 74/73/39
f 65/32/41 63/114/41 72/114/41
f 84/93/45 91/93/45 92/94/45
f 89/61/51 75/433/51 81/62/51
f 75/433/51 77/434/51 81/62/51
f 77/434/51 79/379/51 81/62/51
f 81/62/51 83/114/51 85/32/51
f 85/32/51 87/33/51 81/62/51
f 92/88/52 91/109/52 94/89/52
f 85/74/49 93/74/49 94/73/49
f 83/114/51 92/114/51 93/32/51
f 106/92/57 114/92/57 111/78/57
f 100/79/57 98/436/57 96/143/57
f 96/143/57 110/437/57 108/77/57
f 108/77/57 106/92/57 104/78/57
f 104/78/57 102/438/57 108/77/57
f 102/438/57 100/79/57 108/77/57
f 111/109/62 114/89/62 113/90/62
f 104/93/55 111/93/55 112/94/55
f 106/73/59 105/74/59 113/74/59
f 115/149/63 116/458/63 118/104/63
f 118/151/64 120/124/64 119/152/64
f 200/154/98 122/459/98 121/155/98
f 122/142/66 116/22/66 115/23/66
f 158/244/74 156/245/74 161/245/74
f 154/246/74 160/247/74 164/247/74
f 156/248/74 154/249/74 162/249/74
f 212/250/74 158/251/74 163/251/74
f 169/264/69 173/497/69 175/265/69
f 167/267/75 171/498/75 219/268/75
f 166/270/76 170/499/76 169/271/76
f 168/273/77 172/500/77 170/274/77
f 165/276/78 169/501/78 171/277/78
f 176/279/79 180/502/79 178/280/79
f 219/282/69 171/503/69 175/283/69
f 169/285/69 170/504/69 174/286/69
f 170/288/69 172/505/69 176/289/69
f 223/291/69 179/506/69 183/292/69
f 173/294/80 177/507/80 179/295/80
f 175/297/81 179/508/81 223/298/81
f 174/300/82 178/509/82 177/301/82
f 178/303/69 182/510/69 181/304/69
f 180/306/69 184/511/69 182/307/69
f 177/309/69 181/512/69 183/310/69
f 187/517/69 185/518/69 227/325/69
f 185/518/69 186/326/69 227/325/69
f 186/326/69 188/519/69 228/324/69
f 224/330/69 226/521/69 184/331/69
f 176/333/88 222/522/88 224/334/88
f 220/336/69 222/523/69 176/337/69
f 168/339/89 218/524/89 220/340/89
f 160/246/74 214/345/74 216/345/74
f 120/375/100 118/536/100 200/373/100
f 118/536/100 116/537/100 200/373/100
f 116/537/92 122/538/92 200/373/92
f 119/376/101 120/539/101 198/377/101
f 121/61/94 115/433/94 199/381/94
f 115/433/102 117/434/102 199/381/102
f 117/434/102 119/379/102 199/381/102
f 18/63/95 196/540/95 195/382/95
f 199/394/1 197/554/1 198/395/1
usemtl volute
f 49/85/31 37/86/31 41/87/31
f 64/106/37 62/107/37 60/108/37
f 76/127/48 88/128/48 84/106/48
f 97/86/61 101/87/61 105/146/61
f 49/85/31 35/439/31 37/86/31
f 37/86/31 39/440/31 41/87/31
f 41/87/31 43/441/31 45/146/31
f 45/146/31 47/442/31 41/87/31
f 47/442/31 49/85/31 41/87/31
f 60/108/37 58/446/37 56/127/37
f 56/127/37 70/447/37 60/108/37
f 70/447/37 68/128/37 60/108/37
f 68/128/37 66/448/37 60/108/37
f 66/448/37 64/106/37 60/108/37
f 80/108/48 78/446/48 76/127/48
f 76/127/48 90/447/48 88/128/48
f 88/128/48 86/448/48 84/106/48
f 84/106/48 82/107/48 80/108/48
f 80/108/48 76/127/48 84/106/48
f 109/85/61 95/439/61 97/86/61
f 97/86/61 99/440/61 101/87/61
f 101/87/61 103/441/61 105/146/61
f 105/146/61 107/442/61 109/85/61
f 109/85/61 97/86/61 105/146/61
usemtl base
f 211/1/1 212/2/1 217/3/1
f 189/4/1 192/5/1 191/6/1
f 35/63/23 38/64/23 37/65/23
f 38/66/24 39/67/24 37/68/24
f 40/21/25 41/69/25 39/36/25
f 42/70/26 43/71/26 41/72/26
f 45/75/28 48/76/28 47/37/28
f 48/80/27 49/81/27 47/82/27
f 49/83/30 36/81/30 35/84/30
f 43/29/31 53/47/31 45/91/31
f 56/95/33 57/96/33 55/97/33
f 58/59/34 59/64/34 57/98/34
f 60/99/35 61/100/35 59/101/35
f 62/18/36 63/10/36 61/20/36
f 66/102/37 71/103/37 64/104/37
f 66/73/38 67/105/38 65/74/38
f 68/109/39 69/110/39 67/111/39
f 70/112/40 55/113/40 69/99/40
f 76/115/43 77/116/43 75/67/43
f 77/117/44 80/118/44 79/58/44
f 80/119/45 81/70/45 79/120/45
f 82/121/46 83/122/46 81/123/46
f 85/124/47 88/125/47 87/126/47
f 88/129/49 89/130/49 87/70/49
f 89/29/50 76/131/50 75/91/50
f 84/116/48 94/37/48 91/132/48
f 95/133/53 98/134/53 97/135/53
f 97/136/54 100/137/54 99/102/54
f 99/138/55 102/139/55 101/55/55
f 102/140/56 103/141/56 101/142/56
f 106/73/58 107/105/58 105/74/58
f 108/109/59 109/110/59 107/111/59
f 109/144/60 96/19/60 95/145/60
f 103/113/61 113/147/61 105/148/61
f 134/157/3 132/158/3 131/159/3
f 135/160/5 137/161/5 136/162/5
f 131/163/67 126/164/67 134/165/67
f 127/166/68 132/167/68 133/168/68
f 128/169/69 130/170/69 124/171/69
f 127/172/70 143/173/70 141/174/70
f 123/175/70 207/176/70 204/177/70
f 138/178/71 128/179/71 127/180/71
f 125/181/72 137/182/72 123/183/72
f 135/184/69 136/185/69 125/186/69
f 205/187/73 123/188/73 204/189/73
f 137/190/70 144/191/70 145/192/70
f 145/193/5 151/194/5 152/195/5
f 145/196/72 146/197/72 139/198/72
f 134/199/70 143/200/70 133/201/70
f 123/202/70 145/203/70 139/204/70
f 126/205/70 142/206/70 134/207/70
f 127/208/70 144/209/70 138/210/70
f 150/211/70 149/212/70 147/213/70
f 148/214/70 129/215/70 146/216/70
f 139/217/73 210/218/73 207/219/73
f 143/220/3 149/221/3 150/222/3
f 140/223/67 149/224/67 142/225/67
f 141/226/71 151/227/71 144/228/71
f 141/229/68 150/230/68 148/231/68
f 154/232/2 155/233/2 153/234/2
f 155/235/3 158/236/3 157/237/3
f 213/238/4 160/239/4 159/240/4
f 160/241/5 153/242/5 159/243/5
f 215/252/69 167/253/69 217/254/69
f 161/255/69 166/256/69 165/257/69
f 162/258/69 168/259/69 166/260/69
f 161/261/69 167/262/69 163/263/69
f 183/312/83 227/313/83 225/314/83
f 182/315/84 185/316/84 181/317/84
f 184/318/85 186/319/85 182/320/85
f 183/321/86 185/322/86 187/323/86
f 184/327/87 228/328/87 188/329/87
f 216/342/69 168/343/69 164/344/69
f 158/346/90 211/347/90 157/348/90
f 155/349/70 157/350/70 211/351/70
f 147/352/70 208/353/70 129/354/70
f 146/355/70 208/356/70 210/357/70
f 140/358/91 209/359/91 147/360/91
f 126/361/91 203/362/91 202/363/91
f 126/364/70 206/365/70 140/366/70
f 124/367/69 201/368/69 203/369/69
f 125/370/69 201/371/69 130/372/69
f 192/383/69 190/384/69 2/385/69
f 3/388/70 5/389/70 189/390/70
f 146/391/2 139/392/2 130/393/2
f 195/397/96 193/398/96 194/399/96
f 227/400/1 228/401/1 226/402/1
f 226/402/1 224/403/1 222/404/1
f 222/404/1 220/405/1 218/406/1
f 227/400/1 226/402/1 225/407/1
f 226/402/1 222/404/1 225/407/1
f 221/408/1 223/409/1 225/407/1
f 225/407/1 222/404/1 221/408/1
f 222/404/1 218/406/1 221/408/1
f 217/3/1 219/410/1 221/408/1
f 217/3/1 221/408/1 218/406/1
f 217/3/1 218/406/1 213/411/1
f 218/406/1 216/412/1 213/411/1
f 216/412/74 214/413/74 213/411/74
f 217/3/1 213/411/1 211/1/1
f 212/2/74 215/414/74 217/3/74
f 189/4/1 190/415/1 192/5/1
f 35/63/23 36/98/23 38/64/23
f 38/66/24 40/115/24 39/67/24
f 40/21/25 42/435/25 41/69/25
f 42/70/26 44/130/26 43/71/26
f 45/75/28 46/7/28 48/76/28
f 48/80/27 50/57/27 49/81/27
f 49/83/30 50/82/30 36/81/30
f 43/29/31 52/443/31 53/47/31
f 56/95/33 58/444/33 57/96/33
f 58/59/34 60/136/34 59/64/34
f 60/99/35 62/113/35 61/100/35
f 62/18/36 64/75/36 63/10/36
f 66/102/37 74/19/37 71/103/37
f 66/73/38 68/445/38 67/105/38
f 68/109/39 70/449/39 69/110/39
f 70/112/40 56/63/40 55/113/40
f 76/115/43 78/450/43 77/116/43
f 77/117/44 78/451/44 80/118/44
f 80/119/45 82/129/45 81/70/45
f 82/121/46 84/452/46 83/122/46
f 85/124/47 86/41/47 88/125/47
f 88/129/49 90/453/49 89/130/49
f 89/29/50 90/122/50 76/131/50
f 84/116/48 86/67/48 94/37/48
f 95/133/53 96/14/53 98/134/53
f 97/136/54 98/454/54 100/137/54
f 99/138/55 100/455/55 102/139/55
f 102/140/56 104/456/56 103/141/56
f 106/73/58 108/445/58 107/105/58
f 108/109/59 110/449/59 109/110/59
f 109/144/60 110/126/60 96/19/60
f 103/113/61 112/457/61 113/147/61
f 134/157/3 133/460/3 132/158/3
f 135/160/5 138/461/5 137/161/5
f 131/163/67 124/462/67 126/164/67
f 127/166/68 128/463/68 132/167/68
f 124/171/69 131/464/69 132/465/69
f 132/465/69 128/169/69 124/171/69
f 127/172/70 133/466/70 143/173/70
f 123/175/70 139/467/70 207/176/70
f 138/178/71 135/468/71 128/179/71
f 125/181/72 136/469/72 137/182/72
f 130/470/69 128/471/69 125/186/69
f 128/471/69 135/184/69 125/186/69
f 205/187/73 125/472/73 123/188/73
f 137/190/70 138/473/70 144/191/70
f 145/193/5 144/474/5 151/194/5
f 145/196/72 152/475/72 146/197/72
f 134/199/70 142/476/70 143/200/70
f 123/202/70 137/477/70 145/203/70
f 126/205/70 140/478/70 142/206/70
f 127/208/70 141/479/70 144/209/70
f 129/480/70 148/481/70 147/213/70
f 148/481/70 150/211/70 147/213/70
f 146/216/70 152/482/70 151/483/70
f 151/483/70 148/214/70 146/216/70
f 139/217/73 146/484/73 210/218/73
f 143/220/3 142/485/3 149/221/3
f 140/223/67 147/486/67 149/224/67
f 141/226/71 148/487/71 151/227/71
f 141/229/68 143/488/68 150/230/68
f 154/232/2 156/489/2 155/233/2
f 155/235/3 156/490/3 158/236/3
f 213/238/4 214/491/4 160/239/4
f 160/241/5 154/492/5 153/242/5
f 215/252/69 163/493/69 167/253/69
f 161/255/69 162/494/69 166/256/69
f 162/258/69 164/495/69 168/259/69
f 161/261/69 165/496/69 167/262/69
f 183/312/83 187/513/83 227/313/83
f 182/315/84 186/514/84 185/316/84
f 184/318/85 188/515/85 186/319/85
f 183/321/86 181/516/86 185/322/86
f 184/327/87 226/520/87 228/328/87
f 216/342/69 218/525/69 168/343/69
f 158/346/90 212/526/90 211/347/90
f 159/527/70 153/77/70 213/528/70
f 153/77/70 155/349/70 211/351/70
f 213/528/70 153/77/70 211/351/70
f 147/352/70 209/529/70 208/353/70
f 146/355/70 129/530/70 208/356/70
f 140/358/99 206/531/99 209/359/99
f 126/361/91 124/532/91 203/362/91
f 126/364/70 202/533/70 206/365/70
f 124/367/69 130/534/69 201/368/69
f 125/370/69 205/535/69 201/371/69
f 6/541/69 4/542/69 190/384/69
f 4/542/69 2/385/69 190/384/69
f 2/385/69 8/543/69 192/383/69
f 7/545/70 1/546/70 191/547/70
f 1/546/70 3/388/70 189/390/70
f 191/547/70 1/546/70 189/390/70
f 125/548/2 130/393/2 139/392/2
f 130/393/2 124/549/2 140/550/2
f 124/549/2 126/551/2 140/550/2
f 140/550/2 147/552/2 130/393/2
f 147/552/2 146/391/2 130/393/2
f 139/392/2 123/553/2 125/548/2
f 194/399/96 196/555/96 195/397/96
usemtl ionic
f 2/7/2 3/8/2 1/9/2
f 4/10/3 5/11/3 3/12/3
f 191/13/4 8/14/4 7/11/4
f 8/10/5 1/11/5 7/12/5
f 6/7/90 189/386/90 5/387/90
f 2/7/2 4/149/2 3/8/2
f 4/10/3 6/14/3 5/11/3
f 191/13/4 192/416/4 8/14/4
f 8/10/5 2/14/5 1/11/5
f 6/7/90 190/544/90 189/386/90
