# Blender 5.1.2
# www.blender.org
mtllib medium_tuscan_half_capital.mtl
o Cube.292
v 1.150428 1.001000 0.349570
v 1.150428 0.863499 0.349570
v -0.150431 1.001000 0.349570
v -0.150431 0.863499 0.349570
v 0.257148 0.451000 0.413709
v 0.257148 0.547630 0.413709
v 0.742849 0.451000 0.413709
v 0.742849 0.547630 0.413709
v 1.086292 0.451000 0.757152
v 1.086292 0.547630 0.757152
v -0.086295 0.451000 0.757152
v -0.086295 0.547630 0.757152
v 0.709778 0.547630 0.493550
v 0.290219 0.547630 0.493550
v 1.006451 0.547630 0.790224
v -0.006453 0.547630 0.790224
v 0.709778 0.767630 0.493550
v 0.290219 0.767630 0.493550
v 1.006451 0.767630 0.790224
v -0.006453 0.767630 0.790224
v 0.733748 0.767630 0.435680
v 0.266249 0.767630 0.435680
v 1.064320 0.767630 0.766253
v -0.064323 0.767630 0.766253
v 0.769415 0.808881 0.349574
v 0.230582 0.808881 0.349574
v 1.150427 0.808881 0.730587
v -0.150430 0.808881 0.730587
v -0.150431 0.863628 0.730587
v 0.768173 0.863628 0.349572
v 0.230582 0.863691 0.349574
v 1.150428 0.863628 0.730587
v 0.499999 1.001000 0.349570
v 1.150428 1.001000 1.000000
v -0.150431 1.001000 1.000000
v 0.499999 1.001000 1.000000
v 1.086292 0.451000 1.000002
v 1.086292 0.547630 1.000002
v 1.006451 0.547630 1.000002
v 1.006451 0.767630 1.000002
v 1.064320 0.767630 1.000002
v 1.150427 0.808881 1.000003
v 1.150428 0.863611 0.999537
v -0.086295 0.451000 1.000002
v -0.086295 0.547630 1.000002
v -0.006453 0.547630 1.000002
v -0.006453 0.767630 1.000002
v -0.064323 0.767630 1.000002
v -0.150430 0.808881 1.000003
v -0.150431 0.863628 1.000003
v 0.499999 0.451000 0.413709
v 0.499999 0.547630 0.413709
v 0.499999 0.547630 0.493550
v 0.499999 0.767630 0.493550
v 0.499999 0.767630 0.435680
v 0.499999 0.808881 0.349574
v 0.499378 0.863659 0.349573
v 1.150428 1.001000 1.000307
v 1.086292 0.451000 1.000413
v -0.086295 0.547630 1.002351
v -0.006453 0.547630 1.002219
v -0.006453 0.767630 1.002219
v -0.064323 0.767630 1.002315
v -0.150430 0.808881 1.002457
v -0.150431 0.863628 1.002457
v 0.499999 1.001000 1.001382
v -0.150431 1.001000 1.002457
v 1.086292 0.547630 1.000413
v 1.006451 0.547630 1.000545
v 1.006451 0.767630 1.000545
v 1.064320 0.767630 1.000449
v 1.150427 0.808881 1.000307
v 1.150428 0.863611 1.000307
v -0.086295 0.451000 1.002351
vn -1.0000 -0.0000 -0.0000
vn 0.0005 -1.0000 0.0003
vn -0.0000 -0.0000 -1.0000
vn 0.7071 -0.0000 -0.7071
vn 0.0017 -0.0000 1.0000
vn -0.0000 1.0000 -0.0000
vn -0.7071 -0.0000 -0.7071
vn -0.0000 -1.0000 -0.0000
vn 1.0000 -0.0000 -0.0000
vn 0.4320 -0.9019 -0.0000
vn -0.0000 -0.9018 -0.4321
vn -0.3055 -0.9018 -0.3055
vn 0.3055 -0.9018 -0.3055
vn -0.0003 -1.0000 0.0003
vn -0.4320 -0.9019 -0.0000
vn 0.7059 0.0160 -0.7082
vt 0.706027 0.109055
vt 0.499291 0.109044
vt 0.499649 0.018983
vt 0.559484 0.059496
vt 0.940506 0.059491
vt 0.940506 0.440509
vt 0.501111 0.541075
vt 0.256701 0.462025
vt 0.501111 0.462025
vt 0.464351 0.916075
vt -0.024469 0.837025
vt 0.464351 0.837025
vt 0.422806 0.500000
vt 0.074337 0.889270
vt 0.074337 0.110730
vt 0.626084 0.493616
vt 0.685070 0.908972
vt 0.626084 0.941276
vt 0.313611 0.228575
vt 0.069201 0.149525
vt 0.313611 0.149525
vt 0.839351 0.103575
vt 0.350531 0.024525
vt 0.839351 0.024525
vt 0.563584 0.301152
vt 0.622570 0.109627
vt 0.622570 0.301152
vt 0.563586 0.301145
vt 0.622568 0.109632
vt 0.622568 0.301145
vt 0.813586 1.003762
vt 0.872568 0.588432
vt 0.872568 0.971460
vt 0.860254 0.906129
vt 0.825601 0.578042
vt 0.860254 0.592395
vt 0.385849 0.049481
vt 0.207901 0.263019
vt 0.207901 0.049481
vt 0.698349 0.174481
vt 0.520401 0.388019
vt 0.520401 0.174481
vt 0.771699 0.361981
vt 0.415801 0.575519
vt 0.415801 0.361981
vt 0.959199 0.736981
vt 0.603301 0.950519
vt 0.603301 0.736981
vt 0.422754 0.406129
vt 0.388101 0.249262
vt 0.422754 0.249262
vt 0.360254 0.843629
vt 0.325601 0.686762
vt 0.360254 0.686762
vt 0.735254 0.154895
vt 0.700601 0.482982
vt 0.700601 0.140542
vt 0.306786 0.496641
vt 0.379577 0.713512
vt 0.306786 0.713512
vt 0.056786 0.309141
vt 0.129577 0.526012
vt 0.056786 0.526012
vt 0.681786 0.533129
vt 0.754577 0.999962
vt 0.681786 0.966871
vt 0.431786 0.466871
vt 0.504577 0.000038
vt 0.504577 0.499962
vt 0.396977 0.554877
vt 0.661253 0.509015
vt 0.661711 0.554877
vt 0.173306 0.242383
vt 0.437650 0.196509
vt 0.438108 0.242383
vt 0.578070 0.867397
vt 0.048146 0.821481
vt 0.577152 0.821510
vt 0.048101 0.554901
vt 0.577198 0.509006
vt 0.578115 0.554901
vt 0.293761 0.544941
vt 0.000885 0.454933
vt 0.500855 0.454933
vt 0.057251 0.940511
vt 0.057251 0.559489
vt 0.439511 0.940508
vt 0.437500 0.937500
vt 0.937500 0.437500
vt 0.937500 0.937500
vt 0.062500 0.937500
vt 0.562500 0.437500
vt 0.562500 0.937500
vt 0.589567 0.554875
vt 0.589866 0.509013
vt 0.589866 0.554875
vt 0.306786 0.661488
vt 0.379577 0.661770
vt 0.306786 0.661903
vt 0.388101 0.248934
vt 0.422754 0.248856
vt 0.229599 0.049481
vt 0.229139 0.263019
vt 0.229139 0.049481
vt 0.563586 0.259125
vt 0.622568 0.258746
vt 0.622568 0.259242
vt 0.995681 0.916075
vt 0.751271 0.837025
vt 0.995681 0.837025
vt 0.688108 0.867391
vt 0.952084 0.821516
vt 0.953001 0.867391
vt 0.547754 0.342395
vt 0.513101 0.499262
vt 0.513101 0.328042
vt 0.869286 0.503359
vt 0.942077 0.286488
vt 0.942077 0.536450
vt 0.729599 0.049481
vt 0.551651 0.263019
vt 0.551651 0.049481
vt 0.688586 0.196246
vt 0.747568 0.387760
vt 0.688586 0.420062
vt 0.253635 0.228575
vt 0.251271 0.149525
vt 0.253635 0.149525
vt 0.701994 0.196524
vt 0.702910 0.242383
vt 0.056786 0.690859
vt 0.129577 0.473988
vt 0.129577 0.723950
vt 0.360254 0.529895
vt 0.325601 0.515542
vt 0.542099 0.174481
vt 0.364151 0.388019
vt 0.364151 0.174481
vt 0.563584 0.258739
vt 0.622570 0.450265
vt 0.563584 0.482569
vt 0.683181 0.541075
vt 0.438771 0.462025
vt 0.683181 0.462025
vt 0.062500 0.562500
vt 0.562500 0.561437
vt 0.562500 0.562500
vt 0.685695 0.867391
vt 0.687650 0.821501
vt 0.869286 0.336366
vt 0.942077 0.338512
vt 0.869286 0.338512
vt 0.547754 0.500920
vt 0.547754 0.499262
vt 0.709781 0.049481
vt 0.707901 0.263019
vt 0.707901 0.049481
vt 0.688586 0.238645
vt 0.747568 0.236621
vt 0.747568 0.238645
vt 0.813611 0.916075
vt 0.813197 0.837025
vt 0.813611 0.837025
vt 0.500000 0.017265
vt 0.982734 0.500000
vt 0.017265 0.500000
vt 0.499291 0.859044
vt 0.292555 0.859033
vt 0.499649 0.768983
vt 0.437500 0.562500
vt 0.937500 0.562264
vt 0.937500 0.562500
vt 0.497408 0.109044
vt 0.497760 0.018983
vt 0.999619 0.018983
vt 0.999619 0.109117
vt 0.256701 0.541075
vt -0.024469 0.916075
vt 0.275140 0.000066
vt 0.317206 0.000065
vt 0.243433 0.066250
vt 0.422806 0.000065
vt 0.243433 0.110730
vt 0.422806 0.999935
vt 0.243433 0.889270
vt 0.317219 0.999935
vt 0.000065 0.049362
vt 0.074337 0.049362
vt 0.000065 0.950638
vt 0.275140 0.999934
vt 0.243433 0.933750
vt 0.074337 0.950638
vt 0.685070 0.525920
vt 0.069201 0.228575
vt 0.350531 0.103575
vt 0.563584 0.077322
vt 0.563586 0.077329
vt 0.813586 0.556130
vt 0.825601 0.920482
vt 0.385849 0.263019
vt 0.698349 0.388019
vt 0.771699 0.575519
vt 0.959199 0.950519
vt 0.388101 0.420482
vt 0.325601 0.857982
vt 0.735254 0.468629
vt 0.379577 0.463550
vt 0.129577 0.276050
vt 0.754577 0.500038
vt 0.431786 0.033129
vt 0.396977 0.509001
vt 0.173306 0.196495
vt 0.048146 0.867397
vt 0.048101 0.508977
vt 1.000825 0.454933
vt 1.000824 0.545067
vt 0.706994 0.544983
vt 0.500377 0.544962
vt 0.000885 0.545067
vt 0.437500 0.437500
vt 0.062500 0.437500
vt 0.589109 0.509013
vt 0.379577 0.661488
vt 0.229599 0.263019
vt 0.563586 0.258746
vt 0.751271 0.916075
vt 0.869286 0.286488
vt 0.729599 0.263019
vt 0.747568 0.196246
vt 0.251271 0.228575
vt 0.056786 0.473988
vt 0.542099 0.388019
vt 0.622570 0.258739
vt 0.438771 0.541075
vt 0.062500 0.560611
vt 0.685241 0.821501
vt 0.942077 0.336235
vt 0.513101 0.500956
vt 0.709781 0.263019
vt 0.688586 0.236481
vt 0.813197 0.916075
vt 0.017265 0.300046
vt 0.300045 0.017265
vt 0.699955 0.017265
vt 0.982734 0.300046
vt 0.982734 0.500338
vt 0.017265 0.501934
vt -0.000321 0.859117
vt -0.000321 0.768983
vt 0.499885 0.768983
vt 0.499883 0.859044
vt 0.437500 0.561437
s 0
usemtl ionic_capital
f 29/1/1 50/2/1 35/3/1
f 29/4/2 4/5/2 31/6/2
f 52/7/3 7/8/3 51/9/3
f 8/10/4 9/11/4 7/12/4
f 66/13/5 61/14/5 69/15/5
f 12/16/6 14/17/6 6/18/6
f 45/19/1 11/20/1 44/21/1
f 12/22/7 5/23/7 11/24/7
f 52/25/6 14/26/6 53/27/6
f 38/28/6 15/29/6 39/30/6
f 10/31/6 13/32/6 15/33/6
f 17/34/8 23/35/8 19/36/8
f 15/37/9 40/38/9 39/39/9
f 14/40/3 54/41/3 53/42/3
f 16/43/7 18/44/7 14/45/7
f 13/46/4 19/47/4 15/48/4
f 19/49/8 41/50/8 40/51/8
f 18/52/8 55/53/8 54/54/8
f 18/55/8 24/56/8 22/57/8
f 23/58/10 42/59/10 41/60/10
f 22/61/11 56/62/11 55/63/11
f 24/64/12 26/65/12 22/66/12
f 23/67/13 25/68/13 27/69/13
f 27/70/9 43/71/9 42/72/9
f 26/73/3 57/74/3 56/75/3
f 26/76/7 29/77/7 31/78/7
f 25/79/4 32/80/4 27/81/4
f 31/82/3 3/83/3 33/84/3
f 2/85/14 32/86/14 30/87/14
f 33/88/6 34/89/6 1/90/6
f 3/91/6 36/92/6 33/93/6
f 42/94/9 73/95/9 72/96/9
f 41/97/10 72/98/10 71/99/10
f 40/51/8 71/100/8 70/101/8
f 39/102/9 70/103/9 69/104/9
f 68/105/6 39/106/6 69/107/6
f 10/108/9 37/109/9 9/110/9
f 49/111/1 29/112/1 28/113/1
f 20/114/8 48/115/8 24/116/8
f 24/117/15 49/118/15 28/119/15
f 46/120/1 20/121/1 16/122/1
f 45/123/6 16/124/6 12/125/6
f 60/126/1 44/127/1 74/128/1
f 56/75/3 30/129/3 25/130/3
f 21/131/11 56/132/11 25/133/11
f 17/134/8 55/53/8 21/135/8
f 53/136/3 17/137/3 13/138/3
f 52/139/6 13/140/6 8/141/6
f 6/142/3 51/143/3 5/144/3
f 35/145/6 66/146/6 36/147/6
f 64/148/1 50/149/1 49/111/1
f 63/150/15 49/151/15 48/152/15
f 62/153/8 48/115/8 47/154/8
f 61/155/1 47/156/1 46/157/1
f 45/158/6 61/159/6 46/160/6
f 38/161/9 59/162/9 37/163/9
f 51/164/8 37/165/8 44/166/8
f 43/167/9 32/168/9 34/169/9
f 36/170/6 58/171/6 34/172/6
f 50/2/1 65/173/1 67/174/1
f 67/174/1 35/3/1 50/2/1
f 35/3/1 3/175/1 29/1/1
f 3/175/1 4/176/1 29/1/1
f 52/7/3 8/177/3 7/8/3
f 8/10/4 10/178/4 9/11/4
f 72/179/5 73/180/5 71/181/5
f 73/180/5 58/182/5 70/183/5
f 66/13/5 67/184/5 62/185/5
f 67/184/5 65/186/5 62/185/5
f 73/180/5 70/183/5 71/181/5
f 58/182/5 66/13/5 70/183/5
f 59/187/5 68/188/5 69/15/5
f 74/189/5 59/187/5 61/14/5
f 59/187/5 69/15/5 61/14/5
f 69/15/5 70/183/5 66/13/5
f 65/186/5 64/190/5 63/191/5
f 62/185/5 65/186/5 63/191/5
f 61/14/5 60/192/5 74/189/5
f 66/13/5 62/185/5 61/14/5
f 12/16/6 16/193/6 14/17/6
f 45/19/1 12/194/1 11/20/1
f 12/22/7 6/195/7 5/23/7
f 52/25/6 6/196/6 14/26/6
f 38/28/6 10/197/6 15/29/6
f 10/31/6 8/198/6 13/32/6
f 17/34/8 21/199/8 23/35/8
f 15/37/9 19/200/9 40/38/9
f 14/40/3 18/201/3 54/41/3
f 16/43/7 20/202/7 18/44/7
f 13/46/4 17/203/4 19/47/4
f 19/49/8 23/204/8 41/50/8
f 18/52/8 22/205/8 55/53/8
f 18/55/8 20/206/8 24/56/8
f 23/58/10 27/207/10 42/59/10
f 22/61/11 26/208/11 56/62/11
f 24/64/12 28/209/12 26/65/12
f 23/67/13 21/210/13 25/68/13
f 27/70/9 32/211/9 43/71/9
f 26/73/3 31/212/3 57/74/3
f 26/76/7 28/213/7 29/77/7
f 25/79/16 30/214/16 32/80/16
f 1/215/3 2/216/3 30/217/3
f 30/217/3 57/218/3 33/84/3
f 57/218/3 31/82/3 33/84/3
f 31/82/3 4/219/3 3/83/3
f 33/84/3 1/215/3 30/217/3
f 33/88/6 36/220/6 34/89/6
f 3/91/6 35/221/6 36/92/6
f 42/94/9 43/222/9 73/95/9
f 41/97/10 42/223/10 72/98/10
f 40/51/8 41/50/8 71/100/8
f 39/102/9 40/224/9 70/103/9
f 68/105/6 38/225/6 39/106/6
f 10/108/9 38/226/9 37/109/9
f 49/111/1 50/149/1 29/112/1
f 20/114/8 47/154/8 48/115/8
f 24/117/15 48/227/15 49/118/15
f 46/120/1 47/228/1 20/121/1
f 45/123/6 46/229/6 16/124/6
f 60/126/1 45/230/1 44/127/1
f 56/75/3 57/74/3 30/129/3
f 21/131/11 55/231/11 56/132/11
f 17/134/8 54/54/8 55/53/8
f 53/136/3 54/232/3 17/137/3
f 52/139/6 53/233/6 13/140/6
f 6/142/3 52/234/3 51/143/3
f 35/145/6 67/235/6 66/146/6
f 64/148/1 65/236/1 50/149/1
f 63/150/15 64/237/15 49/151/15
f 62/153/8 63/238/8 48/115/8
f 61/155/1 62/239/1 47/156/1
f 45/158/6 60/240/6 61/159/6
f 38/161/9 68/241/9 59/162/9
f 11/242/8 5/243/8 51/164/8
f 51/164/8 7/244/8 9/245/8
f 37/165/8 59/246/8 44/166/8
f 59/246/8 74/247/8 44/166/8
f 51/164/8 9/245/8 37/165/8
f 44/166/8 11/242/8 51/164/8
f 32/168/9 2/248/9 1/249/9
f 34/169/9 58/250/9 73/251/9
f 32/168/9 1/249/9 34/169/9
f 73/251/9 43/167/9 34/169/9
f 36/170/6 66/252/6 58/171/6
