# Blender 5.1.2
# www.blender.org
mtllib medium_roman_ionic_capital.mtl
o roman
v 0.500000 0.987128 -0.000832
v 0.500000 1.073065 1.000832
v 0.500000 0.987128 1.000832
v 0.500000 1.073065 -0.000832
v -0.000832 0.987128 0.500000
v 1.000832 1.073065 0.500000
v -0.000832 1.073065 0.500000
v 1.000832 0.987128 0.500000
v 0.500000 0.987128 0.500000
v 0.500000 1.073065 0.500000
v 1.152177 1.073065 -0.057404
v 1.057404 1.073065 -0.152177
v 1.057404 0.987128 -0.152177
v 1.152177 0.987128 -0.057404
v 1.057404 1.073065 1.152177
v 1.152177 1.073065 1.057405
v 1.152177 0.987128 1.057405
v 1.057404 0.987128 1.152177
v -0.057405 1.073065 -0.152177
v -0.152177 1.073065 -0.057404
v -0.152177 0.987128 -0.057404
v -0.057405 0.987128 -0.152177
v -0.152177 1.073065 1.057405
v -0.057405 1.073065 1.152177
v -0.057405 0.987128 1.152177
v -0.152177 0.987128 1.057405
v 0.257942 0.603847 -0.084379
v 0.257942 0.741347 -0.084379
v 0.742058 0.603847 -0.084379
v 0.742058 0.741347 -0.084379
v 1.084379 0.603847 0.257942
v 1.084379 0.741347 0.257942
v 1.084379 0.603847 0.742058
v 1.084379 0.741347 0.742058
v 0.742058 0.603847 1.084379
v 0.742058 0.741347 1.084379
v 0.257942 0.603847 1.084379
v 0.257942 0.741347 1.084379
v -0.084379 0.603847 0.742058
v -0.084379 0.741347 0.742058
v -0.084379 0.603847 0.257942
v -0.084379 0.741347 0.257942
v 0.859199 0.911493 0.980735
v 0.980733 0.911493 0.859201
v 0.805337 0.727597 0.926873
v 0.926871 0.727597 0.805339
v 0.859199 0.543700 0.980735
v 0.980733 0.543700 0.859201
v 0.989233 0.467528 1.110769
v 1.110767 0.467528 0.989235
v 1.119267 0.543700 1.240803
v 1.240802 0.543700 1.119269
v 1.173130 0.727597 1.294665
v 1.294663 0.727597 1.173131
v 1.119267 0.911493 1.240803
v 1.240801 0.911493 1.119269
v 0.989233 0.987665 1.110769
v 1.110767 0.987665 0.989235
v -0.240802 0.911493 -0.119269
v -0.119268 0.911493 -0.240803
v -0.294664 0.727597 -0.173131
v -0.173130 0.727597 -0.294665
v -0.240802 0.543700 -0.119269
v -0.119268 0.543700 -0.240803
v -0.110767 0.467528 0.010765
v 0.010767 0.467528 -0.110769
v 0.019267 0.543700 0.140799
v 0.140801 0.543700 0.019265
v 0.073129 0.727597 0.194661
v 0.194663 0.727597 0.073127
v 0.019267 0.911493 0.140799
v 0.140801 0.911493 0.019265
v -0.110767 0.987665 0.010765
v 0.010767 0.987665 -0.110769
v 1.119269 0.911493 -0.240803
v 1.240803 0.911493 -0.119269
v 1.173131 0.727597 -0.294665
v 1.294665 0.727597 -0.173131
v 1.119269 0.543700 -0.240803
v 1.240803 0.543700 -0.119269
v 0.989235 0.467528 -0.110769
v 1.110769 0.467528 0.010765
v 0.859201 0.543700 0.019265
v 0.980735 0.543700 0.140799
v 0.805339 0.727597 0.073127
v 0.926872 0.727597 0.194661
v 0.859200 0.911493 0.019265
v 0.980734 0.911493 0.140799
v 0.989235 0.987665 -0.110769
v 1.110769 0.987665 0.010765
v 1.053281 0.994003 -0.053281
v 1.053281 0.736190 -0.053281
v 1.053281 0.994003 1.053281
v 1.053281 0.736190 1.053281
v -0.053282 0.994003 -0.053281
v -0.053282 0.736190 -0.053281
v -0.053282 0.994003 1.053281
v -0.053282 0.736190 1.053281
v 0.500000 0.736190 0.057257
v 0.500000 0.994003 0.942743
v 0.500000 0.736190 0.942743
v 0.500000 0.994003 0.057257
v 0.057257 0.736190 0.500000
v 0.942742 0.994003 0.500000
v 0.057257 0.994003 0.500000
v 0.942742 0.736190 0.500000
v 0.500000 0.736190 0.500000
v 0.500000 0.994003 0.500000
v 0.019267 0.911493 0.859201
v 0.140801 0.911493 0.980735
v 0.073129 0.727597 0.805339
v 0.194663 0.727597 0.926873
v 0.019267 0.543700 0.859201
v 0.140801 0.543700 0.980735
v -0.110767 0.467528 0.989235
v 0.010767 0.467528 1.110769
v -0.240801 0.543700 1.119269
v -0.119267 0.543700 1.240803
v -0.294663 0.727597 1.173131
v -0.173129 0.727597 1.294665
v -0.240801 0.911493 1.119269
v -0.119267 0.911493 1.240803
v -0.110767 0.987665 0.989235
v 0.010767 0.987665 1.110769
vn 0.7071 -0.0000 -0.7071
vn -0.7071 -0.0000 0.7071
vn 0.7071 -0.0000 0.7071
vn -0.7071 -0.0000 -0.7071
vn 0.9651 -0.0000 0.2620
vn -0.2620 -0.0000 -0.9651
vn -0.0000 1.0000 -0.0000
vn -0.0000 -1.0000 -0.0000
vn -0.2620 -0.0000 0.9651
vn 0.9651 -0.0000 -0.2620
vn 0.2620 -0.0000 -0.9651
vn -0.9651 -0.0000 0.2620
vn -0.9651 -0.0000 -0.2620
vn 0.2620 -0.0000 0.9651
vn -0.0000 -0.0000 -1.0000
vn 1.0000 -0.0000 -0.0000
vn -0.0000 -0.0000 1.0000
vn -1.0000 -0.0000 -0.0000
vn -0.6533 0.3827 -0.6533
vn -0.6533 -0.3827 -0.6533
vn -0.2706 -0.9239 -0.2706
vn 0.2706 -0.9239 0.2706
vn 0.6533 -0.3827 0.6533
vn 0.6533 0.3827 0.6533
vn 0.2706 0.9239 0.2706
vn -0.2706 0.9239 -0.2706
vn 0.6533 0.3827 -0.6533
vn 0.6533 -0.3827 -0.6533
vn 0.2706 -0.9239 -0.2706
vn -0.2706 -0.9239 0.2706
vn -0.6533 -0.3827 0.6533
vn -0.6533 0.3827 0.6533
vn -0.2706 0.9239 0.2706
vn 0.2706 0.9239 -0.2706
vn 0.1959 -0.0000 0.9806
vn -0.9806 -0.0000 0.1959
vn 0.9806 -0.0000 -0.1959
vn -0.1959 -0.0000 -0.9806
vn 0.1959 -0.0000 -0.9806
vn -0.1959 -0.0000 0.9806
vn 0.9806 -0.0000 0.1959
vn -0.9806 -0.0000 -0.1959
vt 0.687500 0.875000
vt 0.562500 0.812500
vt 0.687500 0.812500
vt 0.812500 0.500000
vt 0.687500 0.437500
vt 0.812500 0.437500
vt 0.312500 0.375000
vt 0.187500 0.312500
vt 0.312500 0.312500
vt 0.437500 0.625000
vt 0.312500 0.562500
vt 0.437500 0.562500
vt 1.000000 0.062500
vt 0.500000 0.125000
vt 1.000000 0.125000
vt 0.500000 0.062500
vt 0.000000 0.125000
vt 0.789894 0.704788
vt 0.295212 0.704788
vt 0.295212 0.210106
vt 0.367115 0.484231
vt 0.375000 0.523654
vt 0.375000 0.625000
vt 0.210106 0.704788
vt 0.045212 0.127659
vt 0.127659 0.045212
vt 0.367115 0.765769
vt 0.250000 0.750000
vt 0.954788 0.872341
vt 0.872341 0.954788
vt 0.295212 0.789894
vt 0.250000 0.500000
vt 0.250000 0.625000
vt 0.125000 0.625000
vt 0.704788 0.789894
vt 0.045212 0.872341
vt 0.210106 0.295212
vt 0.148654 0.750000
vt 0.125000 0.726346
vt 0.000000 0.500000
vt 0.437500 0.500000
vt 0.687500 0.625000
vt 0.687500 0.500000
vt 0.937500 0.625000
vt 0.500000 0.500000
vt 0.937500 0.500000
vt 0.292935 0.000100
vt 0.707065 0.000100
vt 0.292935 0.999900
vt 0.292935 0.000100
vt 0.707065 0.000100
vt 0.292935 0.999900
vt 0.000064 0.000064
vt 0.414228 0.999936
vt 0.000064 0.999936
vt 0.414228 0.999936
vt 0.000064 0.000064
vt 0.414228 0.000064
vt 0.937500 0.875000
vt 0.750000 0.625000
vt 0.125000 0.375000
vt 0.312500 0.125000
vt 0.125000 0.875000
vt 0.312500 0.625000
vt 0.312500 0.875000
vt 0.812500 0.375000
vt 0.625000 0.125000
vt 0.812500 0.125000
vt 0.228892 0.275767
vt 0.763295 0.275767
vt 0.763295 0.810170
vt 0.414228 0.999936
vt 0.000064 0.000064
vt 0.496094 0.920848
vt 0.873974 0.542969
vt 0.496094 0.165089
vt 0.000000 1.000000
vt 0.187500 0.750000
vt 0.187500 1.000000
vt 0.687500 1.000000
vt 0.500000 0.750000
vt 0.687500 0.750000
vt 0.750000 0.875000
vt 0.000000 0.625000
vt 0.187500 0.375000
vt 0.187500 0.625000
vt 0.414228 0.000064
vt 0.000065 0.999936
vt 0.000064 0.000064
vt 0.228893 0.275767
vt 0.228892 0.810170
vt 0.763295 0.810170
vt 0.000064 0.000064
vt 0.414228 0.000064
vt 0.187500 0.500000
vt 0.228892 0.275767
vt 0.496094 0.165089
vt 0.496094 0.920848
vt 0.375000 0.750000
vt 0.562500 0.500000
vt 0.562500 0.750000
vt 0.750000 0.375000
vt 0.937500 0.375000
vt 0.187500 0.250000
vt 0.625000 0.625000
vt 0.812500 0.625000
vt 0.414228 0.999936
vt 0.763295 0.275767
vt 0.437500 0.875000
vt 0.873973 0.542969
vt 0.875000 0.625000
vt 0.750000 0.750000
vt 0.625000 1.000000
vt -0.000000 0.750000
vt 0.625000 0.750000
vt 1.000000 1.000000
vt 0.375000 0.750000
vt 1.000000 0.750000
vt 0.125000 0.750000
vt 0.375000 1.000000
vt 0.625000 0.750000
vt 0.750000 0.500000
vt 0.625000 0.500000
vt 0.125000 0.500000
vt 0.625000 0.375000
vt 0.228893 0.810170
vt 0.228892 0.275767
vt 0.763295 0.275767
vt 0.375000 0.500000
vt 0.562500 0.250000
vt 0.496094 0.165089
vt 0.118214 0.542969
vt 0.562500 0.875000
vt 0.000000 0.062500
vt 0.872341 0.045212
vt 0.954788 0.127659
vt 0.704788 0.210106
vt 0.704788 0.704788
vt 0.375000 0.726346
vt 0.295212 0.295212
vt 0.789894 0.295212
vt 0.125000 0.523654
vt 0.148654 0.500000
vt 0.704788 0.295212
vt 0.127659 0.954788
vt 0.500000 0.625000
vt 0.999900 0.292934
vt 0.999900 0.707065
vt 0.707065 0.999900
vt 0.000100 0.707065
vt 0.000100 0.292935
vt 0.999900 0.292935
vt 0.999900 0.707065
vt 0.707065 0.999900
vt 0.000100 0.707065
vt 0.000100 0.292935
vt 0.414228 0.000064
vt 0.000064 0.999936
vt 0.125000 0.125000
vt 0.118214 0.542969
vt 0.496094 0.165089
vt 0.873974 0.542969
vt 0.496094 0.920848
vt 0.228893 0.810170
vt 0.763295 0.275767
vt 0.000000 0.750000
vt 0.500000 1.000000
vt 0.000000 0.375000
vt 0.496094 0.165089
vt 0.118214 0.542969
vt 0.496094 0.920848
vt 0.000064 0.999936
vt 0.763295 0.275767
vt 0.228892 0.810170
vt 0.118214 0.542969
vt 0.000000 0.250000
vt 0.250000 0.875000
vt 0.875000 0.750000
vt 0.875000 0.500000
vt 0.873974 0.542969
vt 0.375000 0.250000
vt 0.228893 0.275767
s 0
usemtl ionic_egg
f 11/13/5 8/14/5 14/15/5
f 4/16/6 13/17/6 1/14/6
f 13/21/8 14/22/8 8/23/8
f 15/13/9 3/14/9 18/15/9
f 6/16/10 17/17/10 8/14/10
f 8/23/8 18/27/8 3/28/8
f 19/13/11 1/14/11 22/15/11
f 7/16/12 21/17/12 5/14/12
f 1/32/8 9/33/8 5/34/8
f 23/13/13 5/14/13 26/15/13
f 2/16/14 25/17/14 3/14/14
f 3/28/8 25/38/8 26/39/8
f 28/10/15 29/40/15 27/41/15
f 30/10/1 31/40/1 29/41/1
f 32/10/16 33/40/16 31/41/16
f 34/42/3 35/32/3 33/43/3
f 36/42/17 37/32/17 35/43/17
f 38/44/2 39/45/2 37/46/2
f 40/44/18 41/45/18 39/46/18
f 42/44/4 27/45/4 41/46/4
f 105/111/7 100/112/7 108/60/7
f 100/113/35 98/114/35 101/115/35
f 105/113/36 96/114/36 103/115/36
f 106/23/8 101/28/8 107/33/8
f 104/113/37 94/114/37 106/115/37
f 102/113/38 92/114/38 99/115/38
f 95/116/39 99/117/39 96/118/39
f 103/34/8 101/28/8 98/119/8
f 94/118/40 100/120/40 101/117/40
f 104/105/7 100/112/7 93/121/7
f 102/122/7 104/105/7 91/123/7
f 99/32/8 103/34/8 96/124/8
f 92/118/41 104/120/41 106/117/41
f 99/32/8 106/23/8 107/33/8
f 98/118/42 105/120/42 103/117/42
f 102/122/7 105/111/7 108/60/7
f 11/13/5 6/16/5 8/14/5
f 4/16/6 12/134/6 13/17/6
f 9/33/8 1/32/8 8/23/8
f 1/32/8 13/21/8 8/23/8
f 15/13/9 2/16/9 3/14/9
f 6/16/10 16/134/10 17/17/10
f 3/28/8 9/33/8 8/23/8
f 8/23/8 17/139/8 18/27/8
f 19/13/11 4/16/11 1/14/11
f 7/16/12 20/134/12 21/17/12
f 5/34/8 21/142/8 22/143/8
f 22/143/8 1/32/8 5/34/8
f 23/13/13 7/16/13 5/14/13
f 2/16/14 24/134/14 25/17/14
f 26/39/8 5/34/8 3/28/8
f 5/34/8 9/33/8 3/28/8
f 28/10/15 30/84/15 29/40/15
f 30/10/1 32/84/1 31/40/1
f 32/10/16 34/84/16 33/40/16
f 34/42/3 36/33/3 35/32/3
f 36/42/17 38/33/17 37/32/17
f 38/44/2 40/146/2 39/45/2
f 40/44/18 42/146/18 41/45/18
f 42/44/4 28/146/4 27/45/4
f 105/111/7 97/178/7 100/112/7
f 100/113/35 97/77/35 98/114/35
f 105/113/36 95/77/36 96/114/36
f 106/23/8 94/99/8 101/28/8
f 104/113/37 93/77/37 94/114/37
f 102/113/38 91/77/38 92/114/38
f 95/116/39 102/120/39 99/117/39
f 103/34/8 107/33/8 101/28/8
f 94/118/40 93/116/40 100/120/40
f 104/105/7 108/60/7 100/112/7
f 102/122/7 108/60/7 104/105/7
f 99/32/8 107/33/8 103/34/8
f 92/118/41 91/116/41 104/120/41
f 99/32/8 92/129/8 106/23/8
f 98/118/42 97/116/42 105/120/42
f 102/122/7 95/179/7 105/111/7
usemtl ionic_volute
f 44/69/1 56/70/1 52/71/1
f 49/74/2 53/75/2 57/76/2
f 72/90/1 68/91/1 64/92/1
f 71/96/2 73/97/2 65/98/2
f 80/92/3 76/108/3 88/90/3
f 89/97/4 77/110/4 81/98/4
f 114/126/3 110/127/3 122/128/3
f 123/131/4 111/132/4 115/74/4
f 48/126/1 46/160/1 44/69/1
f 44/69/1 58/161/1 56/70/1
f 56/70/1 54/162/1 52/71/1
f 52/71/1 50/163/1 48/126/1
f 48/126/1 44/69/1 52/71/1
f 57/76/2 43/90/2 45/132/2
f 45/132/2 47/164/2 49/74/2
f 49/74/2 51/92/2 53/75/2
f 53/75/2 55/165/2 57/76/2
f 57/76/2 45/132/2 49/74/2
f 64/92/1 62/75/1 60/108/1
f 60/108/1 74/169/1 72/90/1
f 72/90/1 70/170/1 68/91/1
f 68/91/1 66/171/1 64/92/1
f 64/92/1 60/108/1 72/90/1
f 73/97/2 59/173/2 61/110/2
f 61/110/2 63/92/2 73/97/2
f 63/92/2 65/98/2 73/97/2
f 65/98/2 67/174/2 69/175/2
f 69/175/2 71/96/2 65/98/2
f 80/92/3 78/75/3 76/108/3
f 76/108/3 90/169/3 88/90/3
f 88/90/3 86/170/3 84/91/3
f 84/91/3 82/171/3 88/90/3
f 82/171/3 80/92/3 88/90/3
f 89/97/4 75/173/4 77/110/4
f 77/110/4 79/92/4 81/98/4
f 81/98/4 83/174/4 85/175/4
f 85/175/4 87/96/4 81/98/4
f 87/96/4 89/97/4 81/98/4
f 114/126/3 112/160/3 110/127/3
f 110/127/3 124/161/3 122/128/3
f 122/128/3 120/180/3 118/71/3
f 118/71/3 116/163/3 122/128/3
f 116/163/3 114/126/3 122/128/3
f 123/131/4 109/182/4 111/132/4
f 111/132/4 113/164/4 115/74/4
f 115/74/4 117/92/4 119/180/4
f 119/180/4 121/173/4 115/74/4
f 121/173/4 123/131/4 115/74/4
usemtl ionic_capital
f 14/1/1 12/2/1 11/3/1
f 24/4/2 26/5/2 25/6/2
f 18/7/3 16/8/3 15/9/3
f 22/10/4 20/11/4 19/12/4
f 4/18/7 10/19/7 6/20/7
f 2/24/7 15/25/7 16/26/7
f 19/29/7 20/30/7 7/31/7
f 7/35/7 24/36/7 2/37/7
f 34/47/7 32/48/7 40/49/7
f 39/50/8 41/51/8 33/52/8
f 44/53/19 45/54/19 43/55/19
f 46/56/20 47/57/20 45/58/20
f 47/59/21 50/60/21 49/44/21
f 50/61/22 51/62/22 49/7/22
f 52/63/23 53/64/23 51/65/23
f 53/66/24 56/67/24 55/68/24
f 56/34/25 57/7/25 55/64/25
f 58/72/26 43/73/26 57/58/26
f 60/77/19 61/78/19 59/79/19
f 61/66/20 64/67/20 63/68/20
f 63/80/21 66/81/21 65/82/21
f 66/83/22 67/44/22 65/59/22
f 68/84/23 69/85/23 67/86/23
f 69/87/24 72/88/24 71/89/24
f 72/56/25 73/93/25 71/94/25
f 73/78/26 60/40/26 59/95/26
f 76/99/27 77/100/27 75/101/27
f 77/44/28 80/102/28 79/103/28
f 80/40/29 81/104/29 79/95/29
f 82/105/30 83/66/30 81/106/30
f 83/80/31 86/81/31 85/82/31
f 86/107/32 87/89/32 85/87/32
f 88/56/33 89/93/33 87/94/33
f 89/109/34 76/33/34 75/10/34
f 110/53/27 111/54/27 109/55/27
f 112/56/28 113/57/28 111/58/28
f 114/99/29 115/100/29 113/101/29
f 116/125/30 117/68/30 115/66/30
f 118/61/31 119/62/31 117/7/31
f 119/65/32 122/34/32 121/64/32
f 122/129/33 123/130/33 121/100/33
f 124/72/34 109/73/34 123/58/34
f 14/1/1 13/133/1 12/2/1
f 24/4/2 23/43/2 26/5/2
f 18/7/3 17/85/3 16/8/3
f 22/10/4 21/64/4 20/11/4
f 6/20/7 11/135/7 12/136/7
f 12/136/7 4/18/7 6/20/7
f 16/26/7 6/137/7 2/24/7
f 6/137/7 10/138/7 2/24/7
f 10/140/7 4/141/7 7/31/7
f 4/141/7 19/29/7 7/31/7
f 2/37/7 10/144/7 7/35/7
f 7/35/7 23/145/7 24/36/7
f 32/48/7 30/147/7 28/148/7
f 28/148/7 42/149/7 32/48/7
f 42/149/7 40/49/7 32/48/7
f 40/49/7 38/150/7 36/151/7
f 36/151/7 34/47/7 40/49/7
f 41/51/8 27/152/8 33/52/8
f 27/152/8 29/153/8 33/52/8
f 29/153/8 31/154/8 33/52/8
f 33/52/8 35/155/8 37/156/8
f 37/156/8 39/50/8 33/52/8
f 44/53/19 46/157/19 45/54/19
f 46/56/20 48/158/20 47/57/20
f 47/59/21 48/83/21 50/60/21
f 50/61/22 52/159/22 51/62/22
f 52/63/23 54/34/23 53/64/23
f 53/66/24 54/125/24 56/67/24
f 56/34/25 58/61/25 57/7/25
f 58/72/26 44/158/26 43/73/26
f 60/77/19 62/166/19 61/78/19
f 61/66/20 62/125/20 64/67/20
f 63/80/21 64/167/21 66/81/21
f 66/83/22 68/60/22 67/44/22
f 68/84/23 70/168/23 69/85/23
f 69/87/24 70/107/24 72/88/24
f 72/56/25 74/172/25 73/93/25
f 73/78/26 74/166/26 60/40/26
f 76/99/27 78/129/27 77/100/27
f 77/44/28 78/60/28 80/102/28
f 80/40/29 82/176/29 81/104/29
f 82/105/30 84/125/30 83/66/30
f 83/80/31 84/167/31 86/81/31
f 86/107/32 88/88/32 87/89/32
f 88/56/33 90/172/33 89/93/33
f 89/109/34 90/177/34 76/33/34
f 110/53/27 112/157/27 111/54/27
f 112/56/28 114/158/28 113/57/28
f 114/99/29 116/129/29 115/100/29
f 116/125/30 118/67/30 117/68/30
f 118/61/31 120/159/31 119/62/31
f 119/65/32 120/63/32 122/34/32
f 122/129/33 124/181/33 123/130/33
f 124/72/34 110/158/34 109/73/34
