# Blender 5.1.2
# www.blender.org
mtllib medium_half_column.mtl
o column_medium
v 0.292892 0.000000 0.499996
v 0.292892 1.000000 0.499996
v 0.707108 0.000000 0.499996
v 0.707108 1.000000 0.499996
v 1.000004 0.000000 0.792892
v 1.000004 1.000000 0.792892
v -0.000004 0.000000 0.792892
v -0.000004 1.000000 0.792892
v 1.000004 0.000000 1.000000
v 1.000004 1.000000 1.000000
v -0.000004 0.000000 1.000000
v -0.000004 1.000000 1.000000
vn -0.0000 -0.0000 -1.0000
vn 0.7071 -0.0000 -0.7071
vn -0.0000 -0.0000 1.0000
vn -1.0000 -0.0000 -0.0000
vn -0.7071 -0.0000 -0.7071
vn -0.0000 1.0000 -0.0000
vn 1.0000 -0.0000 -0.0000
vn -0.0000 -1.0000 -0.0000
vt 0.375000 1.000000
vt 0.000000 -0.000000
vt 0.375000 -0.000000
vt 0.750000 1.000000
vt 0.375000 -0.000000
vt 0.750000 -0.000000
vt 0.999897 0.000104
vt 0.000096 0.999897
vt 0.000096 0.000104
vt 0.187500 -0.000000
vt -0.000000 1.000000
vt 0.500000 0.954028
vt 0.500000 0.045972
vt 0.045972 0.688065
vt 0.375000 1.000000
vt 0.187500 0.000000
vt 0.375000 0.000000
vt 0.500000 0.954028
vt 0.500000 0.045972
vt 0.954028 0.688065
vt 0.375000 1.000000
vt 0.999897 0.999897
vt 0.187500 1.000000
vt 0.311935 0.045972
vt 0.045972 0.311935
vt 0.311935 0.954028
vt 0.187500 1.000000
vt 0.688065 0.045972
vt 0.954028 0.311935
vt 0.688065 0.954028
s 0
usemtl column_mat_top
f 12/12/6 10/13/6 2/14/6
f 9/18/8 11/19/8 3/20/8
f 6/24/6 4/25/6 10/13/6
f 4/25/6 2/14/6 10/13/6
f 2/14/6 8/26/6 12/12/6
f 7/28/8 1/29/8 11/19/8
f 1/29/8 3/20/8 11/19/8
f 3/20/8 5/30/8 9/18/8
usemtl column_mat_side
f 2/1/1 3/2/1 1/3/1
f 4/4/2 5/5/2 3/6/2
f 9/7/3 12/8/3 11/9/3
f 11/10/4 8/11/4 7/2/4
f 8/4/5 1/5/5 7/6/5
f 6/15/7 9/16/7 5/17/7
f 2/1/1 4/11/1 3/2/1
f 4/4/2 6/21/2 5/5/2
f 9/7/3 10/22/3 12/8/3
f 11/10/4 12/23/4 8/11/4
f 8/4/5 2/21/5 1/5/5
f 6/15/7 10/27/7 9/16/7
