# Blender 5.1.0
# www.blender.org
mtllib medium_ionic_capital.mtl
o ionic_capital_medium
v -0.015627 0.922188 -0.173750
v -0.015627 0.664375 -0.173750
v 1.015623 0.922188 -0.173750
v 1.015623 0.664375 -0.173750
v -0.015627 0.922188 1.173750
v -0.015627 0.664375 1.173750
v 1.015623 0.922188 1.173750
v 1.015623 0.664375 1.173750
v -0.084381 0.532032 0.742058
v -0.084381 0.669532 0.742058
v -0.084381 0.532032 0.257942
v -0.084381 0.669532 0.257942
v 0.257940 0.532032 -0.084379
v 0.257940 0.669532 -0.084379
v 0.742056 0.532032 -0.084379
v 0.742056 0.669532 -0.084379
v 1.084377 0.532032 0.257942
v 1.084377 0.669532 0.257942
v 1.084377 0.532032 0.742058
v 1.084377 0.669532 0.742058
v 0.742056 0.532032 1.084379
v 0.742056 0.669532 1.084379
v 0.257940 0.532032 1.084379
v 0.257940 0.669532 1.084379
v 0.811101 0.839678 -0.019062
v 0.811101 0.839678 -0.190937
v 0.734929 0.655782 -0.019062
v 0.734929 0.655782 -0.190937
v 0.811101 0.471885 -0.019063
v 0.811101 0.471885 -0.190938
v 0.994998 0.395713 -0.019063
v 0.994998 0.395713 -0.190938
v 1.178894 0.471885 -0.019062
v 1.178894 0.471885 -0.190938
v 1.255066 0.655782 -0.019063
v 1.255066 0.655782 -0.190937
v 1.178894 0.839678 -0.019062
v 1.178894 0.839678 -0.190937
v 0.994998 0.915850 -0.019062
v 0.994998 0.915850 -0.190937
v 0.813334 0.841884 1.190938
v 0.811101 0.839678 1.019063
v 0.734948 0.658920 1.190938
v 0.734929 0.655782 1.019063
v 0.808895 0.474118 1.190938
v 0.811101 0.471885 1.019063
v 0.991859 0.395732 1.190938
v 0.994998 0.395713 1.019063
v 1.176661 0.469680 1.190938
v 1.178894 0.471885 1.019063
v 1.255047 0.652643 1.190938
v 1.255066 0.655782 1.019063
v 1.181100 0.837445 1.190938
v 1.178894 0.839678 1.019063
v 0.998136 0.915831 1.190938
v 0.994998 0.915850 1.019063
v -0.178552 0.840027 1.190938
v -0.178902 0.839678 1.019063
v -0.255073 0.656276 1.190938
v -0.255074 0.655782 1.019063
v -0.179251 0.472235 1.190938
v -0.178902 0.471885 1.019063
v 0.004500 0.395714 1.190938
v 0.004995 0.395713 1.019063
v 0.188541 0.471536 1.190938
v 0.188891 0.471885 1.019063
v 0.265063 0.655287 1.190938
v 0.265063 0.655782 1.019063
v 0.189240 0.839328 1.190938
v 0.188891 0.839678 1.019063
v 0.005489 0.915850 1.190938
v 0.004995 0.915850 1.019063
v -0.178902 0.839678 -0.019062
v -0.178902 0.839678 -0.190937
v -0.255074 0.655782 -0.019062
v -0.255074 0.655782 -0.190937
v -0.178902 0.471885 -0.019063
v -0.178902 0.471885 -0.190938
v 0.004995 0.395713 -0.019063
v 0.004995 0.395713 -0.190938
v 0.188891 0.471885 -0.019062
v 0.188891 0.471885 -0.190938
v 0.265063 0.655782 -0.019062
v 0.265063 0.655782 -0.190937
v 0.188891 0.839678 -0.019062
v 0.188891 0.839678 -0.190937
v 0.004995 0.915850 -0.019062
v 0.004995 0.915850 -0.190937
v -0.124843 0.785619 1.029375
v -0.124843 0.785619 -0.029375
v -0.178623 0.655782 1.029375
v -0.178623 0.655782 -0.029375
v -0.124843 0.525944 1.029375
v -0.124843 0.525944 -0.029375
v 0.004995 0.472164 1.029375
v 0.004995 0.472164 -0.029375
v 0.134832 0.525944 1.029375
v 0.134832 0.525944 -0.029375
v 0.188612 0.655782 1.029375
v 0.188612 0.655782 -0.029375
v 0.134832 0.785619 1.029375
v 0.134832 0.785619 -0.029375
v 0.004995 0.839399 1.029375
v 0.004995 0.839399 -0.029375
v 0.865156 0.785619 1.029375
v 0.865156 0.785619 -0.029375
v 0.811376 0.655782 1.029375
v 0.811376 0.655782 -0.029375
v 0.865156 0.525944 1.029375
v 0.865156 0.525944 -0.029375
v 0.994994 0.472164 1.029375
v 0.994994 0.472164 -0.029375
v 1.124831 0.525944 1.029375
v 1.124831 0.525944 -0.029375
v 1.178611 0.655782 1.029375
v 1.178611 0.655782 -0.029375
v 1.124831 0.785619 1.029375
v 1.124831 0.785619 -0.029375
v 0.994994 0.839399 1.029375
v 0.994994 0.839399 -0.029375
v -0.058596 1.001250 -0.187500
v -0.058596 0.915313 -0.187500
v 1.058592 1.001250 -0.187500
v 1.058592 0.915313 -0.187500
v -0.058596 1.001250 1.187500
v -0.058596 0.915313 1.187500
v 1.058592 1.001250 1.187500
v 1.058592 0.915313 1.187500
vn -0.0000 1.0000 -0.0000
vn 1.0000 -0.0000 -0.0000
vn -0.0000 -0.0000 1.0000
vn -0.0000 -1.0000 -0.0000
vn -0.0000 -0.0000 -1.0000
vn -1.0000 -0.0000 -0.0000
vn -0.7071 -0.0000 -0.7071
vn 0.7071 -0.0000 -0.7071
vn 0.7071 -0.0000 0.7071
vn -0.7071 -0.0000 0.7071
vn -0.9239 0.3827 -0.0000
vn -0.9239 -0.3827 -0.0000
vn -0.3827 -0.9239 -0.0000
vn 0.3827 -0.9239 -0.0000
vn 0.9239 -0.3827 -0.0000
vn 0.9239 0.3827 -0.0000
vn 0.3827 0.9239 -0.0000
vn -0.3827 0.9239 -0.0000
vn -0.9192 0.3938 0.0069
vn -0.9284 -0.3715 0.0069
vn -0.3938 -0.9192 0.0069
vn 0.3715 -0.9284 0.0069
vn 0.9192 -0.3938 0.0069
vn 0.9284 0.3715 0.0069
vn 0.3938 0.9192 0.0069
vn -0.3715 0.9284 0.0069
vn -0.9231 0.3844 0.0011
vn -0.9246 -0.3809 0.0011
vn -0.3844 -0.9231 0.0011
vn 0.3809 -0.9246 0.0011
vn 0.9231 -0.3844 0.0011
vn 0.9246 0.3809 0.0011
vn 0.3844 0.9231 0.0011
vn -0.3809 0.9246 0.0011
vn -0.9239 0.3827 -0.0069
vn -0.9239 -0.3827 -0.0069
vn -0.3827 -0.9239 -0.0069
vn 0.3827 -0.9239 -0.0069
vn 0.9239 -0.3827 -0.0069
vn 0.9239 0.3827 -0.0069
vn 0.3827 0.9239 -0.0069
vn -0.3827 0.9239 -0.0069
vn -0.9239 0.3827 -0.0011
vn -0.9239 -0.3827 -0.0011
vn -0.3827 -0.9239 -0.0011
vn 0.3827 -0.9239 -0.0011
vn 0.9239 -0.3827 -0.0011
vn 0.9239 0.3827 -0.0011
vn 0.3827 0.9239 -0.0011
vn -0.3827 0.9239 -0.0011
vt 0.875000 0.500000
vt 0.625000 0.750000
vt 0.625000 0.500000
vt 1.000000 0.375000
vt 0.000000 0.125000
vt 1.000000 0.125000
vt 1.000000 1.000000
vt -0.000000 0.750000
vt 1.000000 0.750000
vt 0.375000 0.500000
vt 0.125000 0.750000
vt 0.125000 0.500000
vt 1.004651 0.627608
vt 0.504651 0.502608
vt 1.004651 0.502608
vt 0.500000 0.625000
vt 0.000000 0.500000
vt 0.500000 0.500000
vt 0.754651 0.627608
vt 0.254651 0.502608
vt 0.754651 0.502608
vt 0.292935 0.999900
vt 0.000100 0.292935
vt 0.707065 0.000100
vt 0.562500 0.437500
vt 0.375000 0.625000
vt 0.375000 0.437500
vt 0.312500 0.187500
vt 0.125000 0.375000
vt 0.125000 0.187500
vt 0.812500 0.437500
vt 0.625000 0.625000
vt 0.625000 0.437500
vt 0.625000 0.187500
vt 0.812500 0.375000
vt 0.625000 0.375000
vt 0.750000 0.062500
vt 0.937500 0.250000
vt 0.750000 0.250000
vt 0.000000 0.687500
vt 0.187500 0.875000
vt 0.000000 0.875000
vt 0.721893 0.280001
vt 0.719999 0.721894
vt 0.278106 0.719999
vt 0.937500 0.687500
vt 0.750000 0.875000
vt 0.750000 0.687500
vt 0.624239 0.200060
vt 0.799940 0.375761
vt 0.799940 0.624239
vt 0.000064 0.000064
vt 0.414228 0.999936
vt 0.000064 0.999936
vt 0.414228 0.999936
vt 0.000064 0.000064
vt 0.414228 0.000064
vt 0.000064 0.000064
vt 0.414228 0.000064
vt 0.414228 0.999936
vt 0.000064 0.000064
vt 0.414228 0.000064
vt 0.375761 0.799940
vt 0.200060 0.375761
vt 0.312500 0.062500
vt 0.125000 0.250000
vt 0.125000 0.062500
vt 0.414228 0.999936
vt 0.000064 0.000064
vt 0.489194 0.812281
vt 0.812281 0.510806
vt 0.510806 0.187719
vt 0.937500 0.062500
vt 0.562500 0.062500
vt 0.375000 0.250000
vt 0.375000 0.062500
vt 0.812500 0.187500
vt 0.187500 0.437500
vt 0.000000 0.625000
vt 0.000000 0.437500
vt 0.187500 0.687500
vt 0.502374 0.812459
vt 0.187541 0.502374
vt 0.497626 0.187541
vt 0.562500 0.187500
vt 0.375000 0.375000
vt 0.375000 0.187500
vt 0.937500 0.562500
vt 0.750000 0.750000
vt 0.750000 0.562500
vt 0.625000 0.687500
vt 0.812500 0.875000
vt 0.625000 0.875000
vt 0.562500 0.625000
vt 0.719669 0.722221
vt 0.722221 0.280331
vt 0.280331 0.277779
vt 1.000000 0.437500
vt 0.000000 0.562500
vt 1.000000 0.687500
vt 0.000000 0.812500
vt 1.000000 0.062500
vt 0.000000 0.187500
vt 0.000000 0.062500
vt 1.000000 0.937500
vt 0.000000 0.937500
vt 0.414228 0.999936
vt 0.000064 0.000064
vt 0.414228 0.000064
vt 0.414228 0.000064
vt 1.000000 0.187500
vt 0.000000 0.312500
vt 1.000000 0.812500
vt 0.000090 0.000090
vt 0.812444 0.999910
vt 0.000090 0.999910
vt 1.000000 0.312500
vt 0.000000 0.250000
vt 1.000000 0.250000
vt 0.875000 0.750000
vt 0.000000 0.375000
vt -0.000000 1.000000
vt 0.375000 0.750000
vt 0.504651 0.627608
vt 0.254651 0.627608
vt 0.999900 0.292935
vt 0.999900 0.707065
vt 0.707065 0.999900
vt 0.000100 0.707065
vt 0.292935 0.000100
vt 0.312500 0.375000
vt 0.812500 0.625000
vt 0.812340 0.508958
vt 0.491042 0.812340
vt 0.187660 0.491042
vt 0.280001 0.278106
vt 0.508958 0.187660
vt 0.937500 0.875000
vt 0.624239 0.799940
vt 0.200060 0.624239
vt 0.375761 0.200060
vt 0.414228 0.000064
vt 0.000064 0.999936
vt 0.000064 0.999936
vt 0.000064 0.999936
vt 0.312500 0.250000
vt 0.718682 0.723191
vt 0.723191 0.281318
vt 0.281318 0.276809
vt 0.187719 0.489194
vt 0.276809 0.718682
vt 0.562500 0.250000
vt 0.187500 0.625000
vt 0.275373 0.717208
vt 0.282792 0.275373
vt 0.724626 0.282792
vt 0.812459 0.497626
vt 0.717208 0.724626
vt 0.562500 0.375000
vt 0.937500 0.750000
vt 0.812500 0.687500
vt 0.187586 0.505815
vt 0.277779 0.719669
vt 0.505815 0.812414
vt 0.812414 0.494185
vt 0.494185 0.187586
vt 1.000000 0.562500
vt 0.000065 0.999936
vt 0.000064 0.999936
vt 0.812444 0.000090
s 0
usemtl all
f 5/1/1 3/2/1 1/3/1
f 3/4/2 8/5/2 4/6/2
f 2/10/4 8/11/4 6/12/4
f 5/7/6 2/8/6 6/9/6
f 15/22/4 19/23/4 23/24/4
f 26/25/11 27/26/11 25/27/11
f 28/28/12 29/29/12 27/30/12
f 30/31/13 31/32/13 29/33/13
f 31/34/14 34/35/14 33/36/14
f 33/37/15 36/38/15 35/39/15
f 35/40/16 38/41/16 37/42/16
f 38/46/17 39/47/17 37/48/17
f 40/25/18 25/26/18 39/27/18
f 35/49/3 37/50/3 39/51/3
f 42/52/19 43/53/19 41/54/19
f 44/55/20 45/56/20 43/57/20
f 46/55/21 47/58/21 45/59/21
f 48/60/22 49/61/22 47/62/22
f 50/46/23 51/47/23 49/48/23
f 52/25/24 53/26/24 51/27/24
f 46/51/5 42/63/5 54/64/5
f 54/65/25 55/66/25 53/67/25
f 56/68/26 41/69/26 55/57/26
f 58/73/27 59/39/27 57/37/27
f 60/74/28 61/75/28 59/76/28
f 62/46/29 63/47/29 61/48/29
f 64/77/30 65/36/30 63/34/30
f 66/78/31 67/79/31 65/80/31
f 68/25/32 69/26/32 67/27/32
f 64/50/5 62/51/5 70/64/5
f 70/25/33 71/26/33 69/27/33
f 72/81/34 57/42/34 71/40/34
f 74/85/11 75/86/11 73/87/11
f 76/88/12 77/89/12 75/90/12
f 78/28/13 79/29/13 77/30/13
f 79/91/14 82/92/14 81/93/14
f 82/77/15 83/36/15 81/34/15
f 83/27/16 86/94/16 85/26/16
f 86/25/17 87/26/17 85/27/17
f 88/25/18 73/26/18 87/27/18
f 87/51/3 75/63/3 79/64/3
f 90/98/11 91/99/11 89/80/11
f 92/100/12 93/101/12 91/40/12
f 94/102/13 95/103/13 93/104/13
f 95/101/14 98/105/14 97/106/14
f 98/98/15 99/99/15 97/80/15
f 100/107/16 101/108/16 99/109/16
f 102/55/17 103/58/17 101/110/17
f 104/111/18 89/112/18 103/103/18
f 106/52/11 107/53/11 105/54/11
f 108/98/12 109/99/12 107/80/12
f 110/111/13 111/112/13 109/103/13
f 112/113/14 113/106/14 111/101/14
f 114/113/15 115/106/15 113/101/15
f 116/102/16 117/103/16 115/104/16
f 118/100/17 119/101/17 117/40/17
f 120/68/18 105/69/18 119/57/18
f 125/114/1 123/115/1 121/116/1
f 122/10/4 128/11/4 126/12/4
f 5/1/1 7/120/1 3/2/1
f 3/4/2 7/121/2 8/5/2
f 2/10/4 4/123/4 8/11/4
f 5/7/6 1/122/6 2/8/6
f 23/24/4 9/126/4 11/127/4
f 11/127/4 13/128/4 15/22/4
f 15/22/4 17/129/4 19/23/4
f 19/23/4 21/130/4 23/24/4
f 23/24/4 11/127/4 15/22/4
f 26/25/11 28/94/11 27/26/11
f 28/28/12 30/131/12 29/29/12
f 30/31/13 32/132/13 31/32/13
f 31/34/14 32/77/14 34/35/14
f 33/37/15 34/73/15 36/38/15
f 35/40/16 36/81/16 38/41/16
f 38/46/17 40/138/17 39/47/17
f 40/25/18 26/94/18 25/26/18
f 39/51/3 25/139/3 27/63/3
f 27/63/3 29/140/3 39/51/3
f 29/140/3 31/64/3 39/51/3
f 31/64/3 33/141/3 39/51/3
f 33/141/3 35/49/3 39/51/3
f 42/52/35 44/142/35 43/53/35
f 44/55/36 46/143/36 45/56/36
f 46/55/37 48/144/37 47/58/37
f 48/60/38 50/145/38 49/61/38
f 50/46/39 52/138/39 51/47/39
f 52/25/40 54/94/40 53/26/40
f 46/51/5 44/139/5 42/63/5
f 42/63/5 56/140/5 54/64/5
f 54/64/5 52/141/5 46/51/5
f 52/141/5 50/49/5 46/51/5
f 50/49/5 48/50/5 46/51/5
f 54/65/41 56/146/41 55/66/41
f 56/68/42 42/143/42 41/69/42
f 58/73/43 60/38/43 59/39/43
f 60/74/44 62/152/44 61/75/44
f 62/46/45 64/138/45 63/47/45
f 64/77/46 66/35/46 65/36/46
f 66/78/47 68/153/47 67/79/47
f 68/25/48 70/94/48 69/26/48
f 62/51/5 60/139/5 58/63/5
f 58/63/5 72/140/5 62/51/5
f 72/140/5 70/64/5 62/51/5
f 70/64/5 68/141/5 66/49/5
f 66/49/5 64/50/5 70/64/5
f 70/25/49 72/94/49 71/26/49
f 72/81/50 58/41/50 57/42/50
f 74/85/11 76/159/11 75/86/11
f 76/88/12 78/160/12 77/89/12
f 78/28/13 80/131/13 79/29/13
f 79/91/14 80/161/14 82/92/14
f 82/77/15 84/35/15 83/36/15
f 83/27/16 84/25/16 86/94/16
f 86/25/17 88/94/17 87/26/17
f 88/25/18 74/94/18 73/26/18
f 87/51/3 73/139/3 75/63/3
f 75/63/3 77/140/3 79/64/3
f 79/64/3 81/141/3 87/51/3
f 81/141/3 83/49/3 87/51/3
f 83/49/3 85/50/3 87/51/3
f 90/98/11 92/167/11 91/99/11
f 92/100/12 94/113/12 93/101/12
f 94/102/13 96/111/13 95/103/13
f 95/101/14 96/113/14 98/105/14
f 98/98/15 100/167/15 99/99/15
f 100/107/16 102/168/16 101/108/16
f 102/55/17 104/169/17 103/58/17
f 104/111/18 90/117/18 89/112/18
f 106/52/11 108/142/11 107/53/11
f 108/98/12 110/167/12 109/99/12
f 110/111/13 112/117/13 111/112/13
f 112/113/14 114/105/14 113/106/14
f 114/113/15 116/105/15 115/106/15
f 116/102/16 118/111/16 117/103/16
f 118/100/17 120/113/17 119/101/17
f 120/68/18 106/143/18 105/69/18
f 125/114/1 127/170/1 123/115/1
f 122/10/4 124/123/4 128/11/4
usemtl volute
f 30/43/5 26/44/5 38/45/5
f 55/70/3 43/71/3 47/72/3
f 71/82/3 59/83/3 63/84/3
f 86/95/5 82/96/5 78/97/5
f 30/43/5 28/133/5 26/44/5
f 26/44/5 40/134/5 38/45/5
f 38/45/5 36/135/5 34/136/5
f 34/136/5 32/137/5 38/45/5
f 32/137/5 30/43/5 38/45/5
f 55/70/3 41/147/3 43/71/3
f 43/71/3 45/148/3 47/72/3
f 47/72/3 49/149/3 51/150/3
f 51/150/3 53/151/3 47/72/3
f 53/151/3 55/70/3 47/72/3
f 71/82/3 57/154/3 59/83/3
f 59/83/3 61/155/3 63/84/3
f 63/84/3 65/156/3 71/82/3
f 65/156/3 67/157/3 71/82/3
f 67/157/3 69/158/3 71/82/3
f 78/97/5 76/162/5 74/163/5
f 74/163/5 88/164/5 78/97/5
f 88/164/5 86/95/5 78/97/5
f 86/95/5 84/165/5 82/96/5
f 82/96/5 80/166/5 78/97/5
usemtl egg
f 7/7/3 6/8/3 8/9/3
f 1/7/5 4/8/5 2/9/5
f 12/13/7 13/14/7 11/15/7
f 14/16/5 15/17/5 13/18/5
f 16/19/8 17/20/8 15/21/8
f 20/16/9 21/17/9 19/18/9
f 22/16/3 23/17/3 21/18/3
f 24/16/10 9/17/10 23/18/10
f 123/117/2 128/118/2 124/119/2
f 127/6/3 126/104/3 128/102/3
f 121/6/5 124/104/5 122/102/5
f 125/119/6 122/103/6 126/111/6
f 7/7/3 5/122/3 6/8/3
f 1/7/5 3/122/5 4/8/5
f 12/13/7 14/124/7 13/14/7
f 14/16/5 16/79/5 15/17/5
f 16/19/8 18/125/8 17/20/8
f 20/16/9 22/79/9 21/17/9
f 22/16/3 24/79/3 23/17/3
f 24/16/10 10/79/10 9/17/10
f 123/117/2 127/112/2 128/118/2
f 127/6/3 125/5/3 126/104/3
f 121/6/5 123/5/5 124/104/5
f 125/119/6 121/118/6 122/103/6
