# Blender 5.1.1
# www.blender.org
mtllib medium_roman_ionic_base.mtl
o small_roman_ionic_base
v 0.243804 0.412501 -0.118512
v 0.243804 0.550001 -0.118512
v 0.756196 0.412501 -0.118512
v 0.756196 0.550001 -0.118512
v 1.118511 0.412501 0.243803
v 1.118511 0.550001 0.243803
v 1.118511 0.412501 0.756194
v 1.118511 0.550001 0.756194
v 0.756196 0.412501 1.118509
v 0.756196 0.550001 1.118509
v 0.243804 0.412501 1.118509
v 0.243804 0.550001 1.118509
v -0.118511 0.412501 0.756194
v -0.118511 0.550001 0.756194
v -0.118511 0.412501 0.243803
v -0.118511 0.550001 0.243803
v 0.272181 0.275000 -0.050006
v 0.272181 0.412500 -0.050006
v 0.727819 0.275000 -0.050006
v 0.727819 0.412500 -0.050006
v 1.050004 0.275000 0.272179
v 1.050004 0.412500 0.272179
v 1.050004 0.275000 0.727817
v 1.050004 0.412500 0.727817
v 0.727819 0.275000 1.050002
v 0.727819 0.412500 1.050002
v 0.272181 0.275000 1.050002
v 0.272181 0.412500 1.050002
v -0.050004 0.275000 0.727817
v -0.050004 0.412500 0.727817
v -0.050004 0.275000 0.272179
v -0.050004 0.412500 0.272179
v 0.317746 0.137501 0.059998
v 0.317746 0.275001 0.059998
v 0.682254 0.137501 0.059998
v 0.682254 0.275001 0.059998
v 0.940000 0.137501 0.317744
v 0.940000 0.275001 0.317744
v 0.940000 0.137501 0.682252
v 0.940000 0.275001 0.682252
v 0.682254 0.137501 0.939998
v 0.682254 0.275001 0.939998
v 0.317746 0.137501 0.939998
v 0.317746 0.275001 0.939998
v 0.060000 0.137501 0.682252
v 0.060000 0.275001 0.682252
v 0.060000 0.137501 0.317744
v 0.060000 0.275001 0.317744
v 0.981250 0.137500 0.018748
v 0.981250 0.000000 0.018748
v 0.981250 0.137500 0.981248
v 0.981250 0.000000 0.981248
v 0.018750 0.137500 0.018748
v 0.018750 0.000000 0.018748
v 0.018750 0.137500 0.981248
v 0.018750 0.000000 0.981248
v 0.756196 0.550001 0.756194
v 0.243804 0.550001 0.243803
v 0.243804 0.550001 0.756194
v 0.756196 0.550001 0.243803
v 0.018750 0.000000 0.499998
v 0.981250 0.137500 0.499998
v 0.018750 0.137500 0.499998
v 0.981250 0.000000 0.499998
v 0.500000 0.000000 0.018748
v 0.500000 0.137500 0.981248
v 0.500000 0.000000 0.981248
v 0.500000 0.137500 0.018748
v 0.500000 0.000000 0.499998
v 0.500000 0.137500 0.499998
vn -0.0000 -0.0000 -1.0000
vn 0.7071 -0.0000 -0.7071
vn 1.0000 -0.0000 -0.0000
vn 0.7071 -0.0000 0.7071
vn -0.0000 -0.0000 1.0000
vn -0.7071 -0.0000 0.7071
vn -0.0000 1.0000 -0.0000
vn -1.0000 -0.0000 -0.0000
vn -0.7071 -0.0000 -0.7071
vn -0.0000 -1.0000 -0.0000
vt 0.083094 0.673915
vt 0.221710 0.165655
vt 0.221710 0.673915
vt 0.724813 0.673915
vt 0.863430 0.165655
vt 0.863430 0.673915
vt 0.403954 0.780869
vt 0.542570 0.272609
vt 0.542570 0.780869
vt 0.190047 0.673915
vt 0.328663 0.165655
vt 0.328663 0.673915
vt 0.297000 0.887821
vt 0.435617 0.379562
vt 0.435617 0.887821
vt 0.510907 0.673914
vt 0.649523 0.165655
vt 0.649523 0.673914
vt 0.559488 0.921802
vt 0.559488 0.559488
vt 0.921802 0.559488
vt 0.296593 0.991069
vt 0.008931 0.296592
vt 0.703408 0.008931
vt 0.454483 0.583074
vt 0.598994 0.149543
vt 0.598994 0.583074
vt 0.598994 0.149543
vt 0.454483 0.690027
vt 0.598994 0.256496
vt 0.598994 0.690027
vt 0.775343 0.796980
vt 0.919853 0.363450
vt 0.919853 0.796980
vt 0.133623 0.796980
vt 0.278134 0.363450
vt 0.278134 0.796980
vt 0.454483 0.690027
vt 0.598994 0.256496
vt 0.598994 0.690027
vt 0.727818 -0.050001
vt 1.050002 0.727818
vt 0.272182 1.050002
vt 0.561436 0.583074
vt 0.705947 0.149543
vt 0.705947 0.583074
vt 0.668390 0.903934
vt 0.812900 0.470403
vt 0.812900 0.903934
vt 0.704570 0.006124
vt 0.993876 0.704570
vt 0.295430 0.993876
vt 0.083517 0.489819
vt 0.225107 0.135844
vt 0.225107 0.489819
vt 0.725236 0.596772
vt 0.866826 0.242798
vt 0.866826 0.596772
vt 0.190470 0.917633
vt 0.332060 0.563657
vt 0.332060 0.917633
vt 0.720842 0.804678
vt 0.867401 0.462706
vt 0.867401 0.804678
vt 0.186075 0.697725
vt 0.332635 0.355752
vt 0.332635 0.697725
vt 0.079122 0.483818
vt 0.225682 0.141845
vt 0.225682 0.483818
vt 0.317747 0.060002
vt 0.682253 0.060002
vt 0.317747 0.939998
vt 0.832190 0.382866
vt 0.973780 0.028891
vt 0.973780 0.382866
vt 0.511330 0.810679
vt 0.652920 0.456704
vt 0.652920 0.810679
vt 0.317747 0.939998
vt 0.060002 0.317747
vt 0.018752 0.500000
vt 0.500000 0.018752
vt 0.500000 0.500000
vt 0.756550 0.562500
vt 0.885169 0.048025
vt 0.885169 0.562500
vt 0.542644 0.562500
vt 0.671263 0.048025
vt 0.671263 0.562500
vt 0.500000 0.981248
vt 0.018752 0.500000
vt 0.649597 0.562500
vt 0.778216 0.048025
vt 0.778216 0.562500
vt 0.114831 0.562500
vt 0.243450 0.048024
vt 0.243450 0.562500
vt 0.560401 0.242508
vt 0.920889 0.757492
vt 0.560401 0.757492
vt 0.921802 0.440512
vt 0.559488 0.440512
vt 0.559488 0.078198
vt 0.757492 0.439599
vt 0.242508 0.079111
vt 0.757492 0.079111
vt 0.440512 0.078198
vt 0.440512 0.440512
vt 0.078198 0.440512
vt 0.079111 0.242508
vt 0.439599 0.757492
vt 0.079111 0.757492
vt 0.078198 0.559488
vt 0.440512 0.559488
vt 0.440512 0.921802
vt 0.757492 0.920889
vt 0.242509 0.560401
vt 0.757492 0.560401
vt 0.243806 0.756194
vt 0.756194 0.243806
vt 0.756194 0.756194
vt 0.649597 0.951975
vt 0.778216 0.437500
vt 0.778216 0.951975
vt 0.981248 0.981248
vt 0.981248 0.500000
vt 0.542644 0.951975
vt 0.671263 0.437500
vt 0.671263 0.951975
vt 0.018752 0.981248
vt 0.981248 0.500000
vt 0.981248 0.018752
vt 0.114831 0.951976
vt 0.243450 0.437500
vt 0.243450 0.951976
vt 0.018752 0.018752
vt 0.756550 0.951975
vt 0.885169 0.437500
vt 0.885169 0.951975
vt 0.981248 0.018752
vt 0.083094 0.165655
vt 0.724813 0.165655
vt 0.403954 0.272609
vt 0.190047 0.165655
vt 0.297000 0.379562
vt 0.510907 0.165655
vt 0.991069 0.296592
vt 0.991069 0.703407
vt 0.703408 0.991069
vt 0.008931 0.703407
vt 0.296593 0.008931
vt 0.454483 0.149543
vt 0.454483 0.149543
vt 0.454483 0.256496
vt 0.775343 0.363450
vt 0.133623 0.363450
vt 0.454483 0.256496
vt 1.050001 0.272182
vt 0.727818 1.050002
vt -0.050001 0.727818
vt -0.050001 0.272182
vt 0.272182 -0.050001
vt 0.561436 0.149543
vt 0.668390 0.470403
vt 0.006124 0.295430
vt 0.295430 0.006124
vt 0.993876 0.295430
vt 0.704570 0.993876
vt 0.006124 0.704570
vt 0.083517 0.135844
vt 0.725236 0.242798
vt 0.190470 0.563657
vt 0.720842 0.462706
vt 0.186075 0.355752
vt 0.079122 0.141845
vt 0.939998 0.317747
vt 0.939998 0.682253
vt 0.682253 0.939998
vt 0.060002 0.682253
vt 0.060002 0.317747
vt 0.832190 0.028891
vt 0.511330 0.456704
vt 0.939998 0.317747
vt 0.939998 0.682253
vt 0.682253 0.939998
vt 0.060002 0.682253
vt 0.317747 0.060002
vt 0.018752 0.018752
vt 0.756550 0.048025
vt 0.542644 0.048025
vt 0.649597 0.048025
vt 0.114831 0.048024
vt 0.920889 0.242508
vt 0.242508 0.439599
vt 0.439599 0.242508
vt 0.242509 0.920889
vt 0.243806 0.243806
vt 0.649597 0.437500
vt 0.542644 0.437500
vt 0.114831 0.437500
vt 0.756550 0.437500
s 0
usemtl ionic_base
f 2/1/1 3/2/1 1/3/1
f 4/4/2 5/5/2 3/6/2
f 6/7/3 7/8/3 5/9/3
f 8/10/4 9/11/4 7/12/4
f 10/13/5 11/14/5 9/15/5
f 12/16/6 13/17/6 11/18/6
f 4/19/7 60/20/7 6/21/7
f 14/1/8 15/2/8 13/3/8
f 16/4/9 1/5/9 15/6/9
f 7/22/10 11/23/10 15/24/10
f 18/25/1 19/26/1 17/27/1
f 20/25/2 21/28/2 19/27/2
f 22/29/3 23/30/3 21/31/3
f 24/32/4 25/33/4 23/34/4
f 26/35/5 27/36/5 25/37/5
f 28/38/6 29/39/6 27/40/6
f 22/41/7 18/42/7 30/43/7
f 30/44/8 31/45/8 29/46/8
f 32/47/9 17/48/9 31/49/9
f 19/50/10 23/51/10 27/52/10
f 34/53/1 35/54/1 33/55/1
f 36/56/2 37/57/2 35/58/2
f 38/59/3 39/60/3 37/61/3
f 40/62/4 41/63/4 39/64/4
f 42/65/5 43/66/5 41/67/5
f 44/68/6 45/69/6 43/70/6
f 40/71/7 38/72/7 46/73/7
f 46/74/8 47/75/8 45/76/8
f 48/77/9 33/78/9 47/79/9
f 39/80/10 43/81/10 47/72/10
f 63/82/7 66/83/7 70/84/7
f 66/85/5 56/86/5 67/87/5
f 63/88/8 54/89/8 61/90/8
f 64/91/10 67/92/10 69/84/10
f 62/93/3 52/94/3 64/95/3
f 68/96/1 50/97/1 65/98/1
f 6/99/7 57/100/7 8/101/7
f 8/102/7 57/103/7 10/104/7
f 57/105/7 12/106/7 10/107/7
f 12/108/7 59/109/7 14/110/7
f 14/111/7 58/112/7 16/113/7
f 16/114/7 58/115/7 2/116/7
f 58/117/7 4/118/7 2/119/7
f 58/120/7 57/121/7 60/122/7
f 49/123/3 64/124/3 50/125/3
f 50/126/10 69/84/10 65/127/10
f 55/128/8 61/129/8 56/130/8
f 53/131/7 70/84/7 68/91/7
f 68/91/7 62/132/7 49/126/7
f 65/127/10 61/83/10 54/133/10
f 53/134/1 65/135/1 54/136/1
f 69/84/10 56/137/10 61/83/10
f 51/138/5 67/139/5 52/140/5
f 70/84/7 51/141/7 62/132/7
f 2/1/1 4/142/1 3/2/1
f 4/4/2 6/143/2 5/5/2
f 6/7/3 8/144/3 7/8/3
f 8/10/4 10/145/4 9/11/4
f 10/13/5 12/146/5 11/14/5
f 12/16/6 14/147/6 13/17/6
f 14/1/8 16/142/8 15/2/8
f 16/4/9 2/143/9 1/5/9
f 15/24/10 1/148/10 3/149/10
f 3/149/10 5/150/10 7/22/10
f 7/22/10 9/151/10 11/23/10
f 11/23/10 13/152/10 15/24/10
f 15/24/10 3/149/10 7/22/10
f 18/25/1 20/153/1 19/26/1
f 20/25/2 22/154/2 21/28/2
f 22/29/3 24/155/3 23/30/3
f 24/32/4 26/156/4 25/33/4
f 26/35/5 28/157/5 27/36/5
f 28/38/6 30/158/6 29/39/6
f 22/41/7 20/159/7 18/42/7
f 18/42/7 32/160/7 30/43/7
f 30/43/7 28/161/7 22/41/7
f 28/161/7 26/162/7 22/41/7
f 26/162/7 24/163/7 22/41/7
f 30/44/8 32/164/8 31/45/8
f 32/47/9 18/165/9 17/48/9
f 31/166/10 17/167/10 19/50/10
f 19/50/10 21/168/10 23/51/10
f 23/51/10 25/169/10 27/52/10
f 27/52/10 29/170/10 31/166/10
f 31/166/10 19/50/10 27/52/10
f 34/53/1 36/171/1 35/54/1
f 36/56/2 38/172/2 37/57/2
f 38/59/3 40/173/3 39/60/3
f 40/62/4 42/174/4 41/63/4
f 42/65/5 44/175/5 43/66/5
f 44/68/6 46/176/6 45/69/6
f 38/72/7 36/177/7 34/178/7
f 34/178/7 48/179/7 38/72/7
f 48/179/7 46/73/7 38/72/7
f 46/73/7 44/180/7 42/181/7
f 42/181/7 40/71/7 46/73/7
f 46/74/8 48/182/8 47/75/8
f 48/77/9 34/183/9 33/78/9
f 47/72/10 33/184/10 35/185/10
f 35/185/10 37/186/10 47/72/10
f 37/186/10 39/80/10 47/72/10
f 39/80/10 41/187/10 43/81/10
f 43/81/10 45/188/10 47/72/10
f 63/82/7 55/189/7 66/83/7
f 66/85/5 55/190/5 56/86/5
f 63/88/8 53/191/8 54/89/8
f 64/91/10 52/131/10 67/92/10
f 62/93/3 51/192/3 52/94/3
f 68/96/1 49/193/1 50/97/1
f 6/99/7 60/194/7 57/100/7
f 57/105/7 59/195/7 12/106/7
f 14/111/7 59/196/7 58/112/7
f 58/117/7 60/197/7 4/118/7
f 58/120/7 59/198/7 57/121/7
f 49/123/3 62/199/3 64/124/3
f 50/126/10 64/91/10 69/84/10
f 55/128/8 63/200/8 61/129/8
f 53/131/7 63/82/7 70/84/7
f 68/91/7 70/84/7 62/132/7
f 65/127/10 69/84/10 61/83/10
f 53/134/1 68/201/1 65/135/1
f 69/84/10 67/92/10 56/137/10
f 51/138/5 66/202/5 67/139/5
f 70/84/7 66/83/7 51/141/7
