# Blender 5.1.2
# www.blender.org
mtllib medium_roman_doric_half_base.mtl
o Cube.296
v 0.174844 0.325673 0.215000
v 0.174844 0.504119 0.215000
v 0.825156 0.325673 0.215000
v 0.825156 0.504119 0.215000
v 1.284996 0.325673 0.674840
v 1.284996 0.504119 0.674840
v -0.284996 0.325673 0.674840
v -0.284996 0.504119 0.674840
v 0.732830 0.739657 0.437896
v 0.267170 0.739657 0.437896
v 1.062101 0.739657 0.767167
v -0.062101 0.739657 0.767167
v -0.284991 0.325673 0.215000
v 1.284991 0.325673 0.215000
v -0.284991 -0.000005 0.215000
v 1.284991 -0.000005 0.215000
v 1.284991 0.325673 0.999997
v -0.284991 0.325673 0.999997
v 1.284991 -0.000005 0.999997
v -0.284991 -0.000005 0.999997
v 0.500000 0.325673 0.215000
v 0.500000 -0.000005 0.215000
v 0.500000 -0.000005 0.999997
v 0.500000 0.325673 0.999997
v -0.284996 0.325673 0.999997
v -0.284996 0.504119 0.999997
v -0.062101 0.739657 0.999997
v 1.284996 0.325673 0.999997
v 1.284996 0.504119 0.999997
v 1.062101 0.739657 0.999997
v 0.500000 0.325673 0.215000
v 0.500000 0.504119 0.215000
v 0.500000 0.739657 0.437896
v 0.500000 0.739657 0.999997
vn -0.0000 -0.0000 -1.0000
vn 0.7071 -0.0000 -0.7071
vn -0.0000 -0.0000 1.0000
vn -1.0000 -0.0000 -0.0000
vn -0.7071 -0.0000 -0.7071
vn 1.0000 -0.0000 -0.0000
vn -0.0000 1.0000 -0.0000
vn -0.5136 0.6873 -0.5136
vn -0.0000 0.6873 -0.7263
vn 0.7263 0.6873 -0.0000
vn 0.5136 0.6873 -0.5136
vn -0.0000 -1.0000 -0.0000
vn -0.7263 0.6873 -0.0000
vn 0.0042 -0.0000 1.0000
vn 0.0041 -0.0000 1.0000
vt 0.380580 0.659109
vt 0.659656 0.818581
vt 0.380581 0.818581
vt 0.374079 0.460320
vt 0.932231 0.619791
vt 0.374079 0.619791
vt 0.625052 0.500000
vt 0.625051 0.999835
vt 0.888652 0.857913
vt 0.062546 0.500000
vt 0.269967 0.500000
vt 0.062546 0.999954
vt 0.664445 0.832290
vt 0.943521 0.991762
vt 0.664446 0.991762
vt 0.200898 0.062743
vt 0.759050 0.222215
vt 0.200898 0.222215
vt 0.250059 0.564738
vt 0.973304 0.835922
vt 0.250059 0.835868
vt 0.500000 0.500000
vt 0.007714 0.500000
vt 0.007714 0.296088
vt 0.807677 0.436374
vt 0.309745 0.715105
vt 0.227467 0.436374
vt 0.403859 0.595236
vt 0.611685 0.873968
vt 0.403859 0.873968
vt 0.463328 0.580917
vt 0.671154 0.859649
vt 0.463328 0.859649
vt 0.153679 0.484554
vt 0.651611 0.763287
vt 0.235958 0.763286
vt 0.749995 0.750000
vt 0.062503 0.062503
vt 0.749995 0.062503
vt 0.937492 0.062503
vt 0.250000 0.750000
vt 0.250000 0.062503
vt 0.026873 0.969145
vt 0.750000 0.697973
vt 0.750000 0.969145
vt 0.089314 0.612973
vt 0.812559 0.884049
vt 0.089314 0.883996
vt 0.187500 0.531645
vt 0.910627 0.260473
vt 0.910627 0.531645
vt 0.750000 0.062503
vt 0.062508 0.750000
vt 0.062507 0.062503
vt 0.937487 0.750000
vt 0.249995 0.062503
vt 0.937487 0.062503
vt 0.355678 0.643418
vt 0.147852 0.922150
vt 0.065573 0.643418
vt 0.115823 0.077061
vt 0.394900 0.236533
vt 0.115823 0.236533
vt 0.196033 0.873967
vt 0.113754 0.595235
vt 0.101505 0.659109
vt 0.101505 0.818581
vt 0.703912 0.007714
vt 0.992286 0.296088
vt 0.659656 0.659109
vt 0.932231 0.460320
vt 0.625051 0.999949
vt 0.738675 0.999839
vt 0.888652 0.500000
vt 0.888653 0.142088
vt 0.738676 0.000161
vt 0.625052 0.000165
vt 0.625051 0.000051
vt 0.062546 0.000046
vt 0.269967 0.000046
vt 0.269967 0.999954
vt 0.943521 0.832290
vt 0.759050 0.062743
vt 0.973304 0.564685
vt 0.296088 0.007714
vt 0.500000 0.007714
vt 0.725398 0.715106
vt 0.693964 0.595236
vt 0.753433 0.580917
vt 0.733890 0.484555
vt 0.062503 0.750000
vt 0.937492 0.750000
vt 0.026873 0.697973
vt 0.812559 0.612919
vt 0.187500 0.260473
vt 0.750000 0.750000
vt 0.249995 0.750000
vt 0.355678 0.922150
vt 0.394899 0.077061
vt 0.992286 0.500000
s 0
usemtl roman_doric_base
f 32/1/1 3/2/1 31/3/1
f 4/4/2 5/5/2 3/6/2
f 24/7/3 17/8/3 30/9/3
f 23/10/3 24/11/3 20/12/3
f 26/13/4 7/14/4 25/15/4
f 8/16/5 1/17/5 7/18/5
f 19/19/6 14/20/6 17/21/6
f 34/22/7 30/23/7 11/24/7
f 8/25/8 10/26/8 2/27/8
f 32/28/9 10/29/9 33/30/9
f 29/31/10 11/32/10 30/33/10
f 6/34/11 9/35/11 11/36/11
f 24/37/7 14/38/7 21/39/7
f 16/40/12 23/41/12 22/42/12
f 14/43/1 22/44/1 21/45/1
f 15/46/4 18/47/4 13/48/4
f 21/49/1 15/50/1 13/51/1
f 22/52/12 20/53/12 15/54/12
f 18/55/7 21/56/7 13/57/7
f 26/58/13 12/59/13 8/60/13
f 6/61/6 28/62/6 5/63/6
f 32/28/9 9/64/9 4/65/9
f 2/66/1 31/3/1 1/67/1
f 34/22/7 10/68/7 12/69/7
f 32/1/1 4/70/1 3/2/1
f 4/4/2 6/71/2 5/5/2
f 17/8/14 28/72/14 29/73/14
f 29/73/3 30/9/3 17/8/3
f 30/9/3 34/74/3 24/7/3
f 34/74/3 27/75/3 24/7/3
f 27/75/3 26/76/3 18/77/3
f 24/7/3 27/75/3 18/77/3
f 26/76/15 25/78/15 18/77/15
f 23/10/3 19/79/3 17/80/3
f 24/11/3 18/81/3 20/12/3
f 23/10/3 17/80/3 24/11/3
f 26/13/4 8/82/4 7/14/4
f 8/16/5 2/83/5 1/17/5
f 19/19/6 16/84/6 14/20/6
f 11/24/7 9/85/7 34/22/7
f 9/85/7 33/86/7 34/22/7
f 8/25/8 12/87/8 10/26/8
f 32/28/9 2/88/9 10/29/9
f 29/31/10 6/89/10 11/32/10
f 6/34/11 4/90/11 9/35/11
f 24/37/7 17/91/7 14/38/7
f 16/40/12 19/92/12 23/41/12
f 14/43/1 16/93/1 22/44/1
f 15/46/4 20/94/4 18/47/4
f 21/49/1 22/95/1 15/50/1
f 22/52/12 23/96/12 20/53/12
f 18/55/7 24/97/7 21/56/7
f 26/58/13 27/98/13 12/59/13
f 6/61/6 29/99/6 28/62/6
f 32/28/9 33/30/9 9/64/9
f 2/66/1 32/1/1 31/3/1
f 12/69/7 27/100/7 34/22/7
f 34/22/7 33/86/7 10/68/7
