# Blender 5.1.2
# www.blender.org
mtllib medium_ionic_half_base.mtl
o ionic_base_medium
v 0.243705 0.412516 0.381250
v 0.243705 0.550016 0.381250
v 0.756295 0.412516 0.381250
v 0.756295 0.550016 0.381250
v 1.118750 0.550016 0.743705
v -0.118750 0.550016 0.743705
v 0.215226 0.000016 0.312495
v 0.215226 0.137516 0.312495
v 0.784774 0.000016 0.312495
v 0.784774 0.137516 0.312495
v 1.187505 0.000016 0.715226
v 1.187505 0.137516 0.715226
v -0.187505 0.000016 0.715226
v -0.187505 0.137516 0.715226
v 0.243705 0.275016 0.381250
v 0.756295 0.275016 0.381250
v 1.118750 0.275016 0.743705
v 1.118750 0.412516 0.743705
v -0.118750 0.275016 0.743705
v -0.118750 0.412516 0.743705
v 0.272183 0.137516 0.450000
v 0.272183 0.275015 0.450000
v 0.727817 0.137516 0.450000
v 0.727817 0.275015 0.450000
v 1.050000 0.137516 0.772183
v 1.050000 0.275015 0.772183
v -0.050000 0.137516 0.772183
v -0.050000 0.275015 0.772183
v 0.243706 0.550016 0.743705
v 0.756295 0.550016 0.743705
v 0.784774 0.137516 0.715226
v 0.215226 0.137516 0.715226
v 1.118750 0.550016 1.000000
v -0.118750 0.550016 1.000000
v 1.187505 0.000016 1.000000
v 1.187505 0.137516 1.000000
v -0.187505 0.000016 1.000000
v -0.187505 0.137516 1.000000
v 1.118750 0.275016 1.000000
v -0.118750 0.275016 1.000000
v 1.050000 0.137516 1.000000
v 1.050000 0.275015 1.000000
v -0.050000 0.137516 1.000000
v -0.050000 0.275015 1.000000
v 0.243706 0.550016 1.000000
v 0.756295 0.550016 1.000000
v 0.784774 0.137516 1.000000
v 0.215226 0.137516 1.000000
v 1.118750 0.412516 1.000000
v -0.118750 0.412516 1.000000
vn -0.0000 -0.0000 -1.0000
vn 0.7071 -0.0000 -0.7071
vn -0.0000 -0.0000 1.0000
vn -0.0000 1.0000 -0.0000
vn -1.0000 -0.0000 -0.0000
vn -0.7071 -0.0000 -0.7071
vn 1.0000 -0.0000 -0.0000
vn -0.0000 -1.0000 -0.0000
vt 0.000000 0.750000
vt 0.500000 0.875000
vt 0.000000 0.875000
vt 0.625035 0.999965
vt 0.750026 0.000035
vt 0.750027 0.999965
vt 0.111148 0.000047
vt 0.222248 0.999953
vt 0.111148 0.999953
vt 0.062500 0.562500
vt 0.062500 0.187500
vt 0.437500 0.187500
vt 0.500000 0.375000
vt 0.750000 0.500000
vt 0.500000 0.500000
vt 0.000000 0.250000
vt 0.000000 0.375000
vt 0.062500 0.875000
vt 0.625000 1.000000
vt 0.062500 1.000000
vt 0.062500 0.000000
vt 0.625000 0.125000
vt 0.062500 0.125000
vt 0.343750 0.500000
vt 0.625000 0.625000
vt 0.343750 0.625000
vt 0.437500 0.625000
vt 1.000000 0.750000
vt 0.437500 0.750000
vt 0.125000 0.125000
vt 0.625000 0.250000
vt 0.125000 0.250000
vt 0.500000 0.250000
vt 1.000000 0.375000
vt 1.000000 0.625000
vt 0.750000 0.625000
vt 0.500000 0.750000
vt 1.000000 0.875000
vt 0.500000 0.125000
vt 0.500000 0.000000
vt 0.312500 0.500000
vt 0.281250 0.625000
vt 0.062500 0.500000
vt 0.281250 0.500000
vt 0.750000 0.750000
vt 0.312500 0.625000
vt 0.750000 0.875000
vt 0.562500 0.937500
vt 0.562500 0.562500
vt 0.937500 0.562500
vt -0.000000 0.125000
vt 0.500000 0.562500
vt 1.000000 0.718750
vt 0.437500 0.500000
vt 0.437500 0.718750
vt 0.718750 0.500000
vt 1.000000 0.937500
vt 0.718750 0.937500
vt 0.312500 0.937500
vt 0.750000 0.937500
vt 0.062500 0.437500
vt 0.625000 -0.000000
vt 0.625000 0.437500
vt 0.750000 0.250000
vt 0.781250 0.250000
vt 1.000000 0.250000
vt 0.500000 0.999900
vt 0.500000 0.000100
vt 0.999900 0.707065
vt 0.750000 0.375000
vt 0.500000 0.999900
vt 0.500000 0.000100
vt 0.062500 0.250000
vt 0.343750 0.375000
vt 0.062500 0.375000
vt 0.500000 0.000100
vt 0.999900 0.707065
vt 0.875032 0.999968
vt 0.975025 0.000032
vt 0.975025 0.999968
vt 0.250000 0.625000
vt 0.250000 0.750000
vt 0.750000 0.000000
vt 1.000000 0.000000
vt 0.625035 0.000035
vt 0.000047 0.999953
vt 0.000047 0.000047
vt 0.222248 0.000047
vt 0.625000 0.875000
vt 0.625000 0.500000
vt 1.000000 0.500000
vt 0.062500 0.625000
vt 0.312500 0.750000
vt 0.000000 0.500000
vt 0.781250 0.375000
vt 0.707065 0.000100
vt 0.999900 0.292935
vt 0.707065 0.999900
vt 0.343750 0.250000
vt 0.707065 0.000100
vt 0.999900 0.292935
vt 0.707065 0.999900
vt 0.875032 0.000032
vt 0.500000 0.625000
s 0
usemtl ionic_base_medium
f 2/1/1 3/2/1 1/3/1
f 4/1/2 18/2/2 3/3/2
f 43/4/3 42/5/3 44/6/3
f 50/7/3 39/8/3 49/9/3
f 4/10/4 30/11/4 5/12/4
f 34/13/5 20/14/5 50/15/5
f 6/16/6 1/13/6 20/17/6
f 8/18/1 9/19/1 7/20/1
f 10/21/2 11/22/2 9/23/2
f 38/24/5 13/25/5 37/26/5
f 14/27/6 7/28/6 13/29/6
f 1/30/1 16/31/1 15/32/1
f 3/33/2 17/34/2 16/13/2
f 50/14/5 19/35/5 40/36/5
f 20/37/6 15/38/6 19/2/6
f 22/39/1 23/21/1 21/40/1
f 24/36/2 25/41/2 23/14/2
f 44/42/5 27/43/5 43/44/5
f 28/45/6 21/46/6 27/36/6
f 45/47/4 6/15/4 34/14/4
f 6/48/4 29/49/4 2/50/4
f 29/15/4 4/51/4 2/39/4
f 10/23/4 31/10/4 12/52/4
f 36/53/4 31/54/4 47/55/4
f 48/56/4 14/57/4 38/58/4
f 14/41/4 32/59/4 8/60/4
f 8/61/4 31/62/4 10/63/4
f 29/45/4 46/33/4 30/64/4
f 26/34/7 41/65/7 25/66/7
f 41/67/8 43/68/8 23/69/8
f 18/33/7 39/70/7 17/13/7
f 39/71/8 40/72/8 16/69/8
f 12/73/7 35/74/7 11/75/7
f 35/67/8 37/76/8 9/77/8
f 37/78/3 36/79/3 38/80/3
f 5/81/7 49/37/7 18/82/7
f 30/34/4 33/83/4 5/84/4
f 2/1/1 4/37/1 3/2/1
f 4/1/2 5/37/2 18/2/2
f 43/4/3 41/85/3 42/5/3
f 33/86/3 34/87/3 50/7/3
f 50/7/3 40/88/3 39/8/3
f 49/9/3 33/86/3 50/7/3
f 34/13/5 6/70/5 20/14/5
f 6/16/6 2/33/6 1/13/6
f 8/18/1 10/89/1 9/19/1
f 10/21/2 12/62/2 11/22/2
f 38/24/5 14/90/5 13/25/5
f 14/27/6 8/35/6 7/28/6
f 1/30/1 3/22/1 16/31/1
f 3/33/2 18/66/2 17/34/2
f 50/14/5 20/91/5 19/35/5
f 20/37/6 1/28/6 15/38/6
f 22/39/1 24/23/1 23/21/1
f 24/36/2 26/46/2 25/41/2
f 44/42/5 28/92/5 27/43/5
f 28/45/6 22/93/6 21/46/6
f 45/47/4 29/2/4 6/15/4
f 29/15/4 30/94/4 4/51/4
f 36/53/4 12/91/4 31/54/4
f 48/56/4 32/91/4 14/57/4
f 8/61/4 32/21/4 31/62/4
f 29/45/4 45/37/4 46/33/4
f 26/34/7 42/95/7 41/65/7
f 27/96/8 21/97/8 43/68/8
f 21/97/8 23/69/8 43/68/8
f 23/69/8 25/98/8 41/67/8
f 18/33/7 49/64/7 39/70/7
f 19/96/8 15/97/8 40/72/8
f 15/97/8 16/69/8 40/72/8
f 16/69/8 17/98/8 39/71/8
f 12/73/7 36/99/7 35/74/7
f 13/100/8 7/101/8 37/76/8
f 7/101/8 9/77/8 37/76/8
f 9/77/8 11/102/8 35/67/8
f 37/78/3 35/103/3 36/79/3
f 5/81/7 33/104/7 49/37/7
f 30/34/4 46/70/4 33/83/4
