# Blender 5.1.1
# www.blender.org
mtllib medium_column_both.mtl
o column_medium
v 0.292892 0.000000 -0.000004
v 0.292892 1.000000 -0.000004
v 0.707108 0.000000 -0.000004
v 0.707108 1.000000 -0.000004
v 1.000004 0.000000 0.292892
v 1.000004 1.000000 0.292892
v 1.000004 0.000000 0.707108
v 1.000004 1.000000 0.707108
v 0.707108 0.000000 1.000004
v 0.707108 1.000000 1.000004
v 0.292892 0.000000 1.000004
v 0.292892 1.000000 1.000004
v -0.000004 0.000000 0.707108
v -0.000004 1.000000 0.707108
v -0.000004 0.000000 0.292892
v -0.000004 1.000000 0.292892
v 0.707108 1.750000 -0.000004
v 0.292892 1.750000 -0.000004
v 1.000004 1.750000 0.292892
v 1.000004 1.750000 0.707108
v 0.707108 1.750000 1.000004
v 0.292892 1.750000 1.000004
v -0.000004 1.750000 0.707108
v -0.000004 1.750000 0.292892
v 0.292892 -0.650000 -0.000004
v 0.707108 -0.650000 -0.000004
v 1.000004 -0.650000 0.292892
v 1.000004 -0.650000 0.707108
v 0.707108 -0.650000 1.000004
v 0.292892 -0.650000 1.000004
v -0.000004 -0.650000 0.707108
v -0.000004 -0.650000 0.292892
vn -0.0000 -0.0000 -1.0000
vn 0.7071 -0.0000 -0.7071
vn 1.0000 -0.0000 -0.0000
vn 0.7071 -0.0000 0.7071
vn -0.0000 -0.0000 1.0000
vn -0.7071 -0.0000 0.7071
vn -1.0000 -0.0000 -0.0000
vn -0.7071 -0.0000 -0.7071
vn -0.0000 1.0000 -0.0000
vn -0.0000 -1.0000 -0.0000
vt 0.375000 -0.000000
vt 0.375000 1.000000
vt -0.000000 1.000000
vt 0.000000 -0.000000
vt 0.750000 -0.000000
vt 0.750000 1.000000
vt 0.375000 1.000000
vt 0.375000 -0.000000
vt 0.375000 0.000000
vt 0.375000 1.000000
vt 0.000000 1.000000
vt 0.000000 0.000000
vt 0.000074 0.000074
vt 0.375000 0.750000
vt 0.000074 0.749926
vt 0.375000 0.000074
vt 0.000074 0.000000
vt 0.000074 0.625000
vt 0.375000 0.624926
vt 0.688065 0.954028
vt 0.954028 0.311935
vt 0.311935 0.045972
vt 0.375074 0.000074
vt 0.750000 0.000000
vt 0.750000 0.750000
vt 0.375074 0.749926
vt 0.311935 0.954028
vt 0.045972 0.311935
vt 0.688065 0.045972
vt 0.750000 0.000074
vt 0.375074 0.000000
vt 0.375074 0.625000
vt 0.750000 0.624926
vt 0.045972 0.311935
vt 0.045972 0.688065
vt 0.311935 0.954028
vt 0.954028 0.688065
vt 0.688065 0.045972
vt 0.954028 0.311935
vt 0.954028 0.688065
vt 0.688065 0.954028
vt 0.045972 0.688065
vt 0.311935 0.045972
s 0
usemtl column_mat_top
f 23/20/9 21/21/9 19/22/9
f 28/27/10 30/28/10 32/29/10
f 19/22/9 17/34/9 18/35/9
f 18/35/9 24/36/9 23/20/9
f 23/20/9 22/37/9 21/21/9
f 21/21/9 20/38/9 19/22/9
f 19/22/9 18/35/9 23/20/9
f 32/29/10 25/39/10 26/40/10
f 26/40/10 27/41/10 28/27/10
f 28/27/10 29/42/10 30/28/10
f 30/28/10 31/43/10 32/29/10
f 32/29/10 26/40/10 28/27/10
usemtl column_mat_side
f 1/1/1 2/2/1 4/3/1 3/4/1
f 3/5/2 4/6/2 6/7/2 5/8/2
f 5/9/3 6/10/3 8/11/3 7/12/3
f 7/5/4 8/6/4 10/7/4 9/8/4
f 9/9/5 10/10/5 12/11/5 11/12/5
f 11/5/6 12/6/6 14/7/6 13/8/6
f 8/13/3 6/9/3 19/14/3 20/15/3
f 13/1/7 14/2/7 16/3/7 15/4/7
f 15/5/8 16/6/8 2/7/8 1/8/8
f 3/16/2 5/17/2 27/18/2 26/19/2
f 14/23/6 12/24/6 22/25/6 23/26/6
f 10/23/4 8/24/4 20/25/4 21/26/4
f 16/13/7 14/9/7 23/14/7 24/15/7
f 6/23/2 4/24/2 17/25/2 19/26/2
f 12/13/5 10/9/5 21/14/5 22/15/5
f 2/23/8 16/24/8 24/25/8 18/26/8
f 4/13/1 2/9/1 18/14/1 17/15/1
f 9/30/5 11/31/5 30/32/5 29/33/5
f 15/16/8 1/17/8 25/18/8 32/19/8
f 1/30/1 3/31/1 26/32/1 25/33/1
f 5/30/3 7/31/3 28/32/3 27/33/3
f 11/16/6 13/17/6 31/18/6 30/19/6
f 7/16/4 9/17/4 29/18/4 28/19/4
f 13/30/7 15/31/7 32/32/7 31/33/7
