# Blender 5.1.2
# www.blender.org
mtllib medium_tuscan_capital.mtl
o Cube.292
v 1.150428 1.001000 -0.150430
v 1.150428 0.863499 -0.150430
v 1.150428 1.001000 1.150430
v 1.150428 0.863499 1.150430
v -0.150431 1.001000 -0.150430
v -0.150431 0.863499 -0.150430
v -0.150431 1.001000 1.150430
v -0.150431 0.863499 1.150430
v 0.257148 0.451000 -0.086291
v 0.257148 0.547630 -0.086291
v 0.742849 0.451000 -0.086291
v 0.742849 0.547630 -0.086291
v 1.086292 0.451000 0.257152
v 1.086292 0.547630 0.257152
v 1.086292 0.451000 0.742852
v 1.086292 0.547630 0.742852
v 0.742849 0.451000 1.086296
v 0.742849 0.547630 1.086296
v 0.257148 0.451000 1.086296
v 0.257148 0.547630 1.086296
v -0.086295 0.451000 0.742852
v -0.086295 0.547630 0.742852
v -0.086295 0.451000 0.257152
v -0.086295 0.547630 0.257152
v 0.709778 0.547630 -0.006450
v 0.290219 0.547630 -0.006450
v 1.006451 0.547630 0.290224
v 1.006451 0.547630 0.709781
v 0.709778 0.547630 1.006455
v 0.290219 0.547630 1.006455
v -0.006453 0.547630 0.709781
v -0.006453 0.547630 0.290224
v 0.709778 0.767630 -0.006450
v 0.290219 0.767630 -0.006450
v 1.006451 0.767630 0.290224
v 1.006451 0.767630 0.709781
v 0.709778 0.767630 1.006455
v 0.290219 0.767630 1.006455
v -0.006453 0.767630 0.709781
v -0.006453 0.767630 0.290224
v 0.733748 0.767630 -0.064320
v 0.266249 0.767630 -0.064320
v 1.064320 0.767630 0.266253
v 1.064320 0.767630 0.733752
v 0.733748 0.767630 1.064324
v 0.266249 0.767630 1.064324
v -0.064323 0.767630 0.733752
v -0.064323 0.767630 0.266253
v 0.769415 0.808881 -0.150426
v 0.230582 0.808881 -0.150426
v 1.150427 0.808881 0.230587
v 1.150427 0.808881 0.769420
v 0.769415 0.808881 1.150430
v 0.230582 0.808881 1.150430
v -0.150430 0.808881 0.769420
v -0.150430 0.808881 0.230587
v -0.150431 0.863628 0.230587
v -0.150431 0.863628 0.769420
v 0.768173 0.863628 -0.150428
v 0.230582 0.863691 -0.150426
v 1.150428 0.863628 0.230587
v 1.150428 0.863594 0.768487
v 0.769415 0.863628 1.150430
v 0.231514 0.863594 1.150430
v 0.499999 1.001000 1.150430
v 0.499999 1.001000 -0.150430
v 0.499999 0.451000 1.086296
v 0.499999 0.547630 1.086296
v 0.499999 0.547630 1.006455
v 0.499999 0.767630 1.006455
v 0.499999 0.767630 1.064324
v 0.499999 0.808881 1.150430
v 0.500464 0.863611 1.150430
v 1.150428 1.001000 0.500000
v -0.150431 1.001000 0.500000
v 0.499999 1.001000 0.500000
v 1.086292 0.451000 0.500002
v 1.086292 0.547630 0.500002
v 1.006451 0.547630 0.500002
v 1.006451 0.767630 0.500002
v 1.064320 0.767630 0.500002
v 1.150427 0.808881 0.500003
v 1.150428 0.863611 0.499537
v -0.086295 0.451000 0.500002
v -0.086295 0.547630 0.500002
v -0.006453 0.547630 0.500002
v -0.006453 0.767630 0.500002
v -0.064323 0.767630 0.500002
v -0.150430 0.808881 0.500003
v -0.150431 0.863628 0.500003
v 0.499999 0.451000 -0.086291
v 0.499999 0.547630 -0.086291
v 0.499999 0.547630 -0.006450
v 0.499999 0.767630 -0.006450
v 0.499999 0.767630 -0.064320
v 0.499999 0.808881 -0.150426
v 0.499378 0.863659 -0.150427
vn -0.0000 1.0000 -0.0000
vn -0.0000 -0.0000 1.0000
vn -1.0000 -0.0000 -0.0000
vn 1.0000 -0.0000 -0.0000
vn 0.0005 -1.0000 0.0003
vn -0.0000 -0.0000 -1.0000
vn 0.7071 -0.0000 -0.7071
vn 0.7071 -0.0000 0.7071
vn -0.7071 -0.0000 0.7071
vn -0.7071 -0.0000 -0.7071
vn -0.0000 -1.0000 -0.0000
vn -0.4320 -0.9019 -0.0000
vn -0.0000 -0.9018 0.4321
vn 0.4320 -0.9019 -0.0000
vn -0.0000 -0.9018 -0.4321
vn -0.3055 -0.9018 -0.3055
vn -0.3055 -0.9019 0.3055
vn 0.3055 -0.9018 0.3055
vn 0.3055 -0.9018 -0.3055
vn 0.0002 -1.0000 -0.0003
vn -0.0003 -1.0000 -0.0002
vn -0.0003 -1.0000 0.0003
vn -0.3055 -0.9018 0.3055
vn 0.3055 -0.9019 0.3055
vn -0.7062 0.0120 0.7079
vn 0.7079 0.0120 0.7062
vn 0.7059 0.0160 -0.7082
vt 0.062500 0.562500
vt 0.562500 0.062500
vt 0.562500 0.562500
vt 0.499649 0.456483
vt 0.706027 0.546555
vt 0.499291 0.546544
vt 0.499649 0.018983
vt 0.706027 0.109055
vt 0.499291 0.109044
vt 0.499649 0.768983
vt 0.706027 0.859055
vt 0.499291 0.859044
vt 0.559484 0.059496
vt 0.940506 0.059491
vt 0.940506 0.440509
vt 0.501111 0.541075
vt 0.256701 0.462025
vt 0.501111 0.462025
vt 0.464351 0.916075
vt -0.024469 0.837025
vt 0.464351 0.837025
vt 0.813611 0.916075
vt 0.569201 0.837025
vt 0.813611 0.837025
vt 0.464351 0.666075
vt -0.024469 0.587025
vt 0.464351 0.587025
vt 0.751111 0.166075
vt 0.506701 0.087025
vt 0.751111 0.087025
vt 0.901851 0.853575
vt 0.413031 0.774525
vt 0.901851 0.774525
vt 0.626084 0.493616
vt 0.685070 0.908972
vt 0.626084 0.941276
vt 0.313611 0.228575
vt 0.069201 0.149525
vt 0.313611 0.149525
vt 0.839351 0.103575
vt 0.350531 0.024525
vt 0.839351 0.024525
vt 0.982734 0.500000
vt 0.500000 0.982735
vt 0.017265 0.500000
vt 0.396699 0.424481
vt 0.218750 0.638019
vt 0.218750 0.424481
vt 0.563584 0.301152
vt 0.622570 0.109627
vt 0.622570 0.301152
vt 0.563586 0.301145
vt 0.622568 0.109632
vt 0.622568 0.301145
vt 0.685070 0.525920
vt 0.376086 0.493630
vt 0.435068 0.908960
vt 0.376086 0.941262
vt 0.688586 0.238645
vt 0.747568 0.047132
vt 0.747568 0.238645
vt 0.813586 1.003762
vt 0.872568 0.588432
vt 0.872568 0.971460
vt 0.063584 0.488652
vt 0.122570 0.297127
vt 0.122570 0.488652
vt 0.860254 0.906129
vt 0.825601 0.578042
vt 0.860254 0.592395
vt 0.385849 0.049481
vt 0.207901 0.263019
vt 0.207901 0.049481
vt 0.698349 0.174481
vt 0.520401 0.388019
vt 0.520401 0.174481
vt 0.771699 0.361981
vt 0.415801 0.575519
vt 0.415801 0.361981
vt 0.709199 0.174481
vt 0.353301 0.388019
vt 0.353301 0.174481
vt 0.959199 0.736981
vt 0.603301 0.950519
vt 0.603301 0.736981
vt 0.603301 0.950519
vt 0.885849 0.049481
vt 0.707901 0.263019
vt 0.707901 0.049481
vt 0.869286 0.121641
vt 0.942077 0.338512
vt 0.869286 0.338512
vt 0.547754 0.656129
vt 0.513101 0.499262
vt 0.547754 0.499262
vt 0.985254 0.968629
vt 0.950601 0.811762
vt 0.985254 0.811762
vt 0.422754 0.406129
vt 0.388101 0.249262
vt 0.422754 0.249262
vt 0.360254 0.843629
vt 0.325601 0.686762
vt 0.360254 0.686762
vt 0.735254 0.154895
vt 0.700601 0.482982
vt 0.700601 0.140542
vt 0.172754 0.593629
vt 0.138101 0.265542
vt 0.172754 0.279895
vt 0.110254 0.092395
vt 0.075601 0.420482
vt 0.075601 0.078042
vt 0.423215 0.867391
vt 0.687650 0.821501
vt 0.688108 0.867391
vt 0.244286 0.059141
vt 0.317077 0.276012
vt 0.244286 0.276012
vt 0.306786 0.496641
vt 0.379577 0.713512
vt 0.306786 0.713512
vt 0.056786 0.309141
vt 0.129577 0.526012
vt 0.056786 0.526012
vt 0.681786 0.533129
vt 0.754577 0.999962
vt 0.681786 0.966871
vt 0.056786 0.470629
vt 0.129577 0.937462
vt 0.056786 0.904371
vt 0.869286 0.966871
vt 0.942077 0.500038
vt 0.942077 0.999962
vt 0.431786 0.466871
vt 0.504577 0.000038
vt 0.504577 0.499962
vt 0.521977 0.054877
vt 0.786253 0.009015
vt 0.786711 0.054877
vt 0.396977 0.554877
vt 0.661253 0.509015
vt 0.661711 0.554877
vt 0.173306 0.242383
vt 0.437650 0.196509
vt 0.438108 0.242383
vt 0.578070 0.867397
vt 0.048146 0.821481
vt 0.577152 0.821510
vt 0.048175 0.367394
vt 0.577124 0.321512
vt 0.578041 0.367394
vt 0.360692 0.867393
vt 0.889607 0.821514
vt 0.890524 0.867393
vt 0.048101 0.554901
vt 0.577198 0.509006
vt 0.578115 0.554901
vt 0.293761 0.544941
vt 0.000885 0.454933
vt 0.500855 0.454933
vt 0.058270 0.059025
vt 0.439285 0.059025
vt 0.058270 0.440975
vt 0.938892 0.941130
vt 0.557870 0.941130
vt 0.938889 0.558870
vt 0.057251 0.940511
vt 0.057251 0.559489
vt 0.439511 0.940508
vt 0.437500 0.562500
vt 0.937500 0.062500
vt 0.937500 0.562500
vt 0.714567 0.054875
vt 0.978385 0.009028
vt 0.979301 0.054875
vt 0.244286 0.440859
vt 0.317077 0.223988
vt 0.317077 0.473950
vt 0.985254 0.654895
vt 0.950601 0.640542
vt 0.063586 0.446246
vt 0.122568 0.637760
vt 0.063586 0.670062
vt 0.040801 0.638019
vt 0.040801 0.424481
vt 0.933181 0.166075
vt 0.688771 0.087025
vt 0.933181 0.087025
vt 0.437500 0.937500
vt 0.937500 0.437500
vt 0.937500 0.937500
vt 0.062500 0.937500
vt 0.562500 0.437500
vt 0.562500 0.937500
vt 0.589567 0.554875
vt 0.853385 0.509028
vt 0.854301 0.554875
vt 0.306786 0.878359
vt 0.379577 0.661488
vt 0.379577 0.911450
vt 0.422754 0.092395
vt 0.388101 0.078042
vt 0.229599 0.049481
vt 0.051651 0.263019
vt 0.051651 0.049481
vt 0.563586 0.258746
vt 0.622568 0.450260
vt 0.563586 0.482562
vt 0.995681 0.916075
vt 0.751271 0.837025
vt 0.995681 0.837025
vt 0.952084 0.821516
vt 0.953001 0.867391
vt 0.547754 0.342395
vt 0.513101 0.328042
vt 0.869286 0.503359
vt 0.942077 0.286488
vt 0.942077 0.536450
vt 0.729599 0.049481
vt 0.551651 0.263019
vt 0.551651 0.049481
vt 0.688586 0.196246
vt 0.747568 0.387760
vt 0.688586 0.420062
vt 0.495681 0.228575
vt 0.251271 0.149525
vt 0.495681 0.149525
vt 0.701994 0.196524
vt 0.702910 0.242383
vt 0.056786 0.690859
vt 0.129577 0.473988
vt 0.129577 0.723950
vt 0.360254 0.529895
vt 0.325601 0.515542
vt 0.542099 0.174481
vt 0.364151 0.388019
vt 0.364151 0.174481
vt 0.563584 0.258739
vt 0.622570 0.450265
vt 0.563584 0.482569
vt 0.683181 0.541075
vt 0.438771 0.462025
vt 0.683181 0.462025
vt 0.062500 0.062500
vt 0.292555 0.546533
vt -0.000321 0.546617
vt -0.000321 0.456483
vt 0.999619 0.456483
vt 0.999619 0.546617
vt 0.292555 0.109033
vt -0.000321 0.109117
vt -0.000321 0.018983
vt 0.999619 0.018983
vt 0.999619 0.109117
vt 0.292555 0.859033
vt -0.000321 0.859117
vt -0.000321 0.768983
vt 0.999619 0.768983
vt 0.999619 0.859117
vt 0.256701 0.541075
vt -0.024469 0.916075
vt 0.569201 0.916075
vt -0.024469 0.666075
vt 0.506701 0.166075
vt 0.413031 0.853575
vt 0.069201 0.228575
vt 0.350531 0.103575
vt 0.017265 0.300046
vt 0.300045 0.017265
vt 0.500000 0.017265
vt 0.699955 0.017265
vt 0.982734 0.300046
vt 0.982734 0.699955
vt 0.699955 0.982735
vt 0.300045 0.982735
vt 0.017265 0.699955
vt 0.396699 0.638019
vt 0.563584 0.077322
vt 0.563586 0.077329
vt 0.435068 0.525932
vt 0.688586 0.014829
vt 0.813586 0.556130
vt 0.063584 0.264822
vt 0.825601 0.920482
vt 0.385849 0.263019
vt 0.698349 0.388019
vt 0.771699 0.575519
vt 0.709199 0.388019
vt 0.959199 0.950519
vt 0.959199 0.950519
vt 0.885849 0.263019
vt 0.942077 0.088550
vt 0.513101 0.670482
vt 0.950601 0.982982
vt 0.388101 0.420482
vt 0.325601 0.857982
vt 0.735254 0.468629
vt 0.138101 0.607982
vt 0.110254 0.406129
vt 0.423215 0.821487
vt 0.317077 0.026050
vt 0.379577 0.463550
vt 0.129577 0.276050
vt 0.754577 0.500038
vt 0.129577 0.437538
vt 0.869286 0.533129
vt 0.431786 0.033129
vt 0.521977 0.009001
vt 0.396977 0.509001
vt 0.173306 0.196495
vt 0.048146 0.867397
vt 0.048175 0.321484
vt 0.360692 0.821485
vt 0.048101 0.508977
vt 1.000825 0.454933
vt 1.000824 0.545067
vt 0.706994 0.544983
vt 0.500377 0.544962
vt 0.000885 0.545067
vt 0.437500 0.062500
vt 0.714109 0.009013
vt 0.244286 0.223988
vt 0.122568 0.446246
vt 0.688771 0.166075
vt 0.437500 0.437500
vt 0.062500 0.437500
vt 0.589109 0.509013
vt 0.306786 0.661488
vt 0.229599 0.263019
vt 0.622568 0.258746
vt 0.751271 0.916075
vt 0.869286 0.286488
vt 0.729599 0.263019
vt 0.747568 0.196246
vt 0.251271 0.228575
vt 0.056786 0.473988
vt 0.542099 0.388019
vt 0.622570 0.258739
vt 0.438771 0.541075
s 0
usemtl ionic_capital
f 75/1/1 65/2/1 76/3/1
f 65/4/2 64/5/2 73/6/2
f 75/7/3 57/8/3 90/9/3
f 74/10/4 62/11/4 83/12/4
f 57/13/5 6/14/5 60/15/5
f 92/16/6 11/17/6 91/18/6
f 12/19/7 13/20/7 11/21/7
f 78/22/4 15/23/4 77/24/4
f 16/25/8 17/26/8 15/27/8
f 68/28/2 19/29/2 67/30/2
f 20/31/9 21/32/9 19/33/9
f 24/34/1 26/35/1 10/36/1
f 85/37/3 23/38/3 84/39/3
f 24/40/10 9/41/10 23/42/10
f 77/43/11 67/44/11 84/45/11
f 29/46/2 70/47/2 69/48/2
f 92/49/1 26/50/1 93/51/1
f 78/52/1 27/53/1 79/54/1
f 22/36/1 30/55/1 31/35/1
f 16/56/1 29/57/1 18/58/1
f 85/59/1 31/60/1 86/61/1
f 14/62/1 25/63/1 27/64/1
f 68/65/1 29/66/1 69/67/1
f 33/68/11 43/69/11 35/70/11
f 27/71/4 80/72/4 79/73/4
f 26/74/6 94/75/6 93/76/6
f 32/77/10 34/78/10 26/79/10
f 30/80/9 39/81/9 31/82/9
f 28/83/8 37/84/8 29/85/8
f 25/83/7 35/86/7 27/85/7
f 31/87/3 87/88/3 86/89/3
f 47/90/12 89/91/12 88/92/12
f 39/93/11 88/94/11 87/95/11
f 37/96/11 71/97/11 70/98/11
f 35/99/11 81/100/11 80/101/11
f 34/102/11 95/103/11 94/104/11
f 34/105/11 48/106/11 42/107/11
f 38/108/11 47/109/11 39/110/11
f 37/111/11 44/112/11 45/113/11
f 55/114/3 90/115/3 89/116/3
f 45/117/13 72/118/13 71/119/13
f 43/120/14 82/121/14 81/122/14
f 42/123/15 96/124/15 95/125/15
f 48/126/16 50/127/16 42/128/16
f 46/129/17 55/130/17 47/131/17
f 45/132/18 52/133/18 53/134/18
f 43/135/19 49/136/19 51/137/19
f 53/138/2 73/139/2 72/140/2
f 51/141/4 83/142/4 82/143/4
f 50/144/6 97/145/6 96/146/6
f 50/147/10 57/148/10 60/149/10
f 54/150/9 58/151/9 55/152/9
f 52/153/8 63/154/8 53/155/8
f 49/156/7 61/157/7 51/158/7
f 60/159/6 5/160/6 66/161/6
f 8/162/20 58/163/20 64/164/20
f 4/165/21 63/166/21 62/167/21
f 2/168/22 61/169/22 59/170/22
f 76/171/1 3/172/1 74/173/1
f 72/174/2 64/175/2 54/176/2
f 46/177/13 72/178/13 54/179/13
f 38/180/11 71/97/11 46/181/11
f 68/182/1 30/183/1 20/184/1
f 69/48/2 38/185/2 30/186/2
f 18/187/2 67/188/2 17/189/2
f 66/190/1 74/191/1 1/192/1
f 5/193/1 76/194/1 66/195/1
f 82/196/4 62/197/4 52/198/4
f 44/199/14 82/200/14 52/201/14
f 36/202/11 81/100/11 44/203/11
f 79/204/4 36/205/4 28/206/4
f 78/207/1 28/208/1 16/209/1
f 14/210/4 77/211/4 13/212/4
f 89/116/3 57/213/3 56/214/3
f 40/215/11 88/94/11 48/216/11
f 48/217/12 89/218/12 56/219/12
f 86/220/3 40/221/3 32/222/3
f 85/223/1 32/224/1 24/225/1
f 22/226/3 84/227/3 21/228/3
f 96/146/6 59/229/6 49/230/6
f 41/231/15 96/232/15 49/233/15
f 33/234/11 95/103/11 41/235/11
f 93/236/6 33/237/6 25/238/6
f 92/239/1 25/240/1 12/241/1
f 10/242/6 91/243/6 9/244/6
f 75/1/1 7/245/1 65/2/1
f 63/246/2 4/247/2 3/248/2
f 65/4/2 7/249/2 64/5/2
f 7/249/2 8/250/2 64/5/2
f 63/246/2 3/248/2 65/4/2
f 73/6/2 63/246/2 65/4/2
f 58/251/3 8/252/3 7/253/3
f 75/7/3 5/254/3 57/8/3
f 5/254/3 6/255/3 57/8/3
f 58/251/3 7/253/3 75/7/3
f 90/9/3 58/251/3 75/7/3
f 61/256/4 2/257/4 1/258/4
f 74/10/4 3/259/4 62/11/4
f 3/259/4 4/260/4 62/11/4
f 61/256/4 1/258/4 74/10/4
f 83/12/4 61/256/4 74/10/4
f 92/16/6 12/261/6 11/17/6
f 12/19/7 14/262/7 13/20/7
f 78/22/4 16/263/4 15/23/4
f 16/25/8 18/264/8 17/26/8
f 68/28/2 20/265/2 19/29/2
f 20/31/9 22/266/9 21/32/9
f 24/34/1 32/55/1 26/35/1
f 85/37/3 24/267/3 23/38/3
f 24/40/10 10/268/10 9/41/10
f 23/269/11 9/270/11 91/271/11
f 91/271/11 11/272/11 13/273/11
f 77/43/11 15/274/11 67/44/11
f 15/274/11 17/275/11 67/44/11
f 91/271/11 13/273/11 77/43/11
f 84/45/11 23/269/11 91/271/11
f 19/276/11 21/277/11 67/44/11
f 21/277/11 84/45/11 67/44/11
f 84/45/11 91/271/11 77/43/11
f 29/46/2 37/278/2 70/47/2
f 92/49/1 10/279/1 26/50/1
f 78/52/1 14/280/1 27/53/1
f 22/36/1 20/34/1 30/55/1
f 16/56/1 28/281/1 29/57/1
f 85/59/1 22/282/1 31/60/1
f 14/62/1 12/283/1 25/63/1
f 68/65/1 18/284/1 29/66/1
f 33/68/11 41/285/11 43/69/11
f 27/71/4 35/286/4 80/72/4
f 26/74/6 34/287/6 94/75/6
f 32/77/10 40/288/10 34/78/10
f 30/80/9 38/289/9 39/81/9
f 28/83/8 36/290/8 37/84/8
f 25/83/7 33/291/7 35/86/7
f 31/87/3 39/292/3 87/88/3
f 47/90/12 55/293/12 89/91/12
f 39/93/11 47/294/11 88/94/11
f 37/96/11 45/295/11 71/97/11
f 35/99/11 43/296/11 81/100/11
f 34/102/11 42/297/11 95/103/11
f 34/105/11 40/298/11 48/106/11
f 38/108/11 46/299/11 47/109/11
f 37/111/11 36/300/11 44/112/11
f 55/114/3 58/301/3 90/115/3
f 45/117/13 53/302/13 72/118/13
f 43/120/14 51/303/14 82/121/14
f 42/123/15 50/304/15 96/124/15
f 48/126/16 56/305/16 50/127/16
f 46/129/23 54/306/23 55/130/23
f 45/132/24 44/307/24 52/133/24
f 43/135/19 41/308/19 49/136/19
f 53/138/2 63/309/2 73/139/2
f 51/141/4 61/310/4 83/142/4
f 50/144/6 60/311/6 97/145/6
f 50/147/10 56/312/10 57/148/10
f 54/150/25 64/313/25 58/151/25
f 52/153/26 62/314/26 63/154/26
f 49/156/27 59/315/27 61/157/27
f 1/316/6 2/317/6 59/318/6
f 59/318/6 97/319/6 66/161/6
f 97/319/6 60/159/6 66/161/6
f 60/159/6 6/320/6 5/160/6
f 66/161/6 1/316/6 59/318/6
f 76/171/1 65/321/1 3/172/1
f 72/174/2 73/322/2 64/175/2
f 46/177/13 71/323/13 72/178/13
f 38/180/11 70/98/11 71/97/11
f 68/182/1 69/324/1 30/183/1
f 69/48/2 70/47/2 38/185/2
f 18/187/2 68/325/2 67/188/2
f 66/190/1 76/326/1 74/191/1
f 5/193/1 75/327/1 76/194/1
f 82/196/4 83/328/4 62/197/4
f 44/199/14 81/329/14 82/200/14
f 36/202/11 80/101/11 81/100/11
f 79/204/4 80/330/4 36/205/4
f 78/207/1 79/331/1 28/208/1
f 14/210/4 78/332/4 77/211/4
f 89/116/3 90/115/3 57/213/3
f 40/215/11 87/95/11 88/94/11
f 48/217/12 88/333/12 89/218/12
f 86/220/3 87/334/3 40/221/3
f 85/223/1 86/335/1 32/224/1
f 22/226/3 85/336/3 84/227/3
f 96/146/6 97/145/6 59/229/6
f 41/231/15 95/337/15 96/232/15
f 33/234/11 94/104/11 95/103/11
f 93/236/6 94/338/6 33/237/6
f 92/239/1 93/339/1 25/240/1
f 10/242/6 92/340/6 91/243/6
