# Blender 5.1.2
# www.blender.org
mtllib medium_roman_doric_base.mtl
o Cube.296
v 0.174844 0.325673 -0.285000
v 0.174844 0.504119 -0.285000
v 0.825156 0.325673 -0.285000
v 0.825156 0.504119 -0.285000
v 1.284996 0.325673 0.174840
v 1.284996 0.504119 0.174840
v 1.284996 0.325673 0.825153
v 1.284996 0.504119 0.825153
v 0.825156 0.325673 1.284993
v 0.825156 0.504119 1.284993
v 0.174844 0.325673 1.284993
v 0.174844 0.504119 1.284993
v -0.284996 0.325673 0.825153
v -0.284996 0.504119 0.825153
v -0.284996 0.325673 0.174840
v -0.284996 0.504119 0.174840
v 0.732830 0.739657 -0.062104
v 0.267170 0.739657 -0.062104
v 1.062101 0.739657 0.267167
v 1.062101 0.739657 0.732827
v 0.732830 0.739657 1.062098
v 0.267170 0.739657 1.062098
v -0.062101 0.739657 0.732827
v -0.062101 0.739657 0.267167
v -0.284991 0.325673 -0.285000
v 1.284991 0.325673 -0.285000
v 1.284991 0.325673 1.284993
v -0.284991 0.325673 1.284993
v -0.284991 -0.000005 -0.285000
v 1.284991 -0.000005 -0.285000
v 1.284991 -0.000005 1.284993
v -0.284991 -0.000005 1.284993
v 1.284991 0.325673 0.499997
v -0.284991 0.325673 0.499997
v 1.284991 -0.000005 0.499997
v -0.284991 -0.000005 0.499997
v 0.500000 0.325673 -0.285000
v 0.500000 0.325673 1.284993
v 0.500000 -0.000005 -0.285000
v 0.500000 -0.000005 1.284993
v 0.500000 -0.000005 0.499997
v 0.500000 0.325673 0.499997
v -0.284996 0.325673 0.499997
v -0.284996 0.504119 0.499997
v -0.062101 0.739657 0.499997
v 0.500000 0.325673 1.284993
v 0.500000 0.504119 1.284993
v 0.500000 0.739657 1.062098
v 1.284996 0.325673 0.499997
v 1.284996 0.504119 0.499997
v 1.062101 0.739657 0.499997
v 0.500000 0.325673 -0.285000
v 0.500000 0.504119 -0.285000
v 0.500000 0.739657 -0.062104
v 0.500000 0.739657 0.499997
vn -0.0000 -0.0000 -1.0000
vn 0.7071 -0.0000 -0.7071
vn 1.0000 -0.0000 -0.0000
vn 0.7071 -0.0000 0.7071
vn -0.0000 -0.0000 1.0000
vn -0.7071 -0.0000 0.7071
vn -0.0000 0.6873 0.7263
vn -1.0000 -0.0000 -0.0000
vn -0.7071 -0.0000 -0.7071
vn -0.0000 1.0000 -0.0000
vn -0.5136 0.6873 -0.5136
vn -0.0000 0.6873 -0.7263
vn 0.7263 0.6873 -0.0000
vn -0.5136 0.6873 0.5136
vn 0.5136 0.6873 0.5136
vn -0.7263 0.6873 -0.0000
vn 0.5136 0.6873 -0.5136
vn -0.0000 -1.0000 -0.0000
vt 0.380580 0.659109
vt 0.659656 0.818581
vt 0.380581 0.818581
vt 0.374079 0.460320
vt 0.932231 0.619791
vt 0.374079 0.619791
vt 0.082399 0.077061
vt 0.361476 0.236533
vt 0.082400 0.236533
vt 0.410973 0.051455
vt 0.969126 0.210927
vt 0.410974 0.210927
vt 0.082398 0.644788
vt 0.361474 0.804260
vt 0.082398 0.804260
vt 0.053323 0.386530
vt 0.611475 0.546002
vt 0.053324 0.546002
vt 0.338328 0.643417
vt 0.546154 0.922149
vt 0.338328 0.922149
vt 0.664445 0.832290
vt 0.943521 0.991762
vt 0.664446 0.991762
vt 0.200898 0.062743
vt 0.759050 0.222215
vt 0.200898 0.222215
vt 0.250059 0.564738
vt 0.973304 0.835922
vt 0.250059 0.835868
vt 0.500000 0.500000
vt 0.007714 0.500000
vt 0.007714 0.296088
vt 0.807677 0.436374
vt 0.309745 0.715105
vt 0.227467 0.436374
vt 0.403859 0.595236
vt 0.611685 0.873968
vt 0.403859 0.873968
vt 0.463328 0.580917
vt 0.671154 0.859649
vt 0.463328 0.859649
vt 0.671390 0.186374
vt 0.173458 0.465105
vt 0.091180 0.186374
vt 0.190573 0.175086
vt 0.688505 0.453818
vt 0.272852 0.453818
vt 0.355678 0.643418
vt 0.563505 0.922150
vt 0.355678 0.922150
vt 0.153679 0.484554
vt 0.651611 0.763287
vt 0.235958 0.763286
vt 0.749995 0.750000
vt 0.062503 0.062503
vt 0.749995 0.062503
vt 0.250059 0.612919
vt 0.973304 0.884103
vt 0.250059 0.884049
vt 0.937492 0.062503
vt 0.250000 0.750000
vt 0.250000 0.062503
vt 0.749995 0.937497
vt 0.062503 0.250000
vt 0.749995 0.250000
vt 0.937492 0.250000
vt 0.250000 0.937497
vt 0.250000 0.250000
vt 0.026873 0.302027
vt 0.750000 0.030855
vt 0.750000 0.302027
vt 0.026873 0.969145
vt 0.750000 0.697973
vt 0.750000 0.969145
vt 0.089314 0.612973
vt 0.812559 0.884049
vt 0.089314 0.883996
vt 0.214314 0.314792
vt 0.937559 0.585868
vt 0.214314 0.585814
vt 0.187500 0.531645
vt 0.910627 0.260473
vt 0.910627 0.531645
vt 0.250000 0.552027
vt 0.973127 0.280855
vt 0.973127 0.552027
vt 0.750000 0.250000
vt 0.062508 0.937497
vt 0.062508 0.250000
vt 0.937488 0.937497
vt 0.249995 0.250000
vt 0.937487 0.250000
vt 0.750000 0.062503
vt 0.062508 0.750000
vt 0.062507 0.062503
vt 0.937487 0.750000
vt 0.249995 0.062503
vt 0.937487 0.062503
vt 0.147852 0.922150
vt 0.065573 0.643418
vt 0.322869 0.832290
vt 0.601946 0.991762
vt 0.322870 0.991762
vt 0.130501 0.922148
vt 0.048223 0.643416
vt 0.365823 0.644787
vt 0.644898 0.804260
vt 0.365823 0.804260
vt 0.255501 0.859649
vt 0.173223 0.580917
vt 0.115823 0.077061
vt 0.394900 0.236533
vt 0.115823 0.236533
vt 0.196033 0.873967
vt 0.113754 0.595235
vt 0.101505 0.659109
vt 0.101505 0.818581
vt 0.296088 0.992286
vt 0.007714 0.703912
vt 0.992286 0.703912
vt 0.703912 0.992286
vt 0.703912 0.007714
vt 0.992286 0.296088
vt 0.659656 0.659109
vt 0.932231 0.460320
vt 0.361476 0.077061
vt 0.969126 0.051455
vt 0.361474 0.644787
vt 0.611475 0.386530
vt 0.628433 0.643418
vt 0.943521 0.832290
vt 0.759050 0.062743
vt 0.973304 0.564685
vt 0.296088 0.007714
vt 0.500000 0.007714
vt 0.725398 0.715106
vt 0.693964 0.595236
vt 0.753433 0.580917
vt 0.589111 0.465106
vt 0.770783 0.175087
vt 0.645784 0.643419
vt 0.733890 0.484555
vt 0.062503 0.750000
vt 0.973304 0.612866
vt 0.937492 0.750000
vt 0.062503 0.937497
vt 0.937493 0.937497
vt 0.026873 0.030855
vt 0.026873 0.697973
vt 0.812559 0.612919
vt 0.937559 0.314738
vt 0.187500 0.260473
vt 0.250000 0.280855
vt 0.750000 0.937497
vt 0.249995 0.937497
vt 0.750000 0.750000
vt 0.249995 0.750000
vt 0.601945 0.832290
vt 0.644898 0.644788
vt 0.394899 0.077061
vt 0.500000 0.992286
vt 0.992286 0.500000
s 0
usemtl roman_doric_base
f 53/1/1 3/2/1 52/3/1
f 4/4/2 5/5/2 3/6/2
f 50/7/3 7/8/3 49/9/3
f 8/10/4 9/11/4 7/12/4
f 47/13/5 11/14/5 46/15/5
f 12/16/6 13/17/6 11/18/6
f 47/19/7 21/20/7 48/21/7
f 44/22/8 15/23/8 43/24/8
f 16/25/9 1/26/9 15/27/9
f 35/28/3 26/29/3 33/30/3
f 55/31/10 51/32/10 19/33/10
f 16/34/11 18/35/11 2/36/11
f 53/37/12 18/38/12 54/39/12
f 50/40/13 19/41/13 51/42/13
f 12/43/14 23/44/14 14/45/14
f 10/46/15 20/47/15 21/48/15
f 44/49/16 23/50/16 45/51/16
f 6/52/17 17/53/17 19/54/17
f 42/55/10 26/56/10 37/57/10
f 36/58/8 28/59/8 34/60/8
f 30/61/18 41/62/18 39/63/18
f 38/64/10 33/65/10 42/66/10
f 35/67/18 40/68/18 41/69/18
f 28/70/5 40/71/5 38/72/5
f 26/73/1 39/74/1 37/75/1
f 29/76/8 34/77/8 25/78/8
f 31/79/3 33/80/3 27/81/3
f 37/82/1 29/83/1 25/84/1
f 38/85/5 31/86/5 27/87/5
f 41/88/18 32/89/18 36/90/18
f 28/91/10 42/92/10 34/93/10
f 39/94/18 36/95/18 29/96/18
f 34/97/10 37/98/10 25/99/10
f 44/49/16 24/100/16 16/101/16
f 14/102/8 43/103/8 13/104/8
f 47/19/7 22/105/7 12/106/7
f 10/107/5 46/108/5 9/109/5
f 50/40/13 20/110/13 8/111/13
f 6/112/3 49/113/3 5/114/3
f 53/37/12 17/115/12 4/116/12
f 2/117/1 52/3/1 1/118/1
f 55/31/10 21/119/10 20/120/10
f 55/31/10 23/121/10 22/122/10
f 55/31/10 18/123/10 24/124/10
f 53/1/1 4/125/1 3/2/1
f 4/4/2 6/126/2 5/5/2
f 50/7/3 8/127/3 7/8/3
f 8/10/4 10/128/4 9/11/4
f 47/13/5 12/129/5 11/14/5
f 12/16/6 14/130/6 13/17/6
f 47/19/7 10/131/7 21/20/7
f 44/22/8 16/132/8 15/23/8
f 16/25/9 2/133/9 1/26/9
f 35/28/3 30/134/3 26/29/3
f 19/33/10 17/135/10 55/31/10
f 17/135/10 54/136/10 55/31/10
f 16/34/11 24/137/11 18/35/11
f 53/37/12 2/138/12 18/38/12
f 50/40/13 6/139/13 19/41/13
f 12/43/14 22/140/14 23/44/14
f 10/46/15 8/141/15 20/47/15
f 44/49/16 14/142/16 23/50/16
f 6/52/17 4/143/17 17/53/17
f 42/55/10 33/144/10 26/56/10
f 36/58/8 32/145/8 28/59/8
f 30/61/18 35/146/18 41/62/18
f 38/64/10 27/147/10 33/65/10
f 35/67/18 31/148/18 40/68/18
f 28/70/5 32/149/5 40/71/5
f 26/73/1 30/150/1 39/74/1
f 29/76/8 36/151/8 34/77/8
f 31/79/3 35/152/3 33/80/3
f 37/82/1 39/153/1 29/83/1
f 38/85/5 40/154/5 31/86/5
f 41/88/18 40/155/18 32/89/18
f 28/91/10 38/156/10 42/92/10
f 39/94/18 41/157/18 36/95/18
f 34/97/10 42/158/10 37/98/10
f 44/49/16 45/51/16 24/100/16
f 14/102/8 44/159/8 43/103/8
f 47/19/7 48/21/7 22/105/7
f 10/107/5 47/160/5 46/108/5
f 50/40/13 51/42/13 20/110/13
f 6/112/3 50/161/3 49/113/3
f 53/37/12 54/39/12 17/115/12
f 2/117/1 53/1/1 52/3/1
f 20/120/10 51/32/10 55/31/10
f 55/31/10 48/162/10 21/119/10
f 22/122/10 48/162/10 55/31/10
f 55/31/10 45/163/10 23/121/10
f 24/124/10 45/163/10 55/31/10
f 55/31/10 54/136/10 18/123/10
