# Blender 5.1.2
# www.blender.org
mtllib medium_roman_doric_capital.mtl
o Cube.295
v 0.244830 0.102934 -0.116035
v 0.244830 0.232929 -0.116035
v 0.755170 0.102934 -0.116035
v 0.755170 0.232929 -0.116035
v 1.116035 0.102934 0.244830
v 1.116035 0.232929 0.244830
v 1.116035 0.102934 0.755170
v 1.116035 0.232929 0.755170
v 0.755170 0.102934 1.116035
v 0.755170 0.232929 1.116035
v 0.244830 0.102934 1.116035
v 0.244830 0.232929 1.116035
v -0.116035 0.102934 0.755170
v -0.116035 0.232929 0.755170
v -0.116035 0.102934 0.244830
v -0.116035 0.232929 0.244830
v 0.708612 0.232929 -0.003635
v 0.291388 0.232929 -0.003635
v 1.003634 0.232929 0.291387
v 1.003634 0.232929 0.708612
v 0.708612 0.232929 1.003634
v 0.291388 0.232929 1.003634
v -0.003635 0.232929 0.708612
v -0.003635 0.232929 0.291387
v 0.708612 0.374935 -0.003635
v 0.291388 0.374935 -0.003635
v 1.003634 0.374935 0.291387
v 1.003634 0.374935 0.708612
v 0.708612 0.374935 1.003634
v 0.291388 0.374935 1.003634
v -0.003635 0.374935 0.708612
v -0.003635 0.374935 0.291387
v 0.724168 0.374935 -0.041189
v 0.275832 0.374935 -0.041189
v 1.041189 0.374935 0.275832
v 1.041189 0.374935 0.724167
v 0.724168 0.374935 1.041189
v 0.275832 0.374935 1.041189
v -0.041189 0.374935 0.724168
v -0.041189 0.374935 0.275832
v 0.724168 0.499191 -0.041189
v 0.275832 0.499191 -0.041189
v 1.041189 0.499191 0.275832
v 1.041189 0.499191 0.724167
v 0.724168 0.499191 1.041189
v 0.275832 0.499191 1.041189
v -0.041189 0.499191 0.724168
v -0.041189 0.499191 0.275832
v 0.775153 0.676699 -0.164278
v 0.224847 0.676699 -0.164278
v 1.164278 0.676699 0.224847
v 1.164278 0.676699 0.775153
v 0.775153 0.676699 1.164278
v 0.224847 0.676699 1.164278
v -0.164278 0.676699 0.775153
v -0.164278 0.676699 0.224847
v 0.775153 0.783204 -0.164278
v 0.224847 0.783204 -0.164278
v 1.164278 0.783204 0.224847
v 1.164278 0.783204 0.775153
v 0.775153 0.783204 1.164278
v 0.224847 0.783204 1.164278
v -0.164278 0.783204 0.775153
v -0.164278 0.783204 0.224847
v 1.285012 0.907459 -0.285012
v -0.285012 0.907459 -0.285012
v 1.285012 0.907459 1.285012
v -0.285012 0.907459 1.285012
v 1.285012 1.001659 -0.285012
v -0.285012 1.001659 -0.285012
v 1.285012 1.001659 1.285012
v -0.285012 1.001659 1.285012
v 1.164278 0.783201 -0.164278
v -0.164278 0.783201 -0.164278
v 1.164278 0.783201 1.164278
v -0.164278 0.783201 1.164278
v 1.285012 0.907459 0.500000
v -0.285012 0.907459 0.500000
v 1.285012 1.001659 0.500000
v -0.285012 1.001659 0.500000
v 1.164278 0.783201 0.500000
v -0.164278 0.783201 0.500000
v 0.500000 0.907459 -0.285012
v 0.500000 0.907459 1.285012
v 0.500000 1.001659 -0.285012
v 0.500000 1.001659 1.285012
v 0.500000 0.783201 -0.164278
v 0.500000 0.783201 1.164278
v 0.500000 0.783201 0.500000
v 0.500000 1.001659 0.500000
v 0.500000 0.102934 -0.116035
v 0.500000 0.232929 -0.116035
v 0.500000 0.232929 -0.003635
v 0.500000 0.374935 -0.003635
v 0.500000 0.374935 -0.041189
v 0.500000 0.499191 -0.041189
v 0.500000 0.676699 -0.164278
v 0.500000 0.783204 -0.164278
v 1.116035 0.102934 0.500000
v 1.116035 0.232929 0.500000
v 1.003634 0.232929 0.500000
v 1.003634 0.374935 0.500000
v 1.041189 0.374935 0.500000
v 1.041189 0.499191 0.500000
v 1.164278 0.676699 0.500000
v 1.164278 0.783204 0.500000
v 0.500000 0.102934 1.116035
v 0.500000 0.232929 1.116035
v 0.500000 0.232929 1.003634
v 0.500000 0.374935 1.003634
v 0.500000 0.374935 1.041189
v 0.500000 0.499191 1.041189
v 0.500000 0.676699 1.164278
v 0.500000 0.783204 1.164278
v -0.116035 0.102934 0.500000
v -0.116035 0.232929 0.500000
v -0.003635 0.232929 0.500000
v -0.003635 0.374935 0.500000
v -0.041189 0.374935 0.500000
v -0.041189 0.499191 0.500000
v -0.164278 0.676699 0.500000
v -0.164278 0.783204 0.500000
v 0.500000 0.102934 0.500000
vn -0.0000 -0.0000 -1.0000
vn 0.7071 -0.0000 -0.7071
vn 1.0000 -0.0000 -0.0000
vn 0.7071 -0.0000 0.7071
vn -0.0000 -0.0000 1.0000
vn -0.7071 -0.0000 0.7071
vn -0.0000 1.0000 -0.0000
vn -1.0000 -0.0000 -0.0000
vn -0.7071 -0.0000 -0.7071
vn -0.0000 -1.0000 -0.0000
vn 0.5811 -0.5698 0.5811
vn 0.5811 -0.5698 -0.5811
vn -0.8218 -0.5698 -0.0000
vn -0.0000 -0.5698 0.8218
vn 0.8218 -0.5698 -0.0000
vn -0.0000 -0.5698 -0.8218
vn -0.5811 -0.5698 -0.5811
vn -0.5811 -0.5698 0.5811
vn -0.7172 -0.6969 -0.0000
vn -0.0000 -0.6969 -0.7172
vn -0.0000 -0.6969 0.7172
vn 0.7172 -0.6969 -0.0000
vt 0.457825 0.783999
vt 0.232248 0.671210
vt 0.457825 0.671210
vt 0.558403 0.659831
vt 0.107248 0.547042
vt 0.558403 0.547042
vt 0.249631 0.243857
vt 0.024054 0.131069
vt 0.249631 0.131069
vt 0.807987 0.410247
vt 0.356832 0.297458
vt 0.807987 0.297458
vt 0.581994 0.930109
vt 0.356416 0.817321
vt 0.581994 0.817321
vt 0.932571 0.244273
vt 0.481416 0.131485
vt 0.932571 0.131485
vt 0.553593 0.250420
vt 0.455715 0.434172
vt 0.455715 0.250420
vt 0.478936 0.410663
vt 0.253359 0.297874
vt 0.478936 0.297874
vt 0.953265 0.659831
vt 0.502111 0.547042
vt 0.953265 0.547042
vt 0.562500 0.562500
vt 0.022979 0.562500
vt 0.022979 0.339023
vt 0.521990 0.150909
vt 0.646359 0.516312
vt 0.521990 0.516312
vt 0.677761 0.766154
vt 0.579883 0.357642
vt 0.677761 0.316632
vt 0.969566 0.292225
vt 0.871688 0.475977
vt 0.871688 0.292225
vt 0.657066 0.441216
vt 0.559188 0.849729
vt 0.559188 0.482226
vt 0.179424 0.583199
vt 0.081547 0.766950
vt 0.081547 0.583199
vt 0.304008 0.292225
vt 0.206131 0.475977
vt 0.206131 0.292225
vt 0.782066 0.441216
vt 0.684188 0.849729
vt 0.684188 0.482225
vt 0.636787 0.558376
vt 0.538910 0.149863
vt 0.636787 0.108853
vt 0.591258 0.454228
vt 0.558368 0.271527
vt 0.591258 0.271527
vt 0.604769 0.172020
vt 0.729137 0.537423
vt 0.604769 0.537423
vt 0.812963 0.608272
vt 0.937332 0.973675
vt 0.812963 0.973675
vt 0.501295 0.276325
vt 0.625664 0.641728
vt 0.501295 0.641728
vt 0.189211 0.047020
vt 0.313580 0.229721
vt 0.189211 0.229721
vt 0.438795 0.608272
vt 0.563164 0.790973
vt 0.438795 0.790973
vt 0.272406 0.047020
vt 0.396775 0.229721
vt 0.272406 0.229721
vt 0.064627 0.317298
vt 0.188996 0.500000
vt 0.064627 0.500000
vt 0.392730 0.200201
vt 0.501553 0.396527
vt 0.392730 0.396527
vt 0.466674 0.474923
vt 0.433784 0.292221
vt 0.466674 0.292221
vt 0.154590 0.849091
vt 0.121700 0.470065
vt 0.154590 0.483688
vt 0.653758 0.454228
vt 0.620868 0.075202
vt 0.653758 0.088825
vt 0.071396 0.234104
vt 0.038505 0.613130
vt 0.038505 0.220480
vt 0.549453 0.911175
vt 0.516563 0.532149
vt 0.549453 0.545772
vt 0.508064 0.890480
vt 0.475173 0.707779
vt 0.508064 0.707779
vt 0.175701 0.890480
vt 0.142811 0.707779
vt 0.175701 0.707779
vt 0.344998 0.592852
vt 0.534178 0.155549
vt 0.534178 0.637505
vt 0.828566 0.075202
vt 0.937389 0.271527
vt 0.828566 0.271527
vt 0.516066 0.448954
vt 0.624889 0.645279
vt 0.516066 0.645279
vt 0.558287 0.303675
vt 0.667110 0.500000
vt 0.558287 0.500000
vt 0.413425 0.344648
vt 0.522247 0.737299
vt 0.413425 0.737299
vt 0.786761 0.303675
vt 0.895583 0.696325
vt 0.786761 0.696325
vt 0.205230 0.241591
vt 0.314053 0.634241
vt 0.205230 0.634241
vt 0.329814 0.137701
vt 0.438637 0.530352
vt 0.329814 0.530352
vt 0.103677 0.466801
vt 0.196954 0.948756
vt 0.103677 0.948756
vt 0.614444 0.592852
vt 0.803624 0.155549
vt 0.803624 0.637505
vt 0.365276 0.137701
vt 0.554456 0.334027
vt 0.365276 0.334027
vt 0.032498 0.470064
vt 0.221678 0.666389
vt 0.032498 0.666389
vt 0.572639 0.469648
vt 0.761819 0.665973
vt 0.572639 0.665973
vt 0.531666 0.303675
vt 0.720846 0.500000
vt 0.531666 0.500000
vt 0.074303 0.303675
vt 0.263483 0.740978
vt 0.074303 0.696325
vt 0.282082 0.448953
vt 0.471262 0.886257
vt 0.282082 0.841604
vt 0.103677 0.342217
vt 0.196954 0.824172
vt 0.103677 0.824172
vt 0.166177 0.404301
vt 0.259454 0.886256
vt 0.166177 0.886256
vt 0.041177 0.051244
vt 0.134454 0.533199
vt 0.041177 0.533199
vt 0.810208 0.259022
vt 0.903484 0.500000
vt 0.810208 0.500000
vt 0.872708 0.508606
vt 0.965984 0.749584
vt 0.872708 0.749584
vt 0.560208 0.176244
vt 0.653484 0.417221
vt 0.560208 0.417221
vt 0.248956 0.259022
vt 0.342232 0.500000
vt 0.248956 0.500000
vt 0.415519 0.750000
vt 0.498019 0.062490
vt 0.498019 0.750000
vt 0.332324 0.750000
vt 0.414824 0.062491
vt 0.414824 0.750000
vt 0.934687 0.250000
vt 0.852187 0.937510
vt 0.852187 0.250000
vt 0.331630 0.250000
vt 0.249130 0.937509
vt 0.249130 0.250000
vt 0.062490 0.750000
vt 0.750000 0.062490
vt 0.750000 0.750000
vt 0.580812 0.750000
vt 0.732546 0.168228
vt 0.732546 0.750000
vt 0.144560 0.750000
vt 0.296294 0.168228
vt 0.296294 0.750000
vt 0.164838 0.750000
vt 0.316573 0.168228
vt 0.316573 0.750000
vt 0.684285 0.750000
vt 0.836019 0.168228
vt 0.836019 0.750000
vt 0.956772 0.375000
vt 0.375000 0.956772
vt 0.375000 0.375000
vt 0.625000 0.375000
vt 0.043228 0.956772
vt 0.043228 0.375000
vt 0.684285 0.250000
vt 0.836020 0.831772
vt 0.684285 0.937509
vt 0.580812 0.250000
vt 0.732546 0.831772
vt 0.580812 0.937510
vt 0.062490 0.937510
vt 0.750000 0.250000
vt 0.750000 0.937510
vt 0.331629 0.062490
vt 0.249130 0.750000
vt 0.249130 0.062490
vt 0.332324 0.937510
vt 0.414824 0.250000
vt 0.414824 0.937510
vt 0.250000 0.937510
vt 0.937510 0.250000
vt 0.937510 0.937510
vt 0.625000 0.043228
vt 0.043228 0.625000
vt 0.043228 0.043228
vt 0.956772 0.043228
vt 0.375000 0.625000
vt 0.375000 0.043228
vt 0.164838 0.250000
vt 0.316573 0.831772
vt 0.164838 0.937510
vt 0.144560 0.250000
vt 0.296294 0.831772
vt 0.144560 0.937510
vt 0.250000 0.750000
vt 0.937510 0.062490
vt 0.937510 0.750000
vt 0.934687 0.062490
vt 0.852187 0.750000
vt 0.852187 0.062490
vt 0.415519 0.937510
vt 0.498019 0.250000
vt 0.498019 0.937510
vt 0.342232 0.740978
vt 0.248956 0.740978
vt 0.531666 0.696325
vt 0.720846 0.740978
vt 0.667110 0.696325
vt 0.558287 0.696325
vt 0.466674 0.109520
vt 0.433784 0.095897
vt 0.188996 0.682702
vt 0.064627 0.682702
vt 0.081547 0.399447
vt 0.179424 0.358438
vt 0.683403 0.783999
vt 0.683403 0.671210
vt 0.653484 0.658199
vt 0.560208 0.658199
vt 0.572639 0.862299
vt 0.761819 0.906951
vt 0.624889 0.841604
vt 0.516066 0.841604
vt 0.396775 0.412423
vt 0.272406 0.412423
vt 0.591258 0.088825
vt 0.558368 0.075202
vt 0.206131 0.108474
vt 0.304008 0.067464
vt 0.475208 0.243857
vt 0.475208 0.131069
vt 0.965984 0.990562
vt 0.872708 0.990562
vt 0.032498 0.862715
vt 0.221678 0.907367
vt 0.937389 0.467852
vt 0.828566 0.467852
vt 0.175701 0.525077
vt 0.142811 0.511454
vt 0.563164 0.973675
vt 0.438795 0.973675
vt 0.871688 0.108473
vt 0.969566 0.067464
vt 0.807571 0.930109
vt 0.807571 0.817321
vt 0.903484 0.740978
vt 0.810208 0.740978
vt 0.365276 0.530352
vt 0.554456 0.575005
vt 0.508064 0.525077
vt 0.475173 0.511454
vt 0.501553 0.592852
vt 0.392730 0.592852
vt 0.313580 0.412423
vt 0.189211 0.412423
vt 0.704513 0.410663
vt 0.704513 0.297874
vt 0.455715 0.066668
vt 0.553593 0.025659
vt 0.562500 0.437500
vt 0.339023 0.977021
vt 0.022979 0.660977
vt 0.437500 0.437500
vt 0.977021 0.660977
vt 0.660977 0.977021
vt 0.437500 0.562500
vt 0.660977 0.022979
vt 0.977021 0.339023
vt 0.232248 0.783999
vt 0.107248 0.659831
vt 0.024054 0.243857
vt 0.356832 0.410247
vt 0.356416 0.930109
vt 0.481416 0.244273
vt 0.553593 0.475181
vt 0.253359 0.410663
vt 0.502111 0.659831
vt 0.339023 0.022979
vt 0.562500 0.022979
vt 0.646359 0.150909
vt 0.579883 0.725145
vt 0.969566 0.516987
vt 0.657066 0.890738
vt 0.179424 0.807960
vt 0.304008 0.516986
vt 0.782066 0.890739
vt 0.538910 0.517366
vt 0.558368 0.467851
vt 0.729137 0.172020
vt 0.937332 0.608272
vt 0.625664 0.276325
vt 0.313580 0.047020
vt 0.563164 0.608272
vt 0.396775 0.047020
vt 0.188996 0.317298
vt 0.501553 0.200201
vt 0.433784 0.488546
vt 0.121700 0.862714
vt 0.620868 0.467852
vt 0.071396 0.599507
vt 0.516563 0.924798
vt 0.475173 0.904103
vt 0.142811 0.904104
vt 0.344998 0.200201
vt 0.937389 0.075202
vt 0.624889 0.448954
vt 0.667110 0.303675
vt 0.522247 0.344648
vt 0.895583 0.303675
vt 0.314053 0.241591
vt 0.438637 0.137701
vt 0.196954 0.466801
vt 0.614444 0.200201
vt 0.554456 0.093049
vt 0.221678 0.425411
vt 0.761819 0.424995
vt 0.720846 0.259022
vt 0.263483 0.259022
vt 0.471262 0.404301
vt 0.196954 0.342217
vt 0.259454 0.404301
vt 0.134454 0.051244
vt 0.903484 0.259022
vt 0.965984 0.508606
vt 0.653484 0.176244
vt 0.342232 0.259022
vt 0.415519 0.062490
vt 0.332324 0.062490
vt 0.934687 0.937510
vt 0.331630 0.937509
vt 0.062490 0.062490
vt 0.580812 0.062490
vt 0.144559 0.062490
vt 0.164838 0.062490
vt 0.684285 0.062490
vt 0.956772 0.956772
vt 0.625000 0.956772
vt 0.836019 0.250000
vt 0.732546 0.250000
vt 0.062490 0.250000
vt 0.331630 0.750000
vt 0.332324 0.250000
vt 0.250000 0.250000
vt 0.625000 0.625000
vt 0.956772 0.625000
vt 0.316573 0.250000
vt 0.296294 0.250000
vt 0.250000 0.062490
vt 0.934687 0.750000
vt 0.415519 0.250000
vt 0.022979 0.437500
vt 0.562500 0.977021
vt 0.437500 0.977021
vt 0.977021 0.437500
vt 0.977021 0.562500
vt 0.437500 0.022979
s 0
usemtl doric_small
f 92/1/1 3/2/1 91/3/1
f 4/4/2 5/5/2 3/6/2
f 100/7/3 7/8/3 99/9/3
f 8/10/4 9/11/4 7/12/4
f 108/13/5 11/14/5 107/15/5
f 12/16/6 13/17/6 11/18/6
f 116/19/7 23/20/7 117/21/7
f 116/22/8 15/23/8 115/24/8
f 16/25/9 1/26/9 15/27/9
f 123/28/10 115/29/10 15/30/10
f 24/31/9 26/32/9 18/33/9
f 4/34/7 19/35/7 6/36/7
f 108/37/7 21/38/7 109/39/7
f 2/40/7 24/41/7 18/42/7
f 92/43/7 18/44/7 93/45/7
f 100/46/7 19/47/7 101/48/7
f 14/49/7 22/50/7 23/51/7
f 8/52/7 21/53/7 10/54/7
f 27/55/10 103/56/10 102/57/10
f 22/58/6 31/59/6 23/60/6
f 20/61/4 29/62/4 21/63/4
f 17/64/2 27/65/2 19/66/2
f 23/67/8 118/68/8 117/69/8
f 21/70/5 110/71/5 109/72/5
f 19/73/3 102/74/3 101/75/3
f 18/76/1 94/77/1 93/78/1
f 39/79/8 120/80/8 119/81/8
f 26/82/10 95/83/10 94/84/10
f 32/85/10 34/86/10 26/87/10
f 30/88/10 39/89/10 31/90/10
f 29/91/10 36/92/10 37/93/10
f 25/94/10 35/95/10 27/96/10
f 31/97/10 119/98/10 118/99/10
f 29/100/10 111/101/10 110/102/10
f 45/103/11 52/104/11 53/105/11
f 37/106/5 112/107/5 111/108/5
f 35/109/3 104/110/3 103/111/3
f 34/112/1 96/113/1 95/114/1
f 40/115/9 42/116/9 34/117/9
f 38/118/6 47/119/6 39/120/6
f 36/121/4 45/122/4 37/123/4
f 33/124/2 43/125/2 35/126/2
f 56/127/9 58/128/9 50/129/9
f 43/130/12 49/131/12 51/132/12
f 47/133/13 121/134/13 120/135/13
f 45/136/14 113/137/14 112/138/14
f 43/139/15 105/140/15 104/141/15
f 42/142/16 97/143/16 96/144/16
f 48/145/17 50/146/17 42/147/17
f 46/148/18 55/149/18 47/150/18
f 54/151/6 63/152/6 55/153/6
f 52/154/4 61/155/4 53/156/4
f 49/157/2 59/158/2 51/159/2
f 55/160/8 122/161/8 121/162/8
f 53/163/5 114/164/5 113/165/5
f 51/166/3 106/167/3 105/168/3
f 50/169/1 98/170/1 97/171/1
f 85/172/1 65/173/1 83/174/1
f 80/175/8 66/176/8 78/177/8
f 86/178/5 68/179/5 84/180/5
f 79/181/3 67/182/3 77/183/3
f 80/184/7 86/185/7 90/186/7
f 78/187/19 74/188/19 82/189/19
f 83/190/20 73/191/20 87/192/20
f 84/193/21 76/194/21 88/195/21
f 77/196/22 75/197/22 81/198/22
f 88/199/10 82/200/10 89/201/10
f 89/202/10 74/203/10 87/204/10
f 77/205/22 73/206/22 65/207/22
f 78/208/19 76/209/19 68/210/19
f 70/211/7 90/212/7 85/213/7
f 69/214/3 77/215/3 65/216/3
f 72/217/8 78/218/8 68/219/8
f 85/220/7 79/221/7 69/222/7
f 81/223/10 87/224/10 73/225/10
f 75/226/10 89/227/10 81/228/10
f 84/229/21 75/230/21 67/231/21
f 83/232/20 74/233/20 66/234/20
f 90/235/7 71/236/7 79/237/7
f 71/238/5 84/239/5 67/240/5
f 70/241/1 83/242/1 66/243/1
f 97/171/1 57/244/1 49/245/1
f 41/246/16 97/143/16 49/247/16
f 95/114/1 41/248/1 33/249/1
f 25/250/10 95/83/10 33/251/10
f 93/78/1 25/252/1 17/253/1
f 92/43/7 17/254/7 4/255/7
f 2/256/1 91/3/1 1/257/1
f 105/168/3 60/258/3 52/259/3
f 44/260/15 105/140/15 52/261/15
f 103/111/3 44/262/3 36/263/3
f 101/75/3 28/264/3 20/265/3
f 28/266/10 103/56/10 36/267/10
f 100/46/7 20/268/7 8/269/7
f 6/270/3 99/9/3 5/271/3
f 113/165/5 62/272/5 54/273/5
f 46/274/14 113/137/14 54/275/14
f 111/108/5 46/276/5 38/277/5
f 30/278/10 111/101/10 38/279/10
f 109/72/5 30/280/5 22/281/5
f 108/37/7 22/282/7 12/283/7
f 10/284/5 107/15/5 9/285/5
f 121/162/8 64/286/8 56/287/8
f 48/288/13 121/134/13 56/289/13
f 32/290/10 119/98/10 40/291/10
f 119/81/8 48/292/8 40/293/8
f 117/69/8 32/294/8 24/295/8
f 14/296/8 115/24/8 13/297/8
f 116/19/7 24/298/7 16/299/7
f 123/300/10 11/301/10 13/302/10
f 123/303/10 7/304/10 9/305/10
f 123/306/10 3/307/10 5/308/10
f 92/1/1 4/309/1 3/2/1
f 4/4/2 6/310/2 5/5/2
f 100/7/3 8/311/3 7/8/3
f 8/10/4 10/312/4 9/11/4
f 108/13/5 12/313/5 11/14/5
f 12/16/6 14/314/6 13/17/6
f 116/19/7 14/315/7 23/20/7
f 116/22/8 16/316/8 15/23/8
f 16/25/9 2/317/9 1/26/9
f 15/30/10 1/318/10 123/28/10
f 1/318/10 91/319/10 123/28/10
f 24/31/9 32/320/9 26/32/9
f 4/34/7 17/321/7 19/35/7
f 108/37/7 10/322/7 21/38/7
f 2/40/7 16/323/7 24/41/7
f 92/43/7 2/324/7 18/44/7
f 100/46/7 6/325/7 19/47/7
f 14/49/7 12/326/7 22/50/7
f 8/52/7 20/327/7 21/53/7
f 27/55/10 35/328/10 103/56/10
f 22/58/6 30/329/6 31/59/6
f 20/61/4 28/330/4 29/62/4
f 17/64/2 25/331/2 27/65/2
f 23/67/8 31/332/8 118/68/8
f 21/70/5 29/333/5 110/71/5
f 19/73/3 27/334/3 102/74/3
f 18/76/1 26/335/1 94/77/1
f 39/79/8 47/336/8 120/80/8
f 26/82/10 34/337/10 95/83/10
f 32/85/10 40/338/10 34/86/10
f 30/88/10 38/339/10 39/89/10
f 29/91/10 28/340/10 36/92/10
f 25/94/10 33/341/10 35/95/10
f 31/97/10 39/342/10 119/98/10
f 29/100/10 37/343/10 111/101/10
f 45/103/11 44/344/11 52/104/11
f 37/106/5 45/345/5 112/107/5
f 35/109/3 43/346/3 104/110/3
f 34/112/1 42/347/1 96/113/1
f 40/115/9 48/348/9 42/116/9
f 38/118/6 46/349/6 47/119/6
f 36/121/4 44/350/4 45/122/4
f 33/124/2 41/351/2 43/125/2
f 56/127/9 64/352/9 58/128/9
f 43/130/12 41/353/12 49/131/12
f 47/133/13 55/354/13 121/134/13
f 45/136/14 53/355/14 113/137/14
f 43/139/15 51/356/15 105/140/15
f 42/142/16 50/357/16 97/143/16
f 48/145/17 56/358/17 50/146/17
f 46/148/18 54/359/18 55/149/18
f 54/151/6 62/360/6 63/152/6
f 52/154/4 60/361/4 61/155/4
f 49/157/2 57/362/2 59/158/2
f 55/160/8 63/363/8 122/161/8
f 53/163/5 61/364/5 114/164/5
f 51/166/3 59/365/3 106/167/3
f 50/169/1 58/366/1 98/170/1
f 85/172/1 69/367/1 65/173/1
f 80/175/8 70/368/8 66/176/8
f 86/178/5 72/369/5 68/179/5
f 79/181/3 71/370/3 67/182/3
f 80/184/7 72/371/7 86/185/7
f 78/187/19 66/372/19 74/188/19
f 83/190/20 65/373/20 73/191/20
f 84/193/21 68/374/21 76/194/21
f 77/196/22 67/375/22 75/197/22
f 88/199/10 76/376/10 82/200/10
f 89/202/10 82/377/10 74/203/10
f 77/205/22 81/378/22 73/206/22
f 78/208/19 82/379/19 76/209/19
f 70/211/7 80/380/7 90/212/7
f 69/214/3 79/381/3 77/215/3
f 72/217/8 80/382/8 78/218/8
f 85/220/7 90/383/7 79/221/7
f 81/223/10 89/384/10 87/224/10
f 75/226/10 88/385/10 89/227/10
f 84/229/21 88/386/21 75/230/21
f 83/232/20 87/387/20 74/233/20
f 90/235/7 86/388/7 71/236/7
f 71/238/5 86/389/5 84/239/5
f 70/241/1 85/390/1 83/242/1
f 97/171/1 98/170/1 57/244/1
f 41/246/16 96/144/16 97/143/16
f 95/114/1 96/113/1 41/248/1
f 25/250/10 94/84/10 95/83/10
f 93/78/1 94/77/1 25/252/1
f 92/43/7 93/45/7 17/254/7
f 2/256/1 92/1/1 91/3/1
f 105/168/3 106/167/3 60/258/3
f 44/260/15 104/141/15 105/140/15
f 103/111/3 104/110/3 44/262/3
f 101/75/3 102/74/3 28/264/3
f 28/266/10 102/57/10 103/56/10
f 100/46/7 101/48/7 20/268/7
f 6/270/3 100/7/3 99/9/3
f 113/165/5 114/164/5 62/272/5
f 46/274/14 112/138/14 113/137/14
f 111/108/5 112/107/5 46/276/5
f 30/278/10 110/102/10 111/101/10
f 109/72/5 110/71/5 30/280/5
f 108/37/7 109/39/7 22/282/7
f 10/284/5 108/13/5 107/15/5
f 121/162/8 122/161/8 64/286/8
f 48/288/13 120/135/13 121/134/13
f 32/290/10 118/99/10 119/98/10
f 119/81/8 120/80/8 48/292/8
f 117/69/8 118/68/8 32/294/8
f 14/296/8 116/22/8 115/24/8
f 116/19/7 117/21/7 24/298/7
f 13/302/10 115/391/10 123/300/10
f 123/300/10 107/392/10 11/301/10
f 9/305/10 107/393/10 123/303/10
f 123/303/10 99/394/10 7/304/10
f 5/308/10 99/395/10 123/306/10
f 123/306/10 91/396/10 3/307/10
