# Blender 5.1.1
# www.blender.org
mtllib medium_greek_corinthian_capital.mtl
o corinthian
v -0.210262 0.900001 0.500000
v 1.210262 1.000001 0.500000
v -0.210262 1.000001 0.500000
v 1.210262 0.900001 0.500000
v 0.500000 0.900001 -0.210262
v 0.500000 1.000001 1.210262
v 0.500000 0.900001 1.210262
v 0.500000 1.000001 -0.210262
v 0.500000 0.757359 0.500000
v 0.500000 1.000001 0.500000
v 1.420000 1.000001 -0.345851
v 1.345851 1.000001 -0.420000
v 1.345851 0.900001 -0.420000
v 1.420000 0.900001 -0.345851
v 1.345851 1.000001 1.420000
v 1.420000 1.000001 1.345850
v 1.420000 0.900001 1.345850
v 1.345851 0.900001 1.420000
v -0.345850 1.000001 -0.420000
v -0.420000 1.000001 -0.345851
v -0.420000 0.900001 -0.345851
v -0.345850 0.900001 -0.420000
v -0.420000 1.000001 1.345850
v -0.345850 1.000001 1.420000
v -0.345850 0.900001 1.420000
v -0.420000 0.900001 1.345850
v -0.074255 0.900001 0.500000
v 1.074255 0.900001 0.500000
v 0.500000 0.900001 -0.074255
v 0.500000 0.900001 1.074256
v 1.243831 0.900001 -0.183880
v 1.183880 0.900001 -0.243830
v -0.243831 0.900001 1.183881
v -0.183880 0.900001 1.243831
v 1.183880 0.900001 1.243831
v 1.243831 0.900001 1.183881
v -0.183880 0.900001 -0.243830
v -0.243831 0.900001 -0.183880
v -0.074255 0.757359 0.500000
v 1.074255 0.757359 0.500000
v 0.500000 0.757359 -0.074255
v 0.500000 0.757359 1.074256
v 1.243831 0.757359 -0.183880
v 1.183880 0.757359 -0.243830
v -0.243831 0.757359 1.183881
v -0.183880 0.757359 1.243831
v 1.183880 0.757359 1.243831
v 1.243831 0.757359 1.183881
v -0.183880 0.757359 -0.243830
v -0.243831 0.757359 -0.183880
v 0.412915 0.646292 1.017799
v 0.412915 0.933104 1.095782
v 0.587083 0.646292 1.017799
v 0.587083 0.933104 1.095782
v 0.412915 0.611255 1.150483
v 0.412915 0.898067 1.228467
v 0.587083 0.611255 1.150483
v 0.587083 0.898067 1.228467
v -0.017800 0.646292 0.412913
v -0.095784 0.933104 0.412913
v -0.017800 0.646292 0.587081
v -0.095784 0.933104 0.587081
v -0.150485 0.611255 0.412913
v -0.228468 0.898067 0.412913
v -0.150485 0.611255 0.587081
v -0.228468 0.898067 0.587081
v 0.587085 0.646292 -0.017802
v 0.587085 0.933104 -0.095786
v 0.412917 0.646292 -0.017802
v 0.412917 0.933104 -0.095786
v 0.587085 0.611255 -0.150487
v 0.587085 0.898067 -0.228470
v 0.412917 0.611255 -0.150487
v 0.412917 0.898067 -0.228470
v 1.017801 0.646292 0.587084
v 1.095784 0.933104 0.587084
v 1.017801 0.646292 0.412916
v 1.095784 0.933104 0.412916
v 1.150485 0.611255 0.587084
v 1.228469 0.898067 0.587084
v 1.150485 0.611255 0.412916
v 1.228469 0.898067 0.412916
v 0.682932 0.481892 1.028784
v 0.682934 0.456676 1.083181
v 0.712285 0.418600 0.998834
v 0.712287 0.391015 1.058861
v 0.682931 0.355307 0.968887
v 0.682934 0.325353 1.034544
v 0.612067 0.329090 0.956484
v 0.612069 0.298154 1.024473
v 0.541202 0.355305 0.968892
v 0.541204 0.325352 1.034549
v 0.511849 0.418598 0.998841
v 0.511851 0.391013 1.058868
v 0.541203 0.481890 1.028789
v 0.541205 0.456675 1.083186
v 0.612067 0.508108 1.041192
v 0.612070 0.483874 1.093256
v 0.315911 0.456676 1.083189
v 0.315908 0.481891 1.028793
v 0.286557 0.391014 1.058872
v 0.286554 0.418598 0.998845
v 0.315910 0.325352 1.034552
v 0.315907 0.355306 0.968895
v 0.386774 0.298155 1.024476
v 0.386771 0.329090 0.956487
v 0.457639 0.325354 1.034546
v 0.457636 0.355308 0.968889
v 0.486993 0.391016 1.058863
v 0.486990 0.418600 0.998836
v 0.457640 0.456677 1.083183
v 0.457637 0.481893 1.028786
v 0.386776 0.483875 1.093259
v 0.386773 0.508108 1.041195
v -0.083189 0.456676 0.315905
v -0.028793 0.481891 0.315903
v -0.058872 0.391014 0.286552
v 0.001155 0.418598 0.286549
v -0.034552 0.325352 0.315905
v 0.031105 0.355306 0.315902
v -0.024476 0.298155 0.386769
v 0.043513 0.329090 0.386766
v -0.034546 0.325354 0.457634
v 0.031111 0.355308 0.457631
v -0.058864 0.391016 0.486988
v 0.001163 0.418600 0.486985
v -0.083183 0.456677 0.457635
v -0.028787 0.481893 0.457632
v -0.093259 0.483875 0.386770
v -0.041195 0.508108 0.386768
v -0.028786 0.481892 0.682927
v -0.083182 0.456676 0.682929
v 0.001164 0.418600 0.712280
v -0.058863 0.391015 0.712282
v 0.031112 0.355307 0.682927
v -0.034545 0.325353 0.682929
v 0.043515 0.329090 0.612062
v -0.024475 0.298154 0.612064
v 0.031107 0.355305 0.541197
v -0.034550 0.325352 0.541200
v 0.001158 0.418598 0.511845
v -0.058869 0.391013 0.511847
v -0.028790 0.481890 0.541198
v -0.083187 0.456675 0.541200
v -0.041193 0.508108 0.612063
v -0.093257 0.483874 0.612065
v 0.317075 0.481892 -0.028789
v 0.317073 0.456677 -0.083186
v 0.287722 0.418600 0.001160
v 0.287720 0.391015 -0.058867
v 0.317075 0.355307 0.031108
v 0.317073 0.325353 -0.034549
v 0.387940 0.329090 0.043512
v 0.387938 0.298154 -0.024478
v 0.458805 0.355305 0.031105
v 0.458803 0.325352 -0.034553
v 0.488158 0.418598 0.001155
v 0.488156 0.391013 -0.058872
v 0.458805 0.481890 -0.028793
v 0.458803 0.456675 -0.083190
v 0.387940 0.508108 -0.041196
v 0.387938 0.483874 -0.093261
v 0.684097 0.456676 -0.083191
v 0.684100 0.481891 -0.028795
v 0.713450 0.391014 -0.058874
v 0.713453 0.418598 0.001153
v 0.684098 0.325352 -0.034554
v 0.684100 0.355306 0.031103
v 0.613233 0.298155 -0.024479
v 0.613235 0.329090 0.043511
v 0.542368 0.325354 -0.034549
v 0.542371 0.355308 0.031108
v 0.513015 0.391016 -0.058866
v 0.513017 0.418600 0.001160
v 0.542368 0.456677 -0.083186
v 0.542370 0.481893 -0.028789
v 0.613232 0.483875 -0.093262
v 0.613235 0.508108 -0.041197
v 1.083189 0.456676 0.684098
v 1.028792 0.481891 0.684100
v 1.058871 0.391014 0.713451
v 0.998844 0.418598 0.713454
v 1.034552 0.325352 0.684098
v 0.968895 0.355306 0.684101
v 1.024477 0.298155 0.613234
v 0.956487 0.329090 0.613236
v 1.034547 0.325354 0.542369
v 0.968890 0.355308 0.542371
v 1.058865 0.391016 0.513016
v 0.998838 0.418601 0.513018
v 1.083184 0.456677 0.542369
v 1.028788 0.481893 0.542371
v 1.093260 0.483875 0.613233
v 1.041195 0.508108 0.613236
v 1.028788 0.481892 0.317076
v 1.083185 0.456677 0.317074
v 0.998839 0.418600 0.287722
v 1.058866 0.391015 0.287721
v 0.968891 0.355307 0.317076
v 1.034548 0.325353 0.317074
v 0.956487 0.329090 0.387940
v 1.024476 0.298154 0.387939
v 0.968894 0.355305 0.458805
v 1.034551 0.325352 0.458803
v 0.998843 0.418598 0.488158
v 1.058870 0.391013 0.488157
v 1.028791 0.481890 0.458805
v 1.083188 0.456675 0.458804
v 1.041195 0.508108 0.387940
v 1.093259 0.483874 0.387939
v 1.171556 0.723540 1.106061
v 1.118431 0.723540 1.219997
v 1.222050 0.590989 1.129606
v 1.168925 0.590989 1.243541
v 1.171556 0.458439 1.106062
v 1.118431 0.458439 1.219997
v 1.049652 0.403534 1.049221
v 0.996527 0.403534 1.163156
v 0.927748 0.458438 0.992380
v 0.874623 0.458438 1.106315
v 0.877254 0.590989 0.968836
v 0.824129 0.590989 1.082771
v 0.927748 0.723540 0.992380
v 0.874623 0.723540 1.106315
v 1.049652 0.778445 1.049221
v 0.996527 0.778445 1.163156
v 1.222236 0.723540 1.116186
v 1.108304 0.723540 1.169317
v 1.245783 0.590989 1.166680
v 1.131850 0.590989 1.219810
v 1.222236 0.458438 1.116186
v 1.108304 0.458438 1.169317
v 1.165389 0.403534 0.994285
v 1.051457 0.403534 1.047416
v 1.108542 0.458438 0.872385
v 0.994610 0.458438 0.925515
v 1.084995 0.590989 0.821892
v 0.971063 0.590989 0.875022
v 1.108542 0.723540 0.872385
v 0.994610 0.723540 0.925515
v 1.165389 0.778445 0.994286
v 1.051457 0.778445 1.047416
v 1.116193 0.723540 -0.222232
v 1.169322 0.723540 -0.108299
v 1.166686 0.590989 -0.245778
v 1.219816 0.590989 -0.131845
v 1.116193 0.458438 -0.222232
v 1.169322 0.458438 -0.108299
v 0.994291 0.403534 -0.165386
v 1.047421 0.403534 -0.051453
v 0.872390 0.458438 -0.108540
v 0.925519 0.458438 0.005393
v 0.821896 0.590989 -0.084994
v 0.875026 0.590989 0.028939
v 0.872390 0.723540 -0.108540
v 0.925519 0.723540 0.005393
v 0.994291 0.778445 -0.165386
v 1.047421 0.778445 -0.051453
v -0.171551 0.723540 -0.106066
v -0.118426 0.723540 -0.220001
v -0.222045 0.590989 -0.129611
v -0.168920 0.590989 -0.243546
v -0.171551 0.458439 -0.106066
v -0.118426 0.458439 -0.220001
v -0.049648 0.403534 -0.049225
v 0.003478 0.403534 -0.163160
v 0.072256 0.458438 0.007616
v 0.125382 0.458438 -0.106319
v 0.122750 0.590989 0.031161
v 0.175876 0.590989 -0.082774
v 0.072256 0.723540 0.007616
v 0.125381 0.723540 -0.106318
v -0.049648 0.778445 -0.049225
v 0.003478 0.778445 -0.163160
v 1.106067 0.723540 -0.171553
v 1.220002 0.723540 -0.118427
v 1.129612 0.590989 -0.222047
v 1.243547 0.590989 -0.168921
v 1.106067 0.458439 -0.171553
v 1.220002 0.458439 -0.118427
v 1.049226 0.403534 -0.049650
v 1.163160 0.403534 0.003476
v 0.992384 0.458439 0.072253
v 1.106318 0.458439 0.125379
v 0.968839 0.590989 0.122747
v 1.082773 0.590989 0.175873
v 0.992384 0.723540 0.072253
v 1.106318 0.723540 0.125379
v 1.049226 0.778445 -0.049650
v 1.163160 0.778445 0.003476
v -0.222231 0.723540 -0.116192
v -0.108299 0.723540 -0.169322
v -0.245778 0.590989 -0.166685
v -0.131845 0.590989 -0.219815
v -0.222231 0.458438 -0.116192
v -0.108299 0.458438 -0.169322
v -0.165385 0.403534 0.005710
v -0.051452 0.403534 -0.047421
v -0.108539 0.458438 0.127611
v 0.005394 0.458438 0.074481
v -0.084992 0.590989 0.178104
v 0.028940 0.590989 0.124974
v -0.108539 0.723540 0.127611
v 0.005394 0.723540 0.074481
v -0.165385 0.778445 0.005710
v -0.051452 0.778445 -0.047421
v -0.106062 0.723540 1.171553
v -0.219997 0.723540 1.118427
v -0.129607 0.590989 1.222047
v -0.243541 0.590989 1.168921
v -0.106062 0.458439 1.171553
v -0.219997 0.458439 1.118427
v -0.049221 0.403534 1.049649
v -0.163156 0.403534 0.996523
v 0.007620 0.458438 0.927745
v -0.106315 0.458438 0.874620
v 0.031164 0.590989 0.877251
v -0.082771 0.590989 0.824126
v 0.007620 0.723540 0.927745
v -0.106315 0.723540 0.874620
v -0.049221 0.778445 1.049649
v -0.163156 0.778445 0.996524
v -0.116187 0.723540 1.222233
v -0.169318 0.723540 1.108300
v -0.166681 0.590989 1.245780
v -0.219811 0.590989 1.131847
v -0.116187 0.458438 1.222233
v -0.169318 0.458438 1.108300
v 0.005714 0.403534 1.165386
v -0.047417 0.403534 1.051454
v 0.127615 0.458438 1.108540
v 0.074484 0.458438 0.994607
v 0.178108 0.590989 1.084993
v 0.124978 0.590989 0.971061
v 0.127615 0.723540 1.108540
v 0.074484 0.723540 0.994607
v 0.005714 0.778445 1.165386
v -0.047417 0.778445 1.051454
v 0.252099 -0.601999 -0.098486
v 0.252099 -0.521999 -0.098486
v 0.747901 -0.601999 -0.098486
v 0.747901 -0.521999 -0.098486
v 1.098486 -0.601999 0.252099
v 1.098486 -0.521999 0.252099
v 1.098486 -0.601999 0.747901
v 1.098486 -0.521999 0.747901
v 0.747901 -0.601999 1.098485
v 0.747901 -0.521999 1.098485
v 0.252099 -0.601999 1.098485
v 0.252099 -0.521999 1.098485
v -0.098486 -0.601999 0.747901
v -0.098486 -0.521999 0.747901
v -0.098486 -0.601999 0.252099
v -0.098486 -0.521999 0.252099
v 0.710338 -0.521999 -0.007800
v 0.289663 -0.521999 -0.007800
v 1.007800 -0.521999 0.289662
v 1.007800 -0.521999 0.710337
v 0.710338 -0.521999 1.007799
v 0.289663 -0.521999 1.007799
v -0.007800 -0.521999 0.710337
v -0.007800 -0.521999 0.289662
v 0.710338 -0.281999 -0.007800
v 0.289663 -0.281999 -0.007800
v 1.007800 -0.281999 0.289662
v 1.007800 -0.281999 0.710337
v 0.710338 -0.281999 1.007799
v 0.289663 -0.281999 1.007799
v -0.007800 -0.281999 0.710337
v -0.007800 -0.281999 0.289662
v 0.750272 0.198001 -0.104209
v 0.249729 0.198001 -0.104209
v 1.104209 0.198001 0.249728
v 1.104209 0.198001 0.750271
v 0.750272 0.198001 1.104208
v 0.249729 0.198001 1.104208
v -0.104209 0.198001 0.750271
v -0.104209 0.198001 0.249728
v 0.693025 0.198001 0.033995
v 0.306975 0.198001 0.033995
v 0.966004 0.198001 0.306974
v 0.966004 0.198001 0.693025
v 0.693025 0.198001 0.966004
v 0.306975 0.198001 0.966004
v 0.033996 0.198001 0.693025
v 0.033996 0.198001 0.306974
v 0.778087 0.758001 -0.171361
v 0.221913 0.758001 -0.171361
v 1.171362 0.758001 0.221913
v 1.171362 0.758001 0.778088
v 0.778087 0.758001 1.171363
v 0.221913 0.758001 1.171363
v -0.171362 0.758001 0.778088
v -0.171362 0.758001 0.221913
v -0.315131 0.900001 0.077075
v -0.315131 1.000001 0.077075
v -0.159043 0.900001 0.158060
v -0.159043 0.757359 0.158060
v -0.315131 0.900001 0.922925
v -0.315131 1.000001 0.922925
v -0.159043 0.900001 0.841940
v -0.159043 0.757359 0.841940
v 0.077075 0.900001 1.315131
v 0.077075 1.000001 1.315131
v 0.158060 0.900001 1.159043
v 0.158060 0.757359 1.159043
v 0.922925 0.900001 1.315131
v 0.922925 1.000001 1.315131
v 0.841940 0.900001 1.159043
v 0.841940 0.757359 1.159043
v 1.315131 0.900001 0.922925
v 1.315131 1.000001 0.922925
v 1.159043 0.900001 0.841940
v 1.159043 0.757359 0.841940
v 1.315131 0.900001 0.077075
v 1.315131 1.000001 0.077075
v 1.159043 0.900001 0.158060
v 1.159043 0.757359 0.158060
v 0.922925 0.900001 -0.315131
v 0.922925 1.000001 -0.315131
v 0.841940 0.900001 -0.159043
v 0.841940 0.757359 -0.159043
v 0.077075 0.900001 -0.315131
v 0.077075 1.000001 -0.315131
v 0.158060 0.900001 -0.159043
v 0.158060 0.757359 -0.159043
vn 0.7071 -0.0000 -0.7071
vn -0.7071 -0.0000 0.7071
vn 0.7071 -0.0000 0.7071
vn -0.7071 -0.0000 -0.7071
vn 0.9706 -0.0000 0.2407
vn -0.2407 -0.0000 -0.9706
vn -0.0000 1.0000 -0.0000
vn -0.0000 -1.0000 -0.0000
vn -0.2407 -0.0000 0.9706
vn 0.9706 -0.0000 -0.2407
vn 0.2407 -0.0000 -0.9706
vn -0.9706 -0.0000 0.2407
vn -0.9706 -0.0000 -0.2407
vn 0.2407 -0.0000 0.9706
vn -0.0000 0.2624 -0.9650
vn 1.0000 -0.0000 -0.0000
vn -0.0000 -0.2624 0.9650
vn -1.0000 -0.0000 -0.0000
vn -0.0000 -0.9669 -0.2553
vn -0.0000 0.9669 0.2553
vn 0.9650 0.2624 -0.0000
vn -0.0000 -0.0000 1.0000
vn -0.9650 -0.2624 -0.0000
vn -0.0000 -0.0000 -1.0000
vn 0.2553 -0.9669 -0.0000
vn -0.2553 0.9669 -0.0000
vn -0.0000 0.2624 0.9650
vn -0.0000 -0.2624 -0.9650
vn -0.0000 -0.9669 0.2553
vn -0.0000 0.9669 -0.2553
vn -0.9650 0.2624 -0.0000
vn 0.9650 -0.2624 -0.0000
vn -0.2553 -0.9669 -0.0000
vn 0.2553 0.9669 -0.0000
vn 0.9222 0.3508 0.1626
vn 0.9222 -0.3513 -0.1615
vn 0.3787 -0.8420 -0.3842
vn -0.3788 -0.8420 -0.3841
vn -0.9222 -0.3513 -0.1614
vn -0.9222 0.3508 0.1626
vn -0.0000 -0.3473 0.9378
vn -0.3788 0.8390 0.3906
vn 0.3788 0.8391 0.3905
vn -0.0000 0.4277 -0.9039
vn -0.9218 0.3522 0.1619
vn -0.9219 -0.3525 -0.1608
vn -0.3779 -0.8427 -0.3834
vn 0.3779 -0.8427 -0.3834
vn 0.9219 -0.3525 -0.1609
vn 0.9218 0.3522 0.1618
vn 0.3778 0.8400 0.3894
vn -0.3778 0.8400 0.3894
vn -0.1619 0.3522 -0.9218
vn 0.1608 -0.3526 -0.9219
vn 0.3834 -0.8427 -0.3779
vn 0.3834 -0.8427 0.3779
vn 0.1609 -0.3525 0.9219
vn -0.1618 0.3522 0.9218
vn 0.9039 0.4277 -0.0000
vn -0.3894 0.8400 0.3778
vn -0.3894 0.8400 -0.3778
vn -0.9378 -0.3473 -0.0000
vn -0.1626 0.3508 0.9222
vn 0.1615 -0.3513 0.9222
vn 0.3842 -0.8420 0.3787
vn 0.3841 -0.8420 -0.3788
vn 0.1614 -0.3513 -0.9222
vn -0.1626 0.3508 -0.9222
vn -0.3906 0.8390 -0.3788
vn -0.3905 0.8391 0.3788
vn -0.9222 0.3508 -0.1626
vn -0.9222 -0.3513 0.1615
vn -0.3787 -0.8420 0.3842
vn 0.3788 -0.8420 0.3841
vn 0.9222 -0.3513 0.1614
vn 0.9222 0.3508 -0.1626
vn -0.0000 -0.3473 -0.9378
vn 0.3788 0.8390 -0.3906
vn -0.3788 0.8391 -0.3905
vn -0.0000 0.4277 0.9039
vn 0.9218 0.3522 -0.1619
vn 0.9219 -0.3526 0.1608
vn 0.3779 -0.8427 0.3834
vn -0.3779 -0.8427 0.3834
vn -0.9219 -0.3525 0.1609
vn -0.9218 0.3522 -0.1618
vn -0.3778 0.8400 -0.3894
vn 0.3778 0.8400 -0.3894
vn 0.1619 0.3522 0.9218
vn -0.1608 -0.3526 0.9219
vn -0.3834 -0.8427 0.3779
vn -0.3834 -0.8427 -0.3779
vn -0.1609 -0.3525 -0.9219
vn 0.1618 0.3522 -0.9218
vn -0.9039 0.4277 -0.0000
vn 0.3894 0.8400 -0.3778
vn 0.3894 0.8400 0.3778
vn 0.9378 -0.3473 -0.0000
vn 0.1626 0.3508 -0.9222
vn -0.1615 -0.3513 -0.9222
vn -0.3841 -0.8420 -0.3788
vn -0.3841 -0.8420 0.3787
vn -0.1614 -0.3513 0.9222
vn 0.1626 0.3508 0.9222
vn 0.3906 0.8390 0.3788
vn 0.3905 0.8391 -0.3788
vn 0.8355 0.3875 0.3896
vn 0.8355 -0.3875 0.3896
vn 0.3425 -0.9258 0.1597
vn -0.3425 -0.9258 -0.1597
vn -0.8355 -0.3875 -0.3896
vn -0.8355 0.3875 -0.3896
vn -0.4226 -0.0000 0.9063
vn -0.3425 0.9258 -0.1597
vn 0.3425 0.9258 0.1597
vn 0.4226 -0.0000 -0.9063
vn 0.3896 0.3875 0.8355
vn 0.3896 -0.3875 0.8355
vn 0.1597 -0.9258 0.3425
vn -0.1597 -0.9258 -0.3425
vn -0.3896 -0.3875 -0.8355
vn -0.3896 0.3875 -0.8355
vn -0.9063 -0.0000 0.4226
vn -0.1597 0.9258 -0.3425
vn 0.1597 0.9258 0.3425
vn 0.9063 -0.0000 -0.4226
vn 0.8355 0.3875 -0.3896
vn 0.8355 -0.3875 -0.3896
vn 0.3425 -0.9258 -0.1597
vn -0.3425 -0.9258 0.1597
vn -0.8355 -0.3875 0.3896
vn -0.8355 0.3875 0.3896
vn 0.4226 -0.0000 0.9063
vn -0.3425 0.9258 0.1597
vn 0.3425 0.9258 -0.1597
vn -0.4226 -0.0000 -0.9063
vn 0.3896 0.3875 -0.8355
vn 0.3896 -0.3875 -0.8355
vn 0.1597 -0.9258 -0.3425
vn -0.1597 -0.9258 0.3425
vn -0.3896 -0.3875 0.8355
vn -0.3896 0.3875 0.8355
vn 0.9063 -0.0000 0.4226
vn -0.1597 0.9258 0.3425
vn 0.1597 0.9258 -0.3425
vn -0.9063 -0.0000 -0.4226
vn -0.6933 -0.1969 -0.6933
vn -0.6933 -0.1969 0.6933
vn 0.6933 -0.1969 0.6933
vn 0.6933 -0.1969 -0.6933
vn -0.9804 -0.1969 -0.0000
vn -0.0000 -0.1969 0.9804
vn 0.9804 -0.1969 -0.0000
vn -0.0000 -0.1969 -0.9804
vn -0.6639 -0.3443 -0.6639
vn -0.6639 -0.3443 0.6639
vn 0.6639 -0.3443 0.6639
vn 0.6639 -0.3443 -0.6639
vn -0.9389 -0.3443 -0.0000
vn -0.0000 -0.3443 0.9389
vn 0.9389 -0.3443 -0.0000
vn -0.0000 -0.3443 -0.9389
vn 0.1608 -0.3525 -0.9219
vn 0.9219 -0.3525 0.1608
vn -0.3841 -0.8420 0.3788
vn -0.3842 -0.8420 -0.3787
vn -0.1608 -0.3525 0.9219
vn 0.1618 0.3522 0.9218
vt 0.604417 0.439098
vt 0.516415 0.351096
vt 0.604417 0.351096
vt 0.474141 0.439098
vt 0.386139 0.351096
vt 0.474141 0.351096
vt 0.669555 0.504236
vt 0.581554 0.416234
vt 0.669555 0.416234
vt 0.409003 0.699650
vt 0.321001 0.611649
vt 0.409003 0.611649
vt 0.495535 0.667927
vt 0.136762 0.578234
vt 0.495535 0.578234
vt 0.690949 0.733065
vt 0.332176 0.643372
vt 0.690949 0.643372
vt 0.396575 0.840757
vt 0.047626 0.142859
vt 0.745524 0.491808
vt 0.487028 0.449065
vt 0.548299 0.224816
vt 0.621160 0.518658
vt 0.821226 0.407375
vt 0.462453 0.317681
vt 0.821226 0.317681
vt 0.495535 0.733065
vt 0.136762 0.643372
vt 0.495535 0.643372
vt 0.125000 0.610354
vt 0.418842 0.566340
vt 0.488435 0.700472
vt 0.495535 0.407375
vt 0.136762 0.317681
vt 0.495535 0.317681
vt 0.147326 0.591508
vt 0.496274 0.242559
vt 0.845223 0.940457
vt 0.728090 0.789371
vt 0.525184 0.701701
vt 0.576701 0.650183
vt 0.147326 0.142859
vt 0.273129 0.853090
vt 0.360799 0.650183
vt 0.412317 0.701701
vt 0.364158 0.543345
vt 0.430984 0.409694
vt 0.430984 0.543345
vt 0.440687 0.407163
vt 0.745284 0.285324
vt 0.745284 0.407163
vt 0.310411 0.797992
vt 0.615008 0.676153
vt 0.615008 0.797992
vt 0.559573 0.738759
vt 0.626398 0.605109
vt 0.626398 0.738759
vt 0.550935 0.299528
vt 0.775184 0.360799
vt 0.481342 0.433660
vt 0.398129 0.146910
vt 0.485799 0.349816
vt 0.334410 0.210629
vt 0.511565 0.762972
vt 0.287317 0.701701
vt 0.581158 0.628840
vt 0.812500 0.327145
vt 0.518659 0.371160
vt 0.449065 0.237028
vt 0.700472 0.613435
vt 0.639201 0.837683
vt 0.566340 0.543842
vt 0.610354 0.500000
vt 0.566340 0.206158
vt 0.700472 0.136565
vt 0.790590 0.210629
vt 0.587684 0.298299
vt 0.726871 0.146910
vt 0.577146 0.437500
vt 0.621160 0.731342
vt 0.487028 0.800935
vt 0.587981 0.086429
vt 0.879415 0.417065
vt 0.316148 0.669296
vt 0.879415 0.861259
vt 0.859813 0.959264
vt 0.587981 0.939663
vt 0.376417 0.043530
vt 0.628649 0.606796
vt 0.065382 0.354564
vt 0.065382 0.609027
vt 0.628649 0.356796
vt 0.376417 0.920062
vt 0.180134 0.602577
vt 0.484732 0.480738
vt 0.484732 0.602577
vt 0.299020 0.738759
vt 0.365846 0.605109
vt 0.365846 0.738759
vt 0.114996 0.407163
vt 0.419594 0.285324
vt 0.419594 0.407163
vt 0.375549 0.472301
vt 0.680146 0.350462
vt 0.680146 0.472301
vt 0.180134 0.407163
vt 0.484732 0.285324
vt 0.484732 0.407163
vt 0.559573 0.478207
vt 0.626398 0.344556
vt 0.626398 0.478207
vt 0.440687 0.732853
vt 0.745284 0.611015
vt 0.745284 0.732853
vt 0.440687 0.797992
vt 0.745284 0.676153
vt 0.745284 0.797992
vt 0.544188 0.248480
vt 0.348661 0.444007
vt 0.348661 0.248480
vt 0.712694 0.745647
vt 0.570984 0.533083
vt 0.712694 0.533083
vt 0.656524 0.601052
vt 0.496877 0.840523
vt 0.496877 0.601052
vt 0.321865 0.337669
vt 0.180156 0.550233
vt 0.180156 0.337669
vt 0.382578 0.540366
vt 0.249719 0.673226
vt 0.249719 0.540366
vt 0.510271 0.540366
vt 0.643131 0.673226
vt 0.510271 0.673226
vt 0.348661 0.248480
vt 0.544188 0.444007
vt 0.387003 0.745647
vt 0.245294 0.533083
vt 0.387003 0.533083
vt 0.461110 0.514832
vt 0.301463 0.275362
vt 0.461110 0.275362
vt 0.570984 0.745647
vt 0.382578 0.540366
vt 0.510271 0.540366
vt 0.643131 0.673226
vt 0.510271 0.673226
vt 0.387003 0.680509
vt 0.245294 0.467945
vt 0.387003 0.467945
vt 0.330834 0.710247
vt 0.171187 0.470776
vt 0.330834 0.470776
vt 0.647556 0.467945
vt 0.505846 0.680509
vt 0.505846 0.467945
vt 0.712694 0.810785
vt 0.570984 0.598221
vt 0.712694 0.598221
vt 0.591386 0.579970
vt 0.431739 0.340500
vt 0.591386 0.340500
vt 0.321865 0.272530
vt 0.180156 0.485095
vt 0.180156 0.272530
vt 0.643131 0.540366
vt 0.274702 0.495511
vt 0.312932 0.587805
vt 0.274702 0.587805
vt 0.313837 0.589991
vt 0.273797 0.493325
vt 0.313837 0.493325
vt 0.314551 0.591715
vt 0.273083 0.491601
vt 0.314551 0.491601
vt 0.314552 0.491601
vt 0.273083 0.591715
vt 0.273083 0.491601
vt 0.313837 0.493325
vt 0.273797 0.589991
vt 0.273797 0.493325
vt 0.312932 0.495511
vt 0.274702 0.587805
vt 0.274702 0.495511
vt 0.644330 0.643530
vt 0.500566 0.703548
vt 0.643530 0.355670
vt 0.312354 0.496906
vt 0.275280 0.586409
vt 0.275280 0.496906
vt 0.312354 0.586409
vt 0.275280 0.496906
vt 0.312354 0.496906
vt 0.525518 0.574419
vt 0.413663 0.462565
vt 0.525518 0.508896
vt 0.274702 0.587805
vt 0.312932 0.495511
vt 0.312932 0.587805
vt 0.313837 0.493325
vt 0.273797 0.589991
vt 0.273797 0.493325
vt 0.314551 0.491601
vt 0.273083 0.591715
vt 0.273083 0.491601
vt 0.314552 0.591715
vt 0.273083 0.491601
vt 0.314552 0.491601
vt 0.313837 0.589991
vt 0.312932 0.587805
vt 0.274702 0.495511
vt 0.312932 0.495511
vt 0.367332 0.508896
vt 0.413663 0.462565
vt 0.413663 0.620751
vt 0.312354 0.586409
vt 0.275280 0.496907
vt 0.312354 0.496907
vt 0.312354 0.496907
vt 0.275280 0.586409
vt 0.275280 0.496907
vt 0.645194 0.357344
vt 0.501795 0.296459
vt 0.498205 0.703541
vt 0.312932 0.495511
vt 0.312932 0.587805
vt 0.273797 0.589991
vt 0.313837 0.589991
vt 0.273797 0.493325
vt 0.313837 0.493325
vt 0.367332 0.508896
vt 0.413663 0.462565
vt 0.413663 0.620751
vt 0.312354 0.586409
vt 0.275280 0.496906
vt 0.312354 0.496906
vt 0.275280 0.586409
vt 0.274702 0.495511
vt 0.274702 0.587805
vt 0.313837 0.493325
vt 0.273083 0.491601
vt 0.273797 0.589991
vt 0.273797 0.493325
vt 0.312354 0.496906
vt 0.275280 0.586409
vt 0.275280 0.496906
vt 0.525518 0.574419
vt 0.367332 0.508896
vt 0.314552 0.491601
vt 0.312354 0.586409
vt 0.312932 0.495511
vt 0.312932 0.587805
vt 0.312932 0.587805
vt 0.314551 0.491601
vt 0.313837 0.589991
vt 0.274702 0.587805
vt 0.312932 0.495511
vt 0.274702 0.495511
vt 0.519568 0.493079
vt 0.601265 0.329684
vt 0.601265 0.493079
vt 0.584706 0.753631
vt 0.666403 0.590237
vt 0.666403 0.753631
vt 0.731753 0.754055
vt 0.649632 0.589813
vt 0.731753 0.589813
vt 0.275786 0.754055
vt 0.193665 0.589813
vt 0.275786 0.589813
vt 0.575532 0.738635
vt 0.675589 0.605222
vt 0.675589 0.738647
vt 0.330997 0.631417
vt 0.256637 0.451899
vt 0.330997 0.451899
vt 0.355670 0.643530
vt 0.499434 0.703548
vt 0.356470 0.355670
vt 0.331190 0.631882
vt 0.256445 0.451433
vt 0.331190 0.451433
vt 0.584494 0.754055
vt 0.666615 0.589813
vt 0.666615 0.754055
vt 0.596348 0.479558
vt 0.596348 0.603758
vt 0.296501 0.479558
vt 0.259015 0.753631
vt 0.340713 0.590237
vt 0.340713 0.753631
vt 0.193877 0.427941
vt 0.275575 0.264546
vt 0.275575 0.427941
vt 0.519356 0.754055
vt 0.601477 0.589813
vt 0.601477 0.754055
vt 0.323942 0.623779
vt 0.406062 0.459537
vt 0.406062 0.623779
vt 0.349898 0.673508
vt 0.249841 0.540095
vt 0.349898 0.540083
vt 0.330997 0.451899
vt 0.256637 0.631417
vt 0.256637 0.451899
vt 0.296501 0.479557
vt 0.384324 0.391734
vt 0.384324 0.691581
vt 0.323942 0.459537
vt 0.354806 0.357344
vt 0.498205 0.296459
vt 0.501795 0.703541
vt 0.519568 0.753631
vt 0.601265 0.590237
vt 0.601265 0.753631
vt 0.649844 0.818769
vt 0.731541 0.655375
vt 0.731541 0.818769
vt 0.193665 0.754055
vt 0.519356 0.819193
vt 0.601477 0.654951
vt 0.601477 0.819193
vt 0.405851 0.688493
vt 0.324153 0.525099
vt 0.405851 0.525099
vt 0.256637 0.631417
vt 0.256445 0.451433
vt 0.331190 0.451433
vt 0.519356 0.493502
vt 0.601477 0.329261
vt 0.601477 0.493502
vt 0.357345 0.645194
vt 0.405851 0.753631
vt 0.324153 0.590237
vt 0.405851 0.590237
vt 0.519568 0.688493
vt 0.601265 0.525099
vt 0.601265 0.688493
vt 0.406062 0.493503
vt 0.323942 0.329261
vt 0.406062 0.329261
vt 0.389185 0.868322
vt 0.471095 0.704503
vt 0.471095 0.868322
vt 0.389185 0.704503
vt 0.471095 0.540684
vt 0.610451 0.543232
vt 0.510394 0.409819
vt 0.610451 0.409807
vt 0.331190 0.451433
vt 0.256445 0.631882
vt 0.406063 0.428364
vt 0.323942 0.264123
vt 0.406063 0.264123
vt 0.596348 0.479558
vt 0.296501 0.479558
vt 0.259015 0.688493
vt 0.340713 0.525099
vt 0.340713 0.688493
vt 0.193877 0.427941
vt 0.275575 0.427941
vt 0.406063 0.688917
vt 0.323942 0.524675
vt 0.406063 0.524675
vt 0.649632 0.754055
vt 0.731753 0.754055
vt 0.259015 0.753631
vt 0.340713 0.590237
vt 0.340713 0.753631
vt 0.330997 0.631417
vt 0.519356 0.493503
vt 0.601477 0.329261
vt 0.601477 0.493503
vt 0.519568 0.753631
vt 0.601265 0.753631
vt 0.275574 0.558217
vt 0.193877 0.394823
vt 0.275574 0.394823
vt 0.649632 0.754055
vt 0.258804 0.428364
vt 0.340924 0.264123
vt 0.340924 0.428364
vt 0.193877 0.427941
vt 0.275575 0.427941
vt 0.575532 0.608358
vt 0.675589 0.474945
vt 0.675589 0.608370
vt 0.296501 0.479557
vt 0.384324 0.391734
vt 0.384324 0.691581
vt 0.258804 0.754055
vt 0.340924 0.589813
vt 0.340924 0.754055
vt 0.259015 0.688493
vt 0.340713 0.688493
vt 0.193877 0.427941
vt 0.275574 0.264546
vt 0.275574 0.427941
vt 0.249582 0.673842
vt 0.350158 0.539738
vt 0.350158 0.673854
vt 0.731753 0.819193
vt 0.649632 0.654951
vt 0.731753 0.654951
vt 0.256637 0.451899
vt 0.584706 0.753631
vt 0.193877 0.623355
vt 0.275575 0.459961
vt 0.275575 0.623355
vt 0.444996 0.673842
vt 0.545572 0.539738
vt 0.545572 0.673854
vt 0.519356 0.589813
vt 0.601477 0.589813
vt 0.193877 0.688493
vt 0.275575 0.525099
vt 0.275575 0.688493
vt 0.184703 0.412944
vt 0.284760 0.279531
vt 0.284760 0.412956
vt 0.323942 0.558641
vt 0.406062 0.394399
vt 0.406062 0.558641
vt 0.768542 0.817864
vt 0.349310 0.747992
vt 0.768542 0.747992
vt 0.543540 0.667863
vt 0.124308 0.597991
vt 0.543540 0.597991
vt 0.768542 0.592862
vt 0.349310 0.522990
vt 0.768542 0.522990
vt 0.349310 0.747992
vt 0.693541 0.442861
vt 0.274309 0.372989
vt 0.693541 0.372989
vt 0.768542 0.817864
vt 0.349310 0.747992
vt 0.768542 0.747992
vt 0.748963 0.745593
vt 0.331237 0.818941
vt 0.292538 0.745593
vt 0.843542 0.517862
vt 0.424310 0.447990
vt 0.843542 0.447990
vt 0.468539 0.367860
vt 0.049307 0.297988
vt 0.468539 0.297988
vt 0.312500 1.000000
vt -0.000000 0.312500
vt 0.687500 -0.000000
vt 0.764474 0.255834
vt 0.411955 0.467346
vt 0.411955 0.255834
vt 0.367539 0.370589
vt 0.786633 0.443937
vt 0.406238 0.443937
vt 0.823963 0.445590
vt 0.406238 0.518938
vt 0.367539 0.445590
vt 0.067536 0.595591
vt 0.486631 0.668939
vt 0.106235 0.668939
vt 0.523960 0.445590
vt 0.106236 0.518938
vt 0.067537 0.445590
vt 0.523961 0.595591
vt 0.106235 0.668939
vt 0.067536 0.595591
vt 0.367539 0.445590
vt 0.786633 0.518938
vt 0.406238 0.518938
vt 0.142537 0.595591
vt 0.561631 0.668939
vt 0.181236 0.668939
vt 0.774483 0.440712
vt 0.401946 0.887757
vt 0.401946 0.440712
vt 0.480895 0.495726
vt 0.128375 0.707237
vt 0.128375 0.495726
vt 0.764474 0.419468
vt 0.411955 0.630980
vt 0.411955 0.419468
vt 0.644529 0.255834
vt 0.292009 0.467346
vt 0.292009 0.255834
vt 0.611960 0.343211
vt 0.259440 0.554722
vt 0.259440 0.343211
vt 0.764474 0.495726
vt 0.411955 0.707237
vt 0.411955 0.495726
vt 0.764474 0.571983
vt 0.411955 0.783495
vt 0.411955 0.571983
vt 0.480895 0.255834
vt 0.128375 0.467346
vt 0.128375 0.255834
vt 0.583081 0.474393
vt 0.246757 0.608923
vt 0.179492 0.474393
vt 0.654537 0.244509
vt 0.282000 0.691553
vt 0.282000 0.244509
vt 0.490903 0.244509
vt 0.118366 0.691553
vt 0.118366 0.244509
vt 0.774483 0.244509
vt 0.401946 0.691553
vt 0.401946 0.244509
vt 0.401946 0.244509
vt 0.774483 0.691553
vt 0.401946 0.691553
vt 0.774483 0.244509
vt 0.654538 0.244509
vt 0.282000 0.691553
vt 0.282000 0.244509
vt 0.490903 0.440712
vt 0.118366 0.887757
vt 0.118366 0.440712
vt 0.513407 0.278647
vt 0.118890 0.804669
vt 0.118890 0.278647
vt 0.583081 0.474393
vt 0.179492 0.474393
vt 0.179492 0.474393
vt 0.515816 0.608923
vt 0.246757 0.608923
vt 0.246757 0.608923
vt 0.179492 0.474393
vt 0.583081 0.474393
vt 0.179492 0.474393
vt 1.000000 0.687500
vt 0.643683 0.376354
vt 0.249166 0.902376
vt 0.249166 0.376354
vt 0.118890 0.343785
vt 0.513407 0.869807
vt 0.118890 0.869807
vt 0.249166 0.343785
vt 0.643683 0.869807
vt 0.249166 0.869807
vt 0.643683 0.180940
vt 0.249166 0.706962
vt 0.249166 0.180940
vt 0.806528 0.408923
vt 0.412011 0.934945
vt 0.412011 0.408923
vt 0.379443 0.278647
vt 0.773959 0.804669
vt 0.379443 0.804669
vt 0.249166 0.408923
vt 0.643683 0.934945
vt 0.249166 0.934945
vt 0.500000 0.735354
vt 0.206158 0.691340
vt 0.500000 0.618479
vt 0.745284 0.611015
vt 0.821226 0.342237
vt 0.462453 0.252543
vt 0.821226 0.252543
vt 0.332176 0.643372
vt 0.690949 0.643372
vt 0.238435 0.575472
vt 0.462684 0.514201
vt 0.601871 0.665590
vt 0.610354 0.562500
vt 0.566340 0.856342
vt 0.493479 0.562500
vt 0.821226 0.733065
vt 0.462453 0.643372
vt 0.821226 0.643372
vt 0.700472 0.386565
vt 0.639201 0.162316
vt 0.790590 0.023129
vt 0.375549 0.797992
vt 0.680146 0.676153
vt 0.680146 0.797992
vt 0.560673 0.733065
vt 0.201900 0.643372
vt 0.560673 0.643372
vt 0.500000 0.264645
vt 0.793842 0.308660
vt 0.500000 0.381521
vt 0.756087 0.733065
vt 0.397314 0.643372
vt 0.756087 0.643372
vt 0.574065 0.174528
vt 0.349817 0.235799
vt 0.210629 0.084410
vt 0.756087 0.733065
vt 0.397314 0.643372
vt 0.756087 0.643372
vt 0.327146 0.625000
vt 0.371160 0.331158
vt 0.444022 0.625000
vt 0.690949 0.798203
vt 0.332176 0.708510
vt 0.690949 0.708510
vt 0.440687 0.472301
vt 0.745284 0.350462
vt 0.745284 0.472301
vt 0.424528 0.425935
vt 0.485799 0.650183
vt 0.334410 0.789371
vt 0.690949 0.472513
vt 0.332176 0.382820
vt 0.690949 0.382820
vt 0.516415 0.439098
vt 0.386139 0.439098
vt 0.581554 0.504236
vt 0.321001 0.699650
vt 0.136762 0.667927
vt 0.332176 0.733065
vt 0.845223 0.840757
vt 0.745524 0.940456
vt 0.047626 0.741057
vt 0.645824 0.142859
vt 0.396910 0.085629
vt 0.462453 0.407375
vt 0.136762 0.733065
vt 0.125000 0.493479
vt 0.136762 0.407375
vt 0.247025 0.940456
vt 0.047626 0.242559
vt 0.845223 0.342259
vt 0.664371 0.853090
vt 0.209410 0.789371
vt 0.364158 0.409694
vt 0.440687 0.285324
vt 0.310411 0.676153
vt 0.559573 0.605109
vt 0.914371 0.209410
vt 0.537317 0.298299
vt 0.148129 0.853090
vt 0.812500 0.444021
vt 0.790590 0.976871
vt 0.493479 0.500000
vt 0.639201 0.349816
vt 0.694022 0.437500
vt 0.316148 0.106030
vt 0.859813 0.066828
vt 0.879415 0.164834
vt 0.879415 0.669296
vt 0.316148 0.920062
vt 0.316148 0.356796
vt 0.879415 0.356796
vt 0.879415 0.609027
vt 0.065382 0.102334
vt 0.124186 0.043530
vt 0.628649 0.043530
vt 0.065382 0.606796
vt 0.065382 0.356796
vt 0.628649 0.920062
vt 0.124186 0.920062
vt 0.065382 0.861259
vt 0.180134 0.480738
vt 0.299020 0.605109
vt 0.114996 0.285324
vt 0.375549 0.350462
vt 0.180134 0.285324
vt 0.559573 0.344556
vt 0.440687 0.611015
vt 0.440687 0.676153
vt 0.656524 0.840523
vt 0.321865 0.550233
vt 0.382578 0.673226
vt 0.544188 0.248480
vt 0.245294 0.745647
vt 0.301463 0.514832
vt 0.382578 0.673226
vt 0.245294 0.680509
vt 0.171187 0.710247
vt 0.647556 0.680509
vt 0.570984 0.810785
vt 0.431739 0.579970
vt 0.321865 0.485095
vt 0.312932 0.495511
vt 0.273797 0.589991
vt 0.273083 0.591715
vt 0.314552 0.591715
vt 0.356470 0.644330
vt 0.296452 0.500566
vt 0.355670 0.356470
vt 0.499434 0.296452
vt 0.703548 0.499434
vt 0.312354 0.586409
vt 0.275280 0.586409
vt 0.479186 0.620751
vt 0.367332 0.574419
vt 0.413663 0.620751
vt 0.479186 0.462565
vt 0.274702 0.495511
vt 0.313837 0.589991
vt 0.314551 0.591715
vt 0.273083 0.591715
vt 0.274702 0.587805
vt 0.479186 0.462565
vt 0.525518 0.508896
vt 0.525518 0.574419
vt 0.479186 0.620751
vt 0.367332 0.574419
vt 0.357344 0.354805
vt 0.354805 0.642655
vt 0.296459 0.498204
vt 0.642655 0.645194
vt 0.703541 0.501795
vt 0.274702 0.495511
vt 0.479186 0.462565
vt 0.479186 0.620751
vt 0.367332 0.574419
vt 0.275280 0.586409
vt 0.312932 0.495511
vt 0.367332 0.574419
vt 0.413663 0.620751
vt 0.413663 0.462565
vt 0.479186 0.462565
vt 0.312932 0.587805
vt 0.274702 0.495511
vt 0.519568 0.329684
vt 0.584706 0.590237
vt 0.575532 0.605233
vt 0.256637 0.631417
vt 0.643530 0.644330
vt 0.703548 0.500566
vt 0.644330 0.356470
vt 0.500566 0.296452
vt 0.296452 0.499434
vt 0.584494 0.589813
vt 0.508525 0.691581
vt 0.384324 0.691581
vt 0.296501 0.603758
vt 0.384324 0.391734
vt 0.508525 0.391734
vt 0.259015 0.590237
vt 0.193877 0.264546
vt 0.519356 0.589813
vt 0.249841 0.673496
vt 0.508525 0.391734
vt 0.596348 0.479557
vt 0.596348 0.603758
vt 0.508525 0.691581
vt 0.296501 0.603758
vt 0.642656 0.354805
vt 0.703541 0.498204
vt 0.645195 0.642655
vt 0.296459 0.501795
vt 0.519568 0.590237
vt 0.649844 0.655375
vt 0.519356 0.654951
vt 0.324153 0.688493
vt 0.519356 0.329261
vt 0.324153 0.753631
vt 0.519568 0.525099
vt 0.323942 0.493503
vt 0.389185 0.540684
vt 0.510394 0.543220
vt 0.323942 0.428364
vt 0.508525 0.691581
vt 0.296501 0.603758
vt 0.384324 0.691581
vt 0.259015 0.525099
vt 0.323942 0.688917
vt 0.259015 0.590237
vt 0.519356 0.329261
vt 0.519568 0.590237
vt 0.193877 0.558217
vt 0.258804 0.264123
vt 0.575532 0.474957
vt 0.508525 0.391734
vt 0.296501 0.603758
vt 0.258804 0.589813
vt 0.193877 0.264546
vt 0.249582 0.539749
vt 0.649632 0.819193
vt 0.584706 0.590237
vt 0.193877 0.459961
vt 0.444996 0.539749
vt 0.193877 0.525099
vt 0.184703 0.279543
vt 0.323942 0.394399
vt 0.349310 0.817864
vt 0.124308 0.667863
vt 0.349310 0.592862
vt 0.349310 0.817864
vt 0.274309 0.442861
vt 0.349310 0.817864
vt 0.711633 0.818941
vt 0.424310 0.517862
vt 0.049307 0.367860
vt 0.687500 1.000000
vt -0.000000 0.687500
vt 0.312500 -0.000000
vt 1.000000 0.312500
vt 0.764474 0.467346
vt 0.823963 0.370589
vt 0.786633 0.518938
vt 0.523961 0.595591
vt 0.486630 0.518938
vt 0.486631 0.668939
vt 0.823963 0.445590
vt 0.598961 0.595591
vt 0.774483 0.887757
vt 0.480895 0.707237
vt 0.764474 0.630980
vt 0.644529 0.467346
vt 0.611960 0.554722
vt 0.764474 0.707237
vt 0.764474 0.783495
vt 0.480895 0.467346
vt 0.515816 0.608923
vt 0.654537 0.691553
vt 0.490903 0.691553
vt 0.774483 0.691553
vt 0.654538 0.691553
vt 0.490903 0.887757
vt 0.513407 0.804669
vt 0.515816 0.608923
vt 0.515816 0.608923
vt 0.643683 0.902376
vt 0.513407 0.343785
vt 0.643683 0.343785
vt 0.643683 0.706962
vt 0.806528 0.934945
vt 0.773959 0.278647
vt 0.643683 0.408923
vt 0.136565 0.825472
vt 0.440687 0.611015
vt 0.462453 0.342237
vt 0.168842 0.441340
vt 0.700472 0.925935
vt 0.462453 0.733065
vt 0.566340 0.456158
vt 0.375549 0.676153
vt 0.201900 0.733065
vt 0.863435 0.174528
vt 0.397314 0.733065
vt 0.643659 0.308660
vt 0.397314 0.733065
vt 0.237028 0.261565
vt 0.332176 0.798203
vt 0.440687 0.350462
vt 0.558660 0.356342
vt 0.332176 0.472513
s 0
usemtl base
f 14/1/1 12/2/1 11/3/1
f 24/4/2 26/5/2 25/6/2
f 18/7/3 16/8/3 15/9/3
f 22/10/4 20/11/4 19/12/4
f 416/13/5 4/14/5 415/15/5
f 420/16/6 13/17/6 419/18/6
f 420/19/7 10/20/7 416/21/7
f 419/22/8 32/23/8 421/24/8
f 408/25/9 7/26/9 407/27/9
f 412/28/10 17/29/10 411/30/10
f 412/19/7 10/20/7 408/21/7
f 1/31/8 401/32/8 399/33/8
f 424/28/11 5/29/11 423/30/11
f 396/34/12 21/35/12 395/36/12
f 424/37/7 396/38/7 10/39/7
f 25/40/8 33/41/8 34/42/8
f 400/28/13 1/29/13 399/30/13
f 404/34/14 25/35/14 403/36/14
f 400/37/7 24/43/7 404/38/7
f 21/44/8 37/45/8 38/46/8
f 37/47/4 50/48/4 38/49/4
f 30/50/9 410/51/9 409/52/9
f 38/53/12 398/54/12 397/55/12
f 35/56/3 48/57/3 36/58/3
f 411/59/8 36/60/8 413/61/8
f 14/62/8 32/63/8 13/64/8
f 395/65/8 38/66/8 397/67/8
f 4/68/8 417/69/8 415/70/8
f 403/71/8 34/72/8 405/73/8
f 7/74/8 409/75/8 407/76/8
f 18/77/8 36/78/8 17/79/8
f 5/80/8 425/81/8 423/82/8
f 422/83/8 418/84/8 9/85/8
f 48/86/8 47/87/8 410/88/8
f 426/89/8 9/90/8 398/91/8
f 402/92/8 9/93/8 406/94/8
f 27/95/13 402/96/13 401/97/13
f 31/98/1 44/99/1 32/100/1
f 36/101/10 414/102/10 413/103/10
f 28/104/5 418/105/5 417/106/5
f 34/107/14 406/108/14 405/109/14
f 33/110/2 46/111/2 34/112/2
f 29/113/11 426/114/11 425/115/11
f 32/116/6 422/117/6 421/118/6
f 52/119/15 53/120/15 51/121/15
f 54/122/16 57/123/16 53/124/16
f 57/125/17 56/126/17 55/127/17
f 55/128/18 52/129/18 51/130/18
f 57/131/19 51/132/19 53/133/19
f 58/134/20 52/135/20 56/136/20
f 59/137/21 62/138/21 61/120/21
f 62/139/22 65/140/22 61/141/22
f 66/142/23 63/143/23 65/144/23
f 63/124/24 60/145/24 59/123/24
f 65/146/25 59/132/25 61/133/25
f 66/147/26 60/148/26 64/149/26
f 68/119/27 69/120/27 67/121/27
f 70/150/18 73/151/18 69/152/18
f 74/153/28 71/154/28 73/155/28
f 71/156/16 68/157/16 67/158/16
f 73/131/29 67/132/29 69/133/29
f 74/134/30 68/135/30 72/136/30
f 76/119/31 77/120/31 75/121/31
f 78/159/24 81/160/24 77/161/24
f 82/162/32 79/163/32 81/164/32
f 79/165/22 76/166/22 75/167/22
f 81/131/33 75/132/33 77/133/33
f 78/168/34 80/149/34 82/147/34
f 84/169/35 85/170/35 83/171/35
f 86/172/36 87/173/36 85/174/36
f 88/175/37 89/176/37 87/177/37
f 89/178/38 92/179/38 91/180/38
f 91/181/39 94/182/39 93/183/39
f 93/184/40 96/185/40 95/186/40
f 95/190/42 98/191/42 97/192/42
f 98/193/43 83/194/43 97/195/43
f 97/196/44 91/197/44 95/198/44
f 99/199/45 102/200/45 101/201/45
f 101/202/46 104/203/46 103/204/46
f 103/205/47 106/206/47 105/207/47
f 106/208/48 107/209/48 105/210/48
f 108/211/49 109/183/49 107/181/49
f 110/212/50 111/213/50 109/214/50
f 108/215/44 106/216/44 112/217/44
f 112/218/51 113/219/51 111/220/51
f 113/221/52 100/222/52 99/223/52
f 115/199/53 118/227/53 117/228/53
f 117/202/54 120/229/54 119/204/54
f 119/205/55 122/206/55 121/207/55
f 122/208/56 123/209/56 121/210/56
f 124/230/57 125/231/57 123/232/57
f 126/212/58 127/186/58 125/184/58
f 124/233/59 122/234/59 128/235/59
f 128/236/60 129/237/60 127/238/60
f 129/220/61 116/239/61 115/219/61
f 132/240/63 133/170/63 131/241/63
f 134/211/64 135/231/64 133/242/64
f 136/175/65 137/243/65 135/177/65
f 137/210/66 140/179/66 139/209/66
f 139/181/67 142/244/67 141/245/67
f 141/184/68 144/185/68 143/186/68
f 143/246/69 146/247/69 145/248/69
f 146/193/70 131/194/70 145/195/70
f 143/198/59 145/249/59 137/250/59
f 148/240/71 149/170/71 147/241/71
f 150/211/72 151/231/72 149/242/72
f 152/175/73 153/176/73 151/177/73
f 153/251/74 156/179/74 155/209/74
f 155/181/75 158/182/75 157/183/75
f 157/184/76 160/185/76 159/186/76
f 159/246/78 162/247/78 161/248/78
f 162/252/79 147/194/79 161/195/79
f 159/198/80 161/249/80 153/250/80
f 163/185/81 166/253/81 165/254/81
f 165/202/82 168/229/82 167/204/82
f 167/205/83 170/179/83 169/207/83
f 170/208/84 171/209/84 169/210/84
f 172/211/85 173/183/85 171/181/85
f 174/255/86 175/186/86 173/184/86
f 172/215/80 170/216/80 176/217/80
f 176/236/87 177/194/87 175/246/87
f 177/220/88 164/239/88 163/219/88
f 179/185/89 182/253/89 181/254/89
f 181/242/90 184/182/90 183/231/90
f 183/256/91 186/179/91 185/180/91
f 186/208/92 187/209/92 185/210/92
f 188/257/93 189/231/93 187/242/93
f 190/212/94 191/186/94 189/184/94
f 188/215/95 186/216/95 192/217/95
f 192/236/96 193/219/96 191/220/96
f 193/220/97 180/239/97 179/219/97
f 196/240/99 197/254/99 195/258/99
f 198/211/100 199/231/100 197/242/100
f 200/175/101 201/176/101 199/177/101
f 201/210/102 204/179/102 203/209/102
f 203/181/103 206/244/103 205/245/103
f 205/259/104 208/185/104 207/260/104
f 207/246/105 210/247/105 209/248/105
f 210/236/106 195/194/106 209/195/106
f 207/198/95 209/249/95 201/250/95
f 212/261/107 213/262/107 211/263/107
f 214/264/108 215/265/108 213/266/108
f 215/267/109 218/268/109 217/269/109
f 217/270/110 220/271/110 219/272/110
f 220/273/111 221/274/111 219/275/111
f 222/276/112 223/277/112 221/278/112
f 224/282/114 225/283/114 223/284/114
f 226/285/115 211/286/115 225/287/115
f 223/288/116 225/289/116 217/290/116
f 228/291/117 229/292/117 227/293/117
f 230/294/118 231/295/118 229/296/118
f 232/297/119 233/298/119 231/299/119
f 234/300/120 235/301/120 233/302/120
f 235/303/121 238/304/121 237/305/121
f 237/306/122 240/307/122 239/308/122
f 236/309/123 234/310/123 240/311/123
f 240/282/124 241/283/124 239/284/124
f 241/302/125 228/312/125 227/301/125
f 244/316/127 245/317/127 243/318/127
f 246/319/128 247/320/128 245/321/128
f 248/322/129 249/272/129 247/270/129
f 250/323/130 251/324/130 249/325/130
f 251/326/131 254/327/131 253/328/131
f 253/306/132 256/329/132 255/308/132
f 252/309/133 250/310/133 256/311/133
f 256/282/134 257/330/134 255/331/134
f 258/332/135 243/333/135 257/334/135
f 259/336/112 262/337/112 261/338/112
f 262/339/111 263/340/111 261/341/111
f 263/342/110 266/343/110 265/344/110
f 266/345/109 267/346/109 265/347/109
f 268/348/108 269/349/108 267/346/108
f 269/350/107 272/351/107 271/352/107
f 271/353/115 274/354/115 273/283/115
f 273/355/114 260/356/114 259/357/114
f 271/358/113 273/289/113 265/359/113
f 276/360/137 277/361/137 275/362/137
f 278/363/138 279/295/138 277/364/138
f 279/365/139 282/366/139 281/367/139
f 282/368/140 283/269/140 281/369/140
f 284/370/141 285/371/141 283/372/141
f 286/373/142 287/308/142 285/306/142
f 287/284/144 290/354/144 289/283/144
f 290/374/145 275/375/145 289/376/145
f 287/358/146 289/289/146 281/359/146
f 292/377/122 293/317/122 291/378/122
f 293/379/121 296/380/121 295/381/121
f 296/382/120 297/269/120 295/267/120
f 298/383/119 299/384/119 297/385/119
f 300/386/118 301/295/118 299/387/118
f 302/388/117 303/389/117 301/390/117
f 300/391/126 298/392/126 304/393/126
f 303/353/125 306/354/125 305/283/125
f 306/394/124 291/395/124 305/396/124
f 308/397/142 309/361/142 307/398/142
f 310/399/141 311/400/141 309/401/141
f 312/402/140 313/403/140 311/404/140
f 313/405/139 316/406/139 315/407/139
f 315/326/138 318/327/138 317/328/138
f 318/276/137 319/408/137 317/278/137
f 320/282/145 321/283/145 319/284/145
f 322/374/144 307/375/144 321/376/144
f 319/288/143 321/289/143 313/290/143
f 324/409/132 325/265/132 323/266/132
f 326/410/131 327/411/131 325/412/131
f 328/413/130 329/414/130 327/415/130
f 329/299/129 332/416/129 331/417/129
f 332/418/128 333/419/128 331/420/128
f 334/421/127 335/422/127 333/423/127
f 332/309/136 330/310/136 336/311/136
f 336/282/135 337/283/135 335/284/135
f 338/424/134 323/425/134 337/426/134
f 340/427/24 341/428/24 339/429/24
f 342/430/1 343/431/1 341/432/1
f 344/433/16 345/434/16 343/435/16
f 346/427/3 347/436/3 345/429/3
f 348/437/22 349/438/22 347/439/22
f 350/440/2 351/441/2 349/442/2
f 344/443/7 358/444/7 346/445/7
f 352/446/18 353/447/18 351/448/18
f 354/449/4 339/450/4 353/451/4
f 341/452/8 345/453/8 349/454/8
f 352/458/7 360/459/7 361/460/7
f 346/461/7 359/462/7 348/463/7
f 354/464/7 361/465/7 362/466/7
f 342/467/7 357/468/7 344/469/7
f 348/470/7 360/471/7 350/472/7
f 340/473/7 362/474/7 356/475/7
f 342/476/7 356/477/7 355/478/7
f 377/503/7 386/504/7 378/505/7
f 375/528/7 384/504/7 376/529/7
f 374/530/7 381/531/7 382/532/7
f 372/503/7 379/533/7 371/534/7
f 378/503/7 380/533/7 372/534/7
f 376/535/7 385/532/7 377/536/7
f 374/535/7 383/532/7 375/536/7
f 371/535/7 381/532/7 373/530/7
f 389/454/7 388/537/7 393/452/7
f 1/559/8 397/560/8 27/561/8
f 397/113/12 39/562/12 27/115/12
f 3/563/12 395/564/12 1/565/12
f 401/101/13 45/102/13 33/103/13
f 23/16/13 399/566/13 26/567/13
f 399/568/8 33/569/8 26/570/8
f 405/116/14 42/117/14 30/118/14
f 7/571/8 405/572/8 30/573/8
f 6/574/14 403/575/14 7/576/14
f 407/577/8 35/578/8 18/579/8
f 409/580/9 47/581/9 35/582/9
f 15/583/9 407/584/9 18/585/9
f 413/580/10 40/581/10 28/582/10
f 4/586/8 413/587/8 28/588/8
f 2/589/10 411/590/10 4/591/10
f 417/580/5 43/581/5 31/582/5
f 415/592/8 31/593/8 14/594/8
f 11/595/5 415/596/5 14/597/5
f 421/113/6 41/114/6 29/115/6
f 5/598/8 421/599/8 29/600/8
f 8/601/6 419/602/6 5/603/6
f 425/604/11 49/605/11 37/606/11
f 423/607/8 37/608/8 22/609/8
f 19/610/11 423/611/11 22/612/11
f 14/1/1 13/613/1 12/2/1
f 24/4/2 23/614/2 26/5/2
f 18/7/3 17/615/3 16/8/3
f 22/10/4 21/616/4 20/11/4
f 416/13/5 2/617/5 4/14/5
f 420/16/6 12/618/6 13/17/6
f 416/21/7 11/619/7 12/620/7
f 420/19/7 8/621/7 10/20/7
f 416/21/7 12/620/7 420/19/7
f 10/20/7 2/622/7 416/21/7
f 419/22/8 13/623/8 32/23/8
f 408/25/9 6/624/9 7/26/9
f 412/28/10 16/625/10 17/29/10
f 412/19/7 2/621/7 10/20/7
f 10/20/7 6/622/7 408/21/7
f 408/21/7 15/619/7 16/620/7
f 16/620/7 412/19/7 408/21/7
f 1/31/8 27/626/8 401/32/8
f 424/28/11 8/625/11 5/29/11
f 396/34/12 20/627/12 21/35/12
f 10/39/7 8/628/7 424/37/7
f 424/37/7 19/629/7 20/43/7
f 396/38/7 3/630/7 10/39/7
f 424/37/7 20/43/7 396/38/7
f 25/40/8 26/631/8 33/41/8
f 400/28/13 3/625/13 1/29/13
f 404/34/14 24/627/14 25/35/14
f 6/630/7 10/39/7 404/38/7
f 10/39/7 3/628/7 400/37/7
f 400/37/7 23/629/7 24/43/7
f 10/39/7 400/37/7 404/38/7
f 21/44/8 22/632/8 37/45/8
f 37/47/4 49/633/4 50/48/4
f 30/50/9 42/634/9 410/51/9
f 38/53/12 50/635/12 398/54/12
f 35/56/3 47/636/3 48/57/3
f 411/59/8 17/637/8 36/60/8
f 14/62/8 31/638/8 32/63/8
f 395/65/8 21/639/8 38/66/8
f 4/68/8 28/640/8 417/69/8
f 403/71/8 25/641/8 34/72/8
f 7/74/8 30/642/8 409/75/8
f 18/77/8 35/643/8 36/78/8
f 5/80/8 29/644/8 425/81/8
f 9/85/8 41/645/8 422/83/8
f 422/83/8 44/646/8 43/647/8
f 43/647/8 418/84/8 422/83/8
f 418/84/8 40/648/8 9/85/8
f 42/649/8 9/650/8 410/88/8
f 9/650/8 40/651/8 414/652/8
f 410/88/8 9/650/8 414/652/8
f 414/652/8 48/86/8 410/88/8
f 398/91/8 50/653/8 49/654/8
f 49/654/8 426/89/8 398/91/8
f 426/89/8 41/655/8 9/90/8
f 398/91/8 9/90/8 39/656/8
f 402/92/8 39/657/8 9/93/8
f 9/93/8 42/658/8 406/94/8
f 406/94/8 46/659/8 45/660/8
f 45/660/8 402/92/8 406/94/8
f 27/95/13 39/661/13 402/96/13
f 31/98/1 43/662/1 44/99/1
f 36/101/10 48/663/10 414/102/10
f 28/104/5 40/664/5 418/105/5
f 34/107/14 46/665/14 406/108/14
f 33/110/2 45/666/2 46/111/2
f 29/113/11 41/667/11 426/114/11
f 32/116/6 44/668/6 422/117/6
f 52/119/15 54/138/15 53/120/15
f 54/122/16 58/145/16 57/123/16
f 57/125/17 58/669/17 56/126/17
f 55/128/18 56/670/18 52/129/18
f 57/131/19 55/671/19 51/132/19
f 58/134/20 54/168/20 52/135/20
f 59/137/21 60/672/21 62/138/21
f 62/139/22 66/673/22 65/140/22
f 66/142/23 64/674/23 63/143/23
f 63/124/24 64/122/24 60/145/24
f 65/146/25 63/675/25 59/132/25
f 66/147/26 62/168/26 60/148/26
f 68/119/27 70/138/27 69/120/27
f 70/150/18 74/676/18 73/151/18
f 74/153/28 72/677/28 71/154/28
f 71/156/16 72/678/16 68/157/16
f 73/131/29 71/671/29 67/132/29
f 74/134/30 70/168/30 68/135/30
f 76/119/31 78/138/31 77/120/31
f 78/159/24 82/679/24 81/160/24
f 82/162/32 80/680/32 79/163/32
f 79/165/22 80/681/22 76/166/22
f 81/131/33 79/671/33 75/132/33
f 78/168/34 76/148/34 80/149/34
f 84/169/50 86/682/50 85/170/50
f 86/172/49 88/683/49 87/173/49
f 88/175/48 90/684/48 89/176/48
f 89/178/47 90/685/47 92/179/47
f 91/181/46 92/211/46 94/182/46
f 93/184/45 94/212/45 96/185/45
f 95/190/52 96/691/52 98/191/52
f 98/193/51 84/692/51 83/194/51
f 97/196/44 83/693/44 87/694/44
f 83/693/44 85/695/44 87/694/44
f 87/694/44 89/250/44 97/196/44
f 89/250/44 91/197/44 97/196/44
f 91/197/44 93/696/44 95/198/44
f 99/199/40 100/697/40 102/200/40
f 101/202/39 102/698/39 104/203/39
f 103/205/38 104/699/38 106/206/38
f 106/208/37 108/700/37 107/209/37
f 108/211/36 110/182/36 109/183/36
f 110/212/35 112/701/35 111/213/35
f 104/702/44 102/703/44 100/704/44
f 100/704/44 114/705/44 104/702/44
f 114/705/44 112/217/44 106/216/44
f 104/702/44 114/705/44 106/216/44
f 112/217/44 110/706/44 108/215/44
f 112/218/43 114/239/43 113/219/43
f 113/221/42 114/218/42 100/222/42
f 115/199/68 116/712/68 118/227/68
f 117/202/67 118/230/67 120/229/67
f 119/205/66 120/699/66 122/206/66
f 122/208/65 124/700/65 123/209/65
f 124/230/64 126/182/64 125/231/64
f 126/212/63 128/185/63 127/186/63
f 120/713/59 118/703/59 116/704/59
f 116/704/59 130/714/59 120/713/59
f 130/714/59 128/235/59 122/234/59
f 120/713/59 130/714/59 122/234/59
f 128/235/59 126/715/59 124/233/59
f 128/236/70 130/716/70 129/237/70
f 129/220/69 130/218/69 116/239/69
f 132/240/58 134/717/58 133/170/58
f 134/211/57 136/182/57 135/231/57
f 136/175/56 138/179/56 137/243/56
f 137/210/55 138/208/55 140/179/55
f 139/181/163 140/257/163 142/244/163
f 141/184/53 142/255/53 144/185/53
f 143/246/61 144/236/61 146/247/61
f 146/193/60 132/716/60 131/194/60
f 145/249/59 131/693/59 135/718/59
f 131/693/59 133/719/59 135/718/59
f 135/718/59 137/250/59 145/249/59
f 137/250/59 139/720/59 143/198/59
f 139/720/59 141/721/59 143/198/59
f 148/240/86 150/184/86 149/170/86
f 150/211/85 152/182/85 151/231/85
f 152/175/84 154/684/84 153/176/84
f 153/251/83 154/685/83 156/179/83
f 155/181/164 156/211/164 158/182/164
f 157/184/81 158/722/81 160/185/81
f 159/246/88 160/236/88 162/247/88
f 162/252/87 148/716/87 147/194/87
f 161/249/80 147/693/80 153/250/80
f 147/693/80 149/719/80 151/718/80
f 153/250/80 147/693/80 151/718/80
f 153/250/80 155/720/80 159/198/80
f 155/720/80 157/721/80 159/198/80
f 163/185/76 164/723/76 166/253/76
f 165/202/75 166/230/75 168/229/75
f 167/205/74 168/175/74 170/179/74
f 170/208/73 172/700/73 171/209/73
f 172/211/72 174/182/72 173/183/72
f 174/255/71 176/185/71 175/186/71
f 168/702/80 166/703/80 164/704/80
f 164/704/80 178/705/80 168/702/80
f 178/705/80 176/217/80 170/216/80
f 168/702/80 178/705/80 170/216/80
f 176/217/80 174/706/80 172/215/80
f 176/236/79 178/716/79 177/194/79
f 177/220/78 178/218/78 164/239/78
f 179/185/104 180/723/104 182/253/104
f 181/242/103 182/211/103 184/182/103
f 183/256/165 184/175/165 186/179/165
f 186/208/166 188/700/166 187/209/166
f 188/257/100 190/182/100 189/231/100
f 190/212/99 192/199/99 191/186/99
f 184/702/95 182/703/95 180/704/95
f 180/704/95 194/705/95 184/702/95
f 194/705/95 192/217/95 186/216/95
f 184/702/95 194/705/95 186/216/95
f 192/217/95 190/706/95 188/215/95
f 192/236/106 194/239/106 193/219/106
f 193/220/105 194/218/105 180/239/105
f 196/240/94 198/717/94 197/254/94
f 198/211/93 200/182/93 199/231/93
f 200/175/92 202/684/92 201/176/92
f 201/210/91 202/208/91 204/179/91
f 203/181/167 204/257/167 206/244/167
f 205/259/168 206/255/168 208/185/168
f 207/246/97 208/691/97 210/247/97
f 210/236/96 196/716/96 195/194/96
f 209/249/95 195/693/95 201/250/95
f 195/693/95 197/719/95 199/718/95
f 201/250/95 195/693/95 199/718/95
f 201/250/95 203/720/95 207/198/95
f 203/720/95 205/721/95 207/198/95
f 212/261/107 214/724/107 213/262/107
f 214/264/108 216/725/108 215/265/108
f 215/267/109 216/382/109 218/268/109
f 217/270/110 218/322/110 220/271/110
f 220/273/111 222/726/111 221/274/111
f 222/276/112 224/727/112 223/277/112
f 224/282/114 226/354/114 225/283/114
f 226/285/115 212/733/115 211/286/115
f 225/289/116 211/734/116 217/290/116
f 211/734/116 213/735/116 215/736/116
f 217/290/116 211/734/116 215/736/116
f 217/290/116 219/737/116 223/288/116
f 219/737/116 221/738/116 223/288/116
f 228/291/117 230/739/117 229/292/117
f 230/294/118 232/740/118 231/295/118
f 232/297/119 234/741/119 233/298/119
f 234/300/120 236/312/120 235/301/120
f 235/303/121 236/742/121 238/304/121
f 237/306/122 238/373/122 240/307/122
f 232/743/123 230/744/123 228/745/123
f 228/745/123 242/746/123 232/743/123
f 242/746/123 240/311/123 234/310/123
f 232/743/123 242/746/123 234/310/123
f 240/311/123 238/747/123 236/309/123
f 240/282/124 242/354/124 241/283/124
f 241/302/125 242/300/125 228/312/125
f 244/316/127 246/752/127 245/317/127
f 246/319/128 248/753/128 247/320/128
f 248/322/129 250/271/129 249/272/129
f 250/323/130 252/754/130 251/324/130
f 251/326/131 252/755/131 254/327/131
f 253/306/132 254/373/132 256/329/132
f 248/743/133 246/744/133 244/745/133
f 244/745/133 258/746/133 248/743/133
f 258/746/133 256/311/133 250/310/133
f 248/743/133 258/746/133 250/310/133
f 256/311/133 254/747/133 252/309/133
f 256/282/134 258/354/134 257/330/134
f 258/332/135 244/756/135 243/333/135
f 259/336/112 260/757/112 262/337/112
f 262/339/111 264/758/111 263/340/111
f 263/342/110 264/759/110 266/343/110
f 266/345/109 268/348/109 267/346/109
f 268/348/108 270/760/108 269/349/108
f 269/350/107 270/761/107 272/351/107
f 271/353/115 272/282/115 274/354/115
f 273/355/114 274/762/114 260/356/114
f 273/289/113 259/763/113 263/764/113
f 259/763/113 261/765/113 263/764/113
f 263/764/113 265/359/113 273/289/113
f 265/359/113 267/737/113 271/358/113
f 267/737/113 269/738/113 271/358/113
f 276/360/137 278/766/137 277/361/137
f 278/363/138 280/740/138 279/295/138
f 279/365/139 280/767/139 282/366/139
f 282/368/140 284/268/140 283/269/140
f 284/370/141 286/768/141 285/371/141
f 286/373/142 288/307/142 287/308/142
f 287/284/144 288/282/144 290/354/144
f 290/374/145 276/769/145 275/375/145
f 289/289/146 275/763/146 279/764/146
f 275/763/146 277/765/146 279/764/146
f 279/764/146 281/359/146 289/289/146
f 281/359/146 283/737/146 287/358/146
f 283/737/146 285/738/146 287/358/146
f 292/377/122 294/770/122 293/317/122
f 293/379/121 294/771/121 296/380/121
f 296/382/120 298/268/120 297/269/120
f 298/383/119 300/772/119 299/384/119
f 300/386/118 302/740/118 301/295/118
f 302/388/117 304/773/117 303/389/117
f 296/774/126 294/744/126 292/745/126
f 292/745/126 306/746/126 296/774/126
f 306/746/126 304/393/126 298/392/126
f 296/774/126 306/746/126 298/392/126
f 304/393/126 302/775/126 300/391/126
f 303/353/125 304/282/125 306/354/125
f 306/394/124 292/776/124 291/395/124
f 308/397/142 310/766/142 309/361/142
f 310/399/141 312/777/141 311/400/141
f 312/402/140 314/778/140 313/403/140
f 313/405/139 314/779/139 316/406/139
f 315/326/138 316/755/138 318/327/138
f 318/276/137 320/727/137 319/408/137
f 320/282/145 322/354/145 321/283/145
f 322/374/144 308/769/144 307/375/144
f 321/289/143 307/734/143 313/290/143
f 307/734/143 309/735/143 311/736/143
f 313/290/143 307/734/143 311/736/143
f 313/290/143 315/737/143 319/288/143
f 315/737/143 317/738/143 319/288/143
f 324/409/132 326/780/132 325/265/132
f 326/410/131 328/781/131 327/411/131
f 328/413/130 330/782/130 329/414/130
f 329/299/129 330/297/129 332/416/129
f 332/418/128 334/783/128 333/419/128
f 334/421/127 336/784/127 335/422/127
f 328/743/136 326/744/136 324/745/136
f 324/745/136 338/746/136 328/743/136
f 338/746/136 336/311/136 330/310/136
f 328/743/136 338/746/136 330/310/136
f 336/311/136 334/747/136 332/309/136
f 336/282/135 338/354/135 337/283/135
f 338/424/134 324/785/134 323/425/134
f 340/427/24 342/786/24 341/428/24
f 342/430/1 344/787/1 343/431/1
f 344/433/16 346/788/16 345/434/16
f 346/427/3 348/789/3 347/436/3
f 348/437/22 350/790/22 349/438/22
f 350/440/2 352/791/2 351/441/2
f 344/443/7 357/792/7 358/444/7
f 352/446/18 354/793/18 353/447/18
f 354/449/4 340/794/4 339/450/4
f 353/537/8 339/795/8 341/452/8
f 341/452/8 343/796/8 345/453/8
f 345/453/8 347/797/8 349/454/8
f 349/454/8 351/798/8 353/537/8
f 353/537/8 341/452/8 349/454/8
f 352/458/7 350/800/7 360/459/7
f 346/461/7 358/801/7 359/462/7
f 354/464/7 352/802/7 361/465/7
f 342/467/7 355/803/7 357/468/7
f 348/470/7 359/804/7 360/471/7
f 340/473/7 354/805/7 362/474/7
f 342/476/7 340/806/7 356/477/7
f 377/503/7 385/815/7 386/504/7
f 375/528/7 383/815/7 384/504/7
f 374/530/7 373/535/7 381/531/7
f 372/503/7 380/822/7 379/533/7
f 378/503/7 386/822/7 380/533/7
f 376/535/7 384/823/7 385/532/7
f 374/535/7 382/823/7 383/532/7
f 371/535/7 379/531/7 381/532/7
f 389/454/7 387/798/7 388/537/7
f 388/537/7 394/795/7 393/452/7
f 393/452/7 392/796/7 391/453/7
f 391/453/7 390/797/7 393/452/7
f 390/797/7 389/454/7 393/452/7
f 1/559/8 395/831/8 397/560/8
f 397/113/12 398/832/12 39/562/12
f 3/563/12 396/833/12 395/564/12
f 401/101/13 402/663/13 45/102/13
f 23/16/13 400/618/13 399/566/13
f 399/568/8 401/834/8 33/569/8
f 405/116/14 406/668/14 42/117/14
f 7/571/8 403/835/8 405/572/8
f 6/574/14 404/836/14 403/575/14
f 407/577/8 409/837/8 35/578/8
f 409/580/9 410/838/9 47/581/9
f 15/583/9 408/839/9 407/584/9
f 413/580/10 414/838/10 40/581/10
f 4/586/8 411/840/8 413/587/8
f 2/589/10 412/841/10 411/590/10
f 417/580/5 418/838/5 43/581/5
f 415/592/8 417/842/8 31/593/8
f 11/595/5 416/843/5 415/596/5
f 421/113/6 422/667/6 41/114/6
f 5/598/8 419/844/8 421/599/8
f 8/601/6 420/845/6 419/602/6
f 425/604/11 426/846/11 49/605/11
f 423/607/8 425/847/8 37/608/8
f 19/610/11 424/848/11 423/611/11
usemtl volute
f 92/187/41 90/188/41 96/189/41
f 111/224/41 113/225/41 105/226/41
f 127/224/62 129/225/62 121/226/62
f 140/187/62 138/188/62 144/189/62
f 156/187/77 154/188/77 160/189/77
f 175/224/77 177/225/77 169/226/77
f 191/224/98 193/225/98 185/226/98
f 204/187/98 202/188/98 208/189/98
f 220/279/113 218/280/113 224/281/113
f 239/313/126 241/314/126 233/315/126
f 257/314/136 251/335/136 255/313/136
f 268/279/116 266/280/116 272/281/116
f 284/279/143 282/280/143 288/281/143
f 305/314/123 299/335/123 303/313/123
f 316/279/146 314/280/146 320/281/146
f 337/314/133 331/335/133 335/313/133
f 88/686/41 86/687/41 84/688/41
f 84/688/41 98/689/41 88/686/41
f 98/689/41 96/189/41 90/188/41
f 88/686/41 98/689/41 90/188/41
f 96/189/41 94/690/41 92/187/41
f 113/225/41 99/707/41 103/708/41
f 99/707/41 101/709/41 103/708/41
f 103/708/41 105/226/41 113/225/41
f 105/226/41 107/710/41 111/224/41
f 107/710/41 109/711/41 111/224/41
f 129/225/62 115/707/62 119/708/62
f 115/707/62 117/709/62 119/708/62
f 119/708/62 121/226/62 129/225/62
f 121/226/62 123/710/62 127/224/62
f 123/710/62 125/711/62 127/224/62
f 136/686/62 134/687/62 132/688/62
f 132/688/62 146/689/62 136/686/62
f 146/689/62 144/189/62 138/188/62
f 136/686/62 146/689/62 138/188/62
f 144/189/62 142/690/62 140/187/62
f 152/686/77 150/687/77 148/688/77
f 148/688/77 162/689/77 152/686/77
f 162/689/77 160/189/77 154/188/77
f 152/686/77 162/689/77 154/188/77
f 160/189/77 158/690/77 156/187/77
f 177/225/77 163/707/77 167/708/77
f 163/707/77 165/709/77 167/708/77
f 167/708/77 169/226/77 177/225/77
f 169/226/77 171/710/77 175/224/77
f 171/710/77 173/711/77 175/224/77
f 193/225/98 179/707/98 183/708/98
f 179/707/98 181/709/98 183/708/98
f 183/708/98 185/226/98 193/225/98
f 185/226/98 187/710/98 191/224/98
f 187/710/98 189/711/98 191/224/98
f 200/686/98 198/687/98 196/688/98
f 196/688/98 210/689/98 200/686/98
f 210/689/98 208/189/98 202/188/98
f 200/686/98 210/689/98 202/188/98
f 208/189/98 206/690/98 204/187/98
f 216/728/113 214/729/113 212/730/113
f 212/730/113 226/731/113 216/728/113
f 226/731/113 224/281/113 218/280/113
f 216/728/113 226/731/113 218/280/113
f 224/281/113 222/732/113 220/279/113
f 241/314/126 227/748/126 233/315/126
f 227/748/126 229/749/126 231/750/126
f 233/315/126 227/748/126 231/750/126
f 233/315/126 235/335/126 239/313/126
f 235/335/126 237/751/126 239/313/126
f 257/314/136 243/748/136 247/750/136
f 243/748/136 245/749/136 247/750/136
f 247/750/136 249/315/136 257/314/136
f 249/315/136 251/335/136 257/314/136
f 251/335/136 253/751/136 255/313/136
f 264/728/116 262/729/116 260/730/116
f 260/730/116 274/731/116 264/728/116
f 274/731/116 272/281/116 266/280/116
f 264/728/116 274/731/116 266/280/116
f 272/281/116 270/732/116 268/279/116
f 280/728/143 278/729/143 276/730/143
f 276/730/143 290/731/143 280/728/143
f 290/731/143 288/281/143 282/280/143
f 280/728/143 290/731/143 282/280/143
f 288/281/143 286/732/143 284/279/143
f 305/314/123 291/748/123 295/750/123
f 291/748/123 293/749/123 295/750/123
f 295/750/123 297/315/123 305/314/123
f 297/315/123 299/335/123 305/314/123
f 299/335/123 301/751/123 303/313/123
f 312/728/146 310/729/146 308/730/146
f 308/730/146 322/731/146 312/728/146
f 322/731/146 320/281/146 314/280/146
f 312/728/146 322/731/146 314/280/146
f 320/281/146 318/732/146 316/279/146
f 337/314/133 323/748/133 327/750/133
f 323/748/133 325/749/133 327/750/133
f 327/750/133 329/315/133 337/314/133
f 329/315/133 331/335/133 337/314/133
f 331/335/133 333/751/133 335/313/133
usemtl corinthian
f 355/455/1 365/456/1 357/457/1
f 370/479/147 372/480/147 364/481/147
f 361/482/18 370/483/18 362/484/18
f 359/485/22 368/486/22 360/487/22
f 357/488/16 366/489/16 358/490/16
f 356/491/24 363/492/24 355/493/24
f 362/494/4 364/495/4 356/496/4
f 360/497/2 369/498/2 361/499/2
f 358/500/3 367/501/3 359/502/3
f 368/506/148 377/507/148 369/508/148
f 366/509/149 375/510/149 367/511/149
f 363/512/150 373/513/150 365/514/150
f 370/515/151 377/516/151 378/517/151
f 367/518/152 376/517/152 368/515/152
f 365/519/153 374/520/153 366/521/153
f 364/522/154 371/523/154 363/524/154
f 386/525/155 388/526/155 380/527/155
f 384/538/156 393/539/156 385/540/156
f 383/541/157 390/542/157 391/543/157
f 381/544/158 387/545/158 389/546/158
f 385/547/159 394/548/159 386/549/159
f 383/550/160 392/551/160 384/552/160
f 382/553/161 389/554/161 390/555/161
f 379/556/162 388/557/162 387/558/162
f 355/455/1 363/799/1 365/456/1
f 370/479/147 378/807/147 372/480/147
f 361/482/18 369/808/18 370/483/18
f 359/485/22 367/809/22 368/486/22
f 357/488/16 365/810/16 366/489/16
f 356/491/24 364/811/24 363/492/24
f 362/494/4 370/812/4 364/495/4
f 360/497/2 368/813/2 369/498/2
f 358/500/3 366/814/3 367/501/3
f 368/506/148 376/816/148 377/507/148
f 366/509/149 374/817/149 375/510/149
f 363/512/150 371/818/150 373/513/150
f 370/515/151 369/518/151 377/516/151
f 367/518/152 375/516/152 376/517/152
f 365/519/153 373/819/153 374/520/153
f 364/522/154 372/820/154 371/523/154
f 386/525/155 394/821/155 388/526/155
f 384/538/156 392/824/156 393/539/156
f 383/541/157 382/825/157 390/542/157
f 381/544/158 379/826/158 387/545/158
f 385/547/159 393/827/159 394/548/159
f 383/550/160 391/828/160 392/551/160
f 382/553/161 381/829/161 389/554/161
f 379/556/162 380/830/162 388/557/162
