# Blender 5.1.2
# www.blender.org
mtllib medium_composite_capital.mtl
o composite
v 0.593230 0.963673 1.148151
v 0.593234 0.940198 1.218529
v 0.630773 0.877693 1.119469
v 0.630777 0.854218 1.189847
v 0.591713 0.791116 1.090594
v 0.591718 0.767641 1.160972
v 0.498932 0.754658 1.078439
v 0.498937 0.731184 1.148817
v 0.406779 0.789676 1.090126
v 0.406784 0.766201 1.160504
v 0.369236 0.875656 1.118807
v 0.369241 0.852181 1.189185
v 0.408296 0.962233 1.147683
v 0.408300 0.938758 1.218060
v 0.501077 0.998691 1.159837
v 0.501082 0.975216 1.230215
v 0.249044 0.627310 -0.105868
v 0.249044 0.763784 -0.105868
v 0.750958 0.627310 -0.105868
v 0.750958 0.763784 -0.105868
v 1.105865 0.627310 0.249039
v 1.105865 0.763784 0.249039
v 1.105865 0.627310 0.750953
v 1.105865 0.763784 0.750953
v 0.750958 0.627310 1.105860
v 0.750958 0.763784 1.105860
v 0.249044 0.627310 1.105860
v 0.249044 0.763784 1.105860
v -0.105863 0.627310 0.750953
v -0.105863 0.763784 0.750953
v -0.105863 0.627310 0.249039
v -0.105863 0.763784 0.249039
v -0.148154 0.963673 0.593229
v -0.218532 0.940198 0.593234
v -0.119472 0.877693 0.630772
v -0.189850 0.854218 0.630777
v -0.090597 0.791116 0.591713
v -0.160975 0.767641 0.591717
v -0.078442 0.754658 0.498932
v -0.148820 0.731183 0.498936
v -0.090128 0.789676 0.406779
v -0.160506 0.766201 0.406783
v -0.118809 0.875656 0.369236
v -0.189187 0.852181 0.369240
v -0.147685 0.962233 0.408295
v -0.218063 0.938758 0.408299
v -0.159840 0.998691 0.501076
v -0.230218 0.975216 0.501081
v 0.406771 0.963673 -0.148152
v 0.406767 0.940198 -0.218530
v 0.369228 0.877693 -0.119471
v 0.369224 0.854218 -0.189848
v 0.408287 0.791116 -0.090595
v 0.408283 0.767641 -0.160973
v 0.501068 0.754658 -0.078439
v 0.501064 0.731183 -0.148817
v 0.593221 0.789676 -0.090125
v 0.593217 0.766201 -0.160503
v 0.630764 0.875656 -0.118806
v 0.630760 0.852181 -0.189184
v 0.591705 0.962233 -0.147682
v 0.591701 0.938758 -0.218060
v 0.498924 0.998691 -0.159837
v 0.498920 0.975216 -0.230215
v -0.106560 0.714323 1.248291
v -0.177570 0.714323 1.096017
v -0.174046 0.534554 1.279762
v -0.245056 0.534554 1.127488
v -0.106560 0.354785 1.248291
v -0.177570 0.354785 1.096017
v 0.056365 0.280322 1.172314
v -0.014646 0.280322 1.020040
v 0.219289 0.354785 1.096337
v 0.148279 0.354785 0.944063
v 0.286775 0.534554 1.064867
v 0.215764 0.534554 0.912592
v 0.219289 0.714323 1.096337
v 0.148279 0.714323 0.944063
v 0.056365 0.788786 1.172314
v -0.014646 0.788786 1.020040
v 0.242225 0.311848 0.900253
v 0.313236 0.311848 1.052527
v 0.380721 0.491617 1.021057
v 0.309711 0.491617 0.868782
v -0.093025 0.714322 1.180550
v -0.245303 0.714322 1.109547
v -0.124493 0.534553 1.248037
v -0.276770 0.534553 1.177033
v -0.093025 0.354784 1.180550
v -0.245303 0.354784 1.109546
v -0.017055 0.280321 1.017622
v -0.169333 0.280321 0.946618
v 0.058915 0.354784 0.854694
v -0.093363 0.354784 0.783691
v 0.090382 0.534553 0.787207
v -0.061895 0.534553 0.716204
v 0.058915 0.714322 0.854694
v -0.093363 0.714322 0.783691
v -0.017055 0.788785 1.017622
v -0.169333 0.788785 0.946619
v -0.049557 0.311847 0.689742
v 0.102721 0.311847 0.760746
v 0.134188 0.491616 0.693259
v -0.018089 0.491616 0.622255
v -0.248290 0.714325 -0.106559
v -0.096016 0.714325 -0.177569
v -0.279761 0.534555 -0.174045
v -0.127486 0.534555 -0.245055
v -0.248290 0.354786 -0.106559
v -0.096015 0.354786 -0.177569
v -0.172313 0.280324 0.056365
v -0.020039 0.280324 -0.014645
v -0.096337 0.354786 0.219290
v 0.055938 0.354786 0.148280
v -0.064866 0.534555 0.286776
v 0.087408 0.534556 0.215766
v -0.096337 0.714325 0.219290
v 0.055938 0.714325 0.148280
v -0.172313 0.788787 0.056365
v -0.020039 0.788787 -0.014645
v 0.099748 0.311849 0.242227
v -0.052527 0.311849 0.313237
v -0.021056 0.491618 0.380722
v 0.131218 0.491618 0.309712
v 1.093028 0.714323 -0.180545
v 1.245305 0.714323 -0.109540
v 1.124496 0.534554 -0.248032
v 1.276773 0.534554 -0.177027
v 1.093028 0.354785 -0.180545
v 1.245305 0.354785 -0.109540
v 1.017057 0.280322 -0.017618
v 1.169334 0.280322 0.053387
v 0.941086 0.354785 0.145310
v 1.093363 0.354785 0.216315
v 0.909618 0.534554 0.212797
v 1.061895 0.534554 0.283801
v 0.941086 0.714323 0.145310
v 1.093363 0.714323 0.216315
v 1.017057 0.788786 -0.017618
v 1.169334 0.788786 0.053387
v 1.049556 0.311848 0.310263
v 0.897279 0.311848 0.239258
v 0.865811 0.491617 0.306745
v 1.018088 0.491617 0.377749
v -0.180549 0.714325 -0.093026
v -0.109545 0.714325 -0.245303
v -0.248036 0.534556 -0.124494
v -0.177032 0.534556 -0.276771
v -0.180549 0.354787 -0.093026
v -0.109545 0.354787 -0.245303
v -0.017621 0.280324 -0.017056
v 0.053383 0.280324 -0.169333
v 0.145307 0.354787 0.058914
v 0.216311 0.354787 -0.093363
v 0.212794 0.534556 0.090382
v 0.283798 0.534556 -0.061895
v 0.145307 0.714325 0.058914
v 0.216311 0.714325 -0.093363
v -0.017621 0.788788 -0.017056
v 0.053383 0.788788 -0.169333
v 0.310259 0.311850 -0.049557
v 0.239255 0.311849 0.102720
v 0.306742 0.491619 0.134188
v 0.377746 0.491619 -0.018089
v 1.106564 0.714324 -0.248285
v 1.177573 0.714324 -0.096010
v 1.174049 0.534555 -0.279755
v 1.245059 0.534555 -0.127480
v 1.106564 0.354786 -0.248285
v 1.177573 0.354786 -0.096010
v 0.943639 0.280323 -0.172309
v 1.014648 0.280323 -0.020034
v 0.780714 0.354786 -0.096333
v 0.851723 0.354786 0.055942
v 0.713228 0.534555 -0.064863
v 0.784237 0.534555 0.087412
v 0.780714 0.714324 -0.096333
v 0.851723 0.714324 0.055942
v 0.943639 0.788787 -0.172309
v 1.014648 0.788787 -0.020034
v 0.757776 0.311849 0.099751
v 0.686767 0.311849 -0.052523
v 0.619281 0.491618 -0.021053
v 0.690291 0.491618 0.131222
v 1.248292 0.714324 1.106557
v 1.096018 0.714324 1.177568
v 1.279763 0.534555 1.174043
v 1.127489 0.534555 1.245054
v 1.248292 0.354786 1.106557
v 1.096018 0.354786 1.177568
v 1.172314 0.280323 0.943633
v 1.020040 0.280323 1.014644
v 1.096336 0.354786 0.780709
v 0.944062 0.354786 0.851720
v 1.064865 0.534555 0.713223
v 0.912591 0.534555 0.784234
v 1.096336 0.714324 0.780709
v 0.944062 0.714324 0.851720
v 1.172314 0.788787 0.943633
v 1.020040 0.788787 1.014644
v 0.900252 0.311848 0.757774
v 1.052526 0.311848 0.686763
v 1.021055 0.491618 0.619277
v 0.868781 0.491618 0.690288
v 1.180551 0.714323 1.093022
v 1.109548 0.714323 1.245299
v 1.248038 0.534554 1.124489
v 1.177035 0.534554 1.276767
v 1.180551 0.354785 1.093022
v 1.109548 0.354785 1.245299
v 1.017623 0.280323 1.017053
v 0.946620 0.280323 1.169330
v 0.854695 0.354785 0.941083
v 0.783691 0.354785 1.093361
v 0.787207 0.534554 0.909616
v 0.716204 0.534554 1.061894
v 0.854694 0.714323 0.941083
v 0.783691 0.714324 1.093361
v 1.017623 0.788786 1.017052
v 0.946620 0.788786 1.169330
v 0.689743 0.311848 1.049556
v 0.760746 0.311848 0.897278
v 0.693259 0.491617 0.865810
v 0.622256 0.491617 1.018088
v 1.148149 0.963673 0.406776
v 1.218527 0.940198 0.406772
v 1.119468 0.877693 0.369233
v 1.189846 0.854218 0.369229
v 1.090592 0.791116 0.408292
v 1.160970 0.767641 0.408288
v 1.078437 0.754658 0.501073
v 1.148815 0.731184 0.501069
v 1.090122 0.789676 0.593226
v 1.160500 0.766201 0.593222
v 1.118803 0.875656 0.630769
v 1.189181 0.852181 0.630766
v 1.147679 0.962233 0.591710
v 1.218057 0.938758 0.591707
v 1.159835 0.998691 0.498929
v 1.230213 0.975216 0.498925
v -0.173732 0.897001 0.500000
v 1.173732 1.000126 0.500000
v -0.173732 1.000126 0.500000
v 1.173732 0.897001 0.500000
v 0.500000 0.897001 -0.173732
v 0.500000 1.000126 1.173732
v 0.500000 0.897001 1.173732
v 0.500000 1.000126 -0.173732
v 0.500000 0.749902 0.500000
v 0.500000 1.000126 0.500000
v 1.372683 1.000126 -0.302347
v 1.302347 1.000126 -0.372682
v 1.302347 0.897001 -0.372682
v 1.372683 0.897001 -0.302347
v 1.302347 1.000126 1.372682
v 1.372683 1.000126 1.302347
v 1.372683 0.897001 1.302347
v 1.302347 0.897001 1.372682
v -0.302347 1.000126 -0.372682
v -0.372682 1.000126 -0.302347
v -0.372682 0.897001 -0.302347
v -0.302347 0.897001 -0.372682
v -0.372682 1.000126 1.302347
v -0.302347 1.000126 1.372682
v -0.302347 0.897001 1.372683
v -0.372682 0.897001 1.302347
v -0.044720 0.897001 0.500000
v 1.044720 0.897001 0.500000
v 0.500000 0.897001 -0.044720
v 0.500000 0.897001 1.044720
v 1.205574 0.897001 -0.148706
v 1.148707 0.897001 -0.205574
v -0.205574 0.897001 1.148707
v -0.148707 0.897001 1.205574
v 1.148707 0.897001 1.205574
v 1.205574 0.897001 1.148707
v -0.148707 0.897001 -0.205574
v -0.205574 0.897001 -0.148706
v -0.044720 0.749902 0.500000
v 1.044720 0.749902 0.500000
v 0.500000 0.749902 -0.044720
v 0.500000 0.749902 1.044720
v 1.205574 0.749902 -0.148706
v 1.148707 0.749902 -0.205574
v -0.205574 0.749902 1.148707
v -0.148707 0.749902 1.205574
v 1.148707 0.749902 1.205574
v 1.205574 0.749902 1.148707
v -0.148707 0.749902 -0.205574
v -0.205574 0.749902 -0.148706
v 0.245922 -0.536437 -0.113401
v 0.245922 -0.409497 -0.113401
v 0.754078 -0.536437 -0.113401
v 0.754078 -0.409497 -0.113401
v 1.113399 -0.536437 0.245920
v 1.113399 -0.409497 0.245920
v 1.113399 -0.536436 0.754077
v 1.113399 -0.409497 0.754077
v 0.754078 -0.536437 1.113398
v 0.754078 -0.409497 1.113398
v 0.245922 -0.536436 1.113397
v 0.245922 -0.409497 1.113398
v -0.113399 -0.536437 0.754077
v -0.113399 -0.409497 0.754077
v -0.113399 -0.536437 0.245920
v -0.113400 -0.409497 0.245920
v 0.754078 -0.409497 -0.113401
v 0.245922 -0.409497 -0.113401
v 1.113399 -0.409497 0.245920
v 1.113399 -0.409497 0.754077
v 0.754078 -0.409497 1.113398
v 0.245922 -0.409497 1.113398
v -0.113399 -0.409497 0.754077
v -0.113400 -0.409497 0.245920
v 0.718473 -0.409497 -0.027443
v 0.281527 -0.409497 -0.027443
v 1.027441 -0.409497 0.281525
v 1.027441 -0.409497 0.718471
v 0.718473 -0.409497 1.027439
v 0.281527 -0.409497 1.027439
v -0.027441 -0.409497 0.718471
v -0.027441 -0.409497 0.281525
v 0.774017 0.003003 -0.161537
v 0.225983 0.003003 -0.161537
v 1.161535 0.003003 0.225981
v 1.161535 0.003003 0.774015
v 0.774017 0.003003 1.161533
v 0.225983 0.003003 1.161533
v -0.161535 0.003003 0.774015
v -0.161535 0.003003 0.225981
v 0.711554 0.003003 -0.010739
v 0.288446 0.003003 -0.010739
v 1.010737 0.003003 0.288444
v 1.010737 0.003003 0.711552
v 0.711554 0.003003 1.010735
v 0.288446 0.003003 1.010735
v -0.010737 0.003003 0.711552
v -0.010737 0.003003 0.288444
v 0.774621 0.382503 -0.162997
v 0.225379 0.382503 -0.162997
v 1.162995 0.382503 0.225377
v 1.162995 0.382503 0.774619
v 0.774621 0.382503 1.162993
v 0.225379 0.382503 1.162993
v -0.162995 0.382503 0.774620
v -0.162995 0.382503 0.225377
v 0.724238 0.382503 -0.041360
v 0.275762 0.382503 -0.041360
v 1.041357 0.382503 0.275760
v 1.041357 0.382503 0.724236
v 0.724238 0.382503 1.041355
v 0.275762 0.382503 1.041355
v -0.041357 0.382503 0.724236
v -0.041358 0.382503 0.275760
v 0.748826 0.762003 -0.100722
v 0.251174 0.762003 -0.100722
v 1.100720 0.762003 0.251172
v 1.100720 0.762003 0.748824
v 0.748826 0.762003 1.100718
v 0.251174 0.762003 1.100718
v -0.100720 0.762003 0.748825
v -0.100720 0.762003 0.251172
vn 0.9239 0.3630 0.1210
vn 0.9193 -0.3732 -0.1246
vn 0.3827 -0.8764 -0.2924
vn -0.3719 -0.8806 -0.2937
vn -0.9239 -0.3630 -0.1210
vn -0.9193 0.3732 0.1246
vn 0.0001 -0.3164 0.9486
vn -0.3827 0.8764 0.2924
vn 0.3719 0.8806 0.2937
vn -0.0001 0.3164 -0.9486
vn -0.0000 -0.0000 -1.0000
vn 0.7071 -0.0000 -0.7071
vn 1.0000 -0.0000 -0.0000
vn 0.7071 -0.0000 0.7071
vn -0.0000 -0.0000 1.0000
vn -0.7071 -0.0000 0.7071
vn -0.0000 1.0000 -0.0000
vn -1.0000 -0.0000 -0.0000
vn -0.7071 -0.0000 -0.7071
vn -0.0000 -1.0000 -0.0000
vn -0.1210 0.3630 0.9239
vn 0.1245 -0.3732 0.9193
vn 0.2924 -0.8764 0.3827
vn 0.2937 -0.8806 -0.3719
vn 0.1210 -0.3630 -0.9239
vn -0.1245 0.3732 -0.9193
vn -0.9486 -0.3164 0.0001
vn -0.2924 0.8764 -0.3827
vn -0.2937 0.8806 0.3719
vn 0.9486 0.3164 -0.0001
vn -0.9239 0.3630 -0.1210
vn -0.9193 -0.3732 0.1245
vn -0.3827 -0.8764 0.2924
vn 0.3719 -0.8806 0.2937
vn 0.9239 -0.3630 0.1210
vn 0.9193 0.3732 -0.1245
vn -0.0001 -0.3164 -0.9486
vn 0.3827 0.8764 -0.2924
vn -0.3719 0.8806 -0.2937
vn 0.0001 0.3164 0.9486
vn -0.8373 0.3827 0.3905
vn -0.8373 -0.3827 0.3905
vn -0.3468 -0.9239 0.1617
vn 0.3468 -0.9239 -0.1617
vn -0.4226 -0.0000 -0.9063
vn 0.8373 0.3827 -0.3905
vn 0.3468 0.9239 -0.1617
vn -0.3468 0.9239 0.1617
vn 0.4226 -0.0000 0.9063
vn 0.8373 -0.3827 -0.3905
vn -0.3904 0.3827 0.8373
vn -0.3904 -0.3827 0.8373
vn -0.1617 -0.9239 0.3468
vn 0.1617 -0.9239 -0.3468
vn -0.9063 -0.0000 -0.4226
vn 0.3904 0.3827 -0.8373
vn 0.1617 0.9239 -0.3468
vn -0.1617 0.9239 0.3468
vn 0.9063 -0.0000 0.4226
vn 0.3904 -0.3827 -0.8373
vn -0.3905 0.3827 -0.8373
vn -0.3905 -0.3827 -0.8373
vn -0.1617 -0.9239 -0.3468
vn 0.1617 -0.9239 0.3468
vn 0.1617 0.9239 0.3468
vn 0.3905 0.3827 0.8373
vn 0.9063 -0.0000 -0.4226
vn -0.1617 0.9239 -0.3468
vn -0.9063 -0.0000 0.4226
vn 0.3905 -0.3827 0.8373
vn -0.8373 0.3827 -0.3904
vn -0.8373 -0.3827 -0.3904
vn -0.3468 -0.9239 -0.1617
vn 0.3468 -0.9239 0.1617
vn 0.8373 0.3827 0.3904
vn 0.4226 -0.0000 -0.9063
vn 0.3468 0.9239 0.1617
vn -0.3468 0.9239 -0.1617
vn -0.4226 -0.0000 0.9063
vn 0.8373 -0.3827 0.3904
vn 0.1210 0.3630 -0.9239
vn -0.1245 -0.3732 -0.9193
vn -0.2923 -0.8764 -0.3827
vn -0.2937 -0.8806 0.3719
vn -0.1210 -0.3630 0.9239
vn 0.1245 0.3732 0.9193
vn 0.9486 -0.3164 -0.0001
vn 0.2924 0.8764 0.3827
vn 0.2937 0.8806 -0.3719
vn -0.9486 0.3164 0.0001
vn 0.9706 -0.0000 0.2407
vn -0.2407 -0.0000 -0.9706
vn -0.2407 -0.0000 0.9706
vn 0.9706 -0.0000 -0.2407
vn 0.2407 -0.0000 -0.9706
vn -0.9706 -0.0000 0.2407
vn -0.9706 -0.0000 -0.2407
vn 0.2407 -0.0000 0.9706
vn -0.9510 -0.3092 -0.0000
vn -0.0000 -0.3092 0.9510
vn 0.9510 -0.3092 -0.0000
vn -0.0000 -0.3092 -0.9510
vn -0.6725 -0.3092 -0.6725
vn -0.6725 -0.3092 0.6725
vn 0.6725 -0.3092 0.6725
vn 0.6725 -0.3092 -0.6725
vn -0.6563 -0.3724 -0.6563
vn -0.6563 -0.3724 0.6563
vn 0.6563 -0.3724 0.6563
vn 0.6563 -0.3724 -0.6563
vn -0.9281 -0.3724 -0.0000
vn -0.0000 -0.3724 0.9281
vn 0.9281 -0.3724 -0.0000
vn -0.0000 -0.3724 -0.9281
vn -0.9880 -0.1545 -0.0000
vn -0.0000 -0.1545 0.9880
vn 0.9880 -0.1545 -0.0000
vn -0.0000 -0.1545 -0.9880
vn -0.6986 -0.1545 -0.6986
vn -0.6986 -0.1545 0.6986
vn 0.6986 -0.1545 0.6986
vn 0.6986 -0.1545 -0.6986
vn 0.9486 -0.3164 -0.0000
vn 0.2923 0.8764 0.3827
vt 0.125000 0.812500
vt 0.000000 1.000000
vt 0.000000 0.812500
vt 0.312500 0.125000
vt 0.187500 0.312500
vt 0.187500 0.125000
vt 0.125000 0.500000
vt 0.000000 0.687500
vt 0.000000 0.500000
vt 1.000000 0.062500
vt 0.875000 0.250000
vt 0.875000 0.062500
vt 0.937500 0.625000
vt 0.812500 0.812500
vt 0.812500 0.625000
vt 0.375000 0.125000
vt 0.250000 0.312500
vt 0.250000 0.125000
vt 0.499076 0.363302
vt 0.596007 0.402687
vt 0.403993 0.597313
vt 0.250000 0.625000
vt 0.125000 0.625000
vt 0.687500 0.687500
vt 0.562500 0.875000
vt 0.562500 0.687500
vt 0.799940 0.375761
vt 0.799940 0.624239
vt 0.200060 0.375761
vt 0.500000 0.500000
vt 0.937500 0.500000
vt 0.687500 0.625000
vt 0.250000 0.500000
vt 0.687500 0.500000
vt 0.937500 0.500000
vt 0.437500 0.625000
vt 0.437500 0.500000
vt 0.867185 0.652093
vt 0.347907 0.867185
vt 0.132815 0.347907
vt 0.652091 0.132820
vt 0.867180 0.347909
vt 0.867180 0.652091
vt 0.812500 0.187500
vt 0.937500 0.375000
vt 0.812500 0.375000
vt 0.812500 0.437500
vt 0.687500 0.437500
vt 0.187500 0.250000
vt 0.062500 0.437500
vt 0.062500 0.250000
vt 0.812500 0.500000
vt 0.687500 0.500000
vt 0.812500 0.875000
vt 0.687500 0.875000
vt 0.749076 0.050802
vt 0.846007 0.090187
vt 0.653993 0.284813
vt 0.687500 0.187500
vt 0.687500 0.375000
vt 0.375000 0.437500
vt 0.250000 0.437500
vt 0.062500 0.312500
vt 0.062500 0.125000
vt 0.812500 0.750000
vt 0.687500 0.937500
vt 0.687500 0.750000
vt 0.937500 0.250000
vt 0.812500 0.250000
vt 0.125000 0.687500
vt 0.250000 0.875000
vt 0.125000 0.875000
vt 0.625000 0.125000
vt 0.750000 0.312500
vt 0.625000 0.312500
vt 0.625000 0.750000
vt 0.750000 0.937500
vt 0.625000 0.937500
vt 0.749076 0.675802
vt 0.846007 0.715187
vt 0.653993 0.909813
vt 0.312500 0.500000
vt 0.437500 0.687500
vt 0.312500 0.687500
vt 0.750000 0.250000
vt 0.625000 0.437500
vt 0.625000 0.250000
vt 0.187500 0.375000
vt 0.062500 0.500000
vt 0.062500 0.375000
vt 0.750000 0.562500
vt 0.625000 0.687500
vt 0.625000 0.562500
vt 0.750000 0.500000
vt 0.875000 0.625000
vt 0.750000 0.625000
vt 0.500000 0.375000
vt 0.625000 0.500000
vt 0.000100 0.292935
vt 0.000100 0.707065
vt 0.500000 0.437500
vt 0.500000 0.312500
vt 0.707065 0.000100
vt 0.999900 0.707065
vt 0.292935 0.999900
vt 0.437500 0.375000
vt 0.312500 0.375000
vt 0.312500 0.437500
vt 0.187500 0.562500
vt 0.187500 0.437500
vt 0.686172 0.501098
vt 0.498901 0.686172
vt 0.313828 0.498901
vt 0.414228 0.999936
vt 0.000064 0.000064
vt 0.414228 0.000064
vt 0.000064 0.999936
vt 0.000064 0.000064
vt 0.414228 0.999936
vt 0.414228 0.000064
vt 0.062500 0.687500
vt 0.062500 0.812500
vt 0.187500 0.062500
vt 0.062500 0.187500
vt 0.062500 0.062500
vt 0.312500 0.750000
vt 0.187500 0.875000
vt 0.187500 0.750000
vt 0.312500 0.187500
vt 0.437500 0.312500
vt 0.312500 0.312500
vt 0.125000 0.375000
vt 0.187500 0.500000
vt 0.062500 0.562500
vt 0.367579 0.369133
vt 0.369133 0.632420
vt 0.632420 0.630867
vt 0.500000 0.562500
vt 0.625000 0.375000
vt 0.375761 0.200060
vt 0.624239 0.200060
vt 0.375000 0.562500
vt 0.750000 0.750000
vt 0.937500 0.750000
vt 0.501099 0.313828
vt 0.000064 0.999936
vt 0.687500 0.312500
vt 0.500000 0.062500
vt 0.375000 0.187500
vt 0.375000 0.062500
vt 0.125000 0.437500
vt 0.125000 0.312500
vt 0.687500 0.812500
vt 0.625000 0.812500
vt 0.000064 0.000064
vt 0.501098 0.686172
vt 0.000064 0.000064
vt 0.414228 0.000064
vt 0.375000 0.312500
vt 0.875000 0.750000
vt 0.750000 0.875000
vt 0.750000 0.125000
vt 0.312500 0.625000
vt 0.937500 0.062500
vt 0.812500 0.062500
vt 0.812500 0.562500
vt 0.687500 0.562500
vt 0.630867 0.367579
vt 0.437500 0.750000
vt 0.312500 0.875000
vt 0.812500 0.312500
vt 0.250000 0.750000
vt 0.125000 0.750000
vt 0.750000 0.687500
vt 0.562500 0.500000
vt 0.437500 0.500000
vt 0.437500 0.125000
vt 0.312500 0.250000
vt 0.562500 0.562500
vt 0.312500 0.562500
vt 0.250000 0.562500
vt 0.500000 0.187500
vt 0.250000 0.062500
vt 0.250000 0.187500
vt 0.500000 0.812500
vt 0.500000 0.937500
vt 0.750000 0.187500
vt 0.750000 0.062500
vt 0.125000 0.562500
vt 0.937500 0.562500
vt 0.187500 0.625000
vt 0.187500 0.687500
vt 0.062500 0.875000
vt 0.062500 0.750000
vt 0.625000 0.187500
vt 0.500000 0.625000
vt 0.687500 0.250000
vt 0.562500 0.437500
vt 0.562500 0.250000
vt 0.125000 0.062500
vt 0.250000 0.250000
vt 0.125000 0.250000
vt 0.250000 0.937500
vt 0.125000 0.937500
vt 0.186576 0.613302
vt 0.283507 0.652687
vt 0.091493 0.847313
vt 0.562500 0.812500
vt 0.437500 0.812500
vt 0.389026 0.520428
vt 0.677653 0.495747
vt 0.672717 0.520428
vt 0.715580 0.292719
vt 0.346163 0.312003
vt 0.346163 0.292719
vt 0.488671 0.559387
vt 0.573072 0.643788
vt 0.488671 0.643788
vt 0.661480 0.130867
vt 0.400263 0.103597
vt 0.661480 0.103597
vt 0.055537 0.869496
vt 0.743722 0.955519
vt 0.055537 0.955519
vt 0.111795 0.452437
vt 0.799980 0.366414
vt 0.799980 0.452437
vt 0.728597 0.868363
vt 0.167110 0.868385
vt 0.167110 0.307006
vt 0.256337 0.280684
vt 0.787423 0.385038
vt 0.230436 0.385029
vt 0.186779 0.693035
vt 0.874965 0.607011
vt 0.874965 0.693035
vt 0.261763 0.396179
vt 0.949949 0.310156
vt 0.949949 0.396179
vt 0.167110 0.199632
vt 0.894283 0.307006
vt 0.332796 0.868363
vt 0.947413 0.624395
vt 0.416327 0.728749
vt 0.258566 0.624395
vt 0.199263 0.480566
vt 0.887449 0.394543
vt 0.887449 0.480566
vt 0.261763 0.806996
vt 0.949949 0.893019
vt 0.261763 0.893019
vt 0.894283 0.809801
vt 0.835567 0.868385
vt 0.167110 0.702427
vt 0.732474 0.175857
vt 0.807415 0.364865
vt 0.740394 0.364855
vt 0.283650 0.111808
vt 0.971836 0.025785
vt 0.971836 0.111808
vt 0.021166 0.219527
vt 0.709351 0.305550
vt 0.021166 0.305550
vt 0.894283 0.809801
vt 0.835567 0.868385
vt 0.167110 0.702427
vt 0.441860 0.700825
vt 0.516801 0.889834
vt 0.449780 0.889823
vt 0.682802 0.403678
vt 0.750781 0.524529
vt 0.682802 0.524529
vt 0.463321 0.570040
vt 0.985906 0.439393
vt 0.985906 0.570040
vt 0.007095 0.991895
vt 0.529680 0.861249
vt 0.529680 0.991895
vt 0.344570 0.409920
vt 0.276591 0.530771
vt 0.276591 0.409920
vt 0.112611 0.840024
vt 0.643696 0.944378
vt 0.086710 0.944369
vt 0.449766 0.472712
vt 0.374824 0.661720
vt 0.366876 0.472712
vt 0.096966 0.311895
vt 0.628051 0.416249
vt 0.071066 0.416240
vt 0.900557 0.533766
vt 0.369472 0.638119
vt 0.211711 0.533766
vt 0.215724 0.161927
vt 0.746809 0.266280
vt 0.189824 0.266271
vt 0.975541 0.743153
vt 0.444456 0.847506
vt 0.286694 0.743153
vt 0.227895 0.113356
vt 0.152954 0.302365
vt 0.145006 0.113356
vt 0.975542 0.452539
vt 0.444456 0.556893
vt 0.286695 0.452539
vt 0.793890 0.746660
vt 0.746411 0.794026
vt 0.205958 0.659855
vt 0.205911 0.340158
vt 0.793838 0.253327
vt 0.659888 0.794018
vt 0.659888 0.794018
vt 0.205911 0.794037
vt 0.205911 0.340158
vt 0.205911 0.253327
vt 0.793838 0.340158
vt 0.339861 0.794018
vt 0.717180 0.301313
vt 0.194595 0.170667
vt 0.717180 0.170667
vt 0.682802 0.678646
vt 0.750781 0.799497
vt 0.682802 0.799497
vt 0.041466 0.182555
vt 0.564051 0.051909
vt 0.564051 0.182555
vt 0.007095 0.660668
vt 0.529680 0.530022
vt 0.529680 0.660668
vt 0.041466 0.860653
vt 0.564051 0.730007
vt 0.564051 0.860653
vt 0.225812 0.444291
vt 0.157834 0.565142
vt 0.157834 0.444291
vt 0.407063 0.535668
vt 0.929648 0.405022
vt 0.929648 0.535668
vt 0.582777 0.866895
vt 0.060192 0.736249
vt 0.582777 0.736249
vt 0.032576 0.820017
vt 0.455885 0.925844
vt 0.032576 0.925844
vt 0.210423 0.792882
vt 0.633731 0.687055
vt 0.633731 0.792882
vt 0.050192 0.366594
vt 0.473500 0.472421
vt 0.050192 0.472421
vt 0.530884 0.526825
vt 0.954193 0.632652
vt 0.530884 0.632652
vt 0.530884 0.953113
vt 0.954193 0.847286
vt 0.954193 0.953113
vt 0.530884 0.366594
vt 0.954193 0.472421
vt 0.530884 0.472421
vt 0.173852 0.640463
vt 0.704745 0.640463
vt 0.112692 0.091017
vt 0.536000 0.196844
vt 0.112692 0.196844
vt 0.210422 0.126248
vt 0.633731 0.232075
vt 0.210422 0.232075
vt 0.000100 0.707065
vt 0.292935 0.000100
vt 0.999900 0.292935
vt 0.700192 0.708228
vt 0.255818 0.771710
vt 0.224077 0.708228
vt 0.298852 0.577963
vt 0.829745 0.577963
vt 0.829745 0.577963
vt 0.361352 0.515463
vt 0.892245 0.515463
vt 0.298852 0.640463
vt 0.829745 0.640463
vt 0.704745 0.233783
vt 0.173852 0.233783
vt 0.236352 0.702963
vt 0.767245 0.702963
vt 0.531361 0.574103
vt 0.941059 0.941098
vt 0.491258 0.941098
vt 0.504730 0.467882
vt 0.060357 0.531364
vt 0.028616 0.467882
vt 0.286578 0.841189
vt 0.730950 0.904671
vt 0.318319 0.904671
vt 0.304193 0.067305
vt 0.748566 0.130787
vt 0.335934 0.130787
vt 0.437154 0.637766
vt 0.881527 0.701248
vt 0.468895 0.701248
vt 0.504730 0.592882
vt 0.060357 0.656364
vt 0.028616 0.592882
vt 0.538268 0.628113
vt 0.093895 0.691594
vt 0.062154 0.628113
vt 0.091116 0.387766
vt 0.535489 0.451248
vt 0.122857 0.451248
vt 0.614769 0.778985
vt 0.181714 0.896413
vt 0.126021 0.778985
vt 0.436572 0.574071
vt 0.037835 0.941098
vt 0.077938 0.574103
vt 0.782611 0.421802
vt 0.383873 0.788828
vt 0.423976 0.421834
vt 0.632034 0.396225
vt 0.233296 0.763252
vt 0.273400 0.396257
vt 0.606457 0.040533
vt 0.207720 0.407559
vt 0.247823 0.040564
vt 0.531361 0.058180
vt 0.941059 0.425175
vt 0.491258 0.425175
vt 0.298976 0.173526
vt 0.708674 0.540521
vt 0.258873 0.540521
vt 0.907611 0.183148
vt 0.508873 0.550175
vt 0.548976 0.183180
vt 0.847206 0.151348
vt 0.468654 0.511513
vt 0.513582 0.151381
vt 0.045905 0.120447
vt 0.478945 0.237875
vt 0.101598 0.237875
vt 0.266943 0.546601
vt 0.699983 0.664029
vt 0.322636 0.664028
vt 0.827846 0.440909
vt 0.394790 0.558336
vt 0.339097 0.440909
vt 0.098751 0.120447
vt 0.531791 0.237875
vt 0.154444 0.237875
vt 0.204443 0.626716
vt 0.637483 0.744144
vt 0.260137 0.744143
vt 0.454443 0.210216
vt 0.887483 0.327645
vt 0.510136 0.327644
vt 0.489770 0.085216
vt 0.056713 0.202644
vt 0.001020 0.085216
vt 0.866686 0.514894
vt 0.404174 0.605966
vt 0.357117 0.514895
vt 0.421053 0.159310
vt 0.042500 0.519474
vt 0.087428 0.159343
vt 0.087428 0.079227
vt 0.475571 0.439359
vt 0.042500 0.439359
vt 0.456284 0.239425
vt 0.077731 0.599590
vt 0.122659 0.239458
vt 0.767091 0.515002
vt 0.388539 0.875167
vt 0.433467 0.515035
vt 0.829591 0.452502
vt 0.451039 0.812667
vt 0.495967 0.452535
vt 0.460736 0.577535
vt 0.848879 0.937667
vt 0.415808 0.937667
vt 0.590938 0.487733
vt 0.212385 0.847897
vt 0.257313 0.487766
vt 0.508406 0.757379
vt 0.967017 0.482213
vt 0.967017 0.757379
vt 0.635994 0.774548
vt 0.173482 0.865620
vt 0.126425 0.774549
vt 0.583148 0.454087
vt 0.120636 0.545159
vt 0.073579 0.454087
vt 0.028694 0.827395
vt 0.491860 0.918421
vt 0.075751 0.918466
vt 0.796225 0.293856
vt 0.333713 0.384928
vt 0.286656 0.293856
vt 0.974071 0.213741
vt 0.511559 0.304812
vt 0.464502 0.213741
vt 0.349156 0.223395
vt 0.812321 0.314421
vt 0.396213 0.314466
vt 0.520648 0.098395
vt 0.058136 0.189466
vt 0.011079 0.098395
vt 0.294832 -0.000990
vt 0.709553 -0.000990
vt 0.294832 1.000235
vt 0.320906 0.890341
vt 0.779517 0.615174
vt 0.779517 0.890341
vt 0.691440 0.917610
vt 0.232829 0.642443
vt 0.691440 0.642443
vt 0.445906 0.597148
vt 0.904517 0.321982
vt 0.904517 0.597148
vt 0.099867 0.428956
vt 0.558479 0.153790
vt 0.558479 0.428956
vt 0.232829 0.837495
vt 0.691440 0.562328
vt 0.691440 0.837495
vt 0.771555 0.356802
vt 0.312944 0.081636
vt 0.771555 0.081636
vt 0.495979 0.597148
vt 0.037367 0.321982
vt 0.495979 0.321982
vt 0.125000 1.000000
vt 1.000000 0.250000
vt 0.937500 0.812500
vt 0.636698 0.499076
vt 0.597313 0.596007
vt 0.500924 0.636698
vt 0.363302 0.500923
vt 0.402687 0.403993
vt 0.250000 0.812500
vt 0.624239 0.799940
vt 0.375761 0.799940
vt 0.200060 0.624239
vt 0.000000 0.625000
vt 0.652093 0.132814
vt 0.867185 0.347907
vt 0.652093 0.867185
vt 0.132815 0.652093
vt 0.347907 0.132814
vt 0.652091 0.867180
vt 0.132820 0.347909
vt 0.347909 0.867180
vt 0.132820 0.652091
vt 0.347909 0.132820
vt 0.937500 0.187500
vt 0.812500 0.687500
vt 0.886698 0.186576
vt 0.847313 0.283507
vt 0.750924 0.324198
vt 0.613302 0.188423
vt 0.652687 0.091493
vt 0.375000 0.625000
vt 0.812500 0.937500
vt 0.937500 0.437500
vt 0.250000 0.687500
vt 0.886698 0.811576
vt 0.847313 0.908507
vt 0.750924 0.949198
vt 0.613302 0.813423
vt 0.652687 0.716493
vt 0.750000 0.437500
vt 0.875000 0.500000
vt 0.999900 0.292934
vt 0.707065 0.999900
vt 0.292935 0.000100
vt 0.632421 0.369133
vt 0.630867 0.632420
vt 0.367580 0.630867
vt 0.369133 0.367579
vt 0.187500 0.187500
vt 0.437500 0.187500
vt 0.686172 0.498901
vt 0.498901 0.313828
vt 0.313828 0.501098
vt 0.000065 0.999936
vt 0.000064 0.999936
vt 0.875000 0.875000
vt 0.875000 0.125000
vt 0.437500 0.875000
vt 0.562500 0.375000
vt 0.437500 0.250000
vt 0.562500 0.625000
vt 0.875000 0.187500
vt 0.125000 0.187500
vt 0.187500 0.812500
vt 0.625000 0.625000
vt 0.875000 0.937500
vt 0.324198 0.749076
vt 0.284813 0.846007
vt 0.188424 0.886698
vt 0.050802 0.750923
vt 0.090187 0.653993
vt 0.384090 0.495747
vt 0.715580 0.312003
vt 0.573072 0.559387
vt 0.400263 0.130867
vt 0.743722 0.869496
vt 0.111795 0.366414
vt 0.835567 0.141048
vt 0.894283 0.199632
vt 0.945184 0.280684
vt 0.186779 0.607011
vt 0.261763 0.310156
vt 0.225826 0.141048
vt 0.894283 0.868385
vt 0.973313 0.728740
vt 0.199263 0.394543
vt 0.949949 0.806996
vt 0.167110 0.141048
vt 0.728597 0.141070
vt 0.815363 0.175857
vt 0.283650 0.025785
vt 0.709351 0.219527
vt 0.167110 0.141048
vt 0.728597 0.141070
vt 0.524749 0.700825
vt 0.750781 0.403678
vt 0.463321 0.439393
vt 0.007095 0.861249
vt 0.344570 0.530771
vt 0.801458 0.840024
vt 0.441846 0.661710
vt 0.785813 0.311895
vt 0.926457 0.638111
vt 0.904570 0.161927
vt 1.001441 0.847497
vt 0.219976 0.302354
vt 1.001442 0.556884
vt 0.205938 0.205974
vt 0.659916 0.205974
vt 0.205911 0.794037
vt 0.746357 0.205963
vt 0.746357 0.205963
vt 0.793838 0.253327
vt 0.253392 0.205963
vt 0.793838 0.794037
vt 0.194595 0.301313
vt 0.750781 0.678646
vt 0.041466 0.051909
vt 0.007095 0.530022
vt 0.041466 0.730007
vt 0.225812 0.565142
vt 0.407063 0.405022
vt 0.060192 0.866895
vt 0.455885 0.820017
vt 0.210423 0.687055
vt 0.473500 0.366594
vt 0.954193 0.526825
vt 0.530884 0.847286
vt 0.954193 0.366594
vt 0.536000 0.091017
vt 0.633731 0.126248
vt 0.707065 0.999900
vt 0.000100 0.292935
vt 0.707065 0.000100
vt 0.999900 0.707065
vt 0.668451 0.771710
vt 0.889995 0.574071
vt 0.472989 0.531364
vt 0.762691 0.841189
vt 0.780307 0.067305
vt 0.913268 0.637766
vt 0.472989 0.656364
vt 0.506527 0.691594
vt 0.567230 0.387766
vt 0.559060 0.896414
vt 0.487636 0.941098
vt 0.833674 0.788828
vt 0.683097 0.763252
vt 0.657521 0.407559
vt 0.889995 0.058148
vt 0.657611 0.173494
vt 0.958674 0.550175
vt 0.901725 0.511513
vt 0.534654 0.120447
vt 0.755692 0.546601
vt 0.772137 0.558337
vt 0.587500 0.120447
vt 0.693192 0.626716
vt 0.943192 0.210216
vt 0.434060 0.202645
vt 0.820283 0.605921
vt 0.475571 0.519474
vt 0.421053 0.079194
vt 0.510802 0.599590
vt 0.821609 0.875167
vt 0.884109 0.812667
vt 0.794360 0.577502
vt 0.645456 0.847897
vt 0.508406 0.482213
vt 0.589590 0.865574
vt 0.536744 0.545113
vt 0.538263 0.827394
vt 0.749821 0.384882
vt 0.927667 0.304767
vt 0.858724 0.223395
vt 0.474245 0.189421
vt 1.002805 0.292262
vt 1.002805 0.706983
vt 0.709553 1.000235
vt 0.001580 0.706983
vt 0.001580 0.292262
vt 0.320906 0.615174
vt 0.232829 0.917610
vt 0.445906 0.321982
vt 0.099867 0.153790
vt 0.232829 0.562328
vt 0.312944 0.356802
vt 0.037367 0.597148
s 0
usemtl corinthian
f 2/1/1 3/2/1 1/3/1
f 4/4/2 5/5/2 3/6/2
f 6/7/3 7/8/3 5/9/3
f 8/10/4 9/11/4 7/12/4
f 10/13/5 11/14/5 9/15/5
f 12/16/6 13/17/6 11/18/6
f 8/19/7 6/20/7 14/21/7
f 14/22/8 15/1/8 13/23/8
f 16/24/9 1/25/9 15/26/9
f 13/27/10 15/28/10 7/29/10
f 33/44/21 36/45/21 35/46/21
f 36/47/22 37/32/22 35/48/22
f 38/49/23 39/50/23 37/51/23
f 40/52/24 41/24/24 39/53/24
f 42/4/25 43/5/25 41/6/25
f 43/24/26 46/54/26 45/55/26
f 40/56/27 38/57/27 46/58/27
f 45/59/28 48/46/28 47/60/28
f 48/61/29 33/22/29 47/62/29
f 45/27/30 47/28/30 39/29/30
f 50/6/31 51/63/31 49/64/31
f 52/65/32 53/66/32 51/67/32
f 54/68/33 55/47/33 53/69/33
f 55/70/34 58/71/34 57/72/34
f 57/73/35 60/74/35 59/75/35
f 59/76/36 62/77/36 61/78/36
f 56/79/37 54/80/37 62/81/37
f 61/82/38 64/83/38 63/84/38
f 64/85/39 49/86/39 63/87/39
f 61/27/40 63/28/40 55/29/40
f 74/99/45 84/100/45 81/99/45
f 70/103/45 66/104/45 78/105/45
f 81/114/50 83/115/50 82/116/50
f 74/117/43 82/118/43 73/118/43
f 76/119/47 83/120/47 84/119/47
f 97/27/59 99/28/59 91/29/59
f 101/114/60 103/115/60 102/116/60
f 94/117/53 102/118/53 93/118/53
f 96/119/57 103/120/57 104/119/57
f 93/140/59 103/141/59 95/141/59
f 116/119/65 123/120/65 124/119/65
f 118/105/67 114/99/67 110/103/67
f 122/116/70 124/146/70 123/115/70
f 114/99/67 124/100/67 121/99/67
f 114/117/63 122/118/63 113/118/63
f 131/29/55 135/141/55 139/28/55
f 142/116/52 144/146/52 143/115/52
f 134/117/54 142/118/54 133/118/54
f 135/120/58 144/119/58 136/119/58
f 135/141/55 142/140/55 143/141/55
f 154/117/73 162/118/73 153/118/73
f 157/27/79 159/28/79 151/29/79
f 162/116/80 164/146/80 163/115/80
f 155/120/77 164/119/77 156/119/77
f 153/140/79 163/141/79 155/141/79
f 176/100/49 181/99/49 174/99/49
f 170/103/49 166/104/49 178/105/49
f 181/114/42 183/115/42 182/116/42
f 174/117/44 182/118/44 173/118/44
f 176/119/48 183/120/48 184/119/48
f 194/99/69 204/100/69 201/99/69
f 190/103/69 186/104/69 198/105/69
f 201/114/62 203/115/62 202/116/62
f 193/118/64 201/117/64 202/118/64
f 196/119/68 203/120/68 204/119/68
f 216/119/78 223/120/78 224/119/78
f 211/29/76 215/141/76 219/28/76
f 221/114/72 223/115/72 222/116/72
f 215/141/76 222/140/76 223/141/76
f 213/118/74 221/117/74 222/118/74
f 225/196/81 228/154/81 227/185/81
f 228/197/82 229/198/82 227/199/82
f 229/200/83 232/201/83 231/202/83
f 232/160/84 233/77/84 231/143/84
f 234/10/85 235/11/85 233/12/85
f 235/173/86 238/203/86 237/204/86
f 232/205/87 230/206/87 238/207/87
f 237/36/88 240/208/88 239/209/88
f 240/4/89 225/5/89 239/6/89
f 237/27/90 239/28/90 231/29/90
f 304/360/7 312/361/7 313/360/7
f 300/374/7 310/375/7 311/374/7
f 306/374/7 313/376/7 314/374/7
f 296/377/7 307/378/7 309/377/7
f 302/379/7 311/380/7 312/379/7
f 292/374/7 314/376/7 308/374/7
f 294/381/7 308/382/7 307/381/7
f 298/383/7 309/384/7 310/383/7
f 322/385/99 329/386/99 330/387/99
f 323/409/17 333/410/17 325/411/17
f 319/412/100 328/413/100 320/414/100
f 317/415/101 326/416/101 318/417/101
f 316/418/102 323/419/102 315/420/102
f 322/421/103 324/422/103 316/423/103
f 321/424/104 328/425/104 329/426/104
f 319/427/105 326/428/105 327/429/105
f 315/430/106 325/431/106 317/432/106
f 338/433/107 340/434/107 332/435/107
f 330/436/17 337/437/17 338/438/17
f 328/439/17 335/440/17 336/441/17
f 325/442/17 334/443/17 326/444/17
f 323/445/17 332/446/17 331/447/17
f 324/448/17 338/449/17 332/450/17
f 329/451/17 336/452/17 337/453/17
f 326/454/17 335/455/17 327/456/17
f 341/457/17 350/458/17 342/459/17
f 336/460/108 345/461/108 337/462/108
f 335/463/109 342/464/109 343/465/109
f 331/466/110 341/467/110 333/468/110
f 337/469/111 346/470/111 338/471/111
f 335/472/112 344/473/112 336/474/112
f 334/475/113 341/476/113 342/477/113
f 332/478/114 339/479/114 331/480/114
f 340/484/17 347/485/17 339/486/17
f 346/487/17 348/488/17 340/489/17
f 345/490/17 352/491/17 353/492/17
f 342/493/17 351/494/17 343/495/17
f 339/496/17 349/497/17 341/498/17
f 346/499/17 353/500/17 354/501/17
f 343/502/17 352/503/17 344/504/17
f 358/505/17 357/506/17 361/507/17
f 2/1/1 4/529/1 3/2/1
f 4/4/2 6/131/2 5/5/2
f 6/7/3 8/70/3 7/8/3
f 8/10/4 10/530/4 9/11/4
f 10/13/5 12/531/5 11/14/5
f 12/16/6 14/159/6 13/17/6
f 6/20/7 4/532/7 2/533/7
f 2/533/7 16/534/7 6/20/7
f 16/534/7 14/21/7 6/20/7
f 14/21/7 12/535/7 10/536/7
f 10/536/7 8/19/7 14/21/7
f 14/22/8 16/537/8 15/1/8
f 16/24/9 2/55/9 1/25/9
f 15/28/10 1/538/10 3/539/10
f 3/539/10 5/540/10 15/28/10
f 5/540/10 7/29/10 15/28/10
f 7/29/10 9/140/10 11/141/10
f 11/141/10 13/27/10 7/29/10
f 33/44/21 34/552/21 36/45/21
f 36/47/22 38/15/22 37/32/22
f 38/49/23 40/110/23 39/50/23
f 40/52/24 42/553/24 41/24/24
f 42/4/25 44/131/25 43/5/25
f 43/24/26 44/553/26 46/54/26
f 38/57/27 36/554/27 34/555/27
f 34/555/27 48/556/27 38/57/27
f 48/556/27 46/58/27 38/57/27
f 46/58/27 44/557/27 42/558/27
f 42/558/27 40/56/27 46/58/27
f 45/59/28 46/44/28 48/46/28
f 48/61/29 34/559/29 33/22/29
f 47/28/30 33/538/30 35/539/30
f 35/539/30 37/540/30 47/28/30
f 37/540/30 39/29/30 47/28/30
f 39/29/30 41/140/30 43/141/30
f 43/141/30 45/27/30 39/29/30
f 50/6/31 52/5/31 51/63/31
f 52/65/32 54/560/32 53/66/32
f 54/68/33 56/561/33 55/47/33
f 55/70/34 56/562/34 58/71/34
f 57/73/35 58/162/35 60/74/35
f 59/76/36 60/143/36 62/77/36
f 54/80/37 52/563/37 50/564/37
f 50/564/37 64/565/37 54/80/37
f 64/565/37 62/81/37 54/80/37
f 62/81/37 60/566/37 58/567/37
f 58/567/37 56/79/37 62/81/37
f 61/82/38 62/176/38 64/83/38
f 64/85/39 50/568/39 49/86/39
f 63/28/40 49/538/40 51/539/40
f 51/539/40 53/540/40 63/28/40
f 53/540/40 55/29/40 63/28/40
f 55/29/40 57/140/40 59/141/40
f 59/141/40 61/27/40 55/29/40
f 74/99/45 76/100/45 84/100/45
f 70/103/45 68/570/45 66/104/45
f 66/104/45 80/571/45 78/105/45
f 78/105/45 76/100/45 74/99/45
f 74/99/45 72/572/45 78/105/45
f 72/572/45 70/103/45 78/105/45
f 81/114/50 84/146/50 83/115/50
f 74/117/43 81/117/43 82/118/43
f 76/119/47 75/120/47 83/120/47
f 99/28/59 85/538/59 91/29/59
f 85/538/59 87/539/59 91/29/59
f 87/539/59 89/540/59 91/29/59
f 91/29/59 93/140/59 95/141/59
f 95/141/59 97/27/59 91/29/59
f 101/114/60 104/146/60 103/115/60
f 94/117/53 101/117/53 102/118/53
f 96/119/57 95/120/57 103/120/57
f 93/140/59 102/140/59 103/141/59
f 116/119/65 115/120/65 123/120/65
f 110/103/67 108/570/67 106/104/67
f 106/104/67 120/571/67 110/103/67
f 120/571/67 118/105/67 110/103/67
f 118/105/67 116/100/67 114/99/67
f 114/99/67 112/572/67 110/103/67
f 122/116/70 121/114/70 124/146/70
f 114/99/67 116/100/67 124/100/67
f 114/117/63 121/117/63 122/118/63
f 139/28/55 125/538/55 127/539/55
f 127/539/55 129/540/55 131/29/55
f 131/29/55 133/140/55 135/141/55
f 135/141/55 137/27/55 139/28/55
f 139/28/55 127/539/55 131/29/55
f 142/116/52 141/114/52 144/146/52
f 134/117/54 141/117/54 142/118/54
f 135/120/58 143/120/58 144/119/58
f 135/141/55 133/140/55 142/140/55
f 154/117/73 161/117/73 162/118/73
f 159/28/79 145/538/79 151/29/79
f 145/538/79 147/539/79 151/29/79
f 147/539/79 149/540/79 151/29/79
f 151/29/79 153/140/79 155/141/79
f 155/141/79 157/27/79 151/29/79
f 162/116/80 161/114/80 164/146/80
f 155/120/77 163/120/77 164/119/77
f 153/140/79 162/140/79 163/141/79
f 176/100/49 184/100/49 181/99/49
f 170/103/49 168/570/49 166/104/49
f 166/104/49 180/571/49 178/105/49
f 178/105/49 176/100/49 174/99/49
f 174/99/49 172/572/49 178/105/49
f 172/572/49 170/103/49 178/105/49
f 181/114/42 184/146/42 183/115/42
f 174/117/44 181/117/44 182/118/44
f 176/119/48 175/120/48 183/120/48
f 194/99/69 196/100/69 204/100/69
f 190/103/69 188/570/69 186/104/69
f 186/104/69 200/571/69 198/105/69
f 198/105/69 196/100/69 194/99/69
f 194/99/69 192/572/69 198/105/69
f 192/572/69 190/103/69 198/105/69
f 201/114/62 204/146/62 203/115/62
f 193/118/64 194/117/64 201/117/64
f 196/119/68 195/120/68 203/120/68
f 216/119/78 215/120/78 223/120/78
f 219/28/76 205/538/76 211/29/76
f 205/538/76 207/539/76 211/29/76
f 207/539/76 209/540/76 211/29/76
f 211/29/76 213/140/76 215/141/76
f 215/141/76 217/27/76 219/28/76
f 221/114/72 224/146/72 223/115/72
f 215/141/76 213/140/76 222/140/76
f 213/118/74 214/117/74 221/117/74
f 225/196/81 226/593/81 228/154/81
f 228/197/82 230/48/82 229/198/82
f 229/200/83 230/183/83 232/201/83
f 232/160/84 234/594/84 233/77/84
f 234/10/85 236/530/85 235/11/85
f 235/173/86 236/172/86 238/203/86
f 230/206/123 228/595/123 226/596/123
f 226/596/87 240/597/87 230/206/87
f 240/597/87 238/207/87 230/206/87
f 238/207/87 236/598/87 234/599/87
f 234/599/87 232/205/87 238/207/87
f 237/36/124 238/589/124 240/208/124
f 240/4/89 226/131/89 225/5/89
f 239/28/90 225/538/90 227/539/90
f 227/539/90 229/540/90 239/28/90
f 229/540/90 231/29/90 239/28/90
f 231/29/90 233/140/90 235/141/90
f 235/141/90 237/27/90 231/29/90
f 304/360/7 302/361/7 312/361/7
f 300/374/7 298/375/7 310/375/7
f 306/374/7 304/376/7 313/376/7
f 296/377/7 294/378/7 307/378/7
f 302/379/7 300/380/7 311/380/7
f 292/374/7 306/376/7 314/376/7
f 294/381/7 292/382/7 308/382/7
f 298/383/7 296/384/7 309/384/7
f 322/385/99 321/665/99 329/386/99
f 323/409/17 331/673/17 333/410/17
f 319/412/100 327/674/100 328/413/100
f 317/415/101 325/675/101 326/416/101
f 316/418/102 324/676/102 323/419/102
f 322/421/103 330/677/103 324/422/103
f 321/424/104 320/678/104 328/425/104
f 319/427/105 318/679/105 326/428/105
f 315/430/106 323/680/106 325/431/106
f 338/433/107 346/681/107 340/434/107
f 330/436/17 329/682/17 337/437/17
f 328/439/17 327/683/17 335/440/17
f 325/442/17 333/684/17 334/443/17
f 323/445/17 324/685/17 332/446/17
f 324/448/17 330/686/17 338/449/17
f 329/451/17 328/687/17 336/452/17
f 326/454/17 334/688/17 335/455/17
f 341/457/17 349/689/17 350/458/17
f 336/460/108 344/690/108 345/461/108
f 335/463/109 334/691/109 342/464/109
f 331/466/110 339/692/110 341/467/110
f 337/469/111 345/693/111 346/470/111
f 335/472/112 343/694/112 344/473/112
f 334/475/113 333/695/113 341/476/113
f 332/478/114 340/696/114 339/479/114
f 340/484/17 348/698/17 347/485/17
f 346/487/17 354/699/17 348/488/17
f 345/490/17 344/700/17 352/491/17
f 342/493/17 350/701/17 351/494/17
f 339/496/17 347/702/17 349/497/17
f 346/499/17 345/703/17 353/500/17
f 343/502/17 351/704/17 352/503/17
f 357/506/17 355/705/17 356/706/17
f 356/706/17 362/707/17 357/506/17
f 362/707/17 361/507/17 357/506/17
f 361/507/17 360/708/17 359/709/17
f 359/709/17 358/505/17 361/507/17
usemtl volute
f 67/111/49 71/112/49 75/113/49
f 98/135/55 94/136/55 90/137/55
f 119/145/69 107/111/69 111/112/69
f 134/136/59 132/156/59 130/137/59
f 146/168/76 158/135/76 154/136/76
f 167/111/45 171/112/45 175/113/45
f 199/145/67 187/111/67 191/112/67
f 214/136/79 212/156/79 210/137/79
f 79/145/49 65/573/49 67/111/49
f 67/111/49 69/574/49 71/112/49
f 71/112/49 73/575/49 75/113/49
f 75/113/49 77/576/49 79/145/49
f 79/145/49 67/111/49 75/113/49
f 90/137/55 88/579/55 86/168/55
f 86/168/55 100/580/55 98/135/55
f 98/135/55 96/581/55 94/136/55
f 94/136/55 92/156/55 90/137/55
f 90/137/55 86/168/55 98/135/55
f 119/145/69 105/573/69 107/111/69
f 107/111/69 109/574/69 111/112/69
f 111/112/69 113/575/69 115/113/69
f 115/113/69 117/576/69 111/112/69
f 117/576/69 119/145/69 111/112/69
f 130/137/59 128/579/59 126/168/59
f 126/168/59 140/580/59 130/137/59
f 140/580/59 138/135/59 130/137/59
f 138/135/59 136/581/59 130/137/59
f 136/581/59 134/136/59 130/137/59
f 150/137/76 148/579/76 146/168/76
f 146/168/76 160/580/76 158/135/76
f 158/135/76 156/581/76 154/136/76
f 154/136/76 152/156/76 150/137/76
f 150/137/76 146/168/76 154/136/76
f 179/145/45 165/573/45 167/111/45
f 167/111/45 169/574/45 171/112/45
f 171/112/45 173/575/45 175/113/45
f 175/113/45 177/576/45 179/145/45
f 179/145/45 167/111/45 175/113/45
f 199/145/67 185/573/67 187/111/67
f 187/111/67 189/574/67 191/112/67
f 191/112/67 193/575/67 195/113/67
f 195/113/67 197/576/67 191/112/67
f 197/576/67 199/145/67 191/112/67
f 210/137/79 208/579/79 206/168/79
f 206/168/79 220/580/79 210/137/79
f 220/580/79 218/135/79 210/137/79
f 218/135/79 216/581/79 210/137/79
f 216/581/79 214/136/79 210/137/79
usemtl base
f 18/38/17 30/39/17 26/40/17
f 27/41/20 29/42/20 31/43/20
f 66/88/41 67/89/41 65/90/41
f 68/91/42 69/92/42 67/93/42
f 69/94/43 72/95/43 71/96/43
f 71/97/44 74/98/44 73/30/44
f 76/75/46 77/101/46 75/102/46
f 78/106/47 79/82/47 77/107/47
f 80/108/48 65/109/48 79/110/48
f 73/121/49 83/1/49 75/122/49
f 86/65/51 87/55/51 85/67/51
f 88/123/52 89/124/52 87/125/52
f 90/126/53 91/127/53 89/128/53
f 91/129/54 94/130/54 93/131/54
f 96/132/55 101/133/55 94/7/55
f 96/109/56 97/121/56 95/134/56
f 98/86/57 99/138/57 97/101/57
f 100/139/58 85/30/58 99/97/58
f 105/61/61 108/138/61 107/142/61
f 108/95/62 109/143/62 107/96/62
f 110/6/63 111/51/63 109/64/63
f 112/126/64 113/127/64 111/128/64
f 115/15/66 118/144/66 117/65/66
f 118/107/65 119/133/65 117/88/65
f 119/90/68 106/133/68 105/89/68
f 113/59/69 123/74/69 115/147/69
f 126/148/56 127/149/56 125/150/56
f 128/86/60 129/138/60 127/101/60
f 130/17/54 131/151/54 129/152/54
f 132/52/53 133/32/53 131/53/53
f 136/92/59 141/153/59 134/154/59
f 136/119/51 137/155/51 135/120/51
f 138/114/58 139/157/58 137/158/58
f 140/159/57 125/62/57 139/17/57
f 146/160/71 147/161/71 145/143/71
f 147/162/72 150/11/72 149/85/72
f 150/36/73 151/126/73 149/163/73
f 152/164/74 153/44/74 151/165/74
f 155/48/75 158/166/75 157/167/75
f 158/169/77 159/170/77 157/126/77
f 159/59/78 146/171/78 145/147/78
f 154/161/76 164/65/76 161/54/76
f 165/23/46 168/172/46 167/173/46
f 167/93/50 170/174/50 169/92/50
f 169/106/44 172/175/44 171/176/44
f 172/177/43 173/178/43 171/4/43
f 176/119/41 177/155/41 175/120/41
f 178/114/48 179/157/48 177/158/48
f 179/179/47 166/24/47 165/26/47
f 173/62/45 183/180/45 175/181/45
f 186/182/66 187/159/66 185/149/66
f 187/183/70 190/149/70 189/184/70
f 190/175/64 191/36/64 189/176/64
f 191/185/63 194/78/63 193/186/63
f 196/12/61 197/187/61 195/188/61
f 197/151/68 200/181/68 199/189/68
f 199/107/65 186/176/65 185/82/65
f 193/124/67 203/152/67 195/63/67
f 205/67/75 208/54/75 207/55/75
f 207/47/80 210/190/80 209/166/80
f 209/133/74 212/163/74 211/191/74
f 212/192/73 213/122/73 211/121/73
f 216/13/71 217/65/71 215/15/71
f 218/128/78 219/193/78 217/194/78
f 220/44/77 205/147/77 219/59/77
f 216/195/79 221/147/79 214/75/79
f 254/210/12 252/211/12 251/212/12
f 264/213/16 266/214/16 265/215/16
f 258/216/14 256/217/14 255/218/14
f 259/219/19 261/220/19 260/221/19
f 251/222/91 244/223/91 254/224/91
f 245/225/92 252/226/92 253/227/92
f 248/228/17 250/229/17 242/230/17
f 245/231/20 272/232/20 269/233/20
f 258/234/93 246/235/93 247/236/93
f 244/237/94 256/238/94 257/239/94
f 255/240/17 242/241/17 246/242/17
f 241/243/20 273/244/20 266/245/20
f 262/246/95 248/247/95 245/248/95
f 243/249/96 261/250/96 241/251/96
f 259/252/17 260/253/17 243/254/17
f 265/255/20 273/256/20 274/257/20
f 266/258/97 243/259/97 241/260/97
f 246/261/98 265/262/98 247/263/98
f 263/264/17 264/265/17 246/266/17
f 261/267/20 277/268/20 278/269/20
f 278/270/19 289/271/19 290/272/19
f 270/273/93 287/274/93 275/275/93
f 278/276/96 279/277/96 267/278/96
f 275/279/14 288/280/14 276/281/14
f 244/282/20 276/283/20 268/284/20
f 254/285/20 272/286/20 253/287/20
f 241/288/20 278/289/20 267/290/20
f 244/291/20 271/292/20 254/293/20
f 247/294/20 274/295/20 270/296/20
f 247/297/20 275/298/20 258/299/20
f 258/300/20 276/301/20 257/302/20
f 245/303/20 277/304/20 262/305/20
f 284/306/20 283/307/20 280/308/20
f 280/309/20 287/310/20 282/311/20
f 281/312/20 249/313/20 279/314/20
f 286/315/20 279/316/20 282/317/20
f 273/318/97 279/319/97 285/320/97
f 272/321/12 283/322/12 284/323/12
f 276/324/94 280/325/94 268/326/94
f 268/327/91 283/328/91 271/329/91
f 274/330/98 282/331/98 270/332/98
f 273/333/16 286/334/16 274/335/16
f 269/336/95 289/337/95 277/338/95
f 269/339/92 284/340/92 281/341/92
f 292/342/11 293/343/11 291/344/11
f 293/345/12 296/346/12 295/347/12
f 296/348/13 297/349/13 295/350/13
f 298/351/14 299/352/14 297/353/14
f 299/354/15 302/355/15 301/356/15
f 302/357/16 303/358/16 301/359/16
f 304/362/18 305/363/18 303/364/18
f 306/365/19 291/366/19 305/367/19
f 293/368/20 297/369/20 301/370/20
f 311/371/17 320/372/17 312/373/17
f 309/388/17 318/389/17 310/390/17
f 307/391/17 316/392/17 315/393/17
f 308/394/17 322/395/17 316/396/17
f 313/397/17 320/398/17 321/399/17
f 310/400/17 319/401/17 311/402/17
f 307/403/17 317/404/17 309/405/17
f 314/406/17 321/407/17 322/408/17
f 353/481/115 362/482/115 354/483/115
f 351/508/116 360/509/116 352/510/116
f 350/511/117 357/512/117 358/513/117
f 348/514/118 355/515/118 347/516/118
f 354/517/119 356/518/119 348/519/119
f 352/520/120 361/521/120 353/522/120
f 351/523/121 358/524/121 359/525/121
f 349/526/122 355/527/122 357/528/122
f 22/542/17 20/543/17 18/38/17
f 18/38/17 32/544/17 30/39/17
f 30/39/17 28/545/17 26/40/17
f 26/40/17 24/546/17 22/542/17
f 22/542/17 18/38/17 26/40/17
f 31/43/20 17/547/20 23/548/20
f 17/547/20 19/549/20 23/548/20
f 19/549/20 21/550/20 23/548/20
f 23/548/20 25/551/20 31/43/20
f 25/551/20 27/41/20 31/43/20
f 66/88/41 68/133/41 67/89/41
f 68/91/42 70/174/42 69/92/42
f 69/94/43 70/569/43 72/95/43
f 71/97/44 72/139/44 74/98/44
f 76/75/46 78/86/46 77/101/46
f 78/106/47 80/176/47 79/82/47
f 80/108/48 66/180/48 65/109/48
f 73/121/49 82/70/49 83/1/49
f 86/65/51 88/54/51 87/55/51
f 88/123/52 90/577/52 89/124/52
f 90/126/53 92/170/53 91/127/53
f 91/129/54 92/578/54 94/130/54
f 96/132/55 104/88/55 101/133/55
f 96/109/56 98/192/56 97/121/56
f 98/86/57 100/93/57 99/138/57
f 100/139/58 86/98/58 85/30/58
f 105/61/61 106/101/61 108/138/61
f 108/95/62 110/160/62 109/143/62
f 110/6/63 112/49/63 111/51/63
f 112/126/64 114/170/64 113/127/64
f 115/15/66 116/13/66 118/144/66
f 118/107/65 120/82/65 119/133/65
f 119/90/68 120/88/68 106/133/68
f 113/59/69 122/187/69 123/74/69
f 126/148/56 128/182/56 127/149/56
f 128/86/60 130/93/60 129/138/60
f 130/17/54 132/62/54 131/151/54
f 132/52/53 134/15/53 133/32/53
f 136/92/59 144/24/59 141/153/59
f 136/119/51 138/582/51 137/155/51
f 138/114/58 140/583/58 139/157/58
f 140/159/57 126/61/57 125/62/57
f 146/160/71 148/584/71 147/161/71
f 147/162/72 148/585/72 150/11/72
f 150/36/73 152/169/73 151/126/73
f 152/164/74 154/552/74 153/44/74
f 155/48/75 156/47/75 158/166/75
f 158/169/77 160/586/77 159/170/77
f 159/59/78 160/44/78 146/171/78
f 154/161/76 156/143/76 164/65/76
f 165/23/46 166/22/46 168/172/46
f 167/93/50 168/91/50 170/174/50
f 169/106/44 170/587/44 172/175/44
f 172/177/43 174/588/43 173/178/43
f 176/119/41 178/582/41 177/155/41
f 178/114/48 180/583/48 179/157/48
f 179/179/47 180/167/47 166/24/47
f 173/62/45 182/108/45 183/180/45
f 186/182/66 188/102/66 187/159/66
f 187/183/70 188/150/70 190/149/70
f 190/175/64 192/589/64 191/36/64
f 191/185/63 192/154/63 194/78/63
f 196/12/61 198/590/61 197/187/61
f 197/151/68 198/62/68 200/181/68
f 199/107/65 200/106/65 186/176/65
f 193/124/67 202/591/67 203/152/67
f 205/67/75 206/65/75 208/54/75
f 207/47/80 208/561/80 210/190/80
f 209/133/74 210/82/74 212/163/74
f 212/192/73 214/592/73 213/122/73
f 216/13/71 218/144/71 217/65/71
f 218/128/78 220/127/78 219/193/78
f 220/44/77 206/171/77 205/147/77
f 216/195/79 224/59/79 221/147/79
f 254/210/12 253/600/12 252/211/12
f 264/213/16 263/601/16 266/214/16
f 258/216/14 257/602/14 256/217/14
f 259/219/19 262/603/19 261/220/19
f 251/222/91 242/604/91 244/223/91
f 245/225/92 248/605/92 252/226/92
f 242/230/17 251/606/17 252/607/17
f 252/607/17 248/228/17 242/230/17
f 245/231/20 253/608/20 272/232/20
f 258/234/93 255/609/93 246/235/93
f 244/237/94 242/610/94 256/238/94
f 256/611/17 242/241/17 255/240/17
f 242/241/17 250/612/17 246/242/17
f 241/243/20 267/613/20 273/244/20
f 262/246/95 259/614/95 248/247/95
f 243/249/96 260/615/96 261/250/96
f 250/616/17 248/617/17 243/254/17
f 248/617/17 259/252/17 243/254/17
f 265/255/20 266/618/20 273/256/20
f 266/258/97 263/619/97 243/259/97
f 246/261/98 264/620/98 265/262/98
f 246/266/17 250/621/17 243/622/17
f 243/622/17 263/264/17 246/266/17
f 261/267/20 262/623/20 277/268/20
f 278/270/19 277/624/19 289/271/19
f 270/273/93 282/625/93 287/274/93
f 278/276/96 290/626/96 279/277/96
f 275/279/14 287/627/14 288/280/14
f 244/282/20 257/628/20 276/283/20
f 254/285/20 271/629/20 272/286/20
f 241/288/20 261/630/20 278/289/20
f 244/291/20 268/631/20 271/292/20
f 247/294/20 265/632/20 274/295/20
f 247/297/20 270/633/20 275/298/20
f 258/300/20 275/634/20 276/301/20
f 245/303/20 269/635/20 277/304/20
f 249/636/20 281/637/20 280/308/20
f 281/637/20 284/306/20 280/308/20
f 282/311/20 249/638/20 280/309/20
f 280/309/20 288/639/20 287/310/20
f 279/314/20 290/640/20 289/641/20
f 289/641/20 281/312/20 279/314/20
f 285/642/20 279/316/20 286/315/20
f 279/316/20 249/643/20 282/317/20
f 273/318/97 267/644/97 279/319/97
f 272/321/12 271/645/12 283/322/12
f 276/324/94 288/646/94 280/325/94
f 268/327/91 280/647/91 283/328/91
f 274/330/98 286/648/98 282/331/98
f 273/333/16 285/649/16 286/334/16
f 269/336/95 281/650/95 289/337/95
f 269/339/92 272/651/92 284/340/92
f 292/342/11 294/652/11 293/343/11
f 293/345/12 294/653/12 296/346/12
f 296/348/13 298/654/13 297/349/13
f 298/351/14 300/655/14 299/352/14
f 299/354/15 300/656/15 302/355/15
f 302/357/16 304/657/16 303/358/16
f 304/362/18 306/658/18 305/363/18
f 306/365/19 292/659/19 291/366/19
f 305/660/20 291/105/20 293/368/20
f 293/368/20 295/661/20 297/369/20
f 297/369/20 299/662/20 301/370/20
f 301/370/20 303/663/20 305/660/20
f 305/660/20 293/368/20 301/370/20
f 311/371/17 319/664/17 320/372/17
f 309/388/17 317/666/17 318/389/17
f 307/391/17 308/667/17 316/392/17
f 308/394/17 314/668/17 322/395/17
f 313/397/17 312/669/17 320/398/17
f 310/400/17 318/670/17 319/401/17
f 307/403/17 315/671/17 317/404/17
f 314/406/17 313/672/17 321/407/17
f 353/481/115 361/697/115 362/482/115
f 351/508/116 359/710/116 360/509/116
f 350/511/117 349/711/117 357/512/117
f 348/514/118 356/712/118 355/515/118
f 354/517/119 362/713/119 356/518/119
f 352/520/120 360/714/120 361/521/120
f 351/523/121 350/715/121 358/524/121
f 349/526/122 347/716/122 355/527/122
usemtl ionic
f 18/13/11 19/30/11 17/31/11
f 20/32/12 21/33/12 19/34/12
f 22/13/13 23/30/13 21/35/13
f 24/32/14 25/33/14 23/34/14
f 26/36/15 27/9/15 25/37/15
f 27/34/16 30/22/16 29/33/16
f 29/34/18 32/22/18 31/33/18
f 32/32/19 17/33/19 31/34/19
f 18/13/11 20/196/11 19/30/11
f 20/32/12 22/22/12 21/33/12
f 22/13/13 24/196/13 23/30/13
f 24/32/14 26/22/14 25/33/14
f 26/36/15 28/541/15 27/9/15
f 27/34/16 28/32/16 30/22/16
f 29/34/18 30/32/18 32/22/18
f 32/32/19 18/22/19 17/33/19
