# Blender 5.1.2
# www.blender.org
mtllib medium_half_column_up.mtl
o column_medium
v 0.292892 0.000000 0.499996
v 0.292892 1.000000 0.499996
v 0.707108 0.000000 0.499996
v 0.707108 1.000000 0.499996
v 1.000004 0.000000 0.792892
v 1.000004 1.000000 0.792892
v -0.000004 0.000000 0.792892
v -0.000004 1.000000 0.792892
v 0.707108 1.750000 0.499996
v 0.292892 1.750000 0.499996
v 1.000004 1.750000 0.792892
v -0.000004 1.750000 0.792892
v 1.000004 0.000000 1.000602
v 1.000004 1.000000 1.000602
v -0.000004 0.000000 1.002720
v -0.000004 1.000000 1.002720
v 1.000004 1.750000 1.000602
v -0.000004 1.750000 1.002720
vn -0.0000 -0.0000 -1.0000
vn 0.7071 -0.0000 -0.7071
vn 0.0021 -0.0000 1.0000
vn 1.0000 -0.0000 -0.0000
vn -1.0000 -0.0000 -0.0000
vn -0.7071 -0.0000 -0.7071
vn -0.0000 1.0000 -0.0000
vn -0.0000 -1.0000 -0.0000
vt 0.375000 1.000000
vt 0.000000 -0.000000
vt 0.375000 -0.000000
vt 0.750000 1.000000
vt 0.375000 -0.000000
vt 0.750000 -0.000000
vt 0.000000 0.125000
vt 1.000000 0.875000
vt 0.000000 0.875000
vt 0.999895 0.999895
vt 0.000095 0.000105
vt 0.999895 0.000105
vt 0.375000 0.000000
vt 0.186993 0.749963
vt 0.186993 0.000037
vt 0.189963 1.000000
vt 0.189963 -0.000000
vt 0.750000 0.000000
vt 0.375074 0.749926
vt 0.375074 0.000074
vt 0.000074 0.749926
vt 0.000074 0.000074
vt 0.502470 0.954028
vt 0.500546 0.045972
vt 0.045972 0.688065
vt 0.189999 0.000037
vt 0.375000 1.000000
vt 0.186955 0.000000
vt 0.954028 0.688065
vt 0.688065 0.954028
vt 0.499454 0.954028
vt -0.000000 1.000000
vt 0.375000 1.000000
vt 1.000000 0.125000
vt 0.000095 0.999895
vt 0.375000 0.750000
vt 0.750000 0.750000
vt 0.311935 0.045972
vt 0.045972 0.311935
vt 0.311935 0.954028
vt 0.189999 0.749963
vt 0.186955 1.000000
vt 0.688065 0.045972
vt 0.954028 0.311935
vt 0.497530 0.045972
s 0
usemtl column_mat_top
f 18/23/7 17/24/7 10/25/7
f 3/29/8 5/30/8 13/31/8
f 11/38/7 9/39/7 17/24/7
f 9/39/7 10/25/7 17/24/7
f 10/25/7 12/40/7 18/23/7
f 7/43/8 1/44/8 15/45/8
f 1/44/8 3/29/8 13/31/8
f 15/45/8 1/44/8 13/31/8
usemtl column_mat_side
f 2/1/1 3/2/1 1/3/1
f 4/4/2 5/5/2 3/6/2
f 17/7/3 16/8/3 14/9/3
f 15/10/3 14/11/3 16/12/3
f 6/13/4 17/14/4 14/15/4
f 16/16/5 7/2/5 15/17/5
f 8/4/6 1/5/6 7/6/6
f 4/18/2 11/19/2 6/20/2
f 8/18/6 10/19/6 2/20/6
f 2/13/1 9/21/1 4/22/1
f 16/26/5 12/21/5 8/22/5
f 6/27/4 13/28/4 5/13/4
f 2/1/1 4/32/1 3/2/1
f 4/4/2 6/33/2 5/5/2
f 17/7/3 18/34/3 16/8/3
f 15/10/3 13/35/3 14/11/3
f 6/13/4 11/36/4 17/14/4
f 16/16/5 8/32/5 7/2/5
f 8/4/6 2/33/6 1/5/6
f 4/18/2 9/37/2 11/19/2
f 8/18/6 12/37/6 10/19/6
f 2/13/1 10/36/1 9/21/1
f 16/26/5 18/41/5 12/21/5
f 6/27/4 14/42/4 13/28/4
