# Blender 5.1.2
# www.blender.org
mtllib medium_roman_corinthian_half_capital.mtl
o Cube.306
v 0.266770 -0.260921 0.439204
v 0.266770 -0.189827 0.439204
v 0.733231 -0.260921 0.439204
v 0.733231 -0.189827 0.439204
v 1.063068 -0.260921 0.769042
v 1.063068 -0.189827 0.769042
v -0.063068 -0.260921 0.769042
v -0.063068 -0.189827 0.769042
v 0.710148 -0.189827 0.494930
v 0.289852 -0.189827 0.494930
v 1.007342 -0.189827 0.792124
v -0.007342 -0.189827 0.792124
v 0.730219 0.450173 0.446475
v 0.269781 0.450173 0.446475
v 1.055797 0.450173 0.772053
v -0.055797 0.450173 0.772053
v 0.730219 0.770173 0.446475
v 0.269781 0.770173 0.446475
v 1.055797 0.770173 0.772053
v -0.055797 0.770173 0.772053
v 0.269256 0.098173 0.445207
v 0.730744 0.098173 0.445207
v -0.057064 0.098173 0.771528
v 1.057065 0.098173 0.771528
v 0.290225 0.098173 0.495829
v -0.006443 0.098173 0.792496
v 0.709776 0.098173 0.495829
v 1.006443 0.098173 0.792496
v 0.249151 0.450173 0.396668
v -0.105604 0.450173 0.751422
v 0.750849 0.450173 0.396668
v 1.105603 0.450173 0.751422
v -0.089842 0.728288 1.002319
v -0.037182 0.776289 0.932613
v -0.098981 0.755676 0.932617
v -0.059239 0.842410 0.903742
v -0.121038 0.821796 0.903745
v -0.081292 0.908531 0.932614
v -0.143091 0.887918 0.932618
v -0.090424 0.935921 1.002316
v -0.152223 0.915307 1.002320
v 0.429422 0.908533 0.420990
v 0.429419 0.887920 0.359191
v 0.400551 0.842413 0.443047
v 0.400547 0.821799 0.381248
v 0.429423 0.776291 0.465100
v 0.429419 0.755678 0.403301
v 0.499126 0.748901 0.474232
v 0.499122 0.728288 0.412433
v 0.568828 0.776289 0.465093
v 0.568824 0.755676 0.403294
v 0.597699 0.842410 0.443036
v 0.597696 0.821796 0.381237
v 0.568827 0.908531 0.420983
v 0.568824 0.887918 0.359184
v 0.499125 0.935921 0.411851
v 0.499121 0.915307 0.350052
v 1.081285 0.908534 0.930863
v 1.143084 0.887920 0.930860
v 1.059229 0.842413 0.901991
v 1.121027 0.821800 0.901988
v 1.037175 0.776291 0.930863
v 1.098974 0.755678 0.930860
v 1.028043 0.748902 1.000566
v 1.089842 0.728289 1.000562
v 1.090424 0.935921 1.000565
v -0.073626 0.701846 0.885042
v -0.030630 0.701846 0.885039
v -0.073627 0.655843 0.865987
v -0.030631 0.655843 0.865984
v -0.073626 0.609840 0.885042
v -0.030630 0.609840 0.885039
v -0.073623 0.590785 0.931044
v -0.030627 0.590785 0.931042
v -0.073620 0.609840 0.977047
v -0.030625 0.609840 0.977045
v -0.073619 0.655843 0.996102
v -0.030624 0.655843 0.996100
v -0.073620 0.701846 0.977047
v -0.030625 0.701846 0.977045
v -0.073623 0.720901 0.931044
v -0.030628 0.720901 0.931042
v 0.617234 0.701846 0.428646
v 0.617237 0.701846 0.471642
v 0.636289 0.655843 0.428645
v 0.636292 0.655843 0.471641
v 0.617234 0.609840 0.428646
v 0.617237 0.609840 0.471642
v 0.571232 0.590785 0.428648
v 0.571234 0.590785 0.471644
v 0.525229 0.609840 0.428651
v 0.525231 0.609840 0.471646
v 0.506174 0.655843 0.428652
v 0.506176 0.655843 0.471647
v 0.525229 0.701846 0.428651
v 0.525231 0.701846 0.471646
v 0.571232 0.720901 0.428648
v 0.571234 0.720901 0.471644
v 0.382323 0.701845 0.471647
v 0.382321 0.701845 0.428651
v 0.363268 0.655842 0.471648
v 0.363266 0.655842 0.428652
v 0.382322 0.609839 0.471647
v 0.382320 0.609839 0.428651
v 0.428325 0.590784 0.471644
v 0.428323 0.590784 0.428649
v 0.474328 0.609839 0.471642
v 0.474326 0.609839 0.428647
v 0.493383 0.655842 0.471642
v 0.493381 0.655842 0.428646
v 0.474328 0.701845 0.471642
v 0.474326 0.701845 0.428647
v 0.428325 0.720900 0.471645
v 0.428323 0.720900 0.428649
v 1.030626 0.701845 0.885433
v 1.073621 0.701845 0.885431
v 1.030625 0.655842 0.866378
v 1.073621 0.655842 0.866376
v 1.030626 0.609839 0.885433
v 1.073621 0.609839 0.885431
v 1.030628 0.590784 0.931436
v 1.073623 0.590784 0.931434
v 1.030630 0.609839 0.977438
v 1.073625 0.609839 0.977437
v 1.030630 0.655842 0.996493
v 1.073626 0.655842 0.996492
v 1.030630 0.701845 0.977438
v 1.073625 0.701845 0.977437
v 1.030628 0.720900 0.931436
v 1.073623 0.720900 0.931434
v -0.215178 0.754521 0.361634
v -0.132647 0.754521 0.323147
v -0.232235 0.657087 0.325058
v -0.149703 0.657087 0.286571
v -0.215178 0.559653 0.361634
v -0.132646 0.559653 0.323147
v -0.173999 0.519295 0.449939
v -0.091467 0.519295 0.411452
v -0.132820 0.559653 0.538243
v -0.050289 0.559653 0.499756
v -0.115764 0.657087 0.574820
v -0.033232 0.657087 0.536333
v -0.132820 0.754521 0.538243
v -0.050289 0.754521 0.499756
v -0.173999 0.794880 0.449939
v -0.091468 0.794880 0.411452
v 0.050526 0.460847 0.715944
v -0.032005 0.460847 0.754431
v -0.014949 0.558281 0.791008
v 0.067583 0.558281 0.752521
v -0.032005 0.655715 0.754431
v 0.050526 0.655715 0.715944
v 1.131031 0.754522 0.321532
v 1.213564 0.754522 0.360016
v 1.148086 0.657088 0.284955
v 1.230620 0.657088 0.323439
v 1.131031 0.559654 0.321532
v 1.213564 0.559654 0.360016
v 1.089855 0.519295 0.409838
v 1.172388 0.519295 0.448322
v 1.048679 0.559654 0.498144
v 1.131212 0.559654 0.536628
v 1.031624 0.657088 0.534721
v 1.114157 0.657088 0.573205
v 1.048679 0.754522 0.498144
v 1.131212 0.754522 0.536628
v 1.089855 0.794880 0.409838
v 1.172388 0.794880 0.448322
v 1.029705 0.460162 0.754320
v 0.947172 0.460162 0.715836
v 0.930117 0.557596 0.752414
v 1.012650 0.557596 0.790898
v 0.947172 0.655029 0.715836
v 1.029705 0.655029 0.754320
v -0.178466 0.754522 0.368970
v -0.139982 0.754522 0.286437
v -0.215044 0.657088 0.351915
v -0.176560 0.657088 0.269382
v -0.178466 0.559654 0.368970
v -0.139982 0.559654 0.286437
v -0.090160 0.519295 0.410146
v -0.051676 0.519295 0.327612
v -0.001854 0.559654 0.451321
v 0.036630 0.559654 0.368788
v 0.034723 0.657088 0.468377
v 0.073207 0.657088 0.385843
v -0.001854 0.754522 0.451321
v 0.036630 0.754522 0.368788
v -0.090160 0.794880 0.410146
v -0.051676 0.794880 0.327612
v 0.253210 0.460670 0.469775
v 0.214726 0.460670 0.552309
v 0.251304 0.558104 0.569364
v 0.289788 0.558104 0.486831
v 0.214726 0.655538 0.552309
v 0.253210 0.655538 0.469775
v 1.138366 0.754521 0.284820
v 1.176852 0.754521 0.367352
v 1.174942 0.657087 0.267763
v 1.213429 0.657087 0.350295
v 1.138366 0.559653 0.284820
v 1.176852 0.559653 0.367352
v 1.050061 0.519295 0.325999
v 1.088548 0.519295 0.408531
v 0.961756 0.559653 0.367177
v 1.000243 0.559653 0.449709
v 0.925180 0.657087 0.384234
v 0.963666 0.657087 0.466766
v 0.961756 0.754521 0.367177
v 1.000243 0.754521 0.449709
v 1.050061 0.794880 0.325999
v 1.088548 0.794880 0.408531
v 0.783148 0.460433 0.550946
v 0.744661 0.460433 0.468414
v 0.708084 0.557867 0.485471
v 0.746571 0.557867 0.568003
v 0.744661 0.655300 0.468414
v 0.783148 0.655300 0.550946
v -0.199947 0.900128 1.000000
v 1.199947 1.000128 1.000000
v -0.199947 1.000128 1.000000
v 1.199947 0.900128 1.000000
v 0.500000 0.900128 0.300053
v 0.500000 1.000128 0.300053
v 0.500000 0.757486 1.000001
v 0.500000 1.000128 1.000000
v 1.406639 1.000128 0.166434
v 1.333567 1.000128 0.093361
v 1.333567 0.900128 0.093361
v 1.406639 0.900128 0.166434
v -0.333566 1.000128 0.093361
v -0.406639 1.000128 0.166434
v -0.406639 0.900128 0.166434
v -0.333566 0.900128 0.093361
v -0.065915 0.900128 1.000001
v 1.065916 0.900128 1.000001
v 0.500000 0.900128 0.434085
v 1.233028 0.900128 0.326052
v 1.173949 0.900128 0.266972
v -0.173948 0.900128 0.266972
v -0.233028 0.900128 0.326052
v -0.065915 0.757486 1.000001
v 1.065916 0.757486 1.000001
v 0.500000 0.757486 0.434085
v 1.233028 0.757486 0.326052
v 1.173949 0.757486 0.266972
v -0.173948 0.757486 0.266972
v -0.233028 0.757486 0.326052
v 1.063068 -0.260921 1.000548
v 1.063068 -0.189827 1.000548
v -0.063068 -0.260921 1.002199
v -0.063068 -0.189827 1.002199
v 1.007342 -0.189827 1.000630
v -0.007342 -0.189827 1.002118
v 1.055797 0.450173 1.000559
v -0.055797 0.450173 1.002189
v 1.055797 0.770173 1.000559
v -0.055797 0.770173 1.002189
v 1.057065 0.098173 1.000557
v -0.057064 0.098173 1.002191
v 1.006443 0.098173 1.000631
v -0.006443 0.098173 1.002116
v 1.105603 0.450173 1.000486
v -0.105604 0.450173 1.002262
v -0.028065 0.748967 1.002148
v 1.152204 0.915251 1.000418
v 0.500000 1.000128 1.001374
v 1.200033 0.900128 1.000347
v 1.200033 1.000128 1.000347
v -0.200542 0.900128 1.002401
v -0.200542 1.000128 1.002401
v 1.066050 0.900128 1.000544
v -0.066462 0.900128 1.002204
v 0.500000 0.757486 1.001374
v 1.066050 0.757486 1.000544
v -0.066462 0.757486 1.002204
vn -0.0000 -0.0000 -1.0000
vn 0.7071 -0.0000 -0.7071
vn -1.0000 -0.0000 -0.0000
vn -0.7071 -0.0000 -0.7071
vn -0.0000 1.0000 -0.0000
vn 1.0000 -0.0000 -0.0000
vn 0.9854 -0.1701 -0.0000
vn 0.6968 -0.1701 -0.6968
vn -0.6968 -0.1701 -0.6968
vn -0.0000 -0.1701 -0.9854
vn 0.9625 -0.2712 -0.0000
vn 0.6806 -0.2712 -0.6806
vn -0.6806 -0.2712 -0.6806
vn -0.0000 -0.2712 -0.9625
vn 0.2923 -0.8764 -0.3827
vn 0.1210 -0.3630 -0.9239
vn -0.1211 0.3630 -0.9239
vn -0.9486 -0.3164 0.0001
vn -0.2924 0.8764 -0.3827
vn 0.9486 0.3164 -0.0001
vn -0.9239 0.3630 -0.1210
vn -0.9239 -0.3630 0.1211
vn -0.3827 -0.8764 0.2924
vn 0.3827 -0.8764 0.2923
vn 0.9239 -0.3630 0.1210
vn 0.9239 0.3630 -0.1211
vn -0.0001 -0.3164 -0.9486
vn 0.3827 0.8764 -0.2924
vn -0.3827 0.8764 -0.2923
vn 0.0001 0.3164 0.9486
vn 0.1210 0.3630 -0.9239
vn -0.1211 -0.3630 -0.9239
vn -0.2923 -0.8764 -0.3827
vn -0.0001 0.3827 -0.9239
vn -0.0001 -0.3827 -0.9239
vn -0.0000 -0.9239 -0.3827
vn -0.0000 -0.9239 0.3827
vn 0.0001 -0.3827 0.9239
vn 0.0001 0.3827 0.9239
vn 1.0000 -0.0000 -0.0001
vn -0.0000 0.9239 0.3827
vn -0.0000 0.9239 -0.3827
vn -1.0000 -0.0000 0.0001
vn 0.9239 0.3827 -0.0000
vn 0.9239 -0.3827 -0.0000
vn 0.3827 -0.9239 -0.0000
vn -0.3827 -0.9239 -0.0000
vn -0.9239 -0.3827 -0.0000
vn -0.9239 0.3827 -0.0000
vn 0.0001 -0.0000 1.0000
vn -0.3827 0.9239 -0.0000
vn 0.3827 0.9239 -0.0000
vn -0.0001 -0.0000 -1.0000
vn -0.0000 -0.0000 1.0000
vn -0.0000 0.3827 -0.9239
vn -0.0000 -0.3827 -0.9239
vn -0.0000 -0.3827 0.9239
vn -0.0000 0.3827 0.9239
vn -0.3905 0.3827 -0.8373
vn -0.3905 -0.3827 -0.8373
vn -0.1617 -0.9239 -0.3468
vn 0.1617 -0.9239 0.3468
vn 0.1617 0.9239 0.3468
vn -0.9063 -0.0000 0.4226
vn 0.9063 -0.0000 -0.4226
vn -0.1617 0.9239 -0.3468
vn 0.3905 -0.3827 0.8373
vn 0.3905 0.3827 0.8373
vn 0.3904 0.3827 -0.8373
vn 0.3904 -0.3827 -0.8373
vn 0.1617 -0.9239 -0.3468
vn -0.1617 -0.9239 0.3468
vn -0.1617 0.9239 0.3468
vn -0.9063 -0.0000 -0.4226
vn 0.9063 -0.0000 0.4226
vn 0.1617 0.9239 -0.3468
vn -0.3904 -0.3827 0.8373
vn -0.3904 0.3827 0.8373
vn -0.8373 0.3827 -0.3904
vn -0.8373 -0.3827 -0.3904
vn -0.3468 -0.9239 -0.1617
vn 0.3468 -0.9239 0.1617
vn 0.3468 0.9239 0.1617
vn -0.4226 -0.0000 0.9063
vn 0.4226 -0.0000 -0.9063
vn -0.3468 0.9239 -0.1617
vn 0.8373 -0.3827 0.3904
vn 0.8373 0.3827 0.3904
vn 0.8373 0.3827 -0.3905
vn 0.8373 -0.3827 -0.3905
vn 0.3468 -0.9239 -0.1617
vn -0.3468 -0.9239 0.1617
vn 0.4226 -0.0000 0.9063
vn -0.3468 0.9239 0.1617
vn 0.3468 0.9239 -0.1617
vn -0.4226 -0.0000 -0.9063
vn -0.8373 -0.3827 0.3905
vn -0.8373 0.3827 0.3905
vn 0.9706 -0.0000 0.2407
vn -0.2407 -0.0000 -0.9706
vn -0.0000 -1.0000 -0.0000
vn 0.2407 -0.0000 -0.9706
vn -0.9706 -0.0000 0.2407
vn -0.9706 -0.0000 -0.2407
vn 0.9706 -0.0000 -0.2406
vn 0.9707 -0.0000 -0.2405
vn 0.2923 0.8764 -0.3827
vn 0.9486 -0.3164 -0.0000
vn -0.9486 0.3164 0.0001
vn -0.9625 -0.2712 -0.0000
vn -0.9854 -0.1701 -0.0000
vn 0.0015 -0.0000 1.0000
vn 0.0003 0.0007 1.0000
vn 0.0003 -0.0008 1.0000
vn -0.9706 -0.0000 -0.2406
vn 0.9706 -0.0000 -0.2408
vn 0.9486 -0.3164 -0.0001
vn 0.0022 -0.0007 1.0000
vn 0.0025 0.0008 1.0000
vt 0.355968 0.379284
vt 0.307665 0.886357
vt 0.307665 0.379284
vt 0.504408 0.066762
vt 0.456105 0.573836
vt 0.456105 0.066762
vt 0.934109 0.281318
vt 0.885806 0.534776
vt 0.885806 0.281318
vt 0.137207 0.426143
vt 0.088904 0.933216
vt 0.088904 0.426143
vt 0.656779 0.121503
vt 0.356115 0.152632
vt 0.343221 0.121503
vt 0.701105 0.016099
vt 0.320065 0.063990
vt 0.300228 0.016099
vt 0.064657 0.319399
vt 0.016766 0.299562
vt 0.157449 0.841122
vt 0.064657 0.680601
vt 0.191363 0.807308
vt 0.016766 0.700438
vt 0.513164 0.630495
vt 0.671280 0.994505
vt 0.513164 0.994505
vt 0.940232 0.344279
vt 0.909104 0.043611
vt 0.940232 0.030721
vt 0.346603 0.093221
vt 0.377732 0.393889
vt 0.346603 0.406779
vt 0.121503 0.498884
vt 0.152632 0.356115
vt 0.152632 0.498930
vt 0.700665 0.005495
vt 0.858780 0.369505
vt 0.700665 0.369505
vt 0.138164 0.317995
vt 0.296280 0.498646
vt 0.138164 0.498646
vt 0.696432 0.580365
vt 0.866068 0.919635
vt 0.696432 0.919635
vt 0.508363 0.574998
vt 0.333878 0.438622
vt 0.508363 0.438574
vt 0.758363 0.762498
vt 0.583878 0.474026
vt 0.758363 0.487502
vt 0.883363 0.112502
vt 0.708878 0.400974
vt 0.708878 0.099026
vt 0.508363 0.762498
vt 0.333878 0.474026
vt 0.508363 0.487502
vt 0.695697 0.251072
vt 0.664058 0.381112
vt 0.664058 0.251026
vt 0.848165 0.644215
vt 0.816527 0.368890
vt 0.848165 0.355785
vt 0.355785 0.848165
vt 0.631110 0.816527
vt 0.644215 0.848165
vt 0.664058 0.605788
vt 0.695697 0.881112
vt 0.664058 0.894213
vt 0.062730 0.056391
vt 0.291304 0.186384
vt 0.062740 0.186483
vt 0.750230 0.681391
vt 0.978804 0.969275
vt 0.750250 0.943625
vt 0.312750 0.943625
vt 0.541304 0.655725
vt 0.541304 0.969274
vt 0.250230 0.368891
vt 0.478804 0.656774
vt 0.250250 0.631125
vt 0.452431 0.521521
vt 0.475241 0.466320
vt 0.475296 0.521521
vt 0.473702 0.517672
vt 0.454025 0.470168
vt 0.473702 0.470168
vt 0.473702 0.517672
vt 0.454025 0.470168
vt 0.473702 0.470168
vt 0.705461 0.237321
vt 0.679218 0.178037
vt 0.702582 0.117559
vt 0.475296 0.466320
vt 0.452431 0.521520
vt 0.452431 0.466320
vt 0.444601 0.477585
vt 0.500128 0.454618
vt 0.523150 0.477641
vt 0.454025 0.517672
vt 0.473702 0.517672
vt 0.454025 0.470168
vt 0.473702 0.470168
vt 0.475296 0.521520
vt 0.452431 0.466320
vt 0.475296 0.466320
vt 0.473702 0.470168
vt 0.454025 0.517672
vt 0.454025 0.470168
vt 0.847148 0.347158
vt 0.907625 0.370522
vt 0.790742 0.493163
vt 0.475296 0.521521
vt 0.452431 0.466320
vt 0.475296 0.466320
vt 0.467569 0.533222
vt 0.444546 0.477641
vt 0.500127 0.454618
vt 0.473702 0.470168
vt 0.454025 0.517672
vt 0.454025 0.470168
vt 0.475296 0.521521
vt 0.452431 0.466320
vt 0.457340 0.509670
vt 0.470387 0.478170
vt 0.470387 0.509670
vt 0.470387 0.509670
vt 0.457340 0.478170
vt 0.470387 0.478170
vt 0.471521 0.512406
vt 0.456206 0.475434
vt 0.471521 0.475434
vt 0.456206 0.512406
vt 0.457340 0.478170
vt 0.470387 0.478170
vt 0.457340 0.509670
vt 0.458833 0.483559
vt 0.473487 0.468906
vt 0.494210 0.468906
vt 0.456206 0.512406
vt 0.471521 0.512406
vt 0.604078 0.360745
vt 0.469058 0.304227
vt 0.467634 0.686714
vt 0.471521 0.512406
vt 0.473487 0.518935
vt 0.456206 0.512406
vt 0.277103 0.494759
vt 0.470387 0.509670
vt 0.470387 0.509670
vt 0.457339 0.478170
vt 0.602840 0.359508
vt 0.604310 0.629965
vt 0.333852 0.631434
vt 0.471521 0.512406
vt 0.471521 0.475434
vt 0.458833 0.483559
vt 0.494210 0.468905
vt 0.508863 0.504282
vt 0.748708 0.284192
vt 0.803568 0.215808
vt 0.803568 0.284192
vt 0.748709 0.840808
vt 0.803569 0.909192
vt 0.748709 0.909192
vt 0.169040 0.405304
vt 0.110779 0.469695
vt 0.110779 0.405304
vt 0.794040 0.780304
vt 0.735779 0.844696
vt 0.735779 0.780304
vt 0.213956 0.421179
vt 0.155695 0.578821
vt 0.155695 0.421179
vt 0.467642 0.143189
vt 0.413039 0.356811
vt 0.413039 0.162011
vt 0.453874 0.421555
vt 0.513823 0.421555
vt 0.453874 0.566285
vt 0.493979 0.566626
vt 0.433748 0.421215
vt 0.493979 0.421215
vt 0.480081 0.533074
vt 0.447645 0.454767
vt 0.480081 0.454767
vt 0.332551 0.385746
vt 0.476751 0.325274
vt 0.478543 0.733875
vt 0.477681 0.460562
vt 0.450046 0.527278
vt 0.450046 0.460562
vt 0.477681 0.527278
vt 0.413036 0.174078
vt 0.374427 0.325922
vt 0.374427 0.131125
vt 0.717641 0.724511
vt 0.663039 0.900489
vt 0.663039 0.705689
vt 0.963956 0.046179
vt 0.905696 0.203821
vt 0.905696 0.046179
vt 0.686927 0.111578
vt 0.725536 0.263422
vt 0.686927 0.306375
vt 0.491068 0.284192
vt 0.436209 0.215809
vt 0.491068 0.215809
vt 0.477681 0.460562
vt 0.450046 0.527278
vt 0.450046 0.460562
vt 0.798279 0.655304
vt 0.856541 0.719696
vt 0.798279 0.719696
vt 0.794041 0.217804
vt 0.735780 0.282195
vt 0.735780 0.217804
vt 0.462683 0.170631
vt 0.404422 0.329369
vt 0.404422 0.170631
vt 0.724735 0.661335
vt 0.779338 0.838665
vt 0.724735 0.857487
vt 0.333396 0.674251
vt 0.477948 0.733877
vt 0.622323 0.673826
vt 0.494053 0.566805
vt 0.433673 0.421036
vt 0.494053 0.421036
vt 0.480081 0.533074
vt 0.411367 0.463897
vt 0.513871 0.421439
vt 0.556329 0.523943
vt 0.477681 0.460562
vt 0.475077 0.173401
vt 0.436467 0.326599
vt 0.436467 0.130448
vt 0.779337 0.473835
vt 0.724735 0.651165
vt 0.724735 0.455013
vt 0.466922 0.608131
vt 0.525183 0.766869
vt 0.466922 0.766869
vt 0.248967 0.360901
vt 0.287577 0.514099
vt 0.248967 0.557052
vt 0.116068 0.784191
vt 0.061208 0.715808
vt 0.116068 0.715808
vt 0.123709 0.153309
vt 0.178569 0.221692
vt 0.123709 0.221692
vt 0.606540 0.780305
vt 0.548279 0.844696
vt 0.548279 0.780305
vt 0.356541 0.655304
vt 0.298279 0.719696
vt 0.298279 0.655304
vt 0.493998 0.421168
vt 0.493998 0.566672
vt 0.725330 0.099337
vt 0.779932 0.275663
vt 0.725330 0.294485
vt 0.621898 0.384899
vt 0.332971 0.385323
vt 0.433728 0.421168
vt 0.411453 0.463933
vt 0.513835 0.421525
vt 0.556243 0.523907
vt 0.477681 0.460562
vt 0.787917 0.736403
vt 0.749307 0.888597
vt 0.749307 0.693450
vt 0.154932 0.411837
vt 0.100330 0.588163
vt 0.100330 0.393015
vt 0.717864 0.733537
vt 0.776125 0.891463
vt 0.717864 0.891463
vt 0.061807 0.423903
vt 0.100417 0.576097
vt 0.061807 0.619050
vt 0.123709 0.534192
vt 0.178569 0.465809
vt 0.178569 0.534192
vt 0.186208 0.846692
vt 0.241067 0.778309
vt 0.241067 0.846692
vt 0.356540 0.655304
vt 0.298279 0.719695
vt 0.298279 0.655304
vt 0.419041 0.655305
vt 0.360779 0.719696
vt 0.360779 0.655305
vt 0.411413 0.523924
vt 0.453845 0.566355
vt 0.088185 0.045848
vt 0.029924 0.204152
vt 0.029924 0.045848
vt 0.411413 0.463916
vt 0.453844 0.421485
vt 0.513852 0.421485
vt 0.494024 0.566734
vt 0.433703 0.421106
vt 0.494024 0.421106
vt 0.273347 0.530471
vt 0.477681 0.527278
vt 0.450046 0.460562
vt 0.477681 0.460562
vt 0.217154 0.705281
vt 0.162552 0.919719
vt 0.162552 0.724103
vt 0.404923 0.170847
vt 0.463185 0.329153
vt 0.404923 0.329153
vt 0.162758 0.736169
vt 0.124148 0.888831
vt 0.124148 0.693215
vt 0.273335 0.546072
vt 0.205398 0.658402
vt 0.205398 0.546072
vt 0.389636 0.646651
vt 0.340225 0.728348
vt 0.340225 0.646651
vt 0.848443 0.010479
vt 0.780506 0.943997
vt 0.780506 0.010479
vt 0.507320 0.010479
vt 0.439384 0.943997
vt 0.439383 0.010479
vt 0.271902 0.107511
vt 0.873420 0.107511
vt 0.873420 0.709029
vt 0.394555 0.230790
vt 0.282750 0.799801
vt 0.282757 0.203046
vt 0.259310 0.074529
vt 0.371107 0.048737
vt 0.259310 0.076655
vt 0.763162 0.010479
vt 0.695225 0.943997
vt 0.695225 0.010479
vt 0.972856 0.010479
vt 0.904920 0.943997
vt 0.904919 0.010479
vt 0.094276 0.170308
vt 0.157072 0.107511
vt 0.873420 0.285137
vt 0.251479 0.941309
vt 0.183542 0.943997
vt 0.183542 0.941309
vt 0.323509 0.054987
vt 0.403804 0.257492
vt 0.331997 0.257482
vt 0.219872 0.773823
vt 0.129052 0.870729
vt 0.129052 0.773823
vt 0.548133 0.031517
vt 0.645039 0.786277
vt 0.548133 0.786277
vt 0.154497 0.398748
vt 0.074202 0.601253
vt 0.065688 0.398748
vt 0.894576 0.129230
vt 0.782771 0.698241
vt 0.782778 0.101486
vt 0.103049 0.082350
vt 0.214853 0.651360
vt 0.103049 0.820394
vt 0.673391 0.215170
vt 0.785196 0.784181
vt 0.673391 0.953215
vt 0.810944 0.764253
vt 0.760100 0.815008
vt 0.181015 0.671299
vt 0.667376 0.815008
vt 0.181000 0.815008
vt 0.181015 0.328701
vt 0.076169 0.168200
vt 0.173075 0.170668
vt 0.076169 0.170668
vt 0.340957 0.809628
vt 0.250137 0.906534
vt 0.250137 0.809628
vt 0.593694 0.168200
vt 0.690600 0.922960
vt 0.593694 0.922960
vt 0.462853 0.230700
vt 0.559759 0.985460
vt 0.462853 0.985460
vt 0.462853 0.031516
vt 0.559759 0.786277
vt 0.462853 0.786277
vt 0.181015 0.328701
vt 0.182180 0.815008
vt 0.180999 0.815008
vt 0.810929 0.328701
vt 0.809764 0.815008
vt 0.809035 0.328231
vt 0.240889 0.791510
vt 0.337795 0.792119
vt 0.240889 0.792119
vt 0.894004 0.010479
vt 0.826067 0.010868
vt 0.826067 0.010479
vt 0.566435 0.090170
vt 0.454638 0.062908
vt 0.454638 0.062427
vt 0.695794 0.886655
vt 0.094276 0.885475
vt 0.695868 0.886357
vt 0.094276 0.285137
vt 0.095456 0.886655
vt 0.094276 0.886655
vt 0.475249 0.521521
vt 0.452431 0.521521
vt 0.254378 0.942875
vt 0.250184 0.773561
vt 0.310661 0.796925
vt 0.444546 0.510200
vt 0.444546 0.477641
vt 0.523150 0.510200
vt 0.312750 0.381125
vt 0.541304 0.250006
vt 0.541304 0.406774
vt 0.820697 0.249949
vt 0.789059 0.118888
vt 0.820697 0.105788
vt 0.483892 0.786508
vt 0.484750 0.201332
vt 0.776436 0.615114
vt 0.878497 0.499994
vt 0.847368 0.356115
vt 0.878497 0.343221
vt 0.638165 0.187565
vt 0.796280 0.369505
vt 0.638165 0.369505
vt 0.945863 0.050002
vt 0.771378 0.187447
vt 0.771378 0.036526
vt 0.842792 0.157786
vt 0.681268 0.063990
vt 0.762229 0.363664
vt 0.713926 0.615327
vt 0.713926 0.363664
vt 0.300641 0.985190
vt 0.017186 0.701735
vt 0.017186 0.502784
vt 0.726877 0.903890
vt 0.625869 0.499819
vt 0.798669 0.499819
vt 0.296329 0.082024
vt 0.585952 0.041227
vt 0.297069 0.919212
vt 0.137307 0.415339
vt 0.193291 0.584712
vt 0.137307 0.584712
vt 0.467903 0.584712
vt 0.523888 0.415348
vt 0.523888 0.584712
vt 0.355968 0.886357
vt 0.504408 0.573836
vt 0.934109 0.534776
vt 0.137207 0.933216
vt 0.643885 0.152632
vt 0.671280 0.630495
vt 0.909103 0.331389
vt 0.377731 0.106111
vt 0.121503 0.343221
vt 0.858780 0.005495
vt 0.296280 0.317995
vt 0.866068 0.580365
vt 0.333878 0.588474
vt 0.583878 0.775974
vt 0.883363 0.387498
vt 0.333878 0.775974
vt 0.695697 0.394213
vt 0.816527 0.631110
vt 0.368890 0.816527
vt 0.695696 0.618888
vt 0.291304 0.030725
vt 0.978804 0.655726
vt 0.312730 0.681391
vt 0.478804 0.343226
vt 0.452431 0.466320
vt 0.454025 0.517672
vt 0.761867 0.091316
vt 0.765939 0.260685
vt 0.523150 0.510200
vt 0.467569 0.454618
vt 0.454025 0.517672
vt 0.452431 0.521521
vt 0.473702 0.517672
vt 0.933868 0.429807
vt 0.910504 0.490284
vt 0.851219 0.516527
vt 0.764499 0.433878
vt 0.787863 0.373401
vt 0.523150 0.510200
vt 0.500128 0.533222
vt 0.444546 0.510200
vt 0.467569 0.454618
vt 0.523150 0.477641
vt 0.473702 0.517672
vt 0.457340 0.509670
vt 0.508863 0.483559
vt 0.508863 0.504282
vt 0.494210 0.518935
vt 0.458833 0.504282
vt 0.333620 0.359738
vt 0.332613 0.630197
vt 0.603073 0.631203
vt 0.659590 0.496182
vt 0.457339 0.509670
vt 0.277104 0.496510
vt 0.332383 0.360977
vt 0.467307 0.304229
vt 0.659588 0.494432
vt 0.469385 0.686712
vt 0.494210 0.518935
vt 0.473487 0.518935
vt 0.458833 0.504282
vt 0.473487 0.468905
vt 0.508863 0.483559
vt 0.508863 0.483559
vt 0.748708 0.215809
vt 0.803569 0.840808
vt 0.169040 0.469695
vt 0.794040 0.844696
vt 0.213956 0.578821
vt 0.467642 0.337989
vt 0.556213 0.463946
vt 0.556213 0.523895
vt 0.513823 0.566285
vt 0.411483 0.523895
vt 0.411483 0.463946
vt 0.433748 0.566626
vt 0.447645 0.533074
vt 0.621476 0.384478
vt 0.681948 0.528678
vt 0.622743 0.673403
vt 0.333818 0.674670
vt 0.477681 0.527278
vt 0.413036 0.368875
vt 0.717641 0.919311
vt 0.963956 0.203821
vt 0.725536 0.068625
vt 0.436209 0.284192
vt 0.477681 0.527278
vt 0.856541 0.655304
vt 0.794041 0.282195
vt 0.462683 0.329369
vt 0.779338 0.642513
vt 0.681950 0.529274
vt 0.477346 0.325272
vt 0.273345 0.529875
vt 0.433673 0.566805
vt 0.513871 0.566401
vt 0.453825 0.566401
vt 0.411367 0.523943
vt 0.453825 0.421439
vt 0.556329 0.463897
vt 0.475077 0.369552
vt 0.779337 0.669987
vt 0.525183 0.608131
vt 0.287577 0.317948
vt 0.061208 0.784191
vt 0.178568 0.153309
vt 0.606540 0.844696
vt 0.356541 0.719696
vt 0.779932 0.080515
vt 0.433728 0.566672
vt 0.513835 0.566315
vt 0.453861 0.566315
vt 0.411453 0.523907
vt 0.453861 0.421525
vt 0.556243 0.463933
vt 0.787917 0.931551
vt 0.154932 0.606986
vt 0.776125 0.733537
vt 0.100417 0.380949
vt 0.123709 0.465809
vt 0.186208 0.778309
vt 0.356540 0.719695
vt 0.419041 0.719696
vt 0.088185 0.204152
vt 0.556283 0.463916
vt 0.556283 0.523924
vt 0.513852 0.566355
vt 0.433703 0.566734
vt 0.450046 0.527278
vt 0.217154 0.900897
vt 0.463185 0.170847
vt 0.162758 0.931785
vt 0.273335 0.658402
vt 0.389636 0.728348
vt 0.848443 0.943997
vt 0.507320 0.943997
vt 0.157072 0.886656
vt 0.094276 0.823859
vt 0.394555 0.968834
vt 0.371107 0.046786
vt 0.763162 0.943997
vt 0.972856 0.943997
vt 0.873420 0.886655
vt 0.271902 0.886655
vt 0.251479 0.943997
vt 0.412318 0.054987
vt 0.219872 0.870729
vt 0.645039 0.031517
vt 0.146009 0.601243
vt 0.894576 0.867274
vt 0.214846 0.054606
vt 0.785189 0.187427
vt 0.181000 0.184992
vt 0.667376 0.184992
vt 0.760100 0.184992
vt 0.810944 0.235747
vt 0.173075 0.168200
vt 0.340957 0.906534
vt 0.690600 0.168200
vt 0.559759 0.230700
vt 0.559759 0.031516
vt 0.181482 0.328585
vt 0.810944 0.815008
vt 0.337795 0.791510
vt 0.894004 0.010868
vt 0.566435 0.090477
vt 0.096339 0.284626
vt 0.336904 0.856210
vt 0.313540 0.916687
vt 0.500128 0.533222
vt 0.467569 0.533222
vt 0.312740 0.250105
vt 0.789058 0.249903
vt 0.605042 0.201332
vt 0.776436 0.372726
vt 0.605042 0.786508
vt 0.847368 0.499948
vt 0.796280 0.187565
vt 0.945863 0.187399
vt 0.808878 0.191601
vt 0.762229 0.615327
vt 0.984962 0.701735
vt 0.701506 0.985190
vt 0.984961 0.501365
vt 0.625042 0.096738
vt 0.726878 0.096041
vt 0.727410 0.000042
vt 0.798254 0.000778
vt 0.798254 0.999223
vt 0.727408 0.999958
vt 0.625042 0.903194
vt 0.588752 0.958773
vt 0.589013 0.999908
vt 0.295844 0.960994
vt 0.058906 0.918488
vt 0.056079 0.965926
vt 0.000092 0.963051
vt 0.000092 0.035456
vt 0.058892 0.080892
vt 0.057448 0.034050
vt 0.296206 0.040226
vt 0.586002 0.000092
vt 0.853382 0.956326
vt 0.849745 0.039347
vt 0.193291 0.415288
vt 0.467903 0.415288
s 0
usemtl corinthian
f 29/13/5 13/14/5 31/15/5
f 16/25/4 18/26/4 14/27/4
f 30/28/5 14/29/5 29/30/5
f 31/31/5 15/32/5 32/33/5
f 263/34/5 15/35/5 255/36/5
f 13/37/2 19/38/2 15/39/2
f 15/40/6 257/41/6 255/42/6
f 14/43/1 17/44/1 13/45/1
f 11/46/7 259/47/7 253/48/7
f 9/49/8 24/50/8 11/51/8
f 10/52/9 23/53/9 21/54/9
f 10/55/10 22/56/10 9/57/10
f 259/58/5 28/59/5 261/60/5
f 22/61/5 28/62/5 24/63/5
f 23/64/5 25/65/5 21/66/5
f 21/67/5 27/68/5 22/69/5
f 28/70/11 263/71/11 261/72/11
f 27/73/12 32/74/12 28/75/12
f 25/76/13 30/77/13 29/78/13
f 25/79/14 31/80/14 27/81/14
f 35/82/15 265/83/15 33/84/15
f 35/85/16 36/86/16 34/87/16
f 37/88/17 38/89/17 36/90/17
f 38/94/19 41/95/19 40/96/19
f 265/97/20 36/98/20 38/99/20
f 43/86/21 44/85/21 42/100/21
f 45/101/22 46/102/22 44/103/22
f 47/104/23 48/96/23 46/94/23
f 49/84/24 50/105/24 48/106/24
f 51/85/25 52/86/25 50/87/25
f 52/107/26 55/108/26 54/109/26
f 54/94/28 57/95/28 56/96/28
f 57/113/29 42/114/29 56/115/29
f 44/116/30 48/117/30 52/118/30
f 59/86/31 60/85/31 58/100/31
f 60/119/32 63/120/32 62/121/32
f 63/122/33 64/123/33 62/106/33
f 67/124/34 70/125/34 69/126/34
f 70/127/35 71/128/35 69/129/35
f 72/130/36 73/131/36 71/132/36
f 73/132/37 76/133/37 75/131/37
f 76/127/38 77/134/38 75/135/38
f 77/129/39 80/136/39 79/128/39
f 76/137/40 74/138/40 72/139/40
f 79/132/41 82/140/41 81/131/41
f 82/141/42 67/131/42 81/132/42
f 84/128/44 85/126/44 83/124/44
f 86/127/45 87/128/45 85/129/45
f 88/130/46 89/131/46 87/132/46
f 90/145/47 91/131/47 89/132/47
f 92/127/48 93/134/48 91/135/48
f 93/129/49 96/136/49 95/128/49
f 90/138/50 88/139/50 96/146/50
f 96/130/51 97/131/51 95/132/51
f 97/132/52 84/147/52 83/131/52
f 100/128/49 101/149/49 99/136/49
f 102/150/48 103/151/48 101/129/48
f 104/130/47 105/131/47 103/132/47
f 105/132/46 108/133/46 107/131/46
f 108/127/45 109/134/45 107/135/45
f 109/129/44 112/136/44 111/128/44
f 112/130/52 113/131/52 111/132/52
f 114/155/51 99/131/51 113/156/51
f 105/157/54 109/158/54 113/159/54
f 116/128/55 117/149/55 115/136/55
f 118/150/56 119/151/56 117/129/56
f 119/132/36 122/140/36 121/131/36
f 122/145/37 123/131/37 121/132/37
f 124/127/57 125/134/57 123/135/57
f 125/129/58 128/136/58 127/128/58
f 128/130/41 129/131/41 127/132/41
f 129/156/42 116/133/42 115/131/42
f 121/157/3 125/158/3 129/159/3
f 138/178/65 136/179/65 144/180/65
f 144/181/63 145/182/63 143/183/63
f 146/184/66 131/185/66 145/186/66
f 148/190/67 150/191/67 149/192/67
f 150/193/68 151/192/68 149/190/68
f 166/227/73 167/228/73 165/229/73
f 168/230/76 153/185/76 167/186/76
f 159/231/74 163/232/74 167/233/74
f 169/193/77 171/211/77 170/234/77
f 172/193/78 173/192/78 171/190/78
f 187/259/83 196/260/83 188/260/83
f 188/260/83 189/266/83 187/259/83
f 190/230/86 175/185/86 189/186/86
f 181/267/84 185/268/84 189/269/84
f 191/193/87 193/211/87 192/234/87
f 194/193/88 195/192/88 193/270/88
f 208/295/93 218/296/93 216/295/93
f 206/300/93 204/301/93 202/302/93
f 210/303/94 211/304/94 209/305/94
f 212/230/95 197/185/95 211/186/95
f 213/193/97 215/211/97 214/234/97
f 216/307/98 217/308/98 215/309/98
f 208/295/93 213/300/93 206/300/93
f 58/114/107 266/415/107 59/416/107
f 62/420/109 64/421/109 66/422/109
f 26/423/110 264/424/110 30/425/110
f 260/426/5 26/427/5 23/428/5
f 258/429/5 257/430/5 18/431/5
f 264/432/5 16/433/5 30/434/5
f 256/435/3 20/436/3 16/437/3
f 12/438/111 260/439/111 23/440/111
f 29/13/5 14/465/5 13/14/5
f 16/25/4 20/466/4 18/26/4
f 30/28/5 16/467/5 14/29/5
f 31/31/5 13/468/5 15/32/5
f 263/34/5 32/469/5 15/35/5
f 13/37/2 17/470/2 19/38/2
f 15/40/6 19/471/6 257/41/6
f 14/43/1 18/472/1 17/44/1
f 11/46/7 24/473/7 259/47/7
f 9/49/8 22/474/8 24/50/8
f 10/52/9 12/475/9 23/53/9
f 10/55/10 21/476/10 22/56/10
f 259/58/5 24/477/5 28/59/5
f 22/61/5 27/478/5 28/62/5
f 23/64/5 26/479/5 25/65/5
f 21/67/5 25/480/5 27/68/5
f 28/70/11 32/481/11 263/71/11
f 27/73/12 31/482/12 32/74/12
f 25/76/13 26/483/13 30/77/13
f 25/79/14 29/484/14 31/80/14
f 35/82/15 34/485/15 265/83/15
f 35/85/16 37/100/16 36/86/16
f 37/88/17 39/486/17 38/89/17
f 38/94/19 39/104/19 41/95/19
f 38/99/20 40/489/20 265/97/20
f 265/97/20 34/490/20 36/98/20
f 43/86/21 45/87/21 44/85/21
f 45/101/22 47/491/22 46/102/22
f 47/104/23 49/95/23 48/96/23
f 49/84/24 51/492/24 50/105/24
f 51/85/25 53/100/25 52/86/25
f 52/107/26 53/493/26 55/108/26
f 54/94/28 55/104/28 57/95/28
f 57/113/29 43/416/29 42/114/29
f 56/499/30 42/500/30 44/116/30
f 44/116/30 46/501/30 48/117/30
f 48/117/30 50/502/30 52/118/30
f 52/118/30 54/503/30 56/499/30
f 56/499/30 44/116/30 52/118/30
f 59/86/31 61/87/31 60/85/31
f 60/119/32 61/504/32 63/120/32
f 63/122/33 65/95/33 64/123/33
f 67/124/34 68/128/34 70/125/34
f 70/127/35 72/505/35 71/128/35
f 72/130/36 74/140/36 73/131/36
f 73/132/37 74/145/37 76/133/37
f 76/127/38 78/505/38 77/134/38
f 77/129/39 78/149/39 80/136/39
f 72/139/40 70/506/40 68/507/40
f 68/507/40 82/508/40 72/139/40
f 82/508/40 80/146/40 72/139/40
f 80/146/40 78/509/40 72/139/40
f 78/509/40 76/137/40 72/139/40
f 79/132/41 80/130/41 82/140/41
f 82/141/42 68/147/42 67/131/42
f 84/128/44 86/125/44 85/126/44
f 86/127/45 88/505/45 87/128/45
f 88/130/46 90/140/46 89/131/46
f 90/145/47 92/133/47 91/131/47
f 92/127/48 94/505/48 93/134/48
f 93/129/49 94/149/49 96/136/49
f 88/139/50 86/506/50 84/507/50
f 84/507/50 98/508/50 88/139/50
f 98/508/50 96/146/50 88/139/50
f 96/146/50 94/509/50 92/137/50
f 92/137/50 90/138/50 96/146/50
f 96/130/51 98/140/51 97/131/51
f 97/132/52 98/141/52 84/147/52
f 100/128/49 102/129/49 101/149/49
f 102/150/48 104/514/48 103/151/48
f 104/130/47 106/140/47 105/131/47
f 105/132/46 106/145/46 108/133/46
f 108/127/45 110/505/45 109/134/45
f 109/129/44 110/149/44 112/136/44
f 112/130/52 114/140/52 113/131/52
f 114/155/51 100/133/51 99/131/51
f 113/159/54 99/520/54 101/521/54
f 101/521/54 103/522/54 113/159/54
f 103/522/54 105/157/54 113/159/54
f 105/157/54 107/523/54 109/158/54
f 109/158/54 111/524/54 113/159/54
f 116/128/55 118/129/55 117/149/55
f 118/150/56 120/514/56 119/151/56
f 119/132/36 120/130/36 122/140/36
f 122/145/37 124/133/37 123/131/37
f 124/127/57 126/505/57 125/134/57
f 125/129/58 126/149/58 128/136/58
f 128/130/41 130/140/41 129/131/41
f 129/156/42 130/155/42 116/133/42
f 129/159/3 115/520/3 117/521/3
f 117/521/3 119/522/3 129/159/3
f 119/522/3 121/157/3 129/159/3
f 121/157/3 123/523/3 125/158/3
f 125/158/3 127/525/3 129/159/3
f 136/179/65 134/532/65 132/533/65
f 132/533/65 146/534/65 136/179/65
f 146/534/65 144/180/65 136/179/65
f 144/180/65 142/535/65 140/536/65
f 140/536/65 138/178/65 144/180/65
f 144/181/63 146/537/63 145/182/63
f 146/184/66 132/538/66 131/185/66
f 148/190/67 147/543/67 150/191/67
f 150/193/68 152/210/68 151/192/68
f 166/227/73 168/557/73 167/228/73
f 168/230/76 154/538/76 153/185/76
f 167/233/74 153/558/74 155/559/74
f 155/559/74 157/560/74 159/231/74
f 159/231/74 161/561/74 163/232/74
f 163/232/74 165/562/74 167/233/74
f 167/233/74 155/559/74 159/231/74
f 169/193/77 172/210/77 171/211/77
f 172/193/78 174/210/78 173/192/78
f 187/259/83 195/259/83 196/260/83
f 188/260/83 190/572/83 189/266/83
f 190/230/86 176/538/86 175/185/86
f 189/269/84 175/573/84 177/574/84
f 177/574/84 179/575/84 181/267/84
f 181/267/84 183/576/84 185/268/84
f 185/268/84 187/577/84 189/269/84
f 189/269/84 177/574/84 181/267/84
f 191/193/87 194/210/87 193/211/87
f 194/193/88 196/210/88 195/192/88
f 208/295/93 210/296/93 218/296/93
f 202/302/93 200/587/93 198/588/93
f 198/588/93 212/589/93 202/302/93
f 212/589/93 210/296/93 202/302/93
f 210/296/93 208/295/93 202/302/93
f 208/295/93 206/300/93 202/302/93
f 210/303/94 212/590/94 211/304/94
f 212/230/95 198/538/95 197/185/95
f 213/193/97 216/210/97 215/211/97
f 216/307/98 218/591/98 217/308/98
f 208/295/93 216/295/93 213/300/93
f 58/114/107 66/115/107 266/415/107
f 66/422/109 58/632/109 60/633/109
f 60/633/109 62/420/109 66/422/109
f 26/423/110 262/634/110 264/424/110
f 260/426/5 262/635/5 26/427/5
f 19/636/5 17/637/5 257/430/5
f 17/637/5 18/431/5 257/430/5
f 18/431/5 20/638/5 258/429/5
f 264/432/5 256/639/5 16/433/5
f 256/435/3 258/640/3 20/436/3
f 12/438/111 254/641/111 260/439/111
usemtl base
f 2/1/1 3/2/1 1/3/1
f 4/4/2 5/5/2 3/6/2
f 252/7/3 7/8/3 251/9/3
f 8/10/4 1/11/4 7/12/4
f 8/16/5 10/17/5 2/18/5
f 2/18/5 9/19/5 4/20/5
f 250/21/5 11/22/5 253/23/5
f 6/24/5 9/19/5 11/22/5
f 39/91/18 37/92/18 35/93/18
f 49/110/27 47/111/27 55/112/27
f 131/160/59 134/161/59 133/162/59
f 134/163/60 135/164/60 133/165/60
f 136/166/61 137/167/61 135/168/61
f 138/169/62 139/170/62 137/171/62
f 143/172/63 152/173/63 144/174/63
f 139/175/64 149/176/64 141/177/64
f 141/194/64 151/195/64 143/196/64
f 142/197/65 147/198/65 140/199/65
f 140/200/61 148/201/61 139/202/61
f 142/203/65 152/204/65 150/205/65
f 154/206/69 155/207/69 153/208/69
f 155/209/70 158/210/70 157/211/70
f 157/212/71 160/213/71 159/214/71
f 160/215/72 161/216/72 159/217/72
f 165/218/73 174/219/73 166/220/73
f 163/221/74 170/222/74 171/223/74
f 163/235/74 173/236/74 165/237/74
f 164/238/75 169/239/75 162/240/75
f 161/241/71 169/242/71 170/243/71
f 164/244/75 174/245/75 172/246/75
f 176/247/79 177/248/79 175/249/79
f 178/250/80 179/251/80 177/252/80
f 180/253/81 181/254/81 179/255/81
f 182/256/82 183/257/82 181/258/82
f 185/261/84 192/262/84 193/263/84
f 185/271/84 195/272/84 187/273/84
f 186/274/85 191/275/85 184/276/85
f 183/277/81 191/278/81 192/279/81
f 186/280/85 196/281/85 194/282/85
f 197/283/89 200/284/89 199/285/89
f 199/286/90 202/287/90 201/288/90
f 202/289/91 203/290/91 201/291/91
f 204/292/92 205/293/92 203/294/92
f 206/297/91 214/298/91 205/299/91
f 205/310/96 215/311/96 207/312/96
f 210/313/94 217/314/94 218/315/94
f 207/316/96 217/317/96 209/318/96
f 230/319/2 228/320/2 227/321/2
f 234/322/4 232/323/4 231/324/4
f 227/325/99 222/326/99 230/327/99
f 224/328/100 229/329/100 223/330/100
f 224/331/5 226/332/5 220/333/5
f 223/334/101 239/335/101 237/336/101
f 219/337/101 273/338/101 270/339/101
f 231/340/102 223/341/102 234/342/102
f 221/343/103 233/344/103 219/345/103
f 231/346/5 232/347/5 221/348/5
f 271/349/104 219/350/104 270/351/104
f 233/352/101 240/353/101 241/354/101
f 240/355/4 248/356/4 241/357/4
f 241/358/103 242/359/103 235/360/103
f 230/361/101 239/362/101 229/363/101
f 219/364/101 241/365/101 235/366/101
f 222/367/101 238/368/101 230/369/101
f 223/370/101 240/371/101 234/372/101
f 246/373/101 245/374/101 243/375/101
f 244/376/101 225/377/101 242/378/101
f 235/379/104 276/380/104 273/381/104
f 238/382/2 246/383/2 239/384/2
f 236/385/99 245/386/99 238/387/99
f 237/388/102 247/389/102 240/390/102
f 239/391/100 244/392/100 237/393/100
f 243/394/101 274/395/101 225/396/101
f 242/397/101 274/398/101 276/399/101
f 272/400/105 243/401/105 236/402/105
f 220/403/106 268/404/106 222/405/106
f 222/406/101 272/407/101 236/408/101
f 220/409/5 267/410/5 269/411/5
f 221/412/5 267/413/5 226/414/5
f 266/417/108 65/418/108 63/419/108
f 252/441/5 12/442/5 8/16/5
f 6/443/6 249/444/6 5/445/6
f 3/446/101 5/447/101 249/448/101
f 273/449/112 274/450/112 267/451/112
f 261/452/112 255/453/112 262/454/112
f 266/455/113 64/456/113 65/457/113
f 41/458/114 265/459/114 40/460/114
f 2/1/1 4/461/1 3/2/1
f 4/4/2 6/462/2 5/5/2
f 252/7/3 8/463/3 7/8/3
f 8/10/4 2/464/4 1/11/4
f 8/16/5 12/442/5 10/17/5
f 2/18/5 10/17/5 9/19/5
f 250/21/5 6/24/5 11/22/5
f 6/24/5 4/20/5 9/19/5
f 35/93/18 33/487/18 41/488/18
f 41/488/18 39/91/18 35/93/18
f 47/111/27 45/494/27 43/495/27
f 43/495/27 57/496/27 47/111/27
f 57/496/27 55/112/27 47/111/27
f 55/112/27 53/497/27 51/498/27
f 51/498/27 49/110/27 55/112/27
f 131/160/59 132/526/59 134/161/59
f 134/163/60 136/527/60 135/164/60
f 136/166/61 138/528/61 137/167/61
f 138/169/62 140/529/62 139/170/62
f 143/172/63 151/530/63 152/173/63
f 139/175/64 148/531/64 149/176/64
f 141/194/64 149/544/64 151/195/64
f 142/197/65 150/545/65 147/198/65
f 140/200/61 147/546/61 148/201/61
f 142/203/65 144/547/65 152/204/65
f 154/206/69 156/548/69 155/207/69
f 155/209/70 156/549/70 158/210/70
f 157/212/71 158/550/71 160/213/71
f 160/215/72 162/551/72 161/216/72
f 165/218/73 173/552/73 174/219/73
f 163/221/74 161/553/74 170/222/74
f 163/235/74 171/563/74 173/236/74
f 164/238/75 172/564/75 169/239/75
f 161/241/71 162/565/71 169/242/71
f 164/244/75 166/566/75 174/245/75
f 176/247/79 178/567/79 177/248/79
f 178/250/80 180/568/80 179/251/80
f 180/253/81 182/569/81 181/254/81
f 182/256/82 184/570/82 183/257/82
f 185/261/84 183/571/84 192/262/84
f 185/271/84 193/578/84 195/272/84
f 186/274/85 194/579/85 191/275/85
f 183/277/81 184/580/81 191/278/81
f 186/280/85 188/581/85 196/281/85
f 197/283/89 198/582/89 200/284/89
f 199/286/90 200/583/90 202/287/90
f 202/289/91 204/584/91 203/290/91
f 204/292/92 206/585/92 205/293/92
f 206/297/91 213/586/91 214/298/91
f 205/310/96 214/592/96 215/311/96
f 210/313/94 209/593/94 217/314/94
f 207/316/96 215/594/96 217/317/96
f 230/319/2 229/595/2 228/320/2
f 234/322/4 233/596/4 232/323/4
f 227/325/99 220/597/99 222/326/99
f 224/328/100 228/598/100 229/329/100
f 220/333/5 227/599/5 228/600/5
f 228/600/5 224/331/5 220/333/5
f 223/334/101 229/601/101 239/335/101
f 219/337/101 235/602/101 273/338/101
f 231/340/102 224/603/102 223/341/102
f 221/343/103 232/604/103 233/344/103
f 226/605/5 224/606/5 221/348/5
f 224/606/5 231/346/5 221/348/5
f 271/349/104 221/607/104 219/350/104
f 233/352/101 234/608/101 240/353/101
f 240/355/4 247/609/4 248/356/4
f 241/358/103 248/610/103 242/359/103
f 230/361/101 238/611/101 239/362/101
f 219/364/101 233/612/101 241/365/101
f 222/367/101 236/613/101 238/368/101
f 223/370/101 237/614/101 240/371/101
f 225/615/101 244/616/101 243/375/101
f 244/616/101 246/373/101 243/375/101
f 242/378/101 248/617/101 247/618/101
f 247/618/101 244/376/101 242/378/101
f 235/379/115 242/619/115 276/380/115
f 238/382/2 245/620/2 246/383/2
f 236/385/99 243/621/99 245/386/99
f 237/388/102 244/622/102 247/389/102
f 239/391/100 246/623/100 244/392/100
f 243/394/101 275/624/101 274/395/101
f 242/397/101 225/625/101 274/398/101
f 272/400/105 275/626/105 243/401/105
f 220/403/116 269/627/116 268/404/116
f 222/406/101 268/628/101 272/407/101
f 220/409/5 226/414/5 267/410/5
f 221/412/5 271/629/5 267/413/5
f 63/419/117 61/630/117 266/417/117
f 61/630/117 59/631/117 266/417/117
f 252/441/5 254/642/5 12/442/5
f 6/443/6 250/643/6 249/444/6
f 7/644/101 1/645/101 251/646/101
f 1/645/101 3/446/101 249/448/101
f 251/646/101 1/645/101 249/448/101
f 274/450/112 275/647/112 272/648/112
f 272/648/112 268/649/112 269/650/112
f 267/451/112 271/651/112 273/449/112
f 271/651/112 270/652/112 273/449/112
f 272/648/112 269/650/112 267/451/112
f 276/653/112 274/450/112 273/449/112
f 274/450/112 272/648/112 267/451/112
f 256/654/112 264/655/112 262/454/112
f 262/454/112 260/656/112 254/657/112
f 254/657/112 252/658/112 251/659/112
f 251/659/112 249/660/112 253/661/112
f 249/660/112 250/662/112 253/661/112
f 253/661/112 259/663/112 261/452/112
f 254/657/112 251/659/112 253/661/112
f 261/452/112 263/664/112 255/453/112
f 254/657/112 253/661/112 261/452/112
f 258/665/112 256/654/112 257/666/112
f 256/654/112 262/454/112 255/453/112
f 257/666/112 256/654/112 255/453/112
f 262/454/112 254/657/112 261/452/112
f 266/455/118 66/667/118 64/456/118
f 41/458/119 33/668/119 265/459/119
usemtl volute
f 79/142/43 81/143/43 73/144/43
f 97/143/53 85/148/53 89/144/53
f 112/152/1 108/153/1 104/154/1
f 128/152/6 124/153/6 120/154/6
f 143/187/64 145/188/64 137/189/64
f 162/224/75 160/225/75 158/226/75
f 180/226/85 176/264/85 188/265/85
f 203/189/96 207/306/96 211/188/96
f 81/143/43 67/510/43 69/148/43
f 69/148/43 71/511/43 81/143/43
f 71/511/43 73/144/43 81/143/43
f 73/144/43 75/512/43 77/513/43
f 77/513/43 79/142/43 73/144/43
f 97/143/53 83/510/53 85/148/53
f 85/148/53 87/511/53 89/144/53
f 89/144/53 91/512/53 93/513/53
f 93/513/53 95/142/53 89/144/53
f 95/142/53 97/143/53 89/144/53
f 104/154/1 102/515/1 100/516/1
f 100/516/1 114/517/1 104/154/1
f 114/517/1 112/152/1 104/154/1
f 112/152/1 110/518/1 108/153/1
f 108/153/1 106/519/1 104/154/1
f 120/154/6 118/515/6 116/516/6
f 116/516/6 130/517/6 120/154/6
f 130/517/6 128/152/6 120/154/6
f 128/152/6 126/518/6 124/153/6
f 124/153/6 122/519/6 120/154/6
f 145/188/64 131/539/64 133/540/64
f 133/540/64 135/541/64 145/188/64
f 135/541/64 137/189/64 145/188/64
f 137/189/64 139/542/64 141/306/64
f 141/306/64 143/187/64 137/189/64
f 158/226/75 156/554/75 166/265/75
f 156/554/75 154/264/75 166/265/75
f 154/264/75 168/555/75 166/265/75
f 166/265/75 164/556/75 158/226/75
f 164/556/75 162/224/75 158/226/75
f 180/226/85 178/554/85 176/264/85
f 176/264/85 190/555/85 188/265/85
f 188/265/85 186/556/85 184/224/85
f 184/224/85 182/225/85 188/265/85
f 182/225/85 180/226/85 188/265/85
f 211/188/96 197/539/96 203/189/96
f 197/539/96 199/540/96 203/189/96
f 199/540/96 201/541/96 203/189/96
f 203/189/96 205/542/96 207/306/96
f 207/306/96 209/187/96 211/188/96
