# Blender 5.1.2
# www.blender.org
mtllib medium_doric_half_capital.mtl
o Cube.287
v 1.187500 1.000000 0.312500
v 1.187500 0.700000 0.312500
v -0.187500 1.000000 0.312500
v -0.187500 0.700000 0.312500
v 0.215229 0.621000 0.312502
v 0.784771 0.621000 0.312502
v 1.187499 0.621000 0.715229
v -0.187499 0.621000 0.715229
v 0.292354 0.384304 0.498699
v 0.707646 0.384304 0.498699
v 1.001301 0.384304 0.792354
v -0.001301 0.384304 0.792354
v 1.187499 0.700000 0.715229
v 0.215229 0.700000 0.312502
v 0.784771 0.700000 0.312502
v -0.187499 0.700000 0.715229
v 0.500000 0.700000 0.312500
v 0.500000 1.000000 0.312500
v -0.187500 0.700000 1.000000
v 1.187500 1.000000 1.000000
v -0.187500 1.000000 1.000000
v 1.187500 0.700000 1.000000
v 0.500000 1.000000 1.000000
v -0.187500 0.700000 1.002249
v 1.187500 1.000000 1.000504
v 1.187499 0.621000 1.000504
v -0.187499 0.621000 1.002249
v 1.001301 0.384304 1.000740
v -0.001301 0.384304 1.002012
v 1.187499 0.700000 1.000504
v -0.187499 0.700000 1.002249
v 0.500000 1.000000 1.001376
v -0.187500 1.000000 1.002249
v 1.187500 0.700000 1.000504
vn -1.0000 -0.0000 -0.0000
vn -0.0000 -0.0000 -1.0000
vn 0.7071 -0.0000 -0.7071
vn -0.7071 -0.0000 -0.7071
vn -0.7860 -0.6183 -0.0000
vn 0.5558 -0.6183 -0.5558
vn -0.5558 -0.6183 -0.5558
vn -0.0000 -0.6183 -0.7860
vn -0.0000 1.0000 -0.0000
vn 1.0000 -0.0000 -0.0000
vn -0.0000 -1.0000 -0.0000
vn 0.7860 -0.6183 -0.0000
vn -0.0045 -1.0000 -0.0000
vn 0.0013 -0.0000 1.0000
vn 0.0025 -1.0000 -0.0000
vn 0.0046 -1.0000 -0.0000
vn -0.0000 -1.0000 -0.0031
vn -0.0000 -1.0000 -0.0034
vn 0.0019 -1.0000 -0.0000
vn -0.0019 -1.0000 -0.0000
vn -0.0055 -1.0000 -0.0000
vt 0.812500 0.687500
vt 0.125000 0.375000
vt 0.812500 0.375000
vt 0.687500 1.000000
vt 0.000000 0.687500
vt 0.687500 0.687500
vt 0.625000 0.250000
vt 0.062500 0.187500
vt 0.625000 0.187500
vt 1.000000 0.937500
vt 0.437500 0.875000
vt 1.000000 0.875000
vt 0.345971 0.812500
vt 0.062500 0.750000
vt 0.345971 0.750000
vt 1.000000 0.500000
vt 0.437500 0.437500
vt 1.000000 0.437500
vt 0.994988 0.310292
vt 0.695918 0.516369
vt 0.695918 0.310524
vt 0.994988 0.220409
vt 0.695918 0.703869
vt 0.695918 0.296131
vt 0.932488 0.592091
vt 0.633418 0.108631
vt 0.932488 0.032909
vt 0.432488 0.779591
vt 0.133418 0.296131
vt 0.432488 0.220409
vt 1.000000 1.000000
vt 0.312500 0.687500
vt 1.000000 0.687500
vt 0.000000 0.000000
vt 0.687500 0.000000
vt 1.000000 0.625000
vt 0.312500 0.312500
vt 1.000000 0.312500
vt 0.252249 0.375000
vt 0.250000 0.062500
vt 0.252249 0.062500
vt 0.312500 0.000000
vt 1.000000 0.000000
vt 0.998624 0.312500
vt 0.999900 0.707065
vt 0.707065 0.999900
vt 0.499262 0.999900
vt 0.562500 0.312500
vt 0.280752 0.250000
vt 0.562500 0.250000
vt 0.807488 0.687995
vt 0.508418 0.483631
vt 0.807488 0.407909
vt 0.687500 0.625000
vt 0.686996 0.312500
vt 0.687500 0.312500
vt 0.498519 0.000000
vt 0.498364 0.000000
vt 0.500000 0.000000
vt 0.859670 0.000041
vt 0.687542 0.864553
vt 0.687541 0.135447
vt 0.682476 0.999976
vt 0.625024 0.000024
vt 0.682476 0.000024
vt 0.000047 0.999953
vt 0.218208 0.000047
vt 0.218208 0.999953
vt 0.125000 0.687500
vt 0.000000 1.000000
vt 0.062500 0.250000
vt 0.437500 0.937500
vt 0.062500 0.812500
vt 0.437500 0.500000
vt 0.994988 0.592091
vt 0.994988 0.779591
vt 0.633418 0.516369
vt 0.133418 0.703869
vt 0.312500 1.000000
vt 0.312500 0.625000
vt 0.250000 0.375000
vt 0.997751 1.000000
vt 0.500000 1.000000
vt 0.499633 1.000000
vt 0.499668 1.000000
vt 0.707065 0.000100
vt 0.999900 0.292935
vt 0.497993 0.000100
vt 0.280753 0.312500
vt 0.508418 0.688227
vt 0.686996 0.625000
vt 0.686124 1.000000
vt 0.859670 0.999959
vt 0.625024 0.999976
vt 0.000047 0.000047
s 0
usemtl doric_small
f 21/1/1 4/2/1 19/3/1
f 18/4/2 2/5/2 17/6/2
f 14/7/2 6/8/2 5/9/2
f 15/10/3 7/11/3 6/12/3
f 31/13/1 8/14/1 27/15/1
f 16/16/4 5/17/4 8/18/4
f 27/19/5 12/20/5 29/21/5
f 6/22/6 11/23/6 10/24/6
f 5/25/7 12/26/7 8/27/7
f 6/28/8 9/29/8 5/30/8
f 3/31/2 17/32/2 4/33/2
f 18/6/9 20/34/9 1/35/9
f 1/36/10 22/37/10 2/38/10
f 33/39/1 19/40/1 24/41/1
f 3/33/9 23/42/9 18/43/9
f 21/31/9 32/44/9 23/38/9
f 2/31/11 13/4/11 15/33/11
f 10/45/11 11/46/11 28/47/11
f 13/48/10 26/49/10 7/50/10
f 26/51/12 11/52/12 7/53/12
f 20/54/10 34/55/10 22/56/10
f 23/4/9 25/55/9 20/56/9
f 31/57/13 24/58/13 19/59/13
f 26/60/14 29/61/14 28/62/14
f 26/63/14 31/64/14 27/65/14
f 25/66/14 24/67/14 34/68/14
f 21/1/1 3/69/1 4/2/1
f 18/4/2 1/70/2 2/5/2
f 14/7/2 15/71/2 6/8/2
f 15/10/3 13/72/3 7/11/3
f 31/13/1 16/73/1 8/14/1
f 16/16/4 14/74/4 5/17/4
f 27/19/5 8/75/5 12/20/5
f 6/22/6 7/76/6 11/23/6
f 5/25/7 9/77/7 12/26/7
f 6/28/8 10/78/8 9/29/8
f 3/31/2 18/79/2 17/32/2
f 18/6/9 23/5/9 20/34/9
f 1/36/10 20/80/10 22/37/10
f 33/39/1 21/81/1 19/40/1
f 3/33/9 21/32/9 23/42/9
f 21/31/9 33/82/9 32/44/9
f 22/83/15 34/84/15 30/85/15
f 22/83/16 30/85/16 13/4/16
f 14/38/11 16/35/11 4/43/11
f 15/33/17 14/38/17 17/16/17
f 14/38/18 4/43/18 17/16/18
f 2/31/19 22/83/19 13/4/19
f 15/33/18 17/16/18 2/31/18
f 12/86/11 9/87/11 29/88/11
f 9/87/11 10/45/11 28/47/11
f 29/88/11 9/87/11 28/47/11
f 13/48/10 30/89/10 26/49/10
f 26/51/12 28/90/12 11/52/12
f 20/54/10 25/91/10 34/55/10
f 23/4/9 32/92/9 25/55/9
f 4/43/20 16/35/20 19/59/20
f 16/35/21 31/57/21 19/59/21
f 26/60/14 27/93/14 29/61/14
f 26/63/14 30/94/14 31/64/14
f 25/66/14 33/95/14 24/67/14
