# Blender 5.1.2
# www.blender.org
mtllib medium_doric_capital.mtl
o Cube.287
v 1.187500 1.000000 -0.187500
v 1.187500 0.700000 -0.187500
v 1.187500 1.000000 1.187500
v 1.187500 0.700000 1.187500
v -0.187500 1.000000 -0.187500
v -0.187500 0.700000 -0.187500
v -0.187500 1.000000 1.187500
v -0.187500 0.700000 1.187500
v 0.215229 0.621000 -0.187498
v 0.784771 0.621000 -0.187498
v 1.187499 0.621000 0.215229
v 1.187499 0.621000 0.784771
v 0.784771 0.621000 1.187499
v 0.215229 0.621000 1.187499
v -0.187499 0.621000 0.784771
v -0.187499 0.621000 0.215229
v 0.292354 0.384304 -0.001301
v 0.707646 0.384304 -0.001301
v 1.001301 0.384304 0.292354
v 1.001301 0.384304 0.707646
v 0.707646 0.384304 1.001301
v 0.292354 0.384304 1.001301
v -0.001301 0.384304 0.707646
v -0.001301 0.384304 0.292354
v 0.784771 0.700000 1.187499
v 1.187499 0.700000 0.784771
v 1.187499 0.700000 0.215229
v 0.215229 0.700000 1.187499
v 0.215229 0.700000 -0.187498
v 0.784771 0.700000 -0.187498
v -0.187499 0.700000 0.215229
v -0.187499 0.700000 0.784771
v 0.500000 0.700000 -0.187500
v 0.500000 1.000000 1.187500
v 0.500000 0.700000 1.187500
v 0.500000 1.000000 -0.187500
v -0.187500 0.700000 0.500000
v 1.187500 1.000000 0.500000
v -0.187500 1.000000 0.500000
v 1.187500 0.700000 0.500000
v 0.500000 1.000000 0.500000
vn -0.0000 1.0000 -0.0000
vn -0.0000 -0.0000 1.0000
vn -1.0000 -0.0000 -0.0000
vn -0.0000 -1.0000 -0.0000
vn 1.0000 -0.0000 -0.0000
vn -0.0000 -0.0000 -1.0000
vn 0.7071 -0.0000 -0.7071
vn 0.7071 -0.0000 0.7071
vn -0.7071 -0.0000 0.7071
vn -0.7071 -0.0000 -0.7071
vn 0.5558 -0.6183 0.5558
vn -0.7860 -0.6183 -0.0000
vn 0.5558 -0.6183 -0.5558
vn -0.0000 -0.6183 0.7860
vn -0.5558 -0.6183 -0.5558
vn -0.0000 -0.6183 -0.7860
vn 0.7860 -0.6183 -0.0000
vn -0.5558 -0.6183 0.5558
vn 0.0019 -1.0000 -0.0000
vn 0.0091 -1.0000 -0.0000
vn -0.0000 -1.0000 -0.0031
vn -0.0000 -1.0000 -0.0034
vn -0.0019 -1.0000 -0.0000
vn -0.0091 -1.0000 -0.0000
vn -0.0000 -1.0000 0.0044
vn -0.0000 -1.0000 0.0050
vt 1.000000 1.000000
vt 0.312500 0.312500
vt 1.000000 0.312500
vt 0.687500 0.312500
vt 0.000000 0.000000
vt 0.687500 0.000000
vt 0.812500 0.687500
vt 0.125000 0.375000
vt 0.812500 0.375000
vt 0.687500 1.000000
vt 1.000000 0.687500
vt 0.687500 0.625000
vt 0.000000 0.312500
vt 0.000000 0.687500
vt 0.687500 0.687500
vt 0.625000 0.250000
vt 0.062500 0.187500
vt 0.625000 0.187500
vt 1.000000 0.937500
vt 0.437500 0.875000
vt 1.000000 0.875000
vt 0.562500 0.312500
vt 0.000000 0.250000
vt 0.562500 0.250000
vt 0.437500 0.812500
vt 1.000000 0.812500
vt 0.875000 0.062500
vt 0.312500 0.000000
vt 0.875000 0.000000
vt 0.687500 0.437500
vt 0.687500 0.375000
vt 0.625000 0.812500
vt 0.062500 0.750000
vt 0.625000 0.750000
vt 1.000000 0.500000
vt 0.437500 0.437500
vt 1.000000 0.437500
vt 0.307488 0.032909
vt 0.008418 0.516369
vt 0.008418 0.108631
vt 0.994988 0.592091
vt 0.695918 0.108631
vt 0.994988 0.032909
vt 0.994988 0.220409
vt 0.695918 0.703869
vt 0.695918 0.296131
vt 0.682488 0.032909
vt 0.383418 0.516369
vt 0.383418 0.108631
vt 0.932488 0.592091
vt 0.633418 0.108631
vt 0.932488 0.032909
vt 0.432488 0.779591
vt 0.133418 0.296131
vt 0.432488 0.220409
vt 0.807488 0.407909
vt 0.508418 0.891369
vt 0.508418 0.483631
vt 0.307488 0.967091
vt 0.008418 0.483631
vt 0.307488 0.407909
vt 0.000100 0.292935
vt 0.292935 0.000100
vt 0.707065 0.000100
vt 0.312500 0.687500
vt 1.000000 0.000000
vt 1.000000 0.625000
vt 0.937500 0.375000
vt 0.250000 0.062500
vt 0.937500 0.062500
vt 0.312500 1.000000
vt 0.125000 0.687500
vt 0.500000 1.000000
vt 0.000000 1.000000
vt 0.000000 0.625000
vt 0.062500 0.250000
vt 0.437500 0.937500
vt 0.312500 0.062500
vt 0.125000 0.437500
vt 0.062500 0.812500
vt 0.437500 0.500000
vt 0.307488 0.592091
vt 0.695918 0.516369
vt 0.994988 0.779591
vt 0.682488 0.592091
vt 0.633418 0.516369
vt 0.133418 0.703869
vt 0.807488 0.967091
vt 0.008418 0.891369
vt 0.500000 0.000000
vt 0.000000 0.500000
vt 0.999900 0.292935
vt 0.292935 0.999900
vt 0.999900 0.707065
vt 0.707065 0.999900
vt 0.000100 0.707065
vt 0.312500 0.625000
vt 0.250000 0.375000
s 0
usemtl doric_small
f 39/1/1 34/2/1 41/3/1
f 34/4/2 8/5/2 35/6/2
f 39/7/3 6/8/3 37/9/3
f 2/1/4 27/10/4 30/11/4
f 38/12/5 4/13/5 40/4/5
f 36/10/6 2/14/6 33/15/6
f 29/16/6 10/17/6 9/18/6
f 30/19/7 11/20/7 10/21/7
f 27/22/5 12/23/5 11/24/5
f 26/21/8 13/25/8 12/26/8
f 25/27/2 14/28/2 13/29/2
f 28/30/9 15/8/9 14/31/9
f 32/32/3 16/33/3 15/34/3
f 31/35/10 9/36/10 16/37/10
f 12/38/11 21/39/11 20/40/11
f 16/41/12 23/42/12 15/43/12
f 10/44/13 19/45/13 18/46/13
f 13/47/14 22/48/14 21/49/14
f 9/50/15 24/51/15 16/52/15
f 10/53/16 17/54/16 9/55/16
f 11/56/17 20/57/17 19/58/17
f 15/59/18 22/60/18 14/61/18
f 32/28/4 28/13/4 8/5/4
f 22/62/4 23/63/4 24/64/4
f 5/1/6 33/65/6 6/11/6
f 3/3/2 35/28/2 4/66/2
f 41/10/1 3/13/1 38/4/1
f 36/15/1 38/5/1 1/6/1
f 1/67/5 40/2/5 2/3/5
f 7/68/3 37/69/3 8/70/3
f 5/11/1 41/28/1 36/66/1
f 39/1/1 7/71/1 34/2/1
f 34/4/2 7/13/2 8/5/2
f 39/7/3 5/72/3 6/8/3
f 40/73/19 4/74/19 26/71/19
f 40/73/20 26/71/20 27/10/20
f 29/3/4 31/6/4 6/66/4
f 30/11/21 29/3/21 33/35/21
f 29/3/22 6/66/22 33/35/22
f 2/1/19 40/73/19 27/10/19
f 30/11/22 33/35/22 2/1/22
f 38/12/5 3/75/5 4/13/5
f 36/10/6 1/74/6 2/14/6
f 29/16/6 30/76/6 10/17/6
f 30/19/7 27/77/7 11/20/7
f 27/22/5 26/13/5 12/23/5
f 26/21/8 25/20/8 13/25/8
f 25/27/2 28/78/2 14/28/2
f 28/30/9 32/79/9 15/8/9
f 32/32/3 31/80/3 16/33/3
f 31/35/10 29/81/10 9/36/10
f 12/38/11 13/82/11 21/39/11
f 16/41/12 24/83/12 23/42/12
f 10/44/13 11/84/13 19/45/13
f 13/47/14 14/85/14 22/48/14
f 9/50/15 17/86/15 24/51/15
f 10/53/16 18/87/16 17/54/16
f 11/56/17 12/88/17 20/57/17
f 15/59/18 23/89/18 22/60/18
f 6/66/23 31/6/23 37/90/23
f 31/6/24 32/28/24 37/90/24
f 25/14/4 26/71/4 4/74/4
f 28/13/25 25/14/25 35/91/25
f 25/14/26 4/74/26 35/91/26
f 8/5/23 37/90/23 32/28/23
f 28/13/26 35/91/26 8/5/26
f 24/64/4 17/92/4 20/93/4
f 17/92/4 18/94/4 20/93/4
f 18/94/4 19/95/4 20/93/4
f 20/93/4 21/96/4 24/64/4
f 21/96/4 22/62/4 24/64/4
f 5/1/6 36/71/6 33/65/6
f 3/3/2 34/2/2 35/28/2
f 41/10/1 34/74/1 3/13/1
f 36/15/1 41/14/1 38/5/1
f 1/67/5 38/97/5 40/2/5
f 7/68/3 39/98/3 37/69/3
f 5/11/1 39/65/1 41/28/1
