# Blender 5.1.1
# www.blender.org
mtllib medium_roman_corinthian_base.mtl
o Cube.288
v 1.187500 0.137500 -0.187502
v 1.187500 0.000000 -0.187502
v 1.187500 0.137500 1.187498
v 1.187500 0.000000 1.187498
v -0.187500 0.137500 -0.187502
v -0.187500 0.000000 -0.187502
v -0.187500 0.137500 1.187498
v -0.187500 0.000000 1.187498
v 0.272183 0.275000 -0.050002
v 0.272183 0.412500 -0.050002
v 0.727817 0.275000 -0.050002
v 0.727817 0.412500 -0.050002
v 1.050000 0.275000 0.272181
v 1.050000 0.412500 0.272181
v 1.050000 0.275000 0.727816
v 1.050000 0.412500 0.727816
v 0.727817 0.275000 1.049998
v 0.727817 0.412500 1.049998
v 0.272183 0.275000 1.049998
v 0.272183 0.412500 1.049998
v -0.050000 0.275000 0.727816
v -0.050000 0.412500 0.727816
v -0.050000 0.275000 0.272181
v -0.050000 0.412500 0.272181
v 0.243705 0.412499 -0.118752
v 0.243705 0.549999 -0.118752
v 0.756295 0.412499 -0.118752
v 0.756295 0.549999 -0.118752
v 1.118750 0.412499 0.243703
v 1.118750 0.549999 0.243703
v 1.118750 0.412499 0.756293
v 1.118750 0.549999 0.756293
v 0.756295 0.412499 1.118748
v 0.756295 0.549999 1.118748
v 0.243705 0.412499 1.118748
v 0.243705 0.549999 1.118748
v -0.118750 0.412499 0.756293
v -0.118750 0.549999 0.756293
v -0.118750 0.412499 0.243703
v -0.118750 0.549999 0.243703
v 0.215226 0.137500 -0.187507
v 0.215226 0.275000 -0.187507
v 0.784774 0.137500 -0.187507
v 0.784774 0.275000 -0.187507
v 1.187505 0.137500 0.215224
v 1.187505 0.275000 0.215224
v 1.187505 0.137500 0.784772
v 1.187505 0.275000 0.784772
v 0.784774 0.137500 1.187503
v 0.784774 0.275000 1.187503
v 0.215226 0.137500 1.187503
v 0.215226 0.275000 1.187503
v -0.187505 0.137500 0.784772
v -0.187505 0.275000 0.784772
v -0.187505 0.137500 0.215224
v -0.187505 0.275000 0.215224
v 0.756295 0.549999 0.756293
v 0.243705 0.549999 0.243704
v 0.243705 0.549999 0.756293
v 0.756295 0.549999 0.243704
v 0.500000 0.000000 -0.187502
v 0.500000 0.137500 1.187498
v 0.500000 0.000000 1.187498
v 0.500000 0.137500 -0.187502
v -0.187500 0.000000 0.499998
v 1.187500 0.137500 0.499998
v -0.187500 0.137500 0.499998
v 1.187500 0.000000 0.499998
v 0.500000 0.000000 0.499998
v 0.500000 0.137500 0.499998
vn -0.0000 1.0000 -0.0000
vn -0.0000 -0.0000 1.0000
vn -1.0000 -0.0000 -0.0000
vn -0.0000 -1.0000 -0.0000
vn 1.0000 -0.0000 -0.0000
vn -0.0000 -0.0000 -1.0000
vn 0.7071 -0.0000 -0.7071
vn 0.7071 -0.0000 0.7071
vn -0.7071 -0.0000 0.7071
vn -0.7071 -0.0000 -0.7071
vt 0.000100 0.500000
vt 0.500000 0.000100
vt 0.500000 0.500000
vt 0.375000 0.875000
vt 1.000000 1.000000
vt 0.375000 1.000000
vt 0.375000 0.187500
vt 1.000000 0.312500
vt 0.375000 0.312500
vt 0.000100 0.500000
vt 0.500000 0.000100
vt 0.375000 0.250000
vt 1.000000 0.375000
vt 0.375000 0.375000
vt 0.375000 0.687500
vt 1.000000 0.812500
vt 0.375000 0.812500
vt 0.187500 0.437500
vt 0.625000 0.562500
vt 0.187500 0.562500
vt 0.062500 0.250000
vt 0.500000 0.375000
vt 0.062500 0.375000
vt 0.500000 0.687500
vt 0.937500 0.812500
vt 0.500000 0.812500
vt 0.500000 0.062500
vt 0.937500 0.187500
vt 0.500000 0.187500
vt 0.500000 0.750000
vt 0.937500 0.875000
vt 0.500000 0.875000
vt 0.000000 0.812500
vt 0.437500 0.937500
vt 0.000000 0.937500
vt 0.292935 0.999900
vt 0.000100 0.292935
vt 0.707065 0.000100
vt 0.000000 0.125000
vt 0.437500 0.250000
vt 0.000000 0.250000
vt 0.187500 0.625000
vt 0.625000 0.750000
vt 0.187500 0.750000
vt 0.292935 0.999900
vt 0.000100 0.292935
vt 0.707065 0.000100
vt 0.937500 0.937500
vt 0.375000 0.937500
vt 0.062500 0.562500
vt 0.562500 0.687500
vt 0.062500 0.687500
vt 0.500000 0.250000
vt 0.375000 0.625000
vt 0.937500 0.750000
vt 0.375000 0.750000
vt 0.125000 0.250000
vt 0.625000 0.375000
vt 0.125000 0.375000
vt 0.250000 0.062500
vt 0.750000 0.187500
vt 0.250000 0.187500
vt 0.375000 0.000000
vt 0.000000 0.375000
vt 0.500000 0.437500
vt 1.000000 0.562500
vt 0.500000 0.562500
vt 0.000000 0.437500
vt 0.000000 0.562500
vt 0.937500 0.187500
vt 0.375000 0.062500
vt 0.937500 0.062500
vt 0.062500 0.437500
vt 0.625000 0.437500
vt 0.562500 1.000000
vt 0.000000 0.875000
vt 0.562500 0.875000
vt 0.562500 0.125000
vt 0.000000 0.000000
vt 0.562500 -0.000000
vt 0.937500 0.687500
vt 0.937500 0.437500
vt 0.375000 0.312500
vt 0.937500 0.312500
vt 0.292896 0.999994
vt 0.000006 0.292896
vt 0.707104 0.000006
vt 0.937500 0.750000
vt 0.625000 0.500000
vt 0.062500 0.375000
vt 0.625000 0.375000
vt 0.292935 0.000100
vt 0.000000 0.750000
vt 0.000000 0.625000
vt 0.250000 0.625000
vt 0.750000 1.000000
vt 0.250000 1.000000
vt 0.625000 1.000000
vt 0.625000 0.625000
vt 1.000000 0.625000
vt 1.000000 0.750000
vt 0.625000 0.250000
vt 1.000000 0.250000
vt 0.625000 0.000000
vt 0.750000 0.375000
vt 0.250000 0.000000
vt 0.750000 0.000000
vt 0.750000 0.750000
vt 0.250000 0.250000
vt 0.750000 0.250000
vt 0.000000 0.687500
vt 0.625000 0.812500
vt 0.999900 0.000100
vt 0.999900 0.500000
vt 0.000000 1.000000
vt 0.687500 0.312500
vt 0.687500 1.000000
vt 0.687500 0.000000
vt 0.687500 0.687500
vt 0.500000 0.999900
vt 0.999900 0.999900
vt 0.000100 0.999900
vt 0.000000 0.187500
vt 0.625000 0.312500
vt 0.000000 0.312500
vt 0.312500 0.687500
vt 1.000000 0.000000
vt 1.000000 0.687500
vt 0.000100 0.000100
vt 1.000000 0.875000
vt 1.000000 0.187500
vt 0.000100 0.000100
vt 0.625000 0.437500
vt 0.937500 0.687500
vt 0.937500 0.062500
vt 0.437500 0.812500
vt 0.999900 0.292934
vt 0.999900 0.707065
vt 0.707065 0.999900
vt 0.000100 0.707065
vt 0.292935 0.000100
vt 0.437500 0.125000
vt 0.999900 0.292935
vt 0.999900 0.707065
vt 0.707065 0.999900
vt 0.000100 0.707065
vt 0.562500 0.562500
vt 0.937500 0.625000
vt 0.750000 0.062500
vt 1.000000 0.437500
vt 0.375000 0.187500
vt 0.062500 0.562500
vt 0.000000 0.125000
vt 0.375000 0.812500
vt 0.375000 0.437500
vt 0.999994 0.292896
vt 0.999994 0.707104
vt 0.707104 0.999994
vt 0.000006 0.707104
vt 0.292896 0.000006
vt 0.375000 0.875000
vt 0.062500 0.500000
vt 0.750000 0.625000
vt 0.250000 0.375000
vt 0.250000 0.750000
vt 0.625000 0.687500
vt 0.625000 0.875000
vt 0.000000 0.000000
vt 0.625000 0.187500
vt 0.312500 0.000000
s 0
usemtl ionic_base
f 67/1/1 62/2/1 70/3/1
f 62/4/2 8/5/2 63/6/2
f 67/7/3 6/8/3 65/9/3
f 68/10/4 63/11/4 69/3/4
f 66/12/5 4/13/5 68/14/5
f 64/15/6 2/16/6 61/17/6
f 10/18/6 11/19/6 9/20/6
f 12/21/7 13/22/7 11/23/7
f 14/24/5 15/25/5 13/26/5
f 16/27/8 17/28/8 15/29/8
f 18/30/2 19/31/2 17/32/2
f 20/33/9 21/34/9 19/35/9
f 22/36/1 18/37/1 14/38/1
f 22/39/3 23/40/3 21/41/3
f 24/42/10 9/43/10 23/44/10
f 15/45/4 19/46/4 23/47/4
f 26/17/6 27/48/6 25/49/6
f 28/50/7 29/51/7 27/52/7
f 30/53/5 31/13/5 29/22/5
f 32/54/8 33/55/8 31/56/8
f 34/57/2 35/58/2 33/59/2
f 36/60/9 37/61/9 35/62/9
f 28/63/1 60/14/1 30/64/1
f 38/65/3 39/66/3 37/67/3
f 40/68/10 25/67/10 39/69/10
f 31/45/4 35/46/4 39/47/4
f 42/70/6 43/71/6 41/72/6
f 44/19/7 45/73/7 43/74/7
f 46/75/5 47/76/5 45/77/5
f 48/78/8 49/79/8 47/80/8
f 50/25/2 51/15/2 49/81/2
f 52/82/9 53/83/9 51/84/9
f 54/85/1 50/86/1 46/87/1
f 54/31/3 55/56/3 53/88/3
f 56/89/10 41/90/10 55/91/10
f 51/46/4 53/92/4 55/47/4
f 60/12/1 32/93/1 30/41/1
f 32/94/1 57/54/1 34/6/1
f 57/95/1 36/96/1 34/97/1
f 36/98/1 59/99/1 38/100/1
f 38/101/1 58/102/1 40/103/1
f 40/13/1 58/58/1 26/104/1
f 58/105/1 28/106/1 26/107/1
f 59/108/1 60/109/1 58/110/1
f 5/111/6 61/112/6 6/33/6
f 69/3/4 8/113/4 65/114/4
f 3/76/2 63/98/2 4/115/2
f 70/115/1 3/116/1 66/117/1
f 64/111/1 66/118/1 1/119/1
f 61/120/4 65/114/4 6/121/4
f 1/41/5 68/58/5 2/64/5
f 2/122/4 69/3/4 61/120/4
f 7/123/3 65/124/3 8/125/3
f 5/126/1 70/127/1 64/128/1
f 67/1/1 7/129/1 62/2/1
f 62/4/2 7/130/2 8/5/2
f 67/7/3 5/131/3 6/8/3
f 68/10/4 4/132/4 63/11/4
f 66/12/5 3/103/5 4/13/5
f 64/15/6 1/128/6 2/16/6
f 10/18/6 12/133/6 11/19/6
f 12/21/7 14/53/7 13/22/7
f 14/24/5 16/134/5 15/25/5
f 16/27/8 18/135/8 17/28/8
f 18/30/2 20/55/2 19/31/2
f 20/33/9 22/136/9 21/34/9
f 14/38/1 12/137/1 10/138/1
f 10/138/1 24/139/1 22/36/1
f 22/36/1 20/140/1 18/37/1
f 18/37/1 16/141/1 14/38/1
f 14/38/1 10/138/1 22/36/1
f 22/39/3 24/142/3 23/40/3
f 24/42/10 10/99/10 9/43/10
f 23/47/4 9/143/4 11/144/4
f 11/144/4 13/145/4 15/45/4
f 15/45/4 17/146/4 19/46/4
f 19/46/4 21/92/4 23/47/4
f 23/47/4 11/144/4 15/45/4
f 26/17/6 28/25/6 27/48/6
f 28/50/7 30/147/7 29/51/7
f 30/53/5 32/103/5 31/13/5
f 32/54/8 34/148/8 33/55/8
f 34/57/2 36/102/2 35/58/2
f 36/60/9 38/149/9 37/61/9
f 38/65/3 40/150/3 39/66/3
f 40/68/10 26/65/10 25/67/10
f 39/47/4 25/143/4 27/144/4
f 27/144/4 29/145/4 31/45/4
f 31/45/4 33/146/4 35/46/4
f 35/46/4 37/92/4 39/47/4
f 39/47/4 27/144/4 31/45/4
f 42/70/6 44/151/6 43/71/6
f 44/19/7 46/152/7 45/73/7
f 46/75/5 48/115/5 47/76/5
f 48/78/8 50/153/8 49/79/8
f 50/25/2 52/154/2 51/15/2
f 52/82/9 54/155/9 53/83/9
f 46/87/1 44/156/1 42/157/1
f 42/157/1 56/158/1 54/85/1
f 54/85/1 52/159/1 50/86/1
f 50/86/1 48/160/1 46/87/1
f 46/87/1 42/157/1 54/85/1
f 54/31/3 56/161/3 55/56/3
f 56/89/10 42/162/10 41/90/10
f 55/47/4 41/143/4 47/45/4
f 41/143/4 43/144/4 47/45/4
f 43/144/4 45/145/4 47/45/4
f 47/45/4 49/146/4 55/47/4
f 49/146/4 51/46/4 55/47/4
f 60/12/1 57/56/1 32/93/1
f 57/95/1 59/163/1 36/96/1
f 38/101/1 59/43/1 58/102/1
f 58/105/1 60/164/1 28/106/1
f 59/108/1 57/165/1 60/109/1
f 5/111/6 64/166/6 61/112/6
f 69/3/4 63/11/4 8/113/4
f 3/76/2 62/167/2 63/98/2
f 70/115/1 62/125/1 3/116/1
f 64/111/1 70/168/1 66/118/1
f 61/120/4 69/3/4 65/114/4
f 1/41/5 66/102/5 68/58/5
f 2/122/4 68/10/4 69/3/4
f 7/123/3 67/169/3 65/124/3
f 5/126/1 67/170/1 70/127/1
