# Blender 5.1.2
# www.blender.org
mtllib medium_greek_corinthian_half_capital.mtl
o corinthian
v -0.210262 0.900001 1.000000
v 1.210262 1.000001 1.000000
v -0.210262 1.000001 1.000000
v 1.210262 0.900001 1.000000
v 0.500000 0.900001 0.289738
v 0.500000 1.000001 0.289738
v 0.500000 0.757359 1.000000
v 0.500000 1.000001 1.000000
v 1.420000 1.000001 0.154149
v 1.345851 1.000001 0.080000
v 1.345851 0.900001 0.080000
v 1.420000 0.900001 0.154149
v -0.345850 1.000001 0.080000
v -0.420000 1.000001 0.154149
v -0.420000 0.900001 0.154149
v -0.345850 0.900001 0.080000
v -0.074255 0.900001 1.000000
v 1.074255 0.900001 1.000000
v 0.500000 0.900001 0.425745
v 1.243831 0.900001 0.316120
v 1.183880 0.900001 0.256170
v -0.183880 0.900001 0.256170
v -0.243831 0.900001 0.316120
v -0.074255 0.757359 1.000000
v 1.074255 0.757359 1.000000
v 0.500000 0.757359 0.425745
v 1.243831 0.757359 0.316120
v 1.183880 0.757359 0.256170
v -0.183880 0.757359 0.256170
v -0.243831 0.757359 0.316120
v -0.017800 0.646292 0.912913
v -0.095784 0.933104 0.912913
v -0.150485 0.611255 0.912913
v -0.228468 0.898067 0.912913
v 0.587085 0.646292 0.482198
v 0.587085 0.933104 0.404214
v 0.412917 0.646292 0.482198
v 0.412917 0.933104 0.404214
v 0.587085 0.611255 0.349513
v 0.587085 0.898067 0.271530
v 0.412917 0.611255 0.349513
v 0.412917 0.898067 0.271530
v 1.017801 0.646292 0.912916
v 1.095784 0.933104 0.912916
v 1.150485 0.611255 0.912916
v 1.228469 0.898067 0.912916
v -0.083189 0.456676 0.815905
v -0.028793 0.481891 0.815903
v -0.058872 0.391014 0.786552
v 0.001155 0.418598 0.786549
v -0.034552 0.325352 0.815905
v 0.031105 0.355306 0.815902
v -0.024476 0.298155 0.886769
v 0.043513 0.329090 0.886766
v -0.034546 0.325354 0.957634
v 0.031111 0.355308 0.957631
v -0.058864 0.391016 0.986988
v 0.001163 0.418600 0.986985
v -0.083183 0.456677 0.957635
v -0.028787 0.481893 0.957632
v -0.093259 0.483875 0.886770
v -0.041195 0.508108 0.886767
v 0.317075 0.481892 0.471211
v 0.317073 0.456677 0.416814
v 0.287722 0.418600 0.501160
v 0.287720 0.391015 0.441133
v 0.317075 0.355307 0.531108
v 0.317073 0.325353 0.465451
v 0.387940 0.329090 0.543512
v 0.387938 0.298154 0.475522
v 0.458805 0.355305 0.531105
v 0.458803 0.325352 0.465447
v 0.488158 0.418598 0.501155
v 0.488156 0.391013 0.441128
v 0.458805 0.481890 0.471207
v 0.458803 0.456675 0.416810
v 0.387940 0.508108 0.458804
v 0.387938 0.483874 0.406739
v 0.684097 0.456676 0.416809
v 0.684100 0.481891 0.471205
v 0.713450 0.391014 0.441126
v 0.713453 0.418598 0.501153
v 0.684098 0.325352 0.465446
v 0.684100 0.355306 0.531103
v 0.613233 0.298155 0.475521
v 0.613235 0.329090 0.543511
v 0.542368 0.325354 0.465451
v 0.542371 0.355308 0.531108
v 0.513015 0.391016 0.441134
v 0.513017 0.418600 0.501160
v 0.542368 0.456677 0.416814
v 0.542370 0.481893 0.471211
v 0.613232 0.483875 0.406738
v 0.613235 0.508108 0.458803
v 1.028788 0.481892 0.817076
v 1.083185 0.456677 0.817074
v 0.998839 0.418600 0.787722
v 1.058866 0.391015 0.787721
v 0.968891 0.355307 0.817075
v 1.034548 0.325353 0.817074
v 0.956487 0.329090 0.887940
v 1.024476 0.298154 0.887939
v 0.968894 0.355305 0.958805
v 1.034551 0.325352 0.958803
v 0.998843 0.418598 0.988158
v 1.058870 0.391013 0.988157
v 1.028791 0.481890 0.958805
v 1.083188 0.456675 0.958804
v 1.041195 0.508108 0.887940
v 1.093259 0.483874 0.887939
v 1.116193 0.723540 0.277768
v 1.169322 0.723540 0.391701
v 1.166686 0.590989 0.254222
v 1.219816 0.590989 0.368155
v 1.116193 0.458438 0.277768
v 1.169322 0.458438 0.391701
v 0.994291 0.403534 0.334614
v 1.047421 0.403534 0.448547
v 0.872390 0.458438 0.391460
v 0.925519 0.458438 0.505392
v 0.821896 0.590989 0.415006
v 0.875026 0.590989 0.528939
v 0.872390 0.723540 0.391460
v 0.925519 0.723540 0.505392
v 0.994291 0.778445 0.334614
v 1.047421 0.778445 0.448547
v -0.171551 0.723540 0.393933
v -0.118426 0.723540 0.279999
v -0.222045 0.590989 0.370389
v -0.168920 0.590989 0.256454
v -0.171551 0.458439 0.393933
v -0.118426 0.458439 0.279999
v -0.049648 0.403534 0.450775
v 0.003478 0.403534 0.336840
v 0.072256 0.458438 0.507616
v 0.125382 0.458438 0.393681
v 0.122750 0.590989 0.531161
v 0.175876 0.590989 0.417226
v 0.072256 0.723540 0.507616
v 0.125381 0.723540 0.393681
v -0.049648 0.778445 0.450775
v 0.003478 0.778445 0.336840
v 1.106067 0.723540 0.328447
v 1.220002 0.723540 0.381573
v 1.129612 0.590989 0.277953
v 1.243547 0.590989 0.331079
v 1.106067 0.458439 0.328447
v 1.220002 0.458439 0.381573
v 1.049226 0.403534 0.450350
v 1.163160 0.403534 0.503476
v 0.992384 0.458439 0.572253
v 1.106318 0.458439 0.625379
v 0.968839 0.590989 0.622747
v 1.082773 0.590989 0.675873
v 0.992384 0.723540 0.572253
v 1.106318 0.723540 0.625379
v 1.049226 0.778445 0.450350
v 1.163160 0.778445 0.503476
v -0.222231 0.723540 0.383808
v -0.108299 0.723540 0.330678
v -0.245778 0.590989 0.333315
v -0.131845 0.590989 0.280185
v -0.222231 0.458438 0.383808
v -0.108299 0.458438 0.330678
v -0.165385 0.403534 0.505710
v -0.051452 0.403534 0.452579
v -0.108539 0.458438 0.627611
v 0.005394 0.458438 0.574481
v -0.084992 0.590989 0.678104
v 0.028940 0.590989 0.624974
v -0.108539 0.723540 0.627611
v 0.005394 0.723540 0.574481
v -0.165385 0.778445 0.505710
v -0.051452 0.778445 0.452579
v 0.252099 -0.601999 0.401514
v 0.252099 -0.521999 0.401514
v 0.747901 -0.601999 0.401514
v 0.747901 -0.521999 0.401514
v 1.098486 -0.601999 0.752099
v 1.098486 -0.521999 0.752099
v -0.098486 -0.601999 0.752099
v -0.098486 -0.521999 0.752099
v 0.710338 -0.521999 0.492200
v 0.289663 -0.521999 0.492200
v 1.007800 -0.521999 0.789662
v -0.007800 -0.521999 0.789662
v 0.710338 -0.281999 0.492200
v 0.289663 -0.281999 0.492200
v 1.007800 -0.281999 0.789662
v -0.007800 -0.281999 0.789662
v 0.750272 0.198001 0.395791
v 0.249729 0.198001 0.395791
v 1.104209 0.198001 0.749728
v -0.104209 0.198001 0.749728
v 0.693025 0.198001 0.533995
v 0.306975 0.198001 0.533995
v 0.966004 0.198001 0.806974
v 0.033996 0.198001 0.806974
v 0.778087 0.758001 0.328639
v 0.221913 0.758001 0.328639
v 1.171362 0.758001 0.721913
v -0.171362 0.758001 0.721913
v -0.315131 0.900001 0.577075
v -0.315131 1.000001 0.577075
v -0.159043 0.900001 0.658060
v -0.159043 0.757359 0.658060
v 1.315131 0.900001 0.577075
v 1.315131 1.000001 0.577075
v 1.159043 0.900001 0.658060
v 1.159043 0.757359 0.658060
v 0.922925 0.900001 0.184869
v 0.922925 1.000001 0.184869
v 0.841940 0.900001 0.340957
v 0.841940 0.757359 0.340957
v 0.077075 0.900001 0.184869
v 0.077075 1.000001 0.184869
v 0.158060 0.900001 0.340957
v 0.158060 0.757359 0.340957
v 0.500000 1.000001 1.002019
v 1.210382 0.900001 1.000485
v -0.211143 1.000001 1.003555
v 1.074448 0.900001 1.000779
v 0.500000 0.757359 1.002019
v 1.074448 0.757359 1.000779
v -0.017800 0.646292 1.003138
v -0.095784 0.933104 1.003306
v -0.150485 0.611255 1.003424
v -0.228468 0.898067 1.003593
v 1.017801 0.646292 1.000901
v 1.095784 0.933104 1.000732
v 1.150485 0.611255 1.000614
v 1.228469 0.898067 1.000446
v 1.098486 -0.601999 1.000727
v 1.098486 -0.521999 1.000727
v -0.098486 -0.601999 1.003312
v -0.098486 -0.521999 1.003312
v 1.007800 -0.521999 1.000923
v -0.007800 -0.521999 1.003116
v 1.007800 -0.281999 1.000923
v -0.007800 -0.281999 1.003116
v 1.104209 0.198001 1.000714
v -0.104209 0.198001 1.003324
v 0.966004 0.198001 1.001013
v 0.033996 0.198001 1.003026
v 1.171362 0.758001 1.000569
v -0.171362 0.758001 1.003469
v -0.211143 0.900001 1.003555
v -0.075064 0.900001 1.003261
v -0.075064 0.757359 1.003261
v 1.210382 1.000001 1.000485
vn 0.7071 -0.0000 -0.7071
vn 0.0022 -0.0000 1.0000
vn -0.7071 -0.0000 -0.7071
vn 0.9706 -0.0000 0.2407
vn -0.2407 -0.0000 -0.9706
vn -0.0000 1.0000 -0.0000
vn -0.0000 -1.0000 -0.0000
vn 0.2407 -0.0000 -0.9706
vn -0.9706 -0.0000 0.2407
vn -0.9706 -0.0000 -0.2407
vn -0.9650 -0.2624 -0.0000
vn -0.0000 -0.0000 -1.0000
vn 0.2553 -0.9669 -0.0000
vn -0.2553 0.9669 -0.0000
vn -0.0000 0.2624 0.9650
vn -1.0000 -0.0000 -0.0000
vn -0.0000 -0.2624 -0.9650
vn 1.0000 -0.0000 -0.0000
vn -0.0000 -0.9669 0.2553
vn -0.0000 0.9669 -0.2553
vn -0.9650 0.2624 -0.0000
vn -0.1619 0.3522 -0.9218
vn 0.1608 -0.3526 -0.9219
vn 0.3834 -0.8427 -0.3779
vn 0.3834 -0.8427 0.3779
vn 0.1609 -0.3525 0.9219
vn -0.1618 0.3522 0.9218
vn 0.9039 0.4277 -0.0000
vn -0.3894 0.8400 0.3778
vn -0.3894 0.8400 -0.3778
vn -0.9378 -0.3473 -0.0000
vn -0.9222 0.3508 -0.1626
vn -0.9222 -0.3513 0.1615
vn -0.3787 -0.8420 0.3842
vn 0.3788 -0.8420 0.3841
vn 0.9222 -0.3513 0.1614
vn 0.9222 0.3508 -0.1626
vn -0.0000 -0.3473 -0.9378
vn 0.3788 0.8390 -0.3906
vn -0.3788 0.8391 -0.3905
vn -0.0000 0.4277 0.9039
vn 0.9218 0.3522 -0.1619
vn 0.9219 -0.3526 0.1608
vn 0.3779 -0.8427 0.3834
vn -0.3779 -0.8427 0.3834
vn -0.9219 -0.3525 0.1609
vn -0.9218 0.3522 -0.1618
vn -0.3778 0.8400 -0.3894
vn 0.3778 0.8400 -0.3894
vn 0.1626 0.3508 -0.9222
vn -0.1615 -0.3513 -0.9222
vn -0.3841 -0.8420 -0.3788
vn -0.3841 -0.8420 0.3787
vn -0.1614 -0.3513 0.9222
vn 0.1626 0.3508 0.9222
vn 0.9378 -0.3473 -0.0000
vn 0.3905 0.8390 0.3788
vn 0.3905 0.8391 -0.3788
vn -0.9039 0.4277 -0.0000
vn 0.8355 0.3875 -0.3896
vn 0.8355 -0.3875 -0.3896
vn 0.3425 -0.9258 -0.1597
vn -0.3425 -0.9258 0.1597
vn -0.8355 -0.3875 0.3896
vn -0.8355 0.3875 0.3896
vn 0.4226 -0.0000 0.9063
vn -0.3425 0.9258 0.1597
vn 0.3425 0.9258 -0.1597
vn -0.4226 -0.0000 -0.9063
vn -0.8355 0.3875 -0.3896
vn -0.8355 -0.3875 -0.3896
vn -0.3425 -0.9258 -0.1597
vn 0.3425 -0.9258 0.1597
vn 0.8355 -0.3875 0.3896
vn 0.8355 0.3875 0.3896
vn 0.4226 -0.0000 -0.9063
vn 0.3425 0.9258 0.1597
vn -0.3425 0.9258 -0.1597
vn -0.4226 -0.0000 0.9063
vn 0.3896 0.3875 -0.8355
vn 0.3896 -0.3875 -0.8355
vn 0.1597 -0.9258 -0.3425
vn -0.1597 -0.9258 0.3425
vn -0.3896 -0.3875 0.8355
vn -0.3896 0.3875 0.8355
vn 0.9063 -0.0000 0.4226
vn -0.1597 0.9258 0.3425
vn 0.1597 0.9258 -0.3425
vn -0.9063 -0.0000 -0.4226
vn -0.3896 0.3875 -0.8355
vn -0.3896 -0.3875 -0.8355
vn -0.1597 -0.9258 -0.3425
vn 0.1597 -0.9258 0.3425
vn 0.3896 -0.3875 0.8355
vn 0.3896 0.3875 0.8355
vn 0.9063 -0.0000 -0.4226
vn 0.1597 0.9258 0.3425
vn -0.1597 0.9258 -0.3425
vn -0.9063 -0.0000 0.4226
vn -0.6933 -0.1969 -0.6933
vn 0.6933 -0.1969 -0.6933
vn 0.9804 -0.1969 -0.0000
vn -0.0000 -0.1969 -0.9804
vn -0.6639 -0.3443 -0.6639
vn 0.6639 -0.3443 -0.6639
vn 0.9389 -0.3443 -0.0000
vn -0.0000 -0.3443 -0.9389
vn -0.9389 -0.3443 -0.0000
vn -0.9804 -0.1969 -0.0000
vn 0.9650 -0.2624 -0.0000
vn 0.2553 0.9669 -0.0000
vn -0.2553 -0.9669 -0.0000
vn 0.9650 0.2624 -0.0000
vn 0.9706 -0.0000 -0.2408
vn 0.9705 -0.0000 -0.2409
vn -0.1626 0.3508 -0.9222
vn 0.1614 -0.3513 -0.9222
vn 0.3841 -0.8420 -0.3788
vn 0.3842 -0.8420 0.3787
vn 0.1615 -0.3513 0.9222
vn -0.1626 0.3508 0.9222
vn -0.3905 0.8391 0.3788
vn -0.3906 0.8390 -0.3788
vn 0.9219 -0.3525 0.1608
vn 0.1618 0.3522 -0.9218
vn -0.1609 -0.3525 -0.9219
vn -0.3834 -0.8427 -0.3779
vn -0.3834 -0.8427 0.3779
vn -0.1608 -0.3525 0.9219
vn 0.1618 0.3522 0.9218
vn 0.3894 0.8400 0.3778
vn 0.3894 0.8400 -0.3778
vn 0.9706 -0.0000 -0.2405
vn 0.9706 -0.0000 -0.2407
vt 0.604417 0.439098
vt 0.516415 0.351096
vt 0.604417 0.351096
vt 0.661496 0.664390
vt 0.798724 0.960610
vt 0.661496 0.961614
vt 0.298725 0.351890
vt 0.161496 0.648110
vt 0.161496 0.350886
vt 0.409003 0.699650
vt 0.321001 0.611649
vt 0.409003 0.611649
vt 0.495535 0.667927
vt 0.136762 0.578234
vt 0.495535 0.578234
vt 0.690949 0.733065
vt 0.332176 0.643372
vt 0.690949 0.643372
vt 0.396575 0.840757
vt 0.047626 0.142859
vt 0.745524 0.491808
vt 0.487028 0.449065
vt 0.548299 0.224816
vt 0.621160 0.518658
vt 0.125000 0.610354
vt 0.127802 0.494173
vt 0.128055 0.611112
vt 0.495535 0.733065
vt 0.136762 0.643372
vt 0.495535 0.643372
vt 0.495535 0.407375
vt 0.136762 0.317681
vt 0.495535 0.317681
vt 0.147326 0.591508
vt 0.496274 0.242559
vt 0.845223 0.940457
vt 0.120342 0.058911
vt 0.933627 0.000099
vt 0.866960 0.058911
vt 0.139778 0.733065
vt 0.139778 0.643372
vt 0.273129 0.853090
vt 0.360799 0.650183
vt 0.412317 0.701701
vt 0.364158 0.543345
vt 0.430984 0.409694
vt 0.430984 0.543345
vt 0.310411 0.797992
vt 0.615008 0.676153
vt 0.615008 0.797992
vt 0.398129 0.146910
vt 0.485799 0.349816
vt 0.334410 0.210629
vt 0.511565 0.762972
vt 0.287317 0.701701
vt 0.581158 0.628840
vt 0.812500 0.327145
vt 0.518659 0.371160
vt 0.449065 0.237028
vt 0.170718 0.500268
vt 0.070382 0.904341
vt 0.000041 0.500268
vt 0.577146 0.437500
vt 0.621160 0.731342
vt 0.487028 0.800935
vt 0.587981 0.086429
vt 0.879415 0.417065
vt 0.316148 0.669296
vt 0.376417 0.043530
vt 0.628649 0.606796
vt 0.065382 0.354564
vt 0.180134 0.602577
vt 0.183039 0.480738
vt 0.183039 0.602577
vt 0.299020 0.738759
vt 0.365846 0.605109
vt 0.365846 0.738759
vt 0.375549 0.472301
vt 0.680146 0.350462
vt 0.680146 0.472301
vt 0.440687 0.732853
vt 0.745284 0.611015
vt 0.745284 0.732853
vt 0.440687 0.797992
vt 0.745284 0.676153
vt 0.745284 0.797992
vt 0.384428 0.275362
vt 0.301463 0.514832
vt 0.301463 0.275362
vt 0.712694 0.533083
vt 0.570984 0.745647
vt 0.570984 0.533083
vt 0.249719 0.604400
vt 0.382578 0.673226
vt 0.249719 0.673226
vt 0.643131 0.604272
vt 0.510271 0.673226
vt 0.510271 0.604053
vt 0.544188 0.248480
vt 0.348661 0.444007
vt 0.348661 0.248480
vt 0.387003 0.680509
vt 0.245294 0.467945
vt 0.387003 0.467945
vt 0.330834 0.710247
vt 0.171187 0.470776
vt 0.330834 0.470776
vt 0.647556 0.467945
vt 0.505846 0.680509
vt 0.505846 0.467945
vt 0.249719 0.540366
vt 0.382578 0.673226
vt 0.643131 0.540366
vt 0.510271 0.673226
vt 0.510271 0.540366
vt 0.544188 0.345421
vt 0.348661 0.345232
vt 0.712694 0.810785
vt 0.570984 0.598221
vt 0.712694 0.598221
vt 0.274702 0.587805
vt 0.312932 0.495511
vt 0.312932 0.587805
vt 0.313837 0.493325
vt 0.273797 0.589991
vt 0.273797 0.493325
vt 0.314551 0.491601
vt 0.273083 0.591715
vt 0.273083 0.491601
vt 0.314552 0.591715
vt 0.273083 0.491601
vt 0.314552 0.491601
vt 0.313837 0.589991
vt 0.273797 0.493325
vt 0.313837 0.493325
vt 0.312932 0.587805
vt 0.274702 0.495511
vt 0.312932 0.495511
vt 0.367332 0.508896
vt 0.413663 0.462565
vt 0.413663 0.620751
vt 0.312354 0.586409
vt 0.275280 0.496906
vt 0.312354 0.496906
vt 0.312354 0.496907
vt 0.275280 0.586409
vt 0.275280 0.496907
vt 0.501795 0.296459
vt 0.642655 0.645194
vt 0.645194 0.357344
vt 0.274702 0.495511
vt 0.312932 0.587805
vt 0.274702 0.587805
vt 0.313837 0.589991
vt 0.313837 0.493325
vt 0.314551 0.591715
vt 0.273083 0.491601
vt 0.314551 0.491601
vt 0.314552 0.491601
vt 0.273083 0.591715
vt 0.313837 0.493325
vt 0.273797 0.589991
vt 0.273797 0.493325
vt 0.274702 0.587805
vt 0.644330 0.643530
vt 0.500566 0.703548
vt 0.643530 0.355670
vt 0.312354 0.496906
vt 0.275280 0.586409
vt 0.275280 0.496906
vt 0.312354 0.586409
vt 0.275280 0.496906
vt 0.312354 0.496906
vt 0.525518 0.508896
vt 0.525518 0.574419
vt 0.367332 0.508896
vt 0.312932 0.495511
vt 0.312932 0.587805
vt 0.312932 0.587805
vt 0.367332 0.508896
vt 0.413663 0.462565
vt 0.413663 0.620751
vt 0.498205 0.703541
vt 0.274702 0.587805
vt 0.273797 0.589991
vt 0.273797 0.493325
vt 0.312932 0.495511
vt 0.274702 0.495511
vt 0.601265 0.753631
vt 0.519568 0.590237
vt 0.601265 0.590237
vt 0.649844 0.818769
vt 0.731541 0.655375
vt 0.731541 0.818769
vt 0.193665 0.754055
vt 0.275786 0.589813
vt 0.275786 0.754055
vt 0.601477 0.819193
vt 0.519356 0.654951
vt 0.601477 0.654951
vt 0.324153 0.688493
vt 0.405851 0.525099
vt 0.405851 0.688493
vt 0.330997 0.451899
vt 0.256637 0.631417
vt 0.256637 0.451899
vt 0.296501 0.479557
vt 0.384324 0.391734
vt 0.384324 0.691581
vt 0.331190 0.451433
vt 0.256445 0.631882
vt 0.256445 0.451433
vt 0.519356 0.493502
vt 0.601477 0.329261
vt 0.601477 0.493502
vt 0.354806 0.357344
vt 0.498205 0.296459
vt 0.501795 0.703541
vt 0.405851 0.753631
vt 0.324153 0.590237
vt 0.405851 0.590237
vt 0.519568 0.688493
vt 0.601265 0.525099
vt 0.601265 0.688493
vt 0.406062 0.493503
vt 0.323942 0.329261
vt 0.406062 0.329261
vt 0.389185 0.868322
vt 0.471095 0.704503
vt 0.471095 0.868322
vt 0.389185 0.540684
vt 0.471095 0.540684
vt 0.610451 0.543232
vt 0.510394 0.409819
vt 0.610451 0.409807
vt 0.355670 0.643530
vt 0.499434 0.703548
vt 0.356470 0.355670
vt 0.331190 0.451433
vt 0.256445 0.451433
vt 0.406063 0.428364
vt 0.323942 0.264123
vt 0.406063 0.264123
vt 0.596348 0.479558
vt 0.596348 0.603758
vt 0.296501 0.479558
vt 0.259015 0.688493
vt 0.340713 0.525099
vt 0.340713 0.688493
vt 0.193877 0.427941
vt 0.275575 0.264546
vt 0.275575 0.427941
vt 0.406063 0.688917
vt 0.323942 0.524675
vt 0.406063 0.524675
vt 0.649632 0.754055
vt 0.731753 0.589813
vt 0.731753 0.754055
vt 0.259015 0.753631
vt 0.340713 0.590237
vt 0.340713 0.753631
vt 0.256637 0.631417
vt 0.331190 0.451433
vt 0.601477 0.493503
vt 0.519356 0.329261
vt 0.601477 0.329261
vt 0.519568 0.753631
vt 0.601265 0.753631
vt 0.193877 0.558217
vt 0.275574 0.394823
vt 0.275574 0.558217
vt 0.649632 0.754055
vt 0.731753 0.754055
vt 0.258804 0.428364
vt 0.340924 0.264123
vt 0.340924 0.428364
vt 0.193877 0.427941
vt 0.275575 0.427941
vt 0.575532 0.608358
vt 0.675589 0.474945
vt 0.675589 0.608370
vt 0.296501 0.479557
vt 0.384324 0.391734
vt 0.384324 0.691581
vt 0.258804 0.754055
vt 0.340924 0.589813
vt 0.340924 0.754055
vt 0.357345 0.645194
vt 0.768542 0.817864
vt 0.349310 0.747992
vt 0.768542 0.747992
vt 0.543540 0.667863
vt 0.124308 0.597991
vt 0.543540 0.597991
vt 0.520081 0.745593
vt 0.711633 0.818941
vt 0.520600 0.818941
vt 0.636727 0.517862
vt 0.424310 0.447990
vt 0.636727 0.447990
vt 0.468539 0.367860
vt 0.049307 0.297988
vt 0.468539 0.297988
vt 0.411955 0.255834
vt 0.764474 0.467346
vt 0.411955 0.467346
vt 0.523960 0.445590
vt 0.106236 0.518938
vt 0.067537 0.445590
vt 0.367539 0.445590
vt 0.786633 0.518938
vt 0.406238 0.518938
vt 0.598961 0.595591
vt 0.181236 0.668939
vt 0.142537 0.595591
vt 0.401946 0.440712
vt 0.774483 0.887757
vt 0.401946 0.887757
vt 0.644529 0.255834
vt 0.467495 0.467346
vt 0.467495 0.255834
vt 0.611960 0.343211
vt 0.259440 0.554722
vt 0.259440 0.343211
vt 0.764474 0.495726
vt 0.411955 0.707237
vt 0.411955 0.495726
vt 0.774483 0.244509
vt 0.401946 0.691553
vt 0.401946 0.244509
vt 0.654538 0.244509
vt 0.467737 0.691553
vt 0.467451 0.244509
vt 0.490903 0.440712
vt 0.118366 0.887757
vt 0.118366 0.440712
vt 0.513407 0.278647
vt 0.118890 0.804669
vt 0.118890 0.278647
vt 0.380710 0.474393
vt 0.515816 0.608923
vt 0.380580 0.608923
vt 0.583081 0.474393
vt 0.246757 0.608923
vt 0.179492 0.474393
vt 0.583081 0.474393
vt 0.246757 0.608923
vt 0.179492 0.474393
vt 0.249166 0.343785
vt 0.643683 0.869807
vt 0.249166 0.869807
vt 0.773959 0.278647
vt 0.576297 0.804669
vt 0.575665 0.278647
vt 0.643683 0.408923
vt 0.249166 0.934945
vt 0.249166 0.408923
vt 0.500000 0.735354
vt 0.206158 0.691340
vt 0.500000 0.618479
vt 0.745284 0.611015
vt 0.821226 0.342237
vt 0.462453 0.252543
vt 0.821226 0.252543
vt 0.375549 0.797992
vt 0.680146 0.676153
vt 0.680146 0.797992
vt 0.574065 0.174528
vt 0.349817 0.235799
vt 0.210629 0.084410
vt 0.756087 0.733065
vt 0.397314 0.643372
vt 0.756087 0.643372
vt 0.327146 0.625000
vt 0.371160 0.331158
vt 0.444022 0.625000
vt 0.690949 0.798203
vt 0.332176 0.708510
vt 0.690949 0.708510
vt 0.440687 0.472301
vt 0.745284 0.350462
vt 0.745284 0.472301
vt 0.424528 0.425935
vt 0.485799 0.650183
vt 0.334410 0.789371
vt 0.690949 0.472513
vt 0.332176 0.382820
vt 0.690949 0.382820
vt 0.497661 1.000000
vt 0.499617 0.000000
vt 1.000000 0.687500
vt 0.249166 0.180940
vt 0.448885 0.706962
vt 0.249166 0.706962
vt 0.383967 0.474393
vt 0.246757 0.608923
vt 0.179492 0.474393
vt 0.401946 0.244509
vt 0.590689 0.691553
vt 0.401946 0.691553
vt 0.307246 0.495726
vt 0.128375 0.707237
vt 0.128375 0.495726
vt 0.298798 0.595591
vt 0.106235 0.668939
vt 0.067536 0.595591
vt 0.768542 0.592862
vt 0.558311 0.522990
vt 0.768542 0.522990
vt 0.312500 1.000000
vt -0.000000 0.687500
vt 0.000000 0.499450
vt 0.591386 0.340500
vt 0.511154 0.579970
vt 0.510999 0.340500
vt 0.510271 0.607136
vt 0.510271 0.540366
vt 0.382578 0.607265
vt 0.249719 0.607484
vt 0.544188 0.248480
vt 0.348661 0.349769
vt 0.348661 0.248480
vt 0.879415 0.356796
vt 0.316149 0.358776
vt 0.316148 0.356796
vt 0.065382 0.356796
vt 0.628649 0.358776
vt 0.065382 0.359201
vt 0.679453 0.797992
vt 0.500000 0.264645
vt 0.500669 0.381355
vt 0.500000 0.381521
vt 0.756087 0.733065
vt 0.755676 0.643372
vt 0.756087 0.643372
vt 0.047626 0.741057
vt 0.049327 0.142859
vt 0.048026 0.741171
vt 0.247025 0.940456
vt 0.845223 0.938756
vt 0.516415 0.439098
vt 0.798725 0.663386
vt 0.298725 0.649114
vt 0.321001 0.699650
vt 0.136762 0.667927
vt 0.332176 0.733065
vt 0.845223 0.840757
vt 0.745524 0.940456
vt 0.645824 0.142859
vt 0.396910 0.085629
vt 0.125000 0.493479
vt 0.136762 0.733065
vt 0.136762 0.407375
vt 0.047626 0.242559
vt 0.147326 0.142859
vt 0.845223 0.342259
vt 0.987202 0.999901
vt 0.000099 0.999901
vt 0.151068 0.588218
vt 0.049467 0.588218
vt 0.120342 0.235347
vt 0.053674 0.058911
vt 0.053674 0.000099
vt 0.836234 0.588218
vt 0.866960 0.235347
vt 0.937835 0.588218
vt 0.933627 0.058911
vt 0.209410 0.789371
vt 0.364158 0.409694
vt 0.310411 0.676153
vt 0.537317 0.298299
vt 0.148129 0.853090
vt 0.812500 0.444021
vt 0.070382 0.095761
vt 0.170718 0.095761
vt 0.170718 0.904341
vt 0.070382 0.999959
vt 0.000041 0.999959
vt 0.000041 0.000041
vt 0.070382 0.000041
vt 0.694022 0.437500
vt 0.316148 0.106030
vt 0.859813 0.066828
vt 0.879415 0.164834
vt 0.879415 0.669296
vt 0.065382 0.102334
vt 0.124186 0.043530
vt 0.628649 0.043530
vt 0.065382 0.606796
vt 0.180134 0.480738
vt 0.299020 0.605109
vt 0.375549 0.350462
vt 0.440687 0.611015
vt 0.440687 0.676153
vt 0.384582 0.514832
vt 0.712694 0.745647
vt 0.382578 0.604182
vt 0.643131 0.673226
vt 0.544188 0.444007
vt 0.245294 0.680509
vt 0.171187 0.710247
vt 0.647556 0.680509
vt 0.382578 0.540366
vt 0.643131 0.673226
vt 0.570984 0.810785
vt 0.274702 0.495511
vt 0.314551 0.591715
vt 0.273083 0.591715
vt 0.479186 0.462565
vt 0.525518 0.508896
vt 0.525518 0.574419
vt 0.479186 0.620751
vt 0.367332 0.574419
vt 0.275280 0.586409
vt 0.312354 0.586409
vt 0.357344 0.354805
vt 0.354805 0.642655
vt 0.296459 0.498204
vt 0.703541 0.501795
vt 0.273083 0.591715
vt 0.314552 0.591715
vt 0.312932 0.587805
vt 0.356470 0.644330
vt 0.296452 0.500566
vt 0.355670 0.356470
vt 0.499434 0.296452
vt 0.703548 0.499434
vt 0.479186 0.620751
vt 0.413663 0.620751
vt 0.367332 0.574419
vt 0.413663 0.462565
vt 0.479186 0.462565
vt 0.274702 0.495511
vt 0.479186 0.462565
vt 0.479186 0.620751
vt 0.367332 0.574419
vt 0.312932 0.495511
vt 0.313837 0.589991
vt 0.312354 0.586409
vt 0.519568 0.753631
vt 0.649844 0.655375
vt 0.193665 0.589813
vt 0.519356 0.819193
vt 0.324153 0.525099
vt 0.330997 0.631417
vt 0.508525 0.391734
vt 0.596348 0.479557
vt 0.596348 0.603758
vt 0.508525 0.691581
vt 0.296501 0.603758
vt 0.331190 0.631882
vt 0.519356 0.329261
vt 0.642656 0.354805
vt 0.645195 0.642655
vt 0.703541 0.498204
vt 0.296459 0.501795
vt 0.324153 0.753631
vt 0.519568 0.525099
vt 0.323942 0.493503
vt 0.389185 0.704503
vt 0.510394 0.543220
vt 0.643530 0.644330
vt 0.703548 0.500566
vt 0.644330 0.356470
vt 0.500566 0.296452
vt 0.296452 0.499434
vt 0.323942 0.428364
vt 0.508525 0.691581
vt 0.296501 0.603758
vt 0.384324 0.691581
vt 0.384324 0.391734
vt 0.508525 0.391734
vt 0.259015 0.525099
vt 0.193877 0.264546
vt 0.323942 0.688917
vt 0.649632 0.589813
vt 0.259015 0.590237
vt 0.519356 0.493503
vt 0.519568 0.590237
vt 0.193877 0.394823
vt 0.258804 0.264123
vt 0.575532 0.474957
vt 0.508525 0.391734
vt 0.296501 0.603758
vt 0.258804 0.589813
vt 0.349310 0.817864
vt 0.124308 0.667863
vt 0.748963 0.745593
vt 0.424310 0.517862
vt 0.049307 0.367860
vt 0.764474 0.255834
vt 0.486630 0.518938
vt 0.823963 0.445590
vt 0.561631 0.668939
vt 0.774483 0.440712
vt 0.644529 0.467346
vt 0.611960 0.554722
vt 0.764474 0.707237
vt 0.774483 0.691553
vt 0.654538 0.691553
vt 0.490903 0.887757
vt 0.513407 0.804669
vt 0.515816 0.608923
vt 0.643683 0.343785
vt 0.773959 0.804669
vt 0.643683 0.934945
vt 0.136565 0.825472
vt 0.440687 0.611015
vt 0.462453 0.342237
vt 0.375549 0.676153
vt 0.643659 0.308660
vt 0.397314 0.733065
vt 0.237028 0.261565
vt 0.332176 0.798203
vt 0.440687 0.350462
vt 0.558660 0.356342
vt 0.332176 0.472513
vt 0.687500 0.000000
vt 1.000000 0.312500
vt 0.687500 1.000000
vt 0.449517 0.180940
vt 0.383396 0.608923
vt 0.590974 0.244509
vt 0.307246 0.707237
vt 0.299251 0.668939
vt 0.558311 0.592862
vt 1.000000 0.497495
vt 0.591386 0.579970
vt 0.643131 0.607355
vt 0.544188 0.349958
vt 0.879415 0.357370
vt 0.628649 0.356796
vt 0.679453 0.676153
vt 0.500417 0.264542
vt 0.755676 0.733065
vt 0.246187 0.937523
s 0
usemtl base
f 12/1/1 10/2/1 9/3/1
f 227/4/2 226/5/2 228/6/2
f 231/7/2 230/8/2 229/9/2
f 16/10/3 14/11/3 13/12/3
f 208/13/4 4/14/4 207/15/4
f 212/16/5 11/17/5 211/18/5
f 212/19/6 8/20/6 208/21/6
f 211/22/7 21/23/7 213/24/7
f 1/25/7 248/26/7 247/27/7
f 216/28/8 5/29/8 215/30/8
f 204/31/9 15/32/9 203/33/9
f 216/34/6 204/35/6 8/36/6
f 238/37/2 233/38/2 237/39/2
f 221/40/10 1/29/10 247/41/10
f 15/42/7 22/43/7 23/44/7
f 22/45/3 30/46/3 23/47/3
f 23/48/9 206/49/9 205/50/9
f 12/51/7 21/52/7 11/53/7
f 203/54/7 23/55/7 205/56/7
f 4/57/7 209/58/7 207/59/7
f 223/60/2 222/61/2 219/62/2
f 5/63/7 217/64/7 215/65/7
f 214/66/7 210/67/7 7/68/7
f 218/69/7 7/70/7 206/71/7
f 17/72/10 249/73/10 248/74/10
f 20/75/1 28/76/1 21/77/1
f 18/78/4 210/79/4 209/80/4
f 19/81/8 218/82/8 217/83/8
f 21/84/5 214/85/5 213/86/5
f 227/87/11 34/88/11 33/89/11
f 33/90/12 32/91/12 31/92/12
f 225/93/13 33/94/13 31/95/13
f 226/96/14 34/97/14 228/98/14
f 36/99/15 37/100/15 35/101/15
f 38/102/16 41/103/16 37/104/16
f 42/105/17 39/106/17 41/107/17
f 39/108/18 36/109/18 35/110/18
f 37/111/19 39/112/19 35/95/19
f 38/113/20 40/114/20 42/115/20
f 230/116/21 43/100/21 229/117/21
f 44/118/12 45/119/12 43/120/12
f 47/121/22 50/122/22 49/123/22
f 49/124/23 52/125/23 51/126/23
f 51/127/24 54/128/24 53/129/24
f 54/130/25 55/131/25 53/132/25
f 56/133/26 57/134/26 55/135/26
f 58/136/27 59/137/27 57/138/27
f 56/139/28 54/140/28 60/141/28
f 60/142/29 61/143/29 59/144/29
f 61/145/30 48/146/30 47/147/30
f 64/151/32 65/152/32 63/153/32
f 66/154/33 67/134/33 65/155/33
f 68/156/34 69/157/34 67/158/34
f 69/159/35 72/160/35 71/131/35
f 71/161/36 74/162/36 73/163/36
f 73/138/37 76/164/37 75/137/37
f 75/168/39 78/169/39 77/170/39
f 78/171/40 63/172/40 77/173/40
f 75/174/41 77/175/41 69/176/41
f 79/164/42 82/177/42 81/178/42
f 81/124/43 84/125/43 83/126/43
f 83/127/44 86/160/44 85/129/44
f 86/130/45 87/131/45 85/132/45
f 88/154/46 89/163/46 87/161/46
f 90/179/47 91/137/47 89/138/47
f 88/180/41 86/181/41 92/182/41
f 92/142/48 93/172/48 91/168/48
f 93/145/49 80/146/49 79/147/49
f 96/151/50 97/178/50 95/184/50
f 98/154/51 99/134/51 97/155/51
f 100/156/52 101/157/52 99/158/52
f 101/132/53 104/160/53 103/131/53
f 103/161/54 106/185/54 105/186/54
f 105/187/55 108/164/55 107/188/55
f 107/168/57 110/169/57 109/170/57
f 110/142/58 95/172/58 109/173/58
f 107/174/59 109/175/59 101/176/59
f 111/189/60 114/190/60 113/191/60
f 114/192/61 115/193/61 113/194/61
f 116/195/62 117/196/62 115/197/62
f 117/198/63 120/199/63 119/200/63
f 120/201/64 121/202/64 119/203/64
f 121/204/65 124/205/65 123/206/65
f 120/207/66 118/208/66 124/209/66
f 123/210/67 126/211/67 125/212/67
f 126/213/68 111/214/68 125/215/68
f 127/219/70 130/220/70 129/221/70
f 130/222/71 131/223/71 129/224/71
f 131/225/72 134/226/72 133/227/72
f 134/228/73 135/229/73 133/230/73
f 135/229/74 138/231/74 137/232/74
f 137/233/75 140/234/75 139/235/75
f 139/239/77 142/211/77 141/240/77
f 141/241/78 128/242/78 127/243/78
f 139/244/79 141/245/79 133/246/79
f 144/247/80 145/248/80 143/249/80
f 146/250/81 147/251/81 145/252/81
f 147/253/82 150/254/82 149/255/82
f 150/256/83 151/257/83 149/258/83
f 152/259/84 153/260/84 151/261/84
f 153/204/85 156/262/85 155/206/85
f 155/263/87 158/211/87 157/240/87
f 157/264/88 144/265/88 143/266/88
f 155/244/89 157/245/89 149/246/89
f 160/267/90 161/191/90 159/268/90
f 162/269/91 163/270/91 161/271/91
f 164/272/92 165/257/92 163/273/92
f 166/274/93 167/275/93 165/276/93
f 168/277/94 169/251/94 167/278/94
f 170/279/95 171/280/95 169/281/95
f 168/282/96 166/283/96 172/284/96
f 171/239/97 174/211/97 173/240/97
f 174/285/98 159/286/98 173/287/98
f 176/289/12 177/290/12 175/291/12
f 178/292/1 179/293/1 177/294/1
f 234/295/6 185/296/6 237/297/6
f 236/298/16 181/299/16 235/300/16
f 182/301/3 175/302/3 181/303/3
f 178/307/6 185/308/6 180/309/6
f 176/310/6 186/311/6 184/312/6
f 176/313/6 183/314/6 178/315/6
f 1/358/7 205/359/7 17/360/7
f 205/81/9 24/361/9 17/83/9
f 3/362/9 203/363/9 1/364/9
f 209/365/4 27/366/4 20/367/4
f 207/368/7 20/369/7 12/370/7
f 9/371/4 207/372/4 12/373/4
f 213/81/5 26/82/5 19/83/5
f 5/374/7 213/375/7 19/376/7
f 6/377/5 211/378/5 5/379/5
f 217/380/8 29/381/8 22/382/8
f 215/383/7 22/384/7 16/385/7
f 13/386/8 215/387/8 16/388/8
f 236/404/6 186/405/6 182/406/6
f 180/407/18 233/408/18 179/409/18
f 177/410/7 179/411/7 233/412/7
f 45/413/110 232/414/110 231/415/110
f 44/113/111 232/416/111 46/417/111
f 43/111/112 231/418/112 229/419/112
f 32/420/113 225/421/113 31/422/113
f 25/423/7 223/424/7 7/425/7
f 24/426/7 223/427/7 249/428/7
f 222/429/114 25/366/114 18/367/114
f 4/430/7 222/431/7 18/432/7
f 2/433/115 220/434/115 4/435/115
f 2/436/6 219/437/6 250/438/6
f 3/439/6 219/440/6 8/36/6
f 12/1/1 11/441/1 10/2/1
f 227/4/2 225/442/2 226/5/2
f 231/7/2 232/443/2 230/8/2
f 16/10/3 15/444/3 14/11/3
f 208/13/4 2/445/4 4/14/4
f 212/16/5 10/446/5 11/17/5
f 208/21/6 9/447/6 10/448/6
f 212/19/6 6/436/6 8/20/6
f 208/21/6 10/448/6 212/19/6
f 8/20/6 2/449/6 208/21/6
f 211/22/7 11/450/7 21/23/7
f 1/25/7 17/451/7 248/26/7
f 216/28/8 6/452/8 5/29/8
f 204/31/9 14/453/9 15/32/9
f 8/36/6 6/439/6 216/34/6
f 216/34/6 13/454/6 14/455/6
f 204/35/6 3/456/6 8/36/6
f 216/34/6 14/455/6 204/35/6
f 245/457/2 246/458/2 244/459/2
f 244/459/2 242/460/2 240/461/2
f 238/37/2 236/462/2 235/463/2
f 244/459/2 240/461/2 243/464/2
f 240/461/2 238/37/2 239/465/2
f 243/464/2 240/461/2 239/465/2
f 243/464/2 245/457/2 244/459/2
f 239/465/2 241/466/2 243/464/2
f 233/38/2 234/467/2 237/39/2
f 237/39/2 239/465/2 238/37/2
f 238/37/2 235/463/2 233/38/2
f 221/40/10 3/452/10 1/29/10
f 15/42/7 16/468/7 22/43/7
f 22/45/3 29/469/3 30/46/3
f 23/48/9 30/470/9 206/49/9
f 12/51/7 20/471/7 21/52/7
f 203/54/7 15/472/7 23/55/7
f 4/57/7 18/473/7 209/58/7
f 248/474/2 249/475/2 223/60/2
f 223/60/2 224/476/2 222/61/2
f 222/61/2 220/477/2 250/478/2
f 219/62/2 221/479/2 248/474/2
f 221/479/2 247/480/2 248/474/2
f 222/61/2 250/478/2 219/62/2
f 248/474/2 223/60/2 219/62/2
f 5/63/7 19/481/7 217/64/7
f 7/68/7 26/482/7 214/66/7
f 214/66/7 28/483/7 27/484/7
f 27/484/7 210/67/7 214/66/7
f 210/67/7 25/485/7 7/68/7
f 206/71/7 30/486/7 29/487/7
f 29/487/7 218/69/7 206/71/7
f 218/69/7 26/488/7 7/70/7
f 206/71/7 7/70/7 24/489/7
f 17/72/10 24/490/10 249/73/10
f 20/75/1 27/491/1 28/76/1
f 18/78/4 25/492/4 210/79/4
f 19/81/8 26/493/8 218/82/8
f 21/84/5 28/494/5 214/85/5
f 227/87/11 228/495/11 34/88/11
f 33/90/12 34/496/12 32/91/12
f 225/93/13 227/497/13 33/94/13
f 226/96/14 32/498/14 34/97/14
f 36/99/15 38/499/15 37/100/15
f 38/102/16 42/500/16 41/103/16
f 42/105/17 40/501/17 39/106/17
f 39/108/18 40/502/18 36/109/18
f 37/111/19 41/503/19 39/112/19
f 38/113/20 36/504/20 40/114/20
f 230/116/21 44/499/21 43/100/21
f 44/118/12 46/505/12 45/119/12
f 47/121/116 48/506/116 50/122/116
f 49/124/117 50/133/117 52/125/117
f 51/127/118 52/507/118 54/128/118
f 54/130/119 56/508/119 55/131/119
f 56/133/120 58/162/120 57/134/120
f 58/136/121 60/164/121 59/137/121
f 52/509/28 50/510/28 48/511/28
f 48/511/28 62/512/28 52/509/28
f 62/512/28 60/141/28 54/140/28
f 52/509/28 62/512/28 54/140/28
f 60/141/28 58/513/28 56/139/28
f 60/142/122 62/514/122 61/143/122
f 61/145/123 62/515/123 48/146/123
f 64/151/47 66/138/47 65/152/47
f 66/154/46 68/162/46 67/134/46
f 68/156/45 70/520/45 69/157/45
f 69/159/44 70/521/44 72/160/44
f 71/161/124 72/154/124 74/162/124
f 73/138/42 74/522/42 76/164/42
f 75/168/49 76/142/49 78/169/49
f 78/171/48 64/514/48 63/172/48
f 77/175/41 63/528/41 69/176/41
f 63/528/41 65/529/41 67/530/41
f 69/176/41 63/528/41 67/530/41
f 69/176/41 71/531/41 75/174/41
f 71/531/41 73/532/41 75/174/41
f 79/164/37 80/533/37 82/177/37
f 81/124/36 82/133/36 84/125/36
f 83/127/35 84/156/35 86/160/35
f 86/130/34 88/508/34 87/131/34
f 88/154/33 90/162/33 89/163/33
f 90/179/32 92/164/32 91/137/32
f 84/534/41 82/510/41 80/511/41
f 80/511/41 94/535/41 84/534/41
f 94/535/41 92/182/41 86/181/41
f 84/534/41 94/535/41 86/181/41
f 92/182/41 90/536/41 88/180/41
f 92/142/40 94/514/40 93/172/40
f 93/145/39 94/515/39 80/146/39
f 96/151/125 98/537/125 97/178/125
f 98/154/126 100/162/126 99/134/126
f 100/156/127 102/520/127 101/157/127
f 101/132/128 102/130/128 104/160/128
f 103/161/129 104/538/129 106/185/129
f 105/187/130 106/179/130 108/164/130
f 107/168/131 108/539/131 110/169/131
f 110/142/132 96/514/132 95/172/132
f 109/175/59 95/528/59 101/176/59
f 95/528/59 97/529/59 99/530/59
f 101/176/59 95/528/59 99/530/59
f 101/176/59 103/531/59 107/174/59
f 103/531/59 105/532/59 107/174/59
f 111/189/60 112/540/60 114/190/60
f 114/192/61 116/541/61 115/193/61
f 116/195/62 118/542/62 117/196/62
f 117/198/63 118/543/63 120/199/63
f 120/201/64 122/544/64 121/202/64
f 121/204/65 122/545/65 124/205/65
f 116/546/66 114/547/66 112/548/66
f 112/548/66 126/549/66 116/546/66
f 126/549/66 124/209/66 118/208/66
f 116/546/66 126/549/66 118/208/66
f 124/209/66 122/550/66 120/207/66
f 123/210/67 124/551/67 126/211/67
f 126/213/68 112/552/68 111/214/68
f 127/219/70 128/557/70 130/220/70
f 130/222/71 132/558/71 131/223/71
f 131/225/72 132/559/72 134/226/72
f 134/228/73 136/560/73 135/229/73
f 135/229/74 136/560/74 138/231/74
f 137/233/75 138/561/75 140/234/75
f 139/239/77 140/551/77 142/211/77
f 141/241/78 142/567/78 128/242/78
f 141/245/79 127/568/79 131/569/79
f 127/568/79 129/570/79 131/569/79
f 131/569/79 133/246/79 141/245/79
f 133/246/79 135/571/79 139/244/79
f 135/571/79 137/572/79 139/244/79
f 144/247/80 146/573/80 145/248/80
f 146/250/81 148/574/81 147/251/81
f 147/253/82 148/575/82 150/254/82
f 150/256/83 152/576/83 151/257/83
f 152/259/84 154/577/84 153/260/84
f 153/204/85 154/545/85 156/262/85
f 155/263/87 156/551/87 158/211/87
f 157/264/88 158/578/88 144/265/88
f 157/245/89 143/568/89 147/569/89
f 143/568/89 145/570/89 147/569/89
f 147/569/89 149/246/89 157/245/89
f 149/246/89 151/571/89 155/244/89
f 151/571/89 153/572/89 155/244/89
f 160/267/90 162/579/90 161/191/90
f 162/269/91 164/580/91 163/270/91
f 164/272/92 166/576/92 165/257/92
f 166/274/93 168/581/93 167/275/93
f 168/277/94 170/574/94 169/251/94
f 170/279/95 172/582/95 171/280/95
f 164/583/96 162/547/96 160/548/96
f 160/548/96 174/549/96 164/583/96
f 174/549/96 172/284/96 166/283/96
f 164/583/96 174/549/96 166/283/96
f 172/284/96 170/584/96 168/282/96
f 171/239/97 172/551/97 174/211/97
f 174/285/98 160/585/98 159/286/98
f 176/289/12 178/586/12 177/290/12
f 178/292/1 180/587/1 179/293/1
f 234/295/6 180/588/6 185/296/6
f 236/298/16 182/589/16 181/299/16
f 182/301/3 176/590/3 175/302/3
f 178/307/6 183/592/6 185/308/6
f 176/310/6 182/593/6 186/311/6
f 176/313/6 184/594/6 183/314/6
f 1/358/7 203/607/7 205/359/7
f 205/81/9 206/608/9 24/361/9
f 3/362/9 204/609/9 203/363/9
f 209/365/4 210/610/4 27/366/4
f 207/368/7 209/611/7 20/369/7
f 9/371/4 208/612/4 207/372/4
f 213/81/5 214/493/5 26/82/5
f 5/374/7 211/613/7 213/375/7
f 6/377/5 212/614/5 211/378/5
f 217/380/8 218/615/8 29/381/8
f 215/383/7 217/616/7 22/384/7
f 13/386/8 216/617/8 215/387/8
f 236/404/6 238/625/6 186/405/6
f 180/407/18 234/626/18 233/408/18
f 181/391/7 175/620/7 235/627/7
f 175/620/7 177/410/7 233/412/7
f 235/627/7 175/620/7 233/412/7
f 45/413/110 46/628/110 232/414/110
f 44/113/111 230/629/111 232/416/111
f 43/111/112 45/503/112 231/418/112
f 32/420/113 226/630/113 225/421/113
f 25/423/7 224/631/7 223/424/7
f 24/426/7 7/632/7 223/427/7
f 222/429/133 224/633/133 25/366/133
f 4/430/7 220/634/7 222/431/7
f 2/433/134 250/635/134 220/434/134
f 2/436/6 8/20/6 219/437/6
f 3/439/6 221/636/6 219/440/6
usemtl volute
f 61/148/31 55/149/31 59/150/31
f 72/165/38 70/166/38 76/167/38
f 91/150/38 93/148/38 85/183/38
f 104/165/56 102/166/56 108/167/56
f 123/216/69 125/217/69 117/218/69
f 136/236/76 134/237/76 140/238/76
f 152/236/86 150/237/86 156/238/86
f 173/217/99 167/288/99 171/216/99
f 61/148/31 47/516/31 51/517/31
f 47/516/31 49/518/31 51/517/31
f 51/517/31 53/183/31 61/148/31
f 53/183/31 55/149/31 61/148/31
f 55/149/31 57/519/31 59/150/31
f 68/523/38 66/524/38 64/525/38
f 64/525/38 78/526/38 68/523/38
f 78/526/38 76/167/38 70/166/38
f 68/523/38 78/526/38 70/166/38
f 76/167/38 74/527/38 72/165/38
f 93/148/38 79/516/38 83/517/38
f 79/516/38 81/518/38 83/517/38
f 83/517/38 85/183/38 93/148/38
f 85/183/38 87/149/38 91/150/38
f 87/149/38 89/519/38 91/150/38
f 100/523/56 98/524/56 96/525/56
f 96/525/56 110/526/56 100/523/56
f 110/526/56 108/167/56 102/166/56
f 100/523/56 110/526/56 102/166/56
f 108/167/56 106/527/56 104/165/56
f 125/217/69 111/553/69 115/554/69
f 111/553/69 113/555/69 115/554/69
f 115/554/69 117/218/69 125/217/69
f 117/218/69 119/288/69 123/216/69
f 119/288/69 121/556/69 123/216/69
f 132/562/76 130/563/76 128/564/76
f 128/564/76 142/565/76 132/562/76
f 142/565/76 140/238/76 134/237/76
f 132/562/76 142/565/76 134/237/76
f 140/238/76 138/566/76 136/236/76
f 148/562/86 146/563/86 144/564/86
f 144/564/86 158/565/86 148/562/86
f 158/565/86 156/238/86 150/237/86
f 148/562/86 158/565/86 150/237/86
f 156/238/86 154/566/86 152/236/86
f 173/217/99 159/553/99 163/554/99
f 159/553/99 161/555/99 163/554/99
f 163/554/99 165/218/99 173/217/99
f 165/218/99 167/288/99 173/217/99
f 167/288/99 169/556/99 171/216/99
usemtl corinthian
f 185/304/1 187/305/1 189/306/1
f 188/316/100 194/317/100 192/318/100
f 185/319/18 239/320/18 237/321/18
f 184/322/12 187/323/12 183/324/12
f 186/325/3 188/326/3 184/327/3
f 187/328/101 193/329/101 189/330/101
f 189/331/102 241/332/102 239/333/102
f 188/334/103 191/335/103 187/336/103
f 198/337/104 200/338/104 196/339/104
f 241/340/6 197/341/6 243/342/6
f 192/343/6 195/344/6 191/345/6
f 194/343/6 196/344/6 192/345/6
f 191/346/6 197/347/6 193/348/6
f 197/349/105 199/350/105 201/351/105
f 197/352/106 245/353/106 243/354/106
f 196/355/107 199/356/107 195/357/107
f 246/389/6 245/390/6 200/391/6
f 198/392/108 246/393/108 202/394/108
f 242/395/6 198/396/6 194/397/6
f 190/398/109 242/399/109 194/400/109
f 238/401/16 190/402/16 186/403/16
f 185/304/1 183/591/1 187/305/1
f 188/316/100 190/595/100 194/317/100
f 185/319/18 189/596/18 239/320/18
f 184/322/12 188/597/12 187/323/12
f 186/325/3 190/598/3 188/326/3
f 187/328/101 191/599/101 193/329/101
f 189/331/102 193/600/102 241/332/102
f 188/334/103 192/601/103 191/335/103
f 198/337/104 202/602/104 200/338/104
f 241/340/6 193/346/6 197/341/6
f 192/343/6 196/603/6 195/344/6
f 194/343/6 198/603/6 196/344/6
f 191/346/6 195/341/6 197/347/6
f 197/349/105 195/604/105 199/350/105
f 197/352/106 201/605/106 245/353/106
f 196/355/107 200/606/107 199/356/107
f 201/618/6 199/619/6 245/390/6
f 199/619/6 200/391/6 245/390/6
f 200/391/6 202/620/6 246/389/6
f 198/392/108 244/621/108 246/393/108
f 242/395/6 244/622/6 198/396/6
f 190/398/109 240/623/109 242/399/109
f 238/401/16 240/624/16 190/402/16
