# Blender 5.1.2
# www.blender.org
mtllib medium_tuscan_half_base.mtl
o Cube.293
v 0.215226 0.275001 0.312495
v 0.215226 0.453751 0.312495
v 0.784774 0.275001 0.312495
v 0.784774 0.453751 0.312495
v 1.187505 0.275001 0.715226
v 1.187505 0.453751 0.715226
v -0.187505 0.275001 0.715226
v -0.187505 0.453751 0.715226
v 1.187500 0.275001 0.312500
v 1.187500 0.000001 0.312500
v -0.187500 0.275001 0.312500
v -0.187500 0.000001 0.312500
v 0.784774 0.453751 0.715226
v 0.215226 0.453751 0.715226
v -0.187500 0.000001 1.000000
v 1.187500 0.000001 1.000000
v 0.500000 0.000001 0.312500
v 0.500000 0.000001 1.000000
v 1.187505 0.275001 1.000000
v 1.187505 0.453751 1.000000
v -0.187505 0.275001 1.000000
v -0.187505 0.453751 1.000000
v 0.784774 0.453751 1.000000
v 0.215226 0.453751 1.000000
vn -0.0000 -0.0000 -1.0000
vn 0.7071 -0.0000 -0.7071
vn -0.0000 -0.0000 1.0000
vn -0.0000 1.0000 -0.0000
vn -1.0000 -0.0000 -0.0000
vn -0.7071 -0.0000 -0.7071
vn -0.0000 -1.0000 -0.0000
vn 1.0000 -0.0000 -0.0000
vt 0.859523 0.456417
vt 0.710387 0.918583
vt 0.710387 0.456417
vt 0.172023 0.518917
vt 0.022887 0.981083
vt 0.022887 0.518917
vt 0.330018 0.500000
vt 0.330017 0.999939
vt 0.000057 0.707083
vt 1.000000 0.375000
vt 0.625000 0.375000
vt 0.625000 -0.000000
vt 0.672023 0.312500
vt 0.522887 0.543583
vt 0.522887 0.312500
vt 0.984523 0.518917
vt 0.835387 0.981083
vt 0.835387 0.518917
vt 0.375000 1.000000
vt -0.000000 1.000000
vt -0.000000 0.625000
vt 0.289726 0.247881
vt -0.003276 0.035324
vt 0.496913 0.035324
vt 0.289726 0.810381
vt -0.003276 0.597824
vt 0.496913 0.597824
vt 1.000000 0.625000
vt 1.000000 1.000000
vt 0.625000 1.000000
vt 0.000100 0.999900
vt 0.500000 0.500000
vt 0.500000 0.999900
vt 0.500000 0.625000
vt 0.750000 1.000000
vt 0.500000 1.000000
vt 0.625000 0.625000
vt 0.625000 0.750000
vt 1.000000 0.250000
vt 1.000000 0.750000
vt 0.999900 0.500000
vt 0.999900 0.999900
vt 0.500000 0.750000
vt 0.750000 0.250000
vt 0.750000 0.750000
vt 0.250000 0.375000
vt 0.500000 0.000000
vt 0.500000 0.375000
vt 0.484523 0.018917
vt 0.335387 0.250000
vt 0.335387 0.018917
vt 0.997103 0.097824
vt 0.704100 0.310382
vt 0.496913 0.097824
vt 0.859523 0.918583
vt 0.172023 0.981083
vt 0.000057 0.999943
vt 0.130042 0.999943
vt 0.000057 0.292917
vt 0.000058 0.000057
vt 0.130042 0.000057
vt 0.330018 0.000061
vt 0.672023 0.543583
vt 0.984523 0.981083
vt 0.496913 0.247881
vt -0.003276 0.247881
vt 0.997103 0.810381
vt 0.704100 0.810382
vt 0.997103 0.597824
vt -0.003276 0.810381
vt 0.000100 0.500000
vt 0.750000 0.625000
vt 0.625000 0.250000
vt 0.500000 0.250000
vt 0.250000 0.000000
vt 0.484523 0.250000
vt 0.997103 0.310381
vt 0.496913 0.310381
s 0
usemtl ionic_base_small
f 2/1/1 3/2/1 1/3/1
f 4/4/2 5/5/2 3/6/2
f 18/7/3 16/8/3 23/9/3
f 4/10/4 13/11/4 6/12/4
f 22/13/5 7/14/5 21/15/5
f 8/16/6 1/17/6 7/18/6
f 5/19/4 9/20/4 3/21/4
f 7/22/5 12/23/5 15/24/5
f 3/25/1 10/26/1 17/27/1
f 1/28/4 11/29/4 7/30/4
f 10/31/7 18/32/7 17/33/7
f 24/34/4 8/35/4 22/36/4
f 8/30/4 14/37/4 2/28/4
f 14/38/4 4/39/4 2/40/4
f 17/33/7 15/41/7 12/42/7
f 24/43/4 13/44/4 14/45/4
f 6/46/4 23/47/4 20/48/4
f 6/49/8 19/50/8 5/51/8
f 10/52/8 5/53/8 16/54/8
f 2/1/1 4/55/1 3/2/1
f 4/4/2 6/56/2 5/5/2
f 20/57/3 23/9/3 19/58/3
f 23/9/3 24/59/3 18/7/3
f 19/58/3 23/9/3 16/8/3
f 24/59/3 22/60/3 21/61/3
f 21/61/3 15/62/3 24/59/3
f 15/62/3 18/7/3 24/59/3
f 22/13/5 8/63/5 7/14/5
f 8/16/6 2/64/6 1/17/6
f 15/24/5 21/65/5 7/22/5
f 7/22/5 11/66/5 12/23/5
f 11/67/1 1/68/1 12/69/1
f 1/68/1 3/25/1 17/27/1
f 3/25/1 9/70/1 10/26/1
f 17/27/1 12/69/1 1/68/1
f 10/31/7 16/71/7 18/32/7
f 24/34/4 14/72/4 8/35/4
f 14/38/4 13/73/4 4/39/4
f 17/33/7 18/32/7 15/41/7
f 24/43/4 23/74/4 13/44/4
f 6/46/4 13/75/4 23/47/4
f 6/49/8 20/76/8 19/50/8
f 9/77/8 5/53/8 10/52/8
f 5/53/8 19/78/8 16/54/8
