# Blender 5.1.2
# www.blender.org
mtllib medium_roman_corinthian_half_base.mtl
o Cube.288
v 1.187500 0.137500 0.312498
v 1.187500 0.000000 0.312498
v -0.187500 0.137500 0.312498
v -0.187500 0.000000 0.312498
v 0.272183 0.275000 0.449998
v 0.272183 0.412500 0.449998
v 0.727817 0.275000 0.449998
v 0.727817 0.412500 0.449998
v 1.050000 0.275000 0.772181
v 1.050000 0.412500 0.772181
v -0.050000 0.275000 0.772181
v -0.050000 0.412500 0.772181
v 0.243705 0.412499 0.381248
v 0.243705 0.549999 0.381248
v 0.756295 0.412499 0.381248
v 0.756295 0.549999 0.381248
v 1.118750 0.412499 0.743703
v 1.118750 0.549999 0.743703
v -0.118750 0.412499 0.743703
v -0.118750 0.549999 0.743703
v 0.215226 0.137500 0.312493
v 0.215226 0.275000 0.312493
v 0.784774 0.137500 0.312493
v 0.784774 0.275000 0.312493
v 1.187505 0.137500 0.715224
v 1.187505 0.275000 0.715224
v -0.187505 0.137500 0.715224
v -0.187505 0.275000 0.715224
v 0.243705 0.549999 0.743703
v 0.756295 0.549999 0.743704
v 0.500000 0.000000 0.312498
v 0.500000 0.137500 0.312498
v -0.187500 0.000000 0.999998
v 1.187500 0.137500 0.999998
v -0.187500 0.137500 0.999998
v 1.187500 0.000000 0.999998
v 0.500000 0.000000 0.999998
v 0.500000 0.137500 0.999998
v 1.050000 0.275000 1.000000
v 1.050000 0.412500 1.000000
v -0.050000 0.275000 1.000000
v -0.050000 0.412500 1.000000
v 1.118750 0.412499 1.000000
v 1.118750 0.549999 1.000000
v -0.118750 0.412499 1.000000
v -0.118750 0.549999 1.000000
v 1.187505 0.137500 1.000000
v 1.187505 0.275000 1.000000
v -0.187505 0.137500 1.000000
v -0.187505 0.275000 1.000000
v 0.756295 0.549999 1.000000
v 0.243705 0.549999 1.000000
vn -1.0000 -0.0000 -0.0000
vn -0.0000 -0.0000 1.0000
vn -0.0000 -0.0000 -1.0000
vn 0.7071 -0.0000 -0.7071
vn -0.7071 -0.0000 -0.7071
vn -0.0000 1.0000 -0.0000
vn -0.0000 -1.0000 -0.0000
vn 1.0000 -0.0000 -0.0000
vt 0.375000 0.187500
vt 1.000000 0.312500
vt 0.375000 0.312500
vt 0.875032 0.999968
vt 0.975025 0.000032
vt 0.975025 0.999968
vt 0.375000 0.687500
vt 1.000000 0.812500
vt 0.375000 0.812500
vt 0.187500 0.437500
vt 0.625000 0.562500
vt 0.187500 0.562500
vt 0.062500 0.250000
vt 0.500000 0.375000
vt 0.062500 0.375000
vt 0.375035 0.000035
vt 0.500027 0.999965
vt 0.375035 0.999965
vt 0.000033 0.999967
vt 0.111137 0.000033
vt 0.111137 0.999967
vt 0.218748 0.125000
vt 0.437500 0.250000
vt 0.218748 0.250000
vt 0.187500 0.625000
vt 0.625000 0.750000
vt 0.187500 0.750000
vt 0.937500 0.937500
vt 0.375000 0.937500
vt 0.062500 0.562500
vt 0.562500 0.687500
vt 0.062500 0.687500
vt 0.375000 0.000000
vt 0.375000 0.375000
vt 0.000000 0.375000
vt 0.749998 0.437500
vt 1.000000 0.562500
vt 0.749998 0.562500
vt 0.000000 0.437500
vt 0.500000 0.562500
vt 0.000000 0.562500
vt 0.937500 0.187500
vt 0.375000 0.062500
vt 0.937500 0.062500
vt 0.062500 0.437500
vt 0.625000 0.437500
vt 0.656252 0.875000
vt 0.375000 0.750000
vt 0.656252 0.750000
vt 0.625000 0.500000
vt 0.062500 0.375000
vt 0.625000 0.375000
vt 0.625000 0.500002
vt 1.000000 0.250000
vt 1.000000 0.500002
vt 1.000000 0.375000
vt 0.625000 0.375000
vt 0.625000 0.000000
vt 0.750000 0.375000
vt 0.250000 0.000000
vt 0.750000 0.000000
vt 0.000000 0.687500
vt 0.625000 0.812500
vt 0.000000 0.812500
vt 0.687500 0.000000
vt 0.687500 0.687500
vt 0.500000 0.999900
vt 0.999900 0.500000
vt 0.999900 0.999900
vt 0.000000 0.250000
vt 0.000100 0.999900
vt 0.500000 0.500000
vt 0.687532 0.000032
vt 0.787525 0.999968
vt 0.687532 0.999968
vt 0.312500 0.687500
vt 1.000000 0.000000
vt 1.000000 0.687500
vt 0.750000 0.500002
vt 0.250000 0.250000
vt 0.750000 0.250000
vt 0.499999 0.999994
vt 0.499999 0.000006
vt 0.999994 0.707104
vt 0.562500 1.000000
vt 0.281248 0.875000
vt 0.562500 0.875000
vt 0.499999 0.999900
vt 0.499999 0.000100
vt 0.999900 0.707065
vt 0.375000 0.250000
vt 0.000000 0.500002
vt 0.500000 0.250000
vt 0.750002 0.375000
vt 0.499998 0.999900
vt 0.499998 0.000100
vt 0.499998 0.999900
vt 0.499998 0.000100
vt 0.999900 0.707065
vt 0.500000 0.687500
vt 0.718752 0.812500
vt 0.500000 0.812500
vt 0.499998 0.999900
vt 0.499998 0.000100
vt 1.000000 0.187500
vt 0.875032 0.000032
vt 0.625000 0.437500
vt 0.500026 0.000035
vt 0.000033 0.000033
vt 0.437500 0.125000
vt 0.625000 0.625000
vt 0.937500 0.812500
vt 0.562500 0.562500
vt 1.000000 0.437500
vt 0.500000 0.437500
vt 0.375000 0.187500
vt 0.062500 0.562500
vt 0.375000 0.875000
vt 0.062500 0.500000
vt 0.625000 0.250000
vt 0.250000 0.375000
vt 0.625000 0.687500
vt 0.000000 0.000000
vt 0.000100 0.500000
vt 0.787525 0.000032
vt 0.312500 0.000000
vt 0.250000 0.500002
vt 0.707104 0.000006
vt 0.999994 0.292896
vt 0.707104 0.999994
vt 0.281248 1.000000
vt 0.707065 0.000100
vt 0.999900 0.292935
vt 0.707065 0.999900
vt 0.375000 0.500002
vt 0.750002 0.250000
vt 0.707065 0.000100
vt 0.999900 0.292934
vt 0.707065 0.999900
vt 0.718752 0.687500
s 0
usemtl ionic_base
f 35/1/1 4/2/1 33/3/1
f 33/4/2 34/5/2 35/6/2
f 32/7/3 2/8/3 31/9/3
f 6/10/3 7/11/3 5/12/3
f 8/13/4 9/14/4 7/15/4
f 39/16/2 42/17/2 41/18/2
f 45/19/2 44/20/2 46/21/2
f 42/22/1 11/23/1 41/24/1
f 12/25/5 5/26/5 11/27/5
f 14/9/3 15/28/3 13/29/3
f 16/30/4 17/31/4 15/32/4
f 16/33/6 30/34/6 18/35/6
f 46/36/1 19/37/1 45/38/1
f 20/39/5 13/40/5 19/41/5
f 22/42/3 23/43/3 21/44/3
f 24/11/4 25/45/4 23/46/4
f 50/47/1 27/48/1 49/49/1
f 28/50/5 21/51/5 27/52/5
f 52/53/6 20/54/6 46/55/6
f 20/56/6 29/57/6 14/58/6
f 29/59/6 16/60/6 14/61/6
f 3/62/3 31/63/3 4/64/3
f 32/62/6 34/65/6 1/66/6
f 31/67/7 33/68/7 4/69/7
f 1/70/8 36/57/8 2/35/8
f 2/71/7 37/72/7 31/67/7
f 47/73/2 50/74/2 49/75/2
f 3/76/6 38/77/6 32/78/6
f 52/79/6 30/80/6 29/81/6
f 50/82/6 48/83/6 22/84/6
f 26/85/8 47/86/8 25/87/8
f 47/88/7 49/89/7 23/90/7
f 30/91/6 44/92/6 18/70/6
f 18/93/8 43/94/8 17/14/8
f 43/95/7 45/96/7 15/90/7
f 42/97/6 40/98/6 6/99/6
f 10/100/8 39/101/8 9/102/8
f 39/103/7 41/104/7 7/90/7
f 35/1/1 3/105/1 4/2/1
f 33/4/2 36/106/2 34/5/2
f 32/7/3 1/78/3 2/8/3
f 6/10/3 8/107/3 7/11/3
f 8/13/4 10/93/4 9/14/4
f 39/16/2 40/108/2 42/17/2
f 45/19/2 43/109/2 44/20/2
f 42/22/1 12/110/1 11/23/1
f 12/25/5 6/111/5 5/26/5
f 14/9/3 16/112/3 15/28/3
f 16/30/4 18/113/4 17/31/4
f 46/36/1 20/114/1 19/37/1
f 20/39/5 14/115/5 13/40/5
f 22/42/3 24/116/3 23/43/3
f 24/11/4 26/117/4 25/45/4
f 50/47/1 28/118/1 27/48/1
f 28/50/5 22/119/5 21/51/5
f 52/53/6 29/120/6 20/54/6
f 29/59/6 30/121/6 16/60/6
f 3/62/3 32/122/3 31/63/3
f 32/62/6 38/123/6 34/65/6
f 31/67/7 37/72/7 33/68/7
f 1/70/8 34/120/8 36/57/8
f 2/71/7 36/124/7 37/72/7
f 47/73/2 48/125/2 50/74/2
f 3/76/6 35/126/6 38/77/6
f 52/79/6 51/127/6 30/80/6
f 26/128/6 24/129/6 48/83/6
f 24/129/6 22/84/6 48/83/6
f 22/84/6 28/130/6 50/82/6
f 26/85/8 48/131/8 47/86/8
f 27/132/7 21/133/7 49/89/7
f 21/133/7 23/90/7 49/89/7
f 23/90/7 25/134/7 47/88/7
f 30/91/6 51/135/6 44/92/6
f 18/93/8 44/136/8 43/94/8
f 19/132/7 13/133/7 45/96/7
f 13/133/7 15/90/7 45/96/7
f 15/90/7 17/134/7 43/95/7
f 10/137/6 8/138/6 40/98/6
f 8/138/6 6/99/6 40/98/6
f 6/99/6 12/139/6 42/97/6
f 10/100/8 40/140/8 39/101/8
f 11/132/7 5/133/7 41/104/7
f 5/133/7 7/90/7 41/104/7
f 7/90/7 9/134/7 39/103/7
