# Blender 5.1.1
# www.blender.org
mtllib medium_ionic_base.mtl
o ionic_base_medium
v 0.243705 0.412516 -0.118750
v 0.243705 0.550016 -0.118750
v 0.756295 0.412516 -0.118750
v 0.756295 0.550016 -0.118750
v 1.118750 0.550016 0.243705
v 1.118750 0.412516 0.756295
v 1.118750 0.550016 0.756295
v 0.756295 0.550016 1.118750
v 0.243705 0.412516 1.118750
v 0.243705 0.550016 1.118750
v -0.118750 0.412516 0.756295
v -0.118750 0.550016 0.756295
v -0.118750 0.550016 0.243705
v 0.215226 0.000016 -0.187505
v 0.215226 0.137516 -0.187505
v 0.784774 0.000016 -0.187505
v 0.784774 0.137516 -0.187505
v 1.187505 0.000016 0.215226
v 1.187505 0.137516 0.215226
v 1.187505 0.000016 0.784774
v 1.187505 0.137516 0.784774
v 0.784774 0.000016 1.187505
v 0.784774 0.137516 1.187505
v 0.215226 0.000016 1.187505
v 0.215226 0.137516 1.187505
v -0.187505 0.000016 0.784774
v -0.187505 0.137516 0.784774
v -0.187505 0.000016 0.215226
v -0.187505 0.137516 0.215226
v 0.243705 0.275016 -0.118750
v 0.756295 0.275016 -0.118750
v 1.118750 0.275016 0.243705
v 1.118750 0.412516 0.243705
v 1.118750 0.275016 0.756295
v 0.756295 0.275016 1.118750
v 0.756295 0.412516 1.118750
v 0.243705 0.275016 1.118750
v -0.118750 0.275016 0.756295
v -0.118750 0.275016 0.243705
v -0.118750 0.412516 0.243705
v 0.272183 0.137516 -0.050000
v 0.272183 0.275015 -0.050000
v 0.727817 0.137516 -0.050000
v 0.727817 0.275015 -0.050000
v 1.050000 0.137516 0.272183
v 1.050000 0.275015 0.272183
v 1.050000 0.137516 0.727817
v 1.050000 0.275015 0.727817
v 0.727817 0.137516 1.050000
v 0.727817 0.275015 1.050000
v 0.272183 0.137516 1.050000
v 0.272183 0.275015 1.050000
v -0.050000 0.137516 0.727817
v -0.050000 0.275015 0.727817
v -0.050000 0.137516 0.272183
v -0.050000 0.275015 0.272183
v 0.756295 0.550016 0.756295
v 0.243706 0.550016 0.243705
v 0.756295 0.550016 0.243705
v 0.243706 0.550016 0.756295
v 0.784774 0.137516 0.215226
v 0.215226 0.137516 0.215226
v 0.784774 0.137516 0.784774
v 0.215226 0.137516 0.784774
vn -0.0000 -0.0000 -1.0000
vn 0.7071 -0.0000 -0.7071
vn 1.0000 -0.0000 -0.0000
vn 0.7071 -0.0000 0.7071
vn -0.0000 -0.0000 1.0000
vn -0.7071 -0.0000 0.7071
vn -0.0000 1.0000 -0.0000
vn -1.0000 -0.0000 -0.0000
vn -0.7071 -0.0000 -0.7071
vn -0.0000 -1.0000 -0.0000
vt 0.000000 0.750000
vt 0.500000 0.875000
vt 0.000000 0.875000
vt 0.250000 0.625000
vt 0.750000 0.750000
vt 0.250000 0.750000
vt 0.000000 0.500000
vt 0.500000 0.625000
vt 0.000000 0.625000
vt 0.125000 0.375000
vt 0.625000 0.500000
vt 0.125000 0.500000
vt 0.000000 0.000000
vt 0.500000 0.125000
vt 0.000000 0.125000
vt 0.062500 0.562500
vt 0.062500 0.187500
vt 0.437500 0.187500
vt 0.250000 0.375000
vt 0.750000 0.500000
vt 0.250000 0.500000
vt 0.000000 0.250000
vt 0.500000 0.375000
vt 0.000000 0.375000
vt 0.062500 0.875000
vt 0.625000 1.000000
vt 0.062500 1.000000
vt 0.062500 0.000000
vt 0.625000 0.125000
vt 0.062500 0.125000
vt 0.062500 0.250000
vt 0.625000 0.375000
vt 0.062500 0.375000
vt 0.437500 0.625000
vt 1.000000 0.750000
vt 0.437500 0.750000
vt 0.312500 0.750000
vt 0.875000 0.875000
vt 0.312500 0.875000
vt 0.312500 0.125000
vt 0.875000 0.250000
vt 0.312500 0.250000
vt 0.062500 0.500000
vt 0.625000 0.625000
vt 0.062500 0.625000
vt 0.125000 0.125000
vt 0.625000 0.250000
vt 0.125000 0.250000
vt 0.500000 0.250000
vt 1.000000 0.375000
vt 0.375000 0.125000
vt 0.375000 0.250000
vt 1.000000 0.500000
vt 0.500000 0.500000
vt 0.250000 0.875000
vt 0.750000 1.000000
vt 0.250000 1.000000
vt 1.000000 0.625000
vt 0.500000 0.750000
vt 1.000000 0.875000
vt 0.292935 0.000100
vt 0.707065 0.000100
vt 0.292935 0.999900
vt 0.500000 0.000000
vt 0.750000 0.625000
vt 0.312500 0.500000
vt 0.562500 0.250000
vt 1.000000 0.250000
vt 0.875000 0.750000
vt 0.875000 0.125000
vt 0.437500 0.000000
vt 0.875000 0.000000
vt 0.312500 0.625000
vt 0.000100 0.292935
vt 0.000100 0.292935
vt 0.292935 0.000100
vt 0.707065 0.000100
vt 1.000000 0.000000
vt 0.062500 0.937500
vt 0.437500 0.562500
vt 1.000000 1.000000
vt 0.437500 0.437500
vt 0.437500 0.062500
vt 0.812500 0.062500
vt 0.562500 0.937500
vt 0.562500 0.562500
vt 0.937500 0.562500
vt 0.750000 0.250000
vt 0.500000 0.562500
vt 1.000000 0.937500
vt 0.437500 0.500000
vt 0.437500 0.937500
vt 0.187500 0.375000
vt 0.625000 0.812500
vt 0.187500 0.812500
vt 0.625000 0.937500
vt 0.625000 0.187500
vt 0.187500 0.625000
vt 0.312500 0.937500
vt 0.750000 0.937500
vt 0.062500 0.437500
vt 0.625000 -0.000000
vt 0.625000 0.437500
vt 0.750000 0.375000
vt 0.625000 0.875000
vt 0.625000 0.000000
vt 0.750000 0.875000
vt 0.999900 0.292935
vt 0.999900 0.707065
vt 0.707065 0.999900
vt 0.000100 0.707065
vt 0.562500 0.375000
vt 0.437500 0.875000
vt 0.437500 0.125000
vt 0.999900 0.292935
vt 0.292935 0.999900
vt 0.999900 0.707065
vt 0.707065 0.999900
vt 0.000100 0.707065
vt 0.500000 1.000000
vt 0.250000 0.250000
s 0
usemtl ionic_base_medium
f 2/1/1 3/2/1 1/3/1
f 4/1/2 33/2/2 3/3/2
f 5/4/3 6/5/3 33/6/3
f 7/7/4 36/8/4 6/9/4
f 8/10/5 9/11/5 36/12/5
f 10/13/6 11/14/6 9/15/6
f 4/16/7 59/17/7 5/18/7
f 12/19/8 40/20/8 11/21/8
f 13/22/9 1/23/9 40/24/9
f 15/25/1 16/26/1 14/27/1
f 17/28/2 18/29/2 16/30/2
f 19/31/3 20/32/3 18/33/3
f 21/34/4 22/35/4 20/36/4
f 23/37/5 24/38/5 22/39/5
f 25/40/6 26/41/6 24/42/6
f 27/43/8 28/44/8 26/45/8
f 29/34/9 14/35/9 28/36/9
f 1/46/1 31/47/1 30/48/1
f 3/49/2 32/50/2 31/23/2
f 33/49/3 34/50/3 32/23/3
f 6/51/4 35/41/4 34/52/4
f 36/23/5 37/53/5 35/54/5
f 9/55/6 38/56/6 37/57/6
f 11/54/8 39/58/8 38/8/8
f 40/59/9 30/60/9 39/2/9
f 38/61/10 39/62/10 34/63/10
f 42/14/1 43/28/1 41/64/1
f 44/65/2 45/66/2 43/20/2
f 46/50/3 47/67/3 45/68/3
f 48/49/4 49/30/4 47/14/4
f 50/38/5 51/36/5 49/69/5
f 52/70/6 53/71/6 51/72/6
f 54/8/8 55/43/8 53/54/8
f 56/5/9 41/73/9 55/65/9
f 47/63/10 51/74/10 55/62/10
f 24/75/10 26/76/10 28/77/10
f 59/50/7 7/64/7 5/78/7
f 7/79/7 57/16/7 8/80/7
f 57/81/7 10/8/7 8/58/7
f 10/82/7 60/83/7 12/84/7
f 60/60/7 13/54/7 12/53/7
f 13/85/7 58/86/7 2/87/7
f 58/54/7 4/15/7 2/14/7
f 60/6/7 59/88/7 58/5/7
f 17/30/7 61/16/7 19/89/7
f 21/90/7 61/91/7 63/92/7
f 23/93/7 21/94/7 63/95/7
f 23/96/7 64/43/7 25/79/7
f 27/97/7 25/98/7 64/44/7
f 64/91/7 29/90/7 27/92/7
f 29/66/7 62/99/7 15/100/7
f 15/101/7 61/102/7 17/103/7
f 2/1/1 4/59/1 3/2/1
f 4/1/2 5/59/2 33/2/2
f 5/4/3 7/65/3 6/5/3
f 7/7/4 8/54/4 36/8/4
f 8/10/5 10/32/5 9/11/5
f 10/13/6 12/64/6 11/14/6
f 12/19/8 13/104/8 40/20/8
f 13/22/9 2/49/9 1/23/9
f 15/25/1 17/105/1 16/26/1
f 17/28/2 19/106/2 18/29/2
f 19/31/3 21/47/3 20/32/3
f 21/34/4 23/58/4 22/35/4
f 23/37/5 25/69/5 24/38/5
f 25/40/6 27/70/6 26/41/6
f 27/43/8 29/11/8 28/44/8
f 29/34/9 15/58/9 14/35/9
f 1/46/1 3/29/1 31/47/1
f 3/49/2 33/68/2 32/50/2
f 33/49/3 6/68/3 34/50/3
f 6/51/4 36/70/4 35/41/4
f 36/23/5 9/50/5 37/53/5
f 9/55/6 11/107/6 38/56/6
f 11/54/8 40/53/8 39/58/8
f 40/59/9 1/35/9 30/60/9
f 39/62/10 30/108/10 31/109/10
f 31/109/10 32/110/10 39/62/10
f 32/110/10 34/63/10 39/62/10
f 34/63/10 35/111/10 37/74/10
f 37/74/10 38/61/10 34/63/10
f 42/14/1 44/30/1 43/28/1
f 44/65/2 46/73/2 45/66/2
f 46/50/3 48/112/3 47/67/3
f 48/49/4 50/31/4 49/30/4
f 50/38/5 52/113/5 51/36/5
f 52/70/6 54/114/6 53/71/6
f 54/8/8 56/45/8 55/43/8
f 56/5/9 42/37/9 41/73/9
f 55/62/10 41/108/10 43/109/10
f 43/109/10 45/110/10 47/63/10
f 47/63/10 49/111/10 51/74/10
f 51/74/10 53/61/10 55/62/10
f 55/62/10 43/109/10 47/63/10
f 28/77/10 14/115/10 20/116/10
f 14/115/10 16/117/10 20/116/10
f 16/117/10 18/118/10 20/116/10
f 20/116/10 22/119/10 28/77/10
f 22/119/10 24/75/10 28/77/10
f 59/50/7 57/23/7 7/64/7
f 57/81/7 60/120/7 10/8/7
f 60/60/7 58/2/7 13/54/7
f 58/54/7 59/7/7 4/15/7
f 60/6/7 57/121/7 59/88/7
f 21/90/7 19/53/7 61/91/7
f 23/96/7 63/11/7 64/43/7
f 64/91/7 62/53/7 29/90/7
f 15/101/7 62/28/7 61/102/7
