# Blender 5.1.0
# www.blender.org
mtllib medium_column.mtl
o column_medium
v 0.292892 0.000000 -0.000004
v 0.292892 1.000000 -0.000004
v 0.707108 0.000000 -0.000004
v 0.707108 1.000000 -0.000004
v 1.000004 0.000000 0.292892
v 1.000004 1.000000 0.292892
v 1.000004 0.000000 0.707108
v 1.000004 1.000000 0.707108
v 0.707108 0.000000 1.000004
v 0.707108 1.000000 1.000004
v 0.292892 0.000000 1.000004
v 0.292892 1.000000 1.000004
v -0.000004 0.000000 0.707108
v -0.000004 1.000000 0.707108
v -0.000004 0.000000 0.292892
v -0.000004 1.000000 0.292892
vn -0.0000 -0.0000 -1.0000
vn 0.7071 -0.0000 -0.7071
vn 1.0000 -0.0000 -0.0000
vn 0.7071 -0.0000 0.7071
vn -0.0000 -0.0000 1.0000
vn -0.7071 -0.0000 0.7071
vn -0.0000 1.0000 -0.0000
vn -1.0000 -0.0000 -0.0000
vn -0.7071 -0.0000 -0.7071
vn -0.0000 -1.0000 -0.0000
vt 0.375000 -0.000000
vt 0.375000 1.000000
vt -0.000000 1.000000
vt 0.000000 -0.000000
vt 0.750000 -0.000000
vt 0.750000 1.000000
vt 0.375000 1.000000
vt 0.375000 -0.000000
vt 0.375000 0.000000
vt 0.375000 1.000000
vt 0.000000 1.000000
vt 0.000000 0.000000
vt 0.688065 0.954028
vt 0.954028 0.311935
vt 0.311935 0.045972
vt 0.311935 0.954028
vt 0.045972 0.311935
vt 0.688065 0.045972
vt 0.045972 0.311935
vt 0.045972 0.688065
vt 0.311935 0.954028
vt 0.954028 0.688065
vt 0.688065 0.045972
vt 0.954028 0.311935
vt 0.954028 0.688065
vt 0.688065 0.954028
vt 0.045972 0.688065
vt 0.311935 0.045972
s 0
usemtl column_mat_top
f 14/13/7 10/14/7 6/15/7
f 7/16/10 11/17/10 15/18/10
f 6/15/7 4/19/7 2/20/7
f 2/20/7 16/21/7 14/13/7
f 14/13/7 12/22/7 10/14/7
f 10/14/7 8/23/7 6/15/7
f 6/15/7 2/20/7 14/13/7
f 15/18/10 1/24/10 3/25/10
f 3/25/10 5/26/10 7/16/10
f 7/16/10 9/27/10 11/17/10
f 11/17/10 13/28/10 15/18/10
f 15/18/10 3/25/10 7/16/10
usemtl column_mat_side
f 1/1/1 2/2/1 4/3/1 3/4/1
f 3/5/2 4/6/2 6/7/2 5/8/2
f 5/9/3 6/10/3 8/11/3 7/12/3
f 7/5/4 8/6/4 10/7/4 9/8/4
f 9/9/5 10/10/5 12/11/5 11/12/5
f 11/5/6 12/6/6 14/7/6 13/8/6
f 13/1/8 14/2/8 16/3/8 15/4/8
f 15/5/9 16/6/9 2/7/9 1/8/9
