# Blender 5.1.2
# www.blender.org
mtllib medium_tuscan_base.mtl
o Cube.293
v 0.215226 0.275001 -0.187505
v 0.215226 0.453751 -0.187505
v 0.784774 0.275001 -0.187505
v 0.784774 0.453751 -0.187505
v 1.187505 0.275001 0.215226
v 1.187505 0.453751 0.215226
v 1.187505 0.275001 0.784774
v 1.187505 0.453751 0.784774
v 0.784774 0.275001 1.187505
v 0.784774 0.453751 1.187505
v 0.215226 0.275001 1.187505
v 0.215226 0.453751 1.187505
v -0.187505 0.275001 0.784774
v -0.187505 0.453751 0.784774
v -0.187505 0.275001 0.215226
v -0.187505 0.453751 0.215226
v 1.187500 0.275001 -0.187500
v 1.187500 0.000001 -0.187500
v 1.187500 0.275001 1.187500
v 1.187500 0.000001 1.187500
v -0.187500 0.275001 -0.187500
v -0.187500 0.000001 -0.187500
v -0.187500 0.275001 1.187500
v -0.187500 0.000001 1.187500
v 0.215226 0.453751 0.784774
v 0.784774 0.453751 0.215226
v 0.784774 0.453751 0.784774
v 0.215226 0.453751 0.215226
v -0.187500 0.000001 0.500000
v 1.187500 0.000001 0.500000
v 0.500000 0.000001 -0.187500
v 0.500000 0.000001 1.187500
v 0.500000 0.000001 0.500000
vn -0.0000 -0.0000 -1.0000
vn 0.7071 -0.0000 -0.7071
vn 1.0000 -0.0000 -0.0000
vn 0.7071 -0.0000 0.7071
vn -0.0000 -0.0000 1.0000
vn -0.7071 -0.0000 0.7071
vn -0.0000 1.0000 -0.0000
vn -1.0000 -0.0000 -0.0000
vn -0.7071 -0.0000 -0.7071
vn -0.0000 -1.0000 -0.0000
vt 0.859523 0.456417
vt 0.710387 0.918583
vt 0.710387 0.456417
vt 0.172023 0.518917
vt 0.022887 0.981083
vt 0.022887 0.518917
vt 0.484523 0.018917
vt 0.335387 0.481083
vt 0.335387 0.018917
vt 0.984523 0.018917
vt 0.835387 0.481083
vt 0.835387 0.018917
vt 0.422023 0.331417
vt 0.272887 0.793583
vt 0.272887 0.331417
vt 0.172023 0.018917
vt 0.022887 0.481083
vt 0.022887 0.018917
vt 1.000000 0.375000
vt 0.625000 0.375000
vt 0.625000 -0.000000
vt 0.672023 0.081417
vt 0.522887 0.543583
vt 0.522887 0.081417
vt 0.984523 0.518917
vt 0.835387 0.981083
vt 0.835387 0.518917
vt 0.375000 1.000000
vt -0.000000 1.000000
vt -0.000000 0.625000
vt 0.289726 0.310381
vt -0.003276 0.097824
vt 0.496913 0.097824
vt 0.000100 0.500000
vt 0.500000 0.000100
vt 0.500000 0.500000
vt 1.000000 -0.000000
vt 0.289726 0.247881
vt -0.003276 0.035324
vt 0.496913 0.035324
vt 0.289726 0.935381
vt -0.003276 0.722824
vt 0.496913 0.722824
vt 0.289726 0.810381
vt -0.003276 0.597824
vt 0.496913 0.597824
vt -0.000000 0.375000
vt -0.000000 -0.000000
vt 0.375000 -0.000000
vt 1.000000 0.625000
vt 1.000000 1.000000
vt 0.625000 1.000000
vt 0.000100 0.999900
vt 0.500000 0.999900
vt 0.250000 0.000000
vt 0.750000 0.375000
vt 0.250000 0.375000
vt 0.375000 0.375000
vt 0.000000 0.750000
vt 0.375000 0.250000
vt 0.375000 0.750000
vt 0.375000 0.625000
vt 0.250000 0.625000
vt 0.750000 1.000000
vt 0.250000 1.000000
vt 0.625000 0.625000
vt 0.625000 0.750000
vt 1.000000 0.250000
vt 1.000000 0.750000
vt 0.250000 0.750000
vt 0.750000 0.250000
vt 0.750000 0.750000
vt 0.999900 0.500000
vt 0.999900 0.999900
vt 0.999900 0.000100
vt 0.859523 0.918583
vt 0.172023 0.981083
vt 0.484523 0.481083
vt 0.984523 0.481083
vt 0.422023 0.793583
vt 0.172023 0.481083
vt 0.672023 0.543583
vt 0.984523 0.981083
vt 0.997103 0.310381
vt 0.704100 0.310382
vt 0.997103 0.097824
vt -0.003276 0.310381
vt 0.000100 0.000100
vt 0.997103 0.247881
vt 0.704100 0.247882
vt 0.997103 0.035324
vt -0.003276 0.247881
vt 0.997103 0.935381
vt 0.704100 0.935382
vt 0.997103 0.722824
vt -0.003276 0.935381
vt 0.997103 0.810381
vt 0.704100 0.810382
vt 0.997103 0.597824
vt -0.003276 0.810381
vt 0.750000 0.000000
vt 0.000000 0.250000
vt 0.750000 0.625000
vt 0.625000 0.250000
vt 0.250000 0.250000
s 0
usemtl ionic_base_small
f 2/1/1 3/2/1 1/3/1
f 4/4/2 5/5/2 3/6/2
f 6/7/3 7/8/3 5/9/3
f 8/10/4 9/11/4 7/12/4
f 10/13/5 11/14/5 9/15/5
f 12/16/6 13/17/6 11/18/6
f 4/19/7 26/20/7 6/21/7
f 14/22/8 15/23/8 13/24/8
f 16/25/9 1/26/9 15/27/9
f 5/28/7 17/29/7 3/30/7
f 7/31/3 20/32/3 30/33/3
f 30/34/10 32/35/10 33/36/10
f 13/21/7 23/37/7 11/19/7
f 15/38/8 22/39/8 29/40/8
f 11/41/5 24/42/5 32/43/5
f 3/44/1 18/45/1 31/46/1
f 9/47/7 19/48/7 7/49/7
f 1/50/7 21/51/7 15/52/7
f 18/53/10 33/36/10 31/54/10
f 26/55/7 8/56/7 6/57/7
f 8/49/7 27/58/7 10/47/7
f 27/59/7 12/60/7 10/61/7
f 12/30/7 25/62/7 14/28/7
f 25/63/7 16/64/7 14/65/7
f 16/52/7 28/66/7 2/50/7
f 28/67/7 4/68/7 2/69/7
f 25/70/7 26/71/7 28/72/7
f 31/54/10 29/73/10 22/74/10
f 33/36/10 24/75/10 29/73/10
f 2/1/1 4/76/1 3/2/1
f 4/4/2 6/77/2 5/5/2
f 6/7/3 8/78/3 7/8/3
f 8/10/4 10/79/4 9/11/4
f 10/13/5 12/80/5 11/14/5
f 12/16/6 14/81/6 13/17/6
f 14/22/8 16/82/8 15/23/8
f 16/25/9 2/83/9 1/26/9
f 17/84/3 5/85/3 18/86/3
f 5/85/3 7/31/3 30/33/3
f 7/31/3 19/87/3 20/32/3
f 30/33/3 18/86/3 5/85/3
f 30/34/10 20/88/10 32/35/10
f 23/89/8 13/90/8 24/91/8
f 13/90/8 15/38/8 29/40/8
f 15/38/8 21/92/8 22/39/8
f 29/40/8 24/91/8 13/90/8
f 19/93/5 9/94/5 20/95/5
f 9/94/5 11/41/5 32/43/5
f 11/41/5 23/96/5 24/42/5
f 32/43/5 20/95/5 9/94/5
f 21/97/1 1/98/1 22/99/1
f 1/98/1 3/44/1 31/46/1
f 3/44/1 17/100/1 18/45/1
f 31/46/1 22/99/1 1/98/1
f 18/53/10 30/34/10 33/36/10
f 26/55/7 27/101/7 8/56/7
f 27/59/7 25/102/7 12/60/7
f 25/63/7 28/103/7 16/64/7
f 28/67/7 26/104/7 4/68/7
f 25/70/7 27/105/7 26/71/7
f 31/54/10 33/36/10 29/73/10
f 33/36/10 32/35/10 24/75/10
