# Blender 5.1.2
# www.blender.org
mtllib medium_greek_corinthian_half_base.mtl
o Cube.286
v 0.243705 0.275000 0.381246
v 0.243705 0.412500 0.381246
v 0.756295 0.275000 0.381246
v 0.756295 0.412500 0.381246
v 1.118750 0.275000 0.743701
v 1.118750 0.412500 0.743701
v -0.118750 0.275000 0.743701
v -0.118750 0.412500 0.743701
v 0.215226 0.000000 0.312492
v 0.215226 0.137500 0.312492
v 0.784774 0.000000 0.312492
v 0.784774 0.137500 0.312492
v 1.187505 0.000000 0.715223
v 1.187505 0.137500 0.715223
v -0.187505 0.000000 0.715223
v -0.187505 0.137500 0.715223
v 0.272183 0.137500 0.449997
v 0.272183 0.275000 0.449997
v 0.727818 0.137500 0.449997
v 0.727818 0.275000 0.449997
v 1.050000 0.137500 0.772180
v 1.050000 0.275000 0.772180
v -0.050000 0.137500 0.772180
v -0.050000 0.275000 0.772180
v 0.243705 0.412500 0.743701
v 0.756295 0.412500 0.743701
v 1.118750 0.275000 1.000518
v 1.118750 0.412500 1.000518
v -0.118750 0.275000 1.002584
v -0.118750 0.412500 1.002584
v 1.187505 0.000000 1.000404
v 1.187505 0.137500 1.000404
v -0.187505 0.000000 1.002699
v -0.187505 0.137500 1.002699
v 1.050000 0.137500 1.000633
v 1.050000 0.275000 1.000633
v -0.050000 0.137500 1.002470
v -0.050000 0.275000 1.002470
v 0.756295 0.412500 1.001123
v 0.243705 0.412500 1.001979
v 0.496233 0.137500 1.001558
v 0.095039 0.137500 1.002227
v -0.070586 0.137500 1.002504
v 0.901848 0.137500 1.000880
v 1.069298 0.137500 1.000601
v 0.503737 0.000000 1.001545
v 0.903612 0.000000 1.000877
v 1.069798 0.000000 1.000600
v 0.099492 0.000000 1.002220
v -0.068511 0.000000 1.002500
vn -0.0000 -0.0000 -1.0000
vn 0.7071 -0.0000 -0.7071
vn 0.0017 -0.0000 1.0000
vn -0.0000 1.0000 -0.0000
vn -1.0000 -0.0000 -0.0000
vn -0.7071 -0.0000 -0.7071
vn -0.0000 -1.0000 -0.0000
vn 1.0000 -0.0000 -0.0000
vt 0.312500 0.625000
vt 0.812500 0.750000
vt 0.312500 0.750000
vt 0.657370 0.375000
vt 1.157370 0.500000
vt 0.657370 0.500000
vt 0.875032 -0.000575
vt 0.975024 0.999361
vt 0.875032 0.999361
vt 0.687526 0.999206
vt 0.562535 -0.000723
vt 0.687526 -0.000723
vt 0.111137 -0.000641
vt 0.000033 0.999292
vt 0.000033 -0.000641
vt 0.482695 0.375000
vt 0.107695 0.375000
vt 0.107695 0.000000
vt 0.009755 0.437500
vt 0.262280 0.562500
vt 0.009755 0.562500
vt -0.219870 0.187500
vt 0.280130 0.312500
vt -0.219870 0.312500
vt 0.125000 0.437500
vt 0.687500 0.562500
vt 0.125000 0.562500
vt 0.661678 0.187500
vt 1.224178 0.312500
vt 0.661678 0.312500
vt 0.135932 0.085973
vt 0.136075 0.000006
vt 0.343475 0.000006
vt 0.097269 0.625000
vt 0.381187 0.750000
vt 0.097269 0.750000
vt -0.349178 0.875000
vt 0.213322 1.000000
vt -0.349178 1.000000
vt 0.134550 0.086546
vt 0.134406 0.000006
vt 0.343475 0.000006
vt 0.375000 0.062500
vt 0.812500 0.187500
vt 0.375000 0.187500
vt 0.526981 0.437500
vt 0.964481 0.562500
vt 0.526981 0.562500
vt 0.173777 0.812500
vt 0.394901 0.937500
vt 0.173777 0.937500
vt -0.276981 0.812500
vt 0.160519 0.937500
vt -0.276981 0.937500
vt 0.010346 0.625000
vt 0.262280 1.000000
vt 0.009755 1.000000
vt 0.107695 1.000000
vt 0.107695 0.625000
vt 0.482695 0.625000
vt 0.107695 0.750000
vt 0.482695 0.250000
vt 0.482695 0.750000
vt 0.135236 0.502740
vt 0.135728 0.207753
vt 0.135245 0.502718
vt 0.134754 0.208727
vt 0.636365 0.707104
vt 0.135731 0.793530
vt 0.636365 0.292896
vt 0.636365 0.707104
vt 0.134749 0.794511
vt 0.636365 0.292896
vt 0.737720 0.250000
vt 0.988819 0.750000
vt 0.737720 0.750000
vt 0.043298 0.999900
vt 0.044967 0.000100
vt 0.545446 0.707065
vt 0.980099 0.062500
vt 1.199460 0.187500
vt 0.980099 0.187500
vt 0.545445 0.707065
vt 0.252611 0.999900
vt 0.044967 0.999900
vt 0.343475 0.999994
vt 0.134548 0.914963
vt 0.681313 0.375000
vt 0.962964 0.500000
vt 0.681313 0.500000
vt 0.343475 0.999994
vt 0.135932 0.914390
vt 0.262280 0.375000
vt 0.011771 0.000000
vt 0.262280 0.000000
vt 0.737720 0.625000
vt 0.988229 0.750000
vt 0.737720 0.750000
vt 0.595940 0.707065
vt 0.303106 0.999900
vt 0.095618 0.999900
vt 0.812500 0.625000
vt 1.157370 0.375000
vt 0.975024 -0.000575
vt 0.562535 0.999206
vt 0.111137 0.999292
vt 0.262280 0.437500
vt 0.280130 0.187500
vt 0.687500 0.437500
vt 1.224178 0.187500
vt 0.381187 0.625000
vt 0.213322 0.875000
vt 0.812500 0.062500
vt 0.964481 0.437500
vt 0.394901 0.812500
vt 0.160519 0.812500
vt 0.262280 0.625000
vt 0.107695 0.250000
vt 0.989654 0.250000
vt 0.252611 0.000100
vt 0.545446 0.292935
vt 0.252611 0.999900
vt 1.199460 0.062500
vt 0.252611 0.000100
vt 0.545445 0.292935
vt 0.043298 0.000100
vt 0.134406 0.999993
vt 0.962964 0.375000
vt 0.136075 0.999994
vt 0.011180 0.375000
vt 0.988229 0.625000
vt 0.303106 0.000100
vt 0.595940 0.292935
vt 0.093949 0.000100
s 0
usemtl ionic_base
f 2/1/1 3/2/1 1/3/1
f 4/4/2 5/5/2 3/6/2
f 34/7/3 31/8/3 32/9/3
f 35/10/3 38/11/3 37/12/3
f 29/13/3 28/14/3 30/15/3
f 4/16/4 26/17/4 6/18/4
f 30/19/5 7/20/5 29/21/5
f 8/22/6 1/23/6 7/24/6
f 10/25/1 11/26/1 9/27/1
f 12/28/2 13/29/2 11/30/2
f 45/31/4 32/32/4 14/33/4
f 34/34/5 15/35/5 33/36/5
f 16/37/6 9/38/6 15/39/6
f 50/40/7 33/41/7 15/42/7
f 18/43/1 19/44/1 17/45/1
f 20/46/2 21/47/2 19/48/2
f 38/49/5 23/50/5 37/51/5
f 24/52/6 17/53/6 23/54/6
f 40/55/4 8/56/4 30/57/4
f 8/58/4 25/59/4 2/60/4
f 25/61/4 4/62/4 2/63/4
f 41/64/4 44/65/4 14/33/4
f 44/65/4 45/31/4 14/33/4
f 46/66/7 49/67/7 15/42/7
f 49/67/7 50/40/7 15/42/7
f 11/68/7 47/69/7 9/70/7
f 9/70/7 46/66/7 15/42/7
f 10/71/4 42/72/4 12/73/4
f 12/73/4 41/64/4 14/33/4
f 25/74/4 39/75/4 26/76/4
f 38/77/4 36/78/4 18/79/4
f 22/80/8 35/81/8 21/82/8
f 19/83/7 21/84/7 35/85/7
f 16/86/4 43/87/4 10/71/4
f 14/88/8 31/89/8 13/90/8
f 13/91/7 48/92/7 11/68/7
f 26/93/4 28/94/4 6/95/4
f 6/96/8 27/97/8 5/98/8
f 3/99/7 5/100/7 27/101/7
f 2/1/1 4/102/1 3/2/1
f 4/4/2 6/103/2 5/5/2
f 34/7/3 33/104/3 31/8/3
f 35/10/3 36/105/3 38/11/3
f 29/13/3 27/106/3 28/14/3
f 30/19/5 8/107/5 7/20/5
f 8/22/6 2/108/6 1/23/6
f 10/25/1 12/109/1 11/26/1
f 12/28/2 14/110/2 13/29/2
f 34/34/5 16/111/5 15/35/5
f 16/37/6 10/112/6 9/38/6
f 18/43/1 20/113/1 19/44/1
f 20/46/2 22/114/2 21/47/2
f 38/49/5 24/115/5 23/50/5
f 24/52/6 18/116/6 17/53/6
f 40/55/4 25/117/4 8/56/4
f 25/61/4 26/118/4 4/62/4
f 11/68/7 48/92/7 47/69/7
f 9/70/7 47/69/7 46/66/7
f 10/71/4 43/87/4 42/72/4
f 12/73/4 42/72/4 41/64/4
f 25/74/4 40/119/4 39/75/4
f 22/120/4 20/121/4 36/78/4
f 20/121/4 18/79/4 36/78/4
f 18/79/4 24/122/4 38/77/4
f 22/80/8 36/123/8 35/81/8
f 23/124/7 17/125/7 37/126/7
f 17/125/7 19/83/7 35/85/7
f 37/126/7 17/125/7 35/85/7
f 16/86/4 34/127/4 43/87/4
f 14/88/8 32/128/8 31/89/8
f 13/91/7 31/129/7 48/92/7
f 26/93/4 39/130/4 28/94/4
f 6/96/8 28/131/8 27/97/8
f 7/132/7 1/133/7 29/134/7
f 1/133/7 3/99/7 27/101/7
f 29/134/7 1/133/7 27/101/7
