# Blender 5.1.2
# www.blender.org
mtllib medium_scamozzi_ionic_half_capital.mtl
o ionic_capital_small
v -0.265469 0.838427 0.379513
v -0.109698 0.838427 0.306873
v -0.297662 0.654531 0.310479
v -0.141891 0.654531 0.237839
v -0.265469 0.470635 0.379513
v -0.109698 0.470635 0.306874
v -0.187747 0.394462 0.546178
v -0.031977 0.394462 0.473539
v -0.110027 0.470635 0.712845
v 0.045744 0.470635 0.640204
v -0.077834 0.654531 0.781880
v 0.077937 0.654531 0.709240
v -0.110027 0.838427 0.712845
v 0.045744 0.838427 0.640204
v -0.187747 0.914599 0.546178
v -0.031977 0.914599 0.473539
v 1.041405 0.578649 0.458596
v 1.041405 0.562952 0.458596
v 1.041405 0.578649 0.716409
v 1.041405 0.562952 0.716409
v 0.783593 0.578649 0.458596
v 0.783593 0.562952 0.458596
v 0.783593 0.578649 0.716409
v 0.783593 0.562952 0.716409
v 1.106645 0.838427 0.303826
v 1.262417 0.838427 0.376461
v 1.138835 0.654531 0.234790
v 1.294609 0.654531 0.307425
v 1.106645 0.470635 0.303826
v 1.262417 0.470635 0.376461
v 1.028930 0.394462 0.470494
v 1.184702 0.394462 0.543129
v 0.951215 0.470635 0.637162
v 1.106987 0.470635 0.709797
v 0.919023 0.654531 0.706198
v 1.074797 0.654531 0.778833
v 0.951215 0.838427 0.637162
v 1.106987 0.838427 0.709797
v 1.028930 0.914599 0.470494
v 1.184702 0.914599 0.543129
v 0.257941 0.530781 0.415621
v 0.257941 0.668281 0.415621
v 0.742057 0.530781 0.415621
v 0.742057 0.668281 0.415621
v 1.084378 0.530781 0.757942
v 1.084378 0.668281 0.757942
v -0.084380 0.530781 0.757942
v -0.084380 0.668281 0.757942
v -0.196179 0.838427 0.393355
v -0.123544 0.838427 0.237583
v -0.265215 0.654531 0.361165
v -0.192580 0.654531 0.205392
v -0.196179 0.470635 0.393355
v -0.123544 0.470635 0.237583
v -0.029509 0.394462 0.471070
v 0.043124 0.394462 0.315297
v 0.137158 0.470635 0.548784
v 0.209793 0.470635 0.393012
v 0.206195 0.654531 0.580974
v 0.278829 0.654531 0.425202
v 0.137158 0.838427 0.548784
v 0.209793 0.838427 0.393012
v -0.029509 0.914599 0.471070
v 0.043124 0.914599 0.315297
v 1.120488 0.838427 0.234535
v 1.193128 0.838427 0.390306
v 1.189523 0.654531 0.202342
v 1.262163 0.654531 0.358113
v 1.120488 0.470635 0.234535
v 1.193128 0.470635 0.390306
v 0.953822 0.394462 0.312255
v 1.026462 0.394462 0.468025
v 0.787157 0.470635 0.389974
v 0.859797 0.470635 0.545745
v 0.718122 0.654531 0.422167
v 0.790762 0.654531 0.577938
v 0.787157 0.838427 0.389974
v 0.859797 0.838427 0.545745
v 0.953822 0.914599 0.312255
v 1.026462 0.914599 0.468025
v -0.041404 0.578649 0.458594
v -0.041404 0.562952 0.458594
v 0.216408 0.578649 0.458594
v 0.216408 0.562952 0.458594
v -0.041404 0.578649 0.716406
v -0.041404 0.562952 0.716406
v 0.216408 0.578649 0.716406
v 0.216408 0.562952 0.716406
v 0.018532 0.663125 1.000000
v 0.981466 0.920938 1.000000
v 0.018532 0.920938 1.000000
v 0.981466 0.663125 1.000000
v 0.499999 0.663125 0.518533
v 0.499999 0.920938 0.518533
v 0.499999 0.663125 1.000000
v 0.499999 0.920938 1.000000
v 1.155633 0.920938 0.424107
v 1.075893 0.920938 0.344366
v 1.075893 0.663125 0.344366
v 1.155633 0.663125 0.424107
v -0.075894 0.920938 0.344366
v -0.155635 0.920938 0.424107
v -0.155635 0.663125 0.424107
v -0.075894 0.663125 0.344366
v -0.017027 0.914063 1.000000
v 1.017026 1.000000 1.000000
v -0.017027 1.000000 1.000000
v 1.017026 0.914063 1.000000
v 0.499999 0.914063 0.482972
v 0.499999 1.000000 0.482972
v 0.499999 0.914063 1.000000
v 0.499999 1.000000 1.000000
v 1.169702 1.000000 0.384274
v 1.115725 1.000000 0.330297
v 1.115725 0.914062 0.330297
v 1.169702 0.914063 0.384274
v -0.115727 1.000000 0.330297
v -0.169704 1.000000 0.384274
v -0.169704 0.914063 0.384274
v -0.115727 0.914062 0.330297
v 1.084378 0.599469 1.000218
v 1.084378 0.530781 1.000218
v 0.497550 0.668281 1.001014
v 0.983968 0.668281 1.000354
v -0.084380 0.600044 1.001804
v -0.084380 0.530781 1.001804
v 0.981574 0.920777 1.000358
v 0.981574 0.663125 1.000358
v 0.981518 0.920938 1.000358
v 0.981108 0.920938 1.000358
v 0.981108 0.663125 1.000358
v 0.981518 0.663125 1.000358
v 0.018028 0.663870 1.001665
v 0.018028 0.663125 1.001665
v 0.020194 0.920938 1.001662
v 0.018292 0.920938 1.001665
v 1.017103 0.999957 1.000309
v 1.017103 0.914063 1.000309
v 1.016717 0.914063 1.000310
v 1.017072 0.914063 1.000309
v -0.017452 0.914302 1.001713
v -0.017452 0.914063 1.001713
v -0.017280 0.914063 1.001713
v -0.015317 0.914063 1.001710
v 1.084378 0.668281 1.000218
v 0.015192 0.668281 1.001669
v -0.084380 0.668281 1.001804
v 0.981574 0.920938 1.000358
v 0.499999 0.920938 1.001011
v 0.499999 0.663125 1.001011
v 0.018028 0.920938 1.001665
v 0.020194 0.663125 1.001662
v 1.017103 1.000000 1.000309
v 0.499999 0.914063 1.001011
v -0.017452 1.000000 1.001713
v 0.502432 0.530781 1.001008
v 1.017072 1.000000 1.000309
v 1.016717 1.000000 1.000310
v -0.015317 1.000000 1.001710
v -0.017280 1.000000 1.001713
v 0.499999 1.000000 1.001011
vn -0.9063 -0.0000 0.4226
vn 0.9063 -0.0000 0.4226
vn 0.4226 -0.0000 -0.9063
vn -0.4226 -0.0000 -0.9063
vn -0.0000 -0.0000 -1.0000
vn 0.7071 -0.0000 -0.7071
vn -0.0000 1.0000 -0.0000
vn -1.0000 -0.0000 -0.0000
vn -0.7071 -0.0000 -0.7071
vn 0.9572 -0.0000 0.2895
vn -0.2895 -0.0000 -0.9572
vn -0.0000 -1.0000 -0.0000
vn 0.2895 -0.0000 -0.9572
vn -0.9572 -0.0000 0.2895
vn -0.9572 -0.0000 -0.2895
vn 0.9706 -0.0000 0.2407
vn -0.2407 -0.0000 -0.9706
vn 0.2407 -0.0000 -0.9706
vn -0.9706 -0.0000 0.2407
vn -0.9706 -0.0000 -0.2407
vn 0.0014 -0.0000 1.0000
vn -0.3905 0.3827 -0.8373
vn -0.3905 -0.3827 -0.8373
vn -0.1617 -0.9239 -0.3468
vn 0.1617 -0.9239 0.3468
vn 0.3905 -0.3827 0.8373
vn 0.3905 0.3827 0.8373
vn 0.9063 -0.0000 -0.4226
vn 0.1617 0.9239 0.3468
vn -0.1617 0.9239 -0.3468
vn -0.0000 -0.0000 1.0000
vn 1.0000 -0.0000 -0.0000
vn 0.3904 0.3827 -0.8373
vn 0.3904 -0.3827 -0.8373
vn 0.1617 -0.9239 -0.3468
vn -0.1617 -0.9239 0.3468
vn -0.3904 -0.3827 0.8373
vn -0.3904 0.3827 0.8373
vn -0.1617 0.9239 0.3468
vn 0.1617 0.9239 -0.3468
vn -0.9063 -0.0000 -0.4226
vn -0.8373 0.3827 -0.3904
vn -0.8373 -0.3827 -0.3904
vn -0.3468 -0.9239 -0.1617
vn 0.3468 -0.9239 0.1617
vn 0.8373 -0.3827 0.3904
vn 0.8373 0.3827 0.3904
vn 0.3468 0.9239 0.1617
vn -0.3468 0.9239 -0.1617
vn -0.4226 -0.0000 0.9063
vn 0.8373 0.3827 -0.3905
vn 0.8373 -0.3827 -0.3905
vn 0.3468 -0.9239 -0.1617
vn -0.3468 -0.9239 0.1617
vn -0.8373 -0.3827 0.3905
vn -0.8373 0.3827 0.3905
vn 0.4226 -0.0000 0.9063
vn -0.3468 0.9239 0.1617
vn 0.3468 0.9239 -0.1617
vn 0.9706 -0.0000 -0.2407
vn -0.0000 -1.0000 0.0002
vn 0.9572 -0.0000 -0.2893
vn 0.9572 -0.0000 -0.2895
vn 0.9706 -0.0000 -0.2406
vn 0.9572 -0.0000 -0.2896
vt 0.134403 0.542934
vt 0.240302 0.287270
vt 0.495966 0.181370
vt 0.495966 0.904496
vt 0.751629 0.798596
vt 0.240302 0.287271
vt 0.495966 0.904496
vt 0.751629 0.798596
vt 0.240302 0.287270
vt 0.134404 0.542934
vt 0.240302 0.287271
vt 0.495966 0.181371
vt 0.751629 0.287270
vt 0.857528 0.542934
vt 0.751629 0.798596
vt 0.495966 0.904496
vt 0.240302 0.798596
vt 0.857527 0.542934
vt 0.751629 0.287271
vt 0.495966 0.181372
vt 0.134404 0.542934
vt 0.240302 0.798596
vt 0.857528 0.542934
vt 0.751629 0.287270
vt 0.495966 0.181372
vt 0.134403 0.542934
vt 0.240302 0.798596
vt 0.751629 0.287271
vt 0.857527 0.542934
vt 0.751629 0.798596
vt 0.495966 0.904496
vt 0.240302 0.798596
vt 0.704916 0.628356
vt 0.241431 0.495932
vt 0.704916 0.495932
vt 0.291484 0.693138
vt 0.132037 0.308202
vt 0.291484 0.308202
vt 0.498968 0.502698
vt 0.499514 0.099941
vt 0.700233 0.016800
vt 0.716694 0.562638
vt 0.483224 0.495932
vt 0.716694 0.495932
vt 0.291484 0.693138
vt 0.132037 0.308202
vt 0.291484 0.308202
vt 0.050124 0.787650
vt 0.213853 0.951380
vt 0.050124 0.951380
vt 0.723262 0.787650
vt 0.886992 0.951380
vt 0.723262 0.951380
vt 0.983209 0.989107
vt 0.385251 0.749923
vt 0.983209 0.749923
vt 0.614365 0.989107
vt 0.016406 0.749923
vt 0.614365 0.749923
vt 0.745704 0.080040
vt 0.745704 0.623618
vt 0.202125 0.623618
vt 0.767480 0.020020
vt 0.797490 0.170069
vt 0.797490 0.623618
vt 0.202142 0.623948
vt 0.202530 0.624023
vt 0.614364 0.989107
vt 0.016406 0.749923
vt 0.614364 0.749923
vt 1.199253 0.080040
vt 1.289283 0.170069
vt 1.289283 0.623618
vt 0.253911 0.080040
vt 0.253911 0.623618
vt -0.289668 0.623618
vt 0.386980 0.750615
vt 0.386980 0.749923
vt 0.883946 0.186454
vt 0.249807 0.265722
vt 0.883946 0.265722
vt 0.749807 0.061454
vt 0.115669 0.140722
vt 0.749807 0.140722
vt 0.800845 0.017525
vt 0.820565 0.116123
vt 0.820565 0.623618
vt 0.749807 0.186454
vt 0.115668 0.265722
vt 0.749807 0.265722
vt 0.628911 0.056964
vt 0.628911 0.623618
vt 0.062257 0.623618
vt 0.251572 0.265501
vt 0.251572 0.265722
vt 0.062408 0.375068
vt 0.062257 0.373618
vt 0.064131 0.375493
vt 0.241431 0.628356
vt 0.132037 0.693138
vt 0.983677 0.300244
vt 0.983677 0.701095
vt 0.499627 0.016800
vt 0.483224 0.628356
vt 0.716694 0.628356
vt 0.213853 0.787650
vt 0.886992 0.787650
vt 0.385251 0.989107
vt 0.016406 0.989107
vt 0.202125 0.170069
vt 0.232135 0.020020
vt 0.202125 0.623900
vt 0.797085 0.624023
vt 0.253911 0.624760
vt 0.016406 0.989107
vt -0.289668 0.170069
vt -0.199638 0.080040
vt 0.386980 0.989107
vt 1.287406 0.625495
vt 0.745704 0.624760
vt -0.289668 0.624929
vt -0.287791 0.625495
vt 0.249807 0.186454
vt 0.115669 0.061454
vt 0.253911 0.056964
vt 0.253911 0.373618
vt 0.820225 0.373958
vt 0.253911 0.374726
vt 0.115668 0.186454
vt 0.062257 0.116123
vt 0.121416 0.056964
vt 0.251572 0.186454
vt 0.062257 0.375030
vt 0.992672 0.000034
vt 0.992672 0.999966
vt 0.933906 0.999966
vt 0.023319 0.357315
vt 0.177132 0.152232
vt 0.177132 0.357315
vt 0.638061 0.234367
vt 0.791873 0.029283
vt 0.791873 0.234367
vt 0.638061 0.726160
vt 0.791873 0.521077
vt 0.791873 0.726160
vt 0.638061 0.849108
vt 0.791873 0.644025
vt 0.791873 0.849108
vt 0.515112 0.480264
vt 0.668925 0.275180
vt 0.668925 0.480264
vt 0.638061 0.480263
vt 0.791873 0.275180
vt 0.791873 0.480263
vt 0.730524 0.405104
vt 0.730524 0.596236
vt 0.269091 0.405104
vt 0.761009 0.480264
vt 0.914822 0.275180
vt 0.914822 0.480264
vt 0.515113 0.357315
vt 0.668925 0.152232
vt 0.668925 0.357315
vt 0.726879 0.500670
vt 0.575498 0.652051
vt 0.575498 0.500670
vt 0.424117 0.803432
vt 0.424117 0.652051
vt 0.575498 0.197908
vt 0.424117 0.349289
vt 0.424117 0.197908
vt 0.424117 0.500670
vt 0.272736 0.652051
vt 0.272736 0.500670
vt 0.575498 0.349289
vt 0.423028 0.849108
vt 0.269216 0.644025
vt 0.423028 0.644025
vt 0.392164 0.726160
vt 0.545977 0.521077
vt 0.545977 0.726160
vt 0.146268 0.234366
vt 0.300080 0.029284
vt 0.300080 0.234366
vt 0.177132 0.603211
vt 0.023319 0.398129
vt 0.177132 0.398129
vt 0.268914 0.362690
vt 0.154606 0.638650
vt 0.154606 0.362690
vt 0.268914 0.638650
vt 0.154607 0.362690
vt 0.268914 0.362690
vt 0.146268 0.972056
vt 0.300080 0.766973
vt 0.300080 0.972056
vt 0.146268 0.603211
vt 0.300080 0.398129
vt 0.300080 0.603211
vt 0.269091 0.405104
vt 0.595373 0.269953
vt 0.730524 0.596236
vt 0.498283 0.006853
vt 0.704353 0.006853
vt 0.498956 0.502726
vt 0.914821 0.726160
vt 0.761009 0.521077
vt 0.914821 0.521077
vt 0.269216 0.972057
vt 0.423028 0.766973
vt 0.423028 0.972057
vt 0.023319 0.849108
vt 0.177132 0.644025
vt 0.177132 0.849108
vt 0.177132 0.357315
vt 0.023319 0.152232
vt 0.177132 0.152232
vt 0.392164 0.726160
vt 0.545977 0.521077
vt 0.545977 0.726160
vt 0.268914 0.638650
vt 0.154607 0.362690
vt 0.268914 0.362690
vt 0.146268 0.849108
vt 0.300080 0.644025
vt 0.300080 0.849108
vt 0.392164 0.726160
vt 0.545977 0.521077
vt 0.545977 0.726160
vt 0.515113 0.480263
vt 0.668925 0.275180
vt 0.668925 0.480263
vt 0.638061 0.480263
vt 0.791873 0.275180
vt 0.791873 0.480263
vt 0.914822 0.357315
vt 0.761009 0.152232
vt 0.914822 0.152232
vt 0.761009 0.480263
vt 0.914821 0.275180
vt 0.914821 0.480263
vt 0.268914 0.638650
vt 0.154606 0.362689
vt 0.268914 0.362689
vt 0.268914 0.638650
vt 0.154607 0.362690
vt 0.268914 0.362690
vt 0.730524 0.405104
vt 0.730524 0.596236
vt 0.515113 0.480263
vt 0.668925 0.275180
vt 0.668925 0.480263
vt 0.914822 0.726160
vt 0.761009 0.521077
vt 0.914822 0.521077
vt 0.430184 0.447345
vt 0.507957 0.369572
vt 0.507957 0.447345
vt 0.507957 0.369572
vt 0.986367 0.500670
vt 0.499807 0.500670
vt 0.499807 0.014111
vt 0.749508 0.264073
vt 0.749807 0.264111
vt 0.749516 0.264402
vt 0.898553 0.818322
vt 0.817460 0.899415
vt 0.249807 0.737229
vt 0.500052 0.999741
vt 0.767369 0.000258
vt 0.767369 0.999948
vt 0.083294 0.499321
vt 0.000029 0.999971
vt 0.000029 0.499321
vt 0.023319 0.152232
vt 0.638061 0.029283
vt 0.638061 0.521077
vt 0.638061 0.644025
vt 0.515112 0.275180
vt 0.638061 0.275180
vt 0.595373 0.731387
vt 0.404242 0.731387
vt 0.269091 0.596236
vt 0.404242 0.269953
vt 0.595373 0.269953
vt 0.761009 0.275180
vt 0.515113 0.152232
vt 0.726879 0.652051
vt 0.575498 0.803432
vt 0.269216 0.849108
vt 0.392164 0.521077
vt 0.146268 0.029284
vt 0.023319 0.603211
vt 0.268914 0.638650
vt 0.154607 0.638650
vt 0.146268 0.766973
vt 0.146268 0.398129
vt 0.595373 0.731386
vt 0.404242 0.731386
vt 0.269091 0.596236
vt 0.404242 0.269953
vt 0.730524 0.405104
vt 0.993624 0.296125
vt 0.993624 0.705215
vt 0.704353 0.994487
vt 0.761009 0.726160
vt 0.269216 0.766973
vt 0.023319 0.644025
vt 0.023319 0.357315
vt 0.392164 0.521077
vt 0.154607 0.638650
vt 0.146268 0.644025
vt 0.392164 0.521077
vt 0.515113 0.275180
vt 0.638061 0.275180
vt 0.761009 0.357315
vt 0.761009 0.275180
vt 0.154606 0.638650
vt 0.154607 0.638650
vt 0.595373 0.731386
vt 0.404242 0.731386
vt 0.269091 0.596236
vt 0.404242 0.269954
vt 0.595373 0.269954
vt 0.515113 0.275180
vt 0.761009 0.726160
vt 0.430184 0.369572
vt 0.430184 0.369572
vt 0.249807 0.264111
vt 0.817460 0.101924
vt 0.898553 0.183018
vt 0.736367 0.750670
vt 0.749522 0.264029
vt 0.499807 0.987229
vt 0.736367 0.250670
vt 0.498198 0.985620
vt 0.498856 0.500670
vt 0.749807 0.737229
vt 0.748148 0.737437
vt 0.748198 0.735620
vt 0.499516 0.014402
vt 0.748228 0.737680
vt 0.700233 0.984540
vt 0.498426 0.902093
vt 0.628911 0.373618
vt 0.820565 0.373618
vt 0.820556 0.373898
vt 0.820565 0.373873
vt 0.749489 0.186494
vt 0.749489 0.186454
vt 1.289283 0.624930
vt 1.289054 0.624998
vt 0.797473 0.623948
vt 0.797490 0.623900
vt 0.613993 0.988958
vt 0.613993 0.989106
vt 0.718553 0.562444
vt 0.937500 0.500000
vt 0.937500 0.625000
vt 0.718553 0.625000
vt 0.875034 0.999966
vt 0.875034 0.000034
vt 0.933415 0.000034
vt 0.500659 0.000052
vt 0.000029 0.000029
vt 0.083294 0.000029
vt 0.083294 0.999971
vt 0.498314 0.984540
vt 0.628911 0.374726
vt 0.749489 0.265722
vt 0.613993 0.749923
vt 0.499623 0.994487
vt 0.718553 0.500000
s 0
usemtl ionic_volute
f 11/1/1 13/2/1 15/3/1
f 32/4/2 30/5/2 38/6/2
f 56/7/3 54/8/3 62/9/3
f 75/10/4 77/11/4 79/12/4
f 15/3/1 1/13/1 3/14/1
f 3/14/1 5/15/1 15/3/1
f 5/15/1 7/16/1 15/3/1
f 7/16/1 9/17/1 15/3/1
f 9/17/1 11/1/1 15/3/1
f 30/5/2 28/18/2 26/19/2
f 26/19/2 40/20/2 30/5/2
f 40/20/2 38/6/2 30/5/2
f 38/6/2 36/21/2 34/22/2
f 34/22/2 32/4/2 38/6/2
f 54/8/3 52/23/3 50/24/3
f 50/24/3 64/25/3 54/8/3
f 64/25/3 62/9/3 54/8/3
f 62/9/3 60/26/3 58/27/3
f 58/27/3 56/7/3 62/9/3
f 79/12/4 65/28/4 67/29/4
f 67/29/4 69/30/4 79/12/4
f 69/30/4 71/31/4 79/12/4
f 71/31/4 73/32/4 79/12/4
f 73/32/4 75/10/4 79/12/4
usemtl ionic_egg
f 42/33/5 43/34/5 41/35/5
f 44/36/6 45/37/6 43/38/6
f 125/42/8 47/43/8 126/44/8
f 48/45/9 41/46/9 47/47/9
f 100/48/6 98/49/6 97/50/6
f 104/51/9 102/52/9 101/53/9
f 97/54/10 92/55/10 100/56/10
f 94/57/11 99/58/11 93/59/11
f 94/60/7 96/61/7 90/62/7
f 99/63/12 100/64/12 92/65/12
f 129/66/7 90/62/7 130/67/7
f 101/54/13 93/55/13 104/56/13
f 91/68/14 103/69/14 89/70/14
f 101/71/7 102/72/7 91/73/7
f 93/74/12 95/75/12 89/76/12
f 133/77/15 89/55/15 134/78/15
f 113/79/16 108/80/16 116/81/16
f 110/82/17 115/83/17 109/84/17
f 117/79/18 109/80/18 120/81/18
f 107/88/19 119/89/19 105/90/19
f 141/94/20 105/80/20 142/95/20
f 42/33/5 44/99/5 43/34/5
f 44/36/6 46/100/6 45/37/6
f 48/104/8 125/42/8 147/105/8
f 48/45/9 42/100/9 41/46/9
f 100/48/6 99/106/6 98/49/6
f 104/51/9 103/107/9 102/52/9
f 97/54/10 90/108/10 92/55/10
f 94/57/11 98/109/11 99/58/11
f 90/62/7 97/110/7 98/111/7
f 98/111/7 94/60/7 90/62/7
f 95/75/12 93/74/12 92/65/12
f 93/74/12 99/63/12 92/65/12
f 148/112/7 90/62/7 129/66/7
f 95/75/12 131/113/12 150/114/12
f 101/54/13 94/108/13 93/55/13
f 91/68/14 102/115/14 103/69/14
f 96/61/7 94/60/7 91/73/7
f 94/60/7 101/71/7 91/73/7
f 89/76/12 103/116/12 104/117/12
f 104/117/12 93/74/12 89/76/12
f 91/108/15 133/77/15 151/118/15
f 96/61/7 135/119/7 149/120/7
f 134/121/12 89/76/12 152/122/12
f 113/79/16 106/123/16 108/80/16
f 110/82/17 114/124/17 115/83/17
f 117/79/18 110/123/18 109/80/18
f 107/88/19 118/129/19 119/89/19
f 107/123/20 141/94/20 155/132/20
f 95/75/12 152/122/12 89/76/12
f 137/349/60 108/90/60 106/88/60
f 106/88/60 153/350/60 137/349/60
f 91/73/7 151/351/7 136/352/7
f 91/73/7 136/352/7 135/119/7
f 92/65/61 132/353/61 131/113/61
f 96/61/7 130/67/7 90/62/7
f 92/65/12 128/354/12 132/353/12
f 127/355/62 92/70/62 90/68/62
f 90/68/63 148/356/63 127/355/63
f 121/357/32 45/358/32 46/359/32
f 46/359/32 145/360/32 121/357/32
f 48/104/8 47/43/8 125/42/8
f 95/75/12 92/65/12 131/113/12
f 91/108/15 89/55/15 133/77/15
f 96/61/7 91/73/7 135/119/7
f 107/123/20 105/80/20 141/94/20
f 95/75/12 150/114/12 152/122/12
f 137/349/64 138/370/64 108/90/64
f 96/61/7 149/120/7 130/67/7
f 127/355/65 128/371/65 92/70/65
f 121/357/32 122/373/32 45/358/32
usemtl ionic_capital
f 123/39/7 124/40/7 46/41/7
f 115/85/12 116/86/12 108/87/12
f 109/91/12 111/92/12 105/93/12
f 143/96/12 105/97/12 144/98/12
f 46/41/7 44/101/7 42/102/7
f 124/40/7 145/103/7 46/41/7
f 111/75/12 109/125/12 108/87/12
f 109/125/12 115/85/12 108/87/12
f 111/126/12 139/127/12 154/128/12
f 105/93/12 119/130/12 120/131/12
f 120/131/12 109/91/12 105/93/12
f 142/133/12 105/97/12 143/96/12
f 126/134/21 122/135/21 121/136/21
f 2/137/22 3/138/22 1/139/22
f 4/140/23 5/141/23 3/142/23
f 6/143/24 7/144/24 5/145/24
f 8/146/25 9/147/25 7/148/25
f 10/149/26 11/150/26 9/151/26
f 12/152/27 13/153/27 11/154/27
f 8/155/28 6/156/28 14/157/28
f 14/158/29 15/159/29 13/160/29
f 16/161/30 1/162/30 15/163/30
f 21/164/7 19/165/7 17/166/7
f 19/165/31 24/167/31 20/168/31
f 23/169/8 22/170/8 24/171/8
f 18/172/12 24/173/12 22/174/12
f 17/166/32 20/168/32 18/172/32
f 21/175/5 18/172/5 22/170/5
f 25/176/33 28/177/33 27/178/33
f 28/179/34 29/180/34 27/181/34
f 30/182/35 31/183/35 29/184/35
f 31/185/36 34/186/36 33/187/36
f 33/188/37 36/189/37 35/190/37
f 36/191/38 37/192/38 35/193/38
f 38/194/39 39/195/39 37/196/39
f 40/197/40 25/198/40 39/199/40
f 31/200/41 35/201/41 39/202/41
f 126/203/12 47/204/12 156/205/12
f 49/206/42 52/207/42 51/208/42
f 52/209/43 53/210/43 51/211/43
f 54/212/44 55/213/44 53/214/44
f 55/215/45 58/216/45 57/217/45
f 58/218/46 59/219/46 57/220/46
f 60/221/47 61/222/47 59/223/47
f 62/224/48 63/225/48 61/226/48
f 64/227/49 49/228/49 63/229/49
f 61/155/50 63/156/50 55/157/50
f 66/230/51 67/231/51 65/232/51
f 68/233/52 69/234/52 67/235/52
f 69/236/53 72/237/53 71/238/53
f 72/239/54 73/240/54 71/241/54
f 74/242/55 75/243/55 73/244/55
f 76/245/56 77/246/56 75/247/56
f 72/248/57 70/249/57 78/200/57
f 78/250/58 79/251/58 77/252/58
f 79/253/59 66/254/59 65/255/59
f 85/164/7 83/165/7 81/166/7
f 83/165/32 88/167/32 84/168/32
f 87/169/31 86/170/31 88/171/31
f 86/174/12 84/168/12 88/173/12
f 81/166/5 84/168/5 82/172/5
f 85/175/8 82/172/8 86/170/8
f 116/256/6 114/257/6 113/258/6
f 120/256/9 118/259/9 117/258/9
f 110/260/7 112/261/7 106/262/7
f 157/263/7 106/264/7 158/265/7
f 117/266/7 118/267/7 107/268/7
f 127/269/21 133/270/21 128/271/21
f 154/272/21 158/273/21 161/274/21
f 2/137/22 4/275/22 3/138/22
f 4/140/23 6/276/23 5/141/23
f 6/143/24 8/277/24 7/144/24
f 8/146/25 10/278/25 9/147/25
f 10/149/26 12/279/26 11/150/26
f 12/152/27 14/280/27 13/153/27
f 6/156/28 4/281/28 2/282/28
f 2/282/28 16/283/28 6/156/28
f 16/283/28 14/157/28 6/156/28
f 14/157/28 12/284/28 10/285/28
f 10/285/28 8/155/28 14/157/28
f 14/158/29 16/286/29 15/159/29
f 16/161/30 2/287/30 1/162/30
f 21/164/7 23/288/7 19/165/7
f 19/165/31 23/289/31 24/167/31
f 23/169/8 21/175/8 22/170/8
f 18/172/12 20/168/12 24/173/12
f 17/166/32 19/165/32 20/168/32
f 21/175/5 17/166/5 18/172/5
f 25/176/33 26/290/33 28/177/33
f 28/179/34 30/291/34 29/180/34
f 30/182/35 32/292/35 31/183/35
f 31/185/36 32/293/36 34/186/36
f 33/188/37 34/294/37 36/189/37
f 36/191/38 38/295/38 37/192/38
f 38/194/39 40/296/39 39/195/39
f 40/197/40 26/297/40 25/198/40
f 39/202/41 25/298/41 31/200/41
f 25/298/41 27/299/41 31/200/41
f 27/299/41 29/300/41 31/200/41
f 31/200/41 33/301/41 35/201/41
f 35/201/41 37/302/41 39/202/41
f 47/204/12 41/303/12 43/304/12
f 43/304/12 45/305/12 47/204/12
f 49/206/42 50/306/42 52/207/42
f 52/209/43 54/307/43 53/210/43
f 54/212/44 56/308/44 55/213/44
f 55/215/45 56/309/45 58/216/45
f 58/218/46 60/310/46 59/219/46
f 60/221/47 62/311/47 61/222/47
f 62/224/48 64/312/48 63/225/48
f 64/227/49 50/313/49 49/228/49
f 63/156/50 49/281/50 51/282/50
f 51/282/50 53/283/50 63/156/50
f 53/283/50 55/157/50 63/156/50
f 55/157/50 57/284/50 59/285/50
f 59/285/50 61/155/50 55/157/50
f 66/230/51 68/314/51 67/231/51
f 68/233/52 70/315/52 69/234/52
f 69/236/53 70/316/53 72/237/53
f 72/239/54 74/317/54 73/240/54
f 74/242/55 76/318/55 75/243/55
f 76/245/56 78/319/56 77/246/56
f 70/249/57 68/320/57 78/200/57
f 68/320/57 66/321/57 78/200/57
f 66/321/57 80/322/57 78/200/57
f 78/200/57 76/323/57 74/324/57
f 74/324/57 72/248/57 78/200/57
f 78/250/58 80/325/58 79/251/58
f 79/253/59 80/326/59 66/254/59
f 85/164/7 87/288/7 83/165/7
f 83/165/32 87/289/32 88/167/32
f 87/169/31 85/175/31 86/170/31
f 86/174/12 82/172/12 84/168/12
f 81/166/5 83/165/5 84/168/5
f 85/175/8 81/166/8 82/172/8
f 116/256/6 115/327/6 114/257/6
f 120/256/9 119/328/9 118/259/9
f 106/329/7 113/330/7 114/331/7
f 114/331/7 110/332/7 106/329/7
f 153/333/7 106/264/7 157/263/7
f 112/261/7 110/260/7 107/334/7
f 110/335/7 117/266/7 107/268/7
f 112/261/7 159/336/7 161/337/7
f 107/338/7 160/339/7 159/340/7
f 112/261/7 158/341/7 106/262/7
f 107/338/7 155/342/7 160/339/7
f 48/343/7 146/344/7 42/102/7
f 111/345/12 144/98/12 105/97/12
f 108/346/12 140/347/12 139/127/12
f 108/346/12 138/348/12 140/347/12
f 42/102/7 123/39/7 46/41/7
f 45/305/12 156/205/12 47/204/12
f 111/126/12 108/346/12 139/127/12
f 121/136/21 145/361/21 147/362/21
f 147/362/21 125/363/21 121/136/21
f 125/363/21 126/134/21 121/136/21
f 127/269/21 151/364/21 133/270/21
f 159/365/21 144/366/21 154/272/21
f 154/272/21 139/367/21 158/273/21
f 161/274/21 159/365/21 154/272/21
f 112/261/7 107/334/7 159/336/7
f 112/261/7 161/337/7 158/341/7
f 48/343/7 147/368/7 146/344/7
f 111/345/12 154/369/12 144/98/12
f 42/102/7 146/344/7 123/39/7
f 45/305/12 122/372/12 156/205/12
