# Blender 5.1.2
# www.blender.org
mtllib medium_roman_ionic_half_base.mtl
o small_roman_ionic_base
v 0.243804 0.412501 0.381488
v 0.243804 0.550001 0.381488
v 0.756196 0.412501 0.381488
v 0.756196 0.550001 0.381488
v 1.118511 0.412501 0.743803
v 1.118511 0.550001 0.743803
v -0.118511 0.412501 0.743803
v -0.118511 0.550001 0.743803
v 0.272181 0.275000 0.449994
v 0.272181 0.412500 0.449994
v 0.727819 0.275000 0.449994
v 0.727819 0.412500 0.449994
v 1.050004 0.275000 0.772179
v 1.050004 0.412500 0.772179
v -0.050004 0.275000 0.772179
v -0.050004 0.412500 0.772179
v 0.317746 0.137501 0.559998
v 0.317746 0.275001 0.559998
v 0.682254 0.137501 0.559998
v 0.682254 0.275001 0.559998
v 0.940000 0.137501 0.817744
v 0.940000 0.275001 0.817744
v 0.060000 0.137501 0.817744
v 0.060000 0.275001 0.817744
v 0.981250 0.137500 0.518748
v 0.981250 0.000000 0.518748
v 0.018750 0.137500 0.518748
v 0.018750 0.000000 0.518748
v 0.243804 0.550001 0.743803
v 0.756196 0.550001 0.743803
v 0.018750 0.000000 0.999998
v 0.981250 0.137500 0.999998
v 0.018750 0.137500 0.999998
v 0.981250 0.000000 0.999998
v 0.500000 0.000000 0.518748
v 0.500000 0.137500 0.518748
v 0.500000 0.000000 0.999998
v 0.500000 0.137500 0.999998
v 1.118511 0.412501 1.000287
v 1.118511 0.550001 1.000287
v -0.118511 0.412501 1.002540
v -0.118511 0.550001 1.002540
v 1.050004 0.275000 1.000411
v 1.050004 0.412500 1.000412
v -0.050004 0.275000 1.002415
v -0.050004 0.412500 1.002415
v 0.940000 0.137501 1.000612
v 0.940000 0.275001 1.000612
v 0.060000 0.137501 1.002215
v 0.060000 0.275001 1.002215
v 0.018750 0.000000 1.002290
v 0.981250 0.137500 1.000537
v 0.243804 0.550001 1.001880
v 0.756196 0.550001 1.000947
v 0.018750 0.137500 1.002290
v 0.981250 0.000000 1.000537
v 0.500000 0.000000 1.001413
v 0.500000 0.137500 1.001413
vn -0.0000 -0.0000 -1.0000
vn 0.7071 -0.0000 -0.7071
vn 0.0018 -0.0000 1.0000
vn -0.0000 1.0000 -0.0000
vn -1.0000 -0.0000 -0.0000
vn -0.7071 -0.0000 -0.7071
vn 1.0000 -0.0000 -0.0000
vn -0.0000 -1.0000 -0.0000
vt 0.083094 0.673915
vt 0.221710 0.165655
vt 0.221710 0.673915
vt 0.724813 0.673915
vt 0.863430 0.165655
vt 0.863430 0.673915
vt 0.375040 0.999960
vt 0.531277 0.000040
vt 0.531277 0.999960
vt 0.559488 0.921802
vt 0.559488 0.559488
vt 0.921802 0.559488
vt 0.083094 0.422306
vt 0.221710 0.422306
vt 0.454483 0.583074
vt 0.598994 0.149543
vt 0.598994 0.583074
vt 0.598994 0.149543
vt 0.500033 0.707093
vt 0.500033 0.292907
vt 0.611180 0.000033
vt 0.812535 0.999965
vt 0.937525 0.000035
vt 0.937525 0.999965
vt 0.561436 0.368608
vt 0.705947 0.149543
vt 0.705947 0.368608
vt 0.668390 0.903934
vt 0.812900 0.470403
vt 0.812900 0.903934
vt 0.083517 0.489819
vt 0.225107 0.135844
vt 0.225107 0.489819
vt 0.725236 0.596772
vt 0.866826 0.242798
vt 0.866826 0.596772
vt 0.832190 0.208031
vt 0.973780 0.028891
vt 0.973780 0.208031
vt 0.511330 0.810679
vt 0.652920 0.456704
vt 0.652920 0.810679
vt 0.542644 0.562500
vt 0.671263 0.048025
vt 0.671263 0.562500
vt 0.114831 0.562500
vt 0.243450 0.048024
vt 0.243450 0.562500
vt 0.439599 0.498109
vt 0.079111 0.757492
vt 0.079111 0.497446
vt 0.078198 0.559488
vt 0.440512 0.559488
vt 0.440512 0.921802
vt 0.757492 0.920889
vt 0.242509 0.560401
vt 0.757492 0.560401
vt 0.649597 0.951975
vt 0.778216 0.437500
vt 0.778216 0.951975
vt 0.981248 0.981248
vt 0.500000 0.500000
vt 0.981248 0.500000
vt 0.542644 0.439950
vt 0.671263 0.437500
vt 0.671263 0.439950
vt 0.018752 0.981248
vt 0.500000 0.981248
vt 0.981248 0.500000
vt 0.500000 0.018752
vt 0.981248 0.018752
vt 0.114831 0.951976
vt 0.243450 0.437500
vt 0.243450 0.951976
vt 0.499462 0.981248
vt 0.498585 0.500000
vt 0.018752 0.500000
vt 0.500000 0.498585
vt 0.243806 0.756194
vt 0.756194 0.499052
vt 0.756194 0.756194
vt 0.649597 0.562500
vt 0.778216 0.561924
vt 0.778216 0.562500
vt 0.981248 0.499462
vt 0.497708 0.018752
vt 0.497784 0.939998
vt 0.499386 0.060002
vt 0.939998 0.682253
vt 0.190470 0.917633
vt 0.332060 0.740049
vt 0.332060 0.917633
vt 0.939998 0.682253
vt 0.682253 0.939998
vt 0.499386 0.939998
vt 0.142884 0.500000
vt 0.000038 0.500000
vt 0.142884 0.000038
vt 0.497583 1.050002
vt 0.499587 -0.050001
vt 1.050002 0.727818
vt 0.454483 0.690027
vt 0.598994 0.472868
vt 0.598994 0.690027
vt 0.704570 0.006124
vt 0.993876 0.295430
vt 0.993876 0.500371
vt 0.920889 0.242508
vt 0.560401 0.500290
vt 0.560401 0.242508
vt 0.403954 0.780869
vt 0.542570 0.526452
vt 0.542570 0.780869
vt 0.991069 0.703407
vt 0.703408 0.991069
vt 0.499771 0.991069
vt 0.083094 0.165655
vt 0.724813 0.165655
vt 0.375040 0.000040
vt 0.454483 0.149543
vt 0.454483 0.149543
vt 0.500033 0.000033
vt 0.611180 0.999967
vt 0.500033 0.999967
vt 0.812535 0.000035
vt 0.561436 0.149543
vt 0.668390 0.470403
vt 0.083517 0.135844
vt 0.725236 0.242798
vt 0.832190 0.028891
vt 0.511330 0.456704
vt 0.542644 0.048025
vt 0.114831 0.048024
vt 0.439599 0.757492
vt 0.242509 0.920889
vt 0.649597 0.437500
vt 0.542644 0.437500
vt 0.114831 0.437500
vt 0.018752 0.497708
vt 0.243806 0.498118
vt 0.649597 0.561924
vt 0.682253 0.060002
vt 0.939998 0.317747
vt 0.682253 0.939998
vt 0.190470 0.740049
vt 0.939998 0.317747
vt 0.497784 0.060002
vt 0.142884 0.999962
vt 0.000038 0.999962
vt 0.000038 0.000038
vt 0.727818 -0.050001
vt 1.050001 0.272182
vt 0.727818 1.050002
vt 0.454483 0.472868
vt 0.006124 0.295430
vt 0.295430 0.006124
vt 0.006124 0.502170
vt 0.920889 0.500953
vt 0.403954 0.526452
vt 0.703408 0.008931
vt 0.991069 0.296592
vt 0.497982 0.008931
s 0
usemtl ionic_base
f 2/1/1 3/2/1 1/3/1
f 4/4/2 5/5/2 3/6/2
f 48/7/3 49/8/3 47/9/3
f 4/10/4 30/11/4 6/12/4
f 42/13/5 7/2/5 41/14/5
f 8/4/6 1/5/6 7/6/6
f 10/15/1 11/16/1 9/17/1
f 12/15/2 13/18/2 11/17/2
f 54/19/3 53/20/3 41/21/3
f 44/22/3 45/23/3 43/24/3
f 46/25/5 15/26/5 45/27/5
f 16/28/6 9/29/6 15/30/6
f 18/31/1 19/32/1 17/33/1
f 20/34/2 21/35/2 19/36/2
f 50/37/5 23/38/5 49/39/5
f 24/40/6 17/41/6 23/42/6
f 33/43/5 28/44/5 31/45/5
f 36/46/1 26/47/1 35/48/1
f 53/49/4 8/50/4 42/51/4
f 8/52/4 29/53/4 2/54/4
f 29/55/4 4/56/4 2/57/4
f 25/58/7 34/59/7 26/60/7
f 26/61/8 37/62/8 35/63/8
f 55/64/5 31/65/5 51/66/5
f 27/67/4 38/62/4 36/68/4
f 36/68/4 32/69/4 25/61/4
f 35/63/8 31/70/8 28/71/8
f 27/72/1 35/73/1 28/74/1
f 37/62/8 56/75/8 57/76/8
f 33/77/4 58/78/4 38/62/4
f 29/79/4 54/80/4 30/81/4
f 32/82/7 56/83/7 34/84/7
f 38/62/4 52/85/4 32/69/4
f 31/70/8 57/76/8 51/86/8
f 50/87/4 48/88/4 18/89/4
f 22/90/7 47/91/7 21/92/7
f 19/93/8 21/94/8 47/95/8
f 58/96/3 57/97/3 52/98/3
f 46/99/4 44/100/4 10/101/4
f 14/102/7 43/103/7 13/104/7
f 11/105/8 13/106/8 43/107/8
f 30/108/4 40/109/4 6/110/4
f 6/111/7 39/112/7 5/113/7
f 3/114/8 5/115/8 39/116/8
f 2/1/1 4/117/1 3/2/1
f 4/4/2 6/118/2 5/5/2
f 48/7/3 50/119/3 49/8/3
f 42/13/5 8/117/5 7/2/5
f 8/4/6 2/118/6 1/5/6
f 10/15/1 12/120/1 11/16/1
f 12/15/2 14/121/2 13/18/2
f 53/20/3 42/122/3 41/21/3
f 41/21/3 39/123/3 54/19/3
f 39/123/3 40/124/3 54/19/3
f 44/22/3 46/125/3 45/23/3
f 46/25/5 16/126/5 15/26/5
f 16/28/6 10/127/6 9/29/6
f 18/31/1 20/128/1 19/32/1
f 20/34/2 22/129/2 21/35/2
f 50/37/5 24/130/5 23/38/5
f 24/40/6 18/131/6 17/41/6
f 33/43/5 27/132/5 28/44/5
f 36/46/1 25/133/1 26/47/1
f 53/49/4 29/134/4 8/50/4
f 29/55/4 30/135/4 4/56/4
f 25/58/7 32/136/7 34/59/7
f 26/61/8 34/68/8 37/62/8
f 55/64/5 33/137/5 31/65/5
f 27/67/4 33/77/4 38/62/4
f 36/68/4 38/62/4 32/69/4
f 35/63/8 37/62/8 31/70/8
f 27/72/1 36/138/1 35/73/1
f 37/62/8 34/68/8 56/75/8
f 33/77/4 55/139/4 58/78/4
f 29/79/4 53/140/4 54/80/4
f 32/82/7 52/141/7 56/83/7
f 38/62/4 58/78/4 52/85/4
f 31/70/8 37/62/8 57/76/8
f 22/142/4 20/143/4 48/88/4
f 20/143/4 18/89/4 48/88/4
f 18/89/4 24/144/4 50/87/4
f 22/90/7 48/145/7 47/91/7
f 23/142/8 17/146/8 49/147/8
f 17/146/8 19/93/8 47/95/8
f 49/147/8 17/146/8 47/95/8
f 58/96/3 55/148/3 51/149/3
f 57/97/3 56/150/3 52/98/3
f 58/96/3 51/149/3 57/97/3
f 14/151/4 12/152/4 44/100/4
f 12/152/4 10/101/4 44/100/4
f 10/101/4 16/153/4 46/99/4
f 14/102/7 44/154/7 43/103/7
f 15/155/8 9/156/8 45/157/8
f 9/156/8 11/105/8 43/107/8
f 45/157/8 9/156/8 43/107/8
f 30/108/4 54/158/4 40/109/4
f 6/111/7 40/159/7 39/112/7
f 7/160/8 1/161/8 41/162/8
f 1/161/8 3/114/8 39/116/8
f 41/162/8 1/161/8 39/116/8
