# Blender 5.1.2
# www.blender.org
mtllib medium_ionic_half_capital.mtl
o ionic_capital_medium
v -0.015627 0.922188 0.326250
v -0.015627 0.664375 0.326250
v 1.015623 0.922188 0.326250
v 1.015623 0.664375 0.326250
v -0.084381 0.532032 0.757942
v -0.084381 0.669532 0.757942
v 0.257940 0.532032 0.415621
v 0.257940 0.669532 0.415621
v 0.742056 0.532032 0.415621
v 0.742056 0.669532 0.415621
v 1.084377 0.532032 0.757942
v 1.084377 0.669532 0.757942
v 0.811101 0.839678 0.480938
v 0.811101 0.839678 0.309063
v 0.734929 0.655782 0.480938
v 0.734929 0.655782 0.309063
v 0.811101 0.471885 0.480937
v 0.811101 0.471885 0.309062
v 0.994998 0.395713 0.480937
v 0.994998 0.395713 0.309062
v 1.178894 0.471885 0.480938
v 1.178894 0.471885 0.309062
v 1.255066 0.655782 0.480937
v 1.255066 0.655782 0.309063
v 1.178894 0.839678 0.480938
v 1.178894 0.839678 0.309063
v 0.994998 0.915850 0.480938
v 0.994998 0.915850 0.309063
v -0.178902 0.839678 0.480938
v -0.178902 0.839678 0.309063
v -0.255074 0.655782 0.480938
v -0.255074 0.655782 0.309063
v -0.178902 0.471885 0.480937
v -0.178902 0.471885 0.309062
v 0.004995 0.395713 0.480937
v 0.004995 0.395713 0.309062
v 0.188891 0.471885 0.480938
v 0.188891 0.471885 0.309062
v 0.265063 0.655782 0.480938
v 0.265063 0.655782 0.309063
v 0.188891 0.839678 0.480938
v 0.188891 0.839678 0.309063
v 0.004995 0.915850 0.480938
v 0.004995 0.915850 0.309063
v -0.124843 0.785619 0.470625
v -0.178623 0.655782 0.470625
v -0.124843 0.525944 0.470625
v 0.004995 0.472164 0.470625
v 0.134832 0.525944 0.470625
v 0.188612 0.655782 0.470625
v 0.134832 0.785619 0.470625
v 0.004995 0.839399 0.470625
v 0.865156 0.785619 0.470625
v 0.811376 0.655782 0.470625
v 0.865156 0.525944 0.470625
v 0.994994 0.472164 0.470625
v 1.124831 0.525944 0.470625
v 1.178611 0.655782 0.470625
v 1.124831 0.785619 0.470625
v 0.994994 0.839399 0.470625
v -0.058596 1.001250 0.312500
v -0.058596 0.915313 0.312500
v 1.058592 1.001250 0.312500
v 1.058592 0.915313 0.312500
v -0.015627 0.664375 1.002190
v 1.015623 0.922188 1.000591
v 1.015623 0.664375 1.000591
v -0.015627 0.922188 1.002190
v -0.084381 0.532032 1.002297
v 1.084377 0.532032 1.000485
v -0.124843 0.785619 1.002359
v -0.178623 0.655782 1.002443
v -0.124843 0.525944 1.002359
v 0.004995 0.472164 1.002158
v 0.134832 0.525944 1.001957
v 0.188612 0.655782 1.001873
v 0.134832 0.785619 1.001957
v 0.004994 0.839399 1.002158
v 0.865156 0.785619 1.000824
v 0.811376 0.655782 1.000908
v 0.865156 0.525944 1.000824
v 0.994994 0.472164 1.000623
v 1.124831 0.525944 1.000422
v 1.178611 0.655782 1.000338
v 1.124831 0.785619 1.000422
v 0.994994 0.839399 1.000623
v -0.058596 0.915313 1.002257
v 1.058592 1.001250 1.000525
v 1.058592 0.915313 1.000525
v -0.058596 1.001250 1.002257
vn 0.0016 -0.0000 1.0000
vn -0.0000 -1.0000 -0.0000
vn -0.0000 -0.0000 -1.0000
vn -1.0000 -0.0000 -0.0000
vn -0.7071 -0.0000 -0.7071
vn 0.7071 -0.0000 -0.7071
vn -0.9239 0.3827 -0.0000
vn -0.9239 -0.3827 -0.0000
vn -0.3827 -0.9239 -0.0000
vn 0.3827 -0.9239 -0.0000
vn 0.9239 -0.3827 -0.0000
vn 0.9239 0.3827 -0.0000
vn 0.3827 0.9239 -0.0000
vn -0.3827 0.9239 -0.0000
vn -0.0000 -0.0000 1.0000
vn -0.0000 1.0000 -0.0000
vn 1.0000 -0.0000 -0.0000
vn 0.0015 -0.0000 1.0000
vt 0.330359 0.429733
vt 0.570266 0.330359
vt 0.669640 0.570267
vt 0.125050 0.000050
vt 0.375025 0.999950
vt 0.125050 0.999950
vt 0.375000 0.500000
vt 0.249890 0.750000
vt 0.249594 0.500000
vt 1.000000 1.000000
vt -0.000000 0.750000
vt 1.000000 0.750000
vt 0.501625 1.000000
vt 0.501625 0.750000
vt 1.004651 0.627608
vt 0.504651 0.502608
vt 1.004651 0.502608
vt 0.500000 0.625000
vt 0.000000 0.500000
vt 0.500000 0.500000
vt 0.754651 0.627608
vt 0.254651 0.502608
vt 0.754651 0.502608
vt 0.292935 0.999900
vt 0.000100 0.707065
vt 0.000100 0.499585
vt 0.562500 0.437500
vt 0.375000 0.625000
vt 0.375000 0.437500
vt 0.312500 0.187500
vt 0.125000 0.375000
vt 0.125000 0.187500
vt 0.812500 0.437500
vt 0.625000 0.625000
vt 0.625000 0.437500
vt 0.625000 0.187500
vt 0.812500 0.375000
vt 0.625000 0.375000
vt 0.750000 0.062500
vt 0.937500 0.250000
vt 0.750000 0.250000
vt 0.000000 0.687500
vt 0.187500 0.875000
vt 0.000000 0.875000
vt 0.721893 0.280001
vt 0.719999 0.721894
vt 0.278106 0.719999
vt 0.937500 0.687500
vt 0.750000 0.875000
vt 0.750000 0.687500
vt 0.624239 0.200060
vt 0.799940 0.375761
vt 0.799940 0.624239
vt 0.562500 0.187500
vt 0.375000 0.375000
vt 0.375000 0.187500
vt 0.937500 0.562500
vt 0.750000 0.750000
vt 0.750000 0.562500
vt 0.625000 0.687500
vt 0.812500 0.875000
vt 0.625000 0.875000
vt 0.812500 0.187500
vt 0.562500 0.625000
vt 0.719669 0.722221
vt 0.722221 0.280331
vt 0.280331 0.277779
vt 0.375761 0.799940
vt 0.200060 0.375761
vt 0.497772 0.437500
vt 1.000000 0.562500
vt 0.497693 0.562500
vt 1.000000 0.687500
vt 0.497772 0.812500
vt 0.497693 0.687500
vt 1.000000 0.062500
vt 0.497962 0.187500
vt 0.497772 0.062500
vt 1.000000 0.812500
vt 0.498152 0.937500
vt 0.497962 0.812500
vt 1.000000 0.437500
vt 0.498231 0.562500
vt 0.498152 0.437500
vt 0.414228 0.498231
vt 0.000065 0.999936
vt 0.000064 0.498152
vt 0.414228 0.498152
vt 0.000064 0.999936
vt 0.000064 0.497962
vt 1.000000 0.312500
vt 0.497772 0.312500
vt 0.000064 0.500779
vt 0.414228 0.000064
vt 0.414228 0.500857
vt 0.499221 0.562500
vt 0.499143 0.437500
vt 1.000000 0.187500
vt 0.499411 0.312500
vt 0.499221 0.187500
vt 0.499602 0.937500
vt 0.499411 0.812500
vt 0.499680 0.937500
vt 0.499602 0.812500
vt 0.499680 0.062500
vt 0.499602 0.187500
vt 0.499602 0.687500
vt 0.414228 0.499412
vt 0.000064 0.999936
vt 0.000064 0.499221
vt 0.249905 0.750000
vt 0.249590 0.500000
vt 1.000000 0.125000
vt 0.000000 0.062500
vt 0.501641 0.250000
vt 0.000000 0.187500
vt 0.501641 0.187500
vt 0.000090 0.999910
vt 0.812444 0.499619
vt 0.812444 0.999910
vt 0.499619 0.250000
vt 1.000000 0.250000
vt 0.625000 0.500000
vt 0.750110 0.750000
vt 0.625000 0.750000
vt 1.000000 0.375000
vt 0.499561 0.125000
vt 0.330359 0.429733
vt 0.570267 0.330359
vt 0.669640 0.570268
vt 0.738260 0.999966
vt 0.738260 0.000034
vt 0.625034 0.058856
vt 0.951946 0.999972
vt 0.875028 0.000028
vt 0.951946 0.000028
vt 0.429732 0.669641
vt 0.330359 0.570268
vt 0.429732 0.330359
vt 0.669640 0.429732
vt 0.570267 0.669641
vt 0.375025 0.000050
vt 0.375000 0.750000
vt -0.000000 1.000000
vt 0.504651 0.627608
vt 0.000000 0.625000
vt 0.254651 0.627608
vt 0.999900 0.498035
vt 0.707065 0.999900
vt 0.999900 0.707065
vt 0.312500 0.375000
vt 0.812500 0.625000
vt 0.937500 0.062500
vt 0.187500 0.687500
vt 0.812340 0.508958
vt 0.491042 0.812340
vt 0.187660 0.491042
vt 0.280001 0.278106
vt 0.508958 0.187660
vt 0.937500 0.875000
vt 0.624239 0.799940
vt 0.200060 0.624239
vt 0.375761 0.200060
vt 0.562500 0.375000
vt 0.937500 0.750000
vt 0.812500 0.687500
vt 0.187586 0.505815
vt 0.277779 0.719669
vt 0.505815 0.812414
vt 0.812414 0.494185
vt 0.494185 0.187586
vt 1.000000 0.937500
vt 0.414228 0.999936
vt 0.414228 0.999936
vt 0.000064 0.000064
vt 0.414228 0.999936
vt 0.000000 0.125000
vt 0.000000 0.250000
vt 0.000090 0.498359
vt 0.499618 0.312500
vt 0.750406 0.500000
vt 0.499561 0.375000
vt 0.429732 0.669641
vt 0.330359 0.570268
vt 0.429732 0.330359
vt 0.669640 0.429733
vt 0.570267 0.669641
vt 0.625034 0.941144
vt 0.875028 0.999972
s 0
usemtl all
f 78/1/1 72/2/1 74/3/1
f 68/4/1 67/5/1 66/6/1
f 2/7/2 67/8/2 65/9/2
f 68/13/4 2/11/4 65/14/4
f 9/24/2 11/25/2 70/26/2
f 14/27/7 15/28/7 13/29/7
f 16/30/8 17/31/8 15/32/8
f 18/33/9 19/34/9 17/35/9
f 19/36/10 22/37/10 21/38/10
f 21/39/11 24/40/11 23/41/11
f 23/42/12 26/43/12 25/44/12
f 26/48/13 27/49/13 25/50/13
f 28/27/14 13/28/14 27/29/14
f 23/51/15 25/52/15 27/53/15
f 30/54/7 31/55/7 29/56/7
f 32/57/8 33/58/8 31/59/8
f 34/30/9 35/31/9 33/32/9
f 35/60/10 38/61/10 37/62/10
f 38/63/11 39/38/11 37/36/11
f 39/29/12 42/64/12 41/28/12
f 42/27/13 43/28/13 41/29/13
f 44/27/14 29/28/14 43/29/14
f 43/53/15 31/68/15 35/69/15
f 71/70/7 46/71/7 72/72/7
f 46/73/8 73/74/8 72/75/8
f 47/76/9 74/77/9 73/78/9
f 48/79/10 75/80/10 74/81/10
f 49/82/11 76/83/11 75/84/11
f 76/85/12 51/86/12 77/87/12
f 77/88/13 52/89/13 78/90/13
f 78/77/14 45/91/14 71/92/14
f 79/93/7 54/94/7 80/95/7
f 54/82/8 81/96/8 80/97/8
f 55/98/9 82/99/9 81/100/9
f 56/79/10 83/101/10 82/102/10
f 57/79/11 84/103/11 83/104/11
f 84/105/12 59/98/12 85/106/12
f 85/107/13 60/79/13 86/102/13
f 86/108/14 53/109/14 79/110/14
f 62/7/2 89/111/2 87/112/2
f 61/118/16 88/119/16 63/120/16
f 1/123/16 66/124/16 3/125/16
f 3/126/17 67/127/17 4/113/17
f 86/128/1 80/129/1 82/130/1
f 69/131/1 70/132/1 67/133/1
f 90/134/1 89/135/1 88/136/1
f 76/137/1 77/138/1 78/1/1
f 78/1/18 71/139/18 72/2/18
f 72/2/1 73/140/1 74/3/1
f 74/3/1 75/141/1 76/137/1
f 76/137/1 78/1/1 74/3/1
f 68/4/1 65/142/1 67/5/1
f 2/7/2 4/143/2 67/8/2
f 68/13/4 1/144/4 2/11/4
f 70/26/2 69/148/2 7/149/2
f 69/148/2 5/150/2 7/149/2
f 70/26/2 7/149/2 9/24/2
f 14/27/7 16/64/7 15/28/7
f 16/30/8 18/151/8 17/31/8
f 18/33/9 20/152/9 19/34/9
f 19/36/10 20/63/10 22/37/10
f 21/39/11 22/153/11 24/40/11
f 23/42/12 24/154/12 26/43/12
f 26/48/13 28/160/13 27/49/13
f 28/27/14 14/64/14 13/28/14
f 27/53/15 13/161/15 15/68/15
f 15/68/15 17/162/15 27/53/15
f 17/162/15 19/69/15 27/53/15
f 19/69/15 21/163/15 27/53/15
f 21/163/15 23/51/15 27/53/15
f 30/54/7 32/164/7 31/55/7
f 32/57/8 34/165/8 33/58/8
f 34/30/9 36/151/9 35/31/9
f 35/60/10 36/166/10 38/61/10
f 38/63/11 40/37/11 39/38/11
f 39/29/12 40/27/12 42/64/12
f 42/27/13 44/64/13 43/28/13
f 44/27/14 30/64/14 29/28/14
f 43/53/15 29/161/15 31/68/15
f 31/68/15 33/162/15 35/69/15
f 35/69/15 37/163/15 43/53/15
f 37/163/15 39/51/15 43/53/15
f 39/51/15 41/52/15 43/53/15
f 71/70/7 45/82/7 46/71/7
f 46/73/8 47/79/8 73/74/8
f 47/76/9 48/98/9 74/77/9
f 48/79/10 49/172/10 75/80/10
f 49/82/11 50/71/11 76/83/11
f 76/85/12 50/173/12 51/86/12
f 77/88/13 51/174/13 52/89/13
f 78/77/14 52/98/14 45/91/14
f 79/93/7 53/175/7 54/94/7
f 54/82/8 55/71/8 81/96/8
f 55/98/9 56/91/9 82/99/9
f 56/79/10 57/172/10 83/101/10
f 57/79/11 58/172/11 84/103/11
f 84/105/12 58/76/12 59/98/12
f 85/107/13 59/73/13 60/79/13
f 86/108/14 60/176/14 53/109/14
f 62/7/2 64/143/2 89/111/2
f 61/118/16 90/179/16 88/119/16
f 1/123/16 68/181/16 66/124/16
f 3/126/17 66/182/17 67/127/17
f 84/183/1 85/184/1 86/128/1
f 86/128/18 79/185/18 80/129/18
f 80/129/1 81/186/1 82/130/1
f 82/130/1 83/187/1 84/183/1
f 84/183/1 86/128/1 82/130/1
f 69/131/1 67/133/1 65/188/1
f 90/134/1 87/189/1 89/135/1
usemtl volute
f 18/45/3 14/46/3 26/47/3
f 42/65/3 38/66/3 34/67/3
f 18/45/3 16/155/3 14/46/3
f 14/46/3 28/156/3 26/47/3
f 26/47/3 24/157/3 22/158/3
f 22/158/3 20/159/3 26/47/3
f 20/159/3 18/45/3 26/47/3
f 34/67/3 32/167/3 30/168/3
f 30/168/3 44/169/3 34/67/3
f 44/169/3 42/65/3 34/67/3
f 42/65/3 40/170/3 38/66/3
f 38/66/3 36/171/3 34/67/3
usemtl egg
f 1/10/3 4/11/3 2/12/3
f 6/15/5 7/16/5 5/17/5
f 8/18/3 9/19/3 7/20/3
f 10/21/6 11/22/6 9/23/6
f 61/113/3 64/114/3 62/76/3
f 90/115/4 62/116/4 87/117/4
f 63/91/17 89/121/17 64/122/17
f 1/10/3 3/144/3 4/11/3
f 6/15/5 8/145/5 7/16/5
f 8/18/3 10/146/3 9/19/3
f 10/21/6 12/147/6 11/22/6
f 61/113/3 63/177/3 64/114/3
f 90/115/4 61/178/4 62/116/4
f 63/91/17 88/180/17 89/121/17
