# Blender 5.1.2
# www.blender.org
mtllib medium_roman_ionic_half_capital.mtl
o roman
v 0.500000 0.987128 0.499168
v 0.500000 1.073065 0.499168
v -0.000832 0.987128 1.000000
v 1.000832 1.073065 1.000000
v -0.000832 1.073065 1.000000
v 1.000832 0.987128 1.000000
v 0.500000 0.987128 1.000000
v 0.500000 1.073065 1.000000
v 1.152177 1.073065 0.442596
v 1.057404 1.073065 0.347823
v 1.057404 0.987128 0.347823
v 1.152177 0.987128 0.442596
v -0.057405 1.073065 0.347823
v -0.152177 1.073065 0.442596
v -0.152177 0.987128 0.442596
v -0.057405 0.987128 0.347823
v 0.257942 0.603847 0.415621
v 0.257942 0.741347 0.415621
v 0.742058 0.603847 0.415621
v 0.742058 0.741347 0.415621
v 1.084379 0.603847 0.757942
v 1.084379 0.741347 0.757942
v -0.084379 0.603847 0.757942
v -0.084379 0.741347 0.757942
v -0.240802 0.911493 0.380731
v -0.119268 0.911493 0.259197
v -0.294664 0.727597 0.326869
v -0.173130 0.727597 0.205335
v -0.240802 0.543700 0.380731
v -0.119268 0.543700 0.259197
v -0.110767 0.467528 0.510765
v 0.010767 0.467528 0.389231
v 0.019267 0.543700 0.640799
v 0.140801 0.543700 0.519265
v 0.073129 0.727597 0.694661
v 0.194663 0.727597 0.573127
v 0.019267 0.911493 0.640799
v 0.140801 0.911493 0.519265
v -0.110767 0.987665 0.510765
v 0.010767 0.987665 0.389231
v 1.119269 0.911493 0.259197
v 1.240803 0.911493 0.380731
v 1.173131 0.727597 0.205335
v 1.294665 0.727597 0.326869
v 1.119269 0.543700 0.259197
v 1.240803 0.543700 0.380731
v 0.989235 0.467528 0.389231
v 1.110769 0.467528 0.510765
v 0.859201 0.543700 0.519265
v 0.980735 0.543700 0.640799
v 0.805339 0.727597 0.573127
v 0.926872 0.727597 0.694661
v 0.859200 0.911493 0.519265
v 0.980734 0.911493 0.640799
v 0.989235 0.987665 0.389231
v 1.110769 0.987665 0.510765
v 1.053281 0.994003 0.446719
v 1.053281 0.736190 0.446719
v -0.053282 0.994003 0.446719
v -0.053282 0.736190 0.446719
v 0.500000 0.736190 0.557257
v 0.500000 0.994003 0.557257
v 0.057257 0.736190 1.000000
v 0.942742 0.994003 1.000000
v 0.057257 0.994003 1.000000
v 0.942742 0.736190 1.000000
v 0.500000 0.736190 1.000000
v 0.500000 0.994003 1.000000
v 1.084379 0.603847 1.000000
v 1.084379 0.741347 1.000000
v -0.084379 0.603847 1.000000
v -0.084379 0.741347 1.000000
vn 0.7071 -0.0000 -0.7071
vn -0.7071 -0.0000 -0.7071
vn 0.9651 -0.0000 0.2620
vn -0.2620 -0.0000 -0.9651
vn -0.0000 1.0000 -0.0000
vn -0.0000 -1.0000 -0.0000
vn -0.0000 -0.0000 1.0000
vn 0.2620 -0.0000 -0.9651
vn -0.9651 -0.0000 0.2620
vn -0.0000 -0.0000 -1.0000
vn -1.0000 -0.0000 -0.0000
vn -0.6533 0.3827 -0.6533
vn -0.6533 -0.3827 -0.6533
vn -0.2706 -0.9239 -0.2706
vn 0.2706 -0.9239 0.2706
vn 0.6533 -0.3827 0.6533
vn 0.6533 0.3827 0.6533
vn 0.2706 0.9239 0.2706
vn -0.2706 0.9239 -0.2706
vn -0.7071 -0.0000 0.7071
vn 0.6533 0.3827 -0.6533
vn 0.6533 -0.3827 -0.6533
vn 0.2706 -0.9239 -0.2706
vn -0.2706 -0.9239 0.2706
vn -0.6533 -0.3827 0.6533
vn -0.6533 0.3827 0.6533
vn 0.7071 -0.0000 0.7071
vn -0.2706 0.9239 0.2706
vn 0.2706 0.9239 -0.2706
vn -0.9806 -0.0000 0.1959
vn -0.1959 -0.0000 -0.9806
vn 0.1959 -0.0000 -0.9806
vn 0.9806 -0.0000 0.1959
vn 1.0000 -0.0000 -0.0000
vt 0.687500 0.875000
vt 0.562500 0.812500
vt 0.687500 0.812500
vt 0.437500 0.625000
vt 0.312500 0.562500
vt 0.437500 0.562500
vt 1.000000 0.062500
vt 0.500000 0.125000
vt 1.000000 0.125000
vt 0.500000 0.062500
vt 0.000000 0.125000
vt 0.789894 0.704788
vt 0.295212 0.704788
vt 0.295212 0.210106
vt 0.367115 0.484231
vt 0.375000 0.523654
vt 0.375000 0.625000
vt 0.562554 0.500000
vt 0.562554 0.000054
vt 0.853676 0.000054
vt 0.992672 0.999966
vt 0.875034 0.000034
vt 0.992672 0.000034
vt 0.085819 0.500000
vt 0.000029 0.500000
vt 0.085819 0.000029
vt 0.954788 0.872341
vt 0.872341 0.954788
vt 0.295212 0.789894
vt 0.250000 0.500000
vt 0.250000 0.625000
vt 0.125000 0.625000
vt 0.000000 0.500000
vt 0.437500 0.500000
vt 0.718750 0.625000
vt 0.500000 0.500000
vt 0.718750 0.500000
vt 0.937500 0.625000
vt 0.937500 0.500000
vt 0.000000 1.000000
vt 0.187500 0.750000
vt 0.187500 1.000000
vt 0.812500 0.375000
vt 0.625000 0.125000
vt 0.812500 0.125000
vt 0.687500 1.000000
vt 0.500000 0.750000
vt 0.687500 0.750000
vt 0.750000 0.875000
vt 0.937500 0.875000
vt 0.000000 0.625000
vt 0.187500 0.375000
vt 0.187500 0.625000
vt 0.414228 0.000064
vt 0.000065 0.999936
vt 0.000064 0.000064
vt 0.228893 0.275767
vt 0.228892 0.810170
vt 0.763295 0.810170
vt 0.414228 0.999936
vt 0.000064 0.000064
vt 0.414228 0.000064
vt 0.187500 0.500000
vt 0.228892 0.275767
vt 0.496094 0.165089
vt 0.496094 0.920848
vt 0.375000 0.750000
vt 0.562500 0.500000
vt 0.562500 0.750000
vt 0.750000 0.375000
vt 0.937500 0.375000
vt 0.187500 0.250000
vt 0.625000 0.625000
vt 0.812500 0.625000
vt 0.414228 0.999936
vt 0.763295 0.275767
vt 0.437500 0.875000
vt 0.873973 0.542969
vt 0.625000 1.000000
vt -0.000000 0.750000
vt 0.625000 0.750000
vt 1.000000 1.000000
vt 0.375000 0.750000
vt 1.000000 0.750000
vt 0.750000 0.500000
vt 0.625000 0.500000
vt 0.125000 0.500000
vt 0.375000 1.000000
vt 0.875000 0.625000
vt 0.750000 0.625000
vt 0.500000 0.999900
vt 0.500000 0.000100
vt 0.999900 0.707065
vt 0.218750 0.500000
vt 0.500000 0.999900
vt 0.500000 0.000100
vt 0.999900 0.707065
vt 0.562500 0.875000
vt 0.312500 0.625000
vt 0.000000 0.062500
vt 0.872341 0.045212
vt 0.954788 0.127659
vt 0.853677 0.500000
vt 0.853677 0.999946
vt 0.562554 0.999946
vt 0.875034 0.999966
vt 0.085819 0.999971
vt 0.000029 0.999971
vt 0.000029 0.000029
vt 0.295212 0.295212
vt 0.789894 0.295212
vt 0.125000 0.523654
vt 0.148654 0.500000
vt 0.500000 0.625000
vt 0.000000 0.750000
vt 0.625000 0.375000
vt 0.500000 1.000000
vt 0.000000 0.375000
vt 0.873974 0.542969
vt 0.496094 0.165089
vt 0.118214 0.542969
vt 0.496094 0.920848
vt 0.000064 0.999936
vt 0.763295 0.275767
vt 0.228892 0.810170
vt 0.118214 0.542969
vt 0.375000 0.500000
vt 0.000000 0.250000
vt 0.250000 0.875000
vt 0.875000 0.500000
vt 0.707065 0.000100
vt 0.999900 0.292934
vt 0.707065 0.999900
vt 0.218750 0.625000
vt 0.707065 0.000100
vt 0.999900 0.292935
vt 0.707065 0.999900
s 0
usemtl ionic_egg
f 9/7/3 6/8/3 12/9/3
f 2/10/4 11/11/4 1/8/4
f 11/15/6 12/16/6 6/17/6
f 13/7/8 1/8/8 16/9/8
f 5/10/9 15/11/9 3/8/9
f 1/30/6 7/31/6 3/32/6
f 18/4/10 19/33/10 17/34/10
f 20/4/1 21/33/1 19/34/1
f 72/35/11 23/36/11 71/37/11
f 24/38/2 17/36/2 23/39/2
f 65/79/30 60/80/30 63/81/30
f 62/79/31 58/80/31 61/81/31
f 59/82/32 61/83/32 60/84/32
f 62/85/5 64/73/5 57/86/5
f 61/30/6 63/32/6 60/87/6
f 58/84/33 64/88/33 66/83/33
f 61/30/6 66/17/6 67/31/6
f 62/85/5 65/89/5 68/90/5
f 22/4/34 69/94/34 21/34/34
f 9/7/3 4/10/3 6/8/3
f 2/10/4 10/100/4 11/11/4
f 7/31/6 1/30/6 6/17/6
f 1/30/6 11/15/6 6/17/6
f 13/7/8 2/10/8 1/8/8
f 5/10/9 14/100/9 15/11/9
f 3/32/6 15/112/6 16/113/6
f 16/113/6 1/30/6 3/32/6
f 18/4/10 20/51/10 19/33/10
f 20/4/1 22/51/1 21/33/1
f 72/35/11 24/114/11 23/36/11
f 24/38/2 18/114/2 17/36/2
f 65/79/30 59/40/30 60/80/30
f 62/79/31 57/40/31 58/80/31
f 59/82/32 62/88/32 61/83/32
f 62/85/5 68/90/5 64/73/5
f 61/30/6 67/31/6 63/32/6
f 58/84/33 57/82/33 64/88/33
f 61/30/6 58/127/6 66/17/6
f 62/85/5 59/130/5 65/89/5
f 22/4/34 70/134/34 69/94/34
usemtl ionic_volute
f 38/57/1 34/58/1 30/59/1
f 37/64/20 39/65/20 31/66/20
f 46/59/27 42/76/27 54/57/27
f 55/65/2 43/78/2 47/66/2
f 30/59/1 28/119/1 26/76/1
f 26/76/1 40/120/1 38/57/1
f 38/57/1 36/121/1 34/58/1
f 34/58/1 32/122/1 30/59/1
f 30/59/1 26/76/1 38/57/1
f 39/65/20 25/124/20 27/78/20
f 27/78/20 29/59/20 39/65/20
f 29/59/20 31/66/20 39/65/20
f 31/66/20 33/125/20 35/126/20
f 35/126/20 37/64/20 31/66/20
f 46/59/27 44/119/27 42/76/27
f 42/76/27 56/120/27 54/57/27
f 54/57/27 52/121/27 50/58/27
f 50/58/27 48/122/27 54/57/27
f 48/122/27 46/59/27 54/57/27
f 55/65/2 41/124/2 43/78/2
f 43/78/2 45/59/2 47/66/2
f 47/66/2 49/125/2 51/126/2
f 51/126/2 53/64/2 47/66/2
f 53/64/2 55/65/2 47/66/2
usemtl ionic_capital
f 12/1/1 10/2/1 9/3/1
f 16/4/2 14/5/2 13/6/2
f 2/12/5 8/13/5 4/14/5
f 67/18/7 66/19/7 64/20/7
f 69/21/7 72/22/7 71/23/7
f 8/24/7 7/25/7 4/26/7
f 13/27/5 14/28/5 5/29/5
f 26/40/12 27/41/12 25/42/12
f 27/43/13 30/44/13 29/45/13
f 29/46/14 32/47/14 31/48/14
f 32/49/15 33/38/15 31/50/15
f 34/51/16 35/52/16 33/53/16
f 35/54/17 38/55/17 37/56/17
f 38/60/18 39/61/18 37/62/18
f 39/41/19 26/33/19 25/63/19
f 42/67/21 43/68/21 41/69/21
f 43/38/22 46/70/22 45/71/22
f 46/33/23 47/72/23 45/63/23
f 48/73/24 49/43/24 47/74/24
f 49/46/25 52/47/25 51/48/25
f 52/75/26 53/56/26 51/54/26
f 54/60/28 55/61/28 53/62/28
f 55/77/29 42/31/29 41/4/29
f 72/91/5 70/92/5 18/93/5
f 69/95/6 71/96/6 19/97/6
f 12/1/1 11/98/1 10/2/1
f 16/4/2 15/99/2 14/5/2
f 4/14/5 9/101/5 10/102/5
f 10/102/5 2/12/5 4/14/5
f 64/20/7 68/103/7 67/18/7
f 68/103/7 65/104/7 67/18/7
f 65/104/7 63/105/7 67/18/7
f 69/21/7 70/106/7 72/22/7
f 8/24/7 5/107/7 3/108/7
f 7/25/7 6/109/7 4/26/7
f 8/24/7 3/108/7 7/25/7
f 8/110/5 2/111/5 5/29/5
f 2/111/5 13/27/5 5/29/5
f 26/40/12 28/115/12 27/41/12
f 27/43/13 28/116/13 30/44/13
f 29/46/14 30/117/14 32/47/14
f 32/49/15 34/90/15 33/38/15
f 34/51/16 36/118/16 35/52/16
f 35/54/17 36/75/17 38/55/17
f 38/60/18 40/123/18 39/61/18
f 39/41/19 40/115/19 26/33/19
f 42/67/21 44/127/21 43/68/21
f 43/38/22 44/90/22 46/70/22
f 46/33/23 48/128/23 47/72/23
f 48/73/24 50/116/24 49/43/24
f 49/46/25 50/117/25 52/47/25
f 52/75/26 54/55/26 53/56/26
f 54/60/28 56/123/28 55/61/28
f 55/77/29 56/129/29 42/31/29
f 22/131/5 20/132/5 70/92/5
f 20/132/5 18/93/5 70/92/5
f 18/93/5 24/133/5 72/91/5
f 23/135/6 17/136/6 71/96/6
f 17/136/6 19/97/6 71/96/6
f 19/97/6 21/137/6 69/95/6
