# Blender 5.1.2
# www.blender.org
mtllib medium_half_column_both.mtl
o column_medium
v 0.292892 0.000000 0.499996
v 0.292892 1.000000 0.499996
v 0.707108 0.000000 0.499996
v 0.707108 1.000000 0.499996
v 1.000004 0.000000 0.792892
v 1.000004 1.000000 0.792892
v -0.000004 0.000000 0.792892
v -0.000004 1.000000 0.792892
v 0.707108 1.750000 0.499996
v 0.292892 1.750000 0.499996
v 1.000004 1.750000 0.792892
v -0.000004 1.750000 0.792892
v 0.292892 -0.650000 0.499996
v 0.707108 -0.650000 0.499996
v 1.000004 -0.650000 0.792892
v -0.000004 -0.650000 0.792892
v 1.000004 0.000000 1.000000
v 1.000004 1.000000 1.000000
v -0.000004 0.000000 1.000000
v -0.000004 1.000000 1.000000
v 1.000004 1.750000 1.000000
v -0.000004 1.750000 1.000000
v 1.000004 -0.650000 1.000000
v -0.000004 -0.650000 1.000000
vn -0.0000 -0.0000 -1.0000
vn 0.7071 -0.0000 -0.7071
vn -0.0000 -0.0000 1.0000
vn 1.0000 -0.0000 -0.0000
vn -1.0000 -0.0000 -0.0000
vn -0.7071 -0.0000 -0.7071
vn -0.0000 -1.0000 -0.0000
vn -0.0000 1.0000 -0.0000
vt 0.375000 1.000000
vt 0.000000 -0.000000
vt 0.375000 -0.000000
vt 0.750000 1.000000
vt 0.375000 -0.000000
vt 0.750000 -0.000000
vt 1.000000 0.875000
vt 0.000000 0.125000
vt 1.000000 0.125000
vt 0.000096 0.999897
vt 0.999897 0.000104
vt 0.999897 0.999897
vt 1.000000 0.812500
vt 0.000000 0.187500
vt 1.000000 0.187500
vt 0.375000 0.000000
vt 0.187537 0.749963
vt 0.187537 0.000037
vt 0.187500 -0.000000
vt -0.000000 1.000000
vt 0.000074 0.000000
vt 0.375000 0.624926
vt 0.375000 0.000074
vt 0.750000 0.000000
vt 0.375074 0.749926
vt 0.375074 0.000074
vt 0.000074 0.749926
vt 0.000074 0.000074
vt 0.375074 0.000000
vt 0.750000 0.624926
vt 0.750000 0.000074
vt 0.562537 0.624963
vt 0.562537 0.000037
vt 0.500000 0.954028
vt 0.500000 0.045972
vt 0.954028 0.688065
vt 0.500000 0.954028
vt 0.500000 0.045972
vt 0.045972 0.688065
vt 0.375000 1.000000
vt 0.187500 0.000000
vt 0.375000 1.000000
vt 0.000000 0.875000
vt 0.000096 0.000104
vt 0.000000 0.812500
vt 0.375000 0.750000
vt 0.187500 1.000000
vt 0.000074 0.625000
vt 0.750000 0.750000
vt 0.375074 0.625000
vt 0.688065 0.045972
vt 0.954028 0.311935
vt 0.688065 0.954028
vt 0.311935 0.045972
vt 0.045972 0.311935
vt 0.311935 0.954028
vt 0.187500 1.000000
s 0
usemtl column_mat_top
f 23/34/7 24/35/7 14/36/7
f 22/37/8 21/38/8 10/39/8
f 16/51/7 13/52/7 24/35/7
f 13/52/7 14/36/7 24/35/7
f 14/36/7 15/53/7 23/34/7
f 11/54/8 9/55/8 21/38/8
f 9/55/8 10/39/8 21/38/8
f 10/39/8 12/56/8 22/37/8
usemtl column_mat_side
f 2/1/1 3/2/1 1/3/1
f 4/4/2 5/5/2 3/6/2
f 21/7/3 20/8/3 18/9/3
f 20/10/3 17/11/3 18/12/3
f 24/13/3 17/14/3 19/15/3
f 6/16/4 21/17/4 18/18/4
f 19/19/5 8/20/5 7/2/5
f 8/4/6 1/5/6 7/6/6
f 5/21/2 14/22/2 3/23/2
f 4/24/2 11/25/2 6/26/2
f 8/24/6 10/25/6 2/26/6
f 2/16/1 9/27/1 4/28/1
f 1/21/6 16/22/6 7/23/6
f 3/29/1 13/30/1 1/31/1
f 7/29/5 24/32/5 19/33/5
f 20/18/5 12/27/5 8/28/5
f 6/40/4 17/41/4 5/16/4
f 17/33/4 15/30/4 5/31/4
f 2/1/1 4/20/1 3/2/1
f 4/4/2 6/42/2 5/5/2
f 21/7/3 22/43/3 20/8/3
f 20/10/3 19/44/3 17/11/3
f 24/13/3 23/45/3 17/14/3
f 6/16/4 11/46/4 21/17/4
f 19/19/5 20/47/5 8/20/5
f 8/4/6 2/42/6 1/5/6
f 5/21/2 15/48/2 14/22/2
f 4/24/2 9/49/2 11/25/2
f 8/24/6 12/49/6 10/25/6
f 2/16/1 10/46/1 9/27/1
f 1/21/6 13/48/6 16/22/6
f 3/29/1 14/50/1 13/30/1
f 7/29/5 16/50/5 24/32/5
f 20/18/5 22/17/5 12/27/5
f 6/40/4 18/57/4 17/41/4
f 17/33/4 23/32/4 15/30/4
