# Blender 5.1.2
# www.blender.org
mtllib medium_roman_doric_half_capital.mtl
o Cube.295
v 0.244830 0.102934 0.383965
v 0.244830 0.232929 0.383965
v 0.755170 0.102934 0.383965
v 0.755170 0.232929 0.383965
v 1.116035 0.102934 0.744830
v 1.116035 0.232929 0.744830
v -0.116035 0.102934 0.744830
v -0.116035 0.232929 0.744830
v 0.708612 0.232929 0.496365
v 0.291388 0.232929 0.496365
v 1.003634 0.232929 0.791387
v -0.003635 0.232929 0.791387
v 0.708612 0.374935 0.496365
v 0.291388 0.374935 0.496365
v 1.003634 0.374935 0.791387
v -0.003635 0.374935 0.791387
v 0.724168 0.374935 0.458811
v 0.275832 0.374935 0.458811
v 1.041189 0.374935 0.775832
v -0.041189 0.374935 0.775832
v 0.724168 0.499191 0.458811
v 0.275832 0.499191 0.458811
v 1.041189 0.499191 0.775832
v -0.041189 0.499191 0.775832
v 0.775153 0.676699 0.335722
v 0.224847 0.676699 0.335722
v 1.164278 0.676699 0.724847
v -0.164278 0.676699 0.724847
v 0.775153 0.783204 0.335722
v 0.224847 0.783204 0.335722
v 1.164278 0.783204 0.724847
v -0.164278 0.783204 0.724847
v 1.285012 0.907459 0.214988
v -0.285012 0.907459 0.214988
v 1.285012 1.001659 0.214988
v -0.285012 1.001659 0.214988
v 1.164278 0.783201 0.335722
v -0.164278 0.783201 0.335722
v 1.285012 0.907459 1.000000
v -0.285012 0.907459 1.000000
v 1.285012 1.001659 1.000000
v -0.285012 1.001659 1.000000
v 1.164278 0.783201 1.000000
v -0.164278 0.783201 1.000000
v 0.500000 0.907459 0.214988
v 0.500000 1.001659 0.214988
v 0.500000 0.783201 0.335722
v 0.500000 0.783201 1.000000
v 0.500000 1.001659 1.000000
v 0.500000 0.102934 0.383965
v 0.500000 0.232929 0.383965
v 0.500000 0.232929 0.496365
v 0.500000 0.374935 0.496365
v 0.500000 0.374935 0.458811
v 0.500000 0.499191 0.458811
v 0.500000 0.676699 0.335722
v 0.500000 0.783204 0.335722
v 1.116035 0.102934 1.000000
v 1.116035 0.232929 1.000000
v 1.003634 0.232929 1.000000
v 1.003634 0.374935 1.000000
v 1.041189 0.374935 1.000000
v 1.041189 0.499191 1.000000
v 1.164278 0.676699 1.000000
v 1.164278 0.783204 1.000000
v -0.116035 0.102934 1.000000
v -0.116035 0.232929 1.000000
v -0.003635 0.232929 1.000000
v -0.003635 0.374935 1.000000
v -0.041189 0.374935 1.000000
v -0.041189 0.499191 1.000000
v -0.164278 0.676699 1.000000
v -0.164278 0.783204 1.000000
v 0.500000 0.102934 1.000000
v 1.116035 0.102934 1.000790
v -0.116035 0.232929 1.003026
v -0.003635 0.232929 1.002822
v -0.003635 0.374935 1.002822
v -0.041189 0.374935 1.002890
v -0.041189 0.499191 1.002890
v -0.164278 0.676699 1.003114
v -0.164278 0.783204 1.003114
v -0.285012 0.907459 1.003333
v -0.285012 1.001659 1.003333
v -0.164278 0.783201 1.003114
v 1.285012 0.907459 1.000483
v 1.285012 1.001659 1.000483
v 1.164278 0.783201 1.000702
v 0.500000 0.783201 1.001908
v 0.500000 1.001659 1.001908
v 1.116035 0.232929 1.000790
v 1.003634 0.232929 1.000994
v 1.003634 0.374935 1.000994
v 1.041189 0.374935 1.000926
v 1.041189 0.499191 1.000926
v 1.164278 0.676699 1.000702
v 1.164278 0.783204 1.000702
v -0.116035 0.102934 1.003026
v 0.500000 0.102934 1.001908
vn -0.0000 -0.0000 -1.0000
vn 0.7071 -0.0000 -0.7071
vn -0.0018 -0.0084 -1.0000
vn 0.0018 -0.0000 1.0000
vn -1.0000 -0.0000 -0.0000
vn -0.7071 -0.0000 -0.7071
vn -0.0000 -1.0000 -0.0000
vn -0.0000 1.0000 -0.0000
vn 1.0000 -0.0000 -0.0000
vn 0.5811 -0.5698 -0.5811
vn 0.8218 -0.5698 -0.0000
vn -0.0000 -0.5698 -0.8218
vn -0.5811 -0.5698 -0.5811
vn -0.7172 -0.6969 -0.0000
vn -0.0000 -0.6969 -0.7172
vn 0.7172 -0.6969 -0.0000
vn -0.8218 -0.5698 -0.0000
vn -0.0018 0.0261 -0.9997
vn -0.0018 0.0003 -1.0000
vt 0.457825 0.783999
vt 0.232248 0.671210
vt 0.457825 0.671210
vt 0.558403 0.659831
vt 0.107248 0.547042
vt 0.558403 0.547042
vt 0.511999 0.999923
vt 0.512499 0.999928
vt 0.511999 0.000136
vt 0.889170 0.076931
vt 0.889170 0.500000
vt 0.750037 0.500000
vt 0.478936 0.410663
vt 0.253359 0.297874
vt 0.478936 0.297874
vt 0.953265 0.659831
vt 0.502111 0.547042
vt 0.953265 0.547042
vt 0.562500 0.562500
vt 0.022979 0.562500
vt 0.022979 0.339023
vt 0.521990 0.150909
vt 0.646359 0.516312
vt 0.521990 0.516312
vt 0.677761 0.766154
vt 0.579883 0.357642
vt 0.677761 0.316632
vt 0.657066 0.441216
vt 0.559188 0.849729
vt 0.559188 0.482226
vt 0.179424 0.583199
vt 0.081547 0.766950
vt 0.081547 0.583199
vt 0.304008 0.292225
vt 0.206131 0.475977
vt 0.206131 0.292225
vt 0.591258 0.454228
vt 0.558368 0.271527
vt 0.591258 0.271527
vt 0.501295 0.276325
vt 0.625664 0.641728
vt 0.501295 0.641728
vt 0.272406 0.047020
vt 0.396775 0.229721
vt 0.272406 0.229721
vt 0.064627 0.317298
vt 0.188996 0.500000
vt 0.064627 0.500000
vt 0.466674 0.474923
vt 0.433784 0.292221
vt 0.466674 0.292221
vt 0.154590 0.849091
vt 0.121700 0.470065
vt 0.154590 0.483688
vt 0.549453 0.911175
vt 0.516563 0.532149
vt 0.549453 0.545772
vt 0.516066 0.448954
vt 0.624889 0.645279
vt 0.516066 0.645279
vt 0.558287 0.303675
vt 0.667110 0.500000
vt 0.558287 0.500000
vt 0.413425 0.344648
vt 0.522247 0.737299
vt 0.413425 0.737299
vt 0.329814 0.137701
vt 0.438637 0.530352
vt 0.329814 0.530352
vt 0.103677 0.466801
vt 0.196954 0.948756
vt 0.103677 0.948756
vt 0.614444 0.592852
vt 0.803624 0.155549
vt 0.803624 0.637505
vt 0.572639 0.469648
vt 0.761819 0.665973
vt 0.572639 0.665973
vt 0.531666 0.303675
vt 0.720846 0.500000
vt 0.531666 0.500000
vt 0.074303 0.303675
vt 0.263483 0.740978
vt 0.074303 0.696325
vt 0.041177 0.051244
vt 0.134454 0.533199
vt 0.041177 0.533199
vt 0.560208 0.176244
vt 0.653484 0.417221
vt 0.560208 0.417221
vt 0.248956 0.259022
vt 0.342232 0.500000
vt 0.248956 0.500000
vt 0.415519 0.750000
vt 0.498019 0.062490
vt 0.498019 0.750000
vt 0.332324 0.750000
vt 0.414824 0.062491
vt 0.414824 0.750000
vt 0.580812 0.750000
vt 0.732546 0.168228
vt 0.732546 0.750000
vt 0.144560 0.750000
vt 0.296294 0.168228
vt 0.296294 0.750000
vt 0.625000 0.375000
vt 0.043228 0.956772
vt 0.043228 0.375000
vt 0.684285 0.250000
vt 0.836020 0.831772
vt 0.684285 0.937509
vt 0.580812 0.250000
vt 0.732546 0.252727
vt 0.580812 0.252919
vt 0.062490 0.937510
vt 0.750000 0.250000
vt 0.750000 0.937510
vt 0.331629 0.062490
vt 0.249130 0.750000
vt 0.249130 0.062490
vt 0.332324 0.252919
vt 0.414824 0.250000
vt 0.414824 0.252919
vt 0.250000 0.937510
vt 0.937510 0.250000
vt 0.937510 0.937510
vt 0.625000 0.043228
vt 0.043228 0.625000
vt 0.043228 0.043228
vt 0.144560 0.250000
vt 0.296294 0.831772
vt 0.144560 0.937510
vt 0.415519 0.937510
vt 0.498019 0.250000
vt 0.498019 0.937510
vt 0.342232 0.740978
vt 0.248956 0.740978
vt 0.531666 0.696325
vt 0.720846 0.740978
vt 0.667110 0.696325
vt 0.558287 0.696325
vt 0.466674 0.109520
vt 0.433784 0.095897
vt 0.188996 0.682702
vt 0.064627 0.682702
vt 0.081547 0.399447
vt 0.179424 0.358438
vt 0.683403 0.783999
vt 0.683403 0.671210
vt 0.653484 0.417837
vt 0.560208 0.417837
vt 0.761819 0.666589
vt 0.572639 0.666784
vt 0.624889 0.646090
vt 0.516066 0.646090
vt 0.396775 0.230592
vt 0.272406 0.230592
vt 0.558368 0.270716
vt 0.591258 0.270656
vt 0.304008 0.291529
vt 0.206131 0.291349
vt 0.475208 0.243857
vt 0.249631 0.131069
vt 0.475208 0.131069
vt 0.810208 0.500000
vt 0.903484 0.740978
vt 0.810208 0.740978
vt 0.365276 0.530352
vt 0.554456 0.334027
vt 0.554456 0.575005
vt 0.508064 0.525077
vt 0.475173 0.707779
vt 0.475173 0.511454
vt 0.392730 0.396527
vt 0.501553 0.592852
vt 0.392730 0.592852
vt 0.189211 0.229721
vt 0.313580 0.412423
vt 0.189211 0.412423
vt 0.481611 0.410663
vt 0.481611 0.297874
vt 0.553593 0.250420
vt 0.455715 0.066668
vt 0.553593 0.025659
vt 0.437500 0.437500
vt 0.977021 0.438192
vt 0.437500 0.439171
vt 0.437500 0.562500
vt 0.660977 0.022979
vt 0.977021 0.339023
vt 0.022979 0.437500
vt 0.562500 0.439171
vt 0.022979 0.440150
vt 0.375615 0.043228
vt 0.375000 0.625000
vt 0.375000 0.043228
vt 0.250000 0.750000
vt 0.937510 0.749576
vt 0.937510 0.750000
vt 0.331630 0.250000
vt 0.249130 0.250423
vt 0.249130 0.250000
vt 0.684285 0.749577
vt 0.836019 0.750000
vt 0.684285 0.750000
vt 0.376671 0.375000
vt 0.375000 0.956772
vt 0.375000 0.375000
vt 0.062490 0.750000
vt 0.750000 0.748329
vt 0.750000 0.750000
vt 0.810208 0.497273
vt 0.903484 0.500000
vt 0.365276 0.331495
vt 0.365276 0.334027
vt 0.392730 0.393995
vt 0.501553 0.396527
vt 0.508064 0.710250
vt 0.508064 0.707779
vt 0.189211 0.227250
vt 0.313580 0.229721
vt 0.455715 0.252906
vt 0.455715 0.250420
vt 0.249631 0.243857
vt 0.248932 0.131069
vt 0.232248 0.783999
vt 0.107248 0.659831
vt 0.431850 0.000136
vt 0.298269 0.092765
vt 0.204762 0.092765
vt 0.204762 0.121026
vt 0.097897 0.121026
vt 0.097897 0.036441
vt 0.000072 0.036441
vt 0.000072 0.500030
vt 0.000072 0.963619
vt 0.097897 0.879033
vt 0.097897 0.963619
vt 0.204762 0.879033
vt 0.204762 0.907294
vt 0.298269 0.907294
vt 0.431850 0.999923
vt 0.516862 0.500000
vt 0.512999 0.000072
vt 0.889170 0.923069
vt 0.810032 0.999963
vt 0.750037 0.999963
vt 0.750037 0.000037
vt 0.810032 0.000037
vt 0.253359 0.410663
vt 0.502111 0.659831
vt 0.339023 0.022979
vt 0.562500 0.022979
vt 0.646359 0.150909
vt 0.579883 0.725145
vt 0.657066 0.890738
vt 0.179424 0.807960
vt 0.304008 0.516986
vt 0.558368 0.467851
vt 0.625664 0.276325
vt 0.396775 0.047020
vt 0.188996 0.317298
vt 0.433784 0.488546
vt 0.121700 0.862714
vt 0.516563 0.924798
vt 0.624889 0.448954
vt 0.667110 0.303675
vt 0.522247 0.344648
vt 0.438637 0.137701
vt 0.196954 0.466801
vt 0.614444 0.200201
vt 0.761819 0.424995
vt 0.720846 0.259022
vt 0.263483 0.259022
vt 0.134454 0.051244
vt 0.653484 0.176244
vt 0.342232 0.259022
vt 0.415519 0.062490
vt 0.332324 0.062490
vt 0.580812 0.062490
vt 0.144559 0.062490
vt 0.625000 0.956772
vt 0.836019 0.250000
vt 0.732546 0.250000
vt 0.062490 0.250000
vt 0.331630 0.750000
vt 0.332324 0.250000
vt 0.250000 0.250000
vt 0.625000 0.625000
vt 0.296294 0.250000
vt 0.415519 0.250000
vt 0.977021 0.437500
vt 0.977021 0.562500
vt 0.437500 0.022979
vt 0.562500 0.437500
vt 0.376671 0.625000
vt 0.250000 0.748329
vt 0.331630 0.250423
vt 0.836019 0.749385
vt 0.377727 0.956772
vt 0.062490 0.747081
vt 0.903484 0.497273
vt 0.554456 0.331300
vt 0.501553 0.393995
vt 0.475173 0.710310
vt 0.313580 0.227250
vt 0.553593 0.253085
vt 0.248932 0.243857
s 0
usemtl doric_small
f 51/1/1 3/2/1 50/3/1
f 4/4/2 5/5/2 3/6/2
f 97/7/3 88/8/3 82/9/3
f 85/10/4 89/11/4 90/12/4
f 67/13/5 7/14/5 66/15/5
f 8/16/6 1/17/6 7/18/6
f 74/19/7 66/20/7 7/21/7
f 12/22/6 14/23/6 10/24/6
f 4/25/8 11/26/8 6/27/8
f 2/28/8 12/29/8 10/30/8
f 51/31/8 10/32/8 52/33/8
f 59/34/8 11/35/8 60/36/8
f 15/37/7 62/38/7 61/39/7
f 9/40/2 15/41/2 11/42/2
f 11/43/9 61/44/9 60/45/9
f 10/46/1 53/47/1 52/48/1
f 14/49/7 54/50/7 53/51/7
f 16/52/7 18/53/7 14/54/7
f 13/55/7 19/56/7 15/57/7
f 19/58/9 63/59/9 62/60/9
f 18/61/1 55/62/1 54/63/1
f 20/64/6 22/65/6 18/66/6
f 17/67/2 23/68/2 19/69/2
f 28/70/6 30/71/6 26/72/6
f 23/73/10 25/74/10 27/75/10
f 23/76/11 64/77/11 63/78/11
f 22/79/12 56/80/12 55/81/12
f 24/82/13 26/83/13 22/84/13
f 25/85/2 31/86/2 27/87/2
f 27/88/9 65/89/9 64/90/9
f 26/91/1 57/92/1 56/93/1
f 46/94/1 33/95/1 45/96/1
f 42/97/5 34/98/5 40/99/5
f 40/100/14 38/101/14 44/102/14
f 45/103/15 37/104/15 47/105/15
f 48/106/7 38/107/7 47/108/7
f 39/109/16 37/110/16 33/111/16
f 40/112/14 85/113/14 83/114/14
f 36/115/8 49/116/8 46/117/8
f 35/118/9 39/119/9 33/120/9
f 84/121/5 40/122/5 83/123/5
f 46/124/8 41/125/8 35/126/8
f 43/127/7 47/128/7 37/129/7
f 45/130/15 38/131/15 34/132/15
f 36/133/1 45/134/1 34/135/1
f 56/93/1 29/136/1 25/137/1
f 21/138/12 56/80/12 25/139/12
f 54/63/1 21/140/1 17/141/1
f 13/142/7 54/50/7 17/143/7
f 52/48/1 13/144/1 9/145/1
f 51/31/8 9/146/8 4/147/8
f 2/148/1 50/3/1 1/149/1
f 64/90/9 97/150/9 96/151/9
f 63/78/11 96/152/11 95/153/11
f 62/60/9 95/154/9 94/155/9
f 60/45/9 93/156/9 92/157/9
f 61/39/7 94/158/7 93/159/7
f 91/160/8 60/36/8 92/161/8
f 6/162/9 58/163/9 5/164/9
f 72/165/5 32/166/5 28/167/5
f 24/168/17 72/169/17 28/170/17
f 16/171/7 70/172/7 20/173/7
f 70/174/5 24/175/5 20/176/5
f 68/177/5 16/178/5 12/179/5
f 76/180/5 66/15/5 98/181/5
f 67/182/8 12/183/8 8/184/8
f 74/185/7 75/186/7 99/187/7
f 74/188/7 3/189/7 5/190/7
f 66/191/7 99/192/7 98/193/7
f 88/194/7 48/195/7 43/196/7
f 49/197/8 87/198/8 41/199/8
f 41/200/9 86/201/9 39/202/9
f 86/203/16 43/204/16 39/205/16
f 89/206/7 44/207/7 48/208/7
f 42/209/8 90/210/8 49/211/8
f 81/212/5 73/213/5 72/165/5
f 80/214/17 72/169/17 71/215/17
f 79/216/5 71/217/5 70/174/5
f 78/218/7 70/172/7 69/219/7
f 77/220/5 69/221/5 68/177/5
f 67/182/8 77/222/8 68/223/8
f 59/224/9 75/225/9 58/163/9
f 51/1/1 4/226/1 3/2/1
f 4/4/2 6/227/2 5/5/2
f 82/9/4 81/228/4 80/229/4
f 80/229/4 79/230/4 78/231/4
f 77/232/4 76/233/4 98/234/4
f 77/232/4 98/234/4 99/235/4
f 99/235/4 75/236/4 92/237/4
f 75/236/4 91/238/4 92/237/4
f 78/231/4 77/232/4 99/235/4
f 80/229/4 78/231/4 99/235/4
f 99/235/4 92/237/4 93/239/4
f 93/239/4 94/240/4 95/241/4
f 95/241/4 96/242/4 97/7/4
f 99/235/4 93/239/4 95/241/4
f 82/9/4 80/229/4 95/241/4
f 80/229/4 99/235/4 95/241/4
f 88/8/18 89/243/18 82/9/18
f 89/243/19 85/244/19 82/9/19
f 82/9/4 95/241/4 97/7/4
f 89/11/4 88/245/4 90/12/4
f 88/245/4 86/246/4 87/247/4
f 90/12/4 88/245/4 87/247/4
f 90/12/4 84/248/4 85/10/4
f 84/248/4 83/249/4 85/10/4
f 67/13/5 8/250/5 7/14/5
f 8/16/6 2/251/6 1/17/6
f 7/21/7 1/252/7 74/19/7
f 1/252/7 50/253/7 74/19/7
f 12/22/6 16/254/6 14/23/6
f 4/25/8 9/255/8 11/26/8
f 2/28/8 8/256/8 12/29/8
f 51/31/8 2/257/8 10/32/8
f 59/34/8 6/258/8 11/35/8
f 15/37/7 19/259/7 62/38/7
f 9/40/2 13/260/2 15/41/2
f 11/43/9 15/261/9 61/44/9
f 10/46/1 14/262/1 53/47/1
f 14/49/7 18/263/7 54/50/7
f 16/52/7 20/264/7 18/53/7
f 13/55/7 17/265/7 19/56/7
f 19/58/9 23/266/9 63/59/9
f 18/61/1 22/267/1 55/62/1
f 20/64/6 24/268/6 22/65/6
f 17/67/2 21/269/2 23/68/2
f 28/70/6 32/270/6 30/71/6
f 23/73/10 21/271/10 25/74/10
f 23/76/11 27/272/11 64/77/11
f 22/79/12 26/273/12 56/80/12
f 24/82/13 28/274/13 26/83/13
f 25/85/2 29/275/2 31/86/2
f 27/88/9 31/276/9 65/89/9
f 26/91/1 30/277/1 57/92/1
f 46/94/1 35/278/1 33/95/1
f 42/97/5 36/279/5 34/98/5
f 40/100/14 34/280/14 38/101/14
f 45/103/15 33/281/15 37/104/15
f 48/106/7 44/282/7 38/107/7
f 39/109/16 43/283/16 37/110/16
f 40/112/14 44/284/14 85/113/14
f 36/115/8 42/285/8 49/116/8
f 35/118/9 41/286/9 39/119/9
f 84/121/5 42/287/5 40/122/5
f 46/124/8 49/288/8 41/125/8
f 43/127/7 48/289/7 47/128/7
f 45/130/15 47/290/15 38/131/15
f 36/133/1 46/291/1 45/134/1
f 56/93/1 57/92/1 29/136/1
f 21/138/12 55/81/12 56/80/12
f 54/63/1 55/62/1 21/140/1
f 13/142/7 53/51/7 54/50/7
f 52/48/1 53/47/1 13/144/1
f 51/31/8 52/33/8 9/146/8
f 2/148/1 51/1/1 50/3/1
f 64/90/9 65/89/9 97/150/9
f 63/78/11 64/77/11 96/152/11
f 62/60/9 63/59/9 95/154/9
f 60/45/9 61/44/9 93/156/9
f 61/39/7 62/38/7 94/158/7
f 91/160/8 59/34/8 60/36/8
f 6/162/9 59/224/9 58/163/9
f 72/165/5 73/213/5 32/166/5
f 24/168/17 71/215/17 72/169/17
f 16/171/7 69/219/7 70/172/7
f 70/174/5 71/217/5 24/175/5
f 68/177/5 69/221/5 16/178/5
f 76/180/5 67/13/5 66/15/5
f 67/182/8 68/223/8 12/183/8
f 74/185/7 58/292/7 75/186/7
f 5/190/7 58/293/7 74/188/7
f 74/188/7 50/294/7 3/189/7
f 66/191/7 74/295/7 99/192/7
f 88/194/7 89/296/7 48/195/7
f 49/197/8 90/297/8 87/198/8
f 41/200/9 87/298/9 86/201/9
f 86/203/16 88/299/16 43/204/16
f 89/206/7 85/300/7 44/207/7
f 42/209/8 84/301/8 90/210/8
f 81/212/5 82/302/5 73/213/5
f 80/214/17 81/303/17 72/169/17
f 79/216/5 80/304/5 71/217/5
f 78/218/7 79/305/7 70/172/7
f 77/220/5 78/306/5 69/221/5
f 67/182/8 76/307/8 77/222/8
f 59/224/9 91/308/9 75/225/9
