# Blender 5.1.1
# www.blender.org
mtllib medium_greek_corinthian_base.mtl
o Cube.286
v 0.243705 0.275000 -0.118754
v 0.243705 0.412500 -0.118754
v 0.756295 0.275000 -0.118754
v 0.756295 0.412500 -0.118754
v 1.118750 0.275000 0.243701
v 1.118750 0.412500 0.243701
v 1.118750 0.275000 0.756291
v 1.118750 0.412500 0.756291
v 0.756295 0.275000 1.118746
v 0.756295 0.412500 1.118746
v 0.243705 0.275000 1.118746
v 0.243705 0.412500 1.118746
v -0.118750 0.275000 0.756291
v -0.118750 0.412500 0.756291
v -0.118750 0.275000 0.243701
v -0.118750 0.412500 0.243701
v 0.215226 0.000000 -0.187508
v 0.215226 0.137500 -0.187508
v 0.784774 0.000000 -0.187508
v 0.784774 0.137500 -0.187508
v 1.187505 0.000000 0.215223
v 1.187505 0.137500 0.215223
v 1.187505 0.000000 0.784771
v 1.187505 0.137500 0.784771
v 0.784774 0.000000 1.187502
v 0.784774 0.137500 1.187502
v 0.215226 0.000000 1.187502
v 0.215226 0.137500 1.187502
v -0.187505 0.000000 0.784771
v -0.187505 0.137500 0.784771
v -0.187505 0.000000 0.215223
v -0.187505 0.137500 0.215223
v 0.272183 0.137500 -0.050003
v 0.272183 0.275000 -0.050003
v 0.727818 0.137500 -0.050003
v 0.727818 0.275000 -0.050003
v 1.050000 0.137500 0.272180
v 1.050000 0.275000 0.272180
v 1.050000 0.137500 0.727815
v 1.050000 0.275000 0.727815
v 0.727818 0.137500 1.049997
v 0.727818 0.275000 1.049997
v 0.272183 0.137500 1.049997
v 0.272183 0.275000 1.049997
v -0.050000 0.137500 0.727815
v -0.050000 0.275000 0.727815
v -0.050000 0.137500 0.272180
v -0.050000 0.275000 0.272180
v 0.756295 0.412500 0.756291
v 0.243705 0.412500 0.243701
v 0.243705 0.412500 0.756291
v 0.756295 0.412500 0.243701
vn -0.0000 -0.0000 -1.0000
vn 0.7071 -0.0000 -0.7071
vn 1.0000 -0.0000 -0.0000
vn 0.7071 -0.0000 0.7071
vn -0.0000 -0.0000 1.0000
vn -0.7071 -0.0000 0.7071
vn -0.0000 1.0000 -0.0000
vn -1.0000 -0.0000 -0.0000
vn -0.7071 -0.0000 -0.7071
vn -0.0000 -1.0000 -0.0000
vt 0.312500 0.750000
vt 0.312500 0.625000
vt 0.812500 0.625000
vt 0.812500 0.750000
vt 0.312500 0.500000
vt 0.312500 0.375000
vt 0.812500 0.375000
vt 0.812500 0.500000
vt 0.250000 0.750000
vt 0.250000 0.625000
vt 0.750000 0.625000
vt 0.750000 0.750000
vt 0.437500 0.937500
vt 0.437500 0.812500
vt 0.937500 0.812500
vt 0.937500 0.937500
vt 0.062500 0.562500
vt 0.062500 0.437500
vt 0.562500 0.437500
vt 0.562500 0.562500
vt 0.375000 0.562500
vt 0.375000 0.437500
vt 0.875000 0.437500
vt 0.875000 0.562500
vt 1.000000 0.375000
vt 0.625000 0.375000
vt 0.625000 0.000000
vt 0.250000 0.562500
vt 0.250000 0.437500
vt 0.750000 0.437500
vt 0.750000 0.562500
vt 0.125000 0.312500
vt 0.125000 0.187500
vt 0.625000 0.187500
vt 0.625000 0.312500
vt 0.999900 0.292935
vt 0.999900 0.707065
vt 0.707065 0.999900
vt 0.292935 0.999900
vt 0.000100 0.707065
vt 0.000100 0.292935
vt 0.292935 0.000100
vt 0.707065 0.000100
vt 0.125000 0.562500
vt 0.125000 0.437500
vt 0.687500 0.437500
vt 0.687500 0.562500
vt 0.312500 0.312500
vt 0.312500 0.187500
vt 0.875000 0.187500
vt 0.875000 0.312500
vt 0.187500 0.500000
vt 0.187500 0.375000
vt 0.750000 0.375000
vt 0.750000 0.500000
vt 0.625000 0.437500
vt 0.625000 0.562500
vt 0.437500 0.125000
vt 0.437500 0.000000
vt 1.000000 0.000000
vt 1.000000 0.125000
vt 0.437500 0.875000
vt 0.437500 0.750000
vt 1.000000 0.750000
vt 1.000000 0.875000
vt 0.000006 0.292896
vt 0.292896 0.000006
vt 0.707104 0.000006
vt 0.875000 0.625000
vt 0.875000 0.750000
vt 0.000000 1.000000
vt 0.000000 0.875000
vt 0.562500 0.875000
vt 0.562500 1.000000
vt 0.000006 0.292896
vt 0.292896 0.000006
vt 0.707104 0.000006
vt 0.375000 0.187500
vt 0.375000 0.062500
vt 0.812500 0.062500
vt 0.812500 0.187500
vt 0.187500 0.562500
vt 0.187500 0.437500
vt 0.500000 0.187500
vt 0.500000 0.062500
vt 0.937500 0.062500
vt 0.937500 0.187500
vt 0.125000 0.937500
vt 0.125000 0.812500
vt 0.562500 0.812500
vt 0.562500 0.937500
vt 0.500000 0.937500
vt 0.500000 0.812500
vt 0.062500 0.187500
vt 0.062500 0.062500
vt 0.999900 0.292934
vt 0.999900 0.707065
vt 0.707065 0.999900
vt 0.292935 0.999900
vt 0.000100 0.707065
vt 0.000100 0.292935
vt 0.292935 0.000100
vt 0.707065 0.000100
vt 0.875000 0.812500
vt 0.875000 0.937500
vt 0.062500 0.937500
vt 0.062500 0.812500
vt 0.750000 0.000000
vt 0.250000 0.375000
vt 0.250000 0.000000
vt 0.375000 0.000000
vt 0.375000 0.375000
vt 0.000000 0.375000
vt 0.000000 0.250000
vt 0.375000 0.250000
vt 0.375000 0.750000
vt 0.000000 0.750000
vt 0.000000 0.625000
vt 0.375000 0.625000
vt 0.375000 1.000000
vt 0.250000 1.000000
vt 0.750000 1.000000
vt 0.625000 1.000000
vt 0.625000 0.625000
vt 1.000000 0.625000
vt 0.625000 0.750000
vt 0.625000 0.250000
vt 1.000000 0.250000
vt 0.250000 0.250000
vt 0.750000 0.250000
vt 0.999994 0.292896
vt 0.292896 0.999994
vt 0.999994 0.707104
vt 0.707104 0.999994
vt 0.000006 0.707104
vt 0.999994 0.292896
vt 0.292896 0.999994
vt 0.999994 0.707104
vt 0.707104 0.999994
vt 0.000006 0.707104
s 0
usemtl ionic_base
f 1/1/1 2/2/1 4/3/1 3/4/1
f 3/5/2 4/6/2 6/7/2 5/8/2
f 5/9/3 6/10/3 8/11/3 7/12/3
f 7/13/4 8/14/4 10/15/4 9/16/4
f 9/17/5 10/18/5 12/19/5 11/20/5
f 11/21/6 12/22/6 14/23/6 13/24/6
f 4/25/7 52/26/7 6/27/7
f 13/28/8 14/29/8 16/30/8 15/31/8
f 15/32/9 16/33/9 2/34/9 1/35/9
f 1/36/10 3/37/10 5/38/10 7/39/10 9/40/10 11/41/10 13/42/10 15/43/10
f 17/44/1 18/45/1 20/46/1 19/47/1
f 19/48/2 20/49/2 22/50/2 21/51/2
f 21/52/3 22/53/3 24/54/3 23/55/3
f 23/17/4 24/18/4 26/56/4 25/57/4
f 25/58/5 26/59/5 28/60/5 27/61/5
f 27/62/6 28/63/6 30/64/6 29/65/6
f 26/66/7 24/67/7 22/68/7
f 29/1/8 30/2/8 32/69/8 31/70/8
f 31/71/9 32/72/9 18/73/9 17/74/9
f 27/75/10 29/76/10 31/77/10
f 33/78/1 34/79/1 36/80/1 35/81/1
f 35/82/2 36/83/2 38/56/2 37/57/2
f 37/84/3 38/85/3 40/86/3 39/87/3
f 39/88/4 40/89/4 42/90/4 41/91/4
f 41/92/5 42/93/5 44/15/5 43/16/5
f 43/94/6 44/95/6 46/85/6 45/84/6
f 36/96/7 34/97/7 48/98/7 46/99/7 44/100/7 42/101/7 40/102/7 38/103/7
f 45/13/8 46/14/8 48/104/8 47/105/8
f 47/106/9 48/107/9 34/93/9 33/92/9
f 33/36/10 35/37/10 37/38/10 39/39/10 41/40/10 43/41/10 45/42/10 47/43/10
f 6/108/7 52/54/7 49/109/7 8/110/7
f 8/111/7 49/112/7 10/113/7
f 10/114/7 49/115/7 51/116/7 12/117/7
f 12/118/7 51/119/7 14/120/7
f 14/121/7 51/10/7 50/11/7 16/122/7
f 16/123/7 50/124/7 2/125/7
f 2/64/7 50/126/7 52/127/7 4/128/7
f 50/129/7 51/130/7 49/12/7 52/9/7
f 22/68/7 20/131/7 30/132/7
f 20/131/7 18/133/7 30/132/7
f 18/133/7 32/134/7 30/132/7
f 30/132/7 28/135/7 22/68/7
f 28/135/7 26/66/7 22/68/7
f 31/77/10 17/136/10 23/137/10
f 17/136/10 19/138/10 23/137/10
f 19/138/10 21/139/10 23/137/10
f 23/137/10 25/140/10 31/77/10
f 25/140/10 27/75/10 31/77/10
