# Blender 5.1.2
# www.blender.org
mtllib medium_half_column_down.mtl
o column_medium
v 0.292892 0.000000 0.499996
v 0.292892 1.000000 0.499996
v 0.707108 0.000000 0.499996
v 0.707108 1.000000 0.499996
v 1.000004 0.000000 0.792892
v 1.000004 1.000000 0.792892
v -0.000004 0.000000 0.792892
v -0.000004 1.000000 0.792892
v 0.292892 -0.650000 0.499996
v 0.707108 -0.650000 0.499996
v 1.000004 -0.650000 0.792892
v -0.000004 -0.650000 0.792892
v 1.000004 0.000000 1.000000
v 1.000004 1.000000 1.000000
v -0.000004 0.000000 1.000000
v -0.000004 1.000000 1.000000
v 1.000004 -0.650000 1.000000
v -0.000004 -0.650000 1.000000
vn -0.0000 -0.0000 -1.0000
vn 0.7071 -0.0000 -0.7071
vn -0.0000 -0.0000 1.0000
vn -1.0000 -0.0000 -0.0000
vn -0.7071 -0.0000 -0.7071
vn -0.0000 -1.0000 -0.0000
vn -0.0000 1.0000 -0.0000
vn 1.0000 -0.0000 -0.0000
vt 0.375000 1.000000
vt 0.000000 -0.000000
vt 0.375000 -0.000000
vt 0.750000 1.000000
vt 0.375000 -0.000000
vt 0.750000 -0.000000
vt 0.999896 0.999896
vt 0.000096 0.000104
vt 0.999896 0.000104
vt 0.000000 0.187500
vt 1.000000 0.812500
vt 0.000000 0.812500
vt 0.187500 1.000000
vt 0.187500 -0.000000
vt 0.375000 1.000000
vt 0.750000 0.375000
vt 0.750000 1.000000
vt 0.000000 1.000000
vt 0.375000 0.375000
vt 0.187500 0.375000
vt 0.187500 1.000000
vt 0.500000 0.954028
vt 0.500000 0.045972
vt 0.954028 0.688065
vt 0.500000 0.954028
vt 0.500000 0.045972
vt 0.045972 0.688065
vt 0.187500 0.000000
vt 0.375000 0.000000
vt -0.000000 1.000000
vt 0.375000 1.000000
vt 0.000096 0.999896
vt 1.000000 0.187500
vt 0.000000 0.375000
vt 0.688065 0.045972
vt 0.954028 0.311935
vt 0.688065 0.954028
vt 0.311935 0.045972
vt 0.045972 0.311935
vt 0.311935 0.954028
vt 0.187500 1.000000
s 0
usemtl column_mat_top
f 17/22/6 18/23/6 10/24/6
f 16/25/7 14/26/7 2/27/7
f 12/35/6 9/36/6 18/23/6
f 9/36/6 10/24/6 18/23/6
f 10/24/6 11/37/6 17/22/6
f 6/38/7 4/39/7 14/26/7
f 4/39/7 2/27/7 14/26/7
f 2/27/7 8/40/7 16/25/7
usemtl column_mat_side
f 2/1/1 3/2/1 1/3/1
f 4/4/2 5/5/2 3/6/2
f 14/7/3 15/8/3 13/9/3
f 18/10/3 13/11/3 15/12/3
f 16/13/4 7/2/4 15/14/4
f 8/4/5 1/5/5 7/6/5
f 5/15/2 10/16/2 3/17/2
f 1/15/5 12/16/5 7/17/5
f 3/18/1 9/19/1 1/15/1
f 7/18/4 18/20/4 15/21/4
f 6/15/8 13/28/8 5/29/8
f 13/21/8 11/19/8 5/15/8
f 2/1/1 4/30/1 3/2/1
f 4/4/2 6/31/2 5/5/2
f 14/7/3 16/32/3 15/8/3
f 18/10/3 17/33/3 13/11/3
f 16/13/4 8/30/4 7/2/4
f 8/4/5 2/31/5 1/5/5
f 5/15/2 11/19/2 10/16/2
f 1/15/5 9/19/5 12/16/5
f 3/18/1 10/34/1 9/19/1
f 7/18/4 12/34/4 18/20/4
f 6/15/8 14/41/8 13/28/8
f 13/21/8 17/20/8 11/19/8
