# Blender 5.1.2
# www.blender.org
mtllib regular_tuscan_half_base.mtl
o Cube.293
v 0.292892 0.200001 0.499996
v 0.292892 0.330001 0.499996
v 0.707108 0.200001 0.499996
v 0.707108 0.330001 0.499996
v 1.000004 0.200001 0.792892
v 1.000004 0.330001 0.792892
v -0.000004 0.200001 0.792892
v -0.000004 0.330001 0.792892
v 1.000000 0.200000 0.500000
v 1.000000 0.000000 0.500000
v -0.000000 0.200000 0.500000
v -0.000000 0.000000 0.500000
v 1.000004 0.200001 1.000565
v 1.000004 0.330001 1.000565
v -0.000004 0.200001 1.002069
v -0.000004 0.330001 1.002069
v -0.000000 0.000000 1.002069
v 1.000000 0.000000 1.000565
vn -0.0000 -0.0000 -1.0000
vn 0.7071 -0.0000 -0.7071
vn 0.0015 -0.0000 1.0000
vn -1.0000 -0.0000 -0.0000
vn -0.7071 -0.0000 -0.7071
vn -0.0000 1.0000 -0.0000
vn -0.0000 -1.0000 -0.0000
vn 1.0000 -0.0000 -0.0000
vt 0.821621 0.437250
vt 0.674924 0.891859
vt 0.674924 0.437250
vt 0.221675 0.491791
vt 0.074978 0.946400
vt 0.074978 0.491791
vt 0.406363 0.894396
vt 0.091595 0.894393
vt 0.091595 0.107474
vt 0.657999 0.322344
vt 0.511302 0.551919
vt 0.511302 0.322344
vt 0.930702 0.491791
vt 0.784005 0.946400
vt 0.784005 0.491791
vt 0.332807 0.898261
vt 0.102325 0.898259
vt 0.102323 0.667777
vt 0.324765 0.309702
vt 0.008529 0.080290
vt 0.550614 0.080290
vt -0.042938 0.571154
vt 1.036765 0.571155
vt 0.273298 0.800567
vt 0.896960 0.667777
vt 0.896958 0.898258
vt 0.666476 0.898261
vt 0.893066 0.915693
vt 0.106148 0.521789
vt 0.893066 0.520605
vt 0.519278 0.894395
vt 0.520461 0.107471
vt 0.914368 0.663911
vt 0.494378 0.068257
vt 0.347681 0.296181
vt 0.347681 0.068257
vt 0.985142 0.189371
vt 0.668906 0.418783
vt 0.444681 0.189371
vt 0.821621 0.891859
vt 0.221675 0.946400
vt 0.406363 0.107471
vt 0.610962 0.107471
vt 0.610962 0.894396
vt 0.657999 0.551919
vt 0.930702 0.946400
vt 0.550614 0.309702
vt 0.008529 0.309701
vt 1.036765 0.800566
vt 0.720529 0.800567
vt -0.042938 0.800566
vt 0.106148 0.915693
vt 0.683883 0.107471
vt 0.914368 0.337956
vt 0.683883 0.894395
vt 0.494378 0.296181
vt 0.985142 0.418782
vt 0.444681 0.418783
s 0
usemtl ionic_base_small
f 2/1/1 3/2/1 1/3/1
f 4/4/2 5/5/2 3/6/2
f 15/7/3 17/8/3 18/9/3
f 16/10/4 7/11/4 15/12/4
f 8/13/5 1/14/5 7/15/5
f 5/16/6 9/17/6 3/18/6
f 7/19/4 12/20/4 17/21/4
f 10/22/1 12/23/1 3/24/1
f 1/25/6 11/26/6 7/27/6
f 12/28/7 18/29/7 17/30/7
f 16/31/6 14/32/6 2/33/6
f 6/34/8 13/35/8 5/36/8
f 10/37/8 5/38/8 18/39/8
f 2/1/1 4/40/1 3/2/1
f 4/4/2 6/41/2 5/5/2
f 18/9/3 13/42/3 15/7/3
f 13/42/3 14/43/3 15/7/3
f 14/43/3 16/44/3 15/7/3
f 16/10/4 8/45/4 7/11/4
f 8/13/5 2/46/5 1/14/5
f 17/21/4 15/47/4 7/19/4
f 7/19/4 11/48/4 12/20/4
f 11/49/1 1/50/1 12/23/1
f 1/50/1 3/24/1 12/23/1
f 3/24/1 9/51/1 10/22/1
f 12/28/7 10/52/7 18/29/7
f 6/53/6 4/54/6 14/32/6
f 4/54/6 2/33/6 14/32/6
f 2/33/6 8/55/6 16/31/6
f 6/34/8 14/56/8 13/35/8
f 9/57/8 5/38/8 10/37/8
f 5/38/8 13/58/8 18/39/8
