# Blender 5.1.2
# www.blender.org
mtllib regular_column_down.mtl
o column_small_down
v 0.344669 0.000000 0.124997
v 0.344669 1.000000 0.124997
v 0.655331 0.000000 0.124997
v 0.655331 1.000000 0.124997
v 0.875003 0.000000 0.344669
v 0.875003 1.000000 0.344669
v 0.875003 0.000000 0.655331
v 0.875003 1.000000 0.655331
v 0.655331 0.000000 0.875003
v 0.655331 1.000000 0.875003
v 0.344669 0.000000 0.875003
v 0.344669 1.000000 0.875003
v 0.124997 0.000000 0.655331
v 0.124997 1.000000 0.655331
v 0.124997 0.000000 0.344669
v 0.124997 1.000000 0.344669
v 0.655331 1.000000 0.124997
v 0.344669 1.000000 0.124997
v 0.875003 1.000000 0.344669
v 0.875003 1.000000 0.655331
v 0.655331 1.000000 0.875003
v 0.344669 1.000000 0.875003
v 0.124997 1.000000 0.655331
v 0.124997 1.000000 0.344669
v 0.344669 -0.750000 0.124997
v 0.655331 -0.750000 0.124997
v 0.875003 -0.750000 0.344669
v 0.875003 -0.750000 0.655331
v 0.655331 -0.750000 0.875003
v 0.344669 -0.750000 0.875003
v 0.124997 -0.750000 0.655331
v 0.124997 -0.750000 0.344669
vn -0.0000 -0.0000 -1.0000
vn 0.7071 -0.0000 -0.7071
vn 1.0000 -0.0000 -0.0000
vn 0.7071 -0.0000 0.7071
vn -0.0000 -0.0000 1.0000
vn -0.7071 -0.0000 0.7071
vn -0.0000 1.0000 -0.0000
vn -1.0000 -0.0000 -0.0000
vn -0.7071 -0.0000 -0.7071
vn -0.0000 -1.0000 -0.0000
vt 0.375000 0.000064
vt 0.375000 0.999936
vt 0.000064 1.000000
vt 0.000064 0.000000
vt 1.000000 0.000000
vt 1.000000 1.000000
vt 0.625064 0.999936
vt 0.625064 0.000064
vt 0.875000 0.000000
vt 0.875000 1.000000
vt 0.500000 1.000000
vt 0.500064 0.000064
vt 0.500000 0.000000
vt 0.125064 0.999936
vt 0.125064 0.000064
vt 0.375000 0.000000
vt 0.375000 1.000000
vt 0.000064 0.999936
vt 0.000064 0.000064
vt 0.625064 0.999936
vt 0.625064 0.000064
vt 0.000064 0.999936
vt 0.250000 1.000000
vt 0.625000 0.000000
vt 0.625000 1.000000
vt 0.250064 0.999936
vt 0.250064 0.000064
vt 0.125064 0.999936
vt 0.125064 0.000064
vt 0.000000 1.000000
vt 0.000000 0.250000
vt 0.375000 0.250000
vt 0.350000 0.875000
vt 0.125000 0.350000
vt 0.650000 0.125000
vt 0.000064 0.999936
vt 0.250000 0.000000
vt 0.000064 0.000064
vt 0.000065 0.999936
vt 0.000064 0.999936
vt 0.875000 0.650000
vt 0.750000 1.000000
vt 0.750000 0.250000
vt 0.500000 0.250000
vt 0.875000 0.250000
vt 0.625000 0.250000
vt 1.000000 0.250000
vt 0.125000 1.000000
vt 0.125000 0.250000
vt 0.875000 0.350000
vt 0.650000 0.875000
vt 0.125000 0.650000
vt 0.350000 0.125000
s 0
usemtl column_mat_top
f 23/33/7 21/34/7 19/35/7
f 28/34/10 30/35/10 32/41/10
f 19/35/7 17/50/7 18/41/7
f 18/41/7 24/51/7 23/33/7
f 23/33/7 22/52/7 21/34/7
f 21/34/7 20/53/7 19/35/7
f 19/35/7 18/41/7 23/33/7
f 32/41/10 25/51/10 26/33/10
f 26/33/10 27/52/10 28/34/10
f 28/34/10 29/53/10 30/35/10
f 30/35/10 31/50/10 32/41/10
f 32/41/10 26/33/10 28/34/10
usemtl column_mat_side
f 1/1/1 2/2/1 4/3/1 3/4/1
f 3/5/2 4/6/2 6/7/2 5/8/2
f 5/9/3 6/10/3 8/11/3 7/12/3
f 7/13/4 8/11/4 10/14/4 9/15/4
f 9/16/5 10/17/5 12/18/5 11/19/5
f 11/5/6 12/6/6 14/20/6 13/21/6
f 16/22/7 14/23/7 23/23/7 24/22/7
f 13/24/8 14/25/8 16/26/8 15/27/8
f 15/13/9 16/11/9 2/28/9 1/29/9
f 9/17/5 11/30/5 30/31/5 29/32/5
f 6/36/7 4/23/7 17/23/7 19/36/7
f 12/18/7 10/23/7 21/23/7 22/18/7
f 2/36/7 16/23/7 24/23/7 18/36/7
f 4/37/7 2/38/7 18/38/7 17/37/7
f 8/30/7 6/23/7 19/23/7 20/30/7
f 14/39/7 12/23/7 22/23/7 23/39/7
f 10/40/7 8/23/7 20/23/7 21/40/7
f 15/42/9 1/17/9 25/32/9 32/43/9
f 1/17/1 3/30/1 26/31/1 25/32/1
f 5/10/3 7/11/3 28/44/3 27/45/3
f 11/6/6 13/25/6 31/46/6 30/47/6
f 7/11/4 9/48/4 29/49/4 28/44/4
f 13/10/8 15/11/8 32/44/8 31/45/8
f 3/6/2 5/25/2 27/46/2 26/47/2
