# Blender 5.1.2
# www.blender.org
mtllib regular_half_column_down.mtl
o column_small_down
v 0.344669 0.000000 0.624997
v 0.344669 1.000000 0.624997
v 0.655331 0.000000 0.624997
v 0.655331 1.000000 0.624997
v 0.875003 0.000000 0.844669
v 0.875003 1.000000 0.844669
v 0.124997 0.000000 0.844669
v 0.124997 1.000000 0.844669
v 0.655331 1.000000 0.624997
v 0.344669 1.000000 0.624997
v 0.875003 1.000000 0.844669
v 0.124997 1.000000 0.844669
v 0.344669 -0.750000 0.624997
v 0.655331 -0.750000 0.624997
v 0.875003 -0.750000 0.844669
v 0.124997 -0.750000 0.844669
v 0.875003 0.000000 1.000000
v 0.875003 1.000000 1.000000
v 0.124997 0.000000 1.000000
v 0.124997 1.000000 1.000000
v 0.875003 1.000000 1.000000
v 0.124997 1.000000 1.000000
v 0.875003 -0.750000 1.000000
v 0.124997 -0.750000 1.000000
v 0.189338 1.000000 1.000000
v 0.810662 1.000000 1.000000
v 0.500000 1.000000 1.000000
v 0.810662 -0.750000 1.000000
v 0.189338 -0.750000 1.000000
v 0.500000 -0.750000 1.000000
vn -0.0000 -0.0000 -1.0000
vn 0.7071 -0.0000 -0.7071
vn -0.0000 -0.0000 1.0000
vn -1.0000 -0.0000 -0.0000
vn -0.7071 -0.0000 -0.7071
vn -0.0000 1.0000 -0.0000
vn -0.0000 -1.0000 -0.0000
vn 1.0000 -0.0000 -0.0000
vt 0.375000 0.000064
vt 0.375000 0.999936
vt 0.000064 1.000000
vt 0.000064 0.000000
vt 1.000000 0.000000
vt 1.000000 1.000000
vt 0.625064 0.999936
vt 0.625064 0.000064
vt 0.749932 0.125068
vt 0.000106 0.125068
vt 0.000106 0.874932
vt 0.749932 0.874932
vt 0.999896 0.000104
vt 0.999897 0.999896
vt 0.250096 0.999896
vt 0.250096 0.000104
vt 0.437532 0.000032
vt 0.437532 0.999968
vt 0.250064 0.999936
vt 0.250064 0.000064
vt 0.500000 0.000000
vt 0.500000 1.000000
vt 0.125064 0.999936
vt 0.125064 0.000064
vt 0.500000 0.500000
vt 0.496231 0.190901
vt 0.650000 0.125000
vt 0.000064 0.999936
vt 0.250000 1.000000
vt 0.250000 0.000000
vt 0.000064 0.000064
vt 0.125000 1.000000
vt 0.809099 0.496231
vt 0.875000 0.650000
vt 0.750000 1.000000
vt 0.375000 1.000000
vt 0.375000 0.250000
vt 0.750000 0.250000
vt 0.000000 1.000000
vt 0.000000 0.250000
vt 0.687500 1.000000
vt 0.500000 0.250000
vt 0.687500 0.250000
vt 0.625000 1.000000
vt 0.625000 0.250000
vt 1.000000 0.250000
vt 0.875000 0.350000
vt 0.500000 0.125000
vt 0.650000 0.875000
vt 0.350000 0.875000
vt 0.875000 0.500000
vt 0.190901 0.503769
vt 0.503769 0.809099
vt 0.125000 0.650000
vt 0.125000 0.500000
vt 0.500000 0.875000
vt 0.000064 0.999936
vt 0.125032 0.999968
vt 0.875000 0.000000
vt 0.875000 1.000000
vt 0.687532 0.000032
vt 0.875000 0.250000
s 0
usemtl column_mat_top
f 27/25/6 26/26/6 11/27/6
f 30/25/7 29/33/7 16/34/7
f 11/27/6 9/47/6 10/34/6
f 26/26/6 21/48/6 11/27/6
f 16/34/7 13/49/7 14/50/7
f 29/33/7 24/51/7 16/34/7
f 16/34/7 14/50/7 28/52/7 30/25/7
f 11/27/6 10/34/6 25/53/6 27/25/6
f 14/50/7 15/54/7 23/55/7 28/52/7
f 10/34/6 12/49/6 22/56/6 25/53/6
usemtl column_mat_side
f 1/1/1 2/2/1 4/3/1 3/4/1
f 3/5/2 4/6/2 6/7/2 5/8/2
f 17/9/3 19/10/3 24/11/3 23/12/3
f 17/13/3 18/14/3 20/15/3 19/16/3
f 19/17/4 20/18/4 8/19/4 7/20/4
f 7/21/5 8/22/5 2/23/5 1/24/5
f 6/28/6 4/29/6 9/29/6 11/28/6
f 2/28/6 8/29/6 12/29/6 10/28/6
f 4/30/6 2/31/6 10/31/6 9/30/6
f 18/32/6 6/29/6 11/29/6 21/32/6
f 7/35/5 1/36/5 13/37/5 16/38/5
f 1/36/1 3/39/1 14/40/1 13/37/1
f 19/41/4 7/22/4 16/42/4 24/43/4
f 3/6/2 5/44/2 15/45/2 14/46/2
f 8/57/6 20/58/6 22/58/6 12/57/6
f 5/59/8 6/60/8 18/41/8 17/61/8
f 5/60/8 17/41/8 23/43/8 15/62/8
