# Blender 5.1.2
# www.blender.org
mtllib regular_half_column.mtl
o column_small
v 0.344669 0.000000 0.624997
v 0.344669 1.000000 0.624997
v 0.655331 0.000000 0.624997
v 0.655331 1.000000 0.624997
v 0.875003 0.000000 0.844669
v 0.875003 1.000000 0.844669
v 0.124997 0.000000 0.844669
v 0.124997 1.000000 0.844669
v 0.875003 0.000000 1.000495
v 0.875003 1.000000 1.000495
v 0.124997 0.000000 1.002090
v 0.124997 1.000000 1.002090
v 0.188528 1.000000 1.001955
v 0.810401 1.000000 1.000632
v 0.496864 1.000000 1.001299
v 0.810924 0.000000 1.000631
v 0.190146 0.000000 1.001952
v 0.503104 0.000000 1.001286
vn -0.0000 -0.0000 -1.0000
vn 0.7071 -0.0000 -0.7071
vn -0.0000 1.0000 -0.0000
vn -1.0000 -0.0000 -0.0000
vn -0.7071 -0.0000 -0.7071
vn -0.0000 -1.0000 -0.0000
vn 0.0021 -0.0000 1.0000
vn 1.0000 -0.0000 -0.0000
vt 0.375000 0.999936
vt 0.375000 0.000064
vt 0.000064 0.000000
vt 0.000064 1.000000
vt 1.000000 0.000000
vt 1.000000 1.000000
vt 0.625064 0.999936
vt 0.625064 0.000064
vt 0.498745 0.503136
vt 0.495605 0.191169
vt 0.650000 0.125000
vt 0.690055 0.000032
vt 0.690055 0.999968
vt 0.500064 0.999936
vt 0.500064 0.000064
vt 0.750000 0.000000
vt 0.750000 1.000000
vt 0.375064 0.999936
vt 0.375064 0.000064
vt 0.496896 0.498758
vt 0.808271 0.494299
vt 0.875000 0.650000
vt 0.875000 0.350000
vt 0.499522 0.125000
vt 0.650000 0.875000
vt 0.350000 0.875000
vt 0.875000 0.497981
vt 0.749895 0.000105
vt 0.000095 0.999895
vt 0.749895 0.999895
vt 0.190633 0.503144
vt 0.501833 0.809929
vt 0.497981 0.875000
vt 0.875000 0.000000
vt 0.875000 1.000000
vt 0.686903 1.000000
vt 0.686935 0.000032
vt 0.125000 0.650000
vt 0.125000 0.499522
vt 0.000095 0.000105
s 0
usemtl column_mat_top
f 15/9/3 14/10/3 6/11/3
f 18/20/6 17/21/6 7/22/6
f 6/11/3 4/23/3 2/22/3
f 14/10/3 10/24/3 6/11/3
f 7/22/6 1/25/6 3/26/6
f 17/21/6 11/27/6 7/22/6
f 7/22/6 3/26/6 16/31/6 18/20/6
f 6/11/3 2/22/3 13/32/3 15/9/3
f 2/22/3 8/25/3 12/33/3 13/32/3
f 3/26/6 5/38/6 9/39/6 16/31/6
usemtl column_mat_side
f 1/1/1 2/2/1 4/3/1 3/4/1
f 3/5/2 4/6/2 6/7/2 5/8/2
f 11/12/4 12/13/4 8/14/4 7/15/4
f 7/16/5 8/17/5 2/18/5 1/19/5
f 10/28/7 11/29/7 9/30/7
f 5/34/8 6/35/8 10/36/8 9/37/8
f 10/28/7 12/40/7 11/29/7
