# Blender 5.1.2
# www.blender.org
mtllib regular_half_column_both.mtl
o column_small_both
v 0.344669 0.000000 0.624997
v 0.344669 1.000000 0.624997
v 0.655331 0.000000 0.624997
v 0.655331 1.000000 0.624997
v 0.875003 0.000000 0.844669
v 0.875003 1.000000 0.844669
v 0.124997 0.000000 0.844669
v 0.124997 1.000000 0.844669
v 0.655331 1.000000 0.624997
v 0.344669 1.000000 0.624997
v 0.875003 1.000000 0.844669
v 0.124997 1.000000 0.844669
v 0.344669 -0.750000 0.624997
v 0.655331 -0.750000 0.624997
v 0.875003 -0.750000 0.844669
v 0.124997 -0.750000 0.844669
v 0.655331 1.750000 0.624997
v 0.344669 1.750000 0.624997
v 0.875003 1.750000 0.844669
v 0.124997 1.750000 0.844669
v 0.875003 0.000000 1.000678
v 0.875003 1.000000 1.000678
v 0.124997 0.000000 1.002612
v 0.124997 1.000000 1.002612
v 0.875003 1.000000 1.000678
v 0.124997 1.000000 1.002612
v 0.875003 -0.750000 1.000678
v 0.124997 -0.750000 1.002612
v 0.875003 1.750000 1.000678
v 0.124997 1.750000 1.002612
v 0.188323 1.750000 1.002448
v 0.810312 1.750000 1.000845
v 0.496004 1.750000 1.001655
v 0.811012 -0.750000 1.000843
v 0.190350 -0.750000 1.002443
v 0.503947 -0.750000 1.001635
vn -0.0000 -0.0000 -1.0000
vn 0.7071 -0.0000 -0.7071
vn 0.0026 -0.0000 1.0000
vn -1.0000 -0.0000 -0.0000
vn -0.7071 -0.0000 -0.7071
vn -0.0000 1.0000 -0.0000
vn -0.0000 -1.0000 -0.0000
vn 1.0000 -0.0000 -0.0000
vt 0.375000 0.999936
vt 0.375000 0.000064
vt 0.000064 0.000000
vt 0.000064 1.000000
vt 1.000000 0.000000
vt 1.000000 1.000000
vt 0.625064 0.999936
vt 0.625064 0.000064
vt 0.000095 0.999895
vt 0.749895 0.000105
vt 0.749895 0.999895
vt 0.749931 0.749931
vt 0.000104 0.000069
vt 0.749931 0.000069
vt 0.999931 0.999931
vt 0.250104 0.250069
vt 0.999931 0.250069
vt 0.690684 0.000032
vt 0.690684 0.999968
vt 0.500064 0.999936
vt 0.500064 0.000064
vt 0.750000 0.000000
vt 0.750000 1.000000
vt 0.375064 0.999936
vt 0.375064 0.000064
vt 0.000000 0.000000
vt 0.375000 0.000000
vt 0.375000 0.750000
vt 0.000000 0.750000
vt 0.000064 0.999936
vt 0.250000 1.000000
vt 0.250000 0.000000
vt 0.000064 0.000064
vt 0.124454 1.000000
vt 0.496053 0.498421
vt 0.808062 0.493813
vt 0.875000 0.650000
vt 0.500000 1.000000
vt 0.125000 1.000000
vt 0.125000 0.250000
vt 0.500000 0.250000
vt 0.375000 1.000000
vt 0.000000 1.000000
vt 0.000000 0.250000
vt 0.375000 0.250000
vt 0.440652 1.000000
vt 0.250000 0.250000
vt 0.440652 0.250000
vt 0.625000 1.000000
vt 0.625000 0.250000
vt 1.000000 0.250000
vt 0.498402 0.503996
vt 0.495394 0.191260
vt 0.650000 0.125000
vt 0.750000 0.750000
vt 0.625000 0.000000
vt 1.000000 0.750000
vt 0.625000 0.750000
vt 0.436681 0.000000
vt 0.436681 0.750000
vt 0.875000 0.350000
vt 0.499345 0.125000
vt 0.650000 0.875000
vt 0.350000 0.875000
vt 0.875000 0.497478
vt 0.190543 0.502934
vt 0.501345 0.810138
vt 0.497478 0.875000
vt 0.125000 0.650000
vt 0.125000 0.499345
vt 0.500000 0.000000
vt 0.690652 0.000000
vt 0.690652 0.750000
vt 0.500000 0.750000
vt 0.000064 0.999936
vt 0.127133 0.999968
vt 0.875000 0.000000
vt 0.875000 1.000000
vt 0.686681 1.000000
vt 0.686713 0.000032
vt 0.686681 0.250000
vt 0.875000 0.250000
vt 0.000095 0.000105
vt 0.000104 0.749931
vt 0.250104 0.999931
s 0
usemtl column_mat_top
f 36/35/7 35/36/7 16/37/7
f 33/52/6 32/53/6 19/54/6
f 19/54/6 17/61/6 18/37/6
f 32/53/6 29/62/6 19/54/6
f 16/37/7 13/63/7 14/64/7
f 35/36/7 28/65/7 16/37/7
f 16/37/7 14/64/7 34/66/7 36/35/7
f 19/54/6 18/37/6 31/67/6 33/52/6
f 18/37/6 20/63/6 30/68/6 31/67/6
f 14/64/7 15/69/7 27/70/7 34/66/7
usemtl column_mat_side
f 1/1/1 2/2/1 4/3/1 3/4/1
f 3/5/2 4/6/2 6/7/2 5/8/2
f 24/9/3 21/10/3 22/11/3
f 21/12/3 28/13/3 27/14/3
f 29/15/3 26/16/3 25/17/3
f 23/18/4 24/19/4 8/20/4 7/21/4
f 7/22/5 8/23/5 2/24/5 1/25/5
f 9/26/1 10/27/1 18/28/1 17/29/1
f 6/30/6 4/31/6 9/31/6 11/30/6
f 2/30/6 8/31/6 12/31/6 10/30/6
f 4/32/6 2/33/6 10/33/6 9/32/6
f 22/34/6 6/31/6 11/31/6 25/34/6
f 7/38/5 1/39/5 13/40/5 16/41/5
f 1/42/1 3/43/1 14/44/1 13/45/1
f 23/46/4 7/31/4 16/47/4 28/48/4
f 3/6/2 5/49/2 15/50/2 14/51/2
f 10/27/5 12/22/5 20/55/5 18/28/5
f 11/56/2 9/5/2 17/57/2 19/58/2
f 25/59/8 11/56/8 19/58/8 29/60/8
f 12/71/4 26/72/4 30/73/4 20/74/4
f 8/75/6 24/76/6 26/76/6 12/75/6
f 5/77/8 6/78/8 22/79/8 21/80/8
f 5/78/8 21/79/8 27/81/8 15/82/8
f 24/9/3 23/83/3 21/10/3
f 21/12/3 23/84/3 28/13/3
f 29/15/3 30/85/3 26/16/3
