# Blender 5.1.2
# www.blender.org
mtllib regular_tuscan_base.mtl
o Cube.293
v 0.292892 0.200001 -0.000004
v 0.292892 0.330001 -0.000004
v 0.707108 0.200001 -0.000004
v 0.707108 0.330001 -0.000004
v 1.000004 0.200001 0.292892
v 1.000004 0.330001 0.292892
v 1.000004 0.200001 0.707108
v 1.000004 0.330001 0.707108
v 0.707108 0.200001 1.000004
v 0.707108 0.330001 1.000004
v 0.292892 0.200001 1.000004
v 0.292892 0.330001 1.000004
v -0.000004 0.200001 0.707108
v -0.000004 0.330001 0.707108
v -0.000004 0.200001 0.292892
v -0.000004 0.330001 0.292892
v 1.000000 0.200000 0.000000
v 1.000000 0.000000 0.000000
v 1.000000 0.200000 1.000000
v 1.000000 0.000000 1.000000
v -0.000000 0.200000 0.000000
v -0.000000 0.000000 0.000000
v -0.000000 0.200000 1.000000
v -0.000000 0.000000 1.000000
vn -0.0000 -0.0000 -1.0000
vn 0.7071 -0.0000 -0.7071
vn 1.0000 -0.0000 -0.0000
vn 0.7071 -0.0000 0.7071
vn -0.0000 -0.0000 1.0000
vn -0.7071 -0.0000 0.7071
vn -0.0000 1.0000 -0.0000
vn -1.0000 -0.0000 -0.0000
vn -0.7071 -0.0000 -0.7071
vn -0.0000 -1.0000 -0.0000
vt 0.859523 0.456417
vt 0.710387 0.918583
vt 0.710387 0.456417
vt 0.172023 0.518917
vt 0.022887 0.981083
vt 0.022887 0.518917
vt 0.484523 0.018917
vt 0.335387 0.481083
vt 0.335387 0.018917
vt 0.984523 0.018917
vt 0.835387 0.481083
vt 0.835387 0.018917
vt 0.422023 0.331417
vt 0.272887 0.793583
vt 0.272887 0.331417
vt 0.172023 0.018917
vt 0.022887 0.481083
vt 0.022887 0.018917
vt 0.292935 0.999900
vt 0.000100 0.292935
vt 0.707065 0.000100
vt 0.672023 0.081417
vt 0.522887 0.543583
vt 0.522887 0.081417
vt 0.984523 0.518917
vt 0.835387 0.981083
vt 0.835387 0.518917
vt 0.314664 0.961119
vt 0.038935 0.961116
vt 0.038931 0.685386
vt -0.003276 0.168136
vt 0.997103 0.168136
vt 0.289726 0.380694
vt 0.000100 0.999900
vt 0.999900 0.000100
vt 0.999900 0.999900
vt 0.685416 0.038902
vt 0.961145 0.038905
vt 0.961148 0.314635
vt -0.003276 0.043136
vt 0.997103 0.043136
vt 0.289726 0.255694
vt -0.003276 0.730636
vt 0.997103 0.730636
vt 0.289726 0.943194
vt -0.003276 0.605636
vt 0.997103 0.605636
vt 0.289726 0.818194
vt 0.036978 0.314635
vt 0.036981 0.038905
vt 0.312711 0.038902
vt 0.961148 0.685386
vt 0.961145 0.961115
vt 0.685416 0.961119
vt 0.859523 0.918583
vt 0.172023 0.981083
vt 0.484523 0.481083
vt 0.984523 0.481083
vt 0.422023 0.793583
vt 0.172023 0.481083
vt 0.999900 0.292935
vt 0.999900 0.707065
vt 0.707065 0.999900
vt 0.000100 0.707065
vt 0.292935 0.000100
vt 0.672023 0.543583
vt 0.984523 0.981083
vt 0.997103 0.380693
vt 0.704100 0.380694
vt -0.003276 0.380693
vt 0.000100 0.000100
vt 0.997103 0.255693
vt 0.704100 0.255694
vt -0.003276 0.255693
vt 0.997103 0.943193
vt 0.704100 0.943194
vt -0.003276 0.943193
vt 0.997103 0.818193
vt 0.704100 0.818194
vt -0.003276 0.818193
s 0
usemtl ionic_base_small
f 2/1/1 3/2/1 1/3/1
f 4/4/2 5/5/2 3/6/2
f 6/7/3 7/8/3 5/9/3
f 8/10/4 9/11/4 7/12/4
f 10/13/5 11/14/5 9/15/5
f 12/16/6 13/17/6 11/18/6
f 14/19/7 10/20/7 6/21/7
f 14/22/8 15/23/8 13/24/8
f 16/25/9 1/26/9 15/27/9
f 5/28/7 17/29/7 3/30/7
f 20/31/3 18/32/3 7/33/3
f 18/34/10 24/35/10 22/36/10
f 13/37/7 23/38/7 11/39/7
f 22/40/8 24/41/8 15/42/8
f 24/43/5 20/44/5 11/45/5
f 18/46/1 22/47/1 3/48/1
f 9/49/7 19/50/7 7/51/7
f 1/52/7 21/53/7 15/54/7
f 2/1/1 4/55/1 3/2/1
f 4/4/2 6/56/2 5/5/2
f 6/7/3 8/57/3 7/8/3
f 8/10/4 10/58/4 9/11/4
f 10/13/5 12/59/5 11/14/5
f 12/16/6 14/60/6 13/17/6
f 6/21/7 4/61/7 2/62/7
f 2/62/7 16/63/7 14/19/7
f 14/19/7 12/64/7 10/20/7
f 10/20/7 8/65/7 6/21/7
f 6/21/7 2/62/7 14/19/7
f 14/22/8 16/66/8 15/23/8
f 16/25/9 2/67/9 1/26/9
f 17/68/3 5/69/3 18/32/3
f 5/69/3 7/33/3 18/32/3
f 7/33/3 19/70/3 20/31/3
f 18/34/10 20/71/10 24/35/10
f 23/72/8 13/73/8 24/41/8
f 13/73/8 15/42/8 24/41/8
f 15/42/8 21/74/8 22/40/8
f 19/75/5 9/76/5 20/44/5
f 9/76/5 11/45/5 20/44/5
f 11/45/5 23/77/5 24/43/5
f 21/78/1 1/79/1 22/47/1
f 1/79/1 3/48/1 22/47/1
f 3/48/1 17/80/1 18/46/1
