# Blender 5.1.2
# www.blender.org
mtllib regular_tuscan_half_capital.mtl
o Cube.292
v 1.000782 1.001000 0.499216
v 1.000782 0.879000 0.499216
v -0.000785 1.001000 0.499216
v -0.000785 0.879000 0.499216
v 0.313021 0.513001 0.548598
v 0.313021 0.598738 0.548598
v 0.686976 0.513001 0.548598
v 0.686976 0.598738 0.548598
v 0.951402 0.513001 0.813025
v 0.951402 0.598738 0.813025
v 0.048595 0.513001 0.813025
v 0.048595 0.598738 0.813025
v 0.661513 0.598738 0.610070
v 0.338484 0.598738 0.610070
v 0.889930 0.598738 0.838488
v 0.110067 0.598738 0.838488
v 0.661513 0.793938 0.610070
v 0.338484 0.793938 0.610070
v 0.889930 0.793938 0.838488
v 0.110067 0.793938 0.838488
v 0.679969 0.793938 0.565515
v 0.320028 0.793938 0.565515
v 0.934485 0.793938 0.820032
v 0.065512 0.793938 0.820032
v 0.707429 0.830539 0.499220
v 0.292568 0.830539 0.499220
v 1.000781 0.830539 0.792572
v -0.000784 0.830539 0.792572
v -0.000785 0.879114 0.792572
v 0.706473 0.879114 0.499218
v 0.292568 0.879170 0.499220
v 1.000782 0.879114 0.792572
v 1.000782 1.001000 1.000000
v -0.000785 1.001000 1.000000
v 0.951402 0.513001 1.000000
v 0.951402 0.598738 1.000000
v 0.048595 0.513001 1.000000
v 0.048595 0.598738 1.000000
v 0.889930 0.598738 1.000000
v 0.110067 0.598738 1.000000
v 0.889930 0.793938 1.000000
v 0.110067 0.793938 1.000000
v 0.934485 0.793938 1.000000
v 0.065512 0.793938 1.000000
v 1.000781 0.830539 1.000000
v -0.000784 0.830539 1.000000
v -0.000785 0.879114 1.000000
v 1.000782 0.879099 1.000000
v 0.499999 1.001000 1.000000
v -0.000785 0.914813 1.000000
v 1.000782 0.914705 1.000000
v 0.951402 0.555870 1.000000
v 0.048595 0.555869 1.000000
v 0.499994 0.513001 1.000000
v 0.918420 0.598738 1.000000
v 0.081577 0.598738 1.000000
v 0.889930 0.696337 1.000000
v 0.110067 0.696339 1.000000
v 0.034713 0.810941 1.000000
v 0.088994 0.793938 1.000000
v 0.911003 0.793938 1.000000
v -0.000784 0.854827 1.000000
v 0.965284 0.810941 1.000000
v 1.000781 0.854853 1.000000
vn 1.0000 -0.0000 -0.0000
vn 0.0006 -1.0000 0.0004
vn -0.0000 -0.0000 -1.0000
vn 0.7071 -0.0000 -0.7071
vn -0.0000 1.0000 -0.0000
vn -1.0000 -0.0000 -0.0000
vn -0.7071 -0.0000 -0.7071
vn -0.0000 -1.0000 -0.0000
vn -0.4833 -0.8754 -0.0000
vn 0.4833 -0.8754 -0.0000
vn -0.0000 -0.8754 -0.4833
vn -0.3418 -0.8754 -0.3418
vn 0.3418 -0.8754 -0.3418
vn -0.0004 -1.0000 0.0004
vn -0.0000 -0.0000 1.0000
vn 0.7059 0.0139 -0.7082
vt 0.499647 0.859044
vt 0.292555 0.859033
vt -0.000321 0.768983
vt 0.499648 0.832738
vt 0.060244 0.939430
vt 0.060240 0.646070
vt 0.353597 0.646070
vt 0.652011 0.530994
vt 0.287871 0.472107
vt 0.652011 0.472107
vt 0.402011 0.905994
vt 0.037871 0.847107
vt 0.402011 0.847107
vt 0.631673 0.598529
vt 0.679482 0.935180
vt 0.631673 0.961363
vt 0.282439 0.189050
vt 0.100371 0.159607
vt 0.282439 0.159607
vt 0.777011 0.093494
vt 0.412871 0.034607
vt 0.777011 0.034607
vt 0.148931 0.499999
vt 0.148931 0.354583
vt 0.499996 0.499999
vt 0.569173 0.098529
vt 0.616982 0.435180
vt 0.569173 0.461363
vt 0.719824 0.216655
vt 0.741982 0.372680
vt 0.694173 0.398863
vt 0.694173 0.217448
vt 0.819173 0.961363
vt 0.866982 0.624712
vt 0.866982 0.935180
vt 0.860254 0.906129
vt 0.825601 0.578042
vt 0.860254 0.592395
vt 0.687500 0.187500
vt 0.375000 0.375000
vt 0.375000 0.187500
vt 0.750000 0.375000
vt 0.437500 0.562500
vt 0.437500 0.375000
vt 1.000000 0.812500
vt 0.687500 1.000000
vt 0.687500 0.812500
vt 0.718748 0.156251
vt 0.562500 0.250000
vt 0.562500 0.062500
vt 0.718748 0.062500
vt 0.903639 0.312502
vt 0.934503 0.510439
vt 0.876861 0.484235
vt 0.876861 0.312502
vt 0.531364 0.500949
vt 0.513101 0.328042
vt 0.547754 0.342395
vt 0.547754 0.499260
vt 0.360254 0.529895
vt 0.325601 0.857982
vt 0.325601 0.515542
vt 0.735254 0.154895
vt 0.700601 0.482982
vt 0.700601 0.140542
vt 0.687777 0.844449
vt 0.879969 0.827778
vt 0.880636 0.861121
vt 0.688110 0.861121
vt 0.341139 0.687498
vt 0.372003 0.489561
vt 0.372003 0.687498
vt 0.064361 0.328266
vt 0.122003 0.697939
vt 0.064361 0.671735
vt 0.689361 0.578266
vt 0.747003 0.947939
vt 0.689361 0.921735
vt 0.439361 0.421735
vt 0.497003 0.052061
vt 0.497003 0.447939
vt 0.245580 0.236121
vt 0.629969 0.202778
vt 0.630636 0.236121
vt 0.443136 0.861121
vt 0.058080 0.827757
vt 0.442469 0.827778
vt 0.058080 0.548621
vt 0.442469 0.515278
vt 0.443136 0.548621
vt 0.706994 0.544983
vt 0.293761 0.544941
vt 0.000885 0.454933
vt 0.939760 0.354749
vt 0.646400 0.354749
vt 0.939758 0.060435
vt 0.499649 0.018983
vt 0.999619 0.018983
vt 0.706027 0.109055
vt 0.499145 0.082674
vt 0.999619 0.109117
vt -0.000321 0.859117
vt 0.287871 0.530994
vt 0.037871 0.905994
vt 0.280528 0.110733
vt 0.280528 0.089696
vt 0.365544 0.000070
vt 0.679482 0.624712
vt 0.282439 0.218494
vt 0.100371 0.218494
vt 0.412871 0.093494
vt 0.354582 0.148931
vt 0.645417 0.148931
vt 0.851068 0.354583
vt 0.616982 0.124712
vt 0.741982 0.217448
vt 0.819173 0.598529
vt 0.825601 0.920482
vt 0.687500 0.375000
vt 0.750000 0.562500
vt 1.000000 1.000000
vt 0.718748 0.250000
vt 0.934502 0.312502
vt 0.513101 0.499260
vt 0.360254 0.843629
vt 0.735254 0.468629
vt 0.687777 0.827768
vt 0.314361 0.687498
vt 0.314361 0.515766
vt 0.122003 0.302061
vt 0.747003 0.552061
vt 0.439361 0.078266
vt 0.245580 0.202757
vt 0.058080 0.861121
vt 0.058080 0.515257
vt 1.000825 0.454933
vt 1.000824 0.545067
vt 0.000885 0.545067
vt 0.433080 0.548621
vt 0.433080 0.515257
vt 0.625606 0.515268
vt 0.625606 0.531921
vt 0.499294 0.109044
vt 0.625606 0.548621
vt 0.422754 0.406129
vt 0.388101 0.420482
vt 0.388101 0.249263
vt 0.406364 0.250953
vt 0.422754 0.249264
vt 0.375000 0.062500
vt 0.375000 0.250000
vt 0.218752 0.250000
vt 0.218752 0.156249
vt 0.218752 0.062500
vt 0.616982 0.279944
vt 0.594823 0.279151
vt 0.569173 0.279944
vt 0.964511 0.905994
vt 0.782443 0.905994
vt 0.782443 0.876550
vt 0.782443 0.847107
vt 0.964511 0.847107
vt 0.851068 0.499999
vt 0.125000 0.875000
vt 0.125000 0.500000
vt 0.500000 0.500000
vt 0.875000 0.500000
vt 0.875000 0.875000
vt 0.499649 0.768983
vt 0.085661 0.917708
vt 0.085661 0.950634
vt 0.042865 0.950634
vt 0.000070 0.950634
vt 0.085661 0.889267
vt 0.000070 0.500004
vt 0.000070 0.049366
vt 0.085661 0.110733
vt 0.042866 0.049366
vt 0.085661 0.049366
vt 0.085661 0.082291
vt 0.183095 0.889267
vt 0.183093 0.110733
vt 0.280528 0.889267
vt 0.487238 0.500000
vt 0.297502 0.964492
vt 0.280528 0.933746
vt 0.280528 0.910305
vt 0.365559 0.999930
vt 0.341313 0.999929
vt 0.317066 0.999929
vt 0.401198 0.999930
vt 0.487238 0.999930
vt 0.401089 0.000070
vt 0.487238 0.000070
vt 0.341339 0.000071
vt 0.297502 0.035508
vt 0.317066 0.000071
vt 0.280528 0.066254
s 0
usemtl ionic_capital
f 48/1/1 32/2/1 1/3/1 51/4/1
f 29/5/2 4/6/2 31/7/2
f 6/8/3 7/9/3 5/10/3
f 8/11/4 9/12/4 7/13/4
f 12/14/5 14/15/5 6/16/5
f 53/17/6 11/18/6 37/19/6
f 12/20/7 5/21/7 11/22/7
f 37/23/8 11/24/8 54/25/8
f 6/26/5 13/27/5 8/28/5
f 56/29/5 16/30/5 12/31/5 38/32/5
f 10/33/5 13/34/5 15/35/5
f 17/36/8 23/37/8 19/38/8
f 14/39/3 17/40/3 13/41/3
f 16/42/7 18/43/7 14/44/7
f 13/45/4 19/46/4 15/47/4
f 58/48/6 20/49/6 16/50/6 40/51/6
f 59/52/9 28/53/9 24/54/9 44/55/9
f 60/56/8 24/57/8 20/58/8 42/59/8
f 17/60/8 22/61/8 21/62/8
f 18/63/8 24/64/8 22/65/8
f 62/66/6 29/67/6 28/68/6 46/69/6
f 63/70/10 27/71/10 45/72/10
f 22/73/11 25/74/11 21/75/11
f 24/76/12 26/77/12 22/78/12
f 23/79/13 25/80/13 27/81/13
f 26/82/3 30/83/3 25/84/3
f 26/85/7 29/86/7 31/87/7
f 25/88/4 32/89/4 27/90/4
f 30/91/3 31/92/3 3/93/3
f 2/94/14 32/95/14 30/96/14
f 34/97/6 3/98/6 29/99/6 50/100/6
f 3/98/6 4/101/6 29/99/6
f 32/2/1 2/102/1 1/3/1
f 6/8/3 8/103/3 7/9/3
f 8/11/4 10/104/4 9/12/4
f 41/105/15 61/106/15 48/107/15
f 12/14/5 16/108/5 14/15/5
f 38/109/6 12/110/6 11/18/6 53/17/6
f 12/20/7 6/111/7 5/21/7
f 11/24/8 5/112/8 7/113/8
f 7/113/8 9/114/8 11/24/8
f 6/26/5 14/115/5 13/27/5
f 56/29/5 40/116/5 16/30/5
f 10/33/5 8/117/5 13/34/5
f 17/36/8 21/118/8 23/37/8
f 14/39/3 18/119/3 17/40/3
f 16/42/7 20/120/7 18/43/7
f 13/45/4 17/121/4 19/46/4
f 58/48/6 42/122/6 20/49/6
f 59/52/9 46/123/9 28/53/9
f 60/56/8 44/124/8 24/57/8
f 17/60/8 18/125/8 22/61/8
f 18/63/8 20/126/8 24/64/8
f 62/66/6 47/127/6 29/67/6
f 43/128/10 23/129/10 27/71/10 63/70/10
f 22/73/11 26/130/11 25/74/11
f 24/76/12 28/131/12 26/77/12
f 23/79/13 21/132/13 25/80/13
f 26/82/3 31/133/3 30/83/3
f 26/85/7 28/134/7 29/86/7
f 25/88/16 30/135/16 32/89/16
f 1/136/3 2/137/3 30/91/3
f 31/92/3 4/138/3 3/93/3
f 1/136/3 30/91/3 3/93/3
f 27/139/1 32/140/1 48/141/1 64/142/1
f 29/99/6 47/143/6 50/100/6
f 27/139/1 64/142/1 45/144/1
f 19/145/8 23/146/8 43/147/8 61/148/8
f 19/145/8 61/148/8 41/149/8
f 15/150/1 19/151/1 41/152/1 57/153/1
f 15/150/1 57/153/1 39/154/1
f 10/26/5 15/115/5 39/155/5 55/156/5
f 10/26/5 55/156/5 36/157/5
f 10/158/1 36/159/1 52/160/1
f 10/158/1 52/160/1 35/161/1 9/162/1
f 9/114/8 35/163/8 54/25/8 11/24/8
f 3/164/5 34/165/5 49/166/5
f 3/164/5 49/166/5 33/167/5 1/168/5
f 1/3/1 33/169/1 51/4/1
f 56/170/15 38/171/15 53/172/15
f 53/172/15 37/173/15 40/174/15
f 37/173/15 54/175/15 40/174/15
f 54/175/15 35/176/15 39/177/15
f 35/176/15 52/178/15 39/177/15
f 52/178/15 36/179/15 55/180/15
f 52/178/15 55/180/15 39/177/15
f 40/174/15 54/175/15 58/181/15
f 40/174/15 56/170/15 53/172/15
f 54/175/15 39/177/15 57/182/15
f 58/181/15 54/175/15 42/183/15
f 54/175/15 57/182/15 41/105/15
f 42/183/15 54/175/15 49/184/15
f 54/175/15 41/105/15 49/184/15
f 59/185/15 44/186/15 60/187/15
f 59/185/15 60/187/15 47/188/15
f 60/187/15 42/183/15 47/188/15
f 62/189/15 46/190/15 59/185/15
f 50/191/15 47/188/15 42/183/15
f 47/188/15 62/189/15 59/185/15
f 49/184/15 34/192/15 42/183/15
f 34/192/15 50/191/15 42/183/15
f 51/193/15 33/194/15 41/105/15
f 33/194/15 49/184/15 41/105/15
f 64/195/15 48/107/15 63/196/15
f 48/107/15 51/193/15 41/105/15
f 63/196/15 48/107/15 61/106/15
f 63/196/15 45/197/15 64/195/15
f 61/106/15 43/198/15 63/196/15
