# Blender 5.0.1
# www.blender.org
mtllib rowlock_arch.mtl
o wide-2
usemtl arch_mat
v 1.000000 0.500192 1.005000
v 1.500000 0.500192 1.005000
v 0.000000 0.500192 1.005000
v -0.500000 0.500192 1.005000
v 1.000000 0.500192 -0.005000
v 1.500000 0.500192 -0.005000
v -0.000000 0.500192 -0.005000
v -0.500000 0.500192 -0.005000
v 0.001801 0.542941 1.005000
v 0.028562 0.668122 1.005000
v 0.044386 0.707824 1.005000
v 0.110982 0.816867 1.005000
v 0.139022 0.848986 1.005000
v 0.237847 0.929433 1.005000
v 0.274898 0.950300 1.005000
v 0.394661 0.992961 1.005000
v 0.436491 1.000192 1.005000
v 0.563509 1.000192 1.005000
v 0.605340 0.992961 1.005000
v 0.725102 0.950300 1.005000
v 0.762154 0.929433 1.005000
v 0.860978 0.848986 1.005000
v 0.889018 0.816867 1.005000
v 0.955614 0.707824 1.005000
v 0.971439 0.668122 1.005000
v 0.998199 0.542941 1.005000
v 1.496398 0.585690 1.005000
v 1.442878 0.836052 1.005000
v 1.411229 0.915456 1.005000
v 1.278036 1.133542 1.005000
v 1.221956 1.197781 1.005000
v 1.024307 1.358674 1.005000
v 0.950204 1.400409 1.005000
v 0.710679 1.485729 1.005000
v 0.627018 1.500192 1.005000
v 0.372982 1.500192 1.005000
v 0.289321 1.485729 1.005000
v 0.049796 1.400409 1.005000
v -0.024307 1.358674 1.005000
v -0.221956 1.197781 1.005000
v -0.278036 1.133541 1.005000
v -0.411228 0.915456 1.005000
v -0.442877 0.836052 1.005000
v -0.496397 0.585690 1.005000
v 0.998199 0.542941 -0.005000
v 0.971439 0.668122 -0.005000
v 0.955614 0.707824 -0.005000
v 0.889018 0.816867 -0.005000
v 0.860978 0.848986 -0.005000
v 0.762153 0.929433 -0.005000
v 0.725102 0.950300 -0.005000
v 0.605339 0.992961 -0.005000
v 0.563509 1.000192 -0.005000
v 0.436491 1.000192 -0.005000
v 0.394660 0.992961 -0.005000
v 0.274898 0.950300 -0.005000
v 0.237846 0.929433 -0.005000
v 0.139022 0.848986 -0.005000
v 0.110982 0.816867 -0.005000
v 0.044386 0.707824 -0.005000
v 0.028561 0.668122 -0.005000
v 0.001801 0.542941 -0.005000
v -0.496398 0.585690 -0.005000
v -0.442878 0.836052 -0.005000
v -0.411229 0.915457 -0.005000
v -0.278036 1.133542 -0.005000
v -0.221956 1.197781 -0.005000
v -0.024307 1.358674 -0.005000
v 0.049796 1.400409 -0.005000
v 0.289321 1.485729 -0.005000
v 0.372982 1.500192 -0.005000
v 0.627018 1.500192 -0.005000
v 0.710679 1.485729 -0.005000
v 0.950204 1.400409 -0.005000
v 1.024307 1.358674 -0.005000
v 1.221956 1.197781 -0.005000
v 1.278036 1.133541 -0.005000
v 1.411228 0.915456 -0.005000
v 1.442877 0.836052 -0.005000
v 1.496397 0.585690 -0.005000
v -0.478558 0.669144 -0.005000
v -0.460718 0.752598 -0.005000
v 0.010721 0.584668 -0.005000
v 0.019641 0.626395 -0.005000
v 0.019641 0.626395 1.005000
v 0.010721 0.584668 1.005000
v -0.460717 0.752598 1.005000
v -0.478557 0.669144 1.005000
v -0.366831 0.988152 -0.005000
v -0.322433 1.060847 -0.005000
v 0.066584 0.744172 -0.005000
v 0.088783 0.780519 -0.005000
v 0.088784 0.780519 1.005000
v 0.066585 0.744172 1.005000
v -0.322433 1.060846 1.005000
v -0.366831 0.988151 1.005000
v -0.156073 1.251412 -0.005000
v -0.090190 1.305043 -0.005000
v 0.171963 0.875802 -0.005000
v 0.204905 0.902617 -0.005000
v 0.204905 0.902617 1.005000
v 0.171964 0.875802 1.005000
v -0.090190 1.305043 1.005000
v -0.156073 1.251412 1.005000
v 0.129638 1.428849 -0.005000
v 0.209479 1.457289 -0.005000
v 0.314819 0.964520 -0.005000
v 0.354739 0.978740 -0.005000
v 0.354740 0.978740 1.005000
v 0.314819 0.964520 1.005000
v 0.209479 1.457289 1.005000
v 0.129638 1.428849 1.005000
v 0.457661 1.500192 -0.005000
v 0.542339 1.500192 -0.005000
v 0.478830 1.000192 -0.005000
v 0.521169 1.000192 -0.005000
v 0.521170 1.000192 1.005000
v 0.478831 1.000192 1.005000
v 0.542339 1.500192 1.005000
v 0.457661 1.500192 1.005000
v 0.790521 1.457289 -0.005000
v 0.870362 1.428849 -0.005000
v 0.645260 0.978740 -0.005000
v 0.685181 0.964520 -0.005000
v 0.685181 0.964520 1.005000
v 0.645261 0.978740 1.005000
v 0.870362 1.428849 1.005000
v 0.790521 1.457289 1.005000
v 1.090190 1.305043 -0.005000
v 1.156073 1.251412 -0.005000
v 0.795095 0.902617 -0.005000
v 0.828036 0.875802 -0.005000
v 0.828037 0.875802 1.005000
v 0.795095 0.902617 1.005000
v 1.156073 1.251412 1.005000
v 1.090190 1.305043 1.005000
v 1.322433 1.060846 -0.005000
v 1.366831 0.988151 -0.005000
v 0.911216 0.780519 -0.005000
v 0.933415 0.744172 -0.005000
v 0.933416 0.744172 1.005000
v 0.911217 0.780519 1.005000
v 1.366831 0.988151 1.005000
v 1.322433 1.060847 1.005000
v 1.460717 0.752598 -0.005000
v 1.478557 0.669144 -0.005000
v 0.980359 0.626395 -0.005000
v 0.989279 0.584668 -0.005000
v 0.989279 0.584668 1.005000
v 0.980359 0.626395 1.005000
v 1.478558 0.669144 1.005000
v 1.460718 0.752598 1.005000
v 1.250000 0.500192 1.005000
v -0.250000 0.500192 1.005000
v -0.250000 0.500192 -0.005000
v 1.250000 0.500192 -0.005000
v 1.207158 0.752087 -0.005000
v 1.247298 0.564315 -0.005000
v 1.083527 0.975204 -0.005000
v 1.183421 0.811640 -0.005000
v 0.893230 1.144053 -0.005000
v 1.041467 1.023383 -0.005000
v 0.658009 1.239345 -0.005000
v 0.837653 1.175355 -0.005000
v 0.404736 1.250192 -0.005000
v 0.595263 1.250192 -0.005000
v 0.162347 1.175355 -0.005000
v 0.341990 1.239345 -0.005000
v -0.041467 1.023383 -0.005000
v 0.106769 1.144053 -0.005000
v -0.183422 0.811640 -0.005000
v -0.083527 0.975204 -0.005000
v -0.247298 0.564315 -0.005000
v -0.207158 0.752087 -0.005000
v -0.207158 0.752087 1.005000
v -0.247298 0.564315 1.005000
v -0.083527 0.975204 1.005000
v -0.183421 0.811640 1.005000
v 0.106770 1.144053 1.005000
v -0.041467 1.023383 1.005000
v 0.341991 1.239345 1.005000
v 0.162347 1.175355 1.005000
v 0.595264 1.250192 1.005000
v 0.404737 1.250192 1.005000
v 0.837653 1.175355 1.005000
v 0.658010 1.239345 1.005000
v 1.041467 1.023383 1.005000
v 0.893231 1.144053 1.005000
v 1.183422 0.811640 1.005000
v 1.083527 0.975204 1.005000
v 1.247298 0.564315 1.005000
v 1.207158 0.752087 1.005000
v -0.233918 0.626906 -0.005000
v -0.220538 0.689496 -0.005000
v -0.220538 0.689496 1.005000
v -0.233918 0.626906 1.005000
v -0.150123 0.866162 -0.005000
v -0.116825 0.920683 -0.005000
v -0.116825 0.920683 1.005000
v -0.150123 0.866161 1.005000
v 0.007945 1.063607 -0.005000
v 0.057357 1.103830 -0.005000
v 0.057357 1.103830 1.005000
v 0.007945 1.063607 1.005000
v 0.222228 1.196685 -0.005000
v 0.282109 1.218015 -0.005000
v 0.282110 1.218015 1.005000
v 0.222228 1.196685 1.005000
v 0.468245 1.250192 -0.005000
v 0.531754 1.250192 -0.005000
v 0.531755 1.250192 1.005000
v 0.468246 1.250192 1.005000
v 0.777772 1.196685 1.005000
v 0.717891 1.218015 1.005000
v 0.717890 1.218015 -0.005000
v 0.777772 1.196685 -0.005000
v 0.942643 1.103830 -0.005000
v 0.992055 1.063607 -0.005000
v 0.992055 1.063607 1.005000
v 0.942643 1.103830 1.005000
v 1.116825 0.920683 -0.005000
v 1.150123 0.866161 -0.005000
v 1.150123 0.866162 1.005000
v 1.116825 0.920683 1.005000
v 1.220538 0.689496 -0.005000
v 1.233918 0.626906 -0.005000
v 1.233918 0.626906 1.005000
v 1.220538 0.689496 1.005000
vn 0.9991 -0.0421 -0.0000
vn -0.0000 -1.0000 -0.0000
vn -0.0000 -0.0000 1.0000
vn 0.7533 -0.6576 -0.0000
vn -0.0000 -0.0000 -1.0000
vn 0.3356 -0.9420 -0.0000
vn -0.6313 -0.7755 -0.0000
vn -0.9779 0.2090 -0.0000
vn -0.9991 -0.0421 -0.0000
vn 0.4907 -0.8713 -0.0000
vn -0.3356 -0.9420 -0.0000
vn 0.1703 -0.9854 -0.0000
vn -0.8534 -0.5212 -0.0000
vn -0.1703 -0.9854 -0.0000
vn -0.4907 -0.8713 -0.0000
vn -0.7533 -0.6576 -0.0000
vn -0.9289 -0.3703 -0.0000
vn 0.6313 -0.7755 -0.0000
vn 0.9289 -0.3703 -0.0000
vn 0.8534 -0.5212 -0.0000
vn 0.1703 0.9854 -0.0000
vn 0.8534 0.5212 -0.0000
vn 0.6313 0.7755 -0.0000
vn 0.9779 0.2090 -0.0000
vn -0.1703 0.9854 -0.0000
vn -0.8534 0.5212 -0.0000
vn 0.9289 0.3703 -0.0000
vn 0.7533 0.6576 -0.0000
vn 0.4907 0.8713 -0.0000
vn -0.4907 0.8713 -0.0000
vn 0.3356 0.9420 -0.0000
vn -0.7533 0.6576 -0.0000
vn -0.3356 0.9420 -0.0000
vn -0.9289 0.3703 -0.0000
vn -0.9991 0.0421 -0.0000
vn -0.6313 0.7755 -0.0000
vn 0.9991 0.0421 -0.0000
vn -0.0000 1.0000 -0.0000
vn -0.9779 -0.2090 -0.0000
vn 0.9779 -0.2090 -0.0000
vt 1.000000 0.000000
vt 1.000000 0.062500
vt 0.000000 0.062500
vt 0.000000 0.000000
vt 0.375000 0.250000
vt 0.375000 0.312500
vt 0.250000 0.312500
vt 0.250000 0.250000
vt 0.750000 0.312500
vt 0.500000 0.312500
vt 0.500000 0.250000
vt 0.750000 0.250000
vt 1.000000 0.500000
vt 1.000000 0.562500
vt 0.000000 0.562500
vt 0.000000 0.500000
vt 0.250000 0.625000
vt 0.250000 0.562500
vt 0.500000 0.562500
vt 0.500000 0.625000
vt 1.000000 0.916667
vt 0.000000 0.916667
vt 0.000000 0.875000
vt 1.000000 0.875000
vt 1.000000 0.895833
vt 1.000000 0.937500
vt 0.000000 0.937500
vt 0.000000 0.895833
vt 1.000000 0.354167
vt 0.000000 0.354167
vt 0.000000 0.312500
vt 1.000000 0.312500
vt 0.000000 0.437500
vt 1.000000 0.437500
vt 1.000000 0.375000
vt 0.000000 0.375000
vt 0.750000 0.750000
vt 0.750000 0.812500
vt 0.500000 0.812500
vt 0.500000 0.750000
vt 0.250000 0.562500
vt 0.250000 0.500000
vt 0.500000 0.500000
vt 0.250000 0.500000
vt 0.500000 0.062500
vt 0.250000 0.062500
vt 0.250000 -0.000000
vt 0.500000 0.000000
vt 1.000000 0.000000
vt 0.750000 0.062500
vt 0.750000 -0.000000
vt 0.250000 0.750000
vt 0.250000 0.812500
vt 0.000000 0.812500
vt 0.000000 0.750000
vt 0.750000 0.625000
vt 0.750000 0.562500
vt 1.000000 0.625000
vt 1.000000 0.687500
vt 0.750000 0.687500
vt 0.500000 0.375000
vt 0.750000 0.375000
vt 0.750000 0.437500
vt 0.500000 0.437500
vt 0.500000 0.187500
vt 0.500000 0.250000
vt 0.250000 0.250000
vt 0.250000 0.187500
vt 0.750000 0.937500
vt 0.750000 1.000000
vt 0.500000 1.000000
vt 0.500000 0.937500
vt 0.500000 0.687500
vt 0.250000 0.687500
vt 1.000000 0.750000
vt 0.250000 0.312500
vt 0.000000 0.312500
vt 0.000000 0.250000
vt 0.250000 0.250000
vt 1.000000 0.250000
vt 0.000000 0.250000
vt 0.500000 0.937500
vt 1.000000 0.812500
vt 0.000000 0.812500
vt 1.000000 0.458333
vt 1.000000 0.500000
vt 0.000000 0.500000
vt 0.000000 0.458333
vt 1.000000 0.958333
vt 1.000000 1.000000
vt 0.000000 1.000000
vt 0.000000 0.958333
vt 0.500000 0.495384
vt 0.500000 0.432884
vt 0.750000 0.432884
vt 0.750000 0.495384
vt 0.750000 0.562500
vt 0.750000 0.500000
vt 0.750000 0.687500
vt 0.750000 0.500000
vt 0.500000 0.500000
vt 0.500000 0.437500
vt 1.000000 0.187500
vt 0.750000 0.250000
vt 0.750000 0.187500
vt 1.000000 0.416667
vt 0.000000 0.416667
vt 1.000000 0.187500
vt 0.500000 0.250000
vt 0.500000 0.312500
vt 0.375000 0.312500
vt 0.375000 0.250000
vt 1.000000 0.436250
vt 0.000000 0.436250
vt 0.000000 0.498750
vt 1.000000 0.498750
vt 1.000000 0.749023
vt 0.000000 0.749023
vt 0.000000 0.811523
vt 1.000000 0.811523
vt 1.000000 0.374023
vt 1.000000 0.311523
vt 0.002879 0.311523
vt 0.002879 0.374023
vt 1.000000 0.062250
vt 1.000000 -0.000250
vt 0.000000 -0.000250
vt 0.000000 0.062250
vt 1.000000 0.354167
vt 0.000000 0.354167
vt 0.000000 0.312500
vt 1.000000 0.312500
vt 1.000000 0.354167
vt 0.000000 0.354167
vt 1.000000 0.312500
vt 1.000000 0.437500
vt 0.000000 0.437500
vt 0.000000 0.395833
vt 1.000000 0.395833
vt 0.500000 0.812500
vt 0.500000 0.875000
vt 0.750000 0.875000
vt 1.000000 0.874023
vt 0.000000 0.874023
vt 0.000000 0.936523
vt 1.000000 0.936523
vt 0.000000 0.999023
vt 1.000000 0.999023
vt 0.000000 0.458333
vt 1.000000 0.458333
vt 0.750000 0.875000
vt 0.500000 0.875000
vt 1.000000 0.854167
vt 0.000000 0.854167
vt 1.000000 0.125000
vt 0.750000 0.125000
vt 0.750000 0.062500
vt 0.500000 0.312500
vt 1.000000 0.958333
vt 0.500000 0.125000
vt 0.250000 0.125000
vt 0.250000 0.062500
vt 0.000000 0.395833
vt 1.000000 0.395833
vt 0.750000 0.375000
vt 0.500000 0.375000
vt 0.500000 0.312500
vt 1.000000 0.375000
vt 1.000000 0.416667
vt 0.000000 0.416667
vt 0.000000 0.375000
vt 1.000000 0.916667
vt 0.000000 0.916667
vt 1.000000 0.437500
vt 0.000000 0.437500
vt 0.000000 0.395833
vt 1.000000 0.395833
vt 0.750000 0.125000
vt 0.750000 0.062500
vt 0.750000 0.000000
vt 0.250000 0.125000
vt 0.250000 0.062500
vt 0.500000 0.000000
vt 0.250000 0.000000
vt 0.500000 0.187500
vt 0.250000 0.187500
vt 0.500000 0.375000
vt 1.000000 0.187500
vt 0.750000 0.187500
vt 0.625000 0.250000
vt 0.625000 0.312500
vt 0.750000 0.812500
vt 0.750000 0.750000
vt 0.750000 0.312500
vt 0.750000 0.250000
vt 0.500000 0.620384
vt 0.500000 0.682884
vt 0.250000 0.682884
vt 0.250000 0.620384
vt 0.500000 0.312500
s 0
usemtl arch_mat
f 9/1/1 3/2/1 7/3/1 62/4/1
f 155/5/2 154/6/2 4/7/2 8/8/2
f 191/9/3 26/10/3 1/11/3 153/12/3
f 13/13/4 12/14/4 59/15/4 58/16/4
f 169/17/5 172/18/5 66/19/5 67/20/5
f 107/21/6 110/22/6 15/23/6 56/24/6
f 132/25/7 49/26/7 22/27/7 133/28/7
f 115/29/2 118/30/2 17/31/2 54/32/2
f 88/33/8 81/34/8 63/35/8 44/36/8
f 158/37/5 156/38/5 5/39/5 45/40/5
f 157/19/5 46/41/5 47/42/5 160/43/5
f 162/43/5 159/19/5 48/41/5 49/44/5
f 161/9/5 50/10/5 51/11/5 164/12/5
f 163/45/5 52/46/5 53/47/5 166/48/5
f 168/49/5 165/2/5 54/50/5 55/51/5
f 170/52/5 167/53/5 56/54/5 57/55/5
f 171/56/5 174/57/5 64/14/5 65/58/5
f 204/56/3 104/58/3 40/59/3 180/60/3
f 208/61/3 112/62/3 38/63/3 182/64/3
f 212/65/3 184/66/3 17/67/3 118/68/3
f 220/69/3 188/70/3 21/71/3 134/72/3
f 224/73/3 190/40/3 23/52/3 142/74/3
f 228/59/3 192/75/3 25/37/3 150/60/3
f 173/76/5 62/77/5 7/78/5 155/79/5
f 1/80/9 26/32/9 45/31/9 5/81/9
f 196/82/3 88/69/3 44/70/3 176/71/3
f 15/75/10 14/83/10 57/84/10 56/55/10
f 124/85/11 51/86/11 20/87/11 125/88/11
f 17/1/12 16/2/12 55/3/12 54/4/12
f 140/89/13 47/90/13 24/91/13 141/92/13
f 19/80/14 18/32/14 53/31/14 52/81/14
f 194/59/5 174/75/5 61/37/5 84/60/5
f 21/13/15 20/14/15 51/15/15 50/16/15
f 23/75/16 22/83/16 49/84/16 48/55/16
f 25/1/17 24/2/17 47/3/17 46/4/17
f 100/25/18 57/26/18 14/27/18 101/28/18
f 11/80/19 10/32/19 61/31/19 60/81/19
f 189/93/3 192/94/3 28/95/3 29/96/3
f 187/19/3 22/41/3 23/44/3 190/43/3
f 185/38/3 20/39/3 21/40/3 188/37/3
f 183/2/3 18/50/3 19/51/3 186/49/3
f 184/48/3 181/45/3 16/46/3 17/47/3
f 179/79/3 14/78/3 15/77/3 182/76/3
f 177/14/3 12/97/3 13/98/3 180/13/3
f 175/19/3 10/41/3 11/44/3 178/43/3
f 154/53/3 3/54/3 9/55/3 176/52/3
f 222/73/5 160/40/5 47/52/5 140/74/5
f 218/59/5 162/75/5 49/37/5 132/99/5
f 216/63/5 164/100/5 51/101/5 124/102/5
f 210/65/5 166/66/5 53/67/5 116/68/5
f 206/103/5 168/80/5 55/104/5 108/105/5
f 202/69/5 170/70/5 57/71/5 100/82/5
f 200/18/3 96/19/3 42/20/3 178/17/3
f 226/69/5 158/70/5 45/71/5 148/72/5
f 91/106/20 94/107/20 11/36/20 60/35/20
f 214/108/3 186/80/3 19/104/3 126/105/3
f 153/109/2 156/110/2 6/111/2 2/112/2
f 73/24/21 72/83/21 35/84/21 34/23/21
f 144/27/22 137/26/22 77/24/22 30/23/22
f 130/13/23 135/16/23 31/15/23 76/14/23
f 146/113/24 151/114/24 27/115/24 80/116/24
f 71/35/25 70/32/25 37/31/25 36/36/25
f 90/117/26 95/118/26 41/119/26 66/120/26
f 79/35/27 78/32/27 29/31/27 28/36/27
f 77/24/28 76/83/28 31/84/28 30/23/28
f 75/32/29 74/35/29 33/36/29 32/31/29
f 69/83/30 68/24/30 39/23/30 38/84/30
f 122/1/31 127/4/31 33/3/31 74/2/31
f 67/121/32 66/122/32 41/123/32 40/124/32
f 112/27/33 105/26/33 69/24/33 38/23/33
f 65/24/34 64/83/34 43/84/34 42/23/34
f 63/32/35 8/80/35 4/81/35 44/31/35
f 104/33/36 97/34/36 67/35/36 40/36/36
f 6/125/37 80/126/37 27/127/37 2/128/37
f 120/33/38 113/34/38 71/35/38 36/36/38
f 147/129/39 150/130/39 25/131/39 46/132/39
f 83/133/40 86/134/40 9/77/40 62/135/40
f 198/73/5 172/40/5 59/52/5 92/74/5
f 61/136/40 10/137/40 85/138/40 84/139/40
f 84/139/40 85/138/40 86/134/40 83/133/40
f 173/14/5 193/58/5 83/56/5 62/57/5
f 193/58/5 194/59/5 84/60/5 83/56/5
f 175/40/3 43/37/3 87/38/3 195/140/3
f 195/141/3 87/142/3 88/69/3 196/82/3
f 43/15/8 64/14/8 82/13/8 87/16/8
f 87/16/8 82/13/8 81/34/8 88/33/8
f 171/19/5 197/20/5 91/17/5 60/18/5
f 197/20/5 198/73/5 92/74/5 91/17/5
f 65/143/26 42/144/26 96/145/26 89/146/26
f 89/146/26 96/145/26 95/147/26 90/148/26
f 59/13/20 12/16/20 93/149/20 92/150/20
f 92/150/20 93/149/20 94/107/20 91/106/20
f 177/42/3 41/43/3 95/19/3 199/18/3
f 199/17/3 95/20/3 96/73/3 200/74/3
f 39/15/36 68/14/36 98/13/36 103/16/36
f 103/16/36 98/13/36 97/34/36 104/33/36
f 169/38/5 201/151/5 99/152/5 58/140/5
f 201/151/5 202/69/5 100/82/5 99/152/5
f 58/83/18 99/153/18 102/154/18 13/84/18
f 99/153/18 100/25/18 101/28/18 102/154/18
f 179/100/3 39/13/3 103/14/3 203/57/3
f 203/57/3 103/14/3 104/58/3 204/56/3
f 37/15/33 70/14/33 106/13/33 111/16/33
f 111/91/33 106/90/33 105/26/33 112/27/33
f 167/2/5 205/155/5 107/156/5 56/157/5
f 205/155/5 206/103/5 108/105/5 107/156/5
f 181/66/3 37/12/3 111/9/3 207/158/3
f 207/158/3 111/9/3 112/62/3 208/61/3
f 55/90/6 16/91/6 109/92/6 108/159/6
f 108/159/6 109/92/6 110/22/6 107/21/6
f 35/15/38 72/14/38 114/13/38 119/16/38
f 119/16/38 114/13/38 113/34/38 120/33/38
f 165/45/5 209/160/5 115/161/5 54/162/5
f 209/160/5 210/65/5 116/68/5 115/161/5
f 183/45/3 211/160/3 117/161/3 18/162/3
f 211/160/3 212/65/3 118/68/3 117/161/3
f 53/34/2 18/33/2 117/163/2 116/164/2
f 116/164/2 117/163/2 118/30/2 115/29/2
f 73/24/31 34/23/31 128/27/31 121/26/31
f 121/26/31 128/27/31 127/91/31 122/90/31
f 185/2/3 213/155/3 125/156/3 20/157/3
f 213/155/3 214/108/3 126/105/3 125/156/3
f 163/9/5 215/165/5 123/166/5 52/167/5
f 215/165/5 216/63/5 124/102/5 123/166/5
f 52/168/11 123/169/11 126/170/11 19/171/11
f 123/169/11 124/85/11 125/88/11 126/170/11
f 75/35/23 32/36/23 136/33/23 129/34/23
f 129/34/23 136/33/23 135/16/23 130/13/23
f 161/14/5 217/58/5 131/56/5 50/57/5
f 217/58/5 218/59/5 132/99/5 131/56/5
f 187/38/3 219/142/3 133/141/3 22/140/3
f 219/142/3 220/69/3 134/72/3 133/141/3
f 50/83/7 131/153/7 134/154/7 21/84/7
f 131/153/7 132/25/7 133/28/7 134/154/7
f 29/84/22 78/83/22 138/75/22 143/55/22
f 143/91/22 138/90/22 137/26/22 144/27/22
f 159/19/5 221/20/5 139/17/5 48/18/5
f 221/20/5 222/73/5 140/74/5 139/17/5
f 48/24/13 139/172/13 142/173/13 23/23/13
f 139/172/13 140/89/13 141/92/13 142/173/13
f 189/19/3 223/20/3 141/17/3 24/18/3
f 223/20/3 224/73/3 142/74/3 141/17/3
f 45/174/39 26/175/39 149/176/39 148/177/39
f 148/177/39 149/176/39 150/130/39 147/129/39
f 79/35/24 28/36/24 152/33/24 145/34/24
f 145/80/24 152/81/24 151/31/24 146/32/24
f 157/38/5 225/142/5 147/141/5 46/140/5
f 225/142/5 226/69/5 148/72/5 147/141/5
f 191/14/3 227/58/3 149/56/3 26/57/3
f 227/58/3 228/59/3 150/60/3 149/56/3
f 151/75/3 152/83/3 228/38/3 227/37/3
f 27/14/3 151/58/3 227/56/3 191/57/3
f 145/37/5 146/38/5 226/140/5 225/40/5
f 79/38/5 145/142/5 225/141/5 157/140/5
f 143/19/3 144/20/3 224/17/3 223/18/3
f 29/43/3 143/19/3 223/18/3 189/42/3
f 137/73/5 138/40/5 222/52/5 221/74/5
f 77/20/5 137/73/5 221/74/5 159/17/5
f 135/38/3 136/142/3 220/141/3 219/140/3
f 31/37/3 135/38/3 219/140/3 187/40/3
f 129/59/5 130/75/5 218/37/5 217/60/5
f 75/58/5 129/59/5 217/60/5 161/56/5
f 121/63/5 122/100/5 216/43/5 215/64/5
f 73/62/5 121/63/5 215/64/5 163/61/5
f 127/2/3 128/155/3 214/178/3 213/179/3
f 33/1/3 127/2/3 213/179/3 185/180/3
f 119/45/3 120/160/3 212/181/3 211/182/3
f 35/183/3 119/45/3 211/182/3 183/184/3
f 113/185/5 114/66/5 210/79/5 209/186/5
f 71/160/5 113/185/5 209/186/5 165/181/5
f 109/187/3 207/62/3 208/63/3 110/102/3
f 16/167/3 181/9/3 207/62/3 109/187/3
f 105/188/5 106/80/5 206/12/5 205/189/5
f 69/155/5 105/188/5 205/189/5 167/178/5
f 101/56/3 203/58/3 204/59/3 102/60/3
f 14/57/3 179/14/3 203/58/3 101/56/3
f 97/69/5 98/70/5 202/71/5 201/82/5
f 67/142/5 97/69/5 201/82/5 169/141/5
f 93/17/3 199/20/3 200/73/3 94/74/3
f 12/18/3 177/19/3 199/20/3 93/17/3
f 89/73/5 90/40/5 198/52/5 197/74/5
f 65/20/5 89/73/5 197/74/5 171/17/5
f 85/141/3 195/142/3 196/69/3 86/82/3
f 10/140/3 175/38/3 195/142/3 85/141/3
f 81/59/5 82/75/5 194/37/5 193/60/5
f 63/58/5 81/59/5 193/60/5 173/56/5
f 90/52/5 66/53/5 172/84/5 198/55/5
f 1/190/2 5/191/2 156/110/2 153/109/2
f 128/155/3 34/188/3 186/189/3 214/178/3
f 146/69/5 80/70/5 158/71/5 226/82/5
f 94/74/3 200/73/3 178/40/3 11/52/3
f 98/37/5 68/38/5 170/140/5 202/40/5
f 106/12/5 70/9/5 168/158/5 206/66/5
f 114/79/5 72/76/5 166/31/5 210/81/5
f 122/43/5 74/19/5 164/18/5 216/42/5
f 130/37/5 76/38/5 162/140/5 218/40/5
f 138/52/5 78/53/5 160/84/5 222/55/5
f 4/192/3 154/140/3 176/40/3 44/193/3
f 43/40/3 175/52/3 178/74/3 42/73/3
f 41/75/3 177/37/3 180/60/3 40/59/3
f 39/63/3 179/64/3 182/43/3 38/100/3
f 36/185/3 37/66/3 181/79/3 184/186/3
f 35/80/3 183/12/3 186/189/3 34/188/3
f 33/40/3 185/52/3 188/74/3 32/73/3
f 31/40/3 187/52/3 190/74/3 30/73/3
f 24/97/3 25/98/3 192/13/3 189/14/3
f 82/75/5 64/83/5 174/38/5 194/37/5
f 86/82/3 196/69/3 176/70/3 9/71/3
f 63/194/5 173/158/5 155/66/5 8/195/5
f 152/58/3 28/59/3 192/60/3 228/56/3
f 144/196/3 30/197/3 190/198/3 224/199/3
f 136/142/3 32/69/3 188/82/3 220/141/3
f 120/160/3 36/185/3 184/186/3 212/181/3
f 110/102/3 208/63/3 182/100/3 15/101/3
f 102/60/3 204/59/3 180/75/3 13/37/3
f 60/57/5 61/100/5 174/13/5 171/14/5
f 68/38/5 69/142/5 167/141/5 170/140/5
f 70/2/5 71/155/5 165/178/5 168/179/5
f 73/160/5 163/181/5 166/182/5 72/45/5
f 75/62/5 161/61/5 164/158/5 74/9/5
f 76/14/5 77/58/5 159/56/5 162/57/5
f 79/20/5 157/17/5 160/18/5 78/19/5
f 80/193/5 6/192/5 156/140/5 158/40/5
f 58/41/5 59/44/5 172/43/5 169/19/5
f 27/194/3 191/158/3 153/66/3 2/195/3
f 7/66/2 3/200/2 154/6/2 155/5/2
