# Blender 5.0.1
# www.blender.org
mtllib segmental_arch.mtl
o segmental
usemtl arch_mat
v 0.369350 0.844785 1.005000
v 0.324130 1.344343 -0.005000
v 0.324130 1.344343 1.005000
v 0.369350 0.844785 -0.005000
v 0.785932 0.822199 1.005000
v 0.884899 1.313938 -0.005000
v 0.884899 1.313938 1.005000
v 0.785932 0.822199 -0.005000
v -0.222066 1.213734 1.005000
v -0.036404 0.747759 -0.005000
v -0.036404 0.747759 1.005000
v -0.222066 1.213734 -0.005000
v 0.162963 0.810950 1.005000
v 0.046307 1.298796 -0.005000
v 0.046307 1.298796 1.005000
v 0.162963 0.810950 -0.005000
v 0.605614 1.349425 1.005000
v 0.578458 0.848561 -0.005000
v 0.578458 0.848561 1.005000
v 0.605614 1.349425 -0.005000
v 0.987451 0.766247 1.005000
v 1.156169 1.238621 -0.005000
v 1.156169 1.238621 1.005000
v 0.987451 0.766247 -0.005000
v 0.953693 1.298796 1.005000
v 0.837037 0.810950 -0.005000
v 0.837037 0.810950 1.005000
v 0.953693 1.298796 -0.005000
v 1.036404 0.747759 1.005000
v 1.222066 1.213734 -0.005000
v 1.222066 1.213734 1.005000
v 1.036404 0.747759 -0.005000
v 0.630650 0.844785 1.005000
v 0.675870 1.344343 -0.005000
v 0.675870 1.344343 1.005000
v 0.630650 0.844785 -0.005000
v 0.394386 1.349425 1.005000
v 0.421542 0.848561 -0.005000
v 0.421542 0.848561 1.005000
v 0.394386 1.349425 -0.005000
v 0.214068 0.822199 1.005000
v 0.115101 1.313938 -0.005000
v 0.115101 1.313938 1.005000
v 0.214068 0.822199 -0.005000
v -0.156169 1.238621 1.005000
v 0.012549 0.766247 -0.005000
v 0.012549 0.766247 1.005000
v -0.156168 1.238621 -0.005000
vn -0.0000 -0.0000 1.0000
vn 0.1439 0.9896 -0.0000
vn -0.1439 -0.9896 -0.0000
vn -0.1439 0.9896 -0.0000
vn -0.0000 -0.0000 -1.0000
vn -0.2150 -0.9766 -0.0000
vn 0.2150 0.9766 -0.0000
vn 0.3533 0.9355 -0.0000
vn -0.3533 -0.9355 -0.0000
vn -0.0722 -0.9974 -0.0000
vn 0.0722 0.9974 -0.0000
vn -0.0722 0.9974 -0.0000
vn 0.2849 0.9586 -0.0000
vn 0.0722 -0.9974 -0.0000
vn -0.2849 -0.9586 -0.0000
vn -0.2150 0.9766 -0.0000
vn 0.2150 -0.9766 -0.0000
vn 0.3533 -0.9355 -0.0000
vn -0.3533 0.9355 -0.0000
vn 0.2849 -0.9586 -0.0000
vn -0.2849 0.9586 -0.0000
vn -0.0000 1.0000 -0.0000
vn -0.0000 -1.0000 -0.0000
vn 0.1439 -0.9896 -0.0000
vn -0.9290 -0.3701 -0.0000
vn 0.9290 -0.3701 -0.0000
vt 0.250100 -0.000000
vt 0.749900 0.000000
vt 0.749900 0.062500
vt 0.250100 0.062500
vt 0.250100 0.750000
vt 0.749900 0.750000
vt 0.749900 0.812500
vt 0.250100 0.812500
vt 0.000000 1.000000
vt 1.000000 1.000000
vt 1.000000 0.812500
vt 0.000000 0.812500
vt 0.500100 0.562544
vt 0.999900 0.562544
vt 0.999900 0.750025
vt 0.500100 0.750025
vt 0.250100 0.500000
vt 0.749900 0.500000
vt 0.749900 0.562500
vt 0.250100 0.562500
vt 1.000000 0.312500
vt -0.000000 0.312500
vt -0.000000 0.250000
vt 1.000000 0.250000
vt 0.250100 0.812519
vt 0.749900 0.812519
vt 0.749900 1.000000
vt 0.250100 1.000000
vt 0.250100 0.312500
vt 0.749900 0.312500
vt 0.500100 0.062500
vt 0.999900 0.062500
vt 0.999900 0.250000
vt 0.500100 0.250000
vt 0.250100 0.250000
vt 0.749900 0.250000
vt 0.000000 0.500000
vt 1.000000 0.500000
vt 0.999900 0.750000
vt 0.500100 0.750000
vt 0.500100 0.562500
vt 0.999900 0.562500
vt 0.500100 0.562500
vt 0.999900 0.562500
vt 0.999900 0.750000
vt 0.500100 0.750000
vt 0.250100 0.750025
vt 0.749900 0.750025
vt 0.749900 0.812519
vt 0.250100 0.812519
vt 0.250100 0.500050
vt 0.749900 0.500050
vt 0.749900 0.562544
vt 0.250100 0.562544
vt 0.999900 0.750025
vt 0.500100 0.750025
vt 0.500100 0.562544
vt 0.999900 0.562544
vt 0.999900 0.250000
vt 0.500100 0.250000
vt 0.500100 0.062500
vt 0.999900 0.062500
vt 0.749900 1.000000
vt 0.250100 1.000000
vt 0.487398 0.508288
vt 0.487398 0.553235
vt 0.447634 0.553235
vt 0.447634 0.508288
vt 0.306976 0.546011
vt 0.306976 0.509919
vt 0.338906 0.509919
vt 0.338906 0.546011
s 0
usemtl arch_mat
f 39/1/1 37/2/1 3/3/1 1/4/1
f 27/1/1 25/2/1 7/3/1 5/4/1
f 47/5/1 45/6/1 9/7/1 11/8/1
f 41/5/1 43/6/1 15/7/1 13/8/1
f 33/5/1 35/6/1 17/7/1 19/8/1
f 29/5/1 31/6/1 23/7/1 21/8/1
f 7/9/2 6/10/2 34/11/2 35/12/2
f 8/9/3 5/10/3 33/11/3 36/12/3
f 3/9/4 2/10/4 42/11/4 43/12/4
f 21/13/1 23/14/1 25/15/1 27/16/1
f 8/17/5 6/18/5 28/19/5 26/20/5
f 5/21/6 8/22/6 26/23/6 27/24/6
f 6/21/7 7/22/7 25/23/7 28/24/7
f 5/25/1 7/26/1 35/27/1 33/28/1
f 22/21/8 23/22/8 31/23/8 30/24/8
f 21/21/9 24/22/9 32/23/9 29/24/9
f 24/5/5 22/6/5 30/7/5 32/8/5
f 6/18/5 8/17/5 36/29/5 34/30/5
f 19/31/1 17/32/1 37/33/1 39/34/1
f 18/35/5 20/36/5 34/30/5 36/29/5
f 19/21/10 18/22/10 36/23/10 33/24/10
f 20/21/11 17/22/11 35/23/11 34/24/11
f 2/21/12 3/22/12 37/23/12 40/24/12
f 23/37/13 22/38/13 28/21/13 25/22/13
f 1/21/14 4/22/14 38/23/14 39/24/14
f 24/37/15 21/38/15 27/21/15 26/22/15
f 4/1/5 2/2/5 40/3/5 38/4/5
f 22/39/5 24/40/5 26/41/5 28/42/5
f 1/29/1 3/30/1 43/18/1 41/17/1
f 13/43/1 15/44/1 45/45/1 47/46/1
f 14/21/16 15/22/16 43/23/16 42/24/16
f 13/21/17 16/22/17 44/23/17 41/24/17
f 16/47/5 14/48/5 42/49/5 44/50/5
f 10/51/5 12/52/5 48/53/5 46/54/5
f 11/21/18 10/22/18 46/23/18 47/24/18
f 12/21/19 9/22/19 45/23/19 48/24/19
f 14/55/5 16/56/5 46/57/5 48/58/5
f 16/37/20 13/38/20 47/21/20 46/22/20
f 15/37/21 14/38/21 48/21/21 45/22/21
f 17/37/22 20/38/22 40/21/22 37/22/22
f 18/37/23 19/38/23 39/21/23 38/22/23
f 20/59/5 18/60/5 38/61/5 40/62/5
f 4/9/24 1/10/24 41/11/24 44/12/24
f 2/63/5 4/64/5 44/50/5 42/49/5
f 9/65/25 12/66/25 10/67/25 11/68/25
f 29/69/26 32/70/26 30/71/26 31/72/26
