# Blender 5.1.0
# www.blender.org
mtllib small_ionic_capital.mtl
o ionic_capital_small
v 0.124999 0.943750 0.010000
v 0.124999 0.756250 0.010000
v 0.874999 0.943750 0.010000
v 0.874999 0.756250 0.010000
v 0.124999 0.943750 0.990000
v 0.124999 0.756250 0.990000
v 0.874999 0.943750 0.990000
v 0.874999 0.756250 0.990000
v 0.074995 0.660000 0.676042
v 0.074995 0.760000 0.676042
v 0.074995 0.660000 0.323958
v 0.074995 0.760000 0.323958
v 0.323956 0.660000 0.074997
v 0.323956 0.760000 0.074997
v 0.676041 0.660000 0.074997
v 0.676041 0.760000 0.074997
v 0.925002 0.660000 0.323958
v 0.925002 0.760000 0.323958
v 0.925002 0.660000 0.676042
v 0.925002 0.760000 0.676042
v 0.676041 0.660000 0.925003
v 0.676041 0.760000 0.925003
v 0.323957 0.660000 0.925003
v 0.323957 0.760000 0.925003
v 0.726255 0.883743 0.122500
v 0.726255 0.883743 -0.002500
v 0.670857 0.750000 0.122500
v 0.670857 0.750000 -0.002500
v 0.726255 0.616257 0.122500
v 0.726255 0.616257 -0.002500
v 0.859998 0.560859 0.122500
v 0.859998 0.560859 -0.002500
v 0.993741 0.616257 0.122500
v 0.993741 0.616257 -0.002500
v 1.049139 0.750000 0.122500
v 1.049139 0.750000 -0.002500
v 0.993741 0.883743 0.122500
v 0.993741 0.883743 -0.002500
v 0.859998 0.939141 0.122500
v 0.859998 0.939141 -0.002500
v 0.726255 0.883743 1.002500
v 0.726255 0.883743 0.877500
v 0.670857 0.750000 1.002500
v 0.670857 0.750000 0.877500
v 0.726255 0.616257 1.002500
v 0.726255 0.616257 0.877500
v 0.859998 0.560859 1.002500
v 0.859998 0.560859 0.877500
v 0.993741 0.616257 1.002500
v 0.993741 0.616257 0.877500
v 1.049139 0.750000 1.002500
v 1.049139 0.750000 0.877500
v 0.993741 0.883743 1.002500
v 0.993741 0.883743 0.877500
v 0.859998 0.939141 1.002500
v 0.859998 0.939141 0.877500
v 0.006253 0.883743 1.002500
v 0.006253 0.883743 0.877500
v -0.049145 0.750000 1.002500
v -0.049145 0.750000 0.877500
v 0.006253 0.616257 1.002500
v 0.006253 0.616257 0.877500
v 0.139996 0.560859 1.002500
v 0.139996 0.560859 0.877500
v 0.273739 0.616257 1.002500
v 0.273739 0.616257 0.877500
v 0.329137 0.750000 1.002500
v 0.329137 0.750000 0.877500
v 0.273739 0.883743 1.002500
v 0.273739 0.883743 0.877500
v 0.139996 0.939141 1.002500
v 0.139996 0.939141 0.877500
v 0.006253 0.883743 0.122500
v 0.006253 0.883743 -0.002500
v -0.049145 0.750000 0.122500
v -0.049145 0.750000 -0.002500
v 0.006253 0.616257 0.122500
v 0.006253 0.616257 -0.002500
v 0.139996 0.560859 0.122500
v 0.139996 0.560859 -0.002500
v 0.273739 0.616257 0.122500
v 0.273739 0.616257 -0.002500
v 0.329137 0.750000 0.122500
v 0.329137 0.750000 -0.002500
v 0.273739 0.883743 0.122500
v 0.273739 0.883743 -0.002500
v 0.139996 0.939141 0.122500
v 0.139996 0.939141 -0.002500
v 0.045569 0.844427 0.885000
v 0.045569 0.844427 0.115000
v 0.006456 0.750000 0.885000
v 0.006456 0.750000 0.115000
v 0.045569 0.655573 0.885000
v 0.045569 0.655573 0.115000
v 0.139996 0.616460 0.885000
v 0.139996 0.616460 0.115000
v 0.234423 0.655573 0.885000
v 0.234423 0.655573 0.115000
v 0.273536 0.750000 0.885000
v 0.273536 0.750000 0.115000
v 0.234423 0.844427 0.885000
v 0.234423 0.844427 0.115000
v 0.139996 0.883540 0.885000
v 0.139996 0.883540 0.115000
v 0.765568 0.844427 0.885000
v 0.765568 0.844427 0.115000
v 0.726455 0.750000 0.885000
v 0.726455 0.750000 0.115000
v 0.765568 0.655573 0.885000
v 0.765568 0.655573 0.115000
v 0.859995 0.616460 0.885000
v 0.859995 0.616460 0.115000
v 0.954423 0.655573 0.885000
v 0.954422 0.655573 0.115000
v 0.993536 0.750000 0.885000
v 0.993535 0.750000 0.115000
v 0.954422 0.844427 0.885000
v 0.954422 0.844427 0.115000
v 0.859995 0.883540 0.885000
v 0.859995 0.883540 0.115000
v 0.093749 1.001250 0.000000
v 0.093749 0.938750 0.000000
v 0.906249 1.001250 0.000000
v 0.906249 0.938750 0.000000
v 0.093749 1.001250 1.000000
v 0.093749 0.938750 1.000000
v 0.906249 1.001250 1.000000
v 0.906249 0.938750 1.000000
vn -0.0000 1.0000 -0.0000
vn 1.0000 -0.0000 -0.0000
vn -0.0000 -0.0000 1.0000
vn -0.0000 -1.0000 -0.0000
vn -0.0000 -0.0000 -1.0000
vn -1.0000 -0.0000 -0.0000
vn -0.7071 -0.0000 -0.7071
vn 0.7071 -0.0000 -0.7071
vn 0.7071 -0.0000 0.7071
vn -0.7071 -0.0000 0.7071
vn -0.9239 0.3827 -0.0000
vn -0.9239 -0.3827 -0.0000
vn -0.3827 -0.9239 -0.0000
vn 0.3827 -0.9239 -0.0000
vn 0.9239 -0.3827 -0.0000
vn 0.9239 0.3827 -0.0000
vn 0.3827 0.9239 -0.0000
vn -0.3827 0.9239 -0.0000
vt 0.625000 0.500000
vt 0.875000 0.500000
vt 0.875000 0.750000
vt 0.625000 0.750000
vt 1.000000 0.750000
vt 1.000000 1.000000
vt 0.000000 1.000000
vt -0.000000 0.750000
vt 0.125000 0.500000
vt 0.375000 0.500000
vt 0.375000 0.750000
vt 0.125000 0.750000
vt 0.437500 0.500000
vt 0.437500 0.625000
vt 0.000000 0.625000
vt 0.000000 0.500000
vt 0.292935 0.999900
vt 0.000100 0.292935
vt 0.707065 0.000100
vt 0.187500 1.000000
vt 0.000000 0.750000
vt 0.187500 0.750000
vt 0.187500 0.250000
vt 0.000000 0.250000
vt 0.000000 0.000000
vt 0.187500 0.000000
vt 0.937500 0.750000
vt 0.750000 0.750000
vt 0.750000 0.500000
vt 0.937500 0.500000
vt 0.250000 0.625000
vt 0.250000 0.375000
vt 0.437500 0.375000
vt 0.187500 0.375000
vt 0.000000 0.375000
vt 0.000000 0.125000
vt 0.187500 0.125000
vt 0.812500 1.000000
vt 0.625000 1.000000
vt 0.812500 0.750000
vt 0.343051 0.696011
vt 0.343051 0.389926
vt 0.649137 0.389926
vt 0.312500 0.625000
vt 0.125000 0.625000
vt 0.125000 0.375000
vt 0.312500 0.375000
vt 0.343051 0.696011
vt 0.496094 0.759404
vt 0.649137 0.696011
vt 0.812500 0.500000
vt 0.250000 0.125000
vt 0.437500 0.125000
vt 0.187500 0.500000
vt 0.649136 0.389926
vt 0.343051 0.389926
vt 0.250000 0.500000
vt 0.250000 0.250000
vt 0.437500 0.250000
vt 0.496094 0.759404
vt 0.712529 0.542969
vt 0.496094 0.326533
vt 0.437500 1.000000
vt 0.250000 1.000000
vt 0.250000 0.750000
vt 0.437500 0.750000
vt 0.687500 1.000000
vt 0.500000 1.000000
vt 0.500000 0.750000
vt 0.687500 0.750000
vt 0.562500 0.625000
vt 0.375000 0.625000
vt 0.375000 0.375000
vt 0.562500 0.375000
vt 0.687500 0.375000
vt 0.500000 0.375000
vt 0.500000 0.125000
vt 0.687500 0.125000
vt 0.937500 0.875000
vt 0.750000 0.875000
vt 0.750000 0.625000
vt 0.937500 0.625000
vt 0.937500 1.000000
vt 0.750000 1.000000
vt 0.496094 0.759404
vt 0.279659 0.542969
vt 0.496094 0.326533
vt 0.500000 0.500000
vt 0.687500 0.500000
vt 0.937500 0.250000
vt 0.750000 0.250000
vt 0.750000 0.000000
vt 0.937500 0.000000
vt 0.257764 0.000036
vt 0.257763 0.999964
vt 0.125036 0.999964
vt 0.125037 0.000036
vt 0.382764 0.000036
vt 0.382763 0.999964
vt 0.250037 0.999964
vt 0.250037 0.000036
vt 0.507764 0.000036
vt 0.507763 0.999964
vt 0.375037 0.999964
vt 0.375037 0.000036
vt 0.632764 0.000036
vt 0.632763 0.999964
vt 0.500036 0.999964
vt 0.500037 0.000036
vt 0.414228 0.000064
vt 0.414228 0.999936
vt 0.000064 0.999936
vt 0.000064 0.000064
vt 0.414228 0.000064
vt 0.414228 0.999936
vt 0.000065 0.999936
vt 0.000064 0.000064
vt 0.414228 0.000064
vt 0.000064 0.999936
vt 0.000064 0.000064
vt 0.132764 0.000036
vt 0.132763 0.999964
vt 0.000036 0.999964
vt 0.000037 0.000036
vt 0.000064 0.999936
vt 0.000064 0.000064
vt 0.414228 0.000064
vt 0.414228 0.999936
vt 0.414228 0.000064
vt 0.000064 0.999936
vt 0.000064 0.000064
vt 0.632763 0.000036
vt 0.500036 0.000036
vt 0.375037 0.999964
vt 0.375036 0.000036
vt 0.507763 0.000036
vt 0.507764 0.999964
vt 0.250036 0.999964
vt 0.250036 0.000036
vt 0.382763 0.000036
vt 0.382763 0.999963
vt 0.125036 0.999964
vt 0.125036 0.000036
vt 0.257763 0.000036
vt 0.257763 0.999963
vt 0.414228 0.999936
vt 0.000064 0.000064
vt 0.000090 0.999910
vt 0.000090 0.000090
vt 0.812444 0.000090
vt 0.812444 0.999910
vt 1.000000 0.125000
vt 1.000000 0.062500
vt 0.000000 0.062500
vt 0.999900 0.292935
vt 0.999900 0.707065
vt 0.707065 0.999900
vt 0.000100 0.707065
vt 0.292935 0.000100
vt 0.496094 0.326533
vt 0.712529 0.542969
vt 0.649136 0.696011
vt 0.496094 0.759404
vt 0.343051 0.389926
vt 0.279659 0.542969
vt 0.343051 0.696011
vt 0.649136 0.696011
vt 0.649137 0.389926
vt 0.649136 0.389926
vt 0.712529 0.542969
vt 0.649136 0.696011
vt 0.343051 0.696011
vt 0.343051 0.389926
vt 0.712529 0.542969
vt 0.279659 0.542969
s 0
usemtl ionic_volute
f 1/1/1 5/2/1 7/3/1 3/4/1
f 6/9/4 2/10/4 4/11/4 8/12/4
f 30/41/5 26/42/5 38/43/5
f 35/48/3 37/49/3 39/50/3
f 47/60/3 51/61/3 55/62/3
f 63/85/3 67/86/3 71/87/3
f 86/56/5 82/48/5 78/50/5
f 99/114/16 100/115/16 102/116/16 101/117/16
f 101/118/17 102/111/17 104/119/17 103/120/17
f 105/125/11 106/126/11 108/127/11 107/128/11
f 119/129/18 120/146/18 106/130/18 105/147/18
f 126/9/4 122/10/4 124/11/4 128/12/4
f 30/41/5 28/86/5 26/42/5
f 26/42/5 40/160/5 38/43/5
f 38/43/5 36/161/5 34/162/5
f 34/162/5 32/163/5 38/43/5
f 32/163/5 30/41/5 38/43/5
f 55/62/3 41/164/3 43/165/3
f 43/165/3 45/166/3 47/60/3
f 47/60/3 49/167/3 51/61/3
f 51/61/3 53/168/3 55/62/3
f 55/62/3 43/165/3 47/60/3
f 71/87/3 57/169/3 59/170/3
f 59/170/3 61/171/3 63/85/3
f 63/85/3 65/172/3 67/86/3
f 67/86/3 69/173/3 71/87/3
f 71/87/3 59/170/3 63/85/3
f 78/50/5 76/174/5 74/55/5
f 74/55/5 88/160/5 78/50/5
f 88/160/5 86/56/5 78/50/5
f 86/56/5 84/175/5 82/48/5
f 82/48/5 80/49/5 78/50/5
f 39/50/3 25/174/3 27/55/3
f 27/55/3 29/160/3 39/50/3
f 29/160/3 31/56/3 39/50/3
f 31/56/3 33/175/3 39/50/3
f 33/175/3 35/48/3 39/50/3
usemtl ionic_egg
f 4/5/2 3/6/2 7/7/2 8/8/2
f 8/5/3 7/6/3 5/7/3 6/8/3
f 2/5/5 1/6/5 3/7/5 4/8/5
f 6/5/6 5/6/6 1/7/6 2/8/6
f 11/13/7 12/14/7 14/15/7 13/16/7
f 13/13/5 14/14/5 16/15/5 15/16/5
f 15/13/8 16/14/8 18/15/8 17/16/8
f 19/13/9 20/14/9 22/15/9 21/16/9
f 21/13/3 22/14/3 24/15/3 23/16/3
f 23/13/10 24/14/10 10/15/10 9/16/10
f 124/152/2 123/153/2 127/154/2 128/36/2
f 128/152/3 127/153/3 125/154/3 126/36/3
f 122/152/5 121/153/5 123/154/5 124/36/5
f 126/152/6 125/153/6 121/154/6 122/36/6
usemtl ionic_capital
f 15/17/4 19/18/4 23/19/4
f 25/20/11 26/7/11 28/21/11 27/22/11
f 27/23/12 28/24/12 30/25/12 29/26/12
f 29/27/13 30/28/13 32/29/13 31/30/13
f 31/14/14 32/31/14 34/32/14 33/33/14
f 33/34/15 34/35/15 36/36/15 35/37/15
f 35/38/16 36/39/16 38/4/16 37/40/16
f 37/44/17 38/45/17 40/46/17 39/47/17
f 39/20/18 40/7/18 26/21/18 25/22/18
f 41/20/11 42/7/11 44/21/11 43/22/11
f 43/40/12 44/4/12 46/1/12 45/51/12
f 45/33/13 46/32/13 48/52/13 47/53/13
f 47/14/14 48/31/14 50/32/14 49/33/14
f 49/38/15 50/39/15 52/4/15 51/40/15
f 51/54/16 52/16/16 54/24/16 53/23/16
f 46/50/5 42/55/5 54/56/5
f 53/13/17 54/57/17 56/58/17 55/59/17
f 55/20/18 56/7/18 42/21/18 41/22/18
f 57/63/11 58/64/11 60/65/11 59/66/11
f 59/67/12 60/68/12 62/69/12 61/70/12
f 61/71/13 62/72/13 64/73/13 63/74/13
f 63/27/14 64/28/14 66/29/14 65/30/14
f 65/75/15 66/76/15 68/77/15 67/78/15
f 67/79/16 68/80/16 70/81/16 69/82/16
f 64/49/5 62/50/5 70/56/5
f 69/83/17 70/84/17 72/28/17 71/27/17
f 71/67/18 72/68/18 58/69/18 57/70/18
f 73/70/11 74/69/11 76/88/11 75/89/11
f 75/34/12 76/35/12 78/36/12 77/37/12
f 77/90/13 78/91/13 80/92/13 79/93/13
f 79/27/14 80/28/14 82/29/14 81/30/14
f 81/14/15 82/31/15 84/32/15 83/33/15
f 83/20/16 84/7/16 86/21/16 85/22/16
f 85/20/17 86/7/17 88/21/17 87/22/17
f 87/34/18 88/35/18 74/36/18 73/37/18
f 87/50/3 75/55/3 79/56/3
f 89/94/11 90/95/11 92/96/11 91/97/11
f 91/98/12 92/99/12 94/100/12 93/101/12
f 93/102/13 94/103/13 96/104/13 95/105/13
f 95/106/14 96/107/14 98/108/14 97/109/14
f 97/110/15 98/111/15 100/112/15 99/113/15
f 103/121/18 104/122/18 90/123/18 89/124/18
f 107/129/12 108/111/12 110/130/12 109/131/12
f 109/132/13 110/107/13 112/108/13 111/133/13
f 111/134/14 112/135/14 114/136/14 113/137/14
f 113/138/15 114/139/15 116/140/15 115/141/15
f 115/142/16 116/143/16 118/144/16 117/145/16
f 117/121/17 118/122/17 120/123/17 119/124/17
f 121/148/1 125/149/1 127/150/1 123/151/1
f 23/19/4 9/155/4 11/156/4
f 11/156/4 13/157/4 15/17/4
f 15/17/4 17/158/4 19/18/4
f 19/18/4 21/159/4 23/19/4
f 23/19/4 11/156/4 15/17/4
f 46/50/5 44/174/5 42/55/5
f 42/55/5 56/160/5 54/56/5
f 54/56/5 52/175/5 46/50/5
f 52/175/5 50/48/5 46/50/5
f 50/48/5 48/49/5 46/50/5
f 62/50/5 60/174/5 58/55/5
f 58/55/5 72/160/5 62/50/5
f 72/160/5 70/56/5 62/50/5
f 70/56/5 68/175/5 66/48/5
f 66/48/5 64/49/5 70/56/5
f 87/50/3 73/174/3 75/55/3
f 75/55/3 77/160/3 79/56/3
f 79/56/3 81/175/3 87/50/3
f 81/175/3 83/48/3 87/50/3
f 83/48/3 85/49/3 87/50/3
