# Blender 5.1.2
# www.blender.org
mtllib small_rusticated_column_both.mtl
o column_small
v 0.832502 -0.437500 0.167500
v 0.832502 -0.250000 0.167500
v 0.832502 -0.437500 0.832500
v 0.832502 -0.250000 0.832500
v 0.167498 -0.437500 0.832500
v 0.167498 -0.250000 0.832500
v 0.167498 -0.437500 0.167500
v 0.167498 -0.250000 0.167500
v 0.370557 0.000000 0.187498
v 0.370557 1.000000 0.187498
v 0.629443 0.000000 0.187498
v 0.629443 1.000000 0.187498
v 0.812502 0.000000 0.370557
v 0.812502 1.000000 0.370557
v 0.812502 0.000000 0.629443
v 0.812502 1.000000 0.629443
v 0.629443 0.000000 0.812502
v 0.629443 1.000000 0.812502
v 0.370557 0.000000 0.812502
v 0.370557 1.000000 0.812502
v 0.187498 0.000000 0.629443
v 0.187498 1.000000 0.629443
v 0.187498 0.000000 0.370557
v 0.187498 1.000000 0.370557
v 0.629443 1.000000 0.187498
v 0.370557 1.000000 0.187498
v 0.812502 1.000000 0.370557
v 0.812502 1.000000 0.629443
v 0.629443 1.000000 0.812502
v 0.370557 1.000000 0.812502
v 0.187498 1.000000 0.629443
v 0.187498 1.000000 0.370557
v 0.370557 -0.750000 0.187498
v 0.629443 -0.750000 0.187498
v 0.812502 -0.750000 0.370557
v 0.812502 -0.750000 0.629443
v 0.629443 -0.750000 0.812502
v 0.370557 -0.750000 0.812502
v 0.187498 -0.750000 0.629443
v 0.187498 -0.750000 0.370557
v 0.629443 1.750000 0.187498
v 0.370557 1.750000 0.187498
v 0.812502 1.750000 0.370557
v 0.812502 1.750000 0.629443
v 0.629443 1.750000 0.812502
v 0.370557 1.750000 0.812502
v 0.187498 1.750000 0.629443
v 0.187498 1.750000 0.370557
v 0.832502 0.562500 0.167500
v 0.832502 0.750000 0.167500
v 0.832502 0.562500 0.832500
v 0.832502 0.750000 0.832500
v 0.167498 0.562500 0.832500
v 0.167498 0.750000 0.832500
v 0.167498 0.562500 0.167500
v 0.167498 0.750000 0.167500
v 0.832502 0.812500 0.167500
v 0.832502 1.000000 0.167500
v 0.832502 0.812500 0.832500
v 0.832502 1.000000 0.832500
v 0.167498 0.812500 0.832500
v 0.167498 1.000000 0.832500
v 0.167498 0.812500 0.167500
v 0.167498 1.000000 0.167500
v 0.832502 0.312500 0.167500
v 0.832502 0.500000 0.167500
v 0.832502 0.312500 0.832500
v 0.832502 0.500000 0.832500
v 0.167498 0.312500 0.832500
v 0.167498 0.500000 0.832500
v 0.167498 0.312500 0.167500
v 0.167498 0.500000 0.167500
v 0.832502 0.062500 0.167500
v 0.832502 0.250000 0.167500
v 0.832502 0.062500 0.832500
v 0.832502 0.250000 0.832500
v 0.167498 0.062500 0.832500
v 0.167498 0.250000 0.832500
v 0.167498 0.062500 0.167500
v 0.167498 0.250000 0.167500
v 0.832502 1.062500 0.167500
v 0.832502 1.250000 0.167500
v 0.832502 1.062500 0.832500
v 0.832502 1.250000 0.832500
v 0.167498 1.062500 0.832500
v 0.167498 1.250000 0.832500
v 0.167498 1.062500 0.167500
v 0.167498 1.250000 0.167500
v 0.832502 1.312500 0.167500
v 0.832502 1.500000 0.167500
v 0.832502 1.312500 0.832500
v 0.832502 1.500000 0.832500
v 0.167498 1.312500 0.832500
v 0.167498 1.500000 0.832500
v 0.167498 1.312500 0.167500
v 0.167498 1.500000 0.167500
v 0.832502 -0.187500 0.167500
v 0.832502 0.000000 0.167500
v 0.832502 -0.187500 0.832500
v 0.832502 0.000000 0.832500
v 0.167498 -0.187500 0.832500
v 0.167498 0.000000 0.832500
v 0.167498 -0.187500 0.167500
v 0.167498 0.000000 0.167500
vn 1.0000 -0.0000 -0.0000
vn -1.0000 -0.0000 -0.0000
vn -0.0000 -0.0000 -1.0000
vn -0.0000 -0.0000 1.0000
vn -0.0000 1.0000 -0.0000
vn -0.0000 -1.0000 -0.0000
vn 0.7071 -0.0000 -0.7071
vn 0.7071 -0.0000 0.7071
vn -0.7071 -0.0000 0.7071
vn -0.7071 -0.0000 -0.7071
vt 1.000000 0.812500
vt 1.000000 1.000000
vt 0.375000 1.000000
vt 0.375064 0.812564
vt 0.624936 0.812564
vt 0.625000 1.000000
vt 0.000000 1.000000
vt 0.000000 0.812500
vt 0.999936 0.812564
vt 0.375000 0.812500
vt 0.187596 0.187604
vt 0.187596 0.812396
vt 0.812396 0.812396
vt 0.812397 0.187604
vt 0.187600 0.812400
vt 0.812393 0.812400
vt 0.812393 0.187600
vt 0.187600 0.187600
vt 0.250000 0.999936
vt 0.250000 0.000064
vt 0.000064 0.000000
vt 0.000064 1.000000
vt 1.000000 0.000000
vt 0.750064 0.999936
vt 0.750064 0.000064
vt 0.750000 0.000000
vt 0.750000 1.000000
vt 0.500000 1.000000
vt 0.500064 0.000064
vt 0.500000 0.000000
vt 0.250064 0.999936
vt 0.250064 0.000064
vt 0.250000 0.000000
vt 0.250000 1.000000
vt 0.000064 0.999936
vt 0.000064 0.000064
vt 0.750064 0.999936
vt 0.750064 0.000064
vt 0.000064 0.999936
vt 0.500064 0.999936
vt 0.250064 0.999936
vt 0.250064 0.000064
vt 0.000000 0.000000
vt 0.250000 0.750000
vt 0.000000 0.750000
vt 0.000064 0.999936
vt 0.000064 0.000064
vt 0.000065 0.999936
vt 0.000064 0.999936
vt 0.187500 0.375000
vt 0.625000 0.187500
vt 0.812500 0.625000
vt 0.000064 0.000064
vt 0.000064 0.000064
vt 0.000064 0.000064
vt 0.000064 0.000064
vt 0.000064 0.000064
vt 0.812500 0.375000
vt 0.625000 0.812500
vt 0.187500 0.625000
vt 0.375000 0.187500
s 0
usemtl column_mat_side
f 1/1/1 2/2/1 4/3/1 3/4/1
f 5/1/2 6/2/2 8/3/2 7/4/2
f 7/5/3 8/6/3 2/7/3 1/8/3
f 3/9/4 4/2/4 6/3/4 5/10/4
f 8/11/5 6/12/5 4/13/5 2/14/5
f 7/15/6 1/16/6 3/17/6 5/18/6
f 9/19/3 10/20/3 12/21/3 11/22/3
f 11/23/7 12/2/7 14/24/7 13/25/7
f 13/26/1 14/27/1 16/28/1 15/29/1
f 15/30/8 16/28/8 18/31/8 17/32/8
f 17/33/4 18/34/4 20/35/4 19/36/4
f 19/23/9 20/2/9 22/37/9 21/38/9
f 24/39/5 22/34/5 31/34/5 32/39/5
f 21/26/2 22/27/2 24/40/2 23/29/2
f 23/30/10 24/28/10 10/41/10 9/42/10
f 17/33/4 19/36/4 38/36/4 37/33/4
f 25/43/3 26/33/3 42/44/3 41/45/3
f 14/46/5 12/34/5 25/34/5 27/46/5
f 20/35/5 18/34/5 29/34/5 30/35/5
f 10/46/5 24/34/5 32/34/5 26/46/5
f 12/33/5 10/47/5 26/47/5 25/33/5
f 16/7/5 14/34/5 27/34/5 28/7/5
f 22/48/5 20/34/5 30/34/5 31/48/5
f 18/49/5 16/34/5 28/34/5 29/49/5
f 36/50/6 38/51/6 40/52/6
f 23/33/10 9/53/10 33/53/10 40/33/10
f 9/19/3 11/22/3 34/22/3 33/19/3
f 13/33/1 15/54/1 36/54/1 35/33/1
f 19/33/9 21/55/9 39/55/9 38/33/9
f 15/33/8 17/56/8 37/56/8 36/33/8
f 21/33/2 23/54/2 40/54/2 39/33/2
f 11/33/7 13/57/7 35/57/7 34/33/7
f 47/10/5 45/50/5 43/51/5
f 26/43/10 32/33/10 48/44/10 42/45/10
f 31/43/9 30/33/9 46/44/9 47/45/9
f 29/49/8 28/34/8 44/34/8 45/49/8
f 27/46/7 25/34/7 41/34/7 43/46/7
f 32/43/2 31/33/2 47/44/2 48/45/2
f 30/43/4 29/33/4 45/44/4 46/45/4
f 28/7/1 27/34/1 43/34/1 44/7/1
f 43/51/5 41/58/5 42/52/5
f 42/52/5 48/59/5 47/10/5
f 47/10/5 46/60/5 45/50/5
f 45/50/5 44/61/5 43/51/5
f 43/51/5 42/52/5 47/10/5
f 40/52/6 33/59/6 34/10/6
f 34/10/6 35/60/6 36/50/6
f 36/50/6 37/61/6 38/51/6
f 38/51/6 39/58/6 40/52/6
f 40/52/6 34/10/6 36/50/6
f 49/1/1 50/2/1 52/3/1 51/4/1
f 53/1/2 54/2/2 56/3/2 55/4/2
f 55/5/3 56/6/3 50/7/3 49/8/3
f 51/9/4 52/2/4 54/3/4 53/10/4
f 56/11/5 54/12/5 52/13/5 50/14/5
f 55/15/6 49/16/6 51/17/6 53/18/6
f 57/1/1 58/2/1 60/3/1 59/4/1
f 61/1/2 62/2/2 64/3/2 63/4/2
f 63/5/3 64/6/3 58/7/3 57/8/3
f 59/9/4 60/2/4 62/3/4 61/10/4
f 64/11/5 62/12/5 60/13/5 58/14/5
f 63/15/6 57/16/6 59/17/6 61/18/6
f 65/1/1 66/2/1 68/3/1 67/4/1
f 69/1/2 70/2/2 72/3/2 71/4/2
f 71/5/3 72/6/3 66/7/3 65/8/3
f 67/9/4 68/2/4 70/3/4 69/10/4
f 72/11/5 70/12/5 68/13/5 66/14/5
f 71/15/6 65/16/6 67/17/6 69/18/6
f 73/1/1 74/2/1 76/3/1 75/4/1
f 77/1/2 78/2/2 80/3/2 79/4/2
f 79/5/3 80/6/3 74/7/3 73/8/3
f 75/9/4 76/2/4 78/3/4 77/10/4
f 80/11/5 78/12/5 76/13/5 74/14/5
f 79/15/6 73/16/6 75/17/6 77/18/6
f 81/1/1 82/2/1 84/3/1 83/4/1
f 85/1/2 86/2/2 88/3/2 87/4/2
f 87/5/3 88/6/3 82/7/3 81/8/3
f 83/9/4 84/2/4 86/3/4 85/10/4
f 88/11/5 86/12/5 84/13/5 82/14/5
f 87/15/6 81/16/6 83/17/6 85/18/6
f 89/1/1 90/2/1 92/3/1 91/4/1
f 93/1/2 94/2/2 96/3/2 95/4/2
f 95/5/3 96/6/3 90/7/3 89/8/3
f 91/9/4 92/2/4 94/3/4 93/10/4
f 96/11/5 94/12/5 92/13/5 90/14/5
f 95/15/6 89/16/6 91/17/6 93/18/6
f 97/1/1 98/2/1 100/3/1 99/4/1
f 101/1/2 102/2/2 104/3/2 103/4/2
f 103/5/3 104/6/3 98/7/3 97/8/3
f 99/9/4 100/2/4 102/3/4 101/10/4
f 104/11/5 102/12/5 100/13/5 98/14/5
f 103/15/6 97/16/6 99/17/6 101/18/6
