# Blender 5.1.2
# www.blender.org
mtllib small_half_column.mtl
o column_small
v 0.370557 0.000000 0.687498
v 0.370557 1.000000 0.687498
v 0.629443 0.000000 0.687498
v 0.629443 1.000000 0.687498
v 0.812502 0.000000 0.870557
v 0.812502 1.000000 0.870557
v 0.187498 0.000000 0.870557
v 0.187498 1.000000 0.870557
v 0.812502 0.000000 1.000490
v 0.812502 1.000000 1.000490
v 0.187498 0.000000 1.002121
v 0.187498 1.000000 1.002121
v 0.240293 1.000000 1.001984
v 0.758624 1.000000 1.000630
v 0.496828 1.000000 1.001314
v 0.759146 0.000000 1.000629
v 0.241935 0.000000 1.001979
v 0.503132 0.000000 1.001297
vn -0.0000 -0.0000 -1.0000
vn 0.7071 -0.0000 -0.7071
vn -0.0000 1.0000 -0.0000
vn -1.0000 -0.0000 -0.0000
vn -0.7071 -0.0000 -0.7071
vn -0.0000 -1.0000 -0.0000
vn 0.0026 -0.0000 1.0000
vn 1.0000 -0.0000 -0.0000
vt 0.250000 0.000064
vt 0.000064 1.000000
vt 0.250000 0.999936
vt 1.000000 1.000000
vt 0.750064 0.000064
vt 1.000000 0.000000
vt 0.498731 0.503172
vt 0.496235 0.242685
vt 0.625000 0.187500
vt 0.627080 0.999968
vt 0.500064 0.000064
vt 0.627080 0.000032
vt 0.500000 1.000000
vt 0.250064 0.000064
vt 0.500000 0.000000
vt 0.496868 0.498747
vt 0.756743 0.494900
vt 0.812500 0.625000
vt 0.812500 0.375000
vt 0.499527 0.187500
vt 0.625000 0.812500
vt 0.375000 0.812500
vt 0.696125 0.999895
vt 0.434323 0.999895
vt 0.440627 0.000105
vt 0.812500 0.497951
vt 0.501177 0.758424
vt 0.750000 1.000000
vt 0.624560 0.000032
vt 0.750000 0.000000
vt 0.187500 0.625000
vt 0.242151 0.502518
vt 0.000064 0.000000
vt 0.750064 0.999936
vt 0.500064 0.999936
vt 0.250064 0.999936
vt 0.177782 0.999895
vt 0.124986 0.999895
vt 0.124986 0.000105
vt 0.179424 0.000105
vt 0.696646 0.000105
vt 0.750004 0.000105
vt 0.750004 0.999895
vt 0.497951 0.812500
vt 0.624527 1.000000
vt 0.187500 0.499527
s 0
usemtl column_mat_top
f 15/7/3 14/8/3 6/9/3
f 18/16/6 17/17/6 7/18/6
f 6/9/3 4/19/3 2/18/3
f 14/8/3 10/20/3 6/9/3
f 7/18/6 1/21/6 3/22/6
f 17/17/6 11/26/6 7/18/6
f 3/22/6 18/16/6 7/18/6
f 2/18/3 15/7/3 6/9/3
f 8/21/3 13/27/3 2/18/3
f 5/31/6 16/32/6 3/22/6
f 3/22/6 16/32/6 18/16/6
f 2/18/3 13/27/3 15/7/3
f 8/21/3 12/44/3 13/27/3
f 5/31/6 9/46/6 16/32/6
usemtl column_mat_side
f 2/1/1 3/2/1 1/3/1
f 4/4/2 5/5/2 3/6/2
f 12/10/4 7/11/4 11/12/4
f 8/13/5 1/14/5 7/15/5
f 14/23/7 15/24/7 18/25/7
f 6/28/8 9/29/8 5/30/8
f 2/1/1 4/33/1 3/2/1
f 4/4/2 6/34/2 5/5/2
f 12/10/4 8/35/4 7/11/4
f 8/13/5 2/36/5 1/14/5
f 13/37/7 12/38/7 11/39/7
f 13/37/7 11/39/7 17/40/7
f 15/24/7 13/37/7 17/40/7
f 18/25/7 16/41/7 14/23/7
f 16/41/7 9/42/7 10/43/7
f 14/23/7 16/41/7 10/43/7
f 15/24/7 17/40/7 18/25/7
f 6/28/8 10/45/8 9/29/8
