# Blender 5.1.2
# www.blender.org
mtllib small_half_column_down.mtl
o column_small_down
v 0.370557 0.000000 0.687498
v 0.370557 1.000000 0.687498
v 0.629443 0.000000 0.687498
v 0.629443 1.000000 0.687498
v 0.812502 0.000000 0.870557
v 0.812502 1.000000 0.870557
v 0.187498 0.000000 0.870557
v 0.187498 1.000000 0.870557
v 0.629443 1.000000 0.687498
v 0.370557 1.000000 0.687498
v 0.812502 1.000000 0.870557
v 0.187498 1.000000 0.870557
v 0.370557 -0.750000 0.687498
v 0.629443 -0.750000 0.687498
v 0.812502 -0.750000 0.870557
v 0.187498 -0.750000 0.870557
v 0.812502 0.000000 1.000437
v 0.812502 1.000000 1.000437
v 0.187498 0.000000 1.001894
v 0.187498 1.000000 1.001894
v 0.812502 1.000000 1.000437
v 0.187498 1.000000 1.001894
v 0.812502 -0.750000 1.000437
v 0.187498 -0.750000 1.001894
v 0.240381 1.000000 1.001771
v 0.758652 1.000000 1.000563
v 0.497170 1.000000 1.001172
v 0.759118 -0.750000 1.000561
v 0.241847 -0.750000 1.001767
v 0.502798 -0.750000 1.001159
vn -0.0000 -0.0000 -1.0000
vn 0.7071 -0.0000 -0.7071
vn 0.0023 -0.0000 1.0000
vn -1.0000 -0.0000 -0.0000
vn -0.7071 -0.0000 -0.7071
vn -0.0000 1.0000 -0.0000
vn -0.0000 -1.0000 -0.0000
vn 1.0000 -0.0000 -0.0000
vt 0.250000 0.000064
vt 0.250000 0.999936
vt 0.000064 1.000000
vt 0.000064 0.000000
vt 1.000000 0.000000
vt 1.000000 1.000000
vt 0.750064 0.999936
vt 0.750064 0.000064
vt 0.999895 0.999895
vt 0.375095 0.999895
vt 0.375095 0.000105
vt 0.999895 0.000105
vt 0.626861 0.000032
vt 0.626861 0.999968
vt 0.500064 0.999936
vt 0.500064 0.000064
vt 0.500000 0.000000
vt 0.500000 1.000000
vt 0.250064 0.999936
vt 0.250064 0.000064
vt 0.498868 0.502830
vt 0.496302 0.242656
vt 0.625000 0.187500
vt 0.000064 0.999936
vt 0.250000 1.000000
vt 0.250000 0.000000
vt 0.000064 0.000064
vt 0.124578 1.000000
vt 0.497202 0.498881
vt 0.756833 0.495110
vt 0.812500 0.625000
vt 0.250000 0.250000
vt 0.500000 0.250000
vt 0.000000 1.000000
vt 0.000000 0.250000
vt 0.626829 1.000000
vt 0.626829 0.250000
vt 0.750000 1.000000
vt 0.750000 0.250000
vt 1.000000 0.250000
vt 0.812500 0.375000
vt 0.499578 0.187500
vt 0.625000 0.812500
vt 0.375000 0.812500
vt 0.812500 0.498171
vt 0.242179 0.502585
vt 0.501388 0.758334
vt 0.187500 0.625000
vt 0.187500 0.499578
vt 0.498171 0.812500
vt 0.126861 0.999968
vt 0.000064 0.999936
vt 0.750000 0.000000
vt 0.624578 1.000000
vt 0.624610 0.000032
vt 0.624578 1.000000
vt 0.624578 0.250000
vt 0.000105 0.125069
vt 0.624931 0.125069
vt 0.624931 0.874931
vt 0.000105 0.874931
s 0
usemtl column_mat_top
f 27/21/6 26/22/6 11/23/6
f 30/29/7 29/30/7 16/31/7
f 11/23/6 9/41/6 10/31/6
f 26/22/6 21/42/6 11/23/6
f 16/31/7 13/43/7 14/44/7
f 29/30/7 24/45/7 16/31/7
f 16/31/7 14/44/7 28/46/7 30/29/7
f 11/23/6 10/31/6 25/47/6 27/21/6
f 14/44/7 15/48/7 23/49/7 28/46/7
f 10/31/6 12/43/6 22/50/6 25/47/6
f 22/51/6 20/51/6 25/47/6
usemtl column_mat_side
f 1/1/1 2/2/1 4/3/1 3/4/1
f 3/5/2 4/6/2 6/7/2 5/8/2
f 18/9/3 20/10/3 19/11/3 17/12/3
f 19/13/4 20/14/4 8/15/4 7/16/4
f 7/17/5 8/18/5 2/19/5 1/20/5
f 6/24/6 4/25/6 9/25/6 11/24/6
f 2/24/6 8/25/6 12/25/6 10/24/6
f 4/26/6 2/27/6 10/27/6 9/26/6
f 18/28/6 6/25/6 11/25/6 21/28/6
f 7/18/5 1/25/5 13/32/5 16/33/5
f 1/25/1 3/34/1 14/35/1 13/32/1
f 19/36/4 7/18/4 16/33/4 24/37/4
f 3/6/2 5/38/2 15/39/2 14/40/2
f 8/52/6 20/51/6 22/51/6 12/52/6
f 5/53/8 6/38/8 18/54/8 17/55/8
f 5/38/8 17/56/8 23/57/8 15/39/8
f 24/58/3 23/59/3 17/60/3 19/61/3
