# Blender 5.1.2
# www.blender.org
mtllib small_roman_corinthian_half_base.mtl
o Cube.288
v 1.000000 0.100000 0.499998
v 1.000000 0.000000 0.499998
v 0.000000 0.100000 0.499998
v 0.000000 0.000000 0.499998
v 0.334315 0.200000 0.599998
v 0.334315 0.300000 0.599998
v 0.665685 0.200000 0.599998
v 0.665685 0.300000 0.599998
v 0.900000 0.200000 0.834313
v 0.900000 0.300000 0.834313
v 0.100000 0.200000 0.834313
v 0.100000 0.300000 0.834313
v 0.313604 0.300000 0.549998
v 0.313604 0.400000 0.549998
v 0.686396 0.300000 0.549998
v 0.686396 0.400000 0.549998
v 0.950000 0.300000 0.813602
v 0.950000 0.400000 0.813602
v 0.050000 0.300000 0.813602
v 0.050000 0.400000 0.813602
v 0.292892 0.100000 0.499995
v 0.292892 0.200000 0.499995
v 0.707108 0.100000 0.499995
v 0.707108 0.200000 0.499995
v 1.000004 0.100000 0.792890
v 1.000004 0.200000 0.792890
v -0.000004 0.100000 0.792890
v -0.000004 0.200000 0.792890
v 0.000000 0.000000 1.002814
v 1.000000 0.100000 1.000332
v 0.000000 0.100000 1.002814
v 1.000000 0.000000 1.000332
v 0.900000 0.200000 1.000581
v 0.900000 0.300000 1.000581
v 0.100000 0.200000 1.002566
v 0.100000 0.300000 1.002566
v 0.950000 0.300000 1.000456
v 0.950000 0.400000 1.000456
v 0.050000 0.300000 1.002690
v 0.050000 0.400000 1.002690
v 1.000004 0.100000 1.000332
v 1.000004 0.200000 1.000332
v -0.000004 0.100000 1.002814
v -0.000004 0.200000 1.002814
vn 0.0025 -0.0000 1.0000
vn -1.0000 -0.0000 -0.0000
vn -0.0000 -0.0000 -1.0000
vn 0.7071 -0.0000 -0.7071
vn -0.7071 -0.0000 -0.7071
vn -0.0000 1.0000 -0.0000
vn 1.0000 -0.0000 -0.0000
vn -0.0000 -1.0000 -0.0000
vn 0.0208 -0.0000 0.9998
vt 0.000047 0.999953
vt 0.222248 0.000047
vt 0.222248 0.999953
vt 0.497184 0.187500
vt 1.000000 0.312500
vt 0.497184 0.312500
vt 0.637484 0.999755
vt 0.437545 0.999754
vt 0.637510 0.000054
vt -0.000000 0.687500
vt 1.000000 0.812500
vt -0.000000 0.812500
vt 0.262340 0.442436
vt 0.550160 0.557564
vt 0.262340 0.557564
vt 0.012340 0.192436
vt 0.300160 0.307564
vt 0.012340 0.307564
vt 0.654020 0.307564
vt 0.800160 0.192436
vt 0.800160 0.307564
vt 0.637340 0.817436
vt 0.925160 0.932564
vt 0.637340 0.932564
vt 0.443088 0.823398
vt 0.804304 0.926602
vt 0.443088 0.926602
vt 0.068088 0.073398
vt 0.429304 0.176602
vt 0.068088 0.176602
vt 0.375050 0.000050
vt 0.625024 0.999950
vt 0.375050 0.999950
vt 0.683588 0.448398
vt 0.866804 0.551602
vt 0.683588 0.551602
vt 0.005588 0.573398
vt 0.366804 0.676602
vt 0.005588 0.676602
vt 0.502881 0.139529
vt 0.934619 0.235471
vt 0.502881 0.235471
vt 0.002881 0.452029
vt 0.434619 0.547971
vt 0.002881 0.547971
vt 0.590815 0.702029
vt 0.809619 0.797971
vt 0.590815 0.797971
vt 0.252881 0.702029
vt 0.684619 0.797971
vt 0.252881 0.797971
vt 0.497184 0.999994
vt 0.499666 0.000006
vt 0.999994 0.707104
vt 0.502881 0.764529
vt 0.719098 0.860471
vt 0.502881 0.860471
vt 0.999900 0.707065
vt 0.707065 0.999900
vt 0.499666 0.999900
vt 0.497308 0.950006
vt 0.499542 0.049994
vt 0.950006 0.686398
vt 0.630588 0.323398
vt 0.811640 0.426602
vt 0.630588 0.426602
vt 0.499491 0.999900
vt 0.496791 0.999900
vt 0.499272 0.000100
vt 0.999900 0.707065
vt 0.512340 0.629936
vt 0.656756 0.745064
vt 0.512340 0.745064
vt 0.499272 0.999900
vt 0.000100 0.999900
vt 0.999900 0.499666
vt 0.999900 0.999900
vt 0.000000 0.250000
vt 0.500334 0.375000
vt 0.000000 0.375000
vt 0.750045 0.999955
vt 0.950026 0.000045
vt 0.950026 0.999955
vt 0.000100 0.499666
vt 0.999900 0.497185
vt 0.000047 0.000047
vt 1.000000 0.187500
vt 0.637510 0.999955
vt 0.437571 0.000045
vt 1.000000 0.687500
vt 0.550160 0.442436
vt 0.300160 0.192436
vt 0.654020 0.192436
vt 0.925160 0.817436
vt 0.804304 0.823398
vt 0.429304 0.073398
vt 0.625024 0.000050
vt 0.866804 0.448398
vt 0.366804 0.573398
vt 0.934619 0.139529
vt 0.434619 0.452029
vt 0.809619 0.702029
vt 0.684619 0.702029
vt 0.707104 0.000006
vt 0.999994 0.292896
vt 0.707104 0.999994
vt 0.719098 0.764529
vt 0.707065 0.000100
vt 0.999900 0.292935
vt 0.497185 0.000100
vt 0.686399 0.049994
vt 0.950006 0.313601
vt 0.686399 0.950006
vt 0.811640 0.323398
vt 0.497010 0.000100
vt 0.707065 0.000100
vt 0.999900 0.292934
vt 0.707065 0.999900
vt 0.656756 0.629936
vt 0.496791 0.000100
vt 0.000100 0.497185
vt 0.500334 0.250000
vt 0.750045 0.000045
s 0
usemtl ionic_base
f 38/1/1 39/2/1 37/3/1
f 31/4/2 4/5/2 29/6/2
f 30/7/1 42/8/1 31/9/1
f 3/10/3 2/11/3 4/12/3
f 6/13/3 7/14/3 5/15/3
f 8/16/4 9/17/4 7/18/4
f 35/19/2 12/20/2 11/21/2
f 12/22/5 5/23/5 11/24/5
f 14/25/3 15/26/3 13/27/3
f 16/28/4 17/29/4 15/30/4
f 33/31/1 36/32/1 35/33/1
f 40/34/2 19/35/2 39/36/2
f 20/37/5 13/38/5 19/39/5
f 22/40/3 23/41/3 21/42/3
f 24/43/4 25/44/4 23/45/4
f 44/46/2 27/47/2 43/48/2
f 28/49/5 21/50/5 27/51/5
f 44/52/6 42/53/6 22/54/6
f 26/55/7 41/56/7 25/57/7
f 23/58/8 25/59/8 41/60/8
f 40/61/6 38/62/6 14/63/6
f 18/64/7 37/65/7 17/66/7
f 15/58/8 17/59/8 37/67/8
f 36/68/6 34/69/6 6/70/6
f 10/71/7 33/72/7 9/73/7
f 7/58/8 9/59/8 33/74/8
f 3/75/6 30/76/6 1/77/6
f 1/78/7 32/79/7 2/80/7
f 30/81/1 29/82/1 32/83/1
f 4/77/8 32/84/8 29/85/8
f 38/1/1 40/86/1 39/2/1
f 31/4/2 3/87/2 4/5/2
f 30/7/9 41/88/9 42/8/9
f 42/8/1 44/89/1 31/9/1
f 3/10/3 1/90/3 2/11/3
f 6/13/3 8/91/3 7/14/3
f 8/16/4 10/92/4 9/17/4
f 35/19/2 36/93/2 12/20/2
f 12/22/5 6/94/5 5/23/5
f 14/25/3 16/95/3 15/26/3
f 16/28/4 18/96/4 17/29/4
f 33/31/1 34/97/1 36/32/1
f 40/34/2 20/98/2 19/35/2
f 20/37/5 14/99/5 13/38/5
f 22/40/3 24/100/3 23/41/3
f 24/43/4 26/101/4 25/44/4
f 44/46/2 28/102/2 27/47/2
f 28/49/5 22/103/5 21/50/5
f 26/104/6 24/105/6 42/53/6
f 24/105/6 22/54/6 42/53/6
f 22/54/6 28/106/6 44/52/6
f 26/55/7 42/107/7 41/56/7
f 27/108/8 21/109/8 43/110/8
f 21/109/8 23/58/8 41/60/8
f 43/110/8 21/109/8 41/60/8
f 18/111/6 16/112/6 38/62/6
f 16/112/6 14/63/6 38/62/6
f 14/63/6 20/113/6 40/61/6
f 18/64/7 38/114/7 37/65/7
f 19/108/8 13/109/8 39/115/8
f 13/109/8 15/58/8 37/67/8
f 39/115/8 13/109/8 37/67/8
f 10/116/6 8/117/6 34/69/6
f 8/117/6 6/70/6 34/69/6
f 6/70/6 12/118/6 36/68/6
f 10/71/7 34/119/7 33/72/7
f 11/108/8 5/109/8 35/120/8
f 5/109/8 7/58/8 33/74/8
f 35/120/8 5/109/8 33/74/8
f 3/75/6 31/121/6 30/76/6
f 1/78/7 30/122/7 32/79/7
f 30/81/1 31/123/1 29/82/1
f 4/77/8 2/75/8 32/84/8
