# Blender 5.1.2
# www.blender.org
mtllib small_composite_capital.mtl
o composite
v 0.556503 0.978033 0.892819
v 0.556506 0.963806 0.935472
v 0.579256 0.925924 0.875436
v 0.579259 0.911697 0.918089
v 0.555584 0.873453 0.857936
v 0.555587 0.859226 0.900589
v 0.499353 0.851358 0.850569
v 0.499356 0.837130 0.893222
v 0.443502 0.872580 0.857652
v 0.443505 0.858353 0.900305
v 0.420749 0.924690 0.875035
v 0.420752 0.910462 0.917688
v 0.444422 0.977161 0.892535
v 0.444424 0.962933 0.935188
v 0.500653 0.999256 0.899901
v 0.500656 0.985029 0.942555
v 0.347906 0.774177 0.132807
v 0.347906 0.856888 0.132807
v 0.652096 0.774177 0.132807
v 0.652096 0.856888 0.132807
v 0.867191 0.774177 0.347902
v 0.867191 0.856888 0.347902
v 0.867191 0.774177 0.652093
v 0.867191 0.856888 0.652093
v 0.652096 0.774177 0.867188
v 0.652096 0.856888 0.867188
v 0.347906 0.774177 0.867188
v 0.347906 0.856888 0.867188
v 0.132811 0.774177 0.652093
v 0.132811 0.856888 0.652093
v 0.132811 0.774177 0.347902
v 0.132811 0.856888 0.347902
v 0.107180 0.978033 0.556503
v 0.064526 0.963806 0.556505
v 0.124562 0.925924 0.579256
v 0.081909 0.911697 0.579259
v 0.142063 0.873453 0.555584
v 0.099409 0.859226 0.555586
v 0.149429 0.851358 0.499353
v 0.106776 0.837130 0.499355
v 0.142347 0.872580 0.443502
v 0.099693 0.858353 0.443505
v 0.124964 0.924690 0.420749
v 0.082311 0.910462 0.420752
v 0.107464 0.977161 0.444421
v 0.064810 0.962933 0.444424
v 0.100097 0.999256 0.500652
v 0.057444 0.985029 0.500655
v 0.443497 0.978033 0.107181
v 0.443495 0.963806 0.064527
v 0.420744 0.925924 0.124563
v 0.420742 0.911697 0.081910
v 0.444416 0.873453 0.142064
v 0.444414 0.859226 0.099410
v 0.500647 0.851358 0.149431
v 0.500645 0.837130 0.106777
v 0.556498 0.872580 0.142348
v 0.556495 0.858353 0.099695
v 0.579251 0.924690 0.124966
v 0.579249 0.910462 0.082313
v 0.555579 0.977161 0.107465
v 0.555576 0.962933 0.064812
v 0.499348 0.999256 0.100098
v 0.499345 0.985029 0.057445
v 0.132388 0.826912 0.953510
v 0.089351 0.826912 0.861223
v 0.091488 0.717961 0.972583
v 0.048451 0.717961 0.880296
v 0.132388 0.609010 0.953510
v 0.089351 0.609010 0.861223
v 0.231130 0.563881 0.907463
v 0.188094 0.563881 0.815176
v 0.329872 0.609010 0.861417
v 0.286836 0.609010 0.769129
v 0.370773 0.717961 0.842344
v 0.327736 0.717961 0.750056
v 0.329872 0.826912 0.861417
v 0.286836 0.826912 0.769129
v 0.231130 0.872041 0.907463
v 0.188094 0.872041 0.815176
v 0.343773 0.582988 0.742578
v 0.386810 0.582988 0.834865
v 0.427710 0.691939 0.815792
v 0.384673 0.691939 0.723504
v 0.140591 0.826911 0.912455
v 0.048302 0.826911 0.869422
v 0.121519 0.717960 0.953356
v 0.029230 0.717960 0.910323
v 0.140591 0.609010 0.912455
v 0.048302 0.609010 0.869422
v 0.186633 0.563881 0.813710
v 0.094344 0.563881 0.770678
v 0.232676 0.609010 0.714966
v 0.140386 0.609010 0.671934
v 0.251747 0.717960 0.674065
v 0.159458 0.717960 0.631032
v 0.232676 0.826911 0.714966
v 0.140386 0.826911 0.671934
v 0.186633 0.872040 0.813710
v 0.094344 0.872040 0.770678
v 0.166935 0.582987 0.614995
v 0.259225 0.582987 0.658028
v 0.278296 0.691938 0.617127
v 0.186007 0.691938 0.574094
v 0.046491 0.826913 0.132388
v 0.138779 0.826913 0.089352
v 0.027418 0.717962 0.091488
v 0.119705 0.717962 0.048451
v 0.046491 0.609011 0.132388
v 0.138779 0.609011 0.089352
v 0.092537 0.563882 0.231131
v 0.184825 0.563882 0.188094
v 0.138584 0.609011 0.329873
v 0.230871 0.609011 0.286836
v 0.157657 0.717962 0.370773
v 0.249945 0.717962 0.327737
v 0.138584 0.826913 0.329873
v 0.230871 0.826913 0.286836
v 0.092537 0.872042 0.231131
v 0.184825 0.872042 0.188094
v 0.257423 0.582989 0.343774
v 0.165136 0.582989 0.386810
v 0.184209 0.691940 0.427710
v 0.276496 0.691940 0.384674
v 0.859411 0.826912 0.087548
v 0.951700 0.826912 0.130582
v 0.878482 0.717961 0.046647
v 0.970771 0.717961 0.089680
v 0.859411 0.609010 0.087548
v 0.951700 0.609010 0.130582
v 0.813368 0.563881 0.186292
v 0.905657 0.563881 0.229326
v 0.767325 0.609010 0.285036
v 0.859614 0.609010 0.328069
v 0.748253 0.717961 0.325937
v 0.840542 0.717961 0.368971
v 0.767325 0.826912 0.285036
v 0.859614 0.826912 0.328069
v 0.813368 0.872041 0.186292
v 0.905657 0.872041 0.229326
v 0.833064 0.582988 0.385008
v 0.740775 0.582988 0.341974
v 0.721704 0.691939 0.382876
v 0.813993 0.691939 0.425909
v 0.087546 0.826913 0.140590
v 0.130579 0.826913 0.048301
v 0.046645 0.717962 0.121519
v 0.089678 0.717962 0.029230
v 0.087546 0.609011 0.140590
v 0.130579 0.609011 0.048301
v 0.186290 0.563882 0.186633
v 0.229323 0.563882 0.094344
v 0.285034 0.609011 0.232675
v 0.328067 0.609011 0.140386
v 0.325936 0.717962 0.251747
v 0.368968 0.717962 0.159458
v 0.285034 0.826913 0.232675
v 0.328067 0.826913 0.140386
v 0.186290 0.872042 0.186633
v 0.229323 0.872042 0.094344
v 0.385005 0.582989 0.166935
v 0.341973 0.582989 0.259225
v 0.382874 0.691940 0.278296
v 0.425907 0.691940 0.186007
v 0.867615 0.826913 0.046494
v 0.910650 0.826913 0.138782
v 0.908515 0.717962 0.027421
v 0.951551 0.717962 0.119709
v 0.867614 0.609011 0.046494
v 0.910650 0.609011 0.138782
v 0.768872 0.563882 0.092540
v 0.811908 0.563882 0.184828
v 0.670129 0.609011 0.138586
v 0.713165 0.609011 0.230874
v 0.629229 0.717962 0.157659
v 0.672265 0.717962 0.249947
v 0.670129 0.826913 0.138586
v 0.713166 0.826913 0.230874
v 0.768872 0.872042 0.092540
v 0.811908 0.872042 0.184828
v 0.656228 0.582988 0.257425
v 0.613192 0.582988 0.165137
v 0.572292 0.691939 0.184210
v 0.615328 0.691939 0.276498
v 0.953510 0.826913 0.867610
v 0.861223 0.826913 0.910647
v 0.972584 0.717961 0.908511
v 0.880296 0.717961 0.951548
v 0.953510 0.609011 0.867610
v 0.861223 0.609011 0.910647
v 0.907463 0.563882 0.768868
v 0.815176 0.563882 0.811905
v 0.861416 0.609011 0.670126
v 0.769129 0.609011 0.713163
v 0.842343 0.717961 0.629226
v 0.750055 0.717961 0.672263
v 0.861416 0.826912 0.670126
v 0.769129 0.826912 0.713163
v 0.907463 0.872042 0.768868
v 0.815176 0.872041 0.811906
v 0.742577 0.582988 0.656226
v 0.834864 0.582988 0.613189
v 0.815791 0.691939 0.572289
v 0.723504 0.691939 0.615326
v 0.912455 0.826912 0.859407
v 0.869423 0.826912 0.951697
v 0.953357 0.717961 0.878478
v 0.910324 0.717961 0.970768
v 0.912455 0.609010 0.859407
v 0.869423 0.609010 0.951697
v 0.813711 0.563881 0.813365
v 0.770679 0.563881 0.905655
v 0.714966 0.609010 0.767323
v 0.671934 0.609010 0.859613
v 0.674065 0.717961 0.748252
v 0.631033 0.717961 0.840542
v 0.714966 0.826912 0.767323
v 0.671934 0.826912 0.859613
v 0.813711 0.872041 0.813365
v 0.770679 0.872041 0.905655
v 0.614996 0.582988 0.833064
v 0.658028 0.582988 0.740774
v 0.617127 0.691939 0.721703
v 0.574095 0.691939 0.813993
v 0.892818 0.978033 0.443501
v 0.935471 0.963806 0.443498
v 0.875435 0.925924 0.420747
v 0.918089 0.911697 0.420745
v 0.857935 0.873453 0.444419
v 0.900588 0.859226 0.444417
v 0.850568 0.851358 0.500650
v 0.893221 0.837131 0.500648
v 0.857650 0.872580 0.556501
v 0.900303 0.858353 0.556498
v 0.875032 0.924690 0.579254
v 0.917686 0.910462 0.579252
v 0.892533 0.977161 0.555582
v 0.935186 0.962933 0.555580
v 0.899900 0.999256 0.499351
v 0.942553 0.985029 0.499349
v 0.091678 0.937626 0.500000
v 0.908322 1.000126 0.500000
v 0.091678 1.000126 0.500000
v 0.908322 0.937626 0.500000
v 0.500000 0.937626 0.091678
v 0.500000 1.000126 0.908322
v 0.500000 0.937626 0.908322
v 0.500000 1.000126 0.091678
v 0.500000 0.848475 0.500000
v 0.500000 1.000126 0.500000
v 1.028899 1.000126 0.013729
v 0.986271 1.000126 -0.028898
v 0.986271 0.937626 -0.028898
v 1.028899 0.937626 0.013729
v 0.986271 1.000126 1.028898
v 1.028899 1.000126 0.986271
v 1.028899 0.937626 0.986271
v 0.986271 0.937626 1.028898
v 0.013729 1.000126 -0.028898
v -0.028898 1.000126 0.013729
v -0.028898 0.937626 0.013729
v 0.013729 0.937626 -0.028898
v -0.028898 1.000126 0.986271
v 0.013729 1.000126 1.028898
v 0.013729 0.937626 1.028898
v -0.028898 0.937626 0.986271
v 0.169867 0.937626 0.500000
v 0.830134 0.937626 0.500000
v 0.500000 0.937626 0.169867
v 0.500000 0.937626 0.830134
v 0.927621 0.937626 0.106845
v 0.893156 0.937626 0.072380
v 0.072379 0.937626 0.893156
v 0.106845 0.937626 0.927621
v 0.893156 0.937626 0.927621
v 0.927621 0.937626 0.893156
v 0.106845 0.937626 0.072380
v 0.072379 0.937626 0.106845
v 0.169867 0.848475 0.500000
v 0.830134 0.848475 0.500000
v 0.500000 0.848475 0.169867
v 0.500000 0.848475 0.830134
v 0.927621 0.848475 0.106845
v 0.893156 0.848475 0.072380
v 0.072380 0.848475 0.893156
v 0.106845 0.848475 0.927621
v 0.893156 0.848475 0.927621
v 0.927621 0.848475 0.893156
v 0.106845 0.848475 0.072380
v 0.072379 0.848475 0.106845
v 0.346013 0.068876 0.128242
v 0.346013 0.145809 0.128242
v 0.653987 0.068876 0.128242
v 0.653987 0.145809 0.128242
v 0.871757 0.068876 0.346012
v 0.871757 0.145809 0.346012
v 0.871757 0.068876 0.653986
v 0.871757 0.145809 0.653986
v 0.653987 0.068876 0.871756
v 0.653987 0.145809 0.871756
v 0.346013 0.068876 0.871756
v 0.346013 0.145809 0.871756
v 0.128243 0.068876 0.653986
v 0.128243 0.145809 0.653986
v 0.128243 0.068876 0.346012
v 0.128243 0.145809 0.346012
v 0.653987 0.145809 0.128242
v 0.346013 0.145809 0.128242
v 0.871757 0.145809 0.346012
v 0.871757 0.145809 0.653986
v 0.653987 0.145809 0.871756
v 0.346013 0.145809 0.871756
v 0.128243 0.145809 0.653986
v 0.128243 0.145809 0.346012
v 0.632408 0.145809 0.180338
v 0.367592 0.145809 0.180338
v 0.819661 0.145809 0.367591
v 0.819661 0.145809 0.632407
v 0.632408 0.145809 0.819660
v 0.367592 0.145809 0.819660
v 0.180339 0.145809 0.632407
v 0.180339 0.145809 0.367591
v 0.666071 0.395809 0.099069
v 0.333929 0.395809 0.099069
v 0.900930 0.395809 0.333928
v 0.900930 0.395809 0.666070
v 0.666071 0.395809 0.900929
v 0.333929 0.395809 0.900929
v 0.099070 0.395809 0.666070
v 0.099070 0.395809 0.333928
v 0.628215 0.395809 0.190461
v 0.371785 0.395809 0.190461
v 0.809538 0.395809 0.371784
v 0.809538 0.395809 0.628213
v 0.628215 0.395809 0.809536
v 0.371785 0.395809 0.809536
v 0.190462 0.395809 0.628213
v 0.190462 0.395809 0.371784
v 0.666437 0.625809 0.098184
v 0.333563 0.625809 0.098184
v 0.901815 0.625809 0.333562
v 0.901815 0.625809 0.666436
v 0.666437 0.625809 0.901814
v 0.333563 0.625809 0.901814
v 0.098185 0.625809 0.666436
v 0.098185 0.625809 0.333562
v 0.635902 0.625809 0.171903
v 0.364098 0.625809 0.171903
v 0.828095 0.625809 0.364097
v 0.828095 0.625809 0.635900
v 0.635902 0.625809 0.828094
v 0.364098 0.625809 0.828094
v 0.171905 0.625809 0.635900
v 0.171905 0.625809 0.364097
v 0.650804 0.855809 0.135926
v 0.349196 0.855809 0.135926
v 0.864073 0.855809 0.349195
v 0.864073 0.855809 0.650803
v 0.650804 0.855809 0.864071
v 0.349196 0.855809 0.864071
v 0.135927 0.855809 0.650803
v 0.135927 0.855809 0.349195
vn 0.9239 0.3630 0.1210
vn 0.9193 -0.3732 -0.1246
vn 0.3827 -0.8764 -0.2924
vn -0.3719 -0.8806 -0.2937
vn -0.9239 -0.3630 -0.1210
vn -0.9193 0.3732 0.1246
vn 0.0001 -0.3164 0.9486
vn -0.3827 0.8764 0.2924
vn 0.3719 0.8806 0.2937
vn -0.0001 0.3164 -0.9486
vn -0.0000 -0.0000 -1.0000
vn 0.7071 -0.0000 -0.7071
vn 1.0000 -0.0000 -0.0000
vn 0.7071 -0.0000 0.7071
vn -0.0000 -0.0000 1.0000
vn -0.7071 -0.0000 0.7071
vn -0.0000 1.0000 -0.0000
vn -1.0000 -0.0000 -0.0000
vn -0.7071 -0.0000 -0.7071
vn -0.0000 -1.0000 -0.0000
vn -0.1210 0.3630 0.9239
vn 0.1245 -0.3732 0.9193
vn 0.2924 -0.8764 0.3827
vn 0.2937 -0.8806 -0.3719
vn 0.1210 -0.3630 -0.9239
vn -0.1245 0.3732 -0.9193
vn -0.9486 -0.3164 0.0001
vn -0.2924 0.8764 -0.3827
vn -0.2937 0.8806 0.3719
vn 0.9486 0.3164 -0.0001
vn -0.9239 0.3630 -0.1210
vn -0.9193 -0.3732 0.1245
vn -0.3827 -0.8764 0.2924
vn 0.3719 -0.8806 0.2937
vn 0.9239 -0.3630 0.1210
vn 0.9193 0.3732 -0.1245
vn -0.0001 -0.3164 -0.9486
vn 0.3827 0.8764 -0.2924
vn -0.3719 0.8806 -0.2937
vn 0.0001 0.3164 0.9486
vn -0.8373 0.3827 0.3905
vn -0.8373 -0.3827 0.3905
vn -0.3468 -0.9239 0.1617
vn 0.3468 -0.9239 -0.1617
vn -0.4226 -0.0000 -0.9063
vn 0.8373 0.3827 -0.3905
vn 0.3468 0.9239 -0.1617
vn -0.3468 0.9239 0.1617
vn 0.4226 -0.0000 0.9063
vn 0.8373 -0.3827 -0.3905
vn -0.3904 0.3827 0.8373
vn -0.3904 -0.3827 0.8373
vn -0.1617 -0.9239 0.3468
vn 0.1617 -0.9239 -0.3468
vn -0.9063 -0.0000 -0.4226
vn 0.3904 0.3827 -0.8373
vn 0.1617 0.9239 -0.3468
vn -0.1617 0.9239 0.3468
vn 0.9063 -0.0000 0.4226
vn 0.3904 -0.3827 -0.8373
vn -0.3905 0.3827 -0.8373
vn -0.3905 -0.3827 -0.8373
vn -0.1617 -0.9239 -0.3468
vn 0.1617 -0.9239 0.3468
vn 0.1617 0.9239 0.3468
vn 0.3905 0.3827 0.8373
vn 0.9063 -0.0000 -0.4226
vn -0.1617 0.9239 -0.3468
vn -0.9063 -0.0000 0.4226
vn 0.3905 -0.3827 0.8373
vn -0.8373 0.3827 -0.3904
vn -0.8373 -0.3827 -0.3904
vn -0.3468 -0.9239 -0.1617
vn 0.3468 -0.9239 0.1617
vn 0.8373 0.3827 0.3904
vn 0.4226 -0.0000 -0.9063
vn 0.3468 0.9239 0.1617
vn -0.3468 0.9239 -0.1617
vn -0.4226 -0.0000 0.9063
vn 0.8373 -0.3827 0.3904
vn 0.1210 0.3630 -0.9239
vn -0.1245 -0.3732 -0.9193
vn -0.2923 -0.8764 -0.3827
vn -0.2937 -0.8806 0.3719
vn -0.1210 -0.3630 0.9239
vn 0.1245 0.3732 0.9193
vn 0.9486 -0.3164 -0.0001
vn 0.2924 0.8764 0.3827
vn 0.2937 0.8806 -0.3719
vn -0.9486 0.3164 0.0001
vn 0.9706 -0.0000 0.2407
vn -0.2407 -0.0000 -0.9706
vn -0.2407 -0.0000 0.9706
vn 0.9706 -0.0000 -0.2407
vn 0.2407 -0.0000 -0.9706
vn -0.9706 -0.0000 0.2407
vn -0.9706 -0.0000 -0.2407
vn 0.2407 -0.0000 0.9706
vn -0.9510 -0.3092 -0.0000
vn -0.0000 -0.3092 0.9510
vn 0.9510 -0.3092 -0.0000
vn -0.0000 -0.3092 -0.9510
vn -0.6725 -0.3092 -0.6725
vn -0.6725 -0.3092 0.6725
vn 0.6725 -0.3092 0.6725
vn 0.6725 -0.3092 -0.6725
vn -0.6563 -0.3724 -0.6563
vn -0.6563 -0.3724 0.6563
vn 0.6563 -0.3724 0.6563
vn 0.6563 -0.3724 -0.6563
vn -0.9281 -0.3724 -0.0000
vn -0.0000 -0.3724 0.9281
vn 0.9281 -0.3724 -0.0000
vn -0.0000 -0.3724 -0.9281
vn -0.9880 -0.1545 -0.0000
vn -0.0000 -0.1545 0.9880
vn 0.9880 -0.1545 -0.0000
vn -0.0000 -0.1545 -0.9880
vn -0.6986 -0.1545 -0.6986
vn -0.6986 -0.1545 0.6986
vn 0.6986 -0.1545 0.6986
vn 0.6986 -0.1545 -0.6986
vn 0.9486 -0.3164 -0.0000
vn 0.2923 0.8764 0.3827
vt 0.125000 0.812500
vt 0.000000 1.000000
vt 0.000000 0.812500
vt 0.312500 0.125000
vt 0.187500 0.312500
vt 0.187500 0.125000
vt 0.125000 0.500000
vt 0.000000 0.687500
vt 0.000000 0.500000
vt 1.000000 0.062500
vt 0.875000 0.250000
vt 0.875000 0.062500
vt 0.937500 0.625000
vt 0.812500 0.812500
vt 0.812500 0.625000
vt 0.375000 0.125000
vt 0.250000 0.312500
vt 0.250000 0.125000
vt 0.499076 0.363302
vt 0.596007 0.402687
vt 0.403993 0.597313
vt 0.250000 0.625000
vt 0.125000 0.625000
vt 0.687500 0.687500
vt 0.562500 0.875000
vt 0.562500 0.687500
vt 0.799940 0.375761
vt 0.799940 0.624239
vt 0.200060 0.375761
vt 0.500000 0.500000
vt 0.937500 0.500000
vt 0.687500 0.625000
vt 0.250000 0.500000
vt 0.687500 0.500000
vt 0.937500 0.500000
vt 0.437500 0.625000
vt 0.437500 0.500000
vt 0.867185 0.652093
vt 0.347907 0.867185
vt 0.132815 0.347907
vt 0.652091 0.132820
vt 0.867180 0.347909
vt 0.867180 0.652091
vt 0.812500 0.187500
vt 0.937500 0.375000
vt 0.812500 0.375000
vt 0.812500 0.437500
vt 0.687500 0.437500
vt 0.187500 0.250000
vt 0.062500 0.437500
vt 0.062500 0.250000
vt 0.812500 0.500000
vt 0.687500 0.500000
vt 0.812500 0.875000
vt 0.687500 0.875000
vt 0.749076 0.050802
vt 0.846007 0.090187
vt 0.653993 0.284813
vt 0.687500 0.187500
vt 0.687500 0.375000
vt 0.375000 0.437500
vt 0.250000 0.437500
vt 0.062500 0.312500
vt 0.062500 0.125000
vt 0.812500 0.750000
vt 0.687500 0.937500
vt 0.687500 0.750000
vt 0.937500 0.250000
vt 0.812500 0.250000
vt 0.125000 0.687500
vt 0.250000 0.875000
vt 0.125000 0.875000
vt 0.625000 0.125000
vt 0.750000 0.312500
vt 0.625000 0.312500
vt 0.625000 0.750000
vt 0.750000 0.937500
vt 0.625000 0.937500
vt 0.749076 0.675802
vt 0.846007 0.715187
vt 0.653993 0.909813
vt 0.312500 0.500000
vt 0.437500 0.687500
vt 0.312500 0.687500
vt 0.750000 0.250000
vt 0.625000 0.437500
vt 0.625000 0.250000
vt 0.187500 0.375000
vt 0.062500 0.500000
vt 0.062500 0.375000
vt 0.750000 0.562500
vt 0.625000 0.687500
vt 0.625000 0.562500
vt 0.750000 0.500000
vt 0.875000 0.625000
vt 0.750000 0.625000
vt 0.500000 0.375000
vt 0.625000 0.500000
vt 0.000100 0.292935
vt 0.000100 0.707065
vt 0.500000 0.437500
vt 0.500000 0.312500
vt 0.707065 0.000100
vt 0.999900 0.707065
vt 0.292935 0.999900
vt 0.437500 0.375000
vt 0.312500 0.375000
vt 0.312500 0.437500
vt 0.187500 0.562500
vt 0.187500 0.437500
vt 0.686172 0.501098
vt 0.498901 0.686172
vt 0.313828 0.498901
vt 0.414228 0.999936
vt 0.000064 0.000064
vt 0.414228 0.000064
vt 0.000064 0.999936
vt 0.000064 0.000064
vt 0.414228 0.999936
vt 0.414228 0.000064
vt 0.062500 0.687500
vt 0.062500 0.812500
vt 0.187500 0.062500
vt 0.062500 0.187500
vt 0.062500 0.062500
vt 0.312500 0.750000
vt 0.187500 0.875000
vt 0.187500 0.750000
vt 0.312500 0.187500
vt 0.437500 0.312500
vt 0.312500 0.312500
vt 0.125000 0.375000
vt 0.187500 0.500000
vt 0.062500 0.562500
vt 0.367579 0.369133
vt 0.369133 0.632420
vt 0.632420 0.630867
vt 0.500000 0.562500
vt 0.625000 0.375000
vt 0.375761 0.200060
vt 0.624239 0.200060
vt 0.375000 0.562500
vt 0.750000 0.750000
vt 0.937500 0.750000
vt 0.501099 0.313828
vt 0.000064 0.999936
vt 0.687500 0.312500
vt 0.500000 0.062500
vt 0.375000 0.187500
vt 0.375000 0.062500
vt 0.125000 0.437500
vt 0.125000 0.312500
vt 0.687500 0.812500
vt 0.625000 0.812500
vt 0.000064 0.000064
vt 0.501098 0.686172
vt 0.000064 0.000064
vt 0.414228 0.000064
vt 0.375000 0.312500
vt 0.875000 0.750000
vt 0.750000 0.875000
vt 0.750000 0.125000
vt 0.312500 0.625000
vt 0.937500 0.062500
vt 0.812500 0.062500
vt 0.812500 0.562500
vt 0.687500 0.562500
vt 0.630867 0.367579
vt 0.437500 0.750000
vt 0.312500 0.875000
vt 0.812500 0.312500
vt 0.250000 0.750000
vt 0.125000 0.750000
vt 0.750000 0.687500
vt 0.562500 0.500000
vt 0.437500 0.500000
vt 0.437500 0.125000
vt 0.312500 0.250000
vt 0.562500 0.562500
vt 0.312500 0.562500
vt 0.250000 0.562500
vt 0.500000 0.187500
vt 0.250000 0.062500
vt 0.250000 0.187500
vt 0.500000 0.812500
vt 0.500000 0.937500
vt 0.750000 0.187500
vt 0.750000 0.062500
vt 0.125000 0.562500
vt 0.937500 0.562500
vt 0.187500 0.625000
vt 0.187500 0.687500
vt 0.062500 0.875000
vt 0.062500 0.750000
vt 0.625000 0.187500
vt 0.500000 0.625000
vt 0.687500 0.250000
vt 0.562500 0.437500
vt 0.562500 0.250000
vt 0.125000 0.062500
vt 0.250000 0.250000
vt 0.125000 0.250000
vt 0.250000 0.937500
vt 0.125000 0.937500
vt 0.186576 0.613302
vt 0.283507 0.652687
vt 0.091493 0.847313
vt 0.562500 0.812500
vt 0.437500 0.812500
vt 0.375000 0.513050
vt 0.629350 0.491300
vt 0.625000 0.513050
vt 0.625000 0.000000
vt 0.375000 0.013050
vt 0.375000 0.000000
vt 0.562500 0.625000
vt 0.625000 0.263050
vt 0.375000 0.236950
vt 0.625000 0.236950
vt 0.625000 0.875000
vt 0.000000 0.187500
vt 0.500000 0.125000
vt 0.643816 0.764472
vt 0.235458 0.764489
vt 0.235458 0.356209
vt 0.456963 0.149554
vt 0.843204 0.225447
vt 0.438127 0.225440
vt 1.000000 0.250000
vt 1.000000 0.312500
vt 0.235458 0.278118
vt 0.764316 0.356209
vt 0.355958 0.764472
vt 0.876603 0.774554
vt 0.490362 0.850447
vt 0.375627 0.774554
vt 1.000000 0.125000
vt 1.000000 0.875000
vt 0.500000 0.875000
vt 0.764316 0.721882
vt 0.721613 0.764489
vt 0.235458 0.643791
vt 0.626670 0.118770
vt 0.681172 0.256230
vt 0.632430 0.256222
vt 0.562500 0.375000
vt 0.764316 0.721882
vt 0.721613 0.764489
vt 0.235458 0.643791
vt 0.439169 0.618769
vt 0.493672 0.756231
vt 0.444929 0.756223
vt 0.756530 0.268554
vt 0.805970 0.356446
vt 0.756530 0.356446
vt 0.434967 0.547508
vt 0.815033 0.452492
vt 0.815033 0.547508
vt 0.059967 0.860008
vt 0.440033 0.764992
vt 0.440033 0.860008
vt 0.180970 0.393554
vt 0.131530 0.481446
vt 0.131530 0.393554
vt 0.081963 0.712054
vt 0.468204 0.787947
vt 0.063127 0.787940
vt 0.249452 0.431270
vt 0.194950 0.568730
vt 0.189169 0.431270
vt 0.394463 0.774554
vt 0.780704 0.850447
vt 0.375627 0.850440
vt 0.564103 0.837053
vt 0.177862 0.912946
vt 0.063127 0.837053
vt 0.269463 0.274554
vt 0.655704 0.350447
vt 0.250627 0.350440
vt 0.814102 0.649554
vt 0.427861 0.725446
vt 0.313127 0.649554
vt 0.186953 0.118770
vt 0.132450 0.256230
vt 0.126670 0.118770
vt 0.814103 0.462053
vt 0.427862 0.537946
vt 0.313127 0.462053
vt 0.370650 0.491300
vt 0.375000 0.625000
vt 0.370650 0.758700
vt 0.138050 0.750000
vt 0.440033 0.172508
vt 0.059967 0.077492
vt 0.440033 0.077492
vt 0.756530 0.768554
vt 0.805970 0.856446
vt 0.756530 0.856446
vt 0.122467 0.297508
vt 0.502533 0.202492
vt 0.502533 0.297508
vt 0.059967 0.485008
vt 0.440033 0.389992
vt 0.440033 0.485008
vt 0.122467 0.735008
vt 0.502533 0.639992
vt 0.502533 0.735008
vt 0.305970 0.456054
vt 0.256530 0.543946
vt 0.256530 0.456054
vt 0.559967 0.485008
vt 0.940033 0.389992
vt 0.940033 0.485008
vt 0.877533 0.860008
vt 0.497467 0.764992
vt 0.877533 0.764992
vt 0.000000 0.875000
vt 0.500000 1.000000
vt 0.437500 0.875000
vt 0.937500 0.875000
vt 0.000065 0.999936
vt 0.562500 0.187500
vt 0.187500 0.187500
vt 0.346012 0.871759
vt 0.128241 0.346012
vt 0.653988 0.128241
vt 0.641876 0.664416
vt 0.318707 0.710584
vt 0.295624 0.664416
vt 0.414228 0.999936
vt 0.000064 0.999936
vt 0.000064 0.999936
vt 0.414228 0.999936
vt 0.414228 0.000064
vt 0.000064 0.000064
vt 0.000064 0.999936
vt 0.589859 0.625077
vt 0.868801 0.874945
vt 0.562555 0.874945
vt 0.391876 0.476916
vt 0.068707 0.523084
vt 0.045624 0.476916
vt 0.295624 0.914416
vt 0.618793 0.960584
vt 0.318707 0.960584
vt 0.358124 0.164416
vt 0.681293 0.210584
vt 0.381207 0.210584
vt 0.608124 0.414416
vt 0.931293 0.460584
vt 0.631207 0.460584
vt 0.954376 0.601916
vt 0.631207 0.648084
vt 0.608124 0.601916
vt 0.045624 0.414416
vt 0.368793 0.460584
vt 0.068707 0.460584
vt 0.428629 0.769800
vt 0.113690 0.855199
vt 0.073187 0.769800
vt 0.334035 0.625055
vt 0.062555 0.874945
vt 0.089859 0.625077
vt 0.896535 0.750055
vt 0.625055 0.999945
vt 0.652359 0.750077
vt 0.584035 0.437555
vt 0.312555 0.687445
vt 0.339859 0.437577
vt 0.271535 0.062555
vt 0.000055 0.312445
vt 0.027359 0.062577
vt 0.589859 0.125077
vt 0.868801 0.374945
vt 0.562555 0.374945
vt 0.652359 0.312577
vt 0.931301 0.562445
vt 0.625055 0.562445
vt 0.896535 0.125055
vt 0.625055 0.374945
vt 0.652359 0.125077
vt 0.950203 0.000055
vt 0.687555 0.249945
vt 0.718727 0.000078
vt 0.010687 0.207300
vt 0.325615 0.292700
vt 0.051190 0.292699
vt 0.573187 0.832300
vt 0.888115 0.917700
vt 0.613690 0.917699
vt 0.741129 0.457300
vt 0.426190 0.542699
vt 0.385687 0.457300
vt 0.198187 0.207300
vt 0.513115 0.292700
vt 0.238690 0.292699
vt 0.573187 0.894800
vt 0.888115 0.980200
vt 0.613690 0.980199
vt 0.573187 0.082300
vt 0.888115 0.167700
vt 0.613690 0.167699
vt 0.428629 0.082300
vt 0.113690 0.167699
vt 0.073187 0.082300
vt 0.965914 0.904383
vt 0.629546 0.970617
vt 0.595323 0.904383
vt 0.325203 0.250055
vt 0.062555 0.499945
vt 0.093727 0.250078
vt 0.093727 0.187578
vt 0.363029 0.437445
vt 0.062555 0.437445
vt 0.450203 0.312555
vt 0.187555 0.562445
vt 0.218727 0.312578
vt 0.887703 0.625055
vt 0.625055 0.874945
vt 0.656227 0.625078
vt 0.531227 0.625078
vt 0.800529 0.874945
vt 0.500055 0.874945
vt 0.262703 0.750055
vt 0.000055 0.999945
vt 0.031227 0.750078
vt 0.937500 0.687500
vt 0.590914 0.716883
vt 0.254546 0.783117
vt 0.220323 0.716883
vt 0.403414 0.466883
vt 0.067046 0.533117
vt 0.032823 0.466883
vt 0.095323 0.904383
vt 0.432167 0.970583
vt 0.129546 0.970617
vt 0.715914 0.341883
vt 0.379546 0.408117
vt 0.345323 0.341883
vt 0.903414 0.279383
vt 0.567046 0.345617
vt 0.532823 0.279383
vt 0.345323 0.091883
vt 0.682167 0.158083
vt 0.379546 0.158117
vt 0.403414 0.091883
vt 0.067046 0.158117
vt 0.032823 0.091883
vt 0.292935 0.000100
vt 0.937500 0.937500
vt 0.625000 0.625000
vt 0.375000 0.375000
vt 0.125000 1.000000
vt 0.937500 0.812500
vt 0.636698 0.499076
vt 0.597313 0.596007
vt 0.500924 0.636698
vt 0.363302 0.500923
vt 0.402687 0.403993
vt 0.250000 0.812500
vt 0.624239 0.799940
vt 0.375761 0.799940
vt 0.200060 0.624239
vt 0.000000 0.625000
vt 0.652093 0.132814
vt 0.867185 0.347907
vt 0.652093 0.867185
vt 0.132815 0.652093
vt 0.347907 0.132814
vt 0.652091 0.867180
vt 0.132820 0.347909
vt 0.347909 0.867180
vt 0.132820 0.652091
vt 0.347909 0.132820
vt 0.937500 0.187500
vt 0.812500 0.687500
vt 0.886698 0.186576
vt 0.847313 0.283507
vt 0.750924 0.324198
vt 0.613302 0.188423
vt 0.652687 0.091493
vt 0.812500 0.937500
vt 0.937500 0.437500
vt 0.250000 0.687500
vt 0.886698 0.811576
vt 0.847313 0.908507
vt 0.750924 0.949198
vt 0.613302 0.813423
vt 0.652687 0.716493
vt 0.750000 0.437500
vt 0.875000 0.500000
vt 0.999900 0.292934
vt 0.707065 0.999900
vt 0.632421 0.369133
vt 0.630867 0.632420
vt 0.367580 0.630867
vt 0.369133 0.367579
vt 0.437500 0.187500
vt 0.686172 0.498901
vt 0.498901 0.313828
vt 0.313828 0.501098
vt 0.875000 0.875000
vt 0.875000 0.125000
vt 0.437500 0.250000
vt 0.875000 0.187500
vt 0.125000 0.187500
vt 0.187500 0.812500
vt 0.875000 0.937500
vt 0.324198 0.749076
vt 0.284813 0.846007
vt 0.188424 0.886698
vt 0.050802 0.750923
vt 0.090187 0.653993
vt 0.625000 0.013050
vt 0.375000 0.263050
vt 0.000000 0.125000
vt 0.721613 0.235511
vt 0.764316 0.278118
vt 0.957939 0.149554
vt 0.500000 0.250000
vt 0.278161 0.235511
vt 0.764316 0.764489
vt 0.895439 0.850440
vt 1.000000 0.812500
vt 0.235458 0.235511
vt 0.643816 0.235527
vt 0.686952 0.118770
vt 0.562500 0.312500
vt 0.235458 0.235511
vt 0.643816 0.235527
vt 0.499452 0.618769
vt 0.805970 0.268554
vt 0.434967 0.452492
vt 0.059967 0.764992
vt 0.180970 0.481446
vt 0.582939 0.712054
vt 0.243692 0.568722
vt 0.895439 0.774554
vt 0.582939 0.912940
vt 0.770439 0.274554
vt 0.832939 0.725440
vt 0.181193 0.256222
vt 0.832939 0.537940
vt 0.375000 0.736950
vt 0.125000 0.513050
vt 0.138050 0.500000
vt 0.125000 0.736950
vt 0.059967 0.172508
vt 0.805970 0.768554
vt 0.122467 0.202492
vt 0.059967 0.389992
vt 0.122467 0.639992
vt 0.305970 0.543946
vt 0.559967 0.389992
vt 0.497467 0.860008
vt 0.562500 0.062500
vt 0.871759 0.653988
vt 0.653988 0.871759
vt 0.128241 0.653988
vt 0.346012 0.128241
vt 0.871759 0.346012
vt 0.618793 0.710584
vt 0.834035 0.625055
vt 0.368793 0.523084
vt 0.641876 0.914416
vt 0.704376 0.164416
vt 0.954376 0.414416
vt 0.931293 0.648084
vt 0.391876 0.414416
vt 0.388115 0.855200
vt 0.368801 0.874945
vt 0.931301 0.999945
vt 0.618801 0.687445
vt 0.306301 0.312445
vt 0.834035 0.125055
vt 0.896535 0.312555
vt 0.931301 0.374945
vt 0.988029 0.249945
vt 0.366129 0.207300
vt 0.928629 0.832300
vt 0.700615 0.542700
vt 0.553629 0.207300
vt 0.928629 0.894800
vt 0.928629 0.082300
vt 0.388115 0.167700
vt 0.932167 0.970583
vt 0.363029 0.499945
vt 0.325203 0.187555
vt 0.488029 0.562445
vt 0.925529 0.874945
vt 0.762703 0.625055
vt 0.300529 0.999945
vt 0.557167 0.783083
vt 0.369667 0.533083
vt 0.465914 0.904383
vt 0.682167 0.408083
vt 0.869667 0.345583
vt 0.715914 0.091883
vt 0.369667 0.158083
vt 0.312500 0.812500
vt 0.062500 0.000000
s 0
usemtl corinthian
f 2/1/1 3/2/1 1/3/1
f 4/4/2 5/5/2 3/6/2
f 6/7/3 7/8/3 5/9/3
f 8/10/4 9/11/4 7/12/4
f 10/13/5 11/14/5 9/15/5
f 12/16/6 13/17/6 11/18/6
f 8/19/7 6/20/7 14/21/7
f 14/22/8 15/1/8 13/23/8
f 16/24/9 1/25/9 15/26/9
f 13/27/10 15/28/10 7/29/10
f 33/44/21 36/45/21 35/46/21
f 36/47/22 37/32/22 35/48/22
f 38/49/23 39/50/23 37/51/23
f 40/52/24 41/24/24 39/53/24
f 42/4/25 43/5/25 41/6/25
f 43/24/26 46/54/26 45/55/26
f 40/56/27 38/57/27 46/58/27
f 45/59/28 48/46/28 47/60/28
f 48/61/29 33/22/29 47/62/29
f 45/27/30 47/28/30 39/29/30
f 50/6/31 51/63/31 49/64/31
f 52/65/32 53/66/32 51/67/32
f 54/68/33 55/47/33 53/69/33
f 55/70/34 58/71/34 57/72/34
f 57/73/35 60/74/35 59/75/35
f 59/76/36 62/77/36 61/78/36
f 56/79/37 54/80/37 62/81/37
f 61/82/38 64/83/38 63/84/38
f 64/85/39 49/86/39 63/87/39
f 61/27/40 63/28/40 55/29/40
f 74/99/45 84/100/45 81/99/45
f 70/103/45 66/104/45 78/105/45
f 81/114/50 83/115/50 82/116/50
f 74/117/43 82/118/43 73/118/43
f 76/119/47 83/120/47 84/119/47
f 97/27/59 99/28/59 91/29/59
f 101/114/60 103/115/60 102/116/60
f 94/117/53 102/118/53 93/118/53
f 96/119/57 103/120/57 104/119/57
f 93/140/59 103/141/59 95/141/59
f 116/119/65 123/120/65 124/119/65
f 118/105/67 114/99/67 110/103/67
f 122/116/70 124/146/70 123/115/70
f 114/99/67 124/100/67 121/99/67
f 114/117/63 122/118/63 113/118/63
f 131/29/55 135/141/55 139/28/55
f 142/116/52 144/146/52 143/115/52
f 134/117/54 142/118/54 133/118/54
f 135/120/58 144/119/58 136/119/58
f 135/141/55 142/140/55 143/141/55
f 154/117/73 162/118/73 153/118/73
f 157/27/79 159/28/79 151/29/79
f 162/116/80 164/146/80 163/115/80
f 155/120/77 164/119/77 156/119/77
f 153/140/79 163/141/79 155/141/79
f 176/100/49 181/99/49 174/99/49
f 170/103/49 166/104/49 178/105/49
f 181/114/42 183/115/42 182/116/42
f 174/117/44 182/118/44 173/118/44
f 176/119/48 183/120/48 184/119/48
f 194/99/69 204/100/69 201/99/69
f 190/103/69 186/104/69 198/105/69
f 201/114/62 203/115/62 202/116/62
f 193/118/64 201/117/64 202/118/64
f 196/119/68 203/120/68 204/119/68
f 216/119/78 223/120/78 224/119/78
f 211/29/76 215/141/76 219/28/76
f 221/114/72 223/115/72 222/116/72
f 215/141/76 222/140/76 223/141/76
f 213/118/74 221/117/74 222/118/74
f 225/196/81 228/154/81 227/185/81
f 228/197/82 229/198/82 227/199/82
f 229/200/83 232/201/83 231/202/83
f 232/160/84 233/77/84 231/143/84
f 234/10/85 235/11/85 233/12/85
f 235/173/86 238/203/86 237/204/86
f 232/205/87 230/206/87 238/207/87
f 237/36/88 240/208/88 239/209/88
f 240/4/89 225/5/89 239/6/89
f 237/27/90 239/28/90 231/29/90
f 304/321/7 312/119/7 313/321/7
f 300/117/7 310/330/7 311/117/7
f 306/331/7 313/114/7 314/331/7
f 296/332/7 307/114/7 309/332/7
f 302/146/7 311/114/7 312/146/7
f 292/332/7 314/333/7 308/332/7
f 294/334/7 308/335/7 307/334/7
f 298/336/7 309/114/7 310/336/7
f 322/337/99 329/338/99 330/339/99
f 323/358/17 333/359/17 325/360/17
f 319/361/100 328/362/100 320/363/100
f 317/364/101 326/365/101 318/366/101
f 316/367/102 323/368/102 315/369/102
f 322/370/103 324/371/103 316/372/103
f 321/373/104 328/374/104 329/375/104
f 319/376/105 326/377/105 327/378/105
f 315/379/106 325/380/106 317/381/106
f 338/382/107 340/383/107 332/384/107
f 330/385/17 337/386/17 338/387/17
f 328/388/17 335/389/17 336/390/17
f 325/391/17 334/392/17 326/393/17
f 323/394/17 332/395/17 331/396/17
f 324/397/17 338/398/17 332/399/17
f 329/400/17 336/401/17 337/402/17
f 326/403/17 335/404/17 327/405/17
f 341/406/17 350/407/17 342/408/17
f 336/409/108 345/410/108 337/411/108
f 335/412/109 342/413/109 343/414/109
f 331/415/110 341/416/110 333/417/110
f 337/418/111 346/419/111 338/420/111
f 335/418/112 344/419/112 336/420/112
f 334/421/113 341/422/113 342/423/113
f 332/424/114 339/425/114 331/426/114
f 340/428/17 347/429/17 339/430/17
f 346/431/17 348/432/17 340/433/17
f 345/434/17 352/435/17 353/436/17
f 342/437/17 351/438/17 343/439/17
f 339/440/17 349/441/17 341/442/17
f 346/443/17 353/444/17 354/445/17
f 343/446/17 352/447/17 344/448/17
f 358/449/17 357/103/17 361/105/17
f 2/1/1 4/453/1 3/2/1
f 4/4/2 6/131/2 5/5/2
f 6/7/3 8/70/3 7/8/3
f 8/10/4 10/229/4 9/11/4
f 10/13/5 12/454/5 11/14/5
f 12/16/6 14/159/6 13/17/6
f 6/20/7 4/455/7 2/456/7
f 2/456/7 16/457/7 6/20/7
f 16/457/7 14/21/7 6/20/7
f 14/21/7 12/458/7 10/459/7
f 10/459/7 8/19/7 14/21/7
f 14/22/8 16/460/8 15/1/8
f 16/24/9 2/55/9 1/25/9
f 15/28/10 1/461/10 3/462/10
f 3/462/10 5/463/10 15/28/10
f 5/463/10 7/29/10 15/28/10
f 7/29/10 9/140/10 11/141/10
f 11/141/10 13/27/10 7/29/10
f 33/44/21 34/475/21 36/45/21
f 36/47/22 38/15/22 37/32/22
f 38/49/23 40/110/23 39/50/23
f 40/52/24 42/476/24 41/24/24
f 42/4/25 44/131/25 43/5/25
f 43/24/26 44/476/26 46/54/26
f 38/57/27 36/477/27 34/478/27
f 34/478/27 48/479/27 38/57/27
f 48/479/27 46/58/27 38/57/27
f 46/58/27 44/480/27 42/481/27
f 42/481/27 40/56/27 46/58/27
f 45/59/28 46/44/28 48/46/28
f 48/61/29 34/290/29 33/22/29
f 47/28/30 33/461/30 35/462/30
f 35/462/30 37/463/30 47/28/30
f 37/463/30 39/29/30 47/28/30
f 39/29/30 41/140/30 43/141/30
f 43/141/30 45/27/30 39/29/30
f 50/6/31 52/5/31 51/63/31
f 52/65/32 54/482/32 53/66/32
f 54/68/33 56/483/33 55/47/33
f 55/70/34 56/484/34 58/71/34
f 57/73/35 58/162/35 60/74/35
f 59/76/36 60/143/36 62/77/36
f 54/80/37 52/485/37 50/486/37
f 50/486/37 64/487/37 54/80/37
f 64/487/37 62/81/37 54/80/37
f 62/81/37 60/488/37 58/489/37
f 58/489/37 56/79/37 62/81/37
f 61/82/38 62/176/38 64/83/38
f 64/85/39 50/490/39 49/86/39
f 63/28/40 49/461/40 51/462/40
f 51/462/40 53/463/40 63/28/40
f 53/463/40 55/29/40 63/28/40
f 55/29/40 57/140/40 59/141/40
f 59/141/40 61/27/40 55/29/40
f 74/99/45 76/100/45 84/100/45
f 70/103/45 68/492/45 66/104/45
f 66/104/45 80/493/45 78/105/45
f 78/105/45 76/100/45 74/99/45
f 74/99/45 72/449/45 78/105/45
f 72/449/45 70/103/45 78/105/45
f 81/114/50 84/146/50 83/115/50
f 74/117/43 81/117/43 82/118/43
f 76/119/47 75/120/47 83/120/47
f 99/28/59 85/461/59 91/29/59
f 85/461/59 87/462/59 91/29/59
f 87/462/59 89/463/59 91/29/59
f 91/29/59 93/140/59 95/141/59
f 95/141/59 97/27/59 91/29/59
f 101/114/60 104/146/60 103/115/60
f 94/117/53 101/117/53 102/118/53
f 96/119/57 95/120/57 103/120/57
f 93/140/59 102/140/59 103/141/59
f 116/119/65 115/120/65 123/120/65
f 110/103/67 108/492/67 106/104/67
f 106/104/67 120/493/67 110/103/67
f 120/493/67 118/105/67 110/103/67
f 118/105/67 116/100/67 114/99/67
f 114/99/67 112/449/67 110/103/67
f 122/116/70 121/114/70 124/146/70
f 114/99/67 116/100/67 124/100/67
f 114/117/63 121/117/63 122/118/63
f 139/28/55 125/461/55 127/462/55
f 127/462/55 129/463/55 131/29/55
f 131/29/55 133/140/55 135/141/55
f 135/141/55 137/27/55 139/28/55
f 139/28/55 127/462/55 131/29/55
f 142/116/52 141/114/52 144/146/52
f 134/117/54 141/117/54 142/118/54
f 135/120/58 143/120/58 144/119/58
f 135/141/55 133/140/55 142/140/55
f 154/117/73 161/117/73 162/118/73
f 159/28/79 145/461/79 151/29/79
f 145/461/79 147/462/79 151/29/79
f 147/462/79 149/463/79 151/29/79
f 151/29/79 153/140/79 155/141/79
f 155/141/79 157/27/79 151/29/79
f 162/116/80 161/114/80 164/146/80
f 155/120/77 163/120/77 164/119/77
f 153/140/79 162/140/79 163/141/79
f 176/100/49 184/100/49 181/99/49
f 170/103/49 168/492/49 166/104/49
f 166/104/49 180/493/49 178/105/49
f 178/105/49 176/100/49 174/99/49
f 174/99/49 172/449/49 178/105/49
f 172/449/49 170/103/49 178/105/49
f 181/114/42 184/146/42 183/115/42
f 174/117/44 181/117/44 182/118/44
f 176/119/48 175/120/48 183/120/48
f 194/99/69 196/100/69 204/100/69
f 190/103/69 188/492/69 186/104/69
f 186/104/69 200/493/69 198/105/69
f 198/105/69 196/100/69 194/99/69
f 194/99/69 192/449/69 198/105/69
f 192/449/69 190/103/69 198/105/69
f 201/114/62 204/146/62 203/115/62
f 193/118/64 194/117/64 201/117/64
f 196/119/68 195/120/68 203/120/68
f 216/119/78 215/120/78 223/120/78
f 219/28/76 205/461/76 211/29/76
f 205/461/76 207/462/76 211/29/76
f 207/462/76 209/463/76 211/29/76
f 211/29/76 213/140/76 215/141/76
f 215/141/76 217/27/76 219/28/76
f 221/114/72 224/146/72 223/115/72
f 215/141/76 213/140/76 222/140/76
f 213/118/74 214/117/74 221/117/74
f 225/196/81 226/451/81 228/154/81
f 228/197/82 230/48/82 229/198/82
f 229/200/83 230/183/83 232/201/83
f 232/160/84 234/508/84 233/77/84
f 234/10/85 236/229/85 235/11/85
f 235/173/86 236/172/86 238/203/86
f 230/206/123 228/509/123 226/510/123
f 226/510/87 240/511/87 230/206/87
f 240/511/87 238/207/87 230/206/87
f 238/207/87 236/512/87 234/513/87
f 234/513/87 232/205/87 238/207/87
f 237/36/124 238/216/124 240/208/124
f 240/4/89 226/131/89 225/5/89
f 239/28/90 225/461/90 227/462/90
f 227/462/90 229/463/90 239/28/90
f 229/463/90 231/29/90 239/28/90
f 231/29/90 233/140/90 235/141/90
f 235/141/90 237/27/90 231/29/90
f 304/321/7 302/119/7 312/119/7
f 300/117/7 298/330/7 310/330/7
f 306/331/7 304/114/7 313/114/7
f 296/332/7 294/114/7 307/114/7
f 302/146/7 300/114/7 311/114/7
f 292/332/7 306/333/7 314/333/7
f 294/334/7 292/335/7 308/335/7
f 298/336/7 296/114/7 309/114/7
f 322/337/99 321/563/99 329/338/99
f 323/358/17 331/570/17 333/359/17
f 319/361/100 327/571/100 328/362/100
f 317/364/101 325/572/101 326/365/101
f 316/367/102 324/573/102 323/368/102
f 322/370/103 330/574/103 324/371/103
f 321/373/104 320/575/104 328/374/104
f 319/376/105 318/576/105 326/377/105
f 315/379/106 323/577/106 325/380/106
f 338/382/107 346/578/107 340/383/107
f 330/385/17 329/579/17 337/386/17
f 328/388/17 327/580/17 335/389/17
f 325/391/17 333/581/17 334/392/17
f 323/394/17 324/582/17 332/395/17
f 324/397/17 330/583/17 338/398/17
f 329/400/17 328/584/17 336/401/17
f 326/403/17 334/585/17 335/404/17
f 341/406/17 349/586/17 350/407/17
f 336/409/108 344/587/108 345/410/108
f 335/412/109 334/588/109 342/413/109
f 331/415/110 339/589/110 341/416/110
f 337/418/111 345/590/111 346/419/111
f 335/418/112 343/590/112 344/419/112
f 334/421/113 333/591/113 341/422/113
f 332/424/114 340/592/114 339/425/114
f 340/428/17 348/593/17 347/429/17
f 346/431/17 354/594/17 348/432/17
f 345/434/17 344/595/17 352/435/17
f 342/437/17 350/596/17 351/438/17
f 339/440/17 347/597/17 349/441/17
f 346/443/17 345/598/17 353/444/17
f 343/446/17 351/599/17 352/447/17
f 357/103/17 355/492/17 356/104/17
f 356/104/17 362/493/17 357/103/17
f 362/493/17 361/105/17 357/103/17
f 361/105/17 360/100/17 359/99/17
f 359/99/17 358/449/17 361/105/17
usemtl volute
f 67/111/49 71/112/49 75/113/49
f 98/135/55 94/136/55 90/137/55
f 119/145/69 107/111/69 111/112/69
f 134/136/59 132/156/59 130/137/59
f 146/168/76 158/135/76 154/136/76
f 167/111/45 171/112/45 175/113/45
f 199/145/67 187/111/67 191/112/67
f 214/136/79 212/156/79 210/137/79
f 79/145/49 65/494/49 67/111/49
f 67/111/49 69/495/49 71/112/49
f 71/112/49 73/496/49 75/113/49
f 75/113/49 77/497/49 79/145/49
f 79/145/49 67/111/49 75/113/49
f 90/137/55 88/499/55 86/168/55
f 86/168/55 100/500/55 98/135/55
f 98/135/55 96/501/55 94/136/55
f 94/136/55 92/156/55 90/137/55
f 90/137/55 86/168/55 98/135/55
f 119/145/69 105/494/69 107/111/69
f 107/111/69 109/495/69 111/112/69
f 111/112/69 113/496/69 115/113/69
f 115/113/69 117/497/69 111/112/69
f 117/497/69 119/145/69 111/112/69
f 130/137/59 128/499/59 126/168/59
f 126/168/59 140/500/59 130/137/59
f 140/500/59 138/135/59 130/137/59
f 138/135/59 136/501/59 130/137/59
f 136/501/59 134/136/59 130/137/59
f 150/137/76 148/499/76 146/168/76
f 146/168/76 160/500/76 158/135/76
f 158/135/76 156/501/76 154/136/76
f 154/136/76 152/156/76 150/137/76
f 150/137/76 146/168/76 154/136/76
f 179/145/45 165/494/45 167/111/45
f 167/111/45 169/495/45 171/112/45
f 171/112/45 173/496/45 175/113/45
f 175/113/45 177/497/45 179/145/45
f 179/145/45 167/111/45 175/113/45
f 199/145/67 185/494/67 187/111/67
f 187/111/67 189/495/67 191/112/67
f 191/112/67 193/496/67 195/113/67
f 195/113/67 197/497/67 191/112/67
f 197/497/67 199/145/67 191/112/67
f 210/137/79 208/499/79 206/168/79
f 206/168/79 220/500/79 210/137/79
f 220/500/79 218/135/79 210/137/79
f 218/135/79 216/501/79 210/137/79
f 216/501/79 214/136/79 210/137/79
usemtl base
f 18/38/17 30/39/17 26/40/17
f 27/41/20 29/42/20 31/43/20
f 66/88/41 67/89/41 65/90/41
f 68/91/42 69/92/42 67/93/42
f 69/94/43 72/95/43 71/96/43
f 71/97/44 74/98/44 73/30/44
f 76/75/46 77/101/46 75/102/46
f 78/106/47 79/82/47 77/107/47
f 80/108/48 65/109/48 79/110/48
f 73/121/49 83/1/49 75/122/49
f 86/65/51 87/55/51 85/67/51
f 88/123/52 89/124/52 87/125/52
f 90/126/53 91/127/53 89/128/53
f 91/129/54 94/130/54 93/131/54
f 96/132/55 101/133/55 94/7/55
f 96/109/56 97/121/56 95/134/56
f 98/86/57 99/138/57 97/101/57
f 100/139/58 85/30/58 99/97/58
f 105/61/61 108/138/61 107/142/61
f 108/95/62 109/143/62 107/96/62
f 110/6/63 111/51/63 109/64/63
f 112/126/64 113/127/64 111/128/64
f 115/15/66 118/144/66 117/65/66
f 118/107/65 119/133/65 117/88/65
f 119/90/68 106/133/68 105/89/68
f 113/59/69 123/74/69 115/147/69
f 126/148/56 127/149/56 125/150/56
f 128/86/60 129/138/60 127/101/60
f 130/17/54 131/151/54 129/152/54
f 132/52/53 133/32/53 131/53/53
f 136/92/59 141/153/59 134/154/59
f 136/119/51 137/155/51 135/120/51
f 138/114/58 139/157/58 137/158/58
f 140/159/57 125/62/57 139/17/57
f 146/160/71 147/161/71 145/143/71
f 147/162/72 150/11/72 149/85/72
f 150/36/73 151/126/73 149/163/73
f 152/164/74 153/44/74 151/165/74
f 155/48/75 158/166/75 157/167/75
f 158/169/77 159/170/77 157/126/77
f 159/59/78 146/171/78 145/147/78
f 154/161/76 164/65/76 161/54/76
f 165/23/46 168/172/46 167/173/46
f 167/93/50 170/174/50 169/92/50
f 169/106/44 172/175/44 171/176/44
f 172/177/43 173/178/43 171/4/43
f 176/119/41 177/155/41 175/120/41
f 178/114/48 179/157/48 177/158/48
f 179/179/47 166/24/47 165/26/47
f 173/62/45 183/180/45 175/181/45
f 186/182/66 187/159/66 185/149/66
f 187/183/70 190/149/70 189/184/70
f 190/175/64 191/36/64 189/176/64
f 191/185/63 194/78/63 193/186/63
f 196/12/61 197/187/61 195/188/61
f 197/151/68 200/181/68 199/189/68
f 199/107/65 186/176/65 185/82/65
f 193/124/67 203/152/67 195/63/67
f 205/67/75 208/54/75 207/55/75
f 207/47/80 210/190/80 209/166/80
f 209/133/74 212/163/74 211/191/74
f 212/192/73 213/122/73 211/121/73
f 216/13/71 217/65/71 215/15/71
f 218/128/78 219/193/78 217/194/78
f 220/44/77 205/147/77 219/59/77
f 216/195/79 221/147/79 214/75/79
f 254/210/12 252/211/12 251/212/12
f 264/213/16 266/214/16 265/215/16
f 258/176/14 256/216/14 255/36/14
f 259/217/19 261/218/19 260/219/19
f 251/1/91 244/220/91 254/72/91
f 245/221/92 252/222/92 253/182/92
f 248/223/17 250/224/17 242/225/17
f 245/226/20 272/227/20 269/228/20
f 258/22/93 246/91/93 247/96/93
f 244/102/94 256/229/94 257/230/94
f 255/231/17 242/232/17 246/233/17
f 241/234/20 273/235/20 266/236/20
f 262/222/95 248/10/95 245/237/95
f 243/185/96 261/238/96 241/239/96
f 259/240/17 260/241/17 243/242/17
f 265/243/20 273/244/20 274/245/20
f 266/178/97 243/44/97 241/69/97
f 246/63/98 265/246/98 247/90/98
f 263/247/17 264/248/17 246/249/17
f 261/250/20 277/251/20 278/252/20
f 278/253/19 289/254/19 290/255/19
f 270/256/93 287/257/93 275/258/93
f 278/259/96 279/260/96 267/261/96
f 275/262/14 288/263/14 276/264/14
f 244/265/20 276/266/20 268/267/20
f 254/268/20 272/269/20 253/270/20
f 241/271/20 278/272/20 267/273/20
f 244/274/20 271/275/20 254/276/20
f 247/277/20 274/278/20 270/279/20
f 247/280/20 275/281/20 258/282/20
f 258/283/20 276/284/20 257/285/20
f 245/286/20 277/287/20 262/288/20
f 284/289/20 283/210/20 280/290/20
f 280/290/20 287/291/20 282/172/20
f 281/33/20 249/22/20 279/23/20
f 286/292/20 279/23/20 282/172/20
f 273/293/97 279/294/97 285/295/97
f 272/296/12 283/297/12 284/298/12
f 276/299/94 280/300/94 268/301/94
f 268/302/91 283/303/91 271/304/91
f 274/305/98 282/306/98 270/307/98
f 273/308/16 286/309/16 274/310/16
f 269/311/95 289/312/95 277/313/95
f 269/314/92 284/315/92 281/316/92
f 292/317/11 293/318/11 291/2/11
f 293/128/12 296/32/12 295/67/12
f 296/90/13 297/175/13 295/89/13
f 298/176/14 299/13/14 297/36/14
f 299/319/15 302/144/15 301/320/15
f 302/106/16 303/31/16 301/176/16
f 304/125/18 305/322/18 303/124/18
f 306/323/19 291/147/19 305/5/19
f 293/324/20 297/325/20 301/326/20
f 311/327/17 320/328/17 312/329/17
f 309/340/17 318/341/17 310/342/17
f 307/343/17 316/344/17 315/345/17
f 308/346/17 322/347/17 316/348/17
f 313/349/17 320/350/17 321/351/17
f 310/340/17 319/341/17 311/342/17
f 307/352/17 317/353/17 309/354/17
f 314/355/17 321/356/17 322/357/17
f 353/92/115 362/31/115 354/427/115
f 351/78/116 360/144/116 352/450/116
f 350/154/117 357/163/117 358/451/117
f 348/93/118 355/45/118 347/190/118
f 354/124/119 356/215/119 348/149/119
f 352/126/120 361/93/120 353/76/120
f 351/60/121 358/149/121 359/59/121
f 349/142/122 355/90/122 357/452/122
f 22/465/17 20/466/17 18/38/17
f 18/38/17 32/467/17 30/39/17
f 30/39/17 28/468/17 26/40/17
f 26/40/17 24/469/17 22/465/17
f 22/465/17 18/38/17 26/40/17
f 31/43/20 17/470/20 23/471/20
f 17/470/20 19/472/20 23/471/20
f 19/472/20 21/473/20 23/471/20
f 23/471/20 25/474/20 31/43/20
f 25/474/20 27/41/20 31/43/20
f 66/88/41 68/133/41 67/89/41
f 68/91/42 70/174/42 69/92/42
f 69/94/43 70/491/43 72/95/43
f 71/97/44 72/139/44 74/98/44
f 76/75/46 78/86/46 77/101/46
f 78/106/47 80/176/47 79/82/47
f 80/108/48 66/180/48 65/109/48
f 73/121/49 82/70/49 83/1/49
f 86/65/51 88/54/51 87/55/51
f 88/123/52 90/323/52 89/124/52
f 90/126/53 92/170/53 91/127/53
f 91/129/54 92/498/54 94/130/54
f 96/132/55 104/88/55 101/133/55
f 96/109/56 98/192/56 97/121/56
f 98/86/57 100/93/57 99/138/57
f 100/139/58 86/98/58 85/30/58
f 105/61/61 106/101/61 108/138/61
f 108/95/62 110/160/62 109/143/62
f 110/6/63 112/49/63 111/51/63
f 112/126/64 114/170/64 113/127/64
f 115/15/66 116/13/66 118/144/66
f 118/107/65 120/82/65 119/133/65
f 119/90/68 120/88/68 106/133/68
f 113/59/69 122/187/69 123/74/69
f 126/148/56 128/182/56 127/149/56
f 128/86/60 130/93/60 129/138/60
f 130/17/54 132/62/54 131/151/54
f 132/52/53 134/15/53 133/32/53
f 136/92/59 144/24/59 141/153/59
f 136/119/51 138/321/51 137/155/51
f 138/114/58 140/331/58 139/157/58
f 140/159/57 126/61/57 125/62/57
f 146/160/71 148/502/71 147/161/71
f 147/162/72 148/503/72 150/11/72
f 150/36/73 152/169/73 151/126/73
f 152/164/74 154/475/74 153/44/74
f 155/48/75 156/47/75 158/166/75
f 158/169/77 160/319/77 159/170/77
f 159/59/78 160/44/78 146/171/78
f 154/161/76 156/143/76 164/65/76
f 165/23/46 166/22/46 168/172/46
f 167/93/50 168/91/50 170/174/50
f 169/106/44 170/246/44 172/175/44
f 172/177/43 174/504/43 173/178/43
f 176/119/41 178/321/41 177/155/41
f 178/114/48 180/331/48 179/157/48
f 179/179/47 180/167/47 166/24/47
f 173/62/45 182/108/45 183/180/45
f 186/182/66 188/102/66 187/159/66
f 187/183/70 188/150/70 190/149/70
f 190/175/64 192/216/64 191/36/64
f 191/185/63 192/154/63 194/78/63
f 196/12/61 198/505/61 197/187/61
f 197/151/68 198/62/68 200/181/68
f 199/107/65 200/106/65 186/176/65
f 193/124/67 202/506/67 203/152/67
f 205/67/75 206/65/75 208/54/75
f 207/47/80 208/483/80 210/190/80
f 209/133/74 210/82/74 212/163/74
f 212/192/73 214/507/73 213/122/73
f 216/13/71 218/144/71 217/65/71
f 218/128/78 220/127/78 219/193/78
f 220/44/77 206/171/77 205/147/77
f 216/195/79 224/59/79 221/147/79
f 254/210/12 253/289/12 252/211/12
f 264/213/16 263/514/16 266/214/16
f 258/176/14 257/175/14 256/216/14
f 259/217/19 262/515/19 261/218/19
f 251/1/91 242/154/91 244/220/91
f 245/221/92 248/516/92 252/222/92
f 242/225/17 251/517/17 252/518/17
f 252/518/17 248/223/17 242/225/17
f 245/226/20 253/519/20 272/227/20
f 258/22/93 255/181/93 246/91/93
f 244/102/94 242/520/94 256/229/94
f 256/521/17 242/232/17 255/231/17
f 242/232/17 250/522/17 246/233/17
f 241/234/20 267/523/20 273/235/20
f 262/222/95 259/148/95 248/10/95
f 243/185/96 260/524/96 261/238/96
f 250/525/17 248/526/17 243/242/17
f 248/526/17 259/240/17 243/242/17
f 265/243/20 266/527/20 273/244/20
f 266/178/97 263/129/97 243/44/97
f 246/63/98 264/528/98 265/246/98
f 246/249/17 250/529/17 243/530/17
f 243/530/17 263/247/17 246/249/17
f 261/250/20 262/531/20 277/251/20
f 278/253/19 277/532/19 289/254/19
f 270/256/93 282/533/93 287/257/93
f 278/259/96 290/534/96 279/260/96
f 275/262/14 287/535/14 288/263/14
f 244/265/20 257/536/20 276/266/20
f 254/268/20 271/537/20 272/269/20
f 241/271/20 261/538/20 278/272/20
f 244/274/20 268/539/20 271/275/20
f 247/277/20 265/540/20 274/278/20
f 247/280/20 270/541/20 275/281/20
f 258/283/20 275/542/20 276/284/20
f 245/286/20 269/543/20 277/287/20
f 249/22/20 281/33/20 280/290/20
f 281/33/20 284/289/20 280/290/20
f 282/172/20 249/22/20 280/290/20
f 280/290/20 288/544/20 287/291/20
f 279/23/20 290/545/20 289/546/20
f 289/546/20 281/33/20 279/23/20
f 285/547/20 279/23/20 286/292/20
f 279/23/20 249/22/20 282/172/20
f 273/293/97 267/548/97 279/294/97
f 272/296/12 271/549/12 283/297/12
f 276/299/94 288/550/94 280/300/94
f 268/302/91 280/551/91 283/303/91
f 274/305/98 286/552/98 282/306/98
f 273/308/16 285/553/16 286/309/16
f 269/311/95 281/554/95 289/312/95
f 269/314/92 272/555/92 284/315/92
f 292/317/11 294/239/11 293/318/11
f 293/128/12 294/191/12 296/32/12
f 296/90/13 298/246/13 297/175/13
f 298/176/14 300/31/14 299/13/14
f 299/319/15 300/169/15 302/144/15
f 302/106/16 304/45/16 303/31/16
f 304/125/18 306/556/18 305/322/18
f 306/323/19 292/59/19 291/147/19
f 305/557/20 291/558/20 293/324/20
f 293/324/20 295/559/20 297/325/20
f 297/325/20 299/560/20 301/326/20
f 301/326/20 303/561/20 305/557/20
f 305/557/20 293/324/20 301/326/20
f 311/327/17 319/562/17 320/328/17
f 309/340/17 317/564/17 318/341/17
f 307/343/17 308/565/17 316/344/17
f 308/346/17 314/566/17 322/347/17
f 313/349/17 312/567/17 320/350/17
f 310/340/17 318/564/17 319/341/17
f 307/352/17 315/568/17 317/353/17
f 314/355/17 313/569/17 321/356/17
f 353/92/115 361/98/115 362/31/115
f 351/78/116 359/76/116 360/144/116
f 350/154/117 349/600/117 357/163/117
f 348/93/118 356/139/118 355/45/118
f 354/124/119 362/601/119 356/215/119
f 352/126/120 360/180/120 361/93/120
f 351/60/121 350/452/121 358/149/121
f 349/142/122 347/134/122 355/90/122
usemtl ionic
f 18/13/11 19/30/11 17/31/11
f 20/32/12 21/33/12 19/34/12
f 22/13/13 23/30/13 21/35/13
f 24/32/14 25/33/14 23/34/14
f 26/36/15 27/9/15 25/37/15
f 27/34/16 30/22/16 29/33/16
f 29/34/18 32/22/18 31/33/18
f 32/32/19 17/33/19 31/34/19
f 18/13/11 20/196/11 19/30/11
f 20/32/12 22/22/12 21/33/12
f 22/13/13 24/196/13 23/30/13
f 24/32/14 26/22/14 25/33/14
f 26/36/15 28/464/15 27/9/15
f 27/34/16 28/32/16 30/22/16
f 29/34/18 30/32/18 32/22/18
f 32/32/19 18/22/19 17/33/19
