# Blender 5.1.0
# www.blender.org
mtllib small_scamozzi_ionic_capital.mtl
o ionic_capital_small
v 0.106250 0.693563 0.893748
v 0.106250 0.682147 0.893748
v 0.106250 0.693563 0.706248
v 0.106250 0.682147 0.706248
v 0.293750 0.693563 0.893748
v 0.293750 0.682147 0.893748
v 0.293750 0.693563 0.706248
v 0.293750 0.682147 0.706248
v 0.048739 0.882492 1.056705
v -0.004091 0.882492 0.943418
v -0.001469 0.748750 1.080118
v -0.054298 0.748750 0.966831
v 0.048739 0.615007 1.056705
v -0.004091 0.615007 0.943418
v 0.169950 0.559609 1.000180
v 0.117120 0.559609 0.886893
v 0.291161 0.615007 0.943656
v 0.238331 0.615007 0.830368
v 0.341368 0.748750 0.920243
v 0.288538 0.748750 0.806955
v 0.291161 0.882492 0.943656
v 0.238331 0.882492 0.830368
v 0.169950 0.937890 1.000180
v 0.117120 0.937890 0.886893
v 0.058806 0.882492 1.006311
v -0.054483 0.882492 0.953486
v 0.035395 0.748750 1.056519
v -0.077894 0.748750 1.003695
v 0.058807 0.615007 1.006311
v -0.054483 0.615007 0.953486
v 0.115326 0.559609 0.885098
v 0.002036 0.559609 0.832273
v 0.171845 0.615007 0.763884
v 0.058555 0.615007 0.711060
v 0.195256 0.748750 0.713676
v 0.081966 0.748750 0.660851
v 0.171845 0.882492 0.763884
v 0.058555 0.882492 0.711060
v 0.115326 0.937890 0.885098
v 0.002036 0.937890 0.832273
v -0.056705 0.882492 0.048737
v 0.056583 0.882492 -0.004092
v -0.080118 0.748750 -0.001470
v 0.033170 0.748750 -0.054299
v -0.056705 0.615007 0.048737
v 0.056583 0.615007 -0.004092
v -0.000180 0.559609 0.169948
v 0.113107 0.559609 0.117119
v 0.056344 0.615007 0.291160
v 0.169632 0.615007 0.238330
v 0.079757 0.748750 0.341367
v 0.193045 0.748750 0.288538
v 0.056344 0.882492 0.291160
v 0.169632 0.882492 0.238330
v -0.000180 0.937890 0.169948
v 0.113107 0.937890 0.117119
v 0.893749 0.693563 0.106252
v 0.893749 0.682147 0.106252
v 0.893749 0.693563 0.293752
v 0.893749 0.682147 0.293752
v 0.706249 0.693563 0.106252
v 0.706249 0.682147 0.106252
v 0.706249 0.693563 0.293752
v 0.706249 0.682147 0.293752
v 0.941196 0.882492 -0.006308
v 1.054485 0.882492 0.046517
v 0.964607 0.748750 -0.056516
v 1.077897 0.748750 -0.003691
v 0.941196 0.615007 -0.006308
v 1.054485 0.615007 0.046517
v 0.884676 0.559609 0.114905
v 0.997965 0.559609 0.167730
v 0.828156 0.615007 0.236118
v 0.941445 0.615007 0.288943
v 0.804744 0.748750 0.286326
v 0.918034 0.748750 0.339151
v 0.828156 0.882492 0.236118
v 0.941445 0.882492 0.288943
v 0.884676 0.937890 0.114905
v 0.997965 0.937890 0.167730
v 0.323957 0.658750 0.074997
v 0.323957 0.758750 0.074997
v 0.676041 0.658750 0.074997
v 0.676041 0.758750 0.074997
v 0.925002 0.658750 0.323958
v 0.925002 0.758750 0.323958
v 0.925002 0.658750 0.676042
v 0.925002 0.758750 0.676042
v 0.676041 0.658750 0.925003
v 0.676041 0.758750 0.925003
v 0.323957 0.658750 0.925003
v 0.323957 0.758750 0.925003
v 0.074996 0.658750 0.676042
v 0.074996 0.758750 0.676042
v 0.074996 0.658750 0.323958
v 0.074996 0.758750 0.323958
v -0.006312 0.882492 0.058804
v 0.046513 0.882492 -0.054485
v -0.056520 0.748750 0.035393
v -0.003695 0.748750 -0.077897
v -0.006312 0.615007 0.058804
v 0.046513 0.615007 -0.054485
v 0.114902 0.559609 0.115324
v 0.167726 0.559609 0.002034
v 0.236115 0.615007 0.171843
v 0.288940 0.615007 0.058554
v 0.286323 0.748750 0.195254
v 0.339148 0.748750 0.081965
v 0.236115 0.882492 0.171843
v 0.288940 0.882492 0.058554
v 0.114902 0.937890 0.115324
v 0.167726 0.937890 0.002034
v 0.951264 0.882492 -0.056702
v 1.004093 0.882492 0.056586
v 1.001471 0.748750 -0.080115
v 1.054300 0.748750 0.033173
v 0.951264 0.615007 -0.056702
v 1.004093 0.615007 0.056586
v 0.830052 0.559609 -0.000178
v 0.882881 0.559609 0.113109
v 0.708841 0.615007 0.056345
v 0.761670 0.615007 0.169633
v 0.658634 0.748750 0.079758
v 0.711463 0.748750 0.193046
v 0.708841 0.882492 0.056345
v 0.761670 0.882492 0.169633
v 0.830052 0.937890 -0.000178
v 0.882881 0.937890 0.113109
v 0.106251 0.693563 0.106250
v 0.106251 0.682147 0.106250
v 0.293751 0.693563 0.106250
v 0.293751 0.682147 0.106250
v 0.106251 0.693563 0.293750
v 0.106251 0.682147 0.293750
v 0.293751 0.693563 0.293750
v 0.293751 0.682147 0.293750
v 1.056707 0.882492 0.951259
v 0.943419 0.882492 1.004089
v 1.080120 0.748750 1.001466
v 0.966833 0.748750 1.054296
v 1.056707 0.615007 0.951259
v 0.943419 0.615007 1.004089
v 1.000181 0.559609 0.830048
v 0.886894 0.559609 0.882878
v 0.943656 0.615007 0.708838
v 0.830369 0.615007 0.761668
v 0.920243 0.748750 0.658630
v 0.806956 0.748750 0.711461
v 0.943656 0.882492 0.708838
v 0.830369 0.882492 0.761668
v 1.000181 0.937890 0.830048
v 0.886894 0.937890 0.882878
v 0.149841 0.755000 0.500000
v 0.850157 0.942500 0.500000
v 0.149841 0.942500 0.500000
v 0.850157 0.755000 0.500000
v 0.499999 0.755000 0.149842
v 0.499999 0.942500 0.850158
v 0.499999 0.755000 0.850158
v 0.499999 0.942500 0.149842
v 0.499999 0.755000 0.500000
v 0.499999 0.942500 0.500000
v 0.976824 0.942500 0.081169
v 0.918831 0.942500 0.023175
v 0.918831 0.755000 0.023175
v 0.976824 0.755000 0.081169
v 0.918830 0.942500 0.976825
v 0.976824 0.942500 0.918831
v 0.976824 0.755000 0.918831
v 0.918830 0.755000 0.976825
v 0.081168 0.942500 0.023175
v 0.023174 0.942500 0.081169
v 0.023174 0.755000 0.081169
v 0.081168 0.755000 0.023175
v 0.023174 0.942500 0.918831
v 0.081168 0.942500 0.976825
v 0.081168 0.755000 0.976825
v 0.023174 0.755000 0.918831
v 1.006313 0.882492 0.941193
v 0.953489 0.882492 1.054482
v 1.056522 0.748750 0.964603
v 1.003698 0.748750 1.077893
v 1.006313 0.615007 0.941193
v 0.953489 0.615007 1.054482
v 0.885100 0.559609 0.884674
v 0.832276 0.559609 0.997964
v 0.763886 0.615007 0.828155
v 0.711062 0.615007 0.941445
v 0.713678 0.748750 0.804744
v 0.660854 0.748750 0.918034
v 0.763886 0.882492 0.828155
v 0.711062 0.882492 0.941445
v 0.885100 0.937890 0.884674
v 0.832276 0.937890 0.997964
v 0.893748 0.693563 0.893750
v 0.893748 0.682147 0.893750
v 0.706248 0.693563 0.893750
v 0.706248 0.682147 0.893750
v 0.893748 0.693563 0.706250
v 0.893748 0.682147 0.706250
v 0.706248 0.693563 0.706250
v 0.706248 0.682147 0.706250
v 0.123980 0.937500 0.500000
v 0.876019 1.000000 0.500000
v 0.123980 1.000000 0.500000
v 0.876019 0.937500 0.500000
v 0.499999 0.937500 0.123980
v 0.499999 1.000000 0.876019
v 0.499999 0.937500 0.876019
v 0.499999 1.000000 0.123980
v 0.499999 0.937500 0.500000
v 0.499999 1.000000 0.500000
v 0.987056 1.000000 0.052199
v 0.947800 1.000000 0.012943
v 0.947800 0.937500 0.012943
v 0.987056 0.937500 0.052199
v 0.947800 1.000000 0.987057
v 0.987056 1.000000 0.947801
v 0.987056 0.937500 0.947801
v 0.947800 0.937500 0.987057
v 0.052198 1.000000 0.012943
v 0.012942 1.000000 0.052199
v 0.012942 0.937500 0.052199
v 0.052198 0.937500 0.012943
v 0.012942 1.000000 0.947801
v 0.052198 1.000000 0.987057
v 0.052198 0.937500 0.987057
v 0.012942 0.937500 0.947801
vn -0.0000 1.0000 -0.0000
vn -0.0000 -0.0000 -1.0000
vn 1.0000 -0.0000 -0.0000
vn -0.0000 -1.0000 -0.0000
vn -1.0000 -0.0000 -0.0000
vn -0.0000 -0.0000 1.0000
vn -0.8373 0.3827 0.3905
vn -0.8373 -0.3827 0.3905
vn -0.3468 -0.9239 0.1617
vn 0.3468 -0.9239 -0.1617
vn 0.8373 -0.3827 -0.3905
vn 0.8373 0.3827 -0.3905
vn -0.4226 -0.0000 -0.9063
vn 0.3468 0.9239 -0.1617
vn -0.3468 0.9239 0.1617
vn 0.4226 -0.0000 0.9063
vn -0.3904 0.3827 0.8373
vn -0.3904 -0.3827 0.8373
vn -0.1617 -0.9239 0.3468
vn 0.1617 -0.9239 -0.3468
vn 0.3904 -0.3827 -0.8373
vn 0.3904 0.3827 -0.8373
vn -0.9063 -0.0000 -0.4226
vn 0.1617 0.9239 -0.3468
vn -0.1617 0.9239 0.3468
vn 0.9063 -0.0000 0.4226
vn -0.3905 0.3827 -0.8373
vn -0.3905 -0.3827 -0.8373
vn -0.1617 -0.9239 -0.3468
vn 0.1617 -0.9239 0.3468
vn 0.3905 -0.3827 0.8373
vn 0.3905 0.3827 0.8373
vn 0.9063 -0.0000 -0.4226
vn 0.1617 0.9239 0.3468
vn -0.1617 0.9239 -0.3468
vn -0.9063 -0.0000 0.4226
vn 0.7071 -0.0000 -0.7071
vn 0.7071 -0.0000 0.7071
vn -0.7071 -0.0000 0.7071
vn -0.7071 -0.0000 -0.7071
vn -0.8373 0.3827 -0.3904
vn -0.8373 -0.3827 -0.3904
vn -0.3468 -0.9239 -0.1617
vn 0.3468 -0.9239 0.1617
vn 0.8373 -0.3827 0.3904
vn 0.8373 0.3827 0.3904
vn 0.4226 -0.0000 -0.9063
vn 0.3468 0.9239 0.1617
vn -0.3468 0.9239 -0.1617
vn -0.4226 -0.0000 0.9063
vn 0.9572 -0.0000 0.2895
vn -0.2895 -0.0000 -0.9572
vn -0.2895 -0.0000 0.9572
vn 0.9572 -0.0000 -0.2895
vn 0.2895 -0.0000 -0.9572
vn -0.9572 -0.0000 0.2895
vn -0.9572 -0.0000 -0.2895
vn 0.2895 -0.0000 0.9572
vn 0.9706 -0.0000 0.2407
vn -0.2407 -0.0000 -0.9706
vn -0.2407 -0.0000 0.9706
vn 0.9706 -0.0000 -0.2407
vn 0.2407 -0.0000 -0.9706
vn -0.9706 -0.0000 0.2407
vn -0.9706 -0.0000 -0.2407
vn 0.2407 -0.0000 0.9706
vt 0.625000 0.500000
vt 0.875000 0.750000
vt 0.625000 0.750000
vt 0.375000 1.000000
vt 0.375000 0.750000
vt 0.625000 0.000000
vt 0.375000 0.250000
vt 0.375000 0.000000
vt 0.375000 0.500000
vt 0.125000 0.750000
vt 0.125000 0.500000
vt 0.625000 0.250000
vt 0.125000 0.875000
vt 0.312500 0.625000
vt 0.312500 0.875000
vt 0.562500 0.500000
vt 0.562500 0.750000
vt 0.125000 0.625000
vt 0.125000 0.375000
vt 0.312500 0.125000
vt 0.312500 0.375000
vt 0.625000 0.375000
vt 0.812500 0.125000
vt 0.812500 0.375000
vt 0.414228 0.999936
vt 0.000064 0.000064
vt 0.414228 0.000064
vt 0.689033 0.421700
vt 0.689033 0.578300
vt 0.310967 0.421700
vt 0.414228 0.999936
vt 0.000064 0.000064
vt 0.414228 0.000064
vt 0.279659 0.542969
vt 0.343051 0.389926
vt 0.496094 0.326533
vt 0.812500 0.250000
vt 0.812500 0.500000
vt 0.312500 0.500000
vt 0.125000 0.250000
vt 0.312500 0.250000
vt 0.750000 1.000000
vt 0.937500 0.750000
vt 0.937500 1.000000
vt 0.750000 0.375000
vt 0.937500 0.125000
vt 0.937500 0.375000
vt 0.187500 0.500000
vt 0.000000 0.250000
vt 0.187500 0.250000
vt 0.625000 0.875000
vt 0.812500 0.625000
vt 0.812500 0.875000
vt 0.496094 0.759404
vt 0.649137 0.696011
vt 0.343051 0.389926
vt 0.937500 0.625000
vt 0.421700 0.689033
vt 0.000000 0.375000
vt 0.187500 0.125000
vt 0.187500 0.375000
vt 0.812500 0.000000
vt 0.812500 0.750000
vt 0.500000 0.500000
vt 0.687500 0.250000
vt 0.687500 0.500000
vt 0.750000 0.500000
vt 0.937500 0.250000
vt 0.937500 0.500000
vt 0.500000 0.375000
vt 0.687500 0.125000
vt 0.687500 0.375000
vt 0.875000 0.500000
vt 0.437500 0.875000
vt 0.250000 0.625000
vt 0.437500 0.625000
vt 0.312500 0.000000
vt 0.187500 0.625000
vt 0.414228 0.000064
vt 0.000064 0.999936
vt 0.000064 0.000064
vt 0.125000 1.000000
vt 0.312500 0.750000
vt 0.312500 1.000000
vt 0.578300 0.310967
vt 0.000000 0.500000
vt 0.437500 0.500000
vt 0.000064 0.000064
vt 0.414228 0.000064
vt 0.414228 0.999936
vt 0.000064 0.000064
vt 0.414228 0.000064
vt 0.687500 0.625000
vt 0.250000 0.500000
vt 0.292935 0.999900
vt 0.000100 0.292935
vt 0.707065 0.000100
vt 0.414228 0.999936
vt 0.000064 0.000064
vt 0.292935 0.000100
vt 0.707065 0.000100
vt 0.292935 0.999900
vt 0.250000 1.000000
vt 0.437500 0.750000
vt 0.437500 1.000000
vt 0.000000 0.875000
vt 0.187500 0.875000
vt 0.000000 0.125000
vt 0.750000 0.125000
vt 0.500000 0.250000
vt 0.687500 0.000000
vt 0.937500 0.875000
vt 0.750000 0.625000
vt 0.437500 0.250000
vt 0.496094 0.759404
vt 0.000000 0.812500
vt 0.125000 0.937500
vt 0.000000 0.937500
vt 0.750000 0.812500
vt 0.875000 0.937500
vt 0.750000 0.937500
vt 0.375000 0.812500
vt 0.500000 0.937500
vt 0.375000 0.937500
vt 0.875000 0.812500
vt 1.000000 0.937500
vt 1.000000 1.000000
vt 0.375000 0.750000
vt 1.000000 0.750000
vt 0.625000 1.000000
vt -0.000000 0.750000
vt 0.625000 0.750000
vt 0.625000 0.625000
vt 0.368099 0.486198
vt 0.375000 0.520703
vt 0.375000 0.625000
vt 0.631901 0.763802
vt 0.750000 0.750000
vt 0.368099 0.763802
vt 0.250000 0.750000
vt 0.854297 0.500000
vt 0.875000 0.520703
vt 0.875000 0.625000
vt 0.854297 0.750000
vt 0.145703 0.750000
vt 0.125000 0.729297
vt 0.375000 0.375000
vt 0.562500 0.125000
vt 0.562500 0.375000
vt 0.437500 0.437500
vt 0.500000 0.437500
vt 1.000000 0.062500
vt 0.500000 0.125000
vt 1.000000 0.125000
vt 0.500000 0.062500
vt 0.370650 0.491300
vt 0.375000 0.513050
vt 0.000000 0.062500
vt 0.370650 0.758700
vt 0.500000 0.875000
vt 0.138050 0.750000
vt 0.125000 0.125000
vt 0.625000 0.125000
vt 0.000065 0.999936
vt 0.578300 0.689033
vt 0.310967 0.578300
vt 0.421700 0.310967
vt 0.000064 0.999936
vt 0.649137 0.389926
vt 0.712529 0.542969
vt 0.343051 0.696011
vt 0.712529 0.542969
vt 0.649137 0.389926
vt 0.496094 0.326534
vt 0.279659 0.542969
vt 0.343051 0.696011
vt 0.750000 0.250000
vt 0.250000 0.875000
vt 0.125000 0.000000
vt 0.000000 0.625000
vt 0.000064 0.999936
vt 0.000064 0.999936
vt 0.999900 0.292934
vt 0.999900 0.707065
vt 0.707065 0.999900
vt 0.000100 0.707065
vt 0.292935 0.000100
vt 0.500000 0.625000
vt 0.999900 0.292935
vt 0.999900 0.707065
vt 0.707065 0.999900
vt 0.000100 0.707065
vt 0.000100 0.292935
vt 0.500000 0.000000
vt 0.750000 0.875000
vt 0.250000 0.250000
vt 0.125000 0.812500
vt 0.500000 0.812500
vt 1.000000 0.812500
vt 0.000000 1.000000
vt 0.625000 0.520703
vt 0.631901 0.486198
vt 0.625000 0.729297
vt 0.375000 0.729297
vt 0.125000 0.520703
vt 0.145703 0.500000
vt 0.875000 0.729297
vt 0.375000 0.125000
vt 0.437500 0.375000
vt 0.937500 0.000000
vt 0.062500 0.000000
vt 0.375000 0.736950
vt 0.125000 0.513050
vt 0.138050 0.500000
vt 0.062500 1.000000
vt 0.125000 0.736950
s 0
usemtl ionic_volute
f 19/34/16 21/35/16 23/36/16
f 32/54/23 30/55/23 38/56/23
f 51/34/36 53/35/36 55/36/36
f 72/54/26 70/55/26 78/56/26
f 104/54/47 102/55/47 110/56/47
f 123/34/13 125/35/13 127/36/13
f 143/115/33 147/34/33 151/36/33
f 186/54/50 184/55/50 192/56/50
f 23/36/16 9/169/16 11/170/16
f 11/170/16 13/55/16 23/36/16
f 13/55/16 15/115/16 23/36/16
f 15/115/16 17/171/16 23/36/16
f 17/171/16 19/34/16 23/36/16
f 30/55/23 28/172/23 26/173/23
f 26/173/23 40/174/23 30/55/23
f 40/174/23 38/56/23 30/55/23
f 38/56/23 36/175/23 34/176/23
f 34/176/23 32/54/23 38/56/23
f 55/36/36 41/169/36 43/170/36
f 43/170/36 45/55/36 55/36/36
f 45/55/36 47/115/36 55/36/36
f 47/115/36 49/171/36 55/36/36
f 49/171/36 51/34/36 55/36/36
f 70/55/26 68/172/26 66/173/26
f 66/173/26 80/174/26 70/55/26
f 80/174/26 78/56/26 70/55/26
f 78/56/26 76/175/26 74/176/26
f 74/176/26 72/54/26 78/56/26
f 102/55/47 100/172/47 98/173/47
f 98/173/47 112/174/47 102/55/47
f 112/174/47 110/56/47 102/55/47
f 110/56/47 108/175/47 106/176/47
f 106/176/47 104/54/47 110/56/47
f 127/36/13 113/169/13 115/170/13
f 115/170/13 117/55/13 127/36/13
f 117/55/13 119/115/13 127/36/13
f 119/115/13 121/171/13 127/36/13
f 121/171/13 123/34/13 127/36/13
f 151/36/33 137/169/33 139/170/33
f 139/170/33 141/55/33 151/36/33
f 141/55/33 143/115/33 151/36/33
f 143/115/33 145/171/33 147/34/33
f 147/34/33 149/35/33 151/36/33
f 184/55/50 182/172/50 180/173/50
f 180/173/50 194/174/50 184/55/50
f 194/174/50 192/56/50 184/55/50
f 192/56/50 190/175/50 188/176/50
f 188/176/50 186/54/50 192/56/50
usemtl ionic_egg
f 82/76/2 83/86/2 81/87/2
f 84/31/37 85/88/37 83/89/37
f 86/76/3 87/86/3 85/87/3
f 88/90/38 89/91/38 87/92/38
f 90/93/6 91/94/6 89/66/6
f 92/25/39 93/26/39 91/27/39
f 94/95/1 90/96/1 86/97/1
f 94/57/5 95/64/5 93/69/5
f 96/98/40 81/99/40 95/89/40
f 166/116/37 164/117/37 163/118/37
f 176/119/39 178/120/39 177/121/39
f 170/122/38 168/123/38 167/124/38
f 174/125/40 172/126/40 171/120/40
f 163/127/51 156/128/51 166/129/51
f 160/130/52 165/131/52 157/132/52
f 160/67/1 162/113/1 154/133/1
f 165/134/4 166/135/4 156/136/4
f 167/127/53 159/128/53 170/129/53
f 154/130/54 169/131/54 156/132/54
f 167/137/1 154/133/1 158/138/1
f 156/136/4 170/139/4 159/140/4
f 171/127/55 157/128/55 174/129/55
f 155/130/56 173/131/56 153/132/56
f 171/141/1 172/142/1 155/143/1
f 157/94/4 161/75/4 153/18/4
f 175/127/57 153/128/57 178/129/57
f 158/130/58 177/131/58 159/132/58
f 155/143/1 176/144/1 158/138/1
f 159/140/4 177/145/4 178/146/4
f 213/152/59 206/153/59 216/154/59
f 210/155/60 215/108/60 207/153/60
f 215/156/4 216/157/4 206/136/4
f 217/152/61 209/153/61 220/154/61
f 204/155/62 219/108/62 206/153/62
f 206/136/4 220/159/4 209/140/4
f 221/152/63 207/153/63 224/154/63
f 205/155/64 223/108/64 203/153/64
f 207/94/4 211/75/4 203/18/4
f 225/152/65 203/153/65 228/154/65
f 208/155/66 227/108/66 209/153/66
f 227/161/4 203/18/4 209/140/4
f 82/76/2 84/180/2 83/86/2
f 84/31/37 86/181/37 85/88/37
f 86/76/3 88/180/3 87/86/3
f 88/90/38 90/182/38 89/91/38
f 90/93/6 92/75/6 91/94/6
f 92/25/39 94/164/39 93/26/39
f 86/97/1 84/183/1 82/184/1
f 82/184/1 96/185/1 94/95/1
f 94/95/1 92/186/1 90/96/1
f 90/96/1 88/187/1 86/97/1
f 86/97/1 82/184/1 94/95/1
f 94/57/5 96/188/5 95/64/5
f 96/98/40 82/181/40 81/99/40
f 166/116/37 165/197/37 164/117/37
f 176/119/39 175/125/39 178/120/39
f 170/122/38 169/198/38 168/123/38
f 174/125/40 173/199/40 172/126/40
f 163/127/51 154/4/51 156/128/51
f 160/130/52 164/200/52 165/131/52
f 154/133/1 163/201/1 164/202/1
f 164/202/1 160/67/1 154/133/1
f 161/75/4 157/94/4 156/136/4
f 157/94/4 165/134/4 156/136/4
f 167/127/53 158/4/53 159/128/53
f 154/130/54 168/200/54 169/131/54
f 168/203/1 154/133/1 167/137/1
f 154/133/1 162/113/1 158/138/1
f 159/140/4 161/75/4 156/136/4
f 156/136/4 169/204/4 170/139/4
f 171/127/55 160/4/55 157/128/55
f 155/130/56 172/200/56 173/131/56
f 162/113/1 160/67/1 155/143/1
f 160/67/1 171/141/1 155/143/1
f 153/18/4 173/205/4 174/206/4
f 174/206/4 157/94/4 153/18/4
f 175/127/57 155/4/57 153/128/57
f 158/130/58 176/200/58 177/131/58
f 158/138/1 162/113/1 155/143/1
f 155/143/1 175/207/1 176/144/1
f 178/146/4 153/18/4 159/140/4
f 153/18/4 161/75/4 159/140/4
f 213/152/59 204/155/59 206/153/59
f 210/155/60 214/158/60 215/108/60
f 211/75/4 207/94/4 206/136/4
f 207/94/4 215/156/4 206/136/4
f 217/152/61 208/155/61 209/153/61
f 204/155/62 218/158/62 219/108/62
f 209/140/4 211/75/4 206/136/4
f 206/136/4 219/212/4 220/159/4
f 221/152/63 210/155/63 207/153/63
f 205/155/64 222/158/64 223/108/64
f 203/18/4 223/213/4 224/214/4
f 224/214/4 207/94/4 203/18/4
f 225/152/65 205/155/65 203/153/65
f 208/155/66 226/158/66 227/108/66
f 228/216/4 203/18/4 227/161/4
f 203/18/4 211/75/4 209/140/4
usemtl ionic_capital
f 1/1/1 7/2/1 3/3/1
f 3/3/2 8/4/2 4/5/2
f 7/6/3 6/7/3 8/8/3
f 2/9/4 8/10/4 6/11/4
f 1/1/5 4/5/5 2/9/5
f 5/12/6 2/9/6 6/7/6
f 10/13/7 11/14/7 9/15/7
f 12/5/8 13/16/8 11/17/8
f 13/15/9 16/18/9 15/14/9
f 16/19/10 17/20/10 15/21/10
f 18/22/11 19/23/11 17/24/11
f 20/25/12 21/26/12 19/27/12
f 16/28/13 14/29/13 22/30/13
f 22/31/14 23/32/14 21/33/14
f 24/5/15 9/16/15 23/17/15
f 26/1/17 27/37/17 25/38/17
f 27/39/18 30/40/18 29/41/18
f 30/42/19 31/43/19 29/44/19
f 32/45/20 33/46/20 31/47/20
f 33/48/21 36/49/21 35/50/21
f 36/51/22 37/52/22 35/53/22
f 37/39/24 40/40/24 39/41/24
f 39/57/25 26/45/25 25/47/25
f 39/29/26 27/58/26 31/30/26
f 42/59/27 43/60/27 41/61/27
f 44/12/28 45/62/28 43/37/28
f 46/3/29 47/38/29 45/63/29
f 48/51/30 49/52/30 47/53/30
f 50/64/31 51/65/31 49/66/31
f 52/1/32 53/37/32 51/38/32
f 48/28/33 46/29/33 54/30/33
f 54/67/34 55/68/34 53/69/34
f 56/70/35 41/71/35 55/72/35
f 61/73/1 59/3/1 57/1/1
f 59/3/6 64/4/6 60/5/6
f 63/6/5 62/7/5 64/8/5
f 58/9/4 64/10/4 62/11/4
f 57/1/3 60/5/3 58/9/3
f 61/12/2 58/9/2 62/7/2
f 65/74/22 68/75/22 67/76/22
f 68/5/21 69/16/21 67/17/21
f 70/40/20 71/77/20 69/41/20
f 71/78/19 74/59/19 73/61/19
f 73/79/18 76/80/18 75/81/18
f 76/25/17 77/26/17 75/27/17
f 78/82/25 79/83/25 77/84/25
f 80/18/24 65/21/24 79/14/24
f 71/30/23 75/85/23 79/29/23
f 93/100/4 95/101/4 87/102/4
f 97/43/41 100/67/41 99/69/41
f 100/103/42 101/104/42 99/105/42
f 102/106/43 103/78/43 101/107/43
f 103/61/44 106/108/44 105/60/44
f 106/5/45 107/16/45 105/17/45
f 108/25/46 109/26/46 107/27/46
f 110/13/48 111/14/48 109/15/48
f 112/5/49 97/16/49 111/17/49
f 109/28/50 111/29/50 103/30/50
f 114/64/12 115/65/12 113/66/12
f 116/1/11 117/37/11 115/38/11
f 117/47/10 120/109/10 119/46/10
f 120/67/9 121/68/9 119/69/9
f 122/31/8 123/81/8 121/79/8
f 124/25/7 125/26/7 123/27/7
f 120/28/16 118/29/16 126/30/16
f 126/64/15 127/65/15 125/66/15
f 127/43/14 114/67/14 113/69/14
f 133/73/1 131/3/1 129/1/1
f 131/3/3 136/4/3 132/5/3
f 135/6/6 134/7/6 136/8/6
f 134/11/4 132/5/4 136/10/4
f 129/1/2 132/5/2 130/9/2
f 133/12/5 130/9/5 134/7/5
f 138/67/32 139/68/32 137/69/32
f 140/110/31 141/111/31 139/65/31
f 141/112/30 144/113/30 143/57/30
f 144/94/29 145/114/29 143/87/29
f 146/13/28 147/14/28 145/15/28
f 148/5/27 149/16/27 147/17/27
f 144/28/36 142/29/36 150/30/36
f 149/17/35 152/9/35 151/16/35
f 152/11/34 137/41/34 151/39/34
f 180/13/46 181/14/46 179/15/46
f 182/147/45 183/148/45 181/149/45
f 184/18/44 185/21/44 183/14/44
f 186/22/43 187/23/43 185/24/43
f 188/22/42 189/23/42 187/24/42
f 190/5/41 191/16/41 189/17/41
f 192/5/49 193/16/49 191/17/49
f 193/17/48 180/9/48 179/16/48
f 193/29/47 181/58/47 185/30/47
f 199/73/1 197/3/1 195/1/1
f 197/3/5 202/4/5 198/5/5
f 201/6/2 200/7/2 202/8/2
f 196/9/4 202/10/4 200/11/4
f 195/1/6 198/5/6 196/9/6
f 199/12/3 196/9/3 200/7/3
f 216/150/37 214/70/37 213/151/37
f 226/150/39 228/70/39 227/151/39
f 220/150/38 218/70/38 217/151/38
f 224/150/40 222/70/40 221/151/40
f 210/73/1 212/64/1 204/153/1
f 217/158/1 204/153/1 208/11/1
f 221/126/1 222/44/1 205/160/1
f 205/160/1 226/118/1 208/11/1
f 1/1/1 5/73/1 7/2/1
f 3/3/2 7/130/2 8/4/2
f 7/6/3 5/12/3 6/7/3
f 2/9/4 4/5/4 8/10/4
f 1/1/5 3/3/5 4/5/5
f 5/12/6 1/1/6 2/9/6
f 10/13/7 12/18/7 11/14/7
f 12/5/8 14/9/8 13/16/8
f 13/15/9 14/13/9 16/18/9
f 16/19/10 18/162/10 17/20/10
f 18/22/11 20/163/11 19/23/11
f 20/25/12 22/164/12 21/26/12
f 14/29/13 12/165/13 10/58/13
f 10/58/13 24/166/13 14/29/13
f 24/166/13 22/30/13 14/29/13
f 22/30/13 20/167/13 18/85/13
f 18/85/13 16/28/13 22/30/13
f 22/31/14 24/168/14 23/32/14
f 24/5/15 10/9/15 9/16/15
f 26/1/17 28/12/17 27/37/17
f 27/39/18 28/11/18 30/40/18
f 30/42/19 32/138/19 31/43/19
f 32/45/20 34/109/20 33/46/20
f 33/48/21 34/86/21 36/49/21
f 36/51/22 38/133/22 37/52/22
f 37/39/24 38/11/24 40/40/24
f 39/57/25 40/113/25 26/45/25
f 39/29/26 25/165/26 27/58/26
f 27/58/26 29/166/26 31/30/26
f 31/30/26 33/167/26 35/85/26
f 35/85/26 37/28/26 31/30/26
f 37/28/26 39/29/26 31/30/26
f 42/59/27 44/108/27 43/60/27
f 44/12/28 46/6/28 45/62/28
f 46/3/29 48/1/29 47/38/29
f 48/51/30 50/133/30 49/52/30
f 50/64/31 52/110/31 51/65/31
f 52/1/32 54/12/32 53/37/32
f 46/29/33 44/165/33 42/58/33
f 42/58/33 56/166/33 46/29/33
f 56/166/33 54/30/33 46/29/33
f 54/30/33 52/167/33 50/85/33
f 50/85/33 48/28/33 54/30/33
f 54/67/34 56/177/34 55/68/34
f 56/70/35 42/153/35 41/71/35
f 61/73/1 63/2/1 59/3/1
f 59/3/6 63/130/6 64/4/6
f 63/6/5 61/12/5 62/7/5
f 58/9/4 60/5/4 64/10/4
f 57/1/3 59/3/3 60/5/3
f 61/12/2 57/1/2 58/9/2
f 65/74/22 66/178/22 68/75/22
f 68/5/21 70/9/21 69/16/21
f 70/40/20 72/179/20 71/77/20
f 71/78/19 72/180/19 74/59/19
f 73/79/18 74/31/18 76/80/18
f 76/25/17 78/164/17 77/26/17
f 78/82/25 80/10/25 79/83/25
f 80/18/24 66/19/24 65/21/24
f 79/29/23 65/165/23 71/30/23
f 65/165/23 67/58/23 71/30/23
f 67/58/23 69/166/23 71/30/23
f 71/30/23 73/167/23 75/85/23
f 75/85/23 77/28/23 79/29/23
f 95/101/4 81/189/4 83/190/4
f 83/190/4 85/191/4 95/101/4
f 85/191/4 87/102/4 95/101/4
f 87/102/4 89/192/4 91/193/4
f 91/193/4 93/100/4 87/102/4
f 97/43/41 98/138/41 100/67/41
f 100/103/42 102/140/42 101/104/42
f 102/106/43 104/180/43 103/78/43
f 103/61/44 104/59/44 106/108/44
f 106/5/45 108/9/45 107/16/45
f 108/25/46 110/164/46 109/26/46
f 110/13/48 112/18/48 111/14/48
f 112/5/49 98/9/49 97/16/49
f 111/29/50 97/165/50 99/58/50
f 99/58/50 101/166/50 111/29/50
f 101/166/50 103/30/50 111/29/50
f 103/30/50 105/167/50 107/85/50
f 107/85/50 109/28/50 103/30/50
f 114/64/12 116/110/12 115/65/12
f 116/1/11 118/12/11 117/37/11
f 117/47/10 118/45/10 120/109/10
f 120/67/9 122/177/9 121/68/9
f 122/31/8 124/80/8 123/81/8
f 124/25/7 126/164/7 125/26/7
f 118/29/16 116/165/16 126/30/16
f 116/165/16 114/58/16 126/30/16
f 114/58/16 128/166/16 126/30/16
f 126/30/16 124/167/16 122/85/16
f 122/85/16 120/28/16 126/30/16
f 126/64/15 128/110/15 127/65/15
f 127/43/14 128/138/14 114/67/14
f 133/73/1 135/2/1 131/3/1
f 131/3/3 135/130/3 136/4/3
f 135/6/6 133/12/6 134/7/6
f 134/11/4 130/9/4 132/5/4
f 129/1/2 131/3/2 132/5/2
f 133/12/5 129/1/5 130/9/5
f 138/67/32 140/177/32 139/68/32
f 140/110/31 142/194/31 141/111/31
f 141/112/30 142/195/30 144/113/30
f 144/94/29 146/196/29 145/114/29
f 146/13/28 148/18/28 147/14/28
f 148/5/27 150/9/27 149/16/27
f 142/29/36 140/165/36 138/58/36
f 138/58/36 152/166/36 142/29/36
f 152/166/36 150/30/36 142/29/36
f 150/30/36 148/167/36 146/85/36
f 146/85/36 144/28/36 150/30/36
f 149/17/35 150/5/35 152/9/35
f 152/11/34 138/40/34 137/41/34
f 180/13/46 182/18/46 181/14/46
f 182/147/45 184/208/45 183/148/45
f 184/18/44 186/19/44 185/21/44
f 186/22/43 188/163/43 187/23/43
f 188/22/42 190/163/42 189/23/42
f 190/5/41 192/9/41 191/16/41
f 192/5/49 194/9/49 193/16/49
f 193/17/48 194/5/48 180/9/48
f 193/29/47 179/165/47 181/58/47
f 181/58/47 183/166/47 185/30/47
f 185/30/47 187/167/47 189/85/47
f 189/85/47 191/28/47 185/30/47
f 191/28/47 193/29/47 185/30/47
f 199/73/1 201/2/1 197/3/1
f 197/3/5 201/130/5 202/4/5
f 201/6/2 199/12/2 200/7/2
f 196/9/4 198/5/4 202/10/4
f 195/1/6 197/3/6 198/5/6
f 199/12/3 195/1/3 196/9/3
f 216/150/37 215/209/37 214/70/37
f 226/150/39 225/209/39 228/70/39
f 220/150/38 219/209/38 218/70/38
f 224/150/40 223/209/40 222/70/40
f 204/153/1 213/210/1 214/152/1
f 214/152/1 210/73/1 204/153/1
f 218/211/1 204/153/1 217/158/1
f 204/153/1 212/64/1 208/11/1
f 212/64/1 210/73/1 205/160/1
f 210/73/1 221/126/1 205/160/1
f 208/11/1 212/64/1 205/160/1
f 205/160/1 225/215/1 226/118/1
