# Blender 5.1.2
# www.blender.org
mtllib small_roman_doric_capital.mtl
o Cube.295
v 0.337471 0.429223 0.107621
v 0.337471 0.512022 0.107621
v 0.662529 0.429223 0.107621
v 0.662529 0.512022 0.107621
v 0.892379 0.429223 0.337471
v 0.892379 0.512022 0.337471
v 0.892379 0.429223 0.662529
v 0.892379 0.512022 0.662529
v 0.662529 0.429223 0.892379
v 0.662529 0.512022 0.892379
v 0.337471 0.429223 0.892379
v 0.337471 0.512022 0.892379
v 0.107621 0.429223 0.662529
v 0.107621 0.512022 0.662529
v 0.107621 0.429223 0.337471
v 0.107621 0.512022 0.337471
v 0.632874 0.512022 0.179214
v 0.367126 0.512022 0.179214
v 0.820786 0.512022 0.367126
v 0.820786 0.512022 0.632874
v 0.632874 0.512022 0.820786
v 0.367126 0.512022 0.820786
v 0.179214 0.512022 0.632874
v 0.179214 0.512022 0.367126
v 0.632874 0.602472 0.179214
v 0.367126 0.602472 0.179214
v 0.820786 0.602472 0.367126
v 0.820786 0.602472 0.632874
v 0.632874 0.602472 0.820786
v 0.367126 0.602472 0.820786
v 0.179214 0.602472 0.632874
v 0.179214 0.602472 0.367126
v 0.642782 0.602472 0.155294
v 0.357218 0.602472 0.155294
v 0.844706 0.602472 0.357218
v 0.844706 0.602472 0.642782
v 0.642782 0.602472 0.844706
v 0.357218 0.602472 0.844706
v 0.155294 0.602472 0.642782
v 0.155294 0.602472 0.357218
v 0.642782 0.681616 0.155294
v 0.357218 0.681616 0.155294
v 0.844706 0.681616 0.357218
v 0.844706 0.681616 0.642782
v 0.642782 0.681616 0.844706
v 0.357218 0.681616 0.844706
v 0.155294 0.681616 0.642782
v 0.155294 0.681616 0.357218
v 0.675257 0.794678 0.076893
v 0.324743 0.794678 0.076893
v 0.923107 0.794678 0.324743
v 0.923107 0.794678 0.675257
v 0.675257 0.794678 0.923107
v 0.324743 0.794678 0.923107
v 0.076893 0.794678 0.675257
v 0.076893 0.794678 0.324743
v 0.675257 0.862516 0.076893
v 0.324743 0.862516 0.076893
v 0.923107 0.862516 0.324743
v 0.923107 0.862516 0.675257
v 0.675257 0.862516 0.923107
v 0.324743 0.862516 0.923107
v 0.076893 0.862516 0.675257
v 0.076893 0.862516 0.324743
v 1.000007 0.941659 -0.000007
v -0.000007 0.941659 -0.000007
v 1.000007 0.941659 1.000007
v -0.000007 0.941659 1.000007
v 1.000007 1.001659 -0.000007
v -0.000007 1.001659 -0.000007
v 1.000007 1.001659 1.000007
v -0.000007 1.001659 1.000007
v 0.923107 0.862514 0.076893
v 0.076893 0.862514 0.076893
v 0.923107 0.862514 0.923107
v 0.076893 0.862514 0.923107
vn -0.0000 -0.0000 -1.0000
vn 0.7071 -0.0000 -0.7071
vn 1.0000 -0.0000 -0.0000
vn 0.7071 -0.0000 0.7071
vn -0.0000 -0.0000 1.0000
vn -0.7071 -0.0000 0.7071
vn -0.0000 1.0000 -0.0000
vn -1.0000 -0.0000 -0.0000
vn -0.7071 -0.0000 -0.7071
vn -0.0000 -1.0000 -0.0000
vn 0.5811 -0.5698 0.5811
vn 0.5811 -0.5698 -0.5811
vn -0.8218 -0.5698 -0.0000
vn -0.0000 -0.5698 0.8218
vn 0.8218 -0.5698 -0.0000
vn -0.0000 -0.5698 -0.8218
vn -0.5811 -0.5698 -0.5811
vn -0.5811 -0.5698 0.5811
vn -0.7172 -0.6969 -0.0000
vn -0.0000 -0.6969 -0.7172
vn -0.0000 -0.6969 0.7172
vn 0.7172 -0.6969 -0.0000
vt 0.538472 0.993722
vt 0.210348 0.911691
vt 0.538472 0.911691
vt 0.538472 0.618722
vt 0.210348 0.536691
vt 0.538472 0.536691
vt 0.475972 0.306222
vt 0.147848 0.224191
vt 0.475972 0.224191
vt 0.725972 0.431222
vt 0.397848 0.349191
vt 0.725972 0.349191
vt 0.913472 0.868722
vt 0.585348 0.786691
vt 0.913472 0.786691
vt 0.913472 0.118722
vt 0.585348 0.036691
vt 0.913472 0.036691
vt 0.539089 0.149035
vt 0.467903 0.446145
vt 0.467903 0.178861
vt 0.413472 0.243722
vt 0.085348 0.161691
vt 0.413472 0.161691
vt 0.975972 0.618722
vt 0.647848 0.536691
vt 0.975972 0.536691
vt 0.892366 0.662523
vt 0.337477 0.892366
vt 0.107634 0.337477
vt 0.518009 0.242121
vt 0.608463 0.507879
vt 0.518009 0.507879
vt 0.914089 0.788471
vt 0.842903 0.491361
vt 0.914089 0.461535
vt 0.851589 0.413471
vt 0.780403 0.116361
vt 0.851589 0.086535
vt 0.851589 0.649035
vt 0.780403 0.946145
vt 0.780403 0.678861
vt 0.164089 0.725971
vt 0.092903 0.428861
vt 0.164089 0.399035
vt 0.351589 0.413471
vt 0.280403 0.116361
vt 0.351589 0.086535
vt 0.601589 0.538471
vt 0.530403 0.241361
vt 0.601589 0.211535
vt 0.615117 0.054621
vt 0.591196 0.330287
vt 0.591196 0.044713
vt 0.768009 0.117121
vt 0.858463 0.382879
vt 0.768009 0.382879
vt 0.830509 0.679621
vt 0.920963 0.945379
vt 0.830509 0.945379
vt 0.455509 0.054621
vt 0.545963 0.320379
vt 0.455509 0.320379
vt 0.268009 0.117121
vt 0.358463 0.382879
vt 0.268009 0.382879
vt 0.455509 0.679621
vt 0.545963 0.945379
vt 0.455509 0.945379
vt 0.330509 0.117121
vt 0.420963 0.382879
vt 0.330509 0.382879
vt 0.080509 0.367121
vt 0.170963 0.632879
vt 0.080509 0.632879
vt 0.045092 0.044713
vt 0.124238 0.330287
vt 0.045092 0.330287
vt 0.427617 0.382879
vt 0.403696 0.107213
vt 0.427617 0.117121
vt 0.240117 0.757879
vt 0.216196 0.482213
vt 0.240117 0.492121
vt 0.615117 0.320379
vt 0.177617 0.304621
vt 0.153696 0.580287
vt 0.153696 0.294713
vt 0.677617 0.945379
vt 0.653696 0.669713
vt 0.677617 0.679621
vt 0.552617 0.882879
vt 0.528696 0.607213
vt 0.552617 0.617121
vt 0.115117 0.617121
vt 0.091196 0.892787
vt 0.091196 0.607213
vt 0.151055 0.330287
vt 0.288645 0.012237
vt 0.288645 0.362763
vt 0.795092 0.044713
vt 0.874238 0.330287
vt 0.795092 0.330287
vt 0.795092 0.607213
vt 0.874238 0.892787
vt 0.795092 0.892787
vt 0.545092 0.357213
vt 0.624238 0.642787
vt 0.545092 0.642787
vt 0.107592 0.669713
vt 0.186738 0.955287
vt 0.107592 0.955287
vt 0.857592 0.357213
vt 0.936738 0.642787
vt 0.857592 0.642787
vt 0.045092 0.169713
vt 0.124238 0.455287
vt 0.045092 0.455287
vt 0.232592 0.044713
vt 0.311738 0.330287
vt 0.232592 0.330287
vt 0.062520 0.574737
vt 0.130360 0.925263
vt 0.062520 0.925263
vt 0.776055 0.330287
vt 0.913645 0.012237
vt 0.913645 0.362763
vt 0.401054 0.044713
vt 0.538645 0.362763
vt 0.401055 0.330287
vt 0.151054 0.482213
vt 0.288645 0.800263
vt 0.151055 0.767787
vt 0.838555 0.955287
vt 0.976145 0.637237
vt 0.976145 0.987763
vt 0.526054 0.357213
vt 0.663645 0.675263
vt 0.526055 0.642787
vt 0.088554 0.357213
vt 0.226145 0.675263
vt 0.088555 0.642787
vt 0.338554 0.607213
vt 0.476145 0.925263
vt 0.338555 0.892787
vt 0.062520 0.387237
vt 0.130360 0.737763
vt 0.062520 0.737763
vt 0.062520 0.074737
vt 0.130360 0.425263
vt 0.062520 0.425263
vt 0.875020 0.324737
vt 0.942860 0.675263
vt 0.875020 0.675263
vt 0.875020 0.512237
vt 0.942860 0.862763
vt 0.875020 0.862763
vt 0.875020 0.074737
vt 0.942860 0.425263
vt 0.875020 0.425263
vt 0.312520 0.324737
vt 0.380360 0.675263
vt 0.312520 0.675263
vt 0.437523 1.000007
vt 0.497523 -0.000007
vt 0.497523 1.000007
vt 0.375023 1.000007
vt 0.435023 -0.000007
vt 0.435023 1.000007
vt 0.872523 -0.000007
vt 0.812523 1.000007
vt 0.812523 -0.000007
vt 0.372523 -0.000007
vt 0.312523 1.000007
vt 0.312523 -0.000007
vt 0.000100 0.999900
vt 0.999900 0.000100
vt 0.999900 0.999900
vt 0.562530 0.000002
vt 0.672880 0.923099
vt 0.562530 0.999998
vt 0.000030 0.000002
vt 0.110380 0.923099
vt 0.000030 0.999998
vt 0.250030 0.000002
vt 0.360380 0.923099
vt 0.250030 0.999998
vt 0.875030 0.000002
vt 0.985380 0.923099
vt 0.875030 0.999998
vt 0.999900 0.000100
vt 0.000100 0.999900
vt 0.000100 0.000100
vt 0.210348 0.993722
vt 0.210348 0.618722
vt 0.147848 0.306222
vt 0.397848 0.431222
vt 0.585348 0.868722
vt 0.585348 0.118722
vt 0.539089 0.475971
vt 0.085348 0.243722
vt 0.647848 0.618722
vt 0.337477 0.107634
vt 0.662523 0.107634
vt 0.892366 0.337477
vt 0.662523 0.892366
vt 0.107634 0.662523
vt 0.608463 0.242121
vt 0.842903 0.758645
vt 0.780403 0.383645
vt 0.851589 0.975971
vt 0.092903 0.696145
vt 0.280403 0.383645
vt 0.530403 0.508645
vt 0.858463 0.117121
vt 0.920963 0.679621
vt 0.545963 0.054621
vt 0.358463 0.117121
vt 0.545963 0.679621
vt 0.420963 0.117121
vt 0.170963 0.367121
vt 0.124238 0.044713
vt 0.403696 0.392787
vt 0.216196 0.767787
vt 0.177617 0.570379
vt 0.653696 0.955287
vt 0.528696 0.892787
vt 0.115117 0.882879
vt 0.151054 0.044713
vt 0.874238 0.044713
vt 0.874238 0.607213
vt 0.624238 0.357213
vt 0.186738 0.669713
vt 0.936738 0.357213
vt 0.124238 0.169713
vt 0.311738 0.044713
vt 0.130360 0.574737
vt 0.776054 0.044713
vt 0.538645 0.012237
vt 0.288645 0.449737
vt 0.838554 0.669713
vt 0.663645 0.324737
vt 0.226145 0.324737
vt 0.476145 0.574737
vt 0.130360 0.387237
vt 0.130360 0.074737
vt 0.942860 0.324737
vt 0.942860 0.512237
vt 0.942860 0.074737
vt 0.380360 0.324737
vt 0.437523 -0.000007
vt 0.375023 -0.000007
vt 0.872523 1.000007
vt 0.372523 1.000007
vt 0.000100 0.000100
vt 0.672880 0.076901
vt 0.110380 0.076901
vt 0.360380 0.076901
vt 0.985380 0.076901
vt 0.999900 0.999900
s 0
usemtl doric_small
f 2/1/1 3/2/1 1/3/1
f 4/4/2 5/5/2 3/6/2
f 6/7/3 7/8/3 5/9/3
f 8/10/4 9/11/4 7/12/4
f 10/13/5 11/14/5 9/15/5
f 12/16/6 13/17/6 11/18/6
f 16/19/7 23/20/7 24/21/7
f 14/22/8 15/23/8 13/24/8
f 16/25/9 1/26/9 15/27/9
f 7/28/10 11/29/10 15/30/10
f 24/31/9 26/32/9 18/33/9
f 4/34/7 19/35/7 6/36/7
f 10/37/7 22/38/7 12/39/7
f 2/40/7 24/41/7 18/42/7
f 2/43/7 17/44/7 4/45/7
f 6/46/7 20/47/7 8/48/7
f 14/40/7 22/41/7 23/42/7
f 8/49/7 21/50/7 10/51/7
f 28/52/10 35/53/10 36/54/10
f 22/55/6 31/56/6 23/57/6
f 20/58/4 29/59/4 21/60/4
f 17/61/2 27/62/2 19/63/2
f 23/64/8 32/65/8 24/66/8
f 21/67/5 30/68/5 22/69/5
f 19/70/3 28/71/3 20/72/3
f 18/73/1 25/74/1 17/75/1
f 39/76/8 48/77/8 40/78/8
f 26/79/10 33/80/10 25/81/10
f 32/82/10 34/83/10 26/84/10
f 30/85/10 39/54/10 31/52/10
f 29/86/10 36/87/10 37/88/10
f 25/89/10 35/90/10 27/91/10
f 31/92/10 40/93/10 32/94/10
f 30/95/10 37/96/10 38/97/10
f 45/98/11 52/99/11 53/100/11
f 37/101/5 46/102/5 38/103/5
f 35/104/3 44/105/3 36/106/3
f 34/107/1 41/108/1 33/109/1
f 40/110/9 42/111/9 34/112/9
f 38/113/6 47/114/6 39/115/6
f 36/116/4 45/117/4 37/118/4
f 33/119/2 43/120/2 35/121/2
f 56/122/9 58/123/9 50/124/9
f 43/125/12 49/126/12 51/127/12
f 47/128/13 56/129/13 48/130/13
f 45/131/14 54/132/14 46/133/14
f 44/134/15 51/135/15 52/136/15
f 42/137/16 49/138/16 41/139/16
f 48/140/17 50/141/17 42/142/17
f 46/143/18 55/144/18 47/145/18
f 54/146/6 63/147/6 55/148/6
f 52/122/4 61/123/4 53/124/4
f 49/149/2 59/150/2 51/151/2
f 55/152/8 64/153/8 56/154/8
f 53/155/5 62/156/5 54/157/5
f 51/158/3 60/159/3 52/160/3
f 50/161/1 57/162/1 49/163/1
f 70/164/1 65/165/1 66/166/1
f 72/167/8 66/168/8 68/169/8
f 71/170/5 68/171/5 67/172/5
f 69/173/3 67/174/3 65/175/3
f 70/176/7 71/177/7 69/178/7
f 66/179/19 76/180/19 68/181/19
f 65/182/20 74/183/20 66/184/20
f 68/185/21 75/186/21 67/187/21
f 67/188/22 73/189/22 65/190/22
f 75/191/10 74/192/10 73/193/10
f 2/1/1 4/194/1 3/2/1
f 4/4/2 6/195/2 5/5/2
f 6/7/3 8/196/3 7/8/3
f 8/10/4 10/197/4 9/11/4
f 10/13/5 12/198/5 11/14/5
f 12/16/6 14/199/6 13/17/6
f 16/19/7 14/200/7 23/20/7
f 14/22/8 16/201/8 15/23/8
f 16/25/9 2/202/9 1/26/9
f 15/30/10 1/203/10 3/204/10
f 3/204/10 5/205/10 7/28/10
f 7/28/10 9/206/10 11/29/10
f 11/29/10 13/207/10 15/30/10
f 15/30/10 3/204/10 7/28/10
f 24/31/9 32/208/9 26/32/9
f 4/34/7 17/209/7 19/35/7
f 10/37/7 21/210/7 22/38/7
f 2/40/7 16/211/7 24/41/7
f 2/43/7 18/212/7 17/44/7
f 6/46/7 19/213/7 20/47/7
f 14/40/7 12/211/7 22/41/7
f 8/49/7 20/214/7 21/50/7
f 28/52/10 27/85/10 35/53/10
f 22/55/6 30/215/6 31/56/6
f 20/58/4 28/216/4 29/59/4
f 17/61/2 25/217/2 27/62/2
f 23/64/8 31/218/8 32/65/8
f 21/67/5 29/219/5 30/68/5
f 19/70/3 27/220/3 28/71/3
f 18/73/1 26/221/1 25/74/1
f 39/76/8 47/222/8 48/77/8
f 26/79/10 34/223/10 33/80/10
f 32/82/10 40/224/10 34/83/10
f 30/85/10 38/53/10 39/54/10
f 29/86/10 28/225/10 36/87/10
f 25/89/10 33/226/10 35/90/10
f 31/92/10 39/227/10 40/93/10
f 30/95/10 29/228/10 37/96/10
f 45/98/11 44/229/11 52/99/11
f 37/101/5 45/230/5 46/102/5
f 35/104/3 43/231/3 44/105/3
f 34/107/1 42/232/1 41/108/1
f 40/110/9 48/233/9 42/111/9
f 38/113/6 46/234/6 47/114/6
f 36/116/4 44/235/4 45/117/4
f 33/119/2 41/236/2 43/120/2
f 56/122/9 64/237/9 58/123/9
f 43/125/12 41/238/12 49/126/12
f 47/128/13 55/239/13 56/129/13
f 45/131/14 53/240/14 54/132/14
f 44/134/15 43/241/15 51/135/15
f 42/137/16 50/242/16 49/138/16
f 48/140/17 56/243/17 50/141/17
f 46/143/18 54/244/18 55/144/18
f 54/146/6 62/245/6 63/147/6
f 52/122/4 60/237/4 61/123/4
f 49/149/2 57/246/2 59/150/2
f 55/152/8 63/247/8 64/153/8
f 53/155/5 61/248/5 62/156/5
f 51/158/3 59/249/3 60/159/3
f 50/161/1 58/250/1 57/162/1
f 70/164/1 69/251/1 65/165/1
f 72/167/8 70/252/8 66/168/8
f 71/170/5 72/253/5 68/171/5
f 69/173/3 71/254/3 67/174/3
f 70/176/7 72/255/7 71/177/7
f 66/179/19 74/256/19 76/180/19
f 65/182/20 73/257/20 74/183/20
f 68/185/21 76/258/21 75/186/21
f 67/188/22 75/259/22 73/189/22
f 75/191/10 76/260/10 74/192/10
