# Blender 5.1.1
# www.blender.org
mtllib small_pilaster_both.mtl
o pilaster_small
v 0.812502 -0.000000 0.875000
v 0.812502 1.000000 0.875000
v 0.187498 -0.000000 0.875000
v 0.187498 1.000000 0.875000
v 0.187498 -0.000000 1.000000
v 0.187498 1.000000 1.000000
v 0.812502 -0.000000 1.000000
v 0.812502 -0.000000 1.000000
v 0.812502 1.000000 1.000000
v 0.812502 1.750000 0.875000
v 0.187498 1.750000 0.875000
v 0.187498 1.750000 1.000000
v 0.812502 1.750000 1.000000
v 0.187498 -0.750000 0.875000
v 0.812502 -0.750000 0.875000
v 0.187498 -0.750000 1.000000
v 0.812502 -0.750000 1.000000
vn -0.0000 -0.0000 -1.0000
vn -1.0000 -0.0000 -0.0000
vn 1.0000 -0.0000 -0.0000
vn -0.0000 -0.0000 1.0000
vn -0.0000 1.0000 -0.0000
vn -0.0000 -1.0000 -0.0000
vt 0.625000 1.000000
vt 0.000000 1.000000
vt 0.000000 0.000000
vt 0.625000 0.000000
vt 0.125000 0.000000
vt 0.125000 1.000000
vt 0.125000 0.750000
vt -0.000000 0.750000
vt 0.000000 0.250000
vt 0.125000 0.250000
vt 0.562500 0.812500
vt 0.437500 0.812500
vt 0.437500 0.187500
vt 0.562500 0.187500
vt 0.625000 0.750000
vt 0.625000 0.250000
s 0
usemtl column_mat_top
f 11/11/5 12/12/5 13/13/5 10/14/5
f 14/14/6 15/11/6 17/12/6 16/13/6
usemtl column_mat_side
f 4/1/1 2/2/1 1/3/1 3/4/1
f 5/5/2 6/6/2 4/2/2 3/3/2
f 2/6/3 9/2/3 8/3/3 1/5/3
f 9/3/3 2/5/3 10/7/3 13/8/3
f 5/6/2 3/2/2 14/9/2 16/10/2
f 6/3/4 5/2/4 8/1/4 9/4/4
f 6/8/4 9/15/4 13/4/4 12/3/4
f 4/3/2 6/5/2 12/7/2 11/8/2
f 2/3/1 4/4/1 11/15/1 10/8/1
f 8/4/4 5/3/4 16/8/4 17/15/4
f 3/1/1 1/2/1 15/9/1 14/16/1
f 1/6/3 8/2/3 17/9/3 15/10/3
