# Blender 5.1.0
# www.blender.org
mtllib small_roman_ionic_capital.mtl
o roman
v 0.500000 0.937153 0.135758
v 0.500000 0.999653 0.864242
v 0.500000 0.937153 0.864242
v 0.500000 0.999653 0.135758
v 0.135758 0.937153 0.500000
v 0.864241 0.999653 0.500000
v 0.135758 0.999653 0.500000
v 0.864241 0.937153 0.500000
v 0.500000 0.937153 0.500000
v 0.500000 0.999653 0.500000
v 0.974310 0.999653 0.094615
v 0.905385 0.999653 0.025690
v 0.905385 0.937153 0.025690
v 0.974310 0.937153 0.094615
v 0.905385 0.999653 0.974310
v 0.974310 0.999653 0.905385
v 0.974310 0.937153 0.905385
v 0.905385 0.937153 0.974310
v 0.094615 0.999653 0.025690
v 0.025689 0.999653 0.094615
v 0.025689 0.937153 0.094615
v 0.094615 0.937153 0.025690
v 0.025689 0.999653 0.905385
v 0.094615 0.999653 0.974310
v 0.094615 0.937153 0.974310
v 0.025689 0.937153 0.905385
v 0.323958 0.658403 0.074997
v 0.323958 0.758403 0.074997
v 0.676042 0.658403 0.074997
v 0.676042 0.758403 0.074997
v 0.925003 0.658403 0.323958
v 0.925003 0.758403 0.323958
v 0.925003 0.658403 0.676042
v 0.925003 0.758403 0.676042
v 0.676042 0.658403 0.925003
v 0.676042 0.758403 0.925003
v 0.323958 0.658403 0.925003
v 0.323958 0.758403 0.925003
v 0.074997 0.658403 0.676042
v 0.074997 0.758403 0.676042
v 0.074997 0.658403 0.323958
v 0.074997 0.758403 0.323958
v 0.761236 0.882146 0.849625
v 0.849624 0.882146 0.761237
v 0.722063 0.748403 0.810453
v 0.810452 0.748403 0.722065
v 0.761236 0.614660 0.849625
v 0.849624 0.614660 0.761237
v 0.855806 0.559262 0.944196
v 0.944194 0.559262 0.855807
v 0.950376 0.614660 1.038766
v 1.038765 0.614660 0.950378
v 0.989549 0.748403 1.077939
v 1.077937 0.748403 0.989550
v 0.950376 0.882146 1.038766
v 1.038765 0.882146 0.950378
v 0.855806 0.937544 0.944196
v 0.944194 0.937544 0.855807
v -0.038765 0.882146 0.049622
v 0.049624 0.882146 -0.038766
v -0.077937 0.748403 0.010450
v 0.010451 0.748403 -0.077938
v -0.038765 0.614660 0.049622
v 0.049624 0.614660 -0.038766
v 0.055806 0.559262 0.144193
v 0.144194 0.559262 0.055804
v 0.150376 0.614660 0.238763
v 0.238764 0.614660 0.150375
v 0.189548 0.748403 0.277935
v 0.277937 0.748403 0.189547
v 0.150376 0.882146 0.238763
v 0.238764 0.882146 0.150375
v 0.055806 0.937544 0.144193
v 0.144194 0.937544 0.055804
v 0.950378 0.882146 -0.038766
v 1.038766 0.882146 0.049622
v 0.989550 0.748403 -0.077938
v 1.077938 0.748403 0.010450
v 0.950378 0.614660 -0.038766
v 1.038766 0.614660 0.049622
v 0.855807 0.559262 0.055804
v 0.944196 0.559262 0.144193
v 0.761237 0.614660 0.150375
v 0.849625 0.614660 0.238763
v 0.722064 0.748403 0.189547
v 0.810453 0.748403 0.277935
v 0.761237 0.882146 0.150375
v 0.849625 0.882146 0.238763
v 0.855807 0.937544 0.055804
v 0.944196 0.937544 0.144193
v 0.902386 0.942153 0.097614
v 0.902386 0.754653 0.097614
v 0.902386 0.942153 0.902386
v 0.902386 0.754653 0.902386
v 0.097613 0.942153 0.097614
v 0.097613 0.754653 0.097614
v 0.097613 0.942153 0.902386
v 0.097613 0.754653 0.902386
v 0.500000 0.754653 0.178005
v 0.500000 0.942153 0.821995
v 0.500000 0.754653 0.821995
v 0.500000 0.942153 0.178005
v 0.178005 0.754653 0.500000
v 0.821995 0.942153 0.500000
v 0.178005 0.942153 0.500000
v 0.821995 0.754653 0.500000
v 0.500000 0.754653 0.500000
v 0.500000 0.942153 0.500000
v 0.150376 0.882146 0.761237
v 0.238765 0.882146 0.849625
v 0.189549 0.748403 0.722065
v 0.277937 0.748403 0.810453
v 0.150376 0.614660 0.761237
v 0.238765 0.614660 0.849625
v 0.055806 0.559262 0.855807
v 0.144194 0.559262 0.944196
v -0.038765 0.614660 0.950378
v 0.049624 0.614660 1.038766
v -0.077937 0.748403 0.989550
v 0.010451 0.748403 1.077938
v -0.038765 0.882146 0.950378
v 0.049624 0.882146 1.038766
v 0.055806 0.937544 0.855807
v 0.144194 0.937544 0.944196
vn 0.7071 -0.0000 -0.7071
vn -0.7071 -0.0000 0.7071
vn 0.7071 -0.0000 0.7071
vn -0.7071 -0.0000 -0.7071
vn 0.9651 -0.0000 0.2620
vn -0.2620 -0.0000 -0.9651
vn -0.0000 1.0000 -0.0000
vn -0.0000 -1.0000 -0.0000
vn -0.2620 -0.0000 0.9651
vn 0.9651 -0.0000 -0.2620
vn 0.2620 -0.0000 -0.9651
vn -0.9651 -0.0000 0.2620
vn -0.9651 -0.0000 -0.2620
vn 0.2620 -0.0000 0.9651
vn -0.0000 -0.0000 -1.0000
vn 1.0000 -0.0000 -0.0000
vn -0.0000 -0.0000 1.0000
vn -1.0000 -0.0000 -0.0000
vn -0.6533 0.3827 -0.6533
vn -0.6533 -0.3827 -0.6533
vn -0.2706 -0.9239 -0.2706
vn 0.2706 -0.9239 0.2706
vn 0.6533 -0.3827 0.6533
vn 0.6533 0.3827 0.6533
vn 0.2706 0.9239 0.2706
vn -0.2706 0.9239 -0.2706
vn 0.6533 0.3827 -0.6533
vn 0.6533 -0.3827 -0.6533
vn 0.2706 -0.9239 -0.2706
vn -0.2706 -0.9239 0.2706
vn -0.6533 -0.3827 0.6533
vn -0.6533 0.3827 0.6533
vn -0.2706 0.9239 0.2706
vn 0.2706 0.9239 -0.2706
vn 0.1959 -0.0000 0.9806
vn -0.9806 -0.0000 0.1959
vn 0.9806 -0.0000 -0.1959
vn -0.1959 -0.0000 -0.9806
vn 0.1959 -0.0000 -0.9806
vn -0.1959 -0.0000 0.9806
vn 0.9806 -0.0000 0.1959
vn -0.9806 -0.0000 -0.1959
vt 0.687500 0.875000
vt 0.562500 0.812500
vt 0.687500 0.812500
vt 0.812500 0.500000
vt 0.687500 0.437500
vt 0.812500 0.437500
vt 0.312500 0.375000
vt 0.187500 0.312500
vt 0.312500 0.312500
vt 0.437500 0.625000
vt 0.312500 0.562500
vt 0.437500 0.562500
vt 1.000000 0.062500
vt 0.500000 0.125000
vt 1.000000 0.125000
vt 0.500000 0.062500
vt 0.000000 0.125000
vt 0.875000 0.500000
vt 0.500000 0.500000
vt 0.367115 0.484231
vt 0.375000 0.523654
vt 0.375000 0.625000
vt 0.125000 0.500000
vt 0.000000 0.062500
vt 0.062500 0.000000
vt 0.367115 0.765769
vt 0.250000 0.750000
vt 1.000000 0.937500
vt 0.937500 1.000000
vt 0.500000 0.875000
vt 0.250000 0.500000
vt 0.250000 0.625000
vt 0.125000 0.625000
vt 0.000000 0.937500
vt 0.148654 0.750000
vt 0.125000 0.726346
vt 0.000000 0.500000
vt 0.437500 0.500000
vt 0.687500 0.625000
vt 0.687500 0.500000
vt 0.937500 0.625000
vt 0.937500 0.500000
vt 0.292935 0.000100
vt 0.707065 0.000100
vt 0.292935 0.999900
vt 0.292935 0.000100
vt 0.707065 0.000100
vt 0.292935 0.999900
vt 0.000064 0.000064
vt 0.414228 0.999936
vt 0.000064 0.999936
vt 0.414228 0.999936
vt 0.000064 0.000064
vt 0.414228 0.000064
vt 0.937500 0.875000
vt 0.750000 0.625000
vt 0.125000 0.375000
vt 0.312500 0.125000
vt 0.125000 0.875000
vt 0.312500 0.625000
vt 0.312500 0.875000
vt 0.812500 0.375000
vt 0.625000 0.125000
vt 0.812500 0.125000
vt 0.343051 0.389926
vt 0.649137 0.389926
vt 0.649137 0.696011
vt 0.414228 0.999936
vt 0.000064 0.000064
vt 0.496094 0.759404
vt 0.712529 0.542969
vt 0.496094 0.326533
vt 0.000000 1.000000
vt 0.187500 0.750000
vt 0.187500 1.000000
vt 0.687500 1.000000
vt 0.500000 0.750000
vt 0.687500 0.750000
vt 0.750000 0.875000
vt 0.000000 0.625000
vt 0.187500 0.375000
vt 0.187500 0.625000
vt 0.414228 0.000064
vt 0.000065 0.999936
vt 0.000064 0.000064
vt 0.343051 0.389926
vt 0.343051 0.696011
vt 0.649137 0.696011
vt 0.000064 0.000064
vt 0.414228 0.000064
vt 0.187500 0.500000
vt 0.343051 0.389926
vt 0.496094 0.326533
vt 0.496094 0.759404
vt 0.375000 0.750000
vt 0.562500 0.500000
vt 0.562500 0.750000
vt 0.750000 0.375000
vt 0.937500 0.375000
vt 0.187500 0.250000
vt 0.625000 0.625000
vt 0.812500 0.625000
vt 0.414228 0.999936
vt 0.649137 0.389926
vt 0.437500 0.875000
vt 0.712529 0.542969
vt 0.875000 0.625000
vt 0.750000 0.750000
vt 0.625000 1.000000
vt -0.000000 0.750000
vt 0.625000 0.750000
vt 1.000000 1.000000
vt 0.375000 0.750000
vt 1.000000 0.750000
vt 0.125000 0.750000
vt 0.375000 1.000000
vt 0.625000 0.750000
vt 0.750000 0.500000
vt 0.625000 0.500000
vt 0.625000 0.375000
vt 0.343051 0.696011
vt 0.343051 0.389926
vt 0.649137 0.389926
vt 0.375000 0.500000
vt 0.562500 0.250000
vt 0.496094 0.326533
vt 0.279659 0.542969
vt 0.562500 0.875000
vt 0.937500 0.000000
vt 0.375000 0.726346
vt 0.125000 0.523654
vt 0.148654 0.500000
vt 0.062500 1.000000
vt 0.500000 0.625000
vt 0.999900 0.292934
vt 0.999900 0.707065
vt 0.707065 0.999900
vt 0.000100 0.707065
vt 0.000100 0.292935
vt 0.999900 0.292935
vt 0.999900 0.707065
vt 0.707065 0.999900
vt 0.000100 0.707065
vt 0.000100 0.292935
vt 0.414228 0.000064
vt 0.000064 0.999936
vt 0.125000 0.125000
vt 0.279659 0.542969
vt 0.496094 0.326533
vt 0.712529 0.542969
vt 0.496094 0.759404
vt 0.343051 0.696011
vt 0.649137 0.389926
vt 0.000000 0.750000
vt 0.500000 1.000000
vt 0.000000 0.375000
vt 0.496094 0.326534
vt 0.279659 0.542969
vt 0.496094 0.759404
vt 0.000064 0.999936
vt 0.649137 0.389926
vt 0.343051 0.696011
vt 0.279659 0.542969
vt 0.000000 0.250000
vt 0.250000 0.875000
vt 0.875000 0.750000
vt 0.712529 0.542969
vt 0.375000 0.250000
vt 0.343051 0.389926
s 0
usemtl ionic_egg
f 11/13/5 8/14/5 14/15/5
f 4/16/6 13/17/6 1/14/6
f 13/20/8 14/21/8 8/22/8
f 15/13/9 3/14/9 18/15/9
f 6/16/10 17/17/10 8/14/10
f 8/22/8 18/26/8 3/27/8
f 19/13/11 1/14/11 22/15/11
f 7/16/12 21/17/12 5/14/12
f 1/31/8 9/32/8 5/33/8
f 23/13/13 5/14/13 26/15/13
f 2/16/14 25/17/14 3/14/14
f 3/27/8 25/35/8 26/36/8
f 28/10/15 29/37/15 27/38/15
f 30/10/1 31/37/1 29/38/1
f 32/10/16 33/37/16 31/38/16
f 34/39/3 35/31/3 33/40/3
f 36/39/17 37/31/17 35/40/17
f 38/41/2 39/19/2 37/42/2
f 40/41/18 41/19/18 39/42/18
f 42/41/4 27/19/4 41/42/4
f 105/107/7 100/108/7 108/56/7
f 100/109/35 98/110/35 101/111/35
f 105/109/36 96/110/36 103/111/36
f 106/22/8 101/27/8 107/32/8
f 104/109/37 94/110/37 106/111/37
f 102/109/38 92/110/38 99/111/38
f 95/112/39 99/113/39 96/114/39
f 103/33/8 101/27/8 98/115/8
f 94/114/40 100/116/40 101/113/40
f 104/101/7 100/108/7 93/117/7
f 102/118/7 104/101/7 91/119/7
f 99/31/8 103/33/8 96/23/8
f 92/114/41 104/116/41 106/113/41
f 99/31/8 106/22/8 107/32/8
f 98/114/42 105/116/42 103/113/42
f 102/118/7 105/107/7 108/56/7
f 11/13/5 6/16/5 8/14/5
f 4/16/6 12/24/6 13/17/6
f 9/32/8 1/31/8 8/22/8
f 1/31/8 13/20/8 8/22/8
f 15/13/9 2/16/9 3/14/9
f 6/16/10 16/24/10 17/17/10
f 3/27/8 9/32/8 8/22/8
f 8/22/8 17/130/8 18/26/8
f 19/13/11 4/16/11 1/14/11
f 7/16/12 20/24/12 21/17/12
f 5/33/8 21/131/8 22/132/8
f 22/132/8 1/31/8 5/33/8
f 23/13/13 7/16/13 5/14/13
f 2/16/14 24/24/14 25/17/14
f 26/36/8 5/33/8 3/27/8
f 5/33/8 9/32/8 3/27/8
f 28/10/15 30/80/15 29/37/15
f 30/10/1 32/80/1 31/37/1
f 32/10/16 34/80/16 33/37/16
f 34/39/3 36/32/3 35/31/3
f 36/39/17 38/32/17 37/31/17
f 38/41/2 40/134/2 39/19/2
f 40/41/18 42/134/18 41/19/18
f 42/41/4 28/134/4 27/19/4
f 105/107/7 97/166/7 100/108/7
f 100/109/35 97/73/35 98/110/35
f 105/109/36 95/73/36 96/110/36
f 106/22/8 94/95/8 101/27/8
f 104/109/37 93/73/37 94/110/37
f 102/109/38 91/73/38 92/110/38
f 95/112/39 102/116/39 99/113/39
f 103/33/8 107/32/8 101/27/8
f 94/114/40 93/112/40 100/116/40
f 104/101/7 108/56/7 100/108/7
f 102/118/7 108/56/7 104/101/7
f 99/31/8 107/32/8 103/33/8
f 92/114/41 91/112/41 104/116/41
f 99/31/8 92/124/8 106/22/8
f 98/114/42 97/112/42 105/116/42
f 102/118/7 95/18/7 105/107/7
usemtl ionic_volute
f 44/65/1 56/66/1 52/67/1
f 49/70/2 53/71/2 57/72/2
f 72/86/1 68/87/1 64/88/1
f 71/92/2 73/93/2 65/94/2
f 80/88/3 76/104/3 88/86/3
f 89/93/4 77/106/4 81/94/4
f 114/121/3 110/122/3 122/123/3
f 123/126/4 111/127/4 115/70/4
f 48/121/1 46/148/1 44/65/1
f 44/65/1 58/149/1 56/66/1
f 56/66/1 54/150/1 52/67/1
f 52/67/1 50/151/1 48/121/1
f 48/121/1 44/65/1 52/67/1
f 57/72/2 43/86/2 45/127/2
f 45/127/2 47/152/2 49/70/2
f 49/70/2 51/88/2 53/71/2
f 53/71/2 55/153/2 57/72/2
f 57/72/2 45/127/2 49/70/2
f 64/88/1 62/71/1 60/104/1
f 60/104/1 74/157/1 72/86/1
f 72/86/1 70/158/1 68/87/1
f 68/87/1 66/159/1 64/88/1
f 64/88/1 60/104/1 72/86/1
f 73/93/2 59/161/2 61/106/2
f 61/106/2 63/88/2 73/93/2
f 63/88/2 65/94/2 73/93/2
f 65/94/2 67/162/2 69/163/2
f 69/163/2 71/92/2 65/94/2
f 80/88/3 78/71/3 76/104/3
f 76/104/3 90/157/3 88/86/3
f 88/86/3 86/158/3 84/87/3
f 84/87/3 82/159/3 88/86/3
f 82/159/3 80/88/3 88/86/3
f 89/93/4 75/161/4 77/106/4
f 77/106/4 79/88/4 81/94/4
f 81/94/4 83/162/4 85/163/4
f 85/163/4 87/92/4 81/94/4
f 87/92/4 89/93/4 81/94/4
f 114/121/3 112/148/3 110/122/3
f 110/122/3 124/149/3 122/123/3
f 122/123/3 120/167/3 118/67/3
f 118/67/3 116/151/3 122/123/3
f 116/151/3 114/121/3 122/123/3
f 123/126/4 109/169/4 111/127/4
f 111/127/4 113/152/4 115/70/4
f 115/70/4 117/88/4 119/167/4
f 119/167/4 121/161/4 115/70/4
f 121/161/4 123/126/4 115/70/4
usemtl ionic_capital
f 14/1/1 12/2/1 11/3/1
f 24/4/2 26/5/2 25/6/2
f 18/7/3 16/8/3 15/9/3
f 22/10/4 20/11/4 19/12/4
f 4/18/7 10/19/7 6/14/7
f 2/23/7 15/24/7 16/25/7
f 19/28/7 20/29/7 7/30/7
f 7/30/7 24/34/7 2/23/7
f 34/43/7 32/44/7 40/45/7
f 39/46/8 41/47/8 33/48/8
f 44/49/19 45/50/19 43/51/19
f 46/52/20 47/53/20 45/54/20
f 47/55/21 50/56/21 49/41/21
f 50/57/22 51/58/22 49/7/22
f 52/59/23 53/60/23 51/61/23
f 53/62/24 56/63/24 55/64/24
f 56/33/25 57/7/25 55/60/25
f 58/68/26 43/69/26 57/54/26
f 60/73/19 61/74/19 59/75/19
f 61/62/20 64/63/20 63/64/20
f 63/76/21 66/77/21 65/78/21
f 66/79/22 67/41/22 65/55/22
f 68/80/23 69/81/23 67/82/23
f 69/83/24 72/84/24 71/85/24
f 72/52/25 73/89/25 71/90/25
f 73/74/26 60/37/26 59/91/26
f 76/95/27 77/96/27 75/97/27
f 77/41/28 80/98/28 79/99/28
f 80/37/29 81/100/29 79/91/29
f 82/101/30 83/62/30 81/102/30
f 83/76/31 86/77/31 85/78/31
f 86/103/32 87/85/32 85/83/32
f 88/52/33 89/89/33 87/90/33
f 89/105/34 76/32/34 75/10/34
f 110/49/27 111/50/27 109/51/27
f 112/52/28 113/53/28 111/54/28
f 114/95/29 115/96/29 113/97/29
f 116/120/30 117/64/30 115/62/30
f 118/57/31 119/58/31 117/7/31
f 119/61/32 122/33/32 121/60/32
f 122/124/33 123/125/33 121/96/33
f 124/68/34 109/69/34 123/54/34
f 14/1/1 13/128/1 12/2/1
f 24/4/2 23/40/2 26/5/2
f 18/7/3 17/81/3 16/8/3
f 22/10/4 21/60/4 20/11/4
f 6/14/7 11/129/7 12/13/7
f 12/13/7 4/18/7 6/14/7
f 16/25/7 6/14/7 2/23/7
f 6/14/7 10/19/7 2/23/7
f 10/19/7 4/18/7 7/30/7
f 4/18/7 19/28/7 7/30/7
f 2/23/7 10/19/7 7/30/7
f 7/30/7 23/133/7 24/34/7
f 32/44/7 30/135/7 28/136/7
f 28/136/7 42/137/7 32/44/7
f 42/137/7 40/45/7 32/44/7
f 40/45/7 38/138/7 36/139/7
f 36/139/7 34/43/7 40/45/7
f 41/47/8 27/140/8 33/48/8
f 27/140/8 29/141/8 33/48/8
f 29/141/8 31/142/8 33/48/8
f 33/48/8 35/143/8 37/144/8
f 37/144/8 39/46/8 33/48/8
f 44/49/19 46/145/19 45/50/19
f 46/52/20 48/146/20 47/53/20
f 47/55/21 48/79/21 50/56/21
f 50/57/22 52/147/22 51/58/22
f 52/59/23 54/33/23 53/60/23
f 53/62/24 54/120/24 56/63/24
f 56/33/25 58/57/25 57/7/25
f 58/68/26 44/146/26 43/69/26
f 60/73/19 62/154/19 61/74/19
f 61/62/20 62/120/20 64/63/20
f 63/76/21 64/155/21 66/77/21
f 66/79/22 68/56/22 67/41/22
f 68/80/23 70/156/23 69/81/23
f 69/83/24 70/103/24 72/84/24
f 72/52/25 74/160/25 73/89/25
f 73/74/26 74/154/26 60/37/26
f 76/95/27 78/124/27 77/96/27
f 77/41/28 78/56/28 80/98/28
f 80/37/29 82/164/29 81/100/29
f 82/101/30 84/120/30 83/62/30
f 83/76/31 84/155/31 86/77/31
f 86/103/32 88/84/32 87/85/32
f 88/52/33 90/160/33 89/89/33
f 89/105/34 90/165/34 76/32/34
f 110/49/27 112/145/27 111/50/27
f 112/52/28 114/146/28 113/53/28
f 114/95/29 116/124/29 115/96/29
f 116/120/30 118/63/30 117/64/30
f 118/57/31 120/147/31 119/58/31
f 119/61/32 120/59/32 122/33/32
f 122/124/33 124/168/33 123/125/33
f 124/68/34 110/146/34 109/69/34
