# Blender 5.1.1
# www.blender.org
mtllib small_pilaster_up.mtl
o pilaster_small
v 0.187497 -0.000000 0.110152
v 0.187497 1.000000 0.110152
v 0.812502 -0.000000 0.110152
v 0.812502 1.000000 0.110152
v 0.812502 -0.000000 0.000000
v 0.812502 1.000000 0.000000
v 0.187497 -0.000000 0.000000
v 0.187497 -0.000000 0.000000
v 0.187497 1.000000 0.000000
v 0.187497 1.750000 0.110152
v 0.812502 1.750000 0.110152
v 0.812502 1.750000 0.000000
v 0.187497 1.750000 0.000000
vn -0.0000 -0.0000 1.0000
vn 1.0000 -0.0000 -0.0000
vn -1.0000 -0.0000 -0.0000
vn -0.0000 -1.0000 -0.0000
vn -0.0000 -0.0000 -1.0000
vn -0.0000 1.0000 -0.0000
vt 0.625000 1.000000
vt 0.000000 1.000000
vt 0.000000 0.000000
vt 0.625000 0.000000
vt 0.125000 0.000000
vt 0.125000 1.000000
vt 0.125000 0.750000
vt -0.000000 0.750000
vt 0.562500 0.187500
vt 0.562500 0.812500
vt 0.437500 0.812500
vt 0.437500 0.187500
vt 0.625000 0.750000
s 0
usemtl column_mat_top
f 3/9/4 1/10/4 8/11/4 5/12/4
f 11/10/6 12/11/6 13/12/6 10/9/6
usemtl column_mat_side
f 4/1/1 2/2/1 1/3/1 3/4/1
f 5/5/2 6/6/2 4/2/2 3/3/2
f 2/6/3 9/2/3 8/3/3 1/5/3
f 9/3/3 2/5/3 10/7/3 13/8/3
f 6/3/5 5/2/5 8/1/5 9/4/5
f 6/8/5 9/13/5 13/4/5 12/3/5
f 4/3/2 6/5/2 12/7/2 11/8/2
f 2/3/1 4/4/1 11/13/1 10/8/1
