# Blender 5.1.1
# www.blender.org
mtllib small_pilaster.mtl
o pilaster_small
v 0.812502 -0.000000 0.875000
v 0.812502 1.000000 0.875000
v 0.187498 -0.000000 0.875000
v 0.187498 1.000000 0.875000
v 0.187498 -0.000000 1.000000
v 0.187498 1.000000 1.000000
v 0.812502 -0.000000 1.000000
v 0.812502 -0.000000 1.000000
v 0.812502 1.000000 1.000000
vn -0.0000 -0.0000 -1.0000
vn -1.0000 -0.0000 -0.0000
vn 1.0000 -0.0000 -0.0000
vn -0.0000 1.0000 -0.0000
vn -0.0000 -1.0000 -0.0000
vn -0.0000 -0.0000 1.0000
vt 0.625000 1.000000
vt 0.000000 1.000000
vt 0.000000 0.000000
vt 0.625000 0.000000
vt 0.125000 0.000000
vt 0.125000 1.000000
vt 0.562500 0.812500
vt 0.437500 0.812500
vt 0.437500 0.187500
vt 0.562500 0.187500
s 0
usemtl column_mat_top
f 4/7/4 6/8/4 9/9/4 2/10/4
f 3/10/5 1/7/5 8/8/5 5/9/5
usemtl column_mat_side
f 4/1/1 2/2/1 1/3/1 3/4/1
f 5/5/2 6/6/2 4/2/2 3/3/2
f 2/6/3 9/2/3 8/3/3 1/5/3
f 6/3/6 5/2/6 8/1/6 9/4/6
