# Blender 5.1.2
# www.blender.org
mtllib small_scamozzi_ionic_half_capital.mtl
o ionic_capital_small
v -0.056705 0.882492 0.548737
v 0.056583 0.882492 0.495908
v -0.080118 0.748750 0.498530
v 0.033170 0.748750 0.445701
v -0.056705 0.615007 0.548737
v 0.056583 0.615007 0.495908
v -0.000180 0.559609 0.669948
v 0.113107 0.559609 0.617119
v 0.056344 0.615007 0.791160
v 0.169632 0.615007 0.738330
v 0.079757 0.748750 0.841367
v 0.193045 0.748750 0.788538
v 0.056344 0.882492 0.791160
v 0.169632 0.882492 0.738330
v -0.000180 0.937890 0.669948
v 0.113107 0.937890 0.617119
v 0.893749 0.693563 0.606252
v 0.893749 0.682147 0.606252
v 0.893749 0.693563 0.793752
v 0.893749 0.682147 0.793752
v 0.706249 0.693563 0.606252
v 0.706249 0.682147 0.606252
v 0.706249 0.693563 0.793752
v 0.706249 0.682147 0.793752
v 0.941196 0.882492 0.493692
v 1.054485 0.882492 0.546517
v 0.964607 0.748750 0.443484
v 1.077897 0.748750 0.496309
v 0.941196 0.615007 0.493692
v 1.054485 0.615007 0.546517
v 0.884676 0.559609 0.614905
v 0.997965 0.559609 0.667730
v 0.828156 0.615007 0.736118
v 0.941445 0.615007 0.788943
v 0.804744 0.748750 0.786326
v 0.918034 0.748750 0.839151
v 0.828156 0.882492 0.736118
v 0.941445 0.882492 0.788943
v 0.884676 0.937890 0.614905
v 0.997965 0.937890 0.667730
v 0.323957 0.658750 0.574997
v 0.323957 0.758750 0.574997
v 0.676041 0.658750 0.574997
v 0.676041 0.758750 0.574997
v 0.925002 0.658750 0.823958
v 0.925002 0.758750 0.823958
v 0.074996 0.658750 0.823958
v 0.074996 0.758750 0.823958
v -0.006312 0.882492 0.558804
v 0.046513 0.882492 0.445515
v -0.056520 0.748750 0.535393
v -0.003695 0.748750 0.422103
v -0.006312 0.615007 0.558804
v 0.046513 0.615007 0.445515
v 0.114902 0.559609 0.615324
v 0.167726 0.559609 0.502034
v 0.236115 0.615007 0.671843
v 0.288940 0.615007 0.558554
v 0.286323 0.748750 0.695254
v 0.339148 0.748750 0.581965
v 0.236115 0.882492 0.671843
v 0.288940 0.882492 0.558554
v 0.114902 0.937890 0.615324
v 0.167726 0.937890 0.502034
v 0.951264 0.882492 0.443298
v 1.004093 0.882492 0.556586
v 1.001471 0.748750 0.419885
v 1.054300 0.748750 0.533173
v 0.951264 0.615007 0.443298
v 1.004093 0.615007 0.556586
v 0.830052 0.559609 0.499822
v 0.882881 0.559609 0.613109
v 0.708841 0.615007 0.556345
v 0.761670 0.615007 0.669633
v 0.658634 0.748750 0.579758
v 0.711463 0.748750 0.693046
v 0.708841 0.882492 0.556345
v 0.761670 0.882492 0.669633
v 0.830052 0.937890 0.499822
v 0.882881 0.937890 0.613109
v 0.106251 0.693563 0.606250
v 0.106251 0.682147 0.606250
v 0.293751 0.693563 0.606250
v 0.293751 0.682147 0.606250
v 0.106251 0.693563 0.793750
v 0.106251 0.682147 0.793750
v 0.293751 0.693563 0.793750
v 0.293751 0.682147 0.793750
v 0.149841 0.755000 1.000000
v 0.850157 0.942500 1.000000
v 0.149841 0.942500 1.000000
v 0.850157 0.755000 1.000000
v 0.499999 0.755000 0.649842
v 0.499999 0.942500 0.649842
v 0.499999 0.755000 1.000000
v 0.499999 0.942500 1.000000
v 0.976824 0.942500 0.581169
v 0.918831 0.942500 0.523175
v 0.918831 0.755000 0.523175
v 0.976824 0.755000 0.581169
v 0.081168 0.942500 0.523175
v 0.023174 0.942500 0.581169
v 0.023174 0.755000 0.581169
v 0.081168 0.755000 0.523175
v 0.123980 0.937500 1.000000
v 0.876019 1.000000 1.000000
v 0.123980 1.000000 1.000000
v 0.876019 0.937500 1.000000
v 0.499999 0.937500 0.623980
v 0.499999 1.000000 0.623980
v 0.499999 0.937500 1.000000
v 0.499999 1.000000 1.000000
v 0.987056 1.000000 0.552199
v 0.947800 1.000000 0.512943
v 0.947800 0.937500 0.512943
v 0.987056 0.937500 0.552199
v 0.052198 1.000000 0.512943
v 0.012942 1.000000 0.552199
v 0.012942 0.937500 0.552199
v 0.052198 0.937500 0.512943
v 0.925002 0.708277 1.001665
v 0.925002 0.658750 1.001665
v 0.493375 0.758750 1.002744
v 0.851317 0.758750 1.001849
v 0.074996 0.709826 1.003790
v 0.074996 0.658750 1.003790
v 0.850717 0.941672 1.001850
v 0.850717 0.755000 1.001850
v 0.850424 0.942500 1.001851
v 0.848300 0.942500 1.001856
v 0.848300 0.755000 1.001856
v 0.850424 0.755000 1.001851
v 0.148751 0.756614 1.003605
v 0.148751 0.755000 1.003605
v 0.153435 0.942500 1.003594
v 0.149322 0.942500 1.003604
v 0.876462 0.999751 1.001786
v 0.876462 0.937500 1.001786
v 0.874227 0.937500 1.001792
v 0.876282 0.937500 1.001786
v 0.123070 0.938012 1.003670
v 0.123070 0.937500 1.003670
v 0.123439 0.937500 1.003669
v 0.127638 0.937500 1.003658
v 0.925002 0.758750 1.001665
v 0.146419 0.758750 1.003611
v 0.074996 0.758750 1.003790
v 0.850717 0.942500 1.001850
v 0.499999 0.942500 1.002727
v 0.499999 0.755000 1.002727
v 0.148751 0.942500 1.003605
v 0.153435 0.755000 1.003594
v 0.876462 1.000000 1.001786
v 0.499999 0.937500 1.002727
v 0.123070 1.000000 1.003670
v 0.506544 0.658750 1.002711
v 0.876282 1.000000 1.001786
v 0.874227 1.000000 1.001792
v 0.127638 1.000000 1.003658
v 0.123439 1.000000 1.003669
v 0.499999 1.000000 1.002727
vn -0.9063 -0.0000 0.4226
vn 0.9063 -0.0000 0.4226
vn 0.4226 -0.0000 -0.9063
vn -0.4226 -0.0000 -0.9063
vn -0.0000 -0.0000 -1.0000
vn 0.7071 -0.0000 -0.7071
vn -0.5681 0.8151 0.1138
vn 0.3936 0.7071 0.5875
vn -0.0000 1.0000 -0.0000
vn -0.7080 -0.5635 -0.4257
vn -1.0000 -0.0000 -0.0000
vn -0.7042 -0.5989 0.3812
vn -0.7071 -0.0000 -0.7071
vn 0.9572 -0.0000 0.2895
vn -0.2895 -0.0000 -0.9572
vn -0.0000 -1.0000 -0.0000
vn 0.2895 -0.0000 -0.9572
vn -0.9572 -0.0000 0.2895
vn -0.9572 -0.0000 -0.2895
vn 0.9706 -0.0000 0.2407
vn -0.2407 -0.0000 -0.9706
vn 0.2407 -0.0000 -0.9706
vn -0.9706 -0.0000 0.2407
vn -0.6678 -0.4633 -0.5826
vn -0.9706 -0.0000 -0.2407
vn -0.6988 -0.6119 0.3705
vn 0.5347 -0.7071 -0.4628
vn -0.5355 -0.8151 -0.2210
vn -0.5875 0.7071 0.3936
vn 0.5775 0.5778 0.5767
vn -0.7080 0.4257 -0.5635
vn -0.5778 0.7885 0.2106
vn 0.2716 -0.7070 0.6530
vn -0.4994 -0.7070 0.5007
vn -0.6537 0.4047 -0.6394
vn -0.6427 0.7660 -0.0080
vn -0.5953 -0.5891 0.5465
vn -0.4628 -0.7071 -0.5347
vn 0.0018 0.7072 0.7071
vn 0.0020 0.5793 0.8151
vn 0.0017 -0.7072 0.7070
vn -0.3905 0.3827 -0.8373
vn -0.3905 -0.3827 -0.8373
vn -0.1617 -0.9239 -0.3468
vn 0.1617 -0.9239 0.3468
vn 0.3905 -0.3827 0.8373
vn 0.3905 0.3827 0.8373
vn 0.9063 -0.0000 -0.4226
vn 0.1617 0.9239 0.3468
vn -0.1617 0.9239 -0.3468
vn -0.0000 -0.0000 1.0000
vn 1.0000 -0.0000 -0.0000
vn 0.3904 0.3827 -0.8373
vn 0.3904 -0.3827 -0.8373
vn 0.1617 -0.9239 -0.3468
vn -0.1617 -0.9239 0.3468
vn -0.3904 -0.3827 0.8373
vn -0.3904 0.3827 0.8373
vn -0.1617 0.9239 0.3468
vn 0.1617 0.9239 -0.3468
vn -0.9063 -0.0000 -0.4226
vn -0.3804 -0.7042 0.5994
vn 0.6938 -0.7070 0.1370
vn -0.8373 0.3827 -0.3904
vn -0.8373 -0.3827 -0.3904
vn -0.3468 -0.9239 -0.1617
vn 0.3468 -0.9239 0.1617
vn 0.8373 -0.3827 0.3904
vn 0.8373 0.3827 0.3904
vn 0.3468 0.9239 0.1617
vn -0.3468 0.9239 -0.1617
vn -0.4226 -0.0000 0.9063
vn 0.8373 0.3827 -0.3905
vn 0.8373 -0.3827 -0.3905
vn 0.3468 -0.9239 -0.1617
vn -0.3468 -0.9239 0.1617
vn -0.8373 -0.3827 0.3905
vn -0.8373 0.3827 0.3905
vn 0.4226 -0.0000 0.9063
vn -0.3468 0.9239 0.1617
vn 0.3468 0.9239 -0.1617
vn 0.5359 0.7070 0.4615
vn -0.6530 0.7070 0.2714
vn 0.5580 0.5564 0.6157
vn 0.4371 0.4349 0.7873
vn 0.5737 -0.6273 0.5267
vn 0.6830 0.5376 0.4944
vn -0.4615 0.7070 0.5359
vn 0.2698 0.7071 -0.6537
vn 0.4724 0.7449 0.4711
vn 0.5347 0.7071 -0.4628
vn -0.6537 0.7071 -0.2698
vn 0.2714 0.7070 0.6531
vn -0.2146 0.6258 0.7499
vn -0.4628 0.7071 -0.5347
vn -0.3937 0.7071 -0.5874
vn 0.2210 -0.8151 -0.5355
vn 0.5359 -0.7071 0.4614
vn -0.6530 -0.7070 0.2715
vn 0.6936 -0.5282 0.4899
vn -0.4614 -0.7071 0.5359
vn 0.7416 0.5177 0.4267
vn 0.9706 -0.0000 -0.2407
vn 0.6702 0.5754 0.4688
vn 0.7235 -0.5927 0.3540
vn 0.9572 -0.0000 -0.2895
vn 0.1138 0.8151 0.5681
vn -0.1371 -0.7070 0.6938
vn 0.7079 0.4257 0.5636
vn 0.5778 0.5774 0.5768
vn 0.7079 -0.5636 0.4257
vn 0.0025 -0.0000 1.0000
vn -0.6537 0.4048 -0.6394
vn 0.0018 -0.7072 0.7071
vn -0.7871 0.2106 0.5798
vn 0.7080 -0.0000 0.7062
vn 0.7080 -0.0001 0.7062
vn -0.5971 -0.3813 0.7057
vn -0.5972 -0.3812 0.7057
vn 0.0018 -0.7072 0.7070
vn 0.5788 -0.5770 0.5762
vn 0.0019 0.7072 0.7071
vn 0.5789 -0.5770 0.5762
vn 0.7081 -0.0000 0.7061
vn 0.7081 0.0001 0.7061
vn 0.5788 0.5768 0.5764
vn -0.7645 0.1470 0.6277
vn -0.4711 0.7449 0.4724
vn 0.2714 0.7070 0.6530
vn -0.2094 0.5778 0.7888
vn -0.3936 0.7071 -0.5875
vn 0.5007 -0.7070 0.4994
vn 0.7416 0.5176 0.4268
vn 0.6635 -0.5726 0.4815
vn 0.5875 0.7071 -0.3936
vn 0.5777 -0.5777 0.5767
vn -0.1370 -0.7070 0.6938
vn 0.5777 -0.5774 0.5770
vt 0.279659 0.542969
vt 0.343051 0.389926
vt 0.496094 0.326533
vt 0.496094 0.759404
vt 0.649137 0.696011
vt 0.649137 0.389926
vt 0.712529 0.542969
vt 0.343051 0.696011
vt 0.496094 0.326534
vt 0.437500 0.625000
vt 0.000000 0.500000
vt 0.437500 0.500000
vt 0.414228 0.999936
vt 0.000064 0.000064
vt 0.414228 0.000064
vt 0.496773 0.507792
vt 0.497825 0.086770
vt 0.707065 0.000100
vt 0.723459 0.563846
vt 0.500000 0.500000
vt 0.723459 0.500000
vt 0.000000 0.812500
vt 0.125000 0.937500
vt 0.000000 0.937500
vt 0.875000 0.812500
vt 1.000000 0.937500
vt 0.875000 0.937500
vt 1.000000 1.000000
vt 0.375000 0.750000
vt 1.000000 0.750000
vt 0.625000 1.000000
vt -0.000000 0.750000
vt 0.625000 0.750000
vt 0.750000 0.500000
vt 0.750000 0.625000
vt 0.625000 0.625000
vt 0.368099 0.486198
vt 0.375000 0.520703
vt 0.375000 0.625000
vt 0.607761 0.875183
vt 0.630621 0.721040
vt 0.854297 0.500000
vt 0.875000 0.520703
vt 0.875000 0.625000
vt 0.250000 0.500000
vt 0.250000 0.625000
vt 0.125000 0.625000
vt 0.388258 0.729719
vt 0.380380 0.750000
vt 1.000000 0.062500
vt 0.500000 0.125000
vt 1.000000 0.125000
vt 0.500000 0.062500
vt 0.000000 0.125000
vt 0.370650 0.491300
vt 0.375000 0.513050
vt 0.504097 0.124488
vt 0.504097 0.125000
vt 0.125098 0.625942
vt 0.126216 0.626216
vt 0.000000 0.625000
vt 0.000064 0.999936
vt 0.999900 0.292934
vt 0.999900 0.707065
vt 0.498042 0.000100
vt 0.500000 0.625000
vt 0.723459 0.625000
vt 0.125000 0.812500
vt 1.000000 0.812500
vt 0.375000 1.000000
vt 0.000000 1.000000
vt 0.625000 0.520703
vt 0.631901 0.486198
vt 0.622239 1.000000
vt 0.459544 0.618059
vt 0.400585 0.617475
vt 0.125000 0.520703
vt 0.145703 0.500000
vt 0.875000 0.625898
vt 0.730913 0.664820
vt 0.601168 0.619373
vt 0.388572 0.666904
vt 0.000000 0.062500
vt 0.374404 0.625596
vt 0.250000 0.625907
vt 0.125000 0.513050
vt 0.138050 0.500000
vt 0.504097 0.062500
vt 0.125000 0.625917
vt 0.000034 0.913284
vt 0.000034 0.492207
vt 0.117672 0.507699
vt 0.000000 0.375000
vt 0.187500 0.125000
vt 0.187500 0.375000
vt 0.625000 0.250000
vt 0.812500 0.000000
vt 0.812500 0.250000
vt 0.812500 0.500000
vt 0.812500 0.750000
vt 0.625000 0.875000
vt 0.812500 0.625000
vt 0.812500 0.875000
vt 0.687500 0.250000
vt 0.687500 0.500000
vt 0.625000 0.500000
vt 0.689033 0.421700
vt 0.689033 0.578300
vt 0.310967 0.421700
vt 0.937500 0.250000
vt 0.937500 0.500000
vt 0.500000 0.375000
vt 0.687500 0.125000
vt 0.687500 0.375000
vt 0.875000 0.500000
vt 0.625000 0.000000
vt 0.375000 0.250000
vt 0.375000 0.000000
vt 0.375000 0.500000
vt 0.125000 0.750000
vt 0.125000 0.500000
vt 0.437500 0.875000
vt 0.562500 0.500000
vt 0.562500 0.750000
vt 0.125000 0.250000
vt 0.312500 0.000000
vt 0.312500 0.250000
vt 0.187500 0.625000
vt 0.125000 1.000000
vt 0.312500 0.750000
vt 0.312500 1.000000
vt 0.312500 0.375000
vt 0.312500 0.625000
vt 0.578300 0.310967
vt 0.495542 0.000100
vt 0.496811 0.507698
vt 0.937500 0.750000
vt 0.250000 1.000000
vt 0.437500 0.750000
vt 0.437500 1.000000
vt 0.000000 0.875000
vt 0.187500 0.875000
vt 0.125000 0.875000
vt 0.312500 0.875000
vt 0.937500 0.375000
vt 0.750000 0.125000
vt 0.937500 0.125000
vt 0.437500 0.437500
vt 0.500000 0.437500
vt 0.498166 0.124771
vt 0.498213 0.126787
vt 0.937500 1.000000
vt 0.500000 0.875000
vt 0.000029 0.999915
vt 0.082646 0.000085
vt 0.082646 0.999971
vt 0.500000 0.250000
vt 0.578300 0.689033
vt 0.421700 0.689033
vt 0.310967 0.578300
vt 0.421700 0.310967
vt 0.750000 0.250000
vt 0.875000 0.750000
vt 0.250000 0.875000
vt 0.125000 0.000000
vt 0.000065 0.999936
vt 0.125000 0.375000
vt 0.999900 0.292935
vt 0.707065 0.999900
vt 0.750000 0.750000
vt 0.250000 0.750000
vt 0.750000 0.375000
vt 0.437500 0.375000
vt 0.937500 0.000000
vt 0.498255 0.124501
vt 0.496352 0.871352
vt 0.497280 0.500000
vt 0.496234 0.875471
vt 0.496415 0.876024
vt 0.495753 0.915890
vt 0.374984 0.625490
vt 0.375000 0.625447
vt 0.498006 0.062749
vt 0.498006 0.062500
vt 0.829427 0.661860
vt 0.404859 0.610288
vt 0.375000 0.625461
vt 0.643205 0.903537
vt 0.216681 0.561909
vt 0.216681 0.625000
vt 0.267130 0.006724
vt 0.000052 0.006724
vt 0.264831 0.000052
vt 0.000034 0.084055
vt 0.000034 0.000034
vt 0.057587 0.000034
vt 0.117672 0.000034
vt 0.117672 0.999966
vt 0.059409 0.999966
vt 0.000034 0.999966
vt 0.000378 0.000029
vt 0.495542 0.999900
vt 0.498006 0.125000
vt 0.498042 0.999900
vt 0.216681 0.500000
vt 0.267130 0.500378
vt 0.000052 0.500378
vt 0.267130 0.996507
vt 0.000052 0.996507
vt 0.001232 0.999948
vt 0.267130 0.999531
vt 0.267130 0.999948
vt 0.000052 0.999948
vt 0.000052 0.999531
vt 0.267130 0.000052
vt 0.000052 0.000865
vt 0.000052 0.000052
s 0
usemtl ionic_volute
f 11/1/1 13/2/1 15/3/1
f 32/4/2 30/5/2 38/2/2
f 56/4/3 54/5/3 62/2/3
f 75/1/4 77/2/4 79/3/4
f 15/3/1 1/6/1 3/7/1
f 3/7/1 5/5/1 15/3/1
f 5/5/1 7/4/1 15/3/1
f 7/4/1 9/8/1 15/3/1
f 9/8/1 11/1/1 15/3/1
f 30/5/2 28/7/2 26/6/2
f 26/6/2 40/9/2 30/5/2
f 40/9/2 38/2/2 30/5/2
f 38/2/2 36/1/2 34/8/2
f 34/8/2 32/4/2 38/2/2
f 54/5/3 52/7/3 50/6/3
f 50/6/3 64/9/3 54/5/3
f 64/9/3 62/2/3 54/5/3
f 62/2/3 60/1/3 58/8/3
f 58/8/3 56/4/3 62/2/3
f 79/3/4 65/6/4 67/7/4
f 67/7/4 69/5/4 79/3/4
f 69/5/4 71/4/4 79/3/4
f 71/4/4 73/8/4 79/3/4
f 73/8/4 75/1/4 79/3/4
usemtl ionic_egg
f 42/10/5 43/11/5 41/12/5
f 44/13/6 45/14/6 43/15/6
f 123/16/7 124/17/8 46/18/9
f 125/19/10 47/20/11 126/21/12
f 48/13/13 41/14/13 47/15/13
f 100/22/6 98/23/6 97/24/6
f 104/25/13 102/26/13 101/27/13
f 97/28/14 92/29/14 100/30/14
f 94/31/15 99/32/15 93/33/15
f 94/34/9 96/35/9 90/36/9
f 99/37/16 100/38/16 92/39/16
f 129/40/9 90/36/9 130/41/9
f 101/28/17 93/29/17 104/30/17
f 91/31/18 103/32/18 89/33/18
f 101/42/9 102/43/9 91/44/9
f 93/45/16 95/46/16 89/47/16
f 133/48/19 89/29/19 134/49/19
f 113/50/20 108/51/20 116/52/20
f 110/53/21 115/54/21 109/51/21
f 115/55/16 116/56/16 108/39/16
f 117/50/22 109/51/22 120/52/22
f 107/53/23 119/54/23 105/51/23
f 109/45/16 111/46/16 105/47/16
f 141/57/24 105/51/25 142/58/26
f 143/59/27 105/47/16 144/60/28
f 42/10/5 44/61/5 43/11/5
f 44/13/6 46/62/6 45/14/6
f 46/18/9 44/63/9 42/64/9
f 124/17/29 145/65/30 46/18/9
f 48/66/11 125/19/31 147/67/32
f 48/13/13 42/62/13 41/14/13
f 100/22/6 99/68/6 98/23/6
f 104/25/13 103/69/13 102/26/13
f 97/28/14 90/70/14 92/29/14
f 94/31/15 98/71/15 99/32/15
f 90/36/9 97/72/9 98/73/9
f 98/73/9 94/34/9 90/36/9
f 95/46/16 93/45/16 92/39/16
f 93/45/16 99/37/16 92/39/16
f 148/74/9 90/36/9 129/40/9
f 95/46/16 131/75/16 150/76/16
f 101/28/17 94/70/17 93/29/17
f 91/31/18 102/71/18 103/32/18
f 96/35/9 94/34/9 91/44/9
f 94/34/9 101/42/9 91/44/9
f 89/47/16 103/77/16 104/78/16
f 104/78/16 93/45/16 89/47/16
f 91/70/19 133/48/19 151/79/19
f 96/35/9 135/80/9 149/81/9
f 134/49/16 89/47/16 152/82/16
f 113/50/20 106/53/20 108/51/20
f 110/53/21 114/83/21 115/54/21
f 111/46/16 109/45/16 108/39/16
f 109/45/16 115/55/16 108/39/16
f 111/46/16 139/84/33 154/85/34
f 117/50/22 110/53/22 109/51/22
f 107/53/23 118/83/23 119/54/23
f 105/47/16 119/86/16 120/87/16
f 120/87/16 109/45/16 105/47/16
f 107/53/25 141/57/35 155/88/36
f 142/89/37 105/47/16 143/59/38
f 95/46/16 152/82/16 89/47/16
f 48/169/9 146/180/96 42/64/9
f 111/46/16 144/60/97 105/47/16
f 108/39/16 140/181/98 139/84/99
f 108/39/16 138/182/100 140/181/101
f 137/183/102 108/51/103 106/53/103
f 106/53/103 153/184/104 137/183/105
f 91/44/9 151/79/9 136/185/9
f 91/44/9 136/185/9 135/80/9
f 92/39/16 132/186/16 131/75/16
f 96/35/9 130/41/9 90/36/9
f 92/39/16 128/187/16 132/186/16
f 127/188/106 92/33/106 90/31/106
f 90/31/106 148/74/106 127/188/106
f 42/64/9 123/16/107 46/18/9
f 121/189/109 45/12/52 46/10/52
f 46/10/52 145/190/110 121/189/111
f 48/66/11 47/20/11 125/19/31
f 95/46/16 92/39/16 131/75/16
f 91/70/19 89/29/19 133/48/19
f 96/35/9 91/44/9 135/80/9
f 111/46/16 108/39/16 139/84/33
f 107/53/25 105/51/25 141/57/113
f 95/46/16 150/76/16 152/82/16
f 48/169/9 147/202/130 146/180/131
f 111/46/16 154/85/132 144/60/97
f 137/183/133 138/203/134 108/51/103
f 96/35/9 149/81/9 130/41/9
f 127/188/106 128/187/106 92/33/106
f 42/64/9 146/180/135 123/16/107
f 121/189/109 122/205/138 45/12/52
usemtl ionic_capital
f 124/90/39 123/91/40 156/92/41
f 2/93/42 3/94/42 1/95/42
f 4/96/43 5/97/43 3/98/43
f 6/33/44 7/99/44 5/100/44
f 8/101/45 9/102/45 7/103/45
f 10/20/46 11/104/46 9/105/46
f 12/106/47 13/98/47 11/99/47
f 8/107/48 6/108/48 14/109/48
f 14/34/49 15/110/49 13/111/49
f 16/112/50 1/113/50 15/114/50
f 21/115/9 19/33/9 17/106/9
f 19/33/51 24/70/51 20/29/51
f 23/116/11 22/117/11 24/118/11
f 18/119/16 24/120/16 22/121/16
f 17/106/52 20/29/52 18/119/52
f 21/96/5 18/119/5 22/117/5
f 25/122/53 28/46/53 27/10/53
f 28/29/54 29/123/54 27/124/54
f 30/125/55 31/126/55 29/127/55
f 31/128/56 34/93/56 33/95/56
f 33/15/57 36/62/57 35/14/57
f 36/13/58 37/14/58 35/15/58
f 38/129/59 39/130/59 37/131/59
f 40/47/60 25/132/60 39/133/60
f 31/109/61 35/134/61 39/108/61
f 126/135/62 47/18/16 156/136/63
f 49/137/64 52/34/64 51/111/64
f 52/138/65 53/139/65 51/140/65
f 54/141/66 55/128/66 53/142/66
f 55/95/67 58/54/67 57/94/67
f 58/29/68 59/123/68 57/124/68
f 60/13/69 61/14/69 59/15/69
f 62/143/70 63/133/70 61/144/70
f 64/29/71 49/123/71 63/124/71
f 61/107/72 63/108/72 55/109/72
f 66/20/73 67/104/73 65/105/73
f 68/106/74 69/98/74 67/99/74
f 69/145/75 72/146/75 71/147/75
f 72/34/76 73/110/76 71/111/76
f 74/13/77 75/14/77 73/15/77
f 76/13/78 77/14/78 75/15/78
f 72/107/79 70/108/79 78/109/79
f 78/20/80 79/104/80 77/105/80
f 79/137/81 66/34/81 65/111/81
f 85/115/9 83/33/9 81/106/9
f 83/33/52 88/70/52 84/29/52
f 87/116/51 86/117/51 88/118/51
f 86/121/16 84/29/16 88/120/16
f 81/106/5 84/29/5 82/119/5
f 85/96/11 82/119/11 86/117/11
f 116/148/6 114/112/6 113/149/6
f 120/148/13 118/112/13 117/149/13
f 110/115/9 112/20/9 106/51/9
f 157/150/82 106/51/9 158/151/83
f 117/26/9 118/152/9 107/153/9
f 137/154/84 141/155/85 138/156/86
f 2/93/42 4/54/42 3/94/42
f 4/96/43 6/116/43 5/97/43
f 6/33/44 8/106/44 7/99/44
f 8/101/45 10/36/45 9/102/45
f 10/20/46 12/157/46 11/104/46
f 12/106/47 14/96/47 13/98/47
f 6/108/48 4/158/48 2/159/48
f 2/159/48 16/160/48 6/108/48
f 16/160/48 14/109/48 6/108/48
f 14/109/48 12/161/48 10/134/48
f 10/134/48 8/107/48 14/109/48
f 14/34/49 16/162/49 15/110/49
f 16/112/50 2/51/50 1/113/50
f 21/115/9 23/163/9 19/33/9
f 19/33/51 23/31/51 24/70/51
f 23/116/11 21/96/11 22/117/11
f 18/119/16 20/29/16 24/120/16
f 17/106/52 19/33/52 20/29/52
f 21/96/5 17/106/5 18/119/5
f 25/122/53 26/164/53 28/46/53
f 28/29/54 30/119/54 29/123/54
f 30/125/55 32/165/55 31/126/55
f 31/128/56 32/61/56 34/93/56
f 33/15/57 34/13/57 36/62/57
f 36/13/58 38/166/58 37/14/58
f 38/129/59 40/120/59 39/130/59
f 40/47/60 26/167/60 25/132/60
f 39/108/61 25/158/61 31/109/61
f 25/158/61 27/159/61 31/109/61
f 27/159/61 29/160/61 31/109/61
f 31/109/61 33/161/61 35/134/61
f 35/134/61 37/107/61 39/108/61
f 47/18/16 41/168/16 43/64/16
f 43/64/16 45/169/16 47/18/16
f 49/137/64 50/170/64 52/34/64
f 52/138/65 54/171/65 53/139/65
f 54/141/66 56/61/66 55/128/66
f 55/95/67 56/93/67 58/54/67
f 58/29/68 60/119/68 59/123/68
f 60/13/69 62/166/69 61/14/69
f 62/143/70 64/47/70 63/133/70
f 64/29/71 50/119/71 49/123/71
f 63/108/72 49/158/72 51/159/72
f 51/159/72 53/160/72 63/108/72
f 53/160/72 55/109/72 63/108/72
f 55/109/72 57/161/72 59/134/72
f 59/134/72 61/107/72 55/109/72
f 66/20/73 68/157/73 67/104/73
f 68/106/74 70/96/74 69/98/74
f 69/145/75 70/172/75 72/146/75
f 72/34/76 74/162/76 73/110/76
f 74/13/77 76/62/77 75/14/77
f 76/13/78 78/166/78 77/14/78
f 70/108/79 68/158/79 78/109/79
f 68/158/79 66/159/79 78/109/79
f 66/159/79 80/160/79 78/109/79
f 78/109/79 76/161/79 74/134/79
f 74/134/79 72/107/79 78/109/79
f 78/20/80 80/157/80 79/104/80
f 79/137/81 80/170/81 66/34/81
f 85/115/9 87/163/9 83/33/9
f 83/33/52 87/31/52 88/70/52
f 87/116/51 85/96/51 86/117/51
f 86/121/16 82/119/16 84/29/16
f 81/106/5 83/33/5 84/29/5
f 85/96/11 81/106/11 82/119/11
f 116/148/6 115/173/6 114/112/6
f 120/148/13 119/173/13 118/112/13
f 106/51/9 113/174/9 114/50/9
f 114/50/9 110/115/9 106/51/9
f 153/175/87 106/51/9 157/150/88
f 112/20/9 110/115/9 107/153/9
f 110/115/9 117/26/9 107/153/9
f 112/20/9 159/176/89 161/177/90
f 107/153/9 160/178/91 159/176/92
f 112/20/9 158/151/93 106/51/9
f 107/153/9 155/179/94 160/178/95
f 45/169/16 156/136/108 47/18/16
f 152/191/112 135/192/112 133/193/112
f 146/194/114 147/195/115 125/196/116
f 125/196/117 126/197/118 146/194/114
f 126/197/119 156/92/120 146/194/114
f 156/92/120 122/198/121 124/90/122
f 122/198/123 121/199/124 124/90/39
f 121/199/125 145/200/126 124/90/39
f 123/91/40 146/194/114 156/92/120
f 137/154/84 155/201/127 141/155/85
f 112/20/9 107/153/9 159/176/89
f 112/20/9 161/177/128 158/151/129
f 45/169/16 122/204/136 156/136/137
f 152/191/112 150/206/112 149/207/112
f 150/206/112 131/208/112 130/209/112
f 130/209/112 131/208/112 127/210/112
f 132/211/112 128/212/112 127/210/112
f 131/208/112 132/211/112 127/210/112
f 127/210/112 148/213/112 129/214/112
f 130/209/112 149/207/112 150/206/112
f 149/207/112 135/192/112 152/191/112
f 127/210/112 129/214/112 130/209/112
f 133/193/112 134/215/112 152/191/112
f 136/216/112 151/217/112 133/193/112
f 135/192/112 136/216/112 133/193/112
