# Blender 5.1.2
# www.blender.org
mtllib small_roman_doric_half_base.mtl
o Cube.296
v 0.292894 0.207435 0.499999
v 0.292894 0.321095 0.499999
v 0.707106 0.207435 0.499999
v 0.707106 0.321095 0.499999
v 0.999998 0.207435 0.792891
v 0.999998 0.321095 0.792891
v 0.000002 0.207435 0.792891
v 0.000002 0.321095 0.792891
v 0.648299 0.471119 0.641971
v 0.351701 0.471119 0.641971
v 0.858026 0.471119 0.851698
v 0.141974 0.471119 0.851698
v 0.000006 0.207435 0.499999
v 0.999994 0.207435 0.499999
v 0.000006 -0.000003 0.499999
v 0.999994 -0.000003 0.499999
v 0.999998 0.207435 1.000000
v 0.999998 0.321095 1.000000
v 0.000002 0.207435 1.000000
v 0.000002 0.321095 1.000000
v 0.858026 0.471119 1.000000
v 0.141974 0.471119 1.000000
v 0.999994 0.207435 1.000000
v 0.000006 0.207435 1.000000
v 0.999994 -0.000003 1.000000
v 0.000006 -0.000003 1.000000
vn -0.0000 -0.0000 -1.0000
vn 0.7071 -0.0000 -0.7071
vn -0.0000 -0.0000 1.0000
vn -1.0000 -0.0000 -0.0000
vn -0.7071 -0.0000 -0.7071
vn 1.0000 -0.0000 -0.0000
vn -0.5136 0.6873 -0.5136
vn -0.0000 0.6873 -0.7263
vn 0.7263 0.6873 -0.0000
vn 0.5136 0.6873 -0.5136
vn -0.0000 1.0000 -0.0000
vn -0.0000 -1.0000 -0.0000
vn -0.7263 0.6873 -0.0000
vn 0.0042 -0.0000 1.0000
vt 0.249687 0.600125
vt 0.600125 0.700250
vt 0.249687 0.700250
vt 0.499687 0.475125
vt 0.850125 0.575250
vt 0.499687 0.575250
vt 0.000046 0.999954
vt 0.207467 0.000046
vt 0.207467 0.999954
vt 0.826152 0.999835
vt 0.712528 0.999839
vt 0.562551 0.857912
vt 0.799904 0.787625
vt 0.975125 0.887750
vt 0.799904 0.887750
vt 0.312187 0.225125
vt 0.662625 0.325250
vt 0.312187 0.325250
vt 0.500034 0.383634
vt 0.954136 0.553900
vt 0.500034 0.553866
vt 0.490071 0.184061
vt 0.180838 0.360980
vt 0.139020 0.184061
vt 0.615071 0.559061
vt 0.305838 0.735980
vt 0.264020 0.559061
vt 0.752043 0.746561
vt 0.885753 0.923480
vt 0.752043 0.923480
vt 0.014020 0.371561
vt 0.323253 0.548480
vt 0.055838 0.548480
vt 0.000064 0.999936
vt 0.414228 0.999936
vt 0.045996 0.991376
vt 0.954004 0.821124
vt 0.954004 0.991376
vt 0.931643 0.068354
vt 0.068357 0.500003
vt 0.068357 0.068354
vt 0.045938 0.571167
vt 0.500040 0.741366
vt 0.045938 0.741333
vt 0.931640 0.500002
vt 0.068354 0.068354
vt 0.931640 0.068354
vt 0.809081 0.500002
vt 0.190919 0.500002
vt 0.628026 0.190919
vt 0.252048 0.746561
vt 0.118338 0.923480
vt 0.076520 0.746561
vt 0.062187 0.037625
vt 0.237409 0.137750
vt 0.062187 0.137750
vt 0.600125 0.600125
vt 0.850125 0.475125
vt 0.000046 0.000046
vt 0.712528 0.000161
vt 0.826152 0.000051
vt 0.826152 0.000165
vt 0.826152 0.999949
vt 0.562551 0.142088
vt 0.975125 0.787625
vt 0.662625 0.225125
vt 0.954136 0.383600
vt 0.448253 0.360980
vt 0.573253 0.735980
vt 0.927571 0.746561
vt 0.365071 0.371561
vt 0.045996 0.821124
vt 0.931643 0.500002
vt 0.500040 0.571134
vt 0.068354 0.500003
vt 0.190919 0.371974
vt 0.371974 0.190919
vt 0.809081 0.371974
vt 0.252048 0.923480
vt 0.237409 0.037625
s 0
usemtl roman_doric_base
f 2/1/1 3/2/1 1/3/1
f 4/4/2 5/5/2 3/6/2
f 23/7/3 26/8/3 25/9/3
f 23/10/3 18/11/3 21/12/3
f 20/13/4 7/14/4 19/15/4
f 8/16/5 1/17/5 7/18/5
f 25/19/6 14/20/6 23/21/6
f 8/22/7 10/23/7 2/24/7
f 2/25/8 9/26/8 4/27/8
f 18/28/9 11/29/9 21/30/9
f 6/31/10 9/32/10 11/33/10
f 1/34/11 14/35/11 13/34/11
f 14/36/1 15/37/1 13/38/1
f 16/39/12 26/40/12 15/41/12
f 15/42/4 24/43/4 13/44/4
f 24/45/11 14/46/11 13/47/11
f 22/48/11 21/49/11 10/50/11
f 20/51/13 12/52/13 8/53/13
f 6/54/6 17/55/6 5/56/6
f 2/1/1 4/57/1 3/2/1
f 4/4/2 6/58/2 5/5/2
f 23/7/3 24/59/3 26/8/3
f 20/60/3 19/61/3 24/62/3
f 23/10/14 17/63/14 18/11/14
f 20/60/3 24/62/3 22/64/3
f 24/62/3 23/10/3 21/12/3
f 21/12/3 22/64/3 24/62/3
f 20/13/4 8/65/4 7/14/4
f 8/16/5 2/66/5 1/17/5
f 25/19/6 16/67/6 14/20/6
f 8/22/7 12/68/7 10/23/7
f 2/25/8 10/69/8 9/26/8
f 18/28/9 6/70/9 11/29/9
f 6/31/10 4/71/10 9/32/10
f 1/34/12 3/35/12 14/35/12
f 14/36/1 16/72/1 15/37/1
f 16/39/12 25/73/12 26/40/12
f 15/42/4 26/74/4 24/43/4
f 24/45/11 23/75/11 14/46/11
f 11/76/11 9/77/11 21/49/11
f 9/77/11 10/50/11 21/49/11
f 10/50/11 12/78/11 22/48/11
f 20/51/13 22/79/13 12/52/13
f 6/54/6 18/80/6 17/55/6
