# Blender 5.1.1
# www.blender.org
mtllib small_pilaster_down.mtl
o pilaster_small
v 0.187498 -0.000000 0.110151
v 0.187498 1.000000 0.110151
v 0.812502 -0.000000 0.110151
v 0.812502 1.000000 0.110151
v 0.812502 -0.000000 -0.000000
v 0.812502 1.000000 -0.000000
v 0.187498 -0.000000 0.000000
v 0.187498 -0.000000 0.000000
v 0.187498 1.000000 0.000000
v 0.812502 -0.750000 0.110151
v 0.187498 -0.750000 0.110151
v 0.812502 -0.750000 -0.000000
v 0.187498 -0.750000 0.000000
vn -0.0000 -0.0000 1.0000
vn 1.0000 -0.0000 -0.0000
vn -1.0000 -0.0000 -0.0000
vn -0.0000 -0.0000 -1.0000
vn -0.0000 1.0000 -0.0000
vn -0.0000 -1.0000 -0.0000
vt 0.625000 1.000000
vt 0.000000 1.000000
vt 0.000000 0.000000
vt 0.625000 0.000000
vt 0.125000 0.000000
vt 0.125000 1.000000
vt 0.000000 0.250000
vt 0.125000 0.250000
vt 0.437500 0.812500
vt 0.437500 0.187500
vt 0.562500 0.187500
vt 0.562500 0.812500
vt 0.000000 0.750000
vt 0.625000 0.750000
vt 0.625000 0.250000
s 0
usemtl column_mat_top
f 2/9/5 4/10/5 6/11/5 9/12/5
f 10/11/6 11/12/6 13/9/6 12/10/6
usemtl column_mat_side
f 4/1/1 2/2/1 1/3/1 3/4/1
f 5/5/2 6/6/2 4/2/2 3/3/2
f 2/6/3 9/2/3 8/3/3 1/5/3
f 5/6/2 3/2/2 10/7/2 12/8/2
f 6/3/4 5/2/4 8/1/4 9/4/4
f 8/4/4 5/3/4 12/13/4 13/14/4
f 3/1/1 1/2/1 11/7/1 10/15/1
f 1/6/3 8/2/3 13/7/3 11/8/3
