# Blender 5.1.0
# www.blender.org
mtllib small_corner_ionic_capital.mtl
o corner
v 0.000000 1.001250 0.000000
v 0.000000 0.938750 0.000000
v 1.000000 1.001250 0.000000
v 1.000000 0.938750 0.000000
v 0.000000 1.001250 1.000000
v 0.000000 0.938750 1.000000
v 1.000000 1.001250 1.000000
v 1.000000 0.938750 1.000000
v 0.106251 0.848369 0.106250
v 0.106251 0.669745 0.106250
v 0.293751 0.848369 0.106250
v 0.293751 0.669745 0.106250
v 0.106251 0.848369 0.293750
v 0.106251 0.669745 0.293750
v 0.293751 0.848369 0.293750
v 0.293751 0.669745 0.293750
v -0.006308 0.883743 0.058803
v 0.046517 0.883743 -0.054486
v -0.056516 0.750000 0.035392
v -0.003691 0.750000 -0.077897
v -0.006308 0.616257 0.058803
v 0.046517 0.616257 -0.054486
v 0.114905 0.560859 0.115323
v 0.167730 0.560859 0.002034
v 0.236118 0.616257 0.171843
v 0.288943 0.616257 0.058554
v 0.286326 0.750000 0.195255
v 0.339151 0.750000 0.081965
v 0.236118 0.883743 0.171843
v 0.288943 0.883743 0.058554
v 0.114905 0.939141 0.115323
v 0.167730 0.939141 0.002034
v 0.074997 0.660000 0.676042
v 0.074997 0.760000 0.676042
v 0.074997 0.660000 0.323958
v 0.074997 0.760000 0.323958
v 0.323958 0.660000 0.074997
v 0.323958 0.760000 0.074997
v 0.676042 0.660000 0.074997
v 0.676042 0.760000 0.074997
v 0.925003 0.660000 0.323958
v 0.925003 0.760000 0.323958
v 0.925003 0.660000 0.676042
v 0.925003 0.760000 0.676042
v 0.676042 0.660000 0.925003
v 0.676042 0.760000 0.925003
v 0.323958 0.660000 0.925003
v 0.323958 0.760000 0.925003
v 0.726257 0.883743 0.122500
v 0.726257 0.883743 -0.002500
v 0.670859 0.750000 0.122500
v 0.670859 0.750000 -0.002500
v 0.726257 0.616258 0.122500
v 0.726257 0.616258 -0.002500
v 0.860000 0.560859 0.122500
v 0.860000 0.560859 -0.002500
v 0.993742 0.616258 0.122500
v 0.993742 0.616258 -0.002500
v 1.049140 0.750000 0.122500
v 1.049140 0.750000 -0.002500
v 0.993742 0.883743 0.122500
v 0.993742 0.883743 -0.002500
v 0.860000 0.939141 0.122500
v 0.860000 0.939141 -0.002500
v -0.056702 0.883743 0.048735
v 0.056585 0.883743 -0.004094
v -0.080115 0.750000 -0.001472
v 0.033172 0.750000 -0.054301
v -0.056702 0.616257 0.048735
v 0.056585 0.616257 -0.004094
v -0.000179 0.560859 0.169947
v 0.113109 0.560859 0.117118
v 0.056345 0.616257 0.291158
v 0.169633 0.616257 0.238329
v 0.079758 0.750000 0.341365
v 0.193046 0.750000 0.288536
v 0.056345 0.883743 0.291158
v 0.169633 0.883743 0.238329
v -0.000179 0.939141 0.169947
v 0.113109 0.939141 0.117118
v 0.115000 0.844427 0.765566
v 0.885000 0.844427 0.765565
v 0.115000 0.750000 0.726453
v 0.885000 0.750000 0.726452
v 0.115000 0.655573 0.765566
v 0.885000 0.655573 0.765566
v 0.115000 0.616460 0.859993
v 0.885000 0.616460 0.859993
v 0.115000 0.655573 0.954420
v 0.885000 0.655573 0.954420
v 0.115000 0.750000 0.993533
v 0.885000 0.750000 0.993533
v 0.115000 0.844427 0.954420
v 0.885000 0.844427 0.954420
v 0.115000 0.883540 0.859993
v 0.885000 0.883540 0.859993
v -0.002500 0.883743 0.726254
v 0.122500 0.883743 0.726254
v -0.002500 0.750000 0.670856
v 0.122500 0.750000 0.670856
v -0.002500 0.616257 0.726254
v 0.122500 0.616257 0.726254
v -0.002500 0.560859 0.859997
v 0.122500 0.560859 0.859996
v -0.002500 0.616257 0.993739
v 0.122500 0.616257 0.993739
v -0.002500 0.750000 1.049137
v 0.122500 0.750000 1.049137
v -0.002500 0.883743 0.993739
v 0.122500 0.883743 0.993739
v -0.002500 0.939141 0.859997
v 0.122500 0.939141 0.859996
v 0.072500 0.943750 0.072500
v 0.072500 0.756250 0.072500
v 0.927500 0.943750 0.072500
v 0.927500 0.756250 0.072500
v 0.072500 0.943750 0.927500
v 0.072500 0.756250 0.927500
v 0.927500 0.943750 0.927500
v 0.927500 0.756250 0.927500
v 0.877500 0.883743 0.726253
v 0.726257 0.883742 1.002500
v 1.002500 0.883743 0.726253
v 0.726257 0.883742 0.877500
v 0.877500 0.750000 0.670855
v 0.670859 0.750000 1.002500
v 1.002500 0.750000 0.670855
v 0.670859 0.750000 0.877500
v 0.877500 0.616258 0.726253
v 0.726257 0.616257 1.002500
v 1.002500 0.616258 0.726253
v 0.726257 0.616257 0.877500
v 0.877500 0.560859 0.859996
v 0.860000 0.560859 1.002500
v 1.002500 0.560859 0.859996
v 0.860000 0.560859 0.877500
v 0.993743 0.616257 1.002500
v 1.002500 0.616258 0.993739
v 0.993743 0.883742 1.002500
v 1.002500 0.883743 0.993739
v 0.877500 0.939141 0.859996
v 0.860000 0.939140 1.002500
v 1.002500 0.939141 0.859996
v 0.860000 0.939140 0.877500
v 0.993743 0.616257 0.993737
v 0.993743 0.616258 0.993739
v 0.877500 0.568110 0.877500
v 0.877505 0.568110 0.877500
v 1.002500 0.637400 1.002496
v 1.002500 0.637409 1.002500
v 1.002500 0.862600 1.002497
v 1.002500 0.862592 1.002500
v 0.993743 0.883742 0.993739
v 0.993741 0.883743 0.993739
v 0.877502 0.931891 0.877500
v 0.877500 0.931891 0.877500
v 0.765569 0.844427 0.885000
v 0.765569 0.844427 0.115000
v 0.726456 0.750000 0.885000
v 0.726456 0.750000 0.115000
v 0.765569 0.655573 0.885000
v 0.765569 0.655573 0.115000
v 0.859996 0.616460 0.885000
v 0.859996 0.616460 0.115000
v 0.954423 0.655573 0.885000
v 0.954423 0.655573 0.115000
v 0.993536 0.750000 0.885000
v 0.993536 0.750000 0.115000
v 0.954423 0.844427 0.885000
v 0.954423 0.844427 0.115000
v 0.859996 0.883540 0.885000
v 0.859996 0.883540 0.115000
vn -0.0000 1.0000 -0.0000
vn 1.0000 -0.0000 -0.0000
vn -0.0000 -0.0000 1.0000
vn -0.0000 -1.0000 -0.0000
vn -0.0000 -0.0000 -1.0000
vn -1.0000 -0.0000 -0.0000
vn -0.8373 0.3827 -0.3904
vn -0.8373 -0.3827 -0.3904
vn -0.3468 -0.9239 -0.1617
vn 0.3468 -0.9239 0.1617
vn 0.8373 -0.3827 0.3904
vn 0.8373 0.3827 0.3904
vn 0.4226 -0.0000 -0.9063
vn 0.3468 0.9239 0.1617
vn -0.3468 0.9239 -0.1617
vn -0.4226 -0.0000 0.9063
vn -0.7071 -0.0000 -0.7071
vn 0.7071 -0.0000 -0.7071
vn 0.7071 -0.0000 0.7071
vn -0.7071 -0.0000 0.7071
vn -0.9239 0.3827 -0.0000
vn -0.9239 -0.3827 -0.0000
vn -0.3827 -0.9239 -0.0000
vn 0.3827 -0.9239 -0.0000
vn 0.9239 -0.3827 -0.0000
vn 0.9239 0.3827 -0.0000
vn 0.3827 0.9239 -0.0000
vn -0.3827 0.9239 -0.0000
vn -0.3905 0.3827 -0.8373
vn -0.3905 -0.3827 -0.8373
vn -0.1617 -0.9239 -0.3468
vn 0.1617 -0.9239 0.3468
vn 0.3905 -0.3827 0.8373
vn 0.3905 0.3827 0.8373
vn 0.9063 -0.0000 -0.4226
vn 0.1617 0.9239 0.3468
vn -0.1617 0.9239 -0.3468
vn -0.9063 -0.0000 0.4226
vn -0.0000 0.3827 -0.9239
vn -0.0000 -0.3827 -0.9239
vn -0.0000 -0.9239 -0.3827
vn -0.0000 -0.9239 0.3827
vn -0.0000 -0.3827 0.9239
vn -0.0000 0.3827 0.9239
vn -0.0000 0.9239 0.3827
vn -0.0000 0.9239 -0.3827
vn 0.6700 0.2842 0.6858
vn 0.8993 -0.4373 -0.0000
vn -0.0000 -0.9228 0.3854
vn -0.0000 -0.9164 0.4004
vn -0.0000 0.4114 0.9114
vn -0.0000 0.9251 0.3797
vn 0.3804 0.9248 -0.0000
vn 0.9239 -0.3825 -0.0000
vt 1.000000 1.000000
vt 0.000000 -0.000000
vt 1.000000 0.000000
vt 1.000000 0.250000
vt 0.000000 0.312500
vt 1.000000 0.312500
vt 1.000000 0.187500
vt 0.000000 0.250000
vt 0.375000 0.500000
vt 0.125000 0.750000
vt 0.125000 0.500000
vt 1.000000 0.062500
vt 0.000000 0.125000
vt 1.000000 0.125000
vt 0.000000 0.187500
vt 0.875000 0.500000
vt 0.625000 0.750000
vt 0.625000 0.500000
vt 0.375000 1.000000
vt 0.375000 0.750000
vt 0.625000 0.000000
vt 0.375000 0.250000
vt 0.375000 0.000000
vt 0.625000 0.250000
vt 0.625000 1.000000
vt 0.812500 0.750000
vt 0.812500 1.000000
vt 0.343051 0.696011
vt 0.496094 0.759404
vt 0.649137 0.696011
vt 0.624239 0.200060
vt 0.799940 0.375761
vt 0.799940 0.624239
vt 0.937500 0.625000
vt 0.500000 0.500000
vt 0.937500 0.500000
vt 0.437500 0.625000
vt 0.000000 0.500000
vt 0.437500 0.500000
vt 0.414228 0.999936
vt 0.000064 0.000064
vt 0.414228 0.000064
vt 0.414228 0.999936
vt 0.000064 0.000064
vt 0.414228 0.000064
vt 0.292935 0.000100
vt 0.707065 0.000100
vt 0.292935 0.999900
vt 0.000064 0.000064
vt 0.414228 0.000064
vt 0.414228 0.999936
vt 0.000064 0.000064
vt 0.414228 0.000064
vt 0.292935 0.000100
vt 0.707065 0.000100
vt 0.292935 0.999900
vt 0.343051 0.696011
vt 0.343051 0.389926
vt 0.649137 0.389926
vt 0.200060 0.375761
vt 0.000100 0.292935
vt 0.343051 0.389926
vt 0.496094 0.326533
vt 0.496094 0.759404
vt 0.257763 0.999964
vt 0.125037 0.000036
vt 0.257764 0.000036
vt 0.757763 0.999964
vt 0.625037 0.000036
vt 0.757764 0.000036
vt 0.632763 0.999964
vt 0.500037 0.000036
vt 0.632764 0.000036
vt 0.507763 0.999964
vt 0.375037 0.000036
vt 0.507764 0.000036
vt 0.382763 0.999964
vt 0.250037 0.000036
vt 0.382764 0.000036
vt 0.132763 0.999964
vt 0.000037 0.000036
vt 0.132764 0.000036
vt 0.999900 0.707065
vt 0.649136 0.389926
vt 0.496094 0.326533
vt 0.496094 0.759404
vt -0.000000 0.750000
vt 1.000000 0.750000
vt 0.125000 0.625000
vt 0.250000 0.375000
vt 0.250000 0.625000
vt 0.414228 0.929886
vt 0.348757 0.999936
vt 0.000065 0.999936
vt 0.000064 0.929884
vt 0.065539 0.999936
vt 0.688437 0.711364
vt 0.691493 0.423005
vt 0.265281 0.562684
vt 0.187500 0.375000
vt 0.223055 0.352766
vt 0.799940 0.591719
vt 0.375761 0.799940
vt 0.000064 0.000064
vt 0.414227 0.999936
vt 0.000064 0.999935
vt 0.414227 0.999936
vt 0.000063 0.000065
vt 0.414226 0.000064
vt 0.414227 0.000064
vt 0.000064 0.999936
vt 0.652876 0.999900
vt 0.254619 0.038423
vt 0.999899 0.292934
vt 0.125000 0.375000
vt 0.246641 0.953606
vt 0.799940 0.375760
vt 0.000064 0.929886
vt 0.375761 0.200060
vt 0.000064 0.070158
vt 0.414228 0.999936
vt 0.000064 0.999936
vt 0.382764 0.000036
vt 0.250037 0.999964
vt 0.685196 0.419580
vt 0.685484 0.419591
vt 0.685150 0.707580
vt -0.000000 1.000000
vt 0.000000 0.062500
vt 0.875000 0.750000
vt 0.712529 0.542969
vt 0.343051 0.389926
vt 0.649137 0.389926
vt 0.496094 0.326533
vt 0.279659 0.542969
vt 0.624239 0.799940
vt 0.200060 0.624239
vt 0.500000 0.625000
vt 0.000000 0.625000
vt 0.000064 0.999936
vt 0.999900 0.292934
vt 0.707065 0.999900
vt 0.000100 0.707065
vt 0.000064 0.999936
vt 0.000064 0.999936
vt 0.999900 0.292935
vt 0.999900 0.707065
vt 0.707065 0.999900
vt 0.000100 0.707065
vt 0.000100 0.292935
vt 0.279659 0.542969
vt 0.712529 0.542969
vt 0.649137 0.696011
vt 0.496094 0.759404
vt 0.649137 0.389926
vt 0.712529 0.542969
vt 0.649136 0.696011
vt 0.343051 0.696011
vt 0.125036 0.999964
vt 0.625036 0.999964
vt 0.500036 0.999964
vt 0.375036 0.999964
vt 0.000036 0.999964
vt 0.343051 0.389926
vt 0.343051 0.696011
vt 0.649137 0.696011
vt 0.000064 0.929872
vt 0.680566 0.395802
vt 0.510053 0.323046
vt 0.338036 0.392171
vt 0.334406 0.734701
vt 0.504919 0.807456
vt 0.676935 0.738331
vt 0.414227 0.000064
vt 0.000063 0.999936
vt 0.254606 0.038429
vt 0.292934 0.000100
vt 0.652869 0.999900
vt 0.000065 0.999936
vt 0.414228 0.070143
vt 0.415056 0.200066
vt 0.414228 0.000064
vt 0.375037 0.999964
vt 0.685172 0.707603
vt 0.673940 0.734629
vt 0.502883 0.805448
vt 0.331850 0.734569
vt 0.261030 0.563511
vt 0.331909 0.392478
vt 0.502967 0.321659
vt 0.674000 0.392538
s 0
usemtl ionic_volute
f 2/9/4 8/10/4 6/11/4
f 26/28/13 24/29/13 22/30/13
f 27/31/16 29/32/16 31/33/16
f 54/57/5 50/58/5 62/59/5
f 61/32/3 63/33/3 55/60/3
f 78/48/35 74/61/35 70/47/35
f 77/62/38 79/63/38 71/64/38
f 102/47/2 98/83/2 110/48/2
f 109/84/6 111/85/6 103/86/6
f 146/92/43 138/40/43 149/93/43
f 140/94/44 153/95/44 151/96/44
f 150/97/3 152/98/3 126/99/3
f 147/101/6 156/102/6 125/103/6
f 130/110/23 136/111/23 134/49/23
f 156/112/5 147/113/5 128/114/5
f 151/116/47 139/117/47 152/2/47
f 146/118/48 137/119/48 145/120/48
f 151/125/2 152/126/2 150/127/2
f 2/9/4 4/20/4 8/10/4
f 22/30/13 20/131/13 30/132/13
f 20/131/13 18/133/13 30/132/13
f 18/133/13 32/134/13 30/132/13
f 30/132/13 28/135/13 22/30/13
f 28/135/13 26/28/13 22/30/13
f 31/33/16 17/136/16 19/103/16
f 19/103/16 21/137/16 31/33/16
f 21/137/16 23/60/16 31/33/16
f 23/60/16 25/119/16 31/33/16
f 25/119/16 27/31/16 31/33/16
f 54/57/5 52/151/5 50/58/5
f 50/58/5 64/134/5 62/59/5
f 62/59/5 60/152/5 54/57/5
f 60/152/5 58/153/5 54/57/5
f 58/153/5 56/154/5 54/57/5
f 63/33/3 49/136/3 51/103/3
f 51/103/3 53/137/3 63/33/3
f 53/137/3 55/60/3 63/33/3
f 55/60/3 57/119/3 59/31/3
f 59/31/3 61/32/3 55/60/3
f 70/47/35 68/141/35 66/83/35
f 66/83/35 80/142/35 70/47/35
f 80/142/35 78/48/35 70/47/35
f 78/48/35 76/143/35 74/61/35
f 74/61/35 72/46/35 70/47/35
f 79/63/38 65/155/38 67/156/38
f 67/156/38 69/157/38 79/63/38
f 69/157/38 71/64/38 79/63/38
f 71/64/38 73/158/38 75/135/38
f 75/135/38 77/62/38 71/64/38
f 102/47/2 100/141/2 98/83/2
f 98/83/2 112/142/2 110/48/2
f 110/48/2 108/143/2 106/61/2
f 106/61/2 104/46/2 110/48/2
f 104/46/2 102/47/2 110/48/2
f 111/85/6 97/164/6 99/135/6
f 99/135/6 101/165/6 111/85/6
f 101/165/6 103/86/6 111/85/6
f 103/86/6 105/166/6 107/152/6
f 107/152/6 109/84/6 103/86/6
f 140/94/51 154/167/51 153/95/51
f 152/98/3 139/168/3 142/169/3
f 142/169/3 122/170/3 152/98/3
f 122/170/3 126/99/3 152/98/3
f 126/99/3 130/171/3 150/97/3
f 130/171/3 134/172/3 150/97/3
f 134/172/3 137/173/3 150/97/3
f 156/102/6 141/33/6 121/136/6
f 121/136/6 125/103/6 156/102/6
f 125/103/6 129/137/6 147/101/6
f 129/137/6 133/60/6 147/101/6
f 130/110/23 132/40/23 136/111/23
f 147/113/5 148/176/5 136/177/5
f 136/177/5 132/47/5 147/113/5
f 132/47/5 128/114/5 147/113/5
f 128/114/5 124/83/5 156/112/5
f 124/83/5 144/142/5 156/112/5
f 144/142/5 155/178/5 156/112/5
f 151/116/26 153/180/26 139/117/26
f 146/118/54 150/181/54 137/119/54
f 150/127/2 149/184/2 138/185/2
f 138/185/2 135/186/2 150/127/2
f 135/186/2 131/187/2 150/127/2
f 131/187/2 127/188/2 150/127/2
f 127/188/2 123/189/2 151/125/2
f 150/127/2 127/188/2 151/125/2
f 123/189/2 143/190/2 151/125/2
f 143/190/2 140/191/2 151/125/2
usemtl ionic_egg
f 3/4/2 8/5/2 4/6/2
f 7/7/3 6/8/3 8/4/3
f 1/12/5 4/13/5 2/14/5
f 5/14/6 2/15/6 6/7/6
f 34/34/6 35/35/6 33/36/6
f 36/37/17 37/38/17 35/39/17
f 38/37/5 39/38/5 37/39/5
f 40/37/18 41/38/18 39/39/18
f 42/40/2 43/41/2 41/42/2
f 44/43/19 45/44/19 43/45/19
f 40/46/1 38/47/1 46/48/1
f 46/40/3 47/49/3 45/50/3
f 48/51/20 33/52/20 47/53/20
f 117/16/1 115/17/1 113/18/1
f 115/1/2 120/87/2 116/88/2
f 119/1/3 118/87/3 120/88/3
f 114/9/4 120/10/4 118/11/4
f 113/1/5 116/87/5 114/88/5
f 117/1/6 114/87/6 118/88/6
f 3/4/2 7/8/2 8/5/2
f 7/7/3 5/15/3 6/8/3
f 1/12/5 3/129/5 4/13/5
f 5/14/6 1/13/6 2/15/6
f 34/34/6 36/138/6 35/35/6
f 36/37/17 38/139/17 37/38/17
f 38/37/5 40/139/5 39/38/5
f 40/37/18 42/139/18 41/38/18
f 42/40/2 44/140/2 43/41/2
f 44/43/19 46/94/19 45/44/19
f 38/47/1 36/141/1 34/83/1
f 34/83/1 48/142/1 38/47/1
f 48/142/1 46/48/1 38/47/1
f 46/48/1 44/143/1 42/61/1
f 42/61/1 40/46/1 46/48/1
f 46/40/3 48/144/3 47/49/3
f 48/51/20 34/145/20 33/52/20
f 117/16/1 119/130/1 115/17/1
f 115/1/2 119/128/2 120/87/2
f 119/1/3 117/128/3 118/87/3
f 114/9/4 116/20/4 120/10/4
f 113/1/5 115/128/5 116/87/5
f 117/1/6 113/128/6 114/87/6
usemtl ionic_capital
f 5/1/1 3/2/1 1/3/1
f 13/16/1 11/17/1 9/18/1
f 11/17/2 16/19/2 12/20/2
f 15/21/3 14/22/3 16/23/3
f 10/9/4 16/10/4 14/11/4
f 9/18/5 12/20/5 10/9/5
f 13/24/6 10/9/6 14/22/6
f 18/25/7 19/26/7 17/27/7
f 20/25/8 21/26/8 19/27/8
f 22/25/9 23/26/9 21/27/9
f 24/25/10 25/26/10 23/27/10
f 26/25/11 27/26/11 25/27/11
f 27/27/12 30/17/12 29/26/12
f 30/25/14 31/26/14 29/27/14
f 32/25/15 17/26/15 31/27/15
f 45/54/4 47/55/4 39/56/4
f 50/25/21 51/26/21 49/27/21
f 52/25/22 53/26/22 51/27/22
f 54/25/23 55/26/23 53/27/23
f 56/25/24 57/26/24 55/27/24
f 57/27/25 60/17/25 59/26/25
f 60/25/26 61/26/26 59/27/26
f 62/25/27 63/26/27 61/27/27
f 64/25/28 49/26/28 63/27/28
f 66/25/29 67/26/29 65/27/29
f 68/25/30 69/26/30 67/27/30
f 70/25/31 71/26/31 69/27/31
f 71/27/32 74/17/32 73/26/32
f 74/25/33 75/26/33 73/27/33
f 75/27/34 78/17/34 77/26/34
f 78/25/36 79/26/36 77/27/36
f 80/25/37 65/26/37 79/27/37
f 82/65/39 83/66/39 81/67/39
f 84/68/40 85/69/40 83/70/40
f 86/71/41 87/72/41 85/73/41
f 88/74/42 89/75/42 87/76/42
f 90/77/43 91/78/43 89/79/43
f 92/65/44 93/66/44 91/67/44
f 94/48/2 90/61/2 86/47/2
f 94/80/45 95/81/45 93/82/45
f 96/51/46 81/52/46 95/53/46
f 93/32/6 95/33/6 87/60/6
f 98/25/39 99/26/39 97/27/39
f 100/25/40 101/26/40 99/27/40
f 102/25/41 103/26/41 101/27/41
f 103/27/42 106/17/42 105/26/42
f 106/25/43 107/26/43 105/27/43
f 108/25/44 109/26/44 107/27/44
f 110/25/45 111/26/45 109/27/45
f 112/25/46 97/26/46 111/27/46
f 123/25/39 125/26/39 121/27/39
f 127/25/40 129/26/40 125/27/40
f 129/27/41 135/17/41 133/26/41
f 145/89/42 148/90/42 135/91/42
f 155/100/45 154/91/45 143/89/45
f 143/51/46 121/52/46 141/53/46
f 124/104/21 126/105/21 122/106/21
f 128/107/22 130/108/22 126/109/22
f 134/90/24 136/91/24 148/91/24
f 154/91/27 155/91/27 142/115/27
f 144/51/28 122/52/28 142/53/28
f 158/104/21 159/121/21 157/122/21
f 160/68/22 161/69/22 159/70/22
f 162/71/23 163/72/23 161/73/23
f 164/74/24 165/75/24 163/76/24
f 165/123/25 168/124/25 167/78/25
f 168/65/26 169/66/26 167/67/26
f 170/48/5 166/61/5 162/47/5
f 170/80/27 171/81/27 169/82/27
f 172/51/28 157/52/28 171/53/28
f 169/32/3 171/33/3 163/60/3
f 5/1/1 7/128/1 3/2/1
f 13/16/1 15/130/1 11/17/1
f 11/17/2 15/25/2 16/19/2
f 15/21/3 13/24/3 14/22/3
f 10/9/4 12/20/4 16/10/4
f 9/18/5 11/17/5 12/20/5
f 13/24/6 9/18/6 10/9/6
f 18/25/7 20/17/7 19/26/7
f 20/25/8 22/17/8 21/26/8
f 22/25/9 24/17/9 23/26/9
f 24/25/10 26/17/10 25/26/10
f 26/25/11 28/17/11 27/26/11
f 27/27/12 28/25/12 30/17/12
f 30/25/14 32/17/14 31/26/14
f 32/25/15 18/17/15 17/26/15
f 47/55/4 33/146/4 35/147/4
f 35/147/4 37/148/4 47/55/4
f 37/148/4 39/56/4 47/55/4
f 39/56/4 41/149/4 43/150/4
f 43/150/4 45/54/4 39/56/4
f 50/25/21 52/17/21 51/26/21
f 52/25/22 54/17/22 53/26/22
f 54/25/23 56/17/23 55/26/23
f 56/25/24 58/17/24 57/26/24
f 57/27/25 58/25/25 60/17/25
f 60/25/26 62/17/26 61/26/26
f 62/25/27 64/17/27 63/26/27
f 64/25/28 50/17/28 49/26/28
f 66/25/29 68/17/29 67/26/29
f 68/25/30 70/17/30 69/26/30
f 70/25/31 72/17/31 71/26/31
f 71/27/32 72/25/32 74/17/32
f 74/25/33 76/17/33 75/26/33
f 75/27/34 76/25/34 78/17/34
f 78/25/36 80/17/36 79/26/36
f 80/25/37 66/17/37 65/26/37
f 82/65/39 84/159/39 83/66/39
f 84/68/40 86/160/40 85/69/40
f 86/71/41 88/161/41 87/72/41
f 88/74/42 90/162/42 89/75/42
f 90/77/43 92/124/43 91/78/43
f 92/65/44 94/159/44 93/66/44
f 86/47/2 84/141/2 82/83/2
f 82/83/2 96/142/2 86/47/2
f 96/142/2 94/48/2 86/47/2
f 94/48/2 92/143/2 90/61/2
f 90/61/2 88/46/2 86/47/2
f 94/80/45 96/163/45 95/81/45
f 96/51/46 82/145/46 81/52/46
f 95/33/6 81/136/6 83/103/6
f 83/103/6 85/137/6 95/33/6
f 85/137/6 87/60/6 95/33/6
f 87/60/6 89/119/6 91/31/6
f 91/31/6 93/32/6 87/60/6
f 98/25/39 100/17/39 99/26/39
f 100/25/40 102/17/40 101/26/40
f 102/25/41 104/17/41 103/26/41
f 103/27/42 104/25/42 106/17/42
f 106/25/43 108/17/43 107/26/43
f 108/25/44 110/17/44 109/26/44
f 110/25/45 112/17/45 111/26/45
f 112/25/46 98/17/46 97/26/46
f 123/25/39 127/17/39 125/26/39
f 127/25/40 131/17/40 129/26/40
f 129/27/41 131/25/41 135/17/41
f 148/90/49 147/90/49 133/90/49
f 133/90/42 135/91/42 148/90/42
f 135/91/42 138/89/42 145/89/42
f 138/89/50 146/89/50 145/89/50
f 140/91/45 143/89/45 154/91/45
f 143/89/45 141/115/45 155/100/45
f 141/115/52 156/100/52 155/100/52
f 143/51/46 123/145/46 121/52/46
f 124/104/21 128/174/21 126/105/21
f 128/107/22 132/175/22 130/108/22
f 148/91/24 145/115/24 134/90/24
f 145/115/24 137/115/24 134/90/24
f 155/91/27 144/89/27 142/115/27
f 142/115/27 139/100/27 154/91/27
f 139/100/53 153/100/53 154/91/53
f 144/51/28 124/179/28 122/52/28
f 158/104/21 160/182/21 159/121/21
f 160/68/22 162/160/22 161/69/22
f 162/71/23 164/161/23 163/72/23
f 164/74/24 166/183/24 165/75/24
f 165/123/25 166/77/25 168/124/25
f 168/65/26 170/159/26 169/66/26
f 162/47/5 160/141/5 158/83/5
f 158/83/5 172/142/5 162/47/5
f 172/142/5 170/48/5 162/47/5
f 170/48/5 168/143/5 166/61/5
f 166/61/5 164/46/5 162/47/5
f 170/80/27 172/163/27 171/81/27
f 172/51/28 158/145/28 157/52/28
f 171/33/3 157/136/3 159/103/3
f 159/103/3 161/137/3 171/33/3
f 161/137/3 163/60/3 171/33/3
f 163/60/3 165/119/3 167/31/3
f 167/31/3 169/32/3 163/60/3
