# Blender 5.1.2
# www.blender.org
mtllib small_tuscan_half_capital.mtl
o Cube.292
v 0.910477 1.001252 0.589521
v 0.910477 0.901251 0.589521
v 0.089520 1.001252 0.589521
v 0.089520 0.901251 0.589521
v 0.346738 0.601252 0.629999
v 0.346738 0.671528 0.629999
v 0.653259 0.601252 0.629999
v 0.653259 0.671528 0.629999
v 0.870001 0.601252 0.846742
v 0.870001 0.671528 0.846742
v 0.129996 0.601252 0.846742
v 0.129996 0.671528 0.846742
v 0.632388 0.671528 0.680386
v 0.367609 0.671528 0.680386
v 0.819614 0.671528 0.867613
v 0.180383 0.671528 0.867613
v 0.632388 0.831528 0.680386
v 0.367609 0.831528 0.680386
v 0.819614 0.831528 0.867613
v 0.180383 0.831528 0.867613
v 0.647515 0.831528 0.643865
v 0.352482 0.831528 0.643865
v 0.856135 0.831528 0.852485
v 0.143862 0.831528 0.852485
v 0.670024 0.861529 0.589524
v 0.329973 0.861529 0.589524
v 0.910476 0.861529 0.829977
v 0.089521 0.861529 0.829977
v 0.089521 0.901345 0.829977
v 0.669240 0.901345 0.589523
v 0.329973 0.901391 0.589524
v 0.910477 0.901345 0.829977
v 0.910477 1.001252 1.000000
v 0.089520 1.001252 1.000000
v 0.870001 0.601252 1.000000
v 0.870001 0.671528 1.000000
v 0.129996 0.601252 1.000000
v 0.129996 0.671528 1.000000
v 0.819614 0.671528 1.000000
v 0.180383 0.671528 1.000000
v 0.819614 0.831528 1.000000
v 0.180383 0.831528 1.000000
v 0.856135 0.831528 1.000000
v 0.143862 0.831528 1.000000
v 0.910476 0.861529 1.000000
v 0.089521 0.861529 1.000000
v 0.089521 0.901345 1.000000
v 0.910477 0.901332 1.000000
vn -1.0000 -0.0000 -0.0000
vn 0.0006 -1.0000 0.0004
vn -0.0000 -0.0000 -1.0000
vn 0.7071 -0.0000 -0.7071
vn -0.0000 1.0000 -0.0000
vn -0.7071 -0.0000 -0.7071
vn -0.0000 -1.0000 -0.0000
vn 1.0000 -0.0000 -0.0000
vn 0.4833 -0.8754 -0.0000
vn -0.0000 -0.8754 -0.4833
vn -0.3418 -0.8754 -0.3418
vn 0.3418 -0.8754 -0.3418
vn -0.0004 -1.0000 0.0004
vn -0.4833 -0.8754 -0.0000
vn -0.0000 -0.0000 1.0000
vn 0.7059 0.0139 -0.7082
vt 0.999619 0.018983
vt 0.999619 0.109117
vt 0.706027 0.109055
vt 0.379772 0.620228
vt 0.379768 0.379772
vt 0.620222 0.379772
vt 0.652011 0.530994
vt 0.287871 0.472107
vt 0.652011 0.472107
vt 0.402011 0.905994
vt 0.037871 0.847107
vt 0.402011 0.847107
vt 0.631673 0.598529
vt 0.679482 0.935180
vt 0.631673 0.961363
vt 0.282439 0.218494
vt 0.100371 0.159607
vt 0.282439 0.159607
vt 0.777011 0.093494
vt 0.412871 0.034607
vt 0.777011 0.034607
vt 0.569173 0.098529
vt 0.616982 0.435180
vt 0.569173 0.461363
vt 0.569173 0.279944
vt 0.616982 0.124712
vt 0.616982 0.279944
vt 0.819173 0.961363
vt 0.866982 0.624712
vt 0.866982 0.935180
vt 0.860254 0.906129
vt 0.825601 0.578042
vt 0.860254 0.592395
vt 0.375000 0.062500
vt 0.218752 0.250000
vt 0.218752 0.062500
vt 0.687500 0.187500
vt 0.375000 0.375000
vt 0.375000 0.187500
vt 0.750000 0.375000
vt 0.437500 0.562500
vt 0.437500 0.375000
vt 1.000000 0.812500
vt 0.687500 1.000000
vt 0.687500 0.812500
vt 0.422754 0.406129
vt 0.388101 0.249263
vt 0.422754 0.249264
vt 0.360254 0.529895
vt 0.325601 0.857982
vt 0.325601 0.515542
vt 0.735254 0.154895
vt 0.700601 0.482982
vt 0.700601 0.140542
vt 0.314361 0.515766
vt 0.372003 0.687498
vt 0.314361 0.687498
vt 0.064361 0.328266
vt 0.122003 0.697939
vt 0.064361 0.671735
vt 0.689361 0.578266
vt 0.747003 0.947939
vt 0.689361 0.921735
vt 0.439361 0.421735
vt 0.497003 0.052061
vt 0.497003 0.447939
vt 0.433080 0.548621
vt 0.625606 0.515268
vt 0.625606 0.548621
vt 0.245580 0.236121
vt 0.629969 0.202778
vt 0.630636 0.236121
vt 0.443136 0.861121
vt 0.058080 0.827757
vt 0.442469 0.827778
vt 0.058080 0.548621
vt 0.442469 0.515278
vt 0.443136 0.548621
vt 0.706994 0.544983
vt 0.293761 0.544941
vt 0.000885 0.454933
vt 0.618608 0.620618
vt 0.378154 0.620618
vt 0.618606 0.379382
vt 0.688110 0.861121
vt 0.879969 0.827778
vt 0.880636 0.861121
vt 0.876861 0.484235
vt 0.934502 0.312502
vt 0.934503 0.510439
vt 0.547754 0.342395
vt 0.513101 0.499260
vt 0.513101 0.328042
vt 0.718748 0.062500
vt 0.562500 0.250000
vt 0.562500 0.062500
vt 0.694173 0.217448
vt 0.741982 0.372680
vt 0.694173 0.398863
vt 0.271293 0.791777
vt 0.125229 0.208223
vt 0.271293 0.208223
vt 0.964511 0.905994
vt 0.782443 0.847107
vt 0.964511 0.847107
vt 0.851068 0.499999
vt 0.148931 0.499999
vt 0.645417 0.148931
vt 0.125000 0.875000
vt 0.875000 0.500000
vt 0.875000 0.875000
vt 0.499649 0.768983
vt 0.499647 0.859044
vt 0.292555 0.859033
vt 0.499294 0.109044
vt 0.499649 0.018983
vt 0.287871 0.530994
vt 0.037871 0.905994
vt 0.679482 0.624712
vt 0.100371 0.218494
vt 0.412871 0.093494
vt 0.819173 0.598529
vt 0.825601 0.920482
vt 0.375000 0.250000
vt 0.687500 0.375000
vt 0.750000 0.562500
vt 1.000000 1.000000
vt 0.388101 0.420482
vt 0.360254 0.843629
vt 0.735254 0.468629
vt 0.372003 0.489561
vt 0.122003 0.302061
vt 0.747003 0.552061
vt 0.439361 0.078266
vt 0.433080 0.515257
vt 0.245580 0.202757
vt 0.058080 0.861121
vt 0.058080 0.515257
vt 1.000825 0.454933
vt 1.000824 0.545067
vt 0.000885 0.545067
vt 0.687777 0.827768
vt 0.876861 0.312502
vt 0.547754 0.499260
vt 0.718748 0.250000
vt 0.741982 0.217448
vt 0.271293 0.174883
vt 0.298681 0.125276
vt 0.335017 0.125275
vt 0.426233 0.125275
vt 0.426234 0.874725
vt 0.335029 0.874725
vt 0.298681 0.874724
vt 0.271293 0.825117
vt 0.125229 0.791777
vt 0.125229 0.837775
vt 0.061074 0.837775
vt 0.061074 0.162225
vt 0.125229 0.162225
vt 0.782443 0.905994
vt 0.148931 0.354583
vt 0.354582 0.148931
vt 0.851068 0.354583
vt 0.125000 0.500000
vt -0.000321 0.859117
vt -0.000321 0.768983
s 0
usemtl ionic_capital
f 3/1/1 4/2/1 29/3/1
f 29/4/2 4/5/2 31/6/2
f 6/7/3 7/8/3 5/9/3
f 8/10/4 9/11/4 7/12/4
f 12/13/5 14/14/5 6/15/5
f 38/16/1 11/17/1 37/18/1
f 12/19/6 5/20/6 11/21/6
f 6/22/5 13/23/5 8/24/5
f 36/25/5 15/26/5 39/27/5
f 10/28/5 13/29/5 15/30/5
f 17/31/7 23/32/7 19/33/7
f 15/34/8 41/35/8 39/36/8
f 14/37/3 17/38/3 13/39/3
f 16/40/6 18/41/6 14/42/6
f 13/43/4 19/44/4 15/45/4
f 19/46/7 43/47/7 41/48/7
f 17/49/7 22/50/7 21/51/7
f 18/52/7 24/53/7 22/54/7
f 23/55/9 45/56/9 43/57/9
f 22/58/10 25/59/10 21/60/10
f 24/61/11 26/62/11 22/63/11
f 23/64/12 25/65/12 27/66/12
f 27/67/8 48/68/8 45/69/8
f 26/70/3 30/71/3 25/72/3
f 26/73/6 29/74/6 31/75/6
f 25/76/4 32/77/4 27/78/4
f 30/79/3 31/80/3 3/81/3
f 2/82/13 32/83/13 30/84/13
f 46/85/1 29/86/1 28/87/1
f 24/88/14 46/89/14 28/90/14
f 20/91/7 44/92/7 24/93/7
f 40/94/1 20/95/1 16/96/1
f 38/97/5 16/98/5 12/99/5
f 42/100/15 39/101/15 41/102/15
f 10/103/8 35/104/8 9/105/8
f 35/106/7 37/107/7 7/108/7
f 3/109/5 33/110/5 1/111/5
f 33/112/8 48/113/8 32/114/8
f 29/3/1 47/115/1 34/116/1
f 34/116/1 3/1/1 29/3/1
f 6/7/3 8/117/3 7/8/3
f 8/10/4 10/118/4 9/11/4
f 12/13/5 16/119/5 14/14/5
f 38/16/1 12/120/1 11/17/1
f 12/19/6 6/121/6 5/20/6
f 6/22/5 14/26/5 13/23/5
f 36/25/5 10/22/5 15/26/5
f 10/28/5 8/122/5 13/29/5
f 17/31/7 21/123/7 23/32/7
f 15/34/8 19/124/8 41/35/8
f 14/37/3 18/125/3 17/38/3
f 16/40/6 20/126/6 18/41/6
f 13/43/4 17/127/4 19/44/4
f 19/46/7 23/128/7 43/47/7
f 17/49/7 18/129/7 22/50/7
f 18/52/7 20/130/7 24/53/7
f 23/55/9 27/131/9 45/56/9
f 22/58/10 26/132/10 25/59/10
f 24/61/11 28/133/11 26/62/11
f 23/64/12 21/134/12 25/65/12
f 27/67/8 32/135/8 48/68/8
f 26/70/3 31/136/3 30/71/3
f 26/73/6 28/137/6 29/74/6
f 25/76/16 30/138/16 32/77/16
f 1/139/3 2/140/3 30/79/3
f 31/80/3 4/141/3 3/81/3
f 1/139/3 30/79/3 3/81/3
f 46/85/1 47/142/1 29/86/1
f 24/88/14 44/143/14 46/89/14
f 20/91/7 42/144/7 44/92/7
f 40/94/1 42/145/1 20/95/1
f 38/97/5 40/146/5 16/98/5
f 43/147/15 45/148/15 48/149/15
f 48/149/15 33/150/15 41/102/15
f 33/150/15 34/151/15 42/100/15
f 34/151/15 47/152/15 42/100/15
f 47/152/15 46/153/15 44/154/15
f 42/100/15 47/152/15 44/154/15
f 40/155/15 38/156/15 37/157/15
f 40/155/15 37/157/15 35/158/15
f 33/150/15 42/100/15 41/102/15
f 42/100/15 40/155/15 39/101/15
f 40/155/15 35/158/15 39/101/15
f 35/158/15 36/159/15 39/101/15
f 41/102/15 43/147/15 48/149/15
f 10/103/8 36/160/8 35/104/8
f 11/161/7 5/162/7 37/107/7
f 5/162/7 7/108/7 37/107/7
f 7/108/7 9/163/7 35/106/7
f 3/109/5 34/164/5 33/110/5
f 32/114/8 2/165/8 1/166/8
f 1/166/8 33/112/8 32/114/8
