# Blender 5.1.2
# www.blender.org
mtllib small_greek_corinthian_half_capital.mtl
o corinthian
v 0.056087 0.937628 1.000000
v 0.943914 1.000128 1.000000
v 0.056087 1.000128 1.000000
v 0.943914 0.937628 1.000000
v 0.500000 0.937628 0.556086
v 0.500000 1.000128 0.556086
v 0.500000 0.848477 1.000000
v 0.500000 1.000128 1.000000
v 1.075000 1.000128 0.471343
v 1.028657 1.000128 0.425000
v 1.028657 0.937628 0.425000
v 1.075000 0.937628 0.471343
v -0.028656 1.000128 0.425000
v -0.075000 1.000128 0.471343
v -0.075000 0.937628 0.471343
v -0.028656 0.937628 0.425000
v 0.141091 0.937628 1.000000
v 0.858910 0.937628 1.000000
v 0.500000 0.937628 0.641091
v 0.964895 0.937628 0.572575
v 0.927425 0.937628 0.535106
v 0.072575 0.937628 0.535106
v 0.035106 0.937628 0.572575
v 0.141091 0.848477 1.000000
v 0.858910 0.848477 1.000000
v 0.500000 0.848477 0.641091
v 0.964895 0.848477 0.572575
v 0.927425 0.848477 0.535106
v 0.072575 0.848477 0.535106
v 0.035106 0.848477 0.572575
v 0.176375 0.779060 0.945571
v 0.127635 0.958317 0.945571
v 0.093447 0.757162 0.945571
v 0.044707 0.936420 0.945571
v 0.554429 0.779060 0.676374
v 0.554429 0.958317 0.627634
v 0.445574 0.779060 0.676374
v 0.445574 0.958317 0.627634
v 0.554429 0.757162 0.593446
v 0.554429 0.936420 0.544706
v 0.445574 0.757162 0.593446
v 0.445574 0.936420 0.544706
v 0.823626 0.779060 0.945572
v 0.872365 0.958317 0.945572
v 0.906553 0.757162 0.945572
v 0.955293 0.936420 0.945572
v 0.135507 0.660550 0.884941
v 0.169505 0.676309 0.884939
v 0.150705 0.619511 0.866595
v 0.188222 0.636751 0.866593
v 0.165905 0.578473 0.884940
v 0.206941 0.597194 0.884939
v 0.172202 0.561474 0.929231
v 0.214696 0.580809 0.929229
v 0.165909 0.578474 0.973521
v 0.206944 0.597195 0.973520
v 0.150710 0.619512 0.991867
v 0.188227 0.636753 0.991866
v 0.135511 0.660551 0.973522
v 0.169508 0.676311 0.973520
v 0.129213 0.677549 0.929231
v 0.161753 0.692695 0.929230
v 0.385672 0.676310 0.669507
v 0.385671 0.660551 0.635509
v 0.367326 0.636752 0.688225
v 0.367325 0.619512 0.650708
v 0.385672 0.597194 0.706943
v 0.385671 0.578473 0.665907
v 0.429963 0.580809 0.714695
v 0.429962 0.561474 0.672201
v 0.474253 0.597194 0.706940
v 0.474252 0.578472 0.665905
v 0.492599 0.636751 0.688222
v 0.492598 0.619511 0.650705
v 0.474253 0.676309 0.669504
v 0.474252 0.660550 0.635507
v 0.429963 0.692695 0.661752
v 0.429961 0.677549 0.629212
v 0.615061 0.660550 0.635505
v 0.615062 0.676309 0.669503
v 0.633407 0.619511 0.650704
v 0.633408 0.636751 0.688221
v 0.615061 0.578473 0.665904
v 0.615063 0.597194 0.706939
v 0.570771 0.561474 0.672201
v 0.570772 0.580809 0.714694
v 0.526480 0.578474 0.665907
v 0.526482 0.597195 0.706942
v 0.508134 0.619512 0.650708
v 0.508136 0.636753 0.688225
v 0.526480 0.660551 0.635509
v 0.526482 0.676311 0.669507
v 0.570770 0.677549 0.629211
v 0.570772 0.692695 0.661752
v 0.830493 0.676310 0.885672
v 0.864491 0.660551 0.885671
v 0.811774 0.636752 0.867326
v 0.849291 0.619512 0.867326
v 0.793057 0.597194 0.885672
v 0.834093 0.578473 0.885671
v 0.785305 0.580809 0.929963
v 0.827798 0.561474 0.929962
v 0.793059 0.597194 0.974253
v 0.834095 0.578472 0.974252
v 0.811777 0.636751 0.992599
v 0.849294 0.619511 0.992598
v 0.830495 0.676309 0.974253
v 0.864493 0.660550 0.974252
v 0.838247 0.692695 0.929963
v 0.870787 0.677549 0.929962
v 0.885121 0.827340 0.548605
v 0.918327 0.827340 0.619813
v 0.916679 0.744496 0.533889
v 0.949885 0.744496 0.605097
v 0.885121 0.661652 0.548605
v 0.918327 0.661652 0.619813
v 0.808932 0.627336 0.584134
v 0.842138 0.627336 0.655342
v 0.732744 0.661651 0.619662
v 0.765950 0.661651 0.690870
v 0.701186 0.744496 0.634379
v 0.734392 0.744496 0.705587
v 0.732744 0.827340 0.619662
v 0.765950 0.827340 0.690870
v 0.808932 0.861655 0.584134
v 0.842138 0.861655 0.655342
v 0.080281 0.827340 0.621208
v 0.113484 0.827340 0.549999
v 0.048722 0.744496 0.606493
v 0.081925 0.744496 0.535284
v 0.080281 0.661652 0.621208
v 0.113484 0.661652 0.549999
v 0.156470 0.627336 0.656734
v 0.189674 0.627336 0.585525
v 0.232660 0.661652 0.692260
v 0.265864 0.661652 0.621051
v 0.264219 0.744496 0.706975
v 0.297423 0.744496 0.635766
v 0.232660 0.827340 0.692260
v 0.265864 0.827340 0.621051
v 0.156470 0.861656 0.656734
v 0.189674 0.861656 0.585525
v 0.878792 0.827340 0.580279
v 0.950001 0.827340 0.613483
v 0.893508 0.744496 0.548720
v 0.964717 0.744496 0.581924
v 0.878792 0.661652 0.580279
v 0.950001 0.661652 0.613483
v 0.843266 0.627337 0.656469
v 0.914475 0.627337 0.689673
v 0.807740 0.661652 0.732658
v 0.878949 0.661652 0.765862
v 0.793025 0.744496 0.764217
v 0.864234 0.744496 0.797421
v 0.807740 0.827340 0.732658
v 0.878949 0.827340 0.765862
v 0.843266 0.861656 0.656469
v 0.914475 0.861656 0.689673
v 0.048606 0.827340 0.614880
v 0.119814 0.827340 0.581674
v 0.033889 0.744496 0.583322
v 0.105097 0.744496 0.550116
v 0.048606 0.661652 0.614880
v 0.119814 0.661652 0.581674
v 0.084135 0.627336 0.691068
v 0.155343 0.627336 0.657862
v 0.119663 0.661651 0.767257
v 0.190871 0.661651 0.734050
v 0.134380 0.744496 0.798815
v 0.205588 0.744496 0.765609
v 0.119663 0.827340 0.767257
v 0.190871 0.827340 0.734050
v 0.084135 0.861655 0.691068
v 0.155342 0.861655 0.657862
v 0.345062 -0.001122 0.625946
v 0.345062 0.048878 0.625946
v 0.654938 -0.001122 0.625946
v 0.654938 0.048878 0.625946
v 0.874054 -0.001122 0.845062
v 0.874054 0.048878 0.845062
v 0.125947 -0.001122 0.845062
v 0.125947 0.048878 0.845062
v 0.631461 0.048878 0.682625
v 0.368539 0.048878 0.682625
v 0.817375 0.048878 0.868539
v 0.182625 0.048878 0.868539
v 0.631461 0.198878 0.682625
v 0.368539 0.198878 0.682625
v 0.817375 0.198878 0.868539
v 0.182625 0.198878 0.868539
v 0.656420 0.498878 0.622369
v 0.343581 0.498878 0.622369
v 0.877631 0.498878 0.843580
v 0.122370 0.498878 0.843580
v 0.620641 0.498878 0.708747
v 0.379359 0.498878 0.708747
v 0.791253 0.498878 0.879359
v 0.208748 0.498878 0.879359
v 0.673805 0.848878 0.580399
v 0.326196 0.848878 0.580399
v 0.919601 0.848878 0.826196
v 0.080399 0.848878 0.826196
v -0.009457 0.937628 0.735672
v -0.009457 1.000128 0.735672
v 0.088098 0.937628 0.786288
v 0.088098 0.848477 0.786288
v 1.009457 0.937628 0.735672
v 1.009457 1.000128 0.735672
v 0.911902 0.937628 0.786288
v 0.911902 0.848477 0.786288
v 0.764329 0.937628 0.490543
v 0.764329 1.000128 0.490543
v 0.713713 0.937628 0.588098
v 0.713713 0.848477 0.588098
v 0.235672 0.937628 0.490543
v 0.235672 1.000128 0.490543
v 0.286288 0.937628 0.588098
v 0.286288 0.848477 0.588098
v 0.500000 1.000128 1.001265
v 0.943980 0.937628 1.000267
v 0.055525 1.000128 1.002264
v 0.859023 0.937628 1.000458
v 0.500000 0.848477 1.001265
v 0.859023 0.848477 1.000458
v 0.176375 0.779060 1.001992
v 0.127635 0.958317 1.002102
v 0.093447 0.757162 1.002178
v 0.044708 0.936420 1.002288
v 0.823626 0.779060 1.000538
v 0.872365 0.958317 1.000428
v 0.906553 0.757162 1.000351
v 0.955293 0.936420 1.000242
v 0.874054 -0.001122 1.000424
v 0.874054 0.048878 1.000424
v 0.125947 -0.001122 1.002105
v 0.125947 0.048878 1.002105
v 0.817375 0.048878 1.000552
v 0.182625 0.048878 1.001978
v 0.817375 0.198878 1.000552
v 0.182625 0.198878 1.001978
v 0.877631 0.498878 1.000416
v 0.122370 0.498878 1.002113
v 0.791253 0.498878 1.000610
v 0.208748 0.498878 1.001919
v 0.919601 0.848878 1.000322
v 0.080399 0.848878 1.002208
v 0.055525 0.937628 1.002264
v 0.140577 0.937628 1.002073
v 0.140577 0.848477 1.002073
v 0.943980 1.000128 1.000267
vn 0.7071 -0.0000 -0.7071
vn 0.0022 -0.0000 1.0000
vn -0.7071 -0.0000 -0.7071
vn 0.9706 -0.0000 0.2407
vn -0.2407 -0.0000 -0.9706
vn -0.0000 1.0000 -0.0000
vn -0.0000 -1.0000 -0.0000
vn 0.2407 -0.0000 -0.9706
vn -0.9706 -0.0000 0.2407
vn -0.9706 -0.0000 -0.2407
vn -0.9650 -0.2624 -0.0000
vn -0.0000 -0.0000 -1.0000
vn 0.2553 -0.9669 -0.0000
vn -0.2553 0.9669 -0.0000
vn -0.0000 0.2624 0.9650
vn -1.0000 -0.0000 -0.0000
vn -0.0000 -0.2624 -0.9650
vn 1.0000 -0.0000 -0.0000
vn -0.0000 -0.9669 0.2553
vn -0.0000 0.9669 -0.2553
vn -0.9650 0.2624 -0.0000
vn -0.1619 0.3522 -0.9218
vn 0.1608 -0.3526 -0.9219
vn 0.3834 -0.8427 -0.3779
vn 0.3834 -0.8427 0.3779
vn 0.1609 -0.3525 0.9219
vn -0.1618 0.3522 0.9218
vn 0.9039 0.4277 -0.0000
vn -0.3894 0.8400 0.3778
vn -0.3894 0.8400 -0.3778
vn -0.9378 -0.3473 -0.0000
vn -0.9222 0.3508 -0.1626
vn -0.9222 -0.3513 0.1615
vn -0.3787 -0.8420 0.3842
vn 0.3788 -0.8420 0.3841
vn 0.9222 -0.3513 0.1614
vn 0.9222 0.3508 -0.1626
vn -0.0000 -0.3473 -0.9378
vn 0.3788 0.8390 -0.3906
vn -0.3788 0.8391 -0.3905
vn -0.0000 0.4277 0.9039
vn 0.9218 0.3522 -0.1619
vn 0.9219 -0.3526 0.1608
vn 0.3779 -0.8427 0.3834
vn -0.3779 -0.8427 0.3834
vn -0.9219 -0.3525 0.1609
vn -0.9218 0.3522 -0.1618
vn -0.3778 0.8400 -0.3894
vn 0.3778 0.8400 -0.3894
vn 0.1626 0.3508 -0.9222
vn -0.1615 -0.3513 -0.9222
vn -0.3841 -0.8420 -0.3788
vn -0.3841 -0.8420 0.3787
vn -0.1614 -0.3513 0.9222
vn 0.1626 0.3508 0.9222
vn 0.9378 -0.3473 -0.0000
vn 0.3906 0.8390 0.3788
vn 0.3905 0.8391 -0.3788
vn -0.9039 0.4277 -0.0000
vn 0.8355 0.3875 -0.3896
vn 0.8355 -0.3875 -0.3896
vn 0.3425 -0.9258 -0.1597
vn -0.3425 -0.9258 0.1597
vn -0.8355 -0.3875 0.3896
vn -0.8355 0.3875 0.3896
vn 0.4226 -0.0000 0.9063
vn -0.3425 0.9258 0.1597
vn 0.3425 0.9258 -0.1597
vn -0.4226 -0.0000 -0.9063
vn -0.8355 0.3875 -0.3896
vn -0.8355 -0.3875 -0.3896
vn -0.3425 -0.9258 -0.1597
vn 0.3425 -0.9258 0.1597
vn 0.8355 -0.3875 0.3896
vn 0.8355 0.3875 0.3896
vn 0.4226 -0.0000 -0.9063
vn 0.3425 0.9258 0.1597
vn -0.3425 0.9258 -0.1597
vn -0.4226 -0.0000 0.9063
vn 0.3896 0.3875 -0.8355
vn 0.3896 -0.3875 -0.8355
vn 0.1597 -0.9258 -0.3425
vn -0.1597 -0.9258 0.3425
vn -0.3896 -0.3875 0.8355
vn -0.3896 0.3875 0.8355
vn 0.9063 -0.0000 0.4226
vn -0.1597 0.9258 0.3425
vn 0.1597 0.9258 -0.3425
vn -0.9063 -0.0000 -0.4226
vn -0.3896 0.3875 -0.8355
vn -0.3896 -0.3875 -0.8355
vn -0.1597 -0.9258 -0.3425
vn 0.1597 -0.9258 0.3425
vn 0.3896 -0.3875 0.8355
vn 0.3896 0.3875 0.8355
vn 0.9063 -0.0000 -0.4226
vn 0.1597 0.9258 0.3425
vn -0.1597 0.9258 -0.3425
vn -0.9063 -0.0000 0.4226
vn -0.6933 -0.1969 -0.6933
vn 0.6933 -0.1969 -0.6933
vn 0.9804 -0.1969 -0.0000
vn -0.0000 -0.1969 -0.9804
vn -0.6639 -0.3443 -0.6639
vn 0.6639 -0.3443 -0.6639
vn 0.9389 -0.3443 -0.0000
vn -0.0000 -0.3443 -0.9389
vn -0.9389 -0.3443 -0.0000
vn -0.9804 -0.1969 -0.0000
vn 0.9650 -0.2624 -0.0000
vn 0.2553 0.9669 -0.0000
vn -0.2553 -0.9669 -0.0000
vn 0.9650 0.2624 -0.0000
vn 0.9706 -0.0000 -0.2406
vn -0.1626 0.3508 -0.9222
vn 0.1614 -0.3513 -0.9222
vn 0.3841 -0.8420 -0.3788
vn 0.3842 -0.8420 0.3787
vn 0.1615 -0.3513 0.9222
vn -0.1626 0.3508 0.9222
vn -0.3905 0.8391 0.3788
vn -0.3906 0.8390 -0.3788
vn 0.9219 -0.3525 0.1608
vn 0.1618 0.3522 -0.9218
vn -0.1609 -0.3525 -0.9219
vn -0.3834 -0.8427 -0.3779
vn -0.3834 -0.8427 0.3779
vn -0.1608 -0.3525 0.9219
vn 0.1618 0.3522 0.9218
vn 0.3894 0.8400 0.3778
vn 0.3894 0.8400 -0.3778
vn 0.9706 -0.0000 -0.2408
vt 0.750000 0.250000
vt 0.687500 0.187500
vt 0.750000 0.187500
vt 0.001043 0.499717
vt 0.100419 0.095989
vt 0.171309 0.499726
vt 0.125190 0.059883
vt 0.934650 0.015728
vt 0.867202 0.072786
vt 0.375000 0.750000
vt 0.312500 0.687500
vt 0.375000 0.687500
vt 0.125000 0.625000
vt 0.375000 0.625000
vt 0.750000 0.812500
vt 0.500000 0.750000
vt 0.750000 0.750000
vt 0.460760 0.735439
vt 0.186082 0.186082
vt 0.735439 0.460760
vt 0.372825 0.433150
vt 0.370650 0.491300
vt 0.375000 0.125000
vt 0.375000 0.124457
vt 0.375000 0.124521
vt 0.375000 0.812500
vt 0.125000 0.750000
vt 0.375000 0.187500
vt 0.125000 0.125000
vt 0.264561 0.539240
vt 0.539240 0.264561
vt 0.813918 0.813918
vt 0.272994 0.407432
vt 0.187227 0.592569
vt 0.187227 0.406804
vt 0.127141 0.812500
vt 0.127141 0.750000
vt 0.375000 0.236950
vt 0.375000 0.263050
vt 0.375000 0.437500
vt 0.437500 0.312500
vt 0.437500 0.437500
vt 0.375000 0.937500
vt 0.687500 0.812500
vt 0.687500 0.937500
vt 0.375000 0.513050
vt 0.375000 0.180975
vt 0.375000 0.569025
vt 0.375000 0.375000
vt 0.375000 0.319025
vt 0.310325 0.495650
vt 0.250000 0.625000
vt 0.194025 0.500000
vt 0.125000 0.569025
vt 0.125000 0.562500
vt 0.128030 0.437500
vt 0.128030 0.562500
vt 0.250000 0.812500
vt 0.312500 0.812500
vt 0.500000 0.312500
vt 0.812500 0.187500
vt 0.812500 0.312500
vt 0.625000 0.812500
vt 0.937500 0.687500
vt 0.937500 0.812500
vt 0.625000 0.937500
vt 0.937500 0.937500
vt 0.377504 0.125000
vt 0.312500 0.312500
vt 0.312500 0.125000
vt 1.000000 0.500000
vt 0.750000 0.875000
vt 0.750000 0.500000
vt 0.125000 0.620421
vt 0.875000 0.620169
vt 0.625000 0.750000
vt 0.625000 0.619741
vt 0.625000 0.000000
vt 0.375000 0.250000
vt 0.375000 0.000000
vt 0.125000 0.375000
vt 0.187500 0.687500
vt 0.062500 0.500000
vt 0.187500 0.500000
vt 0.875000 0.375000
vt 0.625000 0.375000
vt 0.375000 0.500000
vt 0.125000 0.500000
vt 0.625000 0.500000
vt 0.875000 0.750000
vt 0.625000 0.124016
vt 0.375000 0.123765
vt 1.000000 1.000000
vt 0.750000 0.625000
vt 1.000000 0.625000
vt 0.000064 0.999936
vt 0.414228 0.000064
vt 0.414228 0.999936
vt 0.414228 0.000064
vt 0.000064 0.999936
vt 0.000064 0.000064
vt 0.414228 0.000064
vt 0.000064 0.999936
vt 0.000064 0.000064
vt 0.414228 0.999936
vt 0.000064 0.000064
vt 0.414228 0.000064
vt 0.414228 0.999936
vt 0.000064 0.000064
vt 0.414228 0.999936
vt 0.000064 0.000064
vt 0.414228 0.000064
vt 0.000100 0.292935
vt 0.292935 0.000100
vt 0.292935 0.999900
vt 0.414228 0.000064
vt 0.000064 0.000064
vt 0.645194 0.357344
vt 0.501795 0.296459
vt 0.498205 0.703541
vt 0.000064 0.000064
vt 0.000064 0.999936
vt 0.000064 0.999936
vt 0.000065 0.999936
vt 0.644330 0.643530
vt 0.500566 0.703548
vt 0.643530 0.355670
vt 0.000064 0.999936
vt 0.414228 0.999936
vt 0.799940 0.375761
vt 0.799940 0.624239
vt 0.200060 0.375761
vt 0.750000 0.687500
vt 1.000000 0.812500
vt 1.000000 0.937500
vt 0.062500 0.812500
vt 0.125000 0.687500
vt 0.125000 0.812500
vt 0.750000 0.937500
vt 0.312500 0.562500
vt 0.375000 0.562500
vt 0.687500 0.312500
vt 0.750000 0.312500
vt 0.498205 0.296459
vt 0.357345 0.645194
vt 0.354806 0.357344
vt 0.687500 0.687500
vt 0.750000 0.562500
vt 0.375000 0.312500
vt 0.312500 0.187500
vt 0.437500 0.937500
vt 0.500000 0.812500
vt 0.500000 0.937500
vt 0.437500 0.812500
vt 0.500000 0.687500
vt 0.812500 0.500000
vt 0.625022 0.250022
vt 0.812500 0.250000
vt 0.355670 0.643530
vt 0.499434 0.703548
vt 0.356470 0.355670
vt 0.312500 0.062500
vt 0.375000 0.062500
vt 0.250000 0.562500
vt 0.250000 0.687500
vt 0.062500 0.187500
vt 0.125000 0.062500
vt 0.125000 0.187500
vt 1.000000 0.687500
vt 0.187500 0.812500
vt 0.125000 0.437500
vt 0.062500 0.312500
vt 0.125000 0.312500
vt 0.187500 0.187500
vt 0.250000 0.062500
vt 0.250000 0.187500
vt 0.750022 0.624978
vt 0.937500 0.375000
vt 0.937500 0.625000
vt 0.875000 0.937500
vt 0.500000 0.875000
vt 0.875000 0.875000
vt 0.500000 0.625000
vt 0.623348 0.874232
vt 0.784784 0.936062
vt 0.623779 0.936062
vt 0.815048 0.437500
vt 0.815048 0.375000
vt 0.000000 0.125000
vt 0.937500 0.000000
vt 0.625000 0.187500
vt 0.441252 0.374232
vt 0.089121 0.436062
vt 0.056499 0.374232
vt 0.556499 0.374232
vt 0.909784 0.436062
vt 0.589121 0.436062
vt 0.181499 0.624232
vt 0.534784 0.686062
vt 0.214121 0.686062
vt 0.937500 0.562500
vt 0.625000 0.562500
vt 0.687500 0.000000
vt 0.530594 0.187500
vt 0.530594 0.000000
vt 0.687500 0.250000
vt 0.937500 0.500000
vt 0.625000 0.687500
vt 0.937500 0.187500
vt 0.530834 0.562500
vt 0.000000 0.937500
vt 0.000000 0.562500
vt 0.437500 0.250000
vt 0.062500 0.750000
vt 0.062500 0.250000
vt 0.374001 0.375000
vt 0.625000 0.625000
vt 0.373734 0.625000
vt 0.750000 0.375000
vt 0.000000 0.375000
vt 0.312500 0.375000
vt 0.687500 0.875000
vt 0.312500 0.875000
vt 0.937500 0.250000
vt 0.749653 0.750000
vt 0.749051 0.250000
vt 0.312500 0.500000
vt 0.687500 1.000000
vt 0.312500 1.000000
vt 1.000000 0.062500
vt 0.750000 0.000000
vt 1.000000 0.000000
vt 0.812500 0.812500
vt 0.812500 0.937500
vt 0.875000 0.812500
vt 0.625000 0.312500
vt 0.937500 0.312500
vt 0.500000 0.250000
vt 0.497370 0.999900
vt 0.499617 0.000100
vt 0.999900 0.707065
vt 0.312500 0.000000
vt 0.502381 0.500000
vt 0.380068 0.375000
vt 0.783362 0.562500
vt 0.158601 0.500000
vt 0.000000 0.687500
vt 0.000000 0.500000
vt 0.251490 0.624232
vt 0.089121 0.686062
vt 0.056499 0.624232
vt 0.875000 0.500000
vt 0.686986 0.562500
vt 0.686986 0.500000
vt 0.346316 0.871025
vt 0.128975 0.653684
vt 0.128975 0.499579
vt 0.624722 0.437500
vt 0.624596 0.250000
vt 0.625000 0.625556
vt 0.375000 0.625807
vt 0.125000 0.626235
vt 0.375000 0.129579
vt 0.250000 0.625440
vt 0.125000 0.625543
vt 0.811831 0.937500
vt 0.375000 0.625120
vt 0.874747 0.750000
vt 0.186082 0.656959
vt 0.187423 0.186082
vt 0.186359 0.657038
vt 0.343041 0.813918
vt 0.813918 0.812577
vt 0.187226 0.407432
vt 0.272994 0.592568
vt 0.187226 0.593196
vt 0.100378 0.903905
vt 0.000041 0.903174
vt 0.000082 0.096710
vt 0.100871 0.000041
vt 0.170698 0.000700
vt 0.170647 0.999309
vt 0.100819 0.999959
vt 0.976954 0.999901
vt 0.000099 0.999901
vt 0.145743 0.589391
vt 0.044860 0.586106
vt 0.121067 0.235798
vt 0.057421 0.056024
vt 0.061720 0.000099
vt 0.825561 0.593498
vt 0.862674 0.246874
vt 0.926253 0.596289
vt 0.933665 0.073872
vt 0.312500 0.750000
vt 0.813918 0.735439
vt 0.735439 0.813918
vt 0.656959 0.186082
vt 0.186082 0.264561
vt 0.264561 0.186082
vt 0.813918 0.343041
vt 0.272994 0.593196
vt 0.250000 0.500000
vt 0.125000 0.513050
vt 0.138050 0.500000
vt 0.500000 0.187500
vt 0.377629 0.312500
vt 1.000000 0.875000
vt 0.375000 0.619993
vt 0.625000 0.250000
vt 0.062500 0.687500
vt 0.750000 1.000000
vt 0.707065 0.000100
vt 0.999900 0.292934
vt 0.707065 0.999900
vt 0.000100 0.707065
vt 0.357344 0.354805
vt 0.354805 0.642655
vt 0.296459 0.498204
vt 0.642655 0.645194
vt 0.703541 0.501795
vt 0.356470 0.644330
vt 0.296452 0.500566
vt 0.355670 0.356470
vt 0.499434 0.296452
vt 0.703548 0.499434
vt 0.624239 0.799940
vt 0.375761 0.799940
vt 0.200060 0.624239
vt 0.375761 0.200060
vt 0.624239 0.200060
vt 0.642656 0.354805
vt 0.645195 0.642655
vt 0.703541 0.498204
vt 0.501795 0.703541
vt 0.296459 0.501795
vt 0.687500 0.562500
vt 0.437500 0.687500
vt 0.625022 0.499978
vt 0.643530 0.644330
vt 0.703548 0.500566
vt 0.644330 0.356470
vt 0.500566 0.296452
vt 0.296452 0.499434
vt 0.187500 0.562500
vt 0.062500 0.062500
vt 0.062500 0.437500
vt 0.187500 0.062500
vt 0.750022 0.375022
vt 0.816252 0.874232
vt 0.625000 0.437500
vt 0.000000 0.187500
vt 0.409784 0.436062
vt 0.941252 0.374232
vt 0.566252 0.624232
vt 0.687500 0.437500
vt 0.312500 0.937500
vt 0.437500 0.750000
vt 0.687500 0.375000
vt 0.937500 0.750000
vt 0.687500 0.500000
vt 0.750000 0.062500
vt 0.502984 0.000000
vt 0.378978 0.625000
vt 0.783601 0.187500
vt 0.158601 0.687500
vt 0.251865 0.686062
vt 0.875000 0.562500
vt 0.871025 0.653684
vt 0.653684 0.871025
vt 0.871025 0.497911
vt 0.875000 0.625984
vt 0.625000 0.129831
vt 0.811831 0.812500
vt 0.375000 0.625057
vt 0.874747 0.812500
vt 0.342369 0.811566
vt 0.272994 0.406804
s 0
usemtl base
f 12/1/1 10/2/1 9/3/1
f 223/4/2 222/5/2 219/6/2
f 238/7/2 233/8/2 237/9/2
f 16/10/3 14/11/3 13/12/3
f 208/12/4 4/13/4 207/14/4
f 212/15/5 11/16/5 211/17/5
f 212/18/6 8/19/6 208/20/6
f 211/21/7 21/22/7 213/21/7
f 1/23/7 248/24/7 247/25/7
f 216/26/8 5/27/8 215/10/8
f 204/28/9 15/29/9 203/23/9
f 216/30/6 204/31/6 8/32/6
f 231/33/2 230/34/2 229/35/2
f 221/36/10 1/27/10 247/37/10
f 15/38/7 22/39/7 23/38/7
f 22/40/3 30/41/3 23/42/3
f 23/43/9 206/44/9 205/45/9
f 12/46/7 21/22/7 11/22/7
f 203/47/7 23/38/7 205/47/7
f 4/14/7 209/48/7 207/48/7
f 5/49/7 217/50/7 215/50/7
f 214/51/7 210/48/7 7/52/7
f 218/53/7 7/52/7 206/54/7
f 17/55/10 249/56/10 248/57/10
f 20/58/1 28/11/1 21/59/1
f 18/60/4 210/61/4 209/62/4
f 19/63/8 218/64/8 217/65/8
f 21/66/5 214/65/5 213/67/5
f 227/68/11 34/69/11 33/70/11
f 33/71/12 32/72/12 31/73/12
f 225/74/13 33/10/13 31/27/13
f 226/75/14 34/76/14 228/77/14
f 36/78/15 37/79/15 35/80/15
f 38/10/16 41/81/16 37/49/16
f 42/82/17 39/83/17 41/84/17
f 39/85/18 36/76/18 35/86/18
f 41/87/19 35/27/19 37/88/19
f 42/89/20 36/90/20 40/76/20
f 230/91/21 43/79/21 229/92/21
f 44/93/12 45/94/12 43/95/12
f 47/96/22 50/97/22 49/98/22
f 49/99/23 52/100/23 51/101/23
f 51/102/24 54/103/24 53/104/24
f 54/105/25 55/106/25 53/107/25
f 56/108/26 57/109/26 55/102/26
f 58/110/27 59/111/27 57/112/27
f 56/113/28 54/114/28 60/115/28
f 60/108/29 61/104/29 59/116/29
f 61/99/30 48/100/30 47/117/30
f 64/121/32 65/98/32 63/96/32
f 66/108/33 67/101/33 65/99/33
f 68/108/34 69/104/34 67/102/34
f 69/107/35 72/122/35 71/106/35
f 71/102/36 74/123/36 73/109/36
f 73/112/37 76/124/37 75/111/37
f 75/116/39 78/128/39 77/104/39
f 78/129/40 63/117/40 77/99/40
f 75/130/41 77/131/41 69/132/41
f 79/96/42 82/97/42 81/98/42
f 81/99/43 84/100/43 83/101/43
f 83/102/44 86/103/44 85/104/44
f 86/105/45 87/106/45 85/107/45
f 88/108/46 89/109/46 87/102/46
f 90/110/47 91/111/47 89/112/47
f 88/113/41 86/114/41 92/115/41
f 92/108/48 93/104/48 91/116/48
f 93/99/49 80/100/49 79/117/49
f 96/121/50 97/98/50 95/96/50
f 98/108/51 99/101/51 97/99/51
f 100/108/52 101/104/52 99/102/52
f 101/107/53 104/122/53 103/106/53
f 103/102/54 106/123/54 105/109/54
f 105/112/55 108/124/55 107/111/55
f 107/116/57 110/128/57 109/104/57
f 110/129/58 95/117/58 109/99/58
f 107/130/59 109/131/59 101/132/59
f 112/44/60 113/133/60 111/15/60
f 114/67/61 115/134/61 113/135/61
f 116/136/62 117/137/62 115/138/62
f 118/45/63 119/15/63 117/139/63
f 119/12/64 122/140/64 121/141/64
f 121/112/65 124/124/65 123/111/65
f 120/113/66 118/114/66 124/115/66
f 124/108/67 125/104/67 123/116/67
f 126/142/68 111/3/68 125/143/68
f 127/26/70 130/11/70 129/12/70
f 130/147/71 131/148/71 129/133/71
f 131/149/72 134/150/72 133/28/72
f 134/151/73 135/152/73 133/153/73
f 136/154/74 137/155/74 135/152/74
f 137/156/75 140/157/75 139/158/75
f 139/116/77 142/128/77 141/104/77
f 141/28/78 128/162/78 127/163/78
f 139/130/79 141/131/79 133/132/79
f 144/82/80 145/164/80 143/165/80
f 146/166/81 147/167/81 145/168/81
f 147/12/82 150/140/82 149/141/82
f 150/65/83 151/169/83 149/134/83
f 152/170/84 153/165/84 151/58/84
f 154/110/85 155/111/85 153/112/85
f 155/116/87 158/128/87 157/104/87
f 158/142/88 143/3/88 157/143/88
f 155/130/89 157/131/89 149/132/89
f 160/44/90 161/133/90 159/15/90
f 161/171/91 164/172/91 163/173/91
f 164/65/92 165/169/92 163/134/92
f 166/174/93 167/175/93 165/176/93
f 168/166/94 169/167/94 167/168/94
f 170/177/95 171/178/95 169/179/95
f 168/113/96 166/114/96 172/115/96
f 171/116/97 174/128/97 173/104/97
f 174/170/98 159/165/98 173/58/98
f 176/180/12 177/181/12 175/182/12
f 178/155/1 179/13/1 177/183/1
f 234/184/6 185/185/6 237/186/6
f 236/187/16 181/86/16 235/188/16
f 182/28/3 175/189/3 181/23/3
f 178/192/6 185/193/6 180/194/6
f 176/195/6 186/196/6 184/197/6
f 178/198/6 184/199/6 183/200/6
f 1/23/7 205/47/7 17/23/7
f 205/63/9 24/64/9 17/65/9
f 3/230/9 203/231/9 1/232/9
f 209/153/4 27/233/4 20/234/4
f 207/48/7 20/46/7 12/46/7
f 9/235/4 207/76/4 12/90/4
f 213/63/5 26/64/5 19/65/5
f 5/49/7 213/21/7 19/49/7
f 6/139/5 211/181/5 5/72/5
f 217/236/8 29/209/8 22/237/8
f 215/50/7 22/39/7 16/39/7
f 13/143/8 215/238/8 16/1/8
f 236/249/6 186/250/6 182/251/6
f 179/252/18 234/253/18 233/254/18
f 177/255/7 179/256/7 233/257/7
f 45/206/110 232/258/110 231/259/110
f 44/252/111 232/260/111 46/89/111
f 43/88/112 231/261/112 229/262/112
f 32/78/113 225/263/113 31/80/113
f 25/14/7 223/264/7 7/52/7
f 24/13/7 223/264/7 249/265/7
f 222/266/114 25/233/114 18/234/114
f 4/14/7 222/267/7 18/14/7
f 2/235/114 220/268/114 4/90/114
f 2/269/6 219/270/6 250/271/6
f 3/272/6 219/273/6 8/32/6
f 227/274/2 226/275/2 228/276/2
f 12/1/1 11/206/1 10/2/1
f 248/277/2 249/278/2 223/4/2
f 223/4/2 224/279/2 222/5/2
f 222/5/2 220/280/2 250/281/2
f 219/6/2 221/282/2 248/277/2
f 221/282/2 247/283/2 248/277/2
f 222/5/2 250/281/2 219/6/2
f 248/277/2 223/4/2 219/6/2
f 245/284/2 246/285/2 244/286/2
f 244/286/2 242/287/2 240/288/2
f 238/7/2 236/289/2 235/290/2
f 244/286/2 240/288/2 243/291/2
f 240/288/2 238/7/2 239/292/2
f 243/291/2 240/288/2 239/292/2
f 243/291/2 245/284/2 244/286/2
f 239/292/2 241/293/2 243/291/2
f 233/8/2 234/294/2 237/9/2
f 237/9/2 239/292/2 238/7/2
f 238/7/2 235/290/2 233/8/2
f 16/10/3 15/295/3 14/11/3
f 208/12/4 2/137/4 4/13/4
f 212/15/5 10/152/5 11/16/5
f 208/20/6 9/296/6 10/297/6
f 212/18/6 6/269/6 8/19/6
f 208/20/6 10/297/6 212/18/6
f 8/19/6 2/298/6 208/20/6
f 211/21/7 11/22/7 21/22/7
f 1/23/7 17/23/7 248/24/7
f 216/26/8 6/138/8 5/27/8
f 204/28/9 14/168/9 15/29/9
f 8/32/6 6/272/6 216/30/6
f 216/30/6 13/299/6 14/300/6
f 204/31/6 3/301/6 8/32/6
f 216/30/6 14/300/6 204/31/6
f 231/33/2 232/302/2 230/34/2
f 221/36/10 3/138/10 1/27/10
f 15/38/7 16/39/7 22/39/7
f 22/40/3 29/149/3 30/41/3
f 23/43/9 30/26/9 206/44/9
f 12/46/7 20/46/7 21/22/7
f 203/47/7 15/38/7 23/38/7
f 4/14/7 18/14/7 209/48/7
f 5/49/7 19/49/7 217/50/7
f 7/52/7 26/303/7 214/51/7
f 214/51/7 28/22/7 27/46/7
f 27/46/7 210/48/7 214/51/7
f 210/48/7 25/14/7 7/52/7
f 206/54/7 30/304/7 29/305/7
f 29/305/7 218/53/7 206/54/7
f 218/53/7 26/303/7 7/52/7
f 206/54/7 7/52/7 24/13/7
f 17/55/10 24/171/10 249/56/10
f 20/58/1 27/165/1 28/11/1
f 18/60/4 25/306/4 210/61/4
f 19/63/8 26/208/8 218/64/8
f 21/66/5 28/63/5 214/65/5
f 227/68/11 228/307/11 34/69/11
f 33/71/12 34/308/12 32/72/12
f 225/74/13 227/309/13 33/10/13
f 226/75/14 32/90/14 34/76/14
f 36/78/15 38/310/15 37/79/15
f 38/10/16 42/27/16 41/81/16
f 42/82/17 40/311/17 39/83/17
f 39/85/18 40/90/18 36/76/18
f 41/87/19 39/10/19 35/27/19
f 42/89/20 38/252/20 36/90/20
f 230/91/21 44/310/21 43/79/21
f 44/93/12 46/312/12 45/94/12
f 47/96/115 48/121/115 50/97/115
f 49/99/116 50/108/116 52/100/116
f 51/102/117 52/108/117 54/103/117
f 54/105/118 56/122/118 55/106/118
f 56/108/119 58/123/119 57/109/119
f 58/110/120 60/124/120 59/111/120
f 52/313/28 50/314/28 48/241/28
f 48/241/28 62/315/28 52/313/28
f 62/315/28 60/115/28 54/114/28
f 52/313/28 62/315/28 54/114/28
f 60/115/28 58/316/28 56/113/28
f 60/108/121 62/128/121 61/104/121
f 61/99/122 62/129/122 48/100/122
f 64/121/47 66/97/47 65/98/47
f 66/108/46 68/100/46 67/101/46
f 68/108/45 70/103/45 69/104/45
f 69/107/44 70/105/44 72/122/44
f 71/102/123 72/108/123 74/123/123
f 73/112/42 74/110/42 76/124/42
f 75/116/49 76/108/49 78/128/49
f 78/129/48 64/100/48 63/117/48
f 77/131/41 63/327/41 69/132/41
f 63/327/41 65/328/41 67/329/41
f 69/132/41 63/327/41 67/329/41
f 69/132/41 71/330/41 75/130/41
f 71/330/41 73/331/41 75/130/41
f 79/96/37 80/121/37 82/97/37
f 81/99/36 82/108/36 84/100/36
f 83/102/35 84/108/35 86/103/35
f 86/105/34 88/122/34 87/106/34
f 88/108/33 90/123/33 89/109/33
f 90/110/32 92/124/32 91/111/32
f 84/313/41 82/314/41 80/241/41
f 80/241/41 94/315/41 84/313/41
f 94/315/41 92/115/41 86/114/41
f 84/313/41 94/315/41 86/114/41
f 92/115/41 90/316/41 88/113/41
f 92/108/40 94/128/40 93/104/40
f 93/99/39 94/129/39 80/100/39
f 96/121/124 98/97/124 97/98/124
f 98/108/125 100/100/125 99/101/125
f 100/108/126 102/103/126 101/104/126
f 101/107/127 102/105/127 104/122/127
f 103/102/128 104/108/128 106/123/128
f 105/112/129 106/110/129 108/124/129
f 107/116/130 108/108/130 110/128/130
f 110/129/131 96/100/131 95/117/131
f 109/131/59 95/327/59 101/132/59
f 95/327/59 97/328/59 99/329/59
f 101/132/59 95/327/59 99/329/59
f 101/132/59 103/330/59 107/130/59
f 103/330/59 105/331/59 107/130/59
f 112/44/60 114/147/60 113/133/60
f 114/67/61 116/65/61 115/134/61
f 116/136/62 118/311/62 117/137/62
f 118/45/63 120/44/63 119/15/63
f 119/12/64 120/11/64 122/140/64
f 121/112/65 122/110/65 124/124/65
f 116/313/66 114/314/66 112/241/66
f 112/241/66 126/315/66 116/313/66
f 126/315/66 124/115/66 118/114/66
f 116/313/66 126/315/66 118/114/66
f 124/115/66 122/316/66 120/113/66
f 124/108/67 126/128/67 125/104/67
f 126/142/68 112/2/68 111/3/68
f 127/26/70 128/59/70 130/11/70
f 130/147/71 132/337/71 131/148/71
f 131/149/72 132/69/72 134/150/72
f 134/151/73 136/154/73 135/152/73
f 136/154/74 138/338/74 137/155/74
f 137/156/75 138/339/75 140/157/75
f 139/116/77 140/108/77 142/128/77
f 141/28/78 142/150/78 128/162/78
f 141/131/79 127/327/79 131/329/79
f 127/327/79 129/328/79 131/329/79
f 131/329/79 133/132/79 141/131/79
f 133/132/79 135/330/79 139/130/79
f 135/330/79 137/331/79 139/130/79
f 144/82/80 146/345/80 145/164/80
f 146/166/81 148/346/81 147/167/81
f 147/12/82 148/11/82 150/140/82
f 150/65/83 152/64/83 151/169/83
f 152/170/84 154/82/84 153/165/84
f 154/110/85 156/124/85 155/111/85
f 155/116/87 156/108/87 158/128/87
f 158/142/88 144/2/88 143/3/88
f 157/131/89 143/327/89 147/329/89
f 143/327/89 145/328/89 147/329/89
f 147/329/89 149/132/89 157/131/89
f 149/132/89 151/330/89 155/130/89
f 151/330/89 153/331/89 155/130/89
f 160/44/90 162/147/90 161/133/90
f 161/171/91 162/347/91 164/172/91
f 164/65/92 166/64/92 165/169/92
f 166/174/93 168/348/93 167/175/93
f 168/166/94 170/346/94 169/167/94
f 170/177/95 172/349/95 171/178/95
f 164/313/96 162/314/96 160/241/96
f 160/241/96 174/315/96 164/313/96
f 174/315/96 172/115/96 166/114/96
f 164/313/96 174/315/96 166/114/96
f 172/115/96 170/316/96 168/113/96
f 171/116/97 172/108/97 174/128/97
f 174/170/98 160/82/98 159/165/98
f 176/180/12 178/153/12 177/181/12
f 178/155/1 180/137/1 179/13/1
f 234/184/6 180/350/6 185/185/6
f 236/187/16 182/351/16 181/86/16
f 182/28/3 176/352/3 175/189/3
f 178/192/6 183/353/6 185/193/6
f 176/195/6 182/354/6 186/196/6
f 178/198/6 176/355/6 184/199/6
f 1/23/7 203/47/7 205/47/7
f 205/63/9 206/208/9 24/64/9
f 3/230/9 204/362/9 203/231/9
f 209/153/4 210/152/4 27/233/4
f 207/48/7 209/48/7 20/46/7
f 9/235/4 208/63/4 207/76/4
f 213/63/5 214/208/5 26/64/5
f 5/49/7 211/21/7 213/21/7
f 6/139/5 212/153/5 211/181/5
f 217/236/8 218/191/8 29/209/8
f 215/50/7 217/50/7 22/39/7
f 13/143/8 216/60/8 215/238/8
f 236/249/6 238/367/6 186/250/6
f 179/252/18 180/368/18 234/253/18
f 181/369/7 175/370/7 235/371/7
f 175/370/7 177/255/7 233/257/7
f 235/371/7 175/370/7 233/257/7
f 45/206/110 46/356/110 232/258/110
f 44/252/111 230/372/111 232/260/111
f 43/88/112 45/87/112 231/261/112
f 32/78/113 226/373/113 225/263/113
f 25/14/7 224/267/7 223/264/7
f 24/13/7 7/52/7 223/264/7
f 222/266/114 224/374/114 25/233/114
f 4/14/7 220/375/7 222/267/7
f 2/235/132 250/376/132 220/268/132
f 2/269/6 8/19/6 219/270/6
f 3/272/6 221/377/6 219/273/6
f 227/274/2 225/378/2 226/275/2
usemtl volute
f 59/118/31 61/119/31 53/120/31
f 72/125/38 70/126/38 76/127/38
f 91/118/38 93/119/38 85/120/38
f 104/125/56 102/126/56 108/127/56
f 125/144/69 119/145/69 123/146/69
f 136/159/76 134/160/76 140/161/76
f 152/159/86 150/160/86 156/161/86
f 173/144/99 167/145/99 171/146/99
f 61/119/31 47/317/31 51/318/31
f 47/317/31 49/319/31 51/318/31
f 51/318/31 53/120/31 61/119/31
f 53/120/31 55/320/31 59/118/31
f 55/320/31 57/321/31 59/118/31
f 68/322/38 66/323/38 64/324/38
f 64/324/38 78/325/38 68/322/38
f 78/325/38 76/127/38 70/126/38
f 68/322/38 78/325/38 70/126/38
f 76/127/38 74/326/38 72/125/38
f 93/119/38 79/317/38 83/318/38
f 79/317/38 81/319/38 83/318/38
f 83/318/38 85/120/38 93/119/38
f 85/120/38 87/320/38 91/118/38
f 87/320/38 89/321/38 91/118/38
f 100/322/56 98/323/56 96/324/56
f 96/324/56 110/325/56 100/322/56
f 110/325/56 108/127/56 102/126/56
f 100/322/56 110/325/56 102/126/56
f 108/127/56 106/326/56 104/125/56
f 125/144/69 111/332/69 115/333/69
f 111/332/69 113/334/69 115/333/69
f 115/333/69 117/335/69 125/144/69
f 117/335/69 119/145/69 125/144/69
f 119/145/69 121/336/69 123/146/69
f 132/340/76 130/341/76 128/342/76
f 128/342/76 142/343/76 132/340/76
f 142/343/76 140/161/76 134/160/76
f 132/340/76 142/343/76 134/160/76
f 140/161/76 138/344/76 136/159/76
f 148/340/86 146/341/86 144/342/86
f 144/342/86 158/343/86 148/340/86
f 158/343/86 156/161/86 150/160/86
f 148/340/86 158/343/86 150/160/86
f 156/161/86 154/344/86 152/159/86
f 173/144/99 159/332/99 163/333/99
f 159/332/99 161/334/99 163/333/99
f 163/333/99 165/335/99 173/144/99
f 165/335/99 167/145/99 173/144/99
f 167/145/99 169/336/99 171/146/99
usemtl corinthian
f 183/190/1 189/191/1 185/78/1
f 190/201/100 192/66/100 188/202/100
f 185/203/18 239/204/18 237/205/18
f 184/206/12 187/40/12 183/79/12
f 186/207/3 188/208/3 184/89/3
f 187/209/101 193/202/101 189/191/101
f 189/2/102 241/210/102 239/204/102
f 188/140/103 191/211/103 187/212/103
f 198/213/104 200/214/104 196/215/104
f 241/216/6 197/217/6 243/218/6
f 192/219/6 195/13/6 191/220/6
f 194/219/6 196/13/6 192/220/6
f 191/219/6 197/13/6 193/220/6
f 197/221/105 199/222/105 201/223/105
f 197/224/106 245/225/106 243/226/106
f 195/227/107 200/228/107 199/229/107
f 246/239/6 245/240/6 200/241/6
f 198/242/108 246/243/108 202/227/108
f 242/244/6 198/13/6 194/220/6
f 190/191/109 242/245/109 194/202/109
f 238/246/16 190/247/16 186/248/16
f 183/190/1 187/209/1 189/191/1
f 190/201/100 194/67/100 192/66/100
f 185/203/18 189/2/18 239/204/18
f 184/206/12 188/356/12 187/40/12
f 186/207/3 190/64/3 188/208/3
f 187/209/101 191/201/101 193/202/101
f 189/2/102 193/337/102 241/210/102
f 188/140/103 192/357/103 191/211/103
f 198/213/104 202/358/104 200/214/104
f 241/216/6 193/219/6 197/217/6
f 192/219/6 196/217/6 195/13/6
f 194/219/6 198/217/6 196/13/6
f 191/219/6 195/217/6 197/13/6
f 197/221/105 195/359/105 199/222/105
f 197/224/106 201/360/106 245/225/106
f 195/227/107 196/361/107 200/228/107
f 201/313/6 199/314/6 245/240/6
f 199/314/6 200/241/6 245/240/6
f 200/241/6 202/315/6 246/239/6
f 198/242/108 244/363/108 246/243/108
f 242/244/6 244/364/6 198/13/6
f 190/191/109 240/365/109 242/245/109
f 238/246/16 240/366/16 190/247/16
