# Blender 5.1.2
# www.blender.org
mtllib small_composite_half_capital.mtl
o composite
v 0.347906 0.774177 0.632807
v 0.347906 0.856888 0.632807
v 0.652096 0.774177 0.632807
v 0.652096 0.856888 0.632807
v 0.867191 0.774177 0.847902
v 0.867191 0.856888 0.847902
v 0.132811 0.774177 0.847902
v 0.132811 0.856888 0.847902
v 0.149429 0.851358 0.999353
v 0.106776 0.837130 0.999355
v 0.142347 0.872580 0.943502
v 0.099693 0.858353 0.943505
v 0.124964 0.924690 0.920749
v 0.082311 0.910462 0.920752
v 0.107464 0.977161 0.944421
v 0.064810 0.962933 0.944424
v 0.443497 0.978033 0.607181
v 0.443495 0.963806 0.564527
v 0.420744 0.925924 0.624563
v 0.420742 0.911697 0.581910
v 0.444416 0.873453 0.642064
v 0.444414 0.859226 0.599410
v 0.500647 0.851358 0.649431
v 0.500645 0.837130 0.606777
v 0.556498 0.872580 0.642348
v 0.556495 0.858353 0.599695
v 0.579251 0.924690 0.624966
v 0.579249 0.910462 0.582313
v 0.555579 0.977161 0.607465
v 0.555576 0.962933 0.564812
v 0.499348 0.999256 0.600098
v 0.499345 0.985029 0.557445
v 0.046491 0.826913 0.632388
v 0.138779 0.826913 0.589352
v 0.027418 0.717962 0.591488
v 0.119705 0.717962 0.548451
v 0.046491 0.609011 0.632388
v 0.138779 0.609011 0.589352
v 0.092537 0.563882 0.731131
v 0.184825 0.563882 0.688094
v 0.138584 0.609011 0.829873
v 0.230871 0.609011 0.786836
v 0.157657 0.717962 0.870773
v 0.249945 0.717962 0.827737
v 0.138584 0.826913 0.829873
v 0.230871 0.826913 0.786836
v 0.092537 0.872042 0.731131
v 0.184825 0.872042 0.688094
v 0.257423 0.582989 0.843774
v 0.165136 0.582989 0.886810
v 0.184209 0.691940 0.927710
v 0.276496 0.691940 0.884674
v 0.859411 0.826912 0.587548
v 0.951700 0.826912 0.630582
v 0.878482 0.717961 0.546647
v 0.970771 0.717961 0.589680
v 0.859411 0.609010 0.587548
v 0.951700 0.609010 0.630582
v 0.813368 0.563881 0.686292
v 0.905657 0.563881 0.729326
v 0.767325 0.609010 0.785036
v 0.859614 0.609010 0.828069
v 0.748253 0.717961 0.825937
v 0.840542 0.717961 0.868971
v 0.767325 0.826912 0.785036
v 0.859614 0.826912 0.828069
v 0.813368 0.872041 0.686292
v 0.905657 0.872041 0.729326
v 0.833064 0.582988 0.885008
v 0.740775 0.582988 0.841974
v 0.721704 0.691939 0.882876
v 0.813993 0.691939 0.925909
v 0.087546 0.826913 0.640590
v 0.130579 0.826913 0.548301
v 0.046645 0.717962 0.621519
v 0.089678 0.717962 0.529230
v 0.087546 0.609011 0.640590
v 0.130579 0.609011 0.548301
v 0.186290 0.563882 0.686633
v 0.229323 0.563882 0.594344
v 0.285034 0.609011 0.732675
v 0.328067 0.609011 0.640386
v 0.325936 0.717962 0.751747
v 0.368968 0.717962 0.659458
v 0.285034 0.826913 0.732675
v 0.328067 0.826913 0.640386
v 0.186290 0.872042 0.686633
v 0.229323 0.872042 0.594344
v 0.385005 0.582989 0.666935
v 0.341973 0.582989 0.759225
v 0.382874 0.691940 0.778296
v 0.425907 0.691940 0.686007
v 0.867615 0.826913 0.546494
v 0.910650 0.826913 0.638782
v 0.908515 0.717962 0.527421
v 0.951551 0.717962 0.619709
v 0.867614 0.609011 0.546494
v 0.910650 0.609011 0.638782
v 0.768872 0.563882 0.592540
v 0.811908 0.563882 0.684828
v 0.670129 0.609011 0.638586
v 0.713165 0.609011 0.730874
v 0.629229 0.717962 0.657659
v 0.672265 0.717962 0.749947
v 0.670129 0.826913 0.638586
v 0.713166 0.826913 0.730874
v 0.768872 0.872042 0.592540
v 0.811908 0.872042 0.684828
v 0.656228 0.582988 0.757425
v 0.613192 0.582988 0.665137
v 0.572292 0.691939 0.684210
v 0.615328 0.691939 0.776498
v 0.892818 0.978033 0.943501
v 0.935471 0.963806 0.943498
v 0.875435 0.925924 0.920747
v 0.918089 0.911697 0.920745
v 0.857935 0.873453 0.944419
v 0.900588 0.859226 0.944417
v 0.899900 0.999256 0.999351
v 0.942553 0.985029 0.999349
v 0.091678 0.937626 1.000000
v 0.908322 1.000126 1.000000
v 0.091678 1.000126 1.000000
v 0.908322 0.937626 1.000000
v 0.500000 0.937626 0.591678
v 0.500000 1.000126 0.591678
v 0.500000 0.848475 1.000000
v 0.500000 1.000126 1.000000
v 1.028899 1.000126 0.513729
v 0.986271 1.000126 0.471102
v 0.986271 0.937626 0.471102
v 1.028899 0.937626 0.513729
v 0.013729 1.000126 0.471102
v -0.028898 1.000126 0.513729
v -0.028898 0.937626 0.513729
v 0.013729 0.937626 0.471102
v 0.169867 0.937626 1.000000
v 0.830134 0.937626 1.000000
v 0.500000 0.937626 0.669867
v 0.927621 0.937626 0.606845
v 0.893156 0.937626 0.572380
v 0.106845 0.937626 0.572380
v 0.072379 0.937626 0.606845
v 0.169867 0.848475 1.000000
v 0.830134 0.848475 1.000000
v 0.500000 0.848475 0.669867
v 0.927621 0.848475 0.606845
v 0.893156 0.848475 0.572380
v 0.106845 0.848475 0.572380
v 0.072379 0.848475 0.606845
v 0.346013 0.068876 0.628242
v 0.346013 0.145809 0.628242
v 0.653987 0.068876 0.628242
v 0.653987 0.145809 0.628242
v 0.871757 0.068876 0.846012
v 0.871757 0.145809 0.846012
v 0.128243 0.068876 0.846012
v 0.128243 0.145809 0.846012
v 0.653987 0.145809 0.628242
v 0.346013 0.145809 0.628242
v 0.871757 0.145809 0.846012
v 0.128243 0.145809 0.846012
v 0.632408 0.145809 0.680338
v 0.367592 0.145809 0.680338
v 0.819661 0.145809 0.867591
v 0.180339 0.145809 0.867591
v 0.666071 0.395809 0.599069
v 0.333929 0.395809 0.599069
v 0.900930 0.395809 0.833928
v 0.099070 0.395809 0.833928
v 0.628215 0.395809 0.690461
v 0.371785 0.395809 0.690461
v 0.809538 0.395809 0.871784
v 0.190462 0.395809 0.871784
v 0.666437 0.625809 0.598184
v 0.333563 0.625809 0.598184
v 0.901815 0.625809 0.833562
v 0.098185 0.625809 0.833562
v 0.635902 0.625809 0.671903
v 0.364098 0.625809 0.671903
v 0.828095 0.625809 0.864097
v 0.171905 0.625809 0.864097
v 0.650804 0.855809 0.635926
v 0.349196 0.855809 0.635926
v 0.864073 0.855809 0.849195
v 0.135927 0.855809 0.849195
v 0.867191 0.774177 1.000000
v 0.867191 0.856888 1.000000
v 0.132811 0.774177 1.000000
v 0.132811 0.856888 1.000000
v 0.149344 0.851612 1.000000
v 0.106691 0.837384 1.000000
v 0.100183 0.999000 1.000000
v 0.057530 0.984772 1.000000
v 0.850653 0.851613 1.000000
v 0.893306 0.837385 1.000000
v 0.899815 0.999001 1.000000
v 0.942468 0.984773 1.000000
v 0.871757 0.068876 1.000000
v 0.871757 0.145809 1.000000
v 0.128243 0.068876 1.000000
v 0.128243 0.145809 1.000000
v 0.871757 0.145809 1.000000
v 0.128243 0.145809 1.000000
v 0.819661 0.145809 1.000000
v 0.180339 0.145809 1.000000
v 0.900930 0.395809 1.000000
v 0.099070 0.395809 1.000000
v 0.809538 0.395809 1.000000
v 0.190462 0.395809 1.000000
v 0.901815 0.625809 1.000000
v 0.098185 0.625809 1.000000
v 0.828095 0.625809 1.000000
v 0.171905 0.625809 1.000000
v 0.864073 0.855809 1.000000
v 0.135927 0.855809 1.000000
vn -0.0000 -0.0000 -1.0000
vn 0.7071 -0.0000 -0.7071
vn -1.0000 -0.0000 -0.0000
vn -0.7071 -0.0000 -0.7071
vn 0.2924 -0.8764 0.3827
vn 0.2937 -0.8806 -0.3719
vn 0.1210 -0.3630 -0.9239
vn -0.1245 0.3732 -0.9193
vn -0.9486 -0.3164 0.0001
vn 0.9486 0.3164 -0.0001
vn -0.9239 0.3630 -0.1210
vn -0.9193 -0.3732 0.1245
vn -0.3827 -0.8764 0.2924
vn 0.3719 -0.8806 0.2937
vn 0.9239 -0.3630 0.1210
vn 0.9193 0.3732 -0.1245
vn -0.0001 -0.3164 -0.9486
vn 0.3827 0.8764 -0.2924
vn -0.3719 0.8806 -0.2937
vn 0.0001 0.3164 0.9486
vn -0.3905 0.3827 -0.8373
vn -0.3905 -0.3827 -0.8373
vn -0.1617 -0.9239 -0.3468
vn 0.1617 -0.9239 0.3468
vn 0.1617 0.9239 0.3468
vn 0.3905 0.3827 0.8373
vn 0.9063 -0.0000 -0.4226
vn -0.1617 0.9239 -0.3468
vn -0.9063 -0.0000 0.4226
vn -0.0000 -0.0000 1.0000
vn 0.3904 0.3827 -0.8373
vn 0.3904 -0.3827 -0.8373
vn 0.1617 -0.9239 -0.3468
vn -0.1617 -0.9239 0.3468
vn 0.9063 -0.0000 0.4226
vn -0.3904 0.3827 0.8373
vn -0.1617 0.9239 0.3468
vn 0.1617 0.9239 -0.3468
vn -0.9063 -0.0000 -0.4226
vn -0.8373 0.3827 -0.3904
vn -0.8373 -0.3827 -0.3904
vn -0.3468 -0.9239 -0.1617
vn 0.3468 -0.9239 0.1617
vn 0.8373 0.3827 0.3904
vn 0.4226 -0.0000 -0.9063
vn 0.3468 0.9239 0.1617
vn -0.3468 0.9239 -0.1617
vn -0.4226 -0.0000 0.9063
vn 0.8373 0.3827 -0.3905
vn 0.8373 -0.3827 -0.3905
vn 0.3468 -0.9239 -0.1617
vn -0.3468 -0.9239 0.1617
vn 0.4226 -0.0000 0.9063
vn -0.8373 0.3827 0.3905
vn -0.3468 0.9239 0.1617
vn 0.3468 0.9239 -0.1617
vn -0.4226 -0.0000 -0.9063
vn 0.1210 0.3630 -0.9239
vn -0.1245 -0.3732 -0.9193
vn 0.2924 0.8764 0.3827
vn 0.2937 0.8806 -0.3719
vn 0.9706 -0.0000 0.2407
vn -0.2407 -0.0000 -0.9706
vn -0.0000 1.0000 -0.0000
vn -0.0000 -1.0000 -0.0000
vn 0.2407 -0.0000 -0.9706
vn -0.9706 -0.0000 0.2407
vn 0.0001 -0.3164 0.9486
vn 0.9510 -0.3092 -0.0000
vn -0.0000 -0.3092 -0.9510
vn -0.6725 -0.3092 -0.6725
vn 0.6725 -0.3092 -0.6725
vn -0.6563 -0.3724 -0.6563
vn 0.6563 -0.3724 -0.6563
vn 0.9281 -0.3724 -0.0000
vn -0.0000 -0.3724 -0.9281
vn 0.9880 -0.1545 -0.0000
vn -0.0000 -0.1545 -0.9880
vn -0.6986 -0.1545 -0.6986
vn 0.6986 -0.1545 -0.6986
vn -0.9880 -0.1545 -0.0000
vn -0.9281 -0.3724 -0.0000
vn -0.9510 -0.3092 -0.0000
vn 1.0000 -0.0000 -0.0000
vn 0.9486 -0.3164 -0.0001
vn -0.2923 -0.8764 -0.3827
vn -0.9486 0.3164 0.0001
vn -0.2924 0.8764 -0.3827
vn 0.2923 -0.8764 0.3827
vn 0.1135 -0.8669 0.4854
vn 0.2923 0.8764 0.3827
vn 0.9486 -0.3164 -0.0000
vn -0.9486 0.3164 -0.0000
vt 0.937500 0.625000
vt 0.500000 0.500000
vt 0.937500 0.500000
vt 0.687500 0.625000
vt 0.250000 0.500000
vt 0.687500 0.500000
vt 0.468754 0.625000
vt 0.468754 0.500000
vt 0.187500 0.435350
vt 0.062500 0.437500
vt 0.062500 0.435341
vt 0.812500 0.500000
vt 0.687500 0.687500
vt 0.687500 0.500000
vt 0.312500 0.125000
vt 0.187500 0.312500
vt 0.187500 0.125000
vt 0.812500 0.875000
vt 0.687500 0.875000
vt 0.750188 0.051254
vt 0.613302 0.188423
vt 0.652687 0.091493
vt 0.624239 0.200060
vt 0.799940 0.375761
vt 0.200060 0.378622
vt 0.062500 0.312500
vt 0.062500 0.125000
vt 0.812500 0.750000
vt 0.687500 0.937500
vt 0.687500 0.750000
vt 0.937500 0.250000
vt 0.812500 0.437500
vt 0.812500 0.250000
vt 0.125000 0.687500
vt 0.250000 0.875000
vt 0.125000 0.875000
vt 0.625000 0.125000
vt 0.750000 0.312500
vt 0.625000 0.312500
vt 0.625000 0.750000
vt 0.750000 0.937500
vt 0.625000 0.937500
vt 0.749076 0.675802
vt 0.846007 0.715187
vt 0.653993 0.909813
vt 0.312500 0.500000
vt 0.437500 0.687500
vt 0.312500 0.687500
vt 0.750000 0.250000
vt 0.625000 0.437500
vt 0.625000 0.250000
vt 0.799940 0.624239
vt 0.200060 0.375761
vt 0.375000 0.437500
vt 0.500000 0.562500
vt 0.375000 0.562500
vt 0.875000 0.625000
vt 0.750000 0.750000
vt 0.750000 0.625000
vt 0.062500 0.250000
vt 0.312500 0.750000
vt 0.187500 0.875000
vt 0.187500 0.750000
vt 0.414228 0.999936
vt 0.414228 0.000064
vt 0.812500 0.625000
vt 0.937500 0.750000
vt 0.292935 0.999900
vt 0.000100 0.292935
vt 0.707065 0.000100
vt 0.312500 0.375000
vt 0.187500 0.500000
vt 0.187500 0.375000
vt 0.062500 0.375000
vt 0.062500 0.500000
vt 0.501099 0.313828
vt 0.686172 0.501098
vt 0.498901 0.686172
vt 0.122253 0.422315
vt 0.167216 0.577685
vt 0.122253 0.577686
vt 0.687500 0.187500
vt 0.687500 0.312500
vt 0.000100 0.707065
vt 0.000064 0.999936
vt 0.000064 0.000064
vt 0.500000 0.062500
vt 0.375000 0.187500
vt 0.375000 0.062500
vt 0.500000 0.437500
vt 0.250000 0.312500
vt 0.125000 0.437500
vt 0.125000 0.312500
vt 0.625000 0.687500
vt 0.687500 0.812500
vt 0.625000 0.812500
vt 0.000064 0.000064
vt 0.369133 0.632420
vt 0.501098 0.686172
vt 0.632420 0.630867
vt 0.414228 0.999936
vt 0.000064 0.000064
vt 0.414228 0.000064
vt 0.375000 0.312500
vt 0.250000 0.437500
vt 0.185308 0.500000
vt 0.000158 0.500000
vt 0.109189 0.096186
vt 0.375761 0.200060
vt 0.875000 0.750000
vt 0.750000 0.875000
vt 0.750000 0.125000
vt 0.875000 0.250000
vt 0.437500 0.625000
vt 0.312500 0.625000
vt 0.937500 0.062500
vt 0.812500 0.187500
vt 0.812500 0.062500
vt 0.687500 0.437500
vt 0.812500 0.562500
vt 0.687500 0.562500
vt 0.630867 0.367579
vt 0.367579 0.369133
vt 0.437500 0.750000
vt 0.312500 0.875000
vt 0.812500 0.312500
vt 0.000034 0.000034
vt 0.112654 0.999966
vt 0.000034 0.999966
vt 0.125000 0.625000
vt 0.250000 0.750000
vt 0.125000 0.750000
vt 0.625000 0.562500
vt 0.750000 0.687500
vt 0.437500 0.375000
vt 0.562500 0.500000
vt 0.437500 0.500000
vt 0.437500 0.125000
vt 0.312500 0.250000
vt 0.999900 0.707065
vt 0.562500 0.562500
vt 0.562500 0.687500
vt 0.313828 0.498901
vt 0.930299 0.894272
vt 0.924110 0.999901
vt 0.097897 0.860450
vt 0.312500 0.562500
vt 0.250000 0.562500
vt 0.500000 0.625000
vt 0.500000 0.812500
vt 0.687500 0.250000
vt 0.562500 0.437500
vt 0.562500 0.250000
vt 0.437500 0.810336
vt 0.562500 0.812500
vt 0.437500 0.812500
vt 0.375000 0.513050
vt 0.629350 0.491300
vt 0.625000 0.513050
vt 0.625000 0.263050
vt 0.375000 0.236950
vt 0.625000 0.236950
vt 0.125000 0.812500
vt 0.625000 0.875000
vt 0.000000 0.187500
vt 0.500000 0.125000
vt 0.500000 0.187500
vt 0.643816 0.764472
vt 0.235458 0.764489
vt 0.235458 0.356209
vt 0.456963 0.149554
vt 0.843204 0.225447
vt 0.438127 0.225440
vt 1.000000 0.062500
vt 1.000000 0.125000
vt 1.000000 0.875000
vt 0.500000 0.875000
vt 0.764316 0.721882
vt 0.721613 0.764489
vt 0.235458 0.643791
vt 0.439169 0.618769
vt 0.493672 0.756231
vt 0.444929 0.756223
vt 0.756530 0.268554
vt 0.805970 0.356446
vt 0.756530 0.356446
vt 0.059967 0.860008
vt 0.440033 0.764992
vt 0.440033 0.860008
vt 0.249452 0.431270
vt 0.194950 0.568730
vt 0.189169 0.431270
vt 0.394463 0.774554
vt 0.780704 0.850447
vt 0.375627 0.850440
vt 0.564103 0.837053
vt 0.177862 0.912946
vt 0.063127 0.837053
vt 0.814103 0.462053
vt 0.427862 0.537946
vt 0.313127 0.462053
vt 0.370650 0.491300
vt 0.375000 0.625000
vt 0.250000 0.625000
vt 0.756530 0.768554
vt 0.805970 0.856446
vt 0.756530 0.856446
vt 0.059967 0.485008
vt 0.440033 0.389992
vt 0.440033 0.485008
vt 0.559967 0.485008
vt 0.940033 0.389992
vt 0.940033 0.485008
vt 0.877533 0.860008
vt 0.497467 0.764992
vt 0.877533 0.764992
vt 0.000000 0.875000
vt 0.500000 1.000000
vt 0.000000 1.000000
vt 0.312498 0.187500
vt 0.562500 0.062500
vt 0.562500 0.187500
vt 0.187500 0.187500
vt 0.000064 0.999936
vt 0.414228 0.999936
vt 0.414228 0.000064
vt 0.000064 0.000064
vt 0.207144 0.999936
vt 0.218749 0.476916
vt 0.368793 0.523084
vt 0.218749 0.523084
vt 0.295624 0.914416
vt 0.618793 0.960584
vt 0.318707 0.960584
vt 0.358124 0.164416
vt 0.681293 0.210584
vt 0.381207 0.210584
vt 0.954376 0.601916
vt 0.631207 0.648084
vt 0.608124 0.601916
vt 0.428629 0.769800
vt 0.113690 0.855199
vt 0.073187 0.769800
vt 0.896535 0.750055
vt 0.778177 0.999945
vt 0.774446 0.750066
vt 0.584035 0.437555
vt 0.312555 0.687445
vt 0.339859 0.437577
vt 0.271535 0.062555
vt 0.000055 0.312445
vt 0.027359 0.062577
vt 0.896535 0.125055
vt 0.625055 0.374945
vt 0.652359 0.125077
vt 0.950203 0.000055
vt 0.687555 0.249945
vt 0.718727 0.000078
vt 0.563407 0.457300
vt 0.700615 0.542700
vt 0.563401 0.542699
vt 0.198187 0.207300
vt 0.513115 0.292700
vt 0.238690 0.292699
vt 0.573187 0.894800
vt 0.888115 0.980200
vt 0.613690 0.980199
vt 0.780617 0.904383
vt 0.932167 0.970583
vt 0.780855 0.970600
vt 0.450203 0.312555
vt 0.187555 0.562445
vt 0.218727 0.312578
vt 0.762703 0.625055
vt 0.650291 0.874945
vt 0.646964 0.625066
vt 0.262703 0.750055
vt 0.000055 0.999945
vt 0.031227 0.750078
vt 0.590914 0.716883
vt 0.254546 0.783117
vt 0.220323 0.716883
vt 0.403414 0.466883
vt 0.067046 0.533117
vt 0.032823 0.466883
vt 0.903414 0.279383
vt 0.567046 0.345617
vt 0.532823 0.279383
vt 0.312500 0.812500
vt 0.468751 0.625000
vt 0.468751 0.812500
vt 0.937500 0.375000
vt 0.937500 0.562500
vt 0.062500 0.187500
vt 0.375000 0.000000
vt 0.375000 0.375000
vt 0.499998 0.999900
vt 0.499999 0.000100
vt 0.937500 0.687500
vt 0.781249 0.500000
vt 0.530620 0.091883
vt 0.379546 0.158117
vt 0.345323 0.091883
vt 0.656227 0.625078
vt 0.775293 0.874945
vt 0.625055 0.874945
vt 0.188409 0.207300
vt 0.051190 0.292699
vt 0.010687 0.207300
vt 0.589859 0.625077
vt 0.715679 0.874945
vt 0.562555 0.874945
vt 0.218751 0.414416
vt 0.068707 0.460584
vt 0.045624 0.414416
vt 0.000064 0.999936
vt 0.207147 0.999936
vt 0.312502 0.500000
vt 0.128241 0.499999
vt 0.871759 0.499999
vt 0.346012 0.871759
vt 0.187301 0.886242
vt 0.187693 0.613756
vt 0.283507 0.652687
vt 0.250000 0.062500
vt 0.125000 0.247832
vt 0.125000 0.062500
vt 0.200060 0.624239
vt 0.200060 0.378634
vt 0.799940 0.621371
vt 0.812500 0.372816
vt 0.687500 0.372825
vt 0.499998 0.867185
vt 0.499998 0.132814
vt 0.867185 0.652093
vt 0.937500 0.500000
vt 0.718746 0.625000
vt 0.718746 0.500000
vt 0.132820 0.499998
vt 0.867180 0.499997
vt 0.347909 0.867180
vt 0.187500 0.437500
vt 0.812500 0.687500
vt 0.312500 0.312500
vt 0.749076 0.050802
vt 0.749795 0.323739
vt 0.653993 0.284813
vt 0.799940 0.621357
vt 0.812500 0.937500
vt 0.937500 0.437500
vt 0.250000 0.687500
vt 0.886698 0.811576
vt 0.847313 0.908507
vt 0.750924 0.949198
vt 0.613302 0.813423
vt 0.652687 0.716493
vt 0.750000 0.437500
vt 0.624239 0.799940
vt 0.375761 0.799940
vt 0.187500 0.250000
vt 0.999900 0.292934
vt 0.707065 0.999900
vt 0.292935 0.000100
vt 0.632421 0.369133
vt 0.630867 0.632420
vt 0.367580 0.630867
vt 0.369133 0.367579
vt 0.167216 0.422314
vt 0.750000 0.187500
vt 0.000065 0.999936
vt 0.686172 0.498901
vt 0.498901 0.313828
vt 0.313828 0.501098
vt 0.110144 0.000043
vt 0.185939 0.001203
vt 0.185939 0.998797
vt 0.109189 0.903814
vt 0.110144 0.999957
vt 0.000043 0.903263
vt 0.000043 0.096737
vt 0.875000 0.875000
vt 0.875000 0.125000
vt 0.937500 0.187500
vt 0.437500 0.875000
vt 0.112654 0.000034
vt 0.750000 0.562500
vt 0.562500 0.375000
vt 0.437500 0.250000
vt 0.043105 0.005468
vt 0.920806 0.000098
vt 0.880936 0.278495
vt 0.969861 0.278486
vt 0.859546 0.557180
vt 0.969861 0.561559
vt 0.868255 0.864861
vt 0.089097 0.282098
vt 0.110882 0.558507
vt 0.000098 0.281325
vt 0.000607 0.558168
vt 0.032210 0.950285
vt 0.026186 0.861995
vt 0.029340 0.861072
vt 0.930666 0.879746
vt 0.312500 0.437500
vt 0.625000 0.625000
vt 0.562500 0.810328
vt 0.375000 0.263050
vt 0.000000 0.125000
vt 0.721613 0.235511
vt 0.764316 0.278118
vt 0.957939 0.149554
vt 1.000000 0.812500
vt 0.235458 0.235511
vt 0.643816 0.235527
vt 0.499452 0.618769
vt 0.805970 0.268554
vt 0.059967 0.764992
vt 0.243692 0.568722
vt 0.895439 0.774554
vt 0.582939 0.912940
vt 0.832939 0.537940
vt 0.125000 0.513050
vt 0.138050 0.500000
vt 0.805970 0.768554
vt 0.059967 0.389992
vt 0.559967 0.389992
vt 0.497467 0.860008
vt 0.187500 0.625000
vt 0.312498 0.062500
vt 0.391876 0.476916
vt 0.641876 0.914416
vt 0.704376 0.164416
vt 0.931293 0.648084
vt 0.388115 0.855200
vt 0.931301 0.999945
vt 0.618801 0.687445
vt 0.306301 0.312445
vt 0.931301 0.374945
vt 0.988029 0.249945
vt 0.741129 0.457300
vt 0.553629 0.207300
vt 0.928629 0.894800
vt 0.965914 0.904383
vt 0.488029 0.562445
vt 0.800529 0.874945
vt 0.300529 0.999945
vt 0.557167 0.783083
vt 0.369667 0.533083
vt 0.869667 0.345583
vt 0.625000 0.375000
vt 0.062500 0.000000
vt 0.062500 0.562500
vt 0.781249 0.687500
vt 0.530857 0.158100
vt 0.771966 0.625066
vt 0.188404 0.292699
vt 0.711948 0.625066
vt 0.218751 0.460584
vt 0.312502 0.375000
vt 0.871759 0.653988
vt 0.653988 0.871759
vt 0.128241 0.653988
vt 0.324198 0.749076
vt 0.284813 0.846007
vt 0.188424 0.886698
vt 0.250000 0.247839
vt 0.652093 0.132814
vt 0.867185 0.347907
vt 0.652093 0.867185
vt 0.867180 0.652091
vt 0.652091 0.867180
vt 0.132820 0.652091
vt 0.621565 0.889126
vt 0.621646 0.734359
vt 0.666599 0.889720
vt 0.666599 0.734339
s 0
usemtl corinthian
f 192/9/5 9/10/5 191/11/5
f 10/12/6 11/13/6 9/14/6
f 12/15/7 13/16/7 11/17/7
f 13/13/8 16/18/8 15/19/8
f 192/20/9 14/21/9 12/22/9
f 13/23/10 15/24/10 191/25/10
f 18/17/11 19/26/11 17/27/11
f 20/28/12 21/29/12 19/30/12
f 22/31/13 23/32/13 21/33/13
f 23/34/14 26/35/14 25/36/14
f 25/37/15 28/38/15 27/39/15
f 27/40/16 30/41/16 29/42/16
f 24/43/17 22/44/17 30/45/17
f 29/46/18 32/47/18 31/48/18
f 32/49/19 17/50/19 31/51/19
f 29/24/20 31/52/20 23/53/20
f 44/64/25 51/65/25 52/64/25
f 46/68/27 42/69/27 38/70/27
f 42/69/27 52/84/27 49/69/27
f 42/85/23 50/86/23 41/86/23
f 59/53/39 63/23/39 67/52/39
f 62/85/33 70/86/33 61/86/33
f 63/65/37 72/64/37 64/64/37
f 63/23/39 70/109/39 71/23/39
f 82/85/42 90/86/42 81/86/42
f 85/24/48 87/52/48 79/53/48
f 83/65/46 92/64/46 84/64/46
f 81/109/48 91/23/48 83/23/48
f 104/84/53 109/69/53 102/69/53
f 98/70/53 94/140/53 106/68/53
f 102/85/51 110/86/51 101/86/51
f 104/64/55 111/65/55 112/64/55
f 113/149/58 116/96/58 115/150/58
f 116/151/59 117/152/59 115/153/59
f 197/154/60 120/155/60 119/156/60
f 120/15/61 113/16/61 119/17/61
f 156/224/68 159/101/68 161/224/68
f 152/224/68 162/225/68 160/224/68
f 154/226/68 160/227/68 159/226/68
f 200/228/68 161/101/68 203/228/68
f 167/241/64 173/242/64 169/243/64
f 165/244/69 207/245/69 205/246/69
f 164/247/70 167/248/70 163/249/70
f 166/250/71 168/251/71 164/252/71
f 163/253/72 169/254/72 165/255/72
f 174/256/73 176/257/73 172/258/73
f 207/259/64 173/260/64 209/261/64
f 167/262/64 172/263/64 171/264/64
f 168/265/64 174/266/64 172/267/64
f 211/268/64 181/269/64 213/270/64
f 171/271/74 177/272/74 173/273/74
f 173/274/75 211/275/75 209/276/75
f 172/277/76 175/278/76 171/279/76
f 176/280/64 179/281/64 175/282/64
f 178/283/64 180/284/64 176/285/64
f 175/286/64 181/287/64 177/288/64
f 216/297/64 215/298/64 184/140/64
f 212/301/64 182/302/64 178/303/64
f 174/304/82 212/305/82 178/306/82
f 208/307/64 174/308/64 170/309/64
f 166/310/83 208/311/83 170/312/83
f 158/316/68 204/317/68 162/316/68
f 198/322/85 196/323/85 118/324/85
f 118/325/86 195/326/86 117/327/86
f 117/328/87 195/329/87 197/330/87
f 15/82/88 194/331/88 193/332/88
f 192/9/89 10/342/89 9/10/89
f 10/12/6 12/343/6 11/13/6
f 12/15/7 14/344/7 13/16/7
f 13/13/8 14/343/8 16/18/8
f 10/345/9 192/20/9 12/22/9
f 192/20/9 194/346/9 16/347/9
f 16/347/9 14/21/9 192/20/9
f 15/24/10 193/348/10 191/25/10
f 191/25/10 9/53/10 11/109/10
f 11/109/10 13/23/10 191/25/10
f 18/17/11 20/16/11 19/26/11
f 20/28/12 22/349/12 21/29/12
f 22/31/13 24/350/13 23/32/13
f 23/34/14 24/351/14 26/35/14
f 25/37/15 26/112/15 28/38/15
f 27/40/16 28/58/16 30/41/16
f 22/44/17 20/352/17 18/353/17
f 18/353/17 32/354/17 22/44/17
f 32/354/17 30/45/17 22/44/17
f 30/45/17 28/355/17 26/356/17
f 26/356/17 24/43/17 30/45/17
f 29/46/18 30/137/18 32/47/18
f 32/49/19 18/357/19 17/50/19
f 31/52/20 17/358/20 19/359/20
f 19/359/20 21/328/20 31/52/20
f 21/328/20 23/53/20 31/52/20
f 23/53/20 25/109/20 27/23/20
f 27/23/20 29/24/20 23/53/20
f 44/64/25 43/65/25 51/65/25
f 38/70/27 36/361/27 34/140/27
f 34/140/27 48/362/27 38/70/27
f 48/362/27 46/68/27 38/70/27
f 46/68/27 44/84/27 42/69/27
f 42/69/27 40/363/27 38/70/27
f 42/69/27 44/84/27 52/84/27
f 42/85/23 49/85/23 50/86/23
f 67/52/39 53/358/39 55/359/39
f 55/359/39 57/328/39 59/53/39
f 59/53/39 61/109/39 63/23/39
f 63/23/39 65/24/39 67/52/39
f 67/52/39 55/359/39 59/53/39
f 62/85/33 69/85/33 70/86/33
f 63/65/37 71/65/37 72/64/37
f 63/23/39 61/109/39 70/109/39
f 82/85/42 89/85/42 90/86/42
f 87/52/48 73/358/48 79/53/48
f 73/358/48 75/359/48 79/53/48
f 75/359/48 77/328/48 79/53/48
f 79/53/48 81/109/48 83/23/48
f 83/23/48 85/24/48 79/53/48
f 83/65/46 91/65/46 92/64/46
f 81/109/48 90/109/48 91/23/48
f 104/84/53 112/84/53 109/69/53
f 98/70/53 96/361/53 94/140/53
f 94/140/53 108/362/53 106/68/53
f 106/68/53 104/84/53 102/69/53
f 102/69/53 100/363/53 106/68/53
f 100/363/53 98/70/53 106/68/53
f 102/85/51 109/85/51 110/86/51
f 104/64/55 103/65/55 111/65/55
f 113/149/58 114/405/58 116/96/58
f 116/151/59 118/119/59 117/152/59
f 197/154/91 198/406/91 120/155/91
f 120/15/61 114/344/61 113/16/61
f 156/224/68 154/101/68 159/101/68
f 152/224/68 158/225/68 162/225/68
f 154/226/68 152/227/68 160/227/68
f 200/228/68 156/101/68 161/101/68
f 167/241/64 171/434/64 173/242/64
f 165/244/69 169/435/69 207/245/69
f 164/247/70 168/436/70 167/248/70
f 166/250/71 170/437/71 168/251/71
f 163/253/72 167/438/72 169/254/72
f 174/256/73 178/439/73 176/257/73
f 207/259/64 169/440/64 173/260/64
f 167/262/64 168/441/64 172/263/64
f 168/265/64 170/442/64 174/266/64
f 211/268/64 177/443/64 181/269/64
f 171/271/74 175/444/74 177/272/74
f 173/274/75 177/445/75 211/275/75
f 172/277/76 176/446/76 175/278/76
f 176/280/64 180/447/64 179/281/64
f 178/283/64 182/448/64 180/284/64
f 175/286/64 179/449/64 181/287/64
f 185/70/64 183/361/64 215/298/64
f 183/361/64 184/140/64 215/298/64
f 184/140/64 186/362/64 216/297/64
f 212/301/64 214/454/64 182/302/64
f 174/304/82 210/455/82 212/305/82
f 208/307/64 210/456/64 174/308/64
f 166/310/83 206/457/83 208/311/83
f 158/316/68 202/317/68 204/317/68
f 118/324/85 116/463/85 198/322/85
f 116/463/85 114/464/85 198/322/85
f 114/464/92 120/465/92 198/322/92
f 118/325/86 196/466/86 195/326/86
f 119/52/87 113/358/87 197/330/87
f 113/358/93 115/359/93 197/330/93
f 115/359/87 117/328/87 197/330/87
f 15/82/88 16/117/88 194/331/88
f 191/473/30 193/474/30 192/475/30
f 193/474/30 194/476/30 192/475/30
usemtl volute
f 47/76/29 35/77/29 39/78/29
f 62/98/35 60/99/35 58/100/35
f 74/122/45 86/123/45 82/98/45
f 95/77/57 99/78/57 103/143/57
f 47/76/29 33/364/29 35/77/29
f 35/77/29 37/365/29 39/78/29
f 39/78/29 41/366/29 43/143/29
f 43/143/29 45/367/29 39/78/29
f 45/367/29 47/76/29 39/78/29
f 58/100/35 56/371/35 54/122/35
f 54/122/35 68/372/35 58/100/35
f 68/372/35 66/123/35 58/100/35
f 66/123/35 64/373/35 58/100/35
f 64/373/35 62/98/35 58/100/35
f 78/100/45 76/371/45 74/122/45
f 74/122/45 88/372/45 86/123/45
f 86/123/45 84/373/45 82/98/45
f 82/98/45 80/99/45 78/100/45
f 78/100/45 74/122/45 82/98/45
f 107/76/57 93/364/57 95/77/57
f 95/77/57 97/365/57 99/78/57
f 99/78/57 101/366/57 103/143/57
f 103/143/57 105/367/57 107/76/57
f 107/76/57 95/77/57 103/143/57
usemtl base
f 33/54/21 36/55/21 35/56/21
f 36/57/22 37/58/22 35/59/22
f 38/17/23 39/60/23 37/27/23
f 40/61/24 41/62/24 39/63/24
f 43/66/26 46/67/26 45/28/26
f 46/71/25 47/72/25 45/73/25
f 47/74/28 34/72/28 33/75/28
f 195/79/30 198/80/30 197/81/30
f 41/82/29 51/38/29 43/83/29
f 54/87/31 55/88/31 53/89/31
f 56/50/32 57/55/32 55/90/32
f 58/91/33 59/92/33 57/93/33
f 60/12/34 61/4/34 59/14/34
f 64/94/35 69/95/35 62/96/35
f 64/64/36 65/97/36 63/65/36
f 66/101/37 67/102/37 65/103/37
f 68/104/38 53/105/38 67/91/38
f 128/106/30 127/107/30 138/108/30
f 74/110/40 75/111/40 73/58/40
f 75/112/41 78/113/41 77/49/41
f 78/114/42 79/61/42 77/115/42
f 80/116/43 81/117/43 79/118/43
f 83/119/44 86/120/44 85/121/44
f 86/124/46 87/125/46 85/61/46
f 87/82/47 74/126/47 73/83/47
f 187/127/30 190/128/30 189/129/30
f 82/111/45 92/28/45 89/18/45
f 93/130/49 96/131/49 95/132/49
f 95/133/50 98/134/50 97/94/50
f 97/135/51 100/136/51 99/137/51
f 100/138/52 101/139/52 99/15/52
f 104/64/54 105/97/54 103/65/54
f 106/101/55 107/102/55 105/103/55
f 107/141/56 94/13/56 93/142/56
f 202/144/30 201/145/30 205/146/30
f 101/105/57 111/147/57 103/148/57
f 132/157/2 130/158/2 129/159/2
f 133/160/4 135/161/4 134/162/4
f 129/163/62 124/164/62 132/36/62
f 125/165/63 130/166/63 131/167/63
f 126/168/64 128/169/64 122/170/64
f 125/171/65 141/172/65 139/173/65
f 136/166/66 126/174/66 125/175/66
f 123/150/67 135/176/67 121/177/67
f 133/178/64 134/179/64 123/180/64
f 135/181/65 142/182/65 143/183/65
f 143/184/4 149/185/4 150/186/4
f 143/187/67 144/188/67 137/189/67
f 132/190/65 141/191/65 131/192/65
f 121/193/65 143/194/65 137/195/65
f 124/196/65 140/197/65 132/198/65
f 125/199/65 142/200/65 136/201/65
f 148/202/65 147/157/65 145/203/65
f 146/5/65 127/204/65 144/130/65
f 141/205/2 147/206/2 148/207/2
f 138/208/62 147/209/62 140/210/62
f 139/211/66 149/212/66 142/213/66
f 139/214/63 148/215/63 146/216/63
f 152/217/1 153/218/1 151/219/1
f 153/63/2 156/4/2 155/30/2
f 201/220/3 158/221/3 157/222/3
f 158/223/4 151/83/4 157/16/4
f 203/229/64 165/230/64 205/231/64
f 159/232/64 164/233/64 163/234/64
f 160/235/64 166/236/64 164/237/64
f 159/238/64 165/239/64 161/240/64
f 181/289/77 215/290/77 213/291/77
f 180/133/78 183/292/78 179/293/78
f 182/294/79 184/295/79 180/88/79
f 181/56/80 183/74/80 185/296/80
f 182/299/81 216/300/81 186/3/81
f 204/313/64 166/314/64 162/315/64
f 156/74/84 199/318/84 155/75/84
f 199/319/65 201/320/65 153/321/65
f 190/333/64 188/334/64 2/335/64
f 187/339/65 189/340/65 3/341/65
f 33/54/21 34/90/21 36/55/21
f 36/57/22 38/110/22 37/58/22
f 38/17/23 40/360/23 39/60/23
f 40/61/24 42/125/24 41/62/24
f 43/66/26 44/1/26 46/67/26
f 46/71/25 48/46/25 47/72/25
f 47/74/28 48/73/28 34/72/28
f 195/79/30 196/368/30 198/80/30
f 41/82/29 50/369/29 51/38/29
f 54/87/31 56/167/31 55/88/31
f 56/50/32 58/133/32 57/55/32
f 58/91/33 60/105/33 59/92/33
f 60/12/34 62/66/34 61/4/34
f 64/94/35 72/13/35 69/95/35
f 64/64/36 66/370/36 65/97/36
f 66/101/37 68/316/37 67/102/37
f 68/104/38 54/54/38 53/105/38
f 124/374/30 122/375/30 138/108/30
f 122/375/30 128/106/30 138/108/30
f 128/106/30 123/376/30 137/377/30
f 123/376/30 121/378/30 137/377/30
f 137/377/30 144/379/30 127/107/30
f 127/107/30 145/380/30 138/108/30
f 128/106/30 137/377/30 127/107/30
f 74/110/40 76/381/40 75/111/40
f 75/112/41 76/382/41 78/113/41
f 78/114/42 80/124/42 79/61/42
f 80/116/43 82/383/43 81/117/43
f 83/119/44 84/32/44 86/120/44
f 86/124/46 88/384/46 87/125/46
f 87/82/47 88/117/47 74/126/47
f 187/127/30 188/385/30 190/128/30
f 82/111/45 84/58/45 92/28/45
f 93/130/49 94/204/49 96/131/49
f 95/133/50 96/386/50 98/134/50
f 97/135/51 98/387/51 100/136/51
f 100/138/52 102/388/52 101/139/52
f 104/64/54 106/370/54 105/97/54
f 106/101/55 108/316/55 107/102/55
f 107/141/56 108/121/56 94/13/56
f 215/389/30 216/390/30 214/391/30
f 214/391/30 212/392/30 210/393/30
f 210/393/30 208/394/30 206/395/30
f 215/389/30 214/391/30 213/396/30
f 214/391/30 210/393/30 213/396/30
f 209/397/30 211/398/30 213/396/30
f 213/396/30 210/393/30 209/397/30
f 210/393/30 206/395/30 209/397/30
f 205/146/30 207/399/30 209/397/30
f 205/146/30 209/397/30 206/395/30
f 199/400/68 200/401/68 203/402/68
f 205/146/90 206/395/90 204/403/90
f 199/400/30 203/402/30 205/146/30
f 201/145/30 199/400/30 205/146/30
f 205/146/68 204/403/68 202/144/68
f 101/105/57 110/404/57 111/147/57
f 132/157/2 131/202/2 130/158/2
f 133/160/4 136/407/4 135/161/4
f 129/163/62 122/96/62 124/164/62
f 125/165/63 126/408/63 130/166/63
f 122/170/64 129/409/64 130/410/64
f 130/410/64 126/168/64 122/170/64
f 125/171/65 131/411/65 141/172/65
f 136/166/66 133/87/66 126/174/66
f 123/150/67 134/412/67 135/176/67
f 128/413/64 126/414/64 123/180/64
f 126/414/64 133/178/64 123/180/64
f 135/181/65 136/415/65 142/182/65
f 143/184/4 142/416/4 149/185/4
f 143/187/67 150/417/67 144/188/67
f 132/190/65 140/418/65 141/191/65
f 121/193/65 135/419/65 143/194/65
f 124/196/65 138/420/65 140/197/65
f 125/199/65 139/421/65 142/200/65
f 127/204/65 146/5/65 145/203/65
f 146/5/65 148/202/65 145/203/65
f 144/130/65 150/422/65 149/423/65
f 149/423/65 146/5/65 144/130/65
f 141/205/2 140/424/2 147/206/2
f 138/208/62 145/425/62 147/209/62
f 139/211/66 146/426/66 149/212/66
f 139/214/63 141/427/63 148/215/63
f 152/217/1 154/177/1 153/218/1
f 153/63/2 154/428/2 156/4/2
f 201/220/3 202/429/3 158/221/3
f 158/223/4 152/82/4 151/83/4
f 203/229/64 161/430/64 165/230/64
f 159/232/64 160/431/64 164/233/64
f 160/235/64 162/432/64 166/236/64
f 159/238/64 163/433/64 165/239/64
f 181/289/77 185/115/77 215/290/77
f 180/133/78 184/450/78 183/292/78
f 182/294/79 186/451/79 184/295/79
f 181/56/80 179/452/80 183/74/80
f 182/299/81 214/453/81 216/300/81
f 204/313/64 206/458/64 166/314/64
f 156/74/84 200/459/84 199/318/84
f 157/460/65 151/461/65 201/320/65
f 151/461/65 153/321/65 201/320/65
f 153/321/65 155/462/65 199/319/65
f 6/467/64 4/468/64 188/334/64
f 4/468/64 2/335/64 188/334/64
f 2/335/64 8/469/64 190/333/64
f 7/470/65 1/471/65 189/340/65
f 1/471/65 3/341/65 189/340/65
f 3/341/65 5/472/65 187/339/65
usemtl ionic
f 2/1/1 3/2/1 1/3/1
f 4/4/2 5/5/2 3/6/2
f 190/7/3 7/5/3 189/8/3
f 8/4/4 1/5/4 7/6/4
f 5/336/84 188/337/84 187/338/84
f 2/1/1 4/149/1 3/2/1
f 4/4/2 6/204/2 5/5/2
f 190/7/3 8/204/3 7/5/3
f 8/4/4 2/204/4 1/5/4
f 5/336/84 6/1/84 188/337/84
