# Blender 5.1.2
# www.blender.org
mtllib small_roman_ionic_half_capital.mtl
o roman
v 0.500000 0.937153 0.635758
v 0.500000 0.999653 0.635758
v 0.135758 0.937153 1.000000
v 0.864241 0.999653 1.000000
v 0.135758 0.999653 1.000000
v 0.864241 0.937153 1.000000
v 0.500000 0.937153 1.000000
v 0.500000 0.999653 1.000000
v 0.974310 0.999653 0.594615
v 0.905385 0.999653 0.525690
v 0.905385 0.937153 0.525690
v 0.974310 0.937153 0.594615
v 0.094615 0.999653 0.525690
v 0.025689 0.999653 0.594615
v 0.025689 0.937153 0.594615
v 0.094615 0.937153 0.525690
v 0.323958 0.658403 0.574997
v 0.323958 0.758403 0.574997
v 0.676042 0.658403 0.574997
v 0.676042 0.758403 0.574997
v 0.925003 0.658403 0.823958
v 0.925003 0.758403 0.823958
v 0.074997 0.658403 0.823958
v 0.074997 0.758403 0.823958
v -0.038765 0.882146 0.549622
v 0.049624 0.882146 0.461234
v -0.077937 0.748403 0.510450
v 0.010451 0.748403 0.422062
v -0.038765 0.614660 0.549622
v 0.049624 0.614660 0.461234
v 0.055806 0.559262 0.644193
v 0.144194 0.559262 0.555804
v 0.150376 0.614660 0.738763
v 0.238764 0.614660 0.650375
v 0.189548 0.748403 0.777935
v 0.277937 0.748403 0.689547
v 0.150376 0.882146 0.738763
v 0.238764 0.882146 0.650375
v 0.055806 0.937544 0.644193
v 0.144194 0.937544 0.555804
v 0.950378 0.882146 0.461234
v 1.038766 0.882146 0.549622
v 0.989550 0.748403 0.422062
v 1.077938 0.748403 0.510450
v 0.950378 0.614660 0.461234
v 1.038766 0.614660 0.549622
v 0.855807 0.559262 0.555804
v 0.944196 0.559262 0.644193
v 0.761237 0.614660 0.650375
v 0.849625 0.614660 0.738763
v 0.722064 0.748403 0.689547
v 0.810453 0.748403 0.777935
v 0.761237 0.882146 0.650375
v 0.849625 0.882146 0.738763
v 0.855807 0.937544 0.555804
v 0.944196 0.937544 0.644193
v 0.902386 0.942153 0.597614
v 0.902386 0.754653 0.597614
v 0.097613 0.942153 0.597614
v 0.097613 0.754653 0.597614
v 0.500000 0.754653 0.678005
v 0.500000 0.942153 0.678005
v 0.178005 0.754653 1.000000
v 0.821995 0.942153 1.000000
v 0.178005 0.942153 1.000000
v 0.821995 0.754653 1.000000
v 0.500000 0.754653 1.000000
v 0.500000 0.942153 1.000000
v 0.500000 0.937153 1.001157
v 0.500000 0.999653 1.001157
v 0.864327 0.937153 1.000314
v 0.864327 0.999653 1.000314
v 0.135215 0.937153 1.002002
v 0.135215 0.999653 1.002002
v 0.925003 0.658403 1.000174
v 0.925003 0.758403 1.000174
v 0.074997 0.658403 1.002141
v 0.074997 0.758403 1.002141
v 0.177625 0.754653 1.001904
v 0.822077 0.942153 1.000412
v 0.500000 0.754653 1.001157
v 0.500000 0.942153 1.001157
v 0.177625 0.942153 1.001904
v 0.822077 0.754653 1.000412
vn 0.7071 -0.0000 -0.7071
vn -0.7071 -0.0000 -0.7071
vn 0.9651 -0.0000 0.2620
vn -0.2620 -0.0000 -0.9651
vn -0.0000 1.0000 -0.0000
vn -0.0000 -1.0000 -0.0000
vn -0.9650 -0.0000 0.2621
vn 0.2620 -0.0000 -0.9651
vn -0.9651 -0.0000 0.2620
vn -0.9651 -0.0000 -0.2620
vn -0.0000 -0.0000 -1.0000
vn -1.0000 -0.0000 -0.0000
vn -0.6533 0.3827 -0.6533
vn -0.6533 -0.3827 -0.6533
vn -0.2706 -0.9239 -0.2706
vn 0.2706 -0.9239 0.2706
vn 0.6533 -0.3827 0.6533
vn 0.6533 0.3827 0.6533
vn 0.2706 0.9239 0.2706
vn -0.2706 0.9239 -0.2706
vn -0.7071 -0.0000 0.7071
vn 0.6533 0.3827 -0.6533
vn 0.6533 -0.3827 -0.6533
vn 0.2706 -0.9239 -0.2706
vn -0.2706 -0.9239 0.2706
vn -0.6533 -0.3827 0.6533
vn -0.6533 0.3827 0.6533
vn 0.7071 -0.0000 0.7071
vn -0.2706 0.9239 0.2706
vn 0.2706 0.9239 -0.2706
vn -0.9806 -0.0000 0.1959
vn -0.1959 -0.0000 -0.9806
vn 0.1959 -0.0000 -0.9806
vn 0.9806 -0.0000 0.1959
vn -0.9806 -0.0000 -0.1959
vn 0.9806 -0.0000 -0.1960
vn 0.0023 -0.0000 1.0000
vn 1.0000 -0.0000 -0.0000
vn -0.0036 -0.0000 1.0000
vn 0.9650 -0.0000 -0.2621
vn 0.0023 0.0320 0.9995
vn -0.9651 -0.0000 0.2619
vn 0.0032 -0.0000 1.0000
vn -0.0032 -0.0000 1.0000
vn -0.0000 -0.0000 1.0000
vn 0.1691 0.9856 -0.0000
vn 0.9806 -0.0000 -0.1959
vn 0.0023 0.0101 0.9999
vn 0.9651 -0.0000 -0.2619
vt 0.687500 0.875000
vt 0.562500 0.812500
vt 0.687500 0.812500
vt 0.437500 0.625000
vt 0.312500 0.562500
vt 0.437500 0.562500
vt 1.000000 0.062500
vt 0.500000 0.125000
vt 1.000000 0.125000
vt 0.500000 0.062500
vt 0.000000 0.125000
vt 0.875000 0.500000
vt 0.500000 0.500000
vt 0.367115 0.484231
vt 0.375000 0.523654
vt 0.375000 0.625000
vt 0.000031 0.000746
vt 0.085514 0.000030
vt 0.085515 0.000475
vt 1.000000 0.937500
vt 0.937500 1.000000
vt 0.500000 0.875000
vt 0.250000 0.500000
vt 0.250000 0.625000
vt 0.125000 0.625000
vt 0.502469 0.062500
vt 0.502469 0.125000
vt 0.000000 0.500000
vt 0.437500 0.500000
vt 0.721411 0.625000
vt 0.721411 0.500000
vt 0.937500 0.625000
vt 0.937500 0.500000
vt 0.000000 1.000000
vt 0.187500 0.750000
vt 0.187500 1.000000
vt 0.812500 0.375000
vt 0.625000 0.125000
vt 0.812500 0.125000
vt 0.687500 1.000000
vt 0.500000 0.750000
vt 0.687500 0.750000
vt 0.750000 0.875000
vt 0.937500 0.875000
vt 0.000000 0.625000
vt 0.187500 0.375000
vt 0.187500 0.625000
vt 0.414228 0.000064
vt 0.000065 0.999936
vt 0.000064 0.000064
vt 0.343051 0.389926
vt 0.343051 0.696011
vt 0.649137 0.696011
vt 0.414228 0.999936
vt 0.000064 0.000064
vt 0.414228 0.000064
vt 0.187500 0.500000
vt 0.343051 0.389926
vt 0.496094 0.326533
vt 0.496094 0.759404
vt 0.375000 0.750000
vt 0.562500 0.500000
vt 0.562500 0.750000
vt 0.750000 0.375000
vt 0.937500 0.375000
vt 0.187500 0.250000
vt 0.625000 0.625000
vt 0.812500 0.625000
vt 0.414228 0.999936
vt 0.649137 0.389926
vt 0.437500 0.875000
vt 0.712529 0.542969
vt 0.625000 1.000000
vt -0.000000 0.750000
vt 0.625000 0.750000
vt 1.000000 1.000000
vt 0.375000 0.750000
vt 1.000000 0.750000
vt 0.750000 0.500000
vt 0.625000 0.500000
vt 0.125000 0.500000
vt 0.375000 1.000000
vt 0.377957 1.000000
vt 0.377957 0.750000
vt 0.875000 0.625000
vt 0.750000 0.625000
vt 0.750000 0.625449
vt 0.250000 0.625449
vt 0.624360 0.750000
vt 0.625000 0.625128
vt 0.125000 0.625591
vt 0.117672 0.999966
vt 0.000034 0.000034
vt 0.117672 0.000034
vt 0.497481 0.999900
vt 0.499796 0.000100
vt 0.999900 0.707065
vt 0.218534 0.500000
vt 0.999900 0.707065
vt 0.707065 0.999900
vt 0.499796 0.999900
vt 0.000062 0.498565
vt 0.290271 0.498560
vt 0.290278 0.996942
vt 0.499613 0.125000
vt 0.498808 0.500000
vt 0.499661 0.124903
vt 0.250000 0.625397
vt 0.125000 0.625500
vt 0.562500 0.875000
vt 0.312500 0.625000
vt 0.000000 0.062500
vt 0.937500 0.000000
vt 0.085489 0.999970
vt 0.000030 0.997880
vt 0.085558 0.997134
vt 0.000052 0.498942
vt 0.000030 0.000301
vt 0.085537 0.498938
vt 0.087096 0.498666
vt 0.125000 0.523654
vt 0.148654 0.500000
vt 0.500000 0.625000
vt 0.000000 0.750000
vt 0.625000 0.375000
vt 0.500000 1.000000
vt 0.000000 0.375000
vt 0.712529 0.542969
vt 0.496094 0.326534
vt 0.279659 0.542969
vt 0.496094 0.759404
vt 0.000064 0.999936
vt 0.649137 0.389926
vt 0.343051 0.696011
vt 0.279659 0.542969
vt 0.375000 0.500000
vt 0.000000 0.250000
vt 0.250000 0.875000
vt 0.875000 0.625591
vt 0.375000 0.625128
vt 0.624360 1.000000
vt 0.000034 0.999966
vt 0.707065 0.000100
vt 0.999900 0.292934
vt 0.707065 0.999900
vt 0.218534 0.625000
vt 0.707065 0.000100
vt 0.999900 0.292935
vt 0.497481 0.000100
vt 0.290253 0.999946
vt 0.000054 0.997533
vt 0.000054 0.000058
vt 0.290263 0.000054
vt 0.499613 0.062500
vt 0.497840 0.875617
vt 0.375000 0.625078
s 0
usemtl ionic_egg
f 9/7/3 6/8/3 12/9/3
f 2/10/4 11/11/4 1/8/4
f 11/14/6 12/15/6 6/16/6
f 13/7/8 1/8/8 16/9/8
f 5/10/9 15/11/9 3/8/9
f 1/23/6 7/24/6 3/25/6
f 74/26/10 3/8/10 73/27/10
f 18/4/11 19/28/11 17/29/11
f 20/4/1 21/28/1 19/29/1
f 78/30/12 23/13/12 77/31/12
f 24/32/2 17/13/2 23/33/2
f 65/73/31 60/74/31 63/75/31
f 62/73/32 58/74/32 61/75/32
f 59/76/33 61/77/33 60/78/33
f 62/79/5 64/67/5 57/80/5
f 61/23/6 63/25/6 60/81/6
f 58/78/34 64/82/34 66/77/34
f 61/23/6 66/16/6 67/24/6
f 83/83/35 63/77/35 79/84/35
f 62/79/5 65/85/5 68/86/5
f 65/85/5 82/87/5 68/86/5
f 66/16/6 81/88/6 67/24/6
f 64/73/36 84/89/36 66/75/36
f 64/67/5 82/87/5 80/90/5
f 63/25/6 81/88/6 79/91/6
f 22/4/38 75/98/38 21/29/38
f 4/10/40 71/105/40 6/8/40
f 6/16/6 69/108/6 7/24/6
f 3/25/6 69/108/6 73/109/6
f 9/7/3 4/10/3 6/8/3
f 2/10/4 10/112/4 11/11/4
f 7/24/6 1/23/6 6/16/6
f 1/23/6 11/14/6 6/16/6
f 13/7/8 2/10/8 1/8/8
f 5/10/9 14/112/9 15/11/9
f 3/25/6 15/121/6 16/122/6
f 16/122/6 1/23/6 3/25/6
f 74/26/10 5/10/10 3/8/10
f 18/4/11 20/45/11 19/28/11
f 20/4/1 22/45/1 21/28/1
f 78/30/12 24/123/12 23/13/12
f 24/32/2 18/123/2 17/13/2
f 65/73/31 59/34/31 60/74/31
f 62/73/32 57/34/32 58/74/32
f 59/76/33 62/82/33 61/77/33
f 62/79/5 68/86/5 64/67/5
f 61/23/6 67/24/6 63/25/6
f 58/78/34 57/76/34 64/82/34
f 61/23/6 58/136/6 66/16/6
f 83/83/35 65/82/35 63/77/35
f 62/79/5 59/12/5 65/85/5
f 65/85/5 83/139/5 82/87/5
f 66/16/6 84/140/6 81/88/6
f 64/73/47 80/141/47 84/89/47
f 64/67/5 68/86/5 82/87/5
f 63/25/6 67/24/6 81/88/6
f 22/4/38 76/146/38 75/98/38
f 4/10/49 72/154/49 71/105/49
f 6/16/6 71/156/6 69/108/6
f 3/25/6 7/24/6 69/108/6
usemtl ionic_volute
f 38/51/1 34/52/1 30/53/1
f 37/58/21 39/59/21 31/60/21
f 46/53/28 42/70/28 54/51/28
f 55/59/2 43/72/2 47/60/2
f 30/53/1 28/128/1 26/70/1
f 26/70/1 40/129/1 38/51/1
f 38/51/1 36/130/1 34/52/1
f 34/52/1 32/131/1 30/53/1
f 30/53/1 26/70/1 38/51/1
f 39/59/21 25/133/21 27/72/21
f 27/72/21 29/53/21 39/59/21
f 29/53/21 31/60/21 39/59/21
f 31/60/21 33/134/21 35/135/21
f 35/135/21 37/58/21 31/60/21
f 46/53/28 44/128/28 42/70/28
f 42/70/28 56/129/28 54/51/28
f 54/51/28 52/130/28 50/52/28
f 50/52/28 48/131/28 54/51/28
f 48/131/28 46/53/28 54/51/28
f 55/59/2 41/133/2 43/72/2
f 43/72/2 45/53/2 47/60/2
f 47/60/2 49/134/2 51/135/2
f 51/135/2 53/58/2 47/60/2
f 53/58/2 55/59/2 47/60/2
usemtl ionic_capital
f 12/1/1 10/2/1 9/3/1
f 16/4/2 14/5/2 13/6/2
f 2/12/5 8/13/5 4/8/5
f 6/17/7 72/18/7 4/19/7
f 13/20/5 14/21/5 5/22/5
f 26/34/13 27/35/13 25/36/13
f 27/37/14 30/38/14 29/39/14
f 29/40/15 32/41/15 31/42/15
f 32/43/16 33/32/16 31/44/16
f 34/45/17 35/46/17 33/47/17
f 35/48/18 38/49/18 37/50/18
f 38/54/19 39/55/19 37/56/19
f 39/35/20 26/28/20 25/57/20
f 42/61/22 43/62/22 41/63/22
f 43/32/23 46/64/23 45/65/23
f 46/28/24 47/66/24 45/57/24
f 48/67/25 49/37/25 47/68/25
f 49/40/26 52/41/26 51/42/26
f 52/69/27 53/50/27 51/48/27
f 54/54/29 55/55/29 53/56/29
f 55/71/30 42/24/30 41/4/30
f 75/92/37 78/93/37 77/94/37
f 78/95/5 76/96/5 18/97/5
f 19/99/6 21/100/6 75/101/6
f 81/102/39 82/103/39 65/104/39
f 4/8/5 70/106/5 72/107/5
f 5/22/5 70/106/5 8/13/5
f 12/1/1 11/110/1 10/2/1
f 16/4/2 15/111/2 14/5/2
f 4/8/5 9/113/5 10/7/5
f 10/7/5 2/12/5 4/8/5
f 74/114/3 73/115/3 5/116/3
f 73/115/41 69/117/41 5/116/41
f 6/17/42 71/118/42 72/18/42
f 69/117/43 6/17/43 70/119/43
f 70/119/44 5/116/44 69/117/44
f 4/19/45 8/120/45 6/17/45
f 8/120/46 70/119/46 6/17/46
f 8/13/5 2/12/5 5/22/5
f 2/12/5 13/20/5 5/22/5
f 26/34/13 28/124/13 27/35/13
f 27/37/14 28/125/14 30/38/14
f 29/40/15 30/126/15 32/41/15
f 32/43/16 34/86/16 33/32/16
f 34/45/17 36/127/17 35/46/17
f 35/48/18 36/69/18 38/49/18
f 38/54/19 40/132/19 39/55/19
f 39/35/20 40/124/20 26/28/20
f 42/61/22 44/136/22 43/62/22
f 43/32/23 44/86/23 46/64/23
f 46/28/24 48/137/24 47/66/24
f 48/67/25 50/125/25 49/37/25
f 49/40/26 50/126/26 52/41/26
f 52/69/27 54/49/27 53/50/27
f 54/54/29 56/132/29 55/55/29
f 55/71/30 56/138/30 42/24/30
f 75/92/37 76/142/37 78/93/37
f 22/143/5 20/144/5 76/96/5
f 20/144/5 18/97/5 76/96/5
f 18/97/5 24/145/5 78/95/5
f 23/147/6 17/148/6 77/149/6
f 17/148/6 19/99/6 75/101/6
f 77/149/6 17/148/6 75/101/6
f 65/104/34 83/150/34 79/151/34
f 81/102/37 84/152/37 80/153/37
f 65/104/48 79/151/48 81/102/48
f 81/102/37 80/153/37 82/103/37
f 4/8/5 8/13/5 70/106/5
f 5/22/5 74/155/5 70/106/5
l 4 5
