# Blender 5.1.1
# www.blender.org
mtllib small_scamozzi_ionic_pilaster_capital.mtl
o ionic_capital_small
v -0.056705 0.882492 0.725751
v 0.056583 0.882492 0.672921
v -0.080118 0.748750 0.675543
v 0.033170 0.748750 0.622714
v -0.056705 0.615007 0.725751
v 0.056583 0.615007 0.672921
v -0.000180 0.559609 0.846962
v 0.113107 0.559609 0.794132
v 0.056344 0.615007 0.968173
v 0.169632 0.615007 0.915344
v 0.079757 0.748750 1.018380
v 0.193045 0.748750 0.965551
v 0.056344 0.882492 0.968173
v 0.169632 0.882492 0.915344
v -0.000180 0.937890 0.846962
v 0.113107 0.937890 0.794132
v 0.893749 0.693563 0.783265
v 0.893749 0.682147 0.783265
v 0.893749 0.693563 0.970765
v 0.893749 0.682147 0.970765
v 0.706249 0.693563 0.783265
v 0.706249 0.682147 0.783265
v 0.706249 0.693563 0.970765
v 0.706249 0.682147 0.970765
v 0.941196 0.882492 0.670705
v 1.054485 0.882492 0.723531
v 0.964607 0.748750 0.620497
v 1.077897 0.748750 0.673322
v 0.941196 0.615007 0.670705
v 1.054485 0.615007 0.723531
v 0.884676 0.559609 0.791918
v 0.997965 0.559609 0.844744
v 0.828156 0.615007 0.913131
v 0.941445 0.615007 0.965957
v 0.804744 0.748750 0.963340
v 0.918034 0.748750 1.016165
v 0.828156 0.882492 0.913131
v 0.941445 0.882492 0.965957
v 0.884676 0.937890 0.791918
v 0.997965 0.937890 0.844744
v 0.323957 0.658750 0.752010
v 0.323957 0.758750 0.752010
v 0.676041 0.658750 0.752010
v 0.676041 0.758750 0.752010
v -0.006312 0.882492 0.735818
v 0.046513 0.882492 0.622528
v -0.056520 0.748750 0.712407
v -0.003695 0.748750 0.599117
v -0.006312 0.615007 0.735818
v 0.046513 0.615007 0.622528
v 0.114902 0.559609 0.792337
v 0.167726 0.559609 0.679047
v 0.236115 0.615007 0.848857
v 0.288940 0.615007 0.735567
v 0.286323 0.748750 0.872268
v 0.339148 0.748750 0.758978
v 0.236115 0.882492 0.848857
v 0.288940 0.882492 0.735567
v 0.114902 0.937890 0.792337
v 0.167726 0.937890 0.679047
v 0.951264 0.882492 0.620311
v 1.004093 0.882492 0.733599
v 1.001471 0.748750 0.596898
v 1.054300 0.748750 0.710186
v 0.951264 0.615007 0.620311
v 1.004093 0.615007 0.733599
v 0.830052 0.559609 0.676835
v 0.882881 0.559609 0.790123
v 0.708841 0.615007 0.733359
v 0.761670 0.615007 0.846647
v 0.658634 0.748750 0.756772
v 0.711463 0.748750 0.870059
v 0.708841 0.882492 0.733359
v 0.761670 0.882492 0.846647
v 0.830052 0.937890 0.676835
v 0.882881 0.937890 0.790123
v 0.106251 0.693563 0.783263
v 0.106251 0.682147 0.783263
v 0.293751 0.693563 0.783263
v 0.293751 0.682147 0.783263
v 0.106251 0.693563 0.970763
v 0.106251 0.682147 0.970763
v 0.293751 0.693563 0.970763
v 0.293751 0.682147 0.970763
v 0.499999 0.755000 0.826855
v 0.499999 0.942500 0.826855
v 0.976824 0.942500 0.758182
v 0.918831 0.942500 0.700189
v 0.918831 0.755000 0.700189
v 0.976824 0.755000 0.758182
v 0.081168 0.942500 0.700189
v 0.023174 0.942500 0.758182
v 0.023174 0.755000 0.758182
v 0.081168 0.755000 0.700189
v 0.499999 0.937500 0.800994
v 0.499999 1.000000 0.800994
v 0.987056 1.000000 0.729212
v 0.947800 1.000000 0.689957
v 0.947800 0.937500 0.689957
v 0.987056 0.937500 0.729212
v 0.052198 1.000000 0.689957
v 0.012942 1.000000 0.729212
v 0.012942 0.937500 0.729212
v 0.052198 0.937500 0.689957
v 0.924045 0.658750 1.000014
v 0.924045 0.758750 1.000014
v 0.075953 0.658750 1.000014
v 0.075953 0.758750 1.000014
v 0.903687 0.755000 1.000014
v 0.096311 0.942500 1.000014
v 0.919907 0.937500 1.000014
v 0.080091 1.000000 1.000014
v 0.903687 0.942500 1.000014
v 0.096311 0.755000 1.000014
v 0.919907 1.000000 1.000014
v 0.080091 0.937500 1.000014
vn -0.3905 0.3827 -0.8373
vn -0.3905 -0.3827 -0.8373
vn -0.1617 -0.9239 -0.3468
vn 0.1617 -0.9239 0.3468
vn 0.3905 -0.3827 0.8373
vn 0.3905 0.3827 0.8373
vn 0.9063 -0.0000 -0.4226
vn 0.1617 0.9239 0.3468
vn -0.1617 0.9239 -0.3468
vn -0.9063 -0.0000 0.4226
vn -0.0000 1.0000 -0.0000
vn -0.0000 -0.0000 1.0000
vn -1.0000 -0.0000 -0.0000
vn -0.0000 -1.0000 -0.0000
vn 1.0000 -0.0000 -0.0000
vn -0.0000 -0.0000 -1.0000
vn 0.3904 0.3827 -0.8373
vn 0.3904 -0.3827 -0.8373
vn 0.1617 -0.9239 -0.3468
vn -0.1617 -0.9239 0.3468
vn -0.3904 -0.3827 0.8373
vn -0.3904 0.3827 0.8373
vn 0.9063 -0.0000 0.4226
vn -0.1617 0.9239 0.3468
vn 0.1617 0.9239 -0.3468
vn -0.9063 -0.0000 -0.4226
vn -0.7071 -0.0000 -0.7071
vn -0.8373 0.3827 -0.3904
vn -0.8373 -0.3827 -0.3904
vn -0.3468 -0.9239 -0.1617
vn 0.3468 -0.9239 0.1617
vn 0.8373 -0.3827 0.3904
vn 0.8373 0.3827 0.3904
vn 0.4226 -0.0000 -0.9063
vn 0.3468 0.9239 0.1617
vn -0.3468 0.9239 -0.1617
vn -0.4226 -0.0000 0.9063
vn 0.8373 0.3827 -0.3905
vn 0.8373 -0.3827 -0.3905
vn 0.3468 -0.9239 -0.1617
vn -0.3468 -0.9239 0.1617
vn -0.8373 -0.3827 0.3905
vn -0.8373 0.3827 0.3905
vn 0.4226 -0.0000 0.9063
vn -0.3468 0.9239 0.1617
vn 0.3468 0.9239 -0.1617
vn -0.4226 -0.0000 -0.9063
vn 0.7071 -0.0000 -0.7071
vn -0.2895 -0.0000 -0.9572
vn 0.2895 -0.0000 -0.9572
vn -0.9572 -0.0000 0.2895
vn -0.2407 -0.0000 -0.9706
vn 0.2407 -0.0000 -0.9706
vn -0.9706 -0.0000 0.2407
vn 0.9706 -0.0000 0.2407
vn 0.9572 -0.0000 0.2895
vt 0.000000 0.375000
vt 0.187500 0.125000
vt 0.187500 0.375000
vt 0.625000 0.250000
vt 0.812500 0.000000
vt 0.812500 0.250000
vt 0.625000 0.750000
vt 0.812500 0.500000
vt 0.812500 0.750000
vt 0.625000 0.875000
vt 0.812500 0.625000
vt 0.812500 0.875000
vt 0.500000 0.500000
vt 0.687500 0.250000
vt 0.687500 0.500000
vt 0.625000 0.500000
vt 0.689033 0.421700
vt 0.689033 0.578300
vt 0.310967 0.421700
vt 0.750000 0.500000
vt 0.937500 0.250000
vt 0.937500 0.500000
vt 0.500000 0.375000
vt 0.687500 0.125000
vt 0.687500 0.375000
vt 0.279659 0.542969
vt 0.343051 0.389926
vt 0.496094 0.326533
vt 0.875000 0.500000
vt 0.375000 1.000000
vt 0.375000 0.750000
vt 0.625000 0.000000
vt 0.375000 0.250000
vt 0.375000 0.000000
vt 0.375000 0.500000
vt 0.125000 0.750000
vt 0.125000 0.500000
vt 0.437500 0.875000
vt 0.250000 0.625000
vt 0.437500 0.625000
vt 0.562500 0.500000
vt 0.562500 0.750000
vt 0.125000 0.250000
vt 0.312500 0.000000
vt 0.312500 0.250000
vt 0.187500 0.625000
vt 0.414228 0.000064
vt 0.000064 0.999936
vt 0.000064 0.000064
vt 0.414228 0.999936
vt 0.000064 0.000064
vt 0.414228 0.000064
vt 0.496094 0.759404
vt 0.649137 0.696011
vt 0.343051 0.389926
vt 0.125000 1.000000
vt 0.312500 0.750000
vt 0.312500 1.000000
vt 0.125000 0.625000
vt 0.312500 0.375000
vt 0.312500 0.625000
vt 0.578300 0.310967
vt 0.000000 0.500000
vt 0.437500 0.500000
vt 0.412636 0.999936
vt 0.000064 0.000064
vt 0.412636 0.000064
vt 0.937500 0.750000
vt 0.250000 1.000000
vt 0.437500 0.750000
vt 0.437500 1.000000
vt 0.000000 0.875000
vt 0.187500 0.875000
vt 0.000000 0.125000
vt 0.125000 0.875000
vt 0.312500 0.875000
vt 0.937500 0.375000
vt 0.750000 0.125000
vt 0.937500 0.125000
vt 0.414228 0.999936
vt 0.000000 0.812500
vt 0.125000 0.937500
vt 0.000000 0.937500
vt 0.875000 0.812500
vt 1.000000 0.937500
vt 0.875000 0.937500
vt 0.625000 1.000000
vt -0.000000 0.750000
vt 0.625000 0.750000
vt 1.000000 1.000000
vt 0.375000 0.750000
vt 1.000000 0.750000
vt 0.360874 1.000000
vt 0.360873 0.750000
vt 0.437500 0.437500
vt 0.500000 0.437500
vt 0.500000 0.062500
vt 0.500000 0.125000
vt 1.000000 0.062500
vt 1.000000 0.125000
vt 0.302369 0.062500
vt 0.302369 0.125000
vt 0.672927 0.075592
vt 0.697631 0.062500
vt 0.697631 0.125000
vt 0.375000 0.580750
vt 0.125000 0.580750
vt 0.250000 0.500000
vt 0.625000 0.580924
vt 0.631901 0.486198
vt 0.639126 1.000000
vt 0.639126 0.750000
vt 0.375000 0.580924
vt 0.125000 0.580924
vt 0.999900 0.707065
vt 0.708191 0.001225
vt 0.999900 0.292934
vt 0.001656 0.000064
vt 0.414228 0.000064
vt 0.999900 0.707065
vt 0.708191 0.001226
vt 0.999900 0.292935
vt 0.113516 0.975962
vt 0.000034 0.999966
vt 0.000034 0.000034
vt 0.000048 0.000048
vt 0.232260 0.999952
vt 0.000048 0.999952
vt 0.074444 0.000027
vt 0.000027 0.999973
vt 0.000027 0.000027
vt 0.625000 0.625000
vt 0.500000 0.250000
vt 0.578300 0.689033
vt 0.421700 0.689033
vt 0.310967 0.578300
vt 0.421700 0.310967
vt 0.750000 0.250000
vt 0.649137 0.389926
vt 0.712529 0.542969
vt 0.496094 0.759404
vt 0.343051 0.696011
vt 0.875000 0.750000
vt 0.250000 0.875000
vt 0.125000 0.000000
vt 0.000000 0.625000
vt 0.000065 0.999936
vt 0.712529 0.542969
vt 0.649137 0.389926
vt 0.496094 0.326534
vt 0.279659 0.542969
vt 0.343051 0.696011
vt 0.125000 0.375000
vt 0.000064 0.999936
vt 0.750000 0.750000
vt 0.250000 0.750000
vt 0.750000 0.375000
vt 0.125000 0.812500
vt 1.000000 0.812500
vt 0.000000 1.000000
vt 0.437500 0.375000
vt 0.000000 0.062500
vt 0.672927 0.924408
vt 0.937500 1.000000
vt 0.937500 0.000000
vt 0.125000 0.513050
vt 0.138050 0.500000
vt 0.370650 0.491300
vt 0.375000 0.513050
vt 0.854297 0.500000
vt 0.875000 0.580924
vt 0.875000 0.520703
vt 0.625000 0.520703
vt 0.125000 0.520703
vt 0.145703 0.500000
vt 0.368099 0.486198
vt 0.375000 0.520703
vt 0.708191 0.998774
vt 0.001656 0.999936
vt 0.708191 0.998774
vt 0.117938 0.999966
vt 0.117938 0.000034
vt 0.113516 0.024037
vt 0.232260 0.000048
vt 0.074444 0.999973
s 0
usemtl ionic_volute
f 11/26/10 13/27/10 15/28/10
f 32/53/23 30/54/23 38/55/23
f 52/53/34 50/54/34 58/55/34
f 71/26/47 73/27/47 75/28/47
f 15/28/10 1/139/10 3/140/10
f 3/140/10 5/54/10 15/28/10
f 5/54/10 7/141/10 15/28/10
f 7/141/10 9/142/10 15/28/10
f 9/142/10 11/26/10 15/28/10
f 30/54/23 28/148/23 26/149/23
f 26/149/23 40/150/23 30/54/23
f 40/150/23 38/55/23 30/54/23
f 38/55/23 36/151/23 34/152/23
f 34/152/23 32/53/23 38/55/23
f 50/54/34 48/148/34 46/149/34
f 46/149/34 60/150/34 50/54/34
f 60/150/34 58/55/34 50/54/34
f 58/55/34 56/151/34 54/152/34
f 54/152/34 52/53/34 58/55/34
f 75/28/47 61/139/47 63/140/47
f 63/140/47 65/54/47 75/28/47
f 65/54/47 67/141/47 75/28/47
f 67/141/47 69/142/47 75/28/47
f 69/142/47 71/26/47 75/28/47
usemtl ionic_egg
f 42/40/16 43/63/16 41/64/16
f 108/65/27 41/66/27 107/67/27
f 90/81/48 88/82/48 87/83/48
f 94/84/27 92/85/27 91/86/27
f 86/87/49 89/88/49 85/89/49
f 91/90/50 85/91/50 94/92/50
f 110/93/51 93/88/51 114/94/51
f 96/97/52 99/74/52 95/98/52
f 101/99/53 95/98/53 104/100/53
f 112/101/54 103/74/54 116/102/54
f 100/100/55 115/104/55 111/105/55
f 111/106/14 116/107/14 95/108/14
f 86/20/11 113/109/11 88/110/11
f 90/92/56 113/111/56 109/112/56
f 109/113/14 114/114/14 85/108/14
f 42/115/11 106/116/11 44/117/11
f 44/80/48 105/118/48 43/119/48
f 42/40/16 44/146/16 43/63/16
f 108/65/27 42/154/27 41/66/27
f 90/81/48 89/158/48 88/82/48
f 94/84/27 93/159/27 92/85/27
f 86/87/49 88/160/49 89/88/49
f 91/90/50 86/30/50 85/91/50
f 110/93/51 92/160/51 93/88/51
f 96/97/52 98/162/52 99/74/52
f 101/99/53 96/97/53 95/98/53
f 112/101/54 102/162/54 103/74/54
f 100/100/55 97/99/55 115/104/55
f 116/107/14 103/166/14 104/167/14
f 95/108/14 99/168/14 111/106/14
f 99/168/14 100/169/14 111/106/14
f 116/107/14 104/167/14 95/108/14
f 86/20/11 91/170/11 110/171/11
f 91/170/11 92/172/11 110/171/11
f 110/171/11 113/109/11 86/20/11
f 113/109/11 87/173/11 88/110/11
f 90/92/56 87/90/56 113/111/56
f 114/114/14 93/174/14 94/175/14
f 85/108/14 89/176/14 109/113/14
f 89/176/14 90/177/14 109/113/14
f 114/114/14 94/175/14 85/108/14
f 42/115/11 108/178/11 106/116/11
f 44/80/48 106/179/48 105/118/48
usemtl ionic_capital
f 2/1/1 3/2/1 1/3/1
f 4/4/2 5/5/2 3/6/2
f 6/7/3 7/8/3 5/9/3
f 8/10/4 9/11/4 7/12/4
f 10/13/5 11/14/5 9/15/5
f 12/16/6 13/6/6 11/8/6
f 8/17/7 6/18/7 14/19/7
f 14/20/8 15/21/8 13/22/8
f 16/23/9 1/24/9 15/25/9
f 21/29/11 19/7/11 17/16/11
f 19/7/12 24/30/12 20/31/12
f 23/32/13 22/33/13 24/34/13
f 18/35/14 24/36/14 22/37/14
f 17/16/15 20/31/15 18/35/15
f 21/4/16 18/35/16 22/33/16
f 25/38/17 28/39/17 27/40/17
f 28/31/18 29/41/18 27/42/18
f 30/43/19 31/44/19 29/45/19
f 31/46/20 34/1/20 33/3/20
f 33/47/21 36/48/21 35/49/21
f 36/50/22 37/51/22 35/52/22
f 38/56/24 39/57/24 37/58/24
f 40/59/25 25/60/25 39/61/25
f 31/19/26 35/62/26 39/18/26
f 45/68/28 48/20/28 47/22/28
f 48/69/29 49/70/29 47/71/29
f 50/72/30 51/46/30 49/73/30
f 51/3/31 54/74/31 53/2/31
f 54/31/32 55/41/32 53/42/32
f 56/50/33 57/51/33 55/52/33
f 58/75/35 59/61/35 57/76/35
f 60/31/36 45/41/36 59/42/36
f 57/17/37 59/18/37 51/19/37
f 62/13/38 63/14/38 61/15/38
f 64/16/39 65/6/39 63/8/39
f 65/77/40 68/78/40 67/79/40
f 68/20/41 69/21/41 67/22/41
f 70/80/42 71/49/42 69/47/42
f 72/50/43 73/51/43 71/52/43
f 68/17/44 66/18/44 74/19/44
f 74/13/45 75/14/45 73/15/45
f 75/68/46 62/20/46 61/22/46
f 81/29/11 79/7/11 77/16/11
f 79/7/15 84/30/15 80/31/15
f 83/32/12 82/33/12 84/34/12
f 82/37/14 80/31/14 84/36/14
f 77/16/16 80/31/16 78/35/16
f 81/4/13 78/35/13 82/33/13
f 100/95/48 98/23/48 97/96/48
f 104/95/27 102/23/27 101/96/27
f 96/29/11 115/103/11 98/99/11
f 43/120/14 107/121/14 41/122/14
f 109/123/16 105/124/16 107/125/16
f 110/126/12 109/127/12 113/128/12
f 116/129/12 115/130/12 112/131/12
f 2/1/1 4/74/1 3/2/1
f 4/4/2 6/32/2 5/5/2
f 6/7/3 8/16/3 7/8/3
f 8/10/4 10/132/4 9/11/4
f 10/13/5 12/133/5 11/14/5
f 12/16/6 14/4/6 13/6/6
f 6/18/7 4/134/7 2/135/7
f 2/135/7 16/136/7 6/18/7
f 16/136/7 14/19/7 6/18/7
f 14/19/7 12/137/7 10/62/7
f 10/62/7 8/17/7 14/19/7
f 14/20/8 16/138/8 15/21/8
f 16/23/9 2/98/9 1/24/9
f 21/29/11 23/143/11 19/7/11
f 19/7/12 23/87/12 24/30/12
f 23/32/13 21/4/13 22/33/13
f 18/35/14 20/31/14 24/36/14
f 17/16/15 19/7/15 20/31/15
f 21/4/16 17/16/16 18/35/16
f 25/38/17 26/144/17 28/39/17
f 28/31/18 30/35/18 29/41/18
f 30/43/19 32/145/19 31/44/19
f 31/46/20 32/146/20 34/1/20
f 33/47/21 34/80/21 36/48/21
f 36/50/22 38/147/22 37/51/22
f 38/56/24 40/36/24 39/57/24
f 40/59/25 26/153/25 25/60/25
f 39/18/26 25/134/26 31/19/26
f 25/134/26 27/135/26 31/19/26
f 27/135/26 29/136/26 31/19/26
f 31/19/26 33/137/26 35/62/26
f 35/62/26 37/17/26 39/18/26
f 45/68/28 46/155/28 48/20/28
f 48/69/29 50/156/29 49/70/29
f 50/72/30 52/146/30 51/46/30
f 51/3/31 52/1/31 54/74/31
f 54/31/32 56/35/32 55/41/32
f 56/50/33 58/147/33 57/51/33
f 58/75/35 60/59/35 59/61/35
f 60/31/36 46/35/36 45/41/36
f 59/18/37 45/134/37 47/135/37
f 47/135/37 49/136/37 59/18/37
f 49/136/37 51/19/37 59/18/37
f 51/19/37 53/137/37 55/62/37
f 55/62/37 57/17/37 51/19/37
f 62/13/38 64/133/38 63/14/38
f 64/16/39 66/4/39 65/6/39
f 65/77/40 66/157/40 68/78/40
f 68/20/41 70/138/41 69/21/41
f 70/80/42 72/48/42 71/49/42
f 72/50/43 74/147/43 73/51/43
f 66/18/44 64/134/44 74/19/44
f 64/134/44 62/135/44 74/19/44
f 62/135/44 76/136/44 74/19/44
f 74/19/44 72/137/44 70/62/44
f 70/62/44 68/17/44 74/19/44
f 74/13/45 76/133/45 75/14/45
f 75/68/46 76/155/46 62/20/46
f 81/29/11 83/143/11 79/7/11
f 79/7/15 83/87/15 84/30/15
f 83/32/12 81/4/12 82/33/12
f 82/37/14 78/35/14 80/31/14
f 77/16/16 79/7/16 80/31/16
f 81/4/13 77/16/13 78/35/13
f 100/95/48 99/161/48 98/23/48
f 104/95/27 103/161/27 102/23/27
f 96/29/11 101/85/11 112/163/11
f 101/85/11 102/164/11 112/163/11
f 112/163/11 115/103/11 96/29/11
f 115/103/11 97/165/11 98/99/11
f 43/120/14 105/180/14 107/121/14
f 109/123/16 106/181/16 105/124/16
f 107/125/16 108/182/16 114/183/16
f 114/183/16 109/123/16 107/125/16
f 110/126/12 114/184/12 109/127/12
f 116/129/12 111/185/12 115/130/12
