# Blender 5.1.2
# www.blender.org
mtllib small_doric_capital.mtl
o Cube.007
v 1.000000 1.001659 0.000000
v 1.000000 0.814159 0.000000
v 1.000000 1.001659 1.000000
v 1.000000 0.814159 1.000000
v 0.000000 1.001659 0.000000
v 0.000000 0.814159 0.000000
v 0.000000 1.001659 1.000000
v 0.000000 0.814159 1.000000
v 0.292894 0.749774 0.000001
v 0.292894 0.816406 0.000001
v 0.707106 0.749774 0.000001
v 0.707106 0.816406 0.000001
v 0.999999 0.749774 0.292894
v 0.999999 0.816406 0.292894
v 0.999999 0.749774 0.707106
v 0.999999 0.816406 0.707106
v 0.707106 0.749774 0.999999
v 0.707106 0.816406 0.999999
v 0.292894 0.749774 0.999999
v 0.292894 0.816406 0.999999
v 0.000001 0.749774 0.707106
v 0.000001 0.816406 0.707106
v 0.000001 0.749774 0.292894
v 0.000001 0.816406 0.292894
v 0.369245 0.603905 0.184329
v 0.630755 0.603905 0.184329
v 0.815671 0.603905 0.369245
v 0.815671 0.603905 0.630755
v 0.630755 0.603905 0.815671
v 0.369245 0.603905 0.815671
v 0.184329 0.603905 0.630755
v 0.184329 0.603905 0.369245
vn -0.0000 1.0000 -0.0000
vn -0.0000 -0.0000 1.0000
vn -1.0000 -0.0000 -0.0000
vn -0.0000 -1.0000 -0.0000
vn 1.0000 -0.0000 -0.0000
vn -0.0000 -0.0000 -1.0000
vn 0.7071 -0.0000 -0.7071
vn 0.7071 -0.0000 0.7071
vn -0.7071 -0.0000 0.7071
vn -0.7071 -0.0000 -0.7071
vn 0.4388 -0.7842 0.4388
vn -0.6206 -0.7842 -0.0000
vn 0.4388 -0.7842 -0.4388
vn -0.0000 -0.7842 0.6206
vn -0.4388 -0.7842 -0.4388
vn -0.0000 -0.7842 -0.6206
vn 0.6206 -0.7842 -0.0000
vn -0.4388 -0.7842 0.4388
vt 0.000100 0.999900
vt 0.999900 0.000100
vt 0.999900 0.999900
vt 0.000000 0.000000
vt 1.000000 0.187500
vt 0.000000 0.187500
vt 0.000000 0.500000
vt 1.000000 0.687500
vt 0.000000 0.687500
vt 0.999900 0.999900
vt 0.000100 0.000100
vt 0.999900 0.000100
vt 0.000000 0.750000
vt 1.000000 0.937500
vt 0.000000 0.937500
vt 0.000000 0.125000
vt 1.000000 0.312500
vt 0.000000 0.312500
vt 0.625000 0.125000
vt 0.625000 0.187500
vt 0.375000 0.187500
vt 0.625000 0.875000
vt 0.625000 0.937500
vt 0.375000 0.625000
vt 0.750000 0.687500
vt 0.375000 0.687500
vt 0.125000 0.875000
vt 0.500000 0.937500
vt 0.125000 0.937500
vt 0.625000 0.000000
vt 1.000000 0.062500
vt 0.625000 0.062500
vt 0.375000 0.812500
vt 0.000000 0.812500
vt 0.062500 0.875000
vt 0.437500 0.875000
vt 0.312500 1.000000
vt 0.625000 0.812500
vt 0.687500 1.000000
vt 0.062500 0.625000
vt 0.375000 0.437500
vt 0.437500 0.625000
vt 0.312500 0.500000
vt 0.625000 0.312500
vt 0.687500 0.500000
vt 0.562500 0.250000
vt 0.875000 0.062500
vt 0.937500 0.250000
vt 0.062500 1.000000
vt 0.437500 1.000000
vt 0.562500 0.750000
vt 0.875000 0.562500
vt 0.937500 0.750000
vt 0.187500 0.375000
vt 0.812500 0.625000
vt 0.000100 0.000100
vt 1.000000 0.000000
vt 1.000000 0.500000
vt 0.000100 0.999900
vt 1.000000 0.750000
vt 1.000000 0.125000
vt 0.375000 0.125000
vt 1.000000 0.875000
vt 0.750000 0.625000
vt 0.500000 0.875000
vt 0.375000 0.750000
vt 0.125000 0.687500
vt 0.125000 0.437500
vt 0.375000 0.312500
vt 0.125000 0.812500
vt 0.625000 0.562500
vt 0.187500 0.625000
vt 0.812500 0.375000
s 0
usemtl doric_small
f 5/1/1 3/2/1 1/3/1
f 3/4/2 8/5/2 4/6/2
f 7/7/3 6/8/3 8/9/3
f 2/10/4 8/11/4 6/12/4
f 1/13/5 4/14/5 2/15/5
f 5/16/6 2/17/6 6/18/6
f 10/19/6 11/5/6 9/20/6
f 12/16/7 13/21/7 11/6/7
f 14/22/5 15/14/5 13/23/5
f 16/16/8 17/21/8 15/6/8
f 18/24/2 19/25/2 17/26/2
f 20/27/9 21/28/9 19/29/9
f 22/30/3 23/31/3 21/32/3
f 24/13/10 9/33/10 23/34/10
f 17/35/11 28/26/11 15/36/11
f 23/37/12 31/38/12 21/39/12
f 13/40/13 26/41/13 11/42/13
f 19/43/14 29/44/14 17/45/14
f 9/46/15 32/47/15 23/48/15
f 11/49/16 25/33/16 9/50/16
f 15/51/17 27/52/17 13/53/17
f 21/46/18 30/47/18 19/48/18
f 28/54/4 30/20/4 32/55/4
f 5/1/1 7/56/1 3/2/1
f 3/4/2 7/57/2 8/5/2
f 7/7/3 5/58/3 6/8/3
f 2/10/4 4/59/4 8/11/4
f 1/13/5 3/60/5 4/14/5
f 5/16/6 1/61/6 2/17/6
f 10/19/6 12/61/6 11/5/6
f 12/16/7 14/62/7 13/21/7
f 14/22/5 16/63/5 15/14/5
f 16/16/8 18/62/8 17/21/8
f 18/24/2 20/64/2 19/25/2
f 20/27/9 22/65/9 21/28/9
f 22/30/3 24/57/3 23/31/3
f 24/13/10 10/66/10 9/33/10
f 17/35/11 29/67/11 28/26/11
f 23/37/12 32/33/12 31/38/12
f 13/40/13 27/68/13 26/41/13
f 19/43/14 30/69/14 29/44/14
f 9/46/15 25/32/15 32/47/15
f 11/49/16 26/70/16 25/33/16
f 15/51/17 28/71/17 27/52/17
f 21/46/18 31/32/18 30/47/18
f 32/55/4 25/38/4 26/33/4
f 26/33/4 27/72/4 28/54/4
f 28/54/4 29/21/4 30/20/4
f 30/20/4 31/73/4 32/55/4
f 32/55/4 26/33/4 28/54/4
