# Blender 5.1.1
# www.blender.org
mtllib small_roman_ionic_base.mtl
o small_roman_ionic_base
v 0.313676 0.300000 0.050172
v 0.313676 0.400000 0.050172
v 0.686324 0.300000 0.050172
v 0.686324 0.400000 0.050172
v 0.949826 0.300000 0.313674
v 0.949826 0.400000 0.313674
v 0.949826 0.300000 0.686322
v 0.949826 0.400000 0.686322
v 0.686324 0.300000 0.949824
v 0.686324 0.400000 0.949824
v 0.313676 0.300000 0.949824
v 0.313676 0.400000 0.949824
v 0.050174 0.300000 0.686322
v 0.050174 0.400000 0.686322
v 0.050174 0.300000 0.313674
v 0.050174 0.400000 0.313674
v 0.334313 0.200000 0.099995
v 0.334313 0.300000 0.099995
v 0.665687 0.200000 0.099995
v 0.665687 0.300000 0.099995
v 0.900003 0.200000 0.334312
v 0.900003 0.300000 0.334312
v 0.900003 0.200000 0.665685
v 0.900003 0.300000 0.665685
v 0.665687 0.200000 0.900001
v 0.665687 0.300000 0.900001
v 0.334313 0.200000 0.900001
v 0.334313 0.300000 0.900001
v 0.099997 0.200000 0.665685
v 0.099997 0.300000 0.665685
v 0.099997 0.200000 0.334312
v 0.099997 0.300000 0.334312
v 0.367452 0.100000 0.179998
v 0.367452 0.200000 0.179998
v 0.632548 0.100000 0.179998
v 0.632548 0.200000 0.179998
v 0.820000 0.100000 0.367450
v 0.820000 0.200000 0.367450
v 0.820000 0.100000 0.632547
v 0.820000 0.200000 0.632547
v 0.632548 0.100000 0.819998
v 0.632548 0.200000 0.819998
v 0.367452 0.100000 0.819998
v 0.367452 0.200000 0.819998
v 0.180000 0.100000 0.632547
v 0.180000 0.200000 0.632547
v 0.180000 0.100000 0.367450
v 0.180000 0.200000 0.367450
v 0.850000 0.100000 0.149998
v 0.850000 -0.000000 0.149998
v 0.850000 0.100000 0.849998
v 0.850000 -0.000000 0.849998
v 0.150000 0.100000 0.149998
v 0.150000 -0.000000 0.149998
v 0.150000 0.100000 0.849998
v 0.150000 -0.000000 0.849998
vn -0.0000 -0.0000 -1.0000
vn 0.7071 -0.0000 -0.7071
vn 1.0000 -0.0000 -0.0000
vn 0.7071 -0.0000 0.7071
vn -0.0000 -0.0000 1.0000
vn -0.7071 -0.0000 0.7071
vn -0.0000 1.0000 -0.0000
vn -1.0000 -0.0000 -0.0000
vn -0.7071 -0.0000 -0.7071
vn -0.0000 -1.0000 -0.0000
vt 0.625000 0.875000
vt 0.750000 0.375000
vt 0.750000 0.875000
vt 0.625000 0.750000
vt 0.750000 0.250000
vt 0.750000 0.750000
vt 0.250000 0.875000
vt 0.375000 0.375000
vt 0.375000 0.875000
vt 0.750000 0.500000
vt 0.875000 0.000000
vt 0.875000 0.500000
vt 0.375000 1.000000
vt 0.500000 0.500000
vt 0.500000 1.000000
vt 0.125000 1.000000
vt 0.250000 0.500000
vt 0.250000 1.000000
vt 0.050090 0.313641
vt 0.686359 0.050090
vt 0.949910 0.686359
vt 0.500000 0.750000
vt 0.625000 0.250000
vt 0.000000 1.000000
vt 0.125000 0.500000
vt 0.292935 0.999900
vt 0.000100 0.292935
vt 0.707065 0.000100
vt 0.375000 0.812500
vt 0.500000 0.375000
vt 0.500000 0.812500
vt 0.750000 0.562500
vt 0.875000 0.125000
vt 0.875000 0.562500
vt 0.750000 0.937500
vt 0.875000 0.937500
vt 0.125000 0.937500
vt 0.250000 0.937500
vt 0.375000 0.562500
vt 0.500000 0.125000
vt 0.500000 0.562500
vt 0.999900 0.707065
vt 0.292935 0.999900
vt 0.000100 0.292935
vt 0.500000 0.937500
vt 0.625000 0.500000
vt 0.625000 0.937500
vt 0.292935 0.000100
vt 0.000000 0.312500
vt 0.125000 -0.000000
vt 0.125000 0.312500
vt 0.875000 0.250000
vt 0.250000 0.625000
vt 0.750000 0.312500
vt 0.875000 0.312500
vt 0.125000 0.687500
vt 0.250000 0.375000
vt 0.250000 0.687500
vt 0.375000 0.937500
vt 0.500000 0.625000
vt 0.707065 0.000100
vt 1.000000 0.000000
vt 1.000000 0.312500
vt 0.625000 0.812500
vt 0.375000 0.750000
vt 0.625000 0.000000
vt 0.375000 0.250000
vt 0.375000 0.000000
vt 0.875000 0.875000
vt 0.125000 0.125000
vt 0.375000 0.500000
vt 0.000000 0.935547
vt 0.125000 0.000000
vt 0.125000 0.935547
vt 0.625000 0.375000
vt 0.750000 0.000000
vt 0.686359 0.949910
vt 0.313641 0.949910
vt 0.050090 0.686359
vt 0.313641 0.050090
vt 0.949910 0.313641
vt 0.500000 0.250000
vt 0.000000 0.500000
vt 0.999900 0.292935
vt 0.999900 0.707065
vt 0.707065 0.999900
vt 0.000100 0.707065
vt 0.750000 0.125000
vt 0.375000 0.125000
vt 0.999900 0.292934
vt 0.707065 0.999900
vt 0.000100 0.707065
vt 0.292935 0.000100
vt 0.000000 0.000000
vt 0.125000 0.625000
vt 0.125000 0.375000
vt 0.375000 0.625000
vt 0.875000 0.750000
vt 0.625000 1.000000
vt 0.125000 0.875000
s 0
usemtl ionic_base
f 2/1/1 3/2/1 1/3/1
f 4/4/2 5/5/2 3/6/2
f 6/7/3 7/8/3 5/9/3
f 8/10/4 9/11/4 7/12/4
f 10/13/5 11/14/5 9/15/5
f 12/16/6 13/17/6 11/18/6
f 14/19/7 10/20/7 6/21/7
f 14/22/8 15/23/8 13/4/8
f 16/24/9 1/25/9 15/16/9
f 7/26/10 11/27/10 15/28/10
f 18/29/1 19/30/1 17/31/1
f 20/32/2 21/33/2 19/34/2
f 22/35/3 23/12/3 21/36/3
f 24/37/4 25/17/4 23/38/4
f 26/37/5 27/17/5 25/38/5
f 28/39/6 29/40/6 27/41/6
f 18/42/7 30/43/7 26/44/7
f 30/45/8 31/46/8 29/47/8
f 32/47/9 17/10/9 31/35/9
f 29/48/10 31/28/10 23/26/10
f 34/49/1 35/50/1 33/51/1
f 36/32/2 37/52/2 35/34/2
f 38/37/3 39/53/3 37/38/3
f 40/54/4 41/11/4 39/55/4
f 42/56/5 43/57/5 41/58/5
f 44/59/6 45/60/6 43/45/6
f 46/43/7 42/44/7 38/61/7
f 46/55/8 47/62/8 45/63/8
f 48/31/9 33/46/9 47/64/9
f 39/26/10 43/27/10 47/28/10
f 53/12/7 51/4/7 49/46/7
f 51/4/5 56/13/5 52/65/5
f 55/66/8 54/67/8 56/68/8
f 50/69/10 56/70/10 54/33/10
f 49/46/3 52/65/3 50/71/3
f 53/72/1 50/73/1 54/74/1
f 2/1/1 4/75/1 3/2/1
f 4/4/2 6/23/2 5/5/2
f 6/7/3 8/57/3 7/8/3
f 8/10/4 10/76/4 9/11/4
f 10/13/5 12/71/5 11/14/5
f 12/16/6 14/25/6 13/17/6
f 6/21/7 4/77/7 2/78/7
f 2/78/7 16/79/7 14/19/7
f 14/19/7 12/80/7 10/20/7
f 10/20/7 8/81/7 6/21/7
f 6/21/7 2/78/7 14/19/7
f 14/22/8 16/82/8 15/23/8
f 16/24/9 2/83/9 1/25/9
f 15/28/10 1/84/10 3/85/10
f 3/85/10 5/86/10 7/26/10
f 7/26/10 9/87/10 11/27/10
f 11/27/10 13/48/10 15/28/10
f 15/28/10 3/85/10 7/26/10
f 18/29/1 20/8/1 19/30/1
f 20/32/2 22/88/2 21/33/2
f 22/35/3 24/10/3 23/12/3
f 24/37/4 26/25/4 25/17/4
f 26/37/5 28/25/5 27/17/5
f 28/39/6 30/89/6 29/40/6
f 22/61/7 20/90/7 18/42/7
f 18/42/7 32/91/7 30/43/7
f 30/43/7 28/92/7 26/44/7
f 26/44/7 24/93/7 22/61/7
f 22/61/7 18/42/7 26/44/7
f 30/45/8 32/14/8 31/46/8
f 32/47/9 18/46/9 17/10/9
f 31/28/10 17/84/10 19/85/10
f 19/85/10 21/86/10 31/28/10
f 21/86/10 23/26/10 31/28/10
f 23/26/10 25/87/10 27/27/10
f 27/27/10 29/48/10 23/26/10
f 34/49/1 36/94/1 35/50/1
f 36/32/2 38/5/2 37/52/2
f 38/37/3 40/95/3 39/53/3
f 40/54/4 42/76/4 41/11/4
f 42/56/5 44/96/5 43/57/5
f 44/59/6 46/97/6 45/60/6
f 38/61/7 36/90/7 34/42/7
f 34/42/7 48/91/7 46/43/7
f 46/43/7 44/92/7 42/44/7
f 42/44/7 40/93/7 38/61/7
f 38/61/7 34/42/7 46/43/7
f 46/55/8 48/11/8 47/62/8
f 48/31/9 34/14/9 33/46/9
f 47/28/10 33/84/10 35/85/10
f 35/85/10 37/86/10 39/26/10
f 39/26/10 41/87/10 43/27/10
f 43/27/10 45/48/10 47/28/10
f 47/28/10 35/85/10 39/26/10
f 53/12/7 55/98/7 51/4/7
f 51/4/5 55/99/5 56/13/5
f 55/66/8 53/23/8 54/67/8
f 50/69/10 52/100/10 56/70/10
f 49/46/3 51/4/3 52/65/3
f 53/72/1 49/94/1 50/73/1
