# Blender 5.1.2
# www.blender.org
mtllib small_roman_ionic_half_base.mtl
o small_roman_ionic_base
v 0.313604 0.300000 0.549998
v 0.313604 0.400000 0.549998
v 0.686396 0.300000 0.549998
v 0.686396 0.400000 0.549998
v 0.950000 0.300000 0.813602
v 0.950000 0.400000 0.813602
v 0.050000 0.300000 0.813602
v 0.050000 0.400000 0.813602
v 0.334249 0.200000 0.599841
v 0.334249 0.300000 0.599841
v 0.665751 0.200000 0.599841
v 0.665751 0.300000 0.599841
v 0.900158 0.200000 0.834248
v 0.900158 0.300000 0.834248
v 0.099842 0.200000 0.834248
v 0.099842 0.300000 0.834248
v 0.367400 0.100000 0.679875
v 0.367400 0.200000 0.679875
v 0.632600 0.100000 0.679875
v 0.632600 0.200000 0.679875
v 0.820124 0.100000 0.867399
v 0.820124 0.200000 0.867399
v 0.179876 0.100000 0.867399
v 0.179876 0.200000 0.867399
v 0.850135 0.100000 0.649863
v 0.850135 0.000000 0.649863
v 0.149865 0.100000 0.649863
v 0.149865 0.000000 0.649863
v 0.950000 0.300000 1.000089
v 0.950000 0.400000 1.000089
v 0.050000 0.300000 1.001684
v 0.050000 0.400000 1.001684
v 0.900158 0.200000 1.000177
v 0.900158 0.300000 1.000177
v 0.099842 0.200000 1.001596
v 0.099842 0.300000 1.001596
v 0.820124 0.100000 1.000319
v 0.820124 0.200000 1.000319
v 0.179876 0.100000 1.001454
v 0.179876 0.200000 1.001454
v 0.149865 0.000000 1.001507
v 0.850135 0.100000 1.000266
v 0.149865 0.100000 1.001507
v 0.850135 0.000000 1.000266
vn -0.0000 -0.0000 -1.0000
vn 0.7071 -0.0000 -0.7071
vn 0.0018 -0.0000 1.0000
vn -1.0000 -0.0000 -0.0000
vn -0.7071 -0.0000 -0.7071
vn -0.0000 1.0000 -0.0000
vn 1.0000 -0.0000 -0.0000
vn -0.0000 -1.0000 -0.0000
vt 0.107215 0.585056
vt 0.208062 0.215282
vt 0.208062 0.585056
vt 0.797765 0.585056
vt 0.898612 0.215282
vt 0.898612 0.585056
vt 0.512522 0.900072
vt 0.612539 0.099928
vt 0.612539 0.900072
vt 0.278148 0.820064
vt 0.378168 0.179936
vt 0.378168 0.820064
vt 0.107215 0.401842
vt 0.208062 0.215282
vt 0.208062 0.401842
vt 0.797765 0.585056
vt 0.898612 0.215282
vt 0.898612 0.585056
vt 0.504350 0.489910
vt 0.609486 0.174504
vt 0.609486 0.489910
vt 0.504350 0.489910
vt 0.609486 0.174504
vt 0.609486 0.489910
vt 0.521451 0.850067
vt 0.621470 0.149932
vt 0.621470 0.850068
vt 0.745411 0.333727
vt 0.640275 0.174504
vt 0.745410 0.174504
vt 0.776200 0.897685
vt 0.881335 0.582279
vt 0.881335 0.897685
vt 0.085196 0.393008
vt 0.188206 0.135481
vt 0.188206 0.393008
vt 0.775745 0.528933
vt 0.878756 0.271406
vt 0.878756 0.528933
vt 0.786670 0.254733
vt 0.889681 0.124556
vt 0.889681 0.254733
vt 0.503895 0.800783
vt 0.606906 0.543256
vt 0.606906 0.800783
vt 0.596423 0.503726
vt 0.502849 0.127817
vt 0.596423 0.127817
vt 0.084149 0.876408
vt 0.177723 0.127817
vt 0.177723 0.876409
vt 0.150970 0.852234
vt 0.851213 0.501845
vt 0.851213 0.852234
vt 0.638774 0.876409
vt 0.732348 0.501827
vt 0.732348 0.876408
vt 0.851213 0.151991
vt 0.500824 0.852234
vt 0.499582 0.151991
vt 0.499636 0.822224
vt 0.500771 0.182001
vt 0.821202 0.634707
vt 0.096121 0.936708
vt 0.199131 0.807633
vt 0.199131 0.936708
vt 0.821203 0.634707
vt 0.633686 0.822224
vt 0.500771 0.822224
vt 0.499494 0.902254
vt 0.500913 0.101971
vt 0.901233 0.667857
vt 0.504350 0.625835
vt 0.609486 0.467961
vt 0.609486 0.625834
vt 0.666836 0.101971
vt 0.901233 0.336369
vt 0.901233 0.502292
vt 0.005597 0.949914
vt 0.105616 0.050086
vt 0.105616 0.949914
vt 0.051109 0.500427
vt 0.951074 0.502022
vt 0.314703 0.952095
vt 0.514990 0.720981
vt 0.615837 0.536004
vt 0.615837 0.720981
vt 0.951074 0.688502
vt 0.687480 0.952095
vt 0.501001 0.952095
vt 0.107215 0.215282
vt 0.797765 0.215282
vt 0.512522 0.099928
vt 0.278148 0.179936
vt 0.107215 0.215282
vt 0.797765 0.215282
vt 0.504350 0.174504
vt 0.504350 0.174504
vt 0.521451 0.149932
vt 0.640275 0.333727
vt 0.776200 0.582279
vt 0.085196 0.135481
vt 0.775745 0.271406
vt 0.786670 0.124556
vt 0.503895 0.543256
vt 0.502849 0.503726
vt 0.084149 0.127817
vt 0.150970 0.500604
vt 0.638774 0.501827
vt 0.851213 0.852234
vt 0.633686 0.182001
vt 0.821203 0.369518
vt 0.633686 0.822224
vt 0.096121 0.807633
vt 0.633686 0.182002
vt 0.821203 0.369519
vt 0.499636 0.182002
vt 0.666836 0.101971
vt 0.901233 0.336368
vt 0.666836 0.902254
vt 0.504350 0.467962
vt 0.100950 0.336369
vt 0.335347 0.101971
vt 0.100950 0.503711
vt 0.005597 0.050086
vt 0.951074 0.688501
vt 0.687480 0.952095
vt 0.051109 0.688502
vt 0.514990 0.536004
vt 0.687480 0.052131
vt 0.951074 0.315724
vt 0.499406 0.052131
s 0
usemtl ionic_base
f 2/1/1 3/2/1 1/3/1
f 4/4/2 5/5/2 3/6/2
f 34/7/3 35/8/3 33/9/3
f 38/10/3 39/11/3 37/12/3
f 32/13/4 7/14/4 31/15/4
f 8/16/5 1/17/5 7/18/5
f 10/19/1 11/20/1 9/21/1
f 12/22/2 13/23/2 11/24/2
f 42/25/3 41/26/3 44/27/3
f 35/28/4 16/29/4 15/30/4
f 16/31/5 9/32/5 15/33/5
f 18/34/1 19/35/1 17/36/1
f 20/37/2 21/38/2 19/39/2
f 40/40/4 23/41/4 39/42/4
f 24/43/5 17/44/5 23/45/5
f 41/46/4 27/47/4 28/48/4
f 27/49/1 26/50/1 28/51/1
f 27/52/6 42/53/6 25/54/6
f 25/55/7 44/56/7 26/57/7
f 28/58/8 44/59/8 41/60/8
f 40/61/6 38/62/6 18/63/6
f 22/64/7 37/65/7 21/66/7
f 19/67/8 21/68/8 37/69/8
f 36/70/6 34/71/6 10/72/6
f 14/73/7 33/74/7 13/75/7
f 11/76/8 13/77/8 33/78/8
f 30/79/3 31/80/3 29/81/3
f 32/82/6 30/83/6 2/84/6
f 6/85/7 29/86/7 5/87/7
f 3/88/8 5/89/8 29/90/8
f 2/1/1 4/91/1 3/2/1
f 4/4/2 6/92/2 5/5/2
f 34/7/3 36/93/3 35/8/3
f 38/10/3 40/94/3 39/11/3
f 32/13/4 8/95/4 7/14/4
f 8/16/5 2/96/5 1/17/5
f 10/19/1 12/97/1 11/20/1
f 12/22/2 14/98/2 13/23/2
f 42/25/3 43/99/3 41/26/3
f 35/28/4 36/100/4 16/29/4
f 16/31/5 10/101/5 9/32/5
f 18/34/1 20/102/1 19/35/1
f 20/37/2 22/103/2 21/38/2
f 40/40/4 24/104/4 23/41/4
f 24/43/5 18/105/5 17/44/5
f 41/46/4 43/106/4 27/47/4
f 27/49/1 25/107/1 26/50/1
f 27/52/6 43/108/6 42/53/6
f 25/55/7 42/109/7 44/56/7
f 28/58/8 26/110/8 44/59/8
f 22/111/6 20/112/6 38/62/6
f 20/112/6 18/63/6 38/62/6
f 18/63/6 24/113/6 40/61/6
f 22/64/7 38/114/7 37/65/7
f 23/115/8 17/116/8 39/117/8
f 17/116/8 19/67/8 37/69/8
f 39/117/8 17/116/8 37/69/8
f 14/118/6 12/119/6 34/71/6
f 12/119/6 10/72/6 34/71/6
f 10/72/6 16/120/6 36/70/6
f 14/73/7 34/121/7 33/74/7
f 15/122/8 9/123/8 35/124/8
f 9/123/8 11/76/8 33/78/8
f 35/124/8 9/123/8 33/78/8
f 30/79/3 32/125/3 31/80/3
f 6/126/6 4/127/6 30/83/6
f 4/127/6 2/84/6 30/83/6
f 2/84/6 8/128/6 32/82/6
f 6/85/7 30/129/7 29/86/7
f 7/130/8 1/131/8 31/132/8
f 1/131/8 3/88/8 29/90/8
f 31/132/8 1/131/8 29/90/8
