# Blender 5.1.2
# www.blender.org
mtllib small_doric_half_capital.mtl
o Cube.007
v 1.000000 1.001659 0.500000
v 1.000000 0.814159 0.500000
v 0.000000 1.001659 0.500000
v 0.000000 0.814159 0.500000
v 0.292894 0.749774 0.500001
v 0.292894 0.816406 0.500001
v 0.707106 0.749774 0.500001
v 0.707106 0.816406 0.500001
v 0.999999 0.749774 0.792894
v 0.999999 0.816406 0.792894
v 0.000001 0.749774 0.792894
v 0.000001 0.816406 0.792894
v 0.369245 0.603905 0.684329
v 0.630755 0.603905 0.684329
v 0.815671 0.603905 0.869245
v 0.184329 0.603905 0.869245
v 0.000000 0.814159 1.001951
v 1.000000 1.001659 1.000427
v 0.000000 1.001659 1.001951
v 1.000000 0.814159 1.000427
v 0.999999 0.749774 1.000427
v 0.999999 0.816406 1.000427
v 0.000001 0.749774 1.001951
v 0.000001 0.816406 1.001951
v 0.815671 0.603905 1.000708
v 0.184329 0.603905 1.001670
vn 0.0015 -0.0000 1.0000
vn -1.0000 -0.0000 -0.0000
vn -0.0000 -0.0000 -1.0000
vn 0.7071 -0.0000 -0.7071
vn -0.7071 -0.0000 -0.7071
vn -0.6206 -0.7842 -0.0000
vn 0.4388 -0.7842 -0.4388
vn -0.4388 -0.7842 -0.4388
vn -0.0000 -0.7842 -0.6206
vn -0.0000 -1.0000 -0.0000
vn 1.0000 -0.0000 -0.0000
vn 0.6206 -0.7842 -0.0000
vn -0.0000 1.0000 -0.0000
vt 0.522496 0.057189
vt 0.352503 0.942811
vt 0.352503 0.057189
vt 0.498049 0.500000
vt 1.000000 0.687500
vt 0.498049 0.687500
vt 0.882276 0.186407
vt 0.882276 0.249906
vt 0.000094 0.186406
vt 0.000000 0.125000
vt 1.000000 0.312500
vt 0.000000 0.312500
vt 0.625000 0.125000
vt 1.000000 0.187500
vt 0.625000 0.187500
vt 0.375000 0.187500
vt 0.000000 0.187500
vt 0.810734 0.000000
vt 1.000000 0.062500
vt 0.810734 0.062500
vt 0.000000 0.750000
vt 0.375000 0.812500
vt 0.000000 0.812500
vt 0.501766 1.000000
vt 0.501596 0.812500
vt 0.062500 0.625000
vt 0.375000 0.437500
vt 0.437500 0.625000
vt 0.562500 0.250000
vt 0.875000 0.062500
vt 0.937500 0.250000
vt 0.062500 1.000000
vt 0.437500 1.000000
vt 0.187500 0.625000
vt 0.187500 0.499324
vt 0.625000 0.875000
vt 0.812886 0.937500
vt 0.625000 0.937500
vt 0.749614 0.750000
vt 0.875000 0.562500
vt 0.937500 0.750000
vt 0.000100 0.999900
vt 0.999900 0.499573
vt 0.999900 0.999900
vt 0.500427 0.937500
vt 0.000000 0.937500
vt 0.999900 0.000100
vt 0.499574 0.999900
vt 0.498049 0.000100
vt 0.522496 0.942811
vt 1.000000 0.500000
vt 0.000094 0.249906
vt 0.162705 0.000094
vt 0.719665 0.000094
vt 1.000000 0.125000
vt 0.375000 0.125000
vt 1.000000 0.000000
vt 0.375000 0.750000
vt 0.312500 1.000000
vt 0.125000 0.437500
vt 0.625000 0.062500
vt 0.125000 0.812500
vt 0.812500 0.625000
vt 0.625000 0.812500
vt 0.812500 0.498403
vt 0.812886 0.875000
vt 0.749323 0.562500
vt 0.000100 0.498049
vt 0.500427 0.750000
vt 0.999900 0.999900
s 0
usemtl doric_small
f 17/1/1 18/2/1 19/3/1
f 19/4/2 4/5/2 17/6/2
f 21/7/1 22/8/1 23/9/1
f 3/10/3 2/11/3 4/12/3
f 6/13/3 7/14/3 5/15/3
f 8/10/4 9/16/4 7/17/4
f 24/18/2 11/19/2 23/20/2
f 12/21/5 5/22/5 11/23/5
f 23/24/6 16/22/6 26/25/6
f 9/26/7 14/27/7 7/28/7
f 5/29/8 16/30/8 11/31/8
f 7/32/9 13/22/9 5/33/9
f 14/22/10 15/34/10 25/35/10
f 10/36/11 21/37/11 9/38/11
f 21/39/12 15/40/12 9/41/12
f 3/42/13 18/43/13 1/44/13
f 1/21/11 20/45/11 2/46/11
f 4/47/10 20/48/10 17/49/10
f 17/1/1 20/50/1 18/2/1
f 19/4/2 3/51/2 4/5/2
f 22/8/1 24/52/1 23/9/1
f 23/9/1 26/53/1 25/54/1
f 25/54/1 21/7/1 23/9/1
f 3/10/3 1/55/3 2/11/3
f 6/13/3 8/55/3 7/14/3
f 8/10/4 10/56/4 9/16/4
f 24/18/2 12/57/2 11/19/2
f 12/21/5 6/58/5 5/22/5
f 23/24/6 11/59/6 16/22/6
f 9/26/7 15/60/7 14/27/7
f 5/29/8 13/61/8 16/30/8
f 7/32/9 14/62/9 13/22/9
f 16/63/10 13/64/10 26/65/10
f 13/64/10 14/22/10 25/35/10
f 26/65/10 13/64/10 25/35/10
f 10/36/11 22/66/11 21/37/11
f 21/39/12 25/67/12 15/40/12
f 3/42/13 19/68/13 18/43/13
f 1/21/11 18/69/11 20/45/11
f 4/47/10 2/70/10 20/48/10
