# Blender 5.1.1
# www.blender.org
mtllib small_ionic_base.mtl
o ionic_base_small
v 0.313604 0.300000 0.050000
v 0.313604 0.400000 0.050000
v 0.686396 0.300000 0.050000
v 0.686396 0.400000 0.050000
v 0.950000 0.300000 0.313604
v 0.950000 0.400000 0.313604
v 0.950000 0.300000 0.686396
v 0.950000 0.400000 0.686396
v 0.686396 0.300000 0.950000
v 0.686396 0.400000 0.950000
v 0.313604 0.300000 0.950000
v 0.313604 0.400000 0.950000
v 0.050000 0.300000 0.686396
v 0.050000 0.400000 0.686396
v 0.050000 0.300000 0.313604
v 0.050000 0.400000 0.313604
v 0.292892 0.000000 -0.000004
v 0.292892 0.100000 -0.000004
v 0.707108 0.000000 -0.000004
v 0.707108 0.100000 -0.000004
v 1.000004 0.000000 0.292892
v 1.000004 0.100000 0.292892
v 1.000004 0.000000 0.707108
v 1.000004 0.100000 0.707108
v 0.707108 0.000000 1.000004
v 0.707108 0.100000 1.000004
v 0.292892 0.000000 1.000004
v 0.292892 0.100000 1.000004
v -0.000004 0.000000 0.707108
v -0.000004 0.100000 0.707108
v -0.000004 0.000000 0.292892
v -0.000004 0.100000 0.292892
v 0.313604 0.200000 0.050000
v 0.313604 0.300000 0.050000
v 0.686396 0.200000 0.050000
v 0.686396 0.300000 0.050000
v 0.950000 0.200000 0.313604
v 0.950000 0.300000 0.313604
v 0.950000 0.200000 0.686396
v 0.950000 0.300000 0.686396
v 0.686396 0.200000 0.950000
v 0.686396 0.300000 0.950000
v 0.313604 0.200000 0.950000
v 0.313604 0.300000 0.950000
v 0.050000 0.200000 0.686396
v 0.050000 0.300000 0.686396
v 0.050000 0.200000 0.313604
v 0.050000 0.300000 0.313604
v 0.334315 0.100000 0.100000
v 0.334315 0.200000 0.100000
v 0.665685 0.100000 0.100000
v 0.665685 0.200000 0.100000
v 0.900000 0.100000 0.334315
v 0.900000 0.200000 0.334315
v 0.900000 0.100000 0.665685
v 0.900000 0.200000 0.665685
v 0.665685 0.100000 0.900000
v 0.665685 0.200000 0.900000
v 0.334315 0.100000 0.900000
v 0.334315 0.200000 0.900000
v 0.100000 0.100000 0.665685
v 0.100000 0.200000 0.665685
v 0.100000 0.100000 0.334315
v 0.100000 0.200000 0.334315
vn -0.0000 -0.0000 -1.0000
vn 0.7071 -0.0000 -0.7071
vn 1.0000 -0.0000 -0.0000
vn 0.7071 -0.0000 0.7071
vn -0.0000 -0.0000 1.0000
vn -0.7071 -0.0000 0.7071
vn -0.0000 1.0000 -0.0000
vn -1.0000 -0.0000 -0.0000
vn -0.7071 -0.0000 -0.7071
vn -0.0000 -1.0000 -0.0000
vt 0.875000 0.375000
vt 0.875000 0.468750
vt 0.500000 0.468750
vt 0.500000 0.375000
vt 0.375000 0.875000
vt 0.375000 0.968750
vt 0.000000 0.968750
vt 0.000000 0.875000
vt 0.375000 0.375000
vt 0.375000 0.468750
vt 0.000000 0.468750
vt 0.000000 0.375000
vt 0.625000 0.125000
vt 0.625000 0.218750
vt 0.250000 0.218750
vt 0.250000 0.125000
vt 0.875000 0.250000
vt 0.875000 0.343750
vt 0.500000 0.343750
vt 0.500000 0.250000
vt 0.500000 0.875000
vt 0.500000 0.968750
vt 0.125000 0.968750
vt 0.125000 0.875000
vt 0.062500 0.312500
vt 0.687500 0.062500
vt 0.937500 0.687500
vt 1.000000 0.625000
vt 1.000000 0.718750
vt 0.625000 0.718750
vt 0.625000 0.625000
vt 0.125000 0.343750
vt 0.125000 0.250000
vt 0.000100 0.292935
vt 0.292935 0.000100
vt 0.707065 0.000100
vt 1.000000 0.000000
vt 1.000000 0.093750
vt 0.625000 0.093750
vt 0.625000 0.000000
vt 0.750000 0.000000
vt 0.750000 0.093750
vt 0.375000 0.093750
vt 0.375000 0.000000
vt 1.000000 0.250000
vt 1.000000 0.343750
vt 0.625000 0.343750
vt 0.625000 0.250000
vt 0.000000 0.093750
vt -0.000000 0.000000
vt 0.875000 0.625000
vt 0.875000 0.718750
vt 0.500000 0.718750
vt 0.500000 0.625000
vt 0.000000 0.312500
vt 0.687500 0.000000
vt 1.000000 0.687500
vt 0.375000 0.750000
vt 0.375000 0.843750
vt 0.000000 0.843750
vt 0.000000 0.750000
vt 0.625000 0.375000
vt 0.625000 0.468750
vt 0.250000 0.468750
vt 0.250000 0.375000
vt 0.250000 0.718750
vt 0.250000 0.625000
vt 1.000000 0.500000
vt 1.000000 0.593750
vt 0.625000 0.593750
vt 0.625000 0.500000
vt 0.625000 0.875000
vt 0.625000 0.968750
vt 0.250000 0.968750
vt 0.250000 0.875000
vt 0.375000 0.625000
vt 0.375000 0.718750
vt 0.000000 0.718750
vt 0.000000 0.625000
vt 0.937500 0.312500
vt 0.062500 0.312500
vt 0.562500 0.812500
vt 0.562500 0.915000
vt 0.250000 0.915000
vt 0.250000 0.812500
vt 0.937500 0.312500
vt 0.937500 0.415000
vt 0.625000 0.415000
vt 0.625000 0.312500
vt 0.437500 0.687500
vt 0.437500 0.790000
vt 0.125000 0.790000
vt 0.125000 0.687500
vt 0.812500 0.437500
vt 0.812500 0.540000
vt 0.500000 0.540000
vt 0.500000 0.437500
vt 0.312500 0.062500
vt 0.312500 0.165000
vt 0.000000 0.165000
vt -0.000000 0.062500
vt 0.562500 0.437500
vt 0.562500 0.540000
vt 0.250000 0.540000
vt 0.250000 0.437500
vt 0.937500 0.187500
vt 0.937500 0.290000
vt 0.625000 0.290000
vt 0.625000 0.187500
vt 0.687500 0.937500
vt 0.312500 0.937500
vt 0.062500 0.687500
vt 0.312500 0.062500
vt 0.687500 1.000000
vt 0.312500 1.000000
vt 0.000000 0.687500
vt 0.312500 0.000000
vt 1.000000 0.312500
vt 0.312500 0.937500
vt 0.999900 0.292935
vt 0.292935 0.999900
vt 0.999900 0.707065
vt 0.707065 0.999900
vt 0.000100 0.707065
s 0
usemtl small_ionic_base
f 1/1/1 2/2/1 4/3/1 3/4/1
f 3/5/2 4/6/2 6/7/2 5/8/2
f 5/9/3 6/10/3 8/11/3 7/12/3
f 7/13/4 8/14/4 10/15/4 9/16/4
f 9/17/5 10/18/5 12/19/5 11/20/5
f 11/21/6 12/22/6 14/23/6 13/24/6
f 14/25/7 10/26/7 6/27/7
f 13/28/8 14/29/8 16/30/8 15/31/8
f 15/20/9 16/19/9 2/32/9 1/33/9
f 27/34/10 29/35/10 31/36/10
f 17/13/1 18/14/1 20/15/1 19/16/1
f 19/37/2 20/38/2 22/39/2 21/40/2
f 21/41/3 22/42/3 24/43/3 23/44/3
f 23/45/4 24/46/4 26/47/4 25/48/4
f 25/44/5 26/43/5 28/49/5 27/50/5
f 27/51/6 28/52/6 30/53/6 29/54/6
f 30/55/7 26/56/7 22/57/7
f 29/58/8 30/59/8 32/60/8 31/61/8
f 31/1/9 32/2/9 18/3/9 17/4/9
f 33/62/1 34/63/1 36/64/1 35/65/1
f 35/31/2 36/30/2 38/66/2 37/67/2
f 37/68/3 38/69/3 40/70/3 39/71/3
f 39/72/4 40/73/4 42/74/4 41/75/4
f 41/76/5 42/77/5 44/78/5 43/79/5
f 43/1/6 44/2/6 46/3/6 45/4/6
f 45/31/8 46/30/8 48/66/8 47/67/8
f 47/21/9 48/22/9 34/23/9 33/24/9
f 45/80/10 47/27/10 39/81/10
f 49/82/1 50/83/1 52/84/1 51/85/1
f 51/86/2 52/87/2 54/88/2 53/89/2
f 53/90/3 54/91/3 56/92/3 55/93/3
f 55/94/4 56/95/4 58/96/4 57/97/4
f 57/98/5 58/99/5 60/100/5 59/101/5
f 59/102/6 60/103/6 62/104/6 61/105/6
f 61/90/8 62/91/8 64/92/8 63/93/8
f 63/106/9 64/107/9 50/108/9 49/109/9
f 6/27/7 4/110/7 2/111/7
f 2/111/7 16/112/7 14/25/7
f 14/25/7 12/113/7 10/26/7
f 10/26/7 8/80/7 6/27/7
f 6/27/7 2/111/7 14/25/7
f 22/57/7 20/114/7 18/115/7
f 18/115/7 32/116/7 30/55/7
f 30/55/7 28/117/7 26/56/7
f 26/56/7 24/118/7 22/57/7
f 22/57/7 18/115/7 30/55/7
f 47/27/10 33/110/10 35/119/10
f 35/119/10 37/112/10 47/27/10
f 37/112/10 39/81/10 47/27/10
f 39/81/10 41/113/10 43/26/10
f 43/26/10 45/80/10 39/81/10
f 31/36/10 17/120/10 23/121/10
f 17/120/10 19/122/10 23/121/10
f 19/122/10 21/123/10 23/121/10
f 23/121/10 25/124/10 31/36/10
f 25/124/10 27/34/10 31/36/10
