# Blender 5.1.2
# www.blender.org
mtllib small_rusticated_column_up.mtl
o column_small
v 0.832502 1.062500 0.167500
v 0.832502 1.250000 0.167500
v 0.832502 1.062500 0.832500
v 0.832502 1.250000 0.832500
v 0.167498 1.062500 0.832500
v 0.167498 1.250000 0.832500
v 0.167498 1.062500 0.167500
v 0.167498 1.250000 0.167500
v 0.370557 0.000000 0.187498
v 0.370557 1.000000 0.187498
v 0.629443 0.000000 0.187498
v 0.629443 1.000000 0.187498
v 0.812502 0.000000 0.370557
v 0.812502 1.000000 0.370557
v 0.812502 0.000000 0.629443
v 0.812502 1.000000 0.629443
v 0.629443 0.000000 0.812502
v 0.629443 1.000000 0.812502
v 0.370557 0.000000 0.812502
v 0.370557 1.000000 0.812502
v 0.187498 0.000000 0.629443
v 0.187498 1.000000 0.629443
v 0.187498 0.000000 0.370557
v 0.187498 1.000000 0.370557
v 0.629443 1.000000 0.187498
v 0.370557 1.000000 0.187498
v 0.812502 1.000000 0.370557
v 0.812502 1.000000 0.629443
v 0.629443 1.000000 0.812502
v 0.370557 1.000000 0.812502
v 0.187498 1.000000 0.629443
v 0.187498 1.000000 0.370557
v 0.629443 1.750000 0.187498
v 0.370557 1.750000 0.187498
v 0.812502 1.750000 0.370557
v 0.812502 1.750000 0.629443
v 0.629443 1.750000 0.812502
v 0.370557 1.750000 0.812502
v 0.187498 1.750000 0.629443
v 0.187498 1.750000 0.370557
v 0.832502 0.562500 0.167500
v 0.832502 0.750000 0.167500
v 0.832502 0.562500 0.832500
v 0.832502 0.750000 0.832500
v 0.167498 0.562500 0.832500
v 0.167498 0.750000 0.832500
v 0.167498 0.562500 0.167500
v 0.167498 0.750000 0.167500
v 0.832502 0.812500 0.167500
v 0.832502 1.000000 0.167500
v 0.832502 0.812500 0.832500
v 0.832502 1.000000 0.832500
v 0.167498 0.812500 0.832500
v 0.167498 1.000000 0.832500
v 0.167498 0.812500 0.167500
v 0.167498 1.000000 0.167500
v 0.832502 0.312500 0.167500
v 0.832502 0.500000 0.167500
v 0.832502 0.312500 0.832500
v 0.832502 0.500000 0.832500
v 0.167498 0.312500 0.832500
v 0.167498 0.500000 0.832500
v 0.167498 0.312500 0.167500
v 0.167498 0.500000 0.167500
v 0.832502 0.062500 0.167500
v 0.832502 0.250000 0.167500
v 0.832502 0.062500 0.832500
v 0.832502 0.250000 0.832500
v 0.167498 0.062500 0.832500
v 0.167498 0.250000 0.832500
v 0.167498 0.062500 0.167500
v 0.167498 0.250000 0.167500
v 0.832502 1.312500 0.167500
v 0.832502 1.500000 0.167500
v 0.832502 1.312500 0.832500
v 0.832502 1.500000 0.832500
v 0.167498 1.312500 0.832500
v 0.167498 1.500000 0.832500
v 0.167498 1.312500 0.167500
v 0.167498 1.500000 0.167500
vn 1.0000 -0.0000 -0.0000
vn -1.0000 -0.0000 -0.0000
vn -0.0000 -0.0000 -1.0000
vn -0.0000 -0.0000 1.0000
vn -0.0000 1.0000 -0.0000
vn -0.0000 -1.0000 -0.0000
vn 0.7071 -0.0000 -0.7071
vn 0.7071 -0.0000 0.7071
vn -0.7071 -0.0000 0.7071
vn -0.7071 -0.0000 -0.7071
vt 1.000000 0.812500
vt 1.000000 1.000000
vt 0.375000 1.000000
vt 0.375064 0.812564
vt 0.624936 0.812564
vt 0.625000 1.000000
vt 0.000000 1.000000
vt 0.000000 0.812500
vt 0.999936 0.812564
vt 0.375000 0.812500
vt 0.187596 0.187604
vt 0.187596 0.812396
vt 0.812396 0.812396
vt 0.812397 0.187604
vt 0.187600 0.812400
vt 0.812393 0.812400
vt 0.812393 0.187600
vt 0.187600 0.187600
vt 0.250000 0.999936
vt 0.250000 0.000064
vt 0.000064 0.000000
vt 0.000064 1.000000
vt 1.000000 0.000000
vt 0.750064 0.999936
vt 0.750064 0.000064
vt 0.750000 0.000000
vt 0.750000 1.000000
vt 0.500000 1.000000
vt 0.500064 0.000064
vt 0.500000 0.000000
vt 0.250064 0.999936
vt 0.250064 0.000064
vt 0.250000 0.000000
vt 0.250000 1.000000
vt 0.000064 0.999936
vt 0.000064 0.000064
vt 0.750064 0.999936
vt 0.750064 0.000064
vt 0.000064 0.999936
vt 0.500064 0.999936
vt 0.250064 0.999936
vt 0.250064 0.000064
vt 0.187500 0.375000
vt 0.625000 0.187500
vt 0.812500 0.625000
vt 0.000000 0.000000
vt 0.250000 0.750000
vt 0.000000 0.750000
vt 0.000064 0.999936
vt 0.000064 0.000064
vt 0.000065 0.999936
vt 0.000064 0.999936
vt 0.750000 0.750000
vt 0.500000 0.750000
vt 1.000000 0.750000
vt 0.812500 0.375000
vt 0.625000 0.812500
vt 0.187500 0.625000
vt 0.375000 0.187500
s 0
usemtl column_mat_side
f 1/1/1 2/2/1 4/3/1 3/4/1
f 5/1/2 6/2/2 8/3/2 7/4/2
f 7/5/3 8/6/3 2/7/3 1/8/3
f 3/9/4 4/2/4 6/3/4 5/10/4
f 8/11/5 6/12/5 4/13/5 2/14/5
f 7/15/6 1/16/6 3/17/6 5/18/6
f 9/19/3 10/20/3 12/21/3 11/22/3
f 11/23/7 12/2/7 14/24/7 13/25/7
f 13/26/1 14/27/1 16/28/1 15/29/1
f 15/30/8 16/28/8 18/31/8 17/32/8
f 17/33/4 18/34/4 20/35/4 19/36/4
f 19/23/9 20/2/9 22/37/9 21/38/9
f 24/39/5 22/34/5 31/34/5 32/39/5
f 21/26/2 22/27/2 24/40/2 23/29/2
f 23/30/10 24/28/10 10/41/10 9/42/10
f 15/43/6 19/44/6 23/45/6
f 30/46/4 29/33/4 37/47/4 38/48/4
f 14/49/5 12/34/5 25/34/5 27/49/5
f 20/35/5 18/34/5 29/34/5 30/35/5
f 10/49/5 24/34/5 32/34/5 26/49/5
f 12/33/5 10/50/5 26/50/5 25/33/5
f 16/7/5 14/34/5 27/34/5 28/7/5
f 22/51/5 20/34/5 30/34/5 31/51/5
f 18/52/5 16/34/5 28/34/5 29/52/5
f 39/10/5 37/43/5 35/44/5
f 28/30/1 27/26/1 35/53/1 36/54/1
f 25/46/3 26/33/3 34/47/3 33/48/3
f 26/33/10 32/30/10 40/54/10 34/47/10
f 31/26/9 30/23/9 38/55/9 39/53/9
f 29/33/8 28/30/8 36/54/8 37/47/8
f 27/26/7 25/23/7 33/55/7 35/53/7
f 32/30/2 31/26/2 39/53/2 40/54/2
f 35/44/5 33/56/5 34/45/5
f 34/45/5 40/57/5 39/10/5
f 39/10/5 38/58/5 37/43/5
f 37/43/5 36/59/5 35/44/5
f 35/44/5 34/45/5 39/10/5
f 23/45/6 9/57/6 11/10/6
f 11/10/6 13/58/6 15/43/6
f 15/43/6 17/59/6 19/44/6
f 19/44/6 21/56/6 23/45/6
f 23/45/6 11/10/6 15/43/6
f 41/1/1 42/2/1 44/3/1 43/4/1
f 45/1/2 46/2/2 48/3/2 47/4/2
f 47/5/3 48/6/3 42/7/3 41/8/3
f 43/9/4 44/2/4 46/3/4 45/10/4
f 48/11/5 46/12/5 44/13/5 42/14/5
f 47/15/6 41/16/6 43/17/6 45/18/6
f 49/1/1 50/2/1 52/3/1 51/4/1
f 53/1/2 54/2/2 56/3/2 55/4/2
f 55/5/3 56/6/3 50/7/3 49/8/3
f 51/9/4 52/2/4 54/3/4 53/10/4
f 56/11/5 54/12/5 52/13/5 50/14/5
f 55/15/6 49/16/6 51/17/6 53/18/6
f 57/1/1 58/2/1 60/3/1 59/4/1
f 61/1/2 62/2/2 64/3/2 63/4/2
f 63/5/3 64/6/3 58/7/3 57/8/3
f 59/9/4 60/2/4 62/3/4 61/10/4
f 64/11/5 62/12/5 60/13/5 58/14/5
f 63/15/6 57/16/6 59/17/6 61/18/6
f 65/1/1 66/2/1 68/3/1 67/4/1
f 69/1/2 70/2/2 72/3/2 71/4/2
f 71/5/3 72/6/3 66/7/3 65/8/3
f 67/9/4 68/2/4 70/3/4 69/10/4
f 72/11/5 70/12/5 68/13/5 66/14/5
f 71/15/6 65/16/6 67/17/6 69/18/6
f 73/1/1 74/2/1 76/3/1 75/4/1
f 77/1/2 78/2/2 80/3/2 79/4/2
f 79/5/3 80/6/3 74/7/3 73/8/3
f 75/9/4 76/2/4 78/3/4 77/10/4
f 80/11/5 78/12/5 76/13/5 74/14/5
f 79/15/6 73/16/6 75/17/6 77/18/6
