# Blender 5.1.2
# www.blender.org
mtllib small_roman_corinthian_half_capital.mtl
o Cube.306
v 0.354231 0.211972 0.649502
v 0.354231 0.256406 0.649502
v 0.645769 0.211972 0.649502
v 0.645769 0.256406 0.649502
v 0.851918 0.211972 0.855651
v 0.851918 0.256406 0.855651
v 0.148083 0.211972 0.855651
v 0.148083 0.256406 0.855651
v 0.631343 0.256406 0.684331
v 0.368658 0.256406 0.684331
v 0.817089 0.256406 0.870078
v 0.182911 0.256406 0.870078
v 0.643887 0.656406 0.654047
v 0.356113 0.656406 0.654047
v 0.847373 0.656406 0.857533
v 0.152627 0.656406 0.857533
v 0.643887 0.856406 0.654047
v 0.356113 0.856406 0.654047
v 0.847373 0.856406 0.857533
v 0.152627 0.856406 0.857533
v 0.355785 0.436406 0.653255
v 0.644215 0.436406 0.653255
v 0.151835 0.436406 0.857205
v 0.848165 0.436406 0.857205
v 0.368890 0.436406 0.684893
v 0.183473 0.436406 0.870310
v 0.631110 0.436406 0.684893
v 0.816527 0.436406 0.870310
v 0.343219 0.656406 0.622918
v 0.121498 0.656406 0.844639
v 0.656781 0.656406 0.622918
v 0.878502 0.656406 0.844639
v 0.169973 0.843111 0.998311
v 0.131349 0.830228 0.998314
v 0.164261 0.860228 0.954747
v 0.125637 0.847345 0.954750
v 0.150476 0.901554 0.936703
v 0.111851 0.888671 0.936705
v 0.136692 0.942880 0.954748
v 0.098068 0.929997 0.954750
v 0.130985 0.959998 0.998312
v 0.092361 0.947115 0.998314
v 0.459548 0.942881 0.638119
v 0.459545 0.929998 0.599494
v 0.441503 0.901556 0.651904
v 0.441501 0.888672 0.613280
v 0.459548 0.860230 0.665688
v 0.459546 0.847346 0.627063
v 0.503112 0.843111 0.671395
v 0.503110 0.830228 0.632771
v 0.546676 0.860228 0.665683
v 0.546674 0.847345 0.627059
v 0.564721 0.901554 0.651898
v 0.564719 0.888671 0.613273
v 0.546676 0.942880 0.638114
v 0.546674 0.929997 0.599490
v 0.503112 0.959998 0.632407
v 0.503109 0.947115 0.593782
v 0.863303 0.942881 0.960971
v 0.901927 0.929998 0.960968
v 0.849518 0.901556 0.942926
v 0.888142 0.888673 0.942924
v 0.835734 0.860230 0.960971
v 0.874359 0.847347 0.960969
v 0.141484 0.813702 0.928151
v 0.168356 0.813702 0.928150
v 0.141483 0.784950 0.916242
v 0.168356 0.784950 0.916240
v 0.141484 0.756198 0.928151
v 0.168356 0.756198 0.928150
v 0.141486 0.744289 0.956903
v 0.168358 0.744289 0.956901
v 0.141487 0.756198 0.985654
v 0.168360 0.756198 0.985653
v 0.141488 0.784950 0.997564
v 0.168360 0.784950 0.997562
v 0.141487 0.813701 0.985654
v 0.168360 0.813701 0.985653
v 0.141486 0.825611 0.956903
v 0.168358 0.825611 0.956901
v 0.573272 0.813702 0.642904
v 0.573273 0.813702 0.669776
v 0.585181 0.784950 0.642903
v 0.585182 0.784950 0.669775
v 0.573272 0.756198 0.642904
v 0.573273 0.756198 0.669776
v 0.544520 0.744289 0.642905
v 0.544521 0.744289 0.669778
v 0.515768 0.756198 0.642907
v 0.515770 0.756198 0.669779
v 0.503859 0.784950 0.642907
v 0.503860 0.784950 0.669780
v 0.515768 0.813701 0.642907
v 0.515770 0.813701 0.669779
v 0.544520 0.825611 0.642905
v 0.544521 0.825611 0.669778
v 0.424361 0.813701 0.669779
v 0.424360 0.813701 0.642907
v 0.412452 0.784949 0.669780
v 0.412450 0.784949 0.642908
v 0.424361 0.756198 0.669779
v 0.424360 0.756198 0.642907
v 0.453113 0.744288 0.669778
v 0.453111 0.744288 0.642906
v 0.481864 0.756197 0.669777
v 0.481863 0.756197 0.642904
v 0.493774 0.784949 0.669776
v 0.493772 0.784949 0.642904
v 0.481864 0.813701 0.669777
v 0.481863 0.813701 0.642904
v 0.453113 0.825610 0.669778
v 0.453111 0.825610 0.642906
v 0.831641 0.813701 0.925782
v 0.858513 0.813701 0.925781
v 0.831641 0.784949 0.913873
v 0.858513 0.784949 0.913872
v 0.831641 0.756198 0.925782
v 0.858513 0.756198 0.925781
v 0.831642 0.744288 0.954534
v 0.858515 0.744288 0.954533
v 0.831644 0.756197 0.983286
v 0.858516 0.756197 0.983285
v 0.831644 0.784949 0.995195
v 0.858516 0.784949 0.995194
v 0.831643 0.813701 0.983286
v 0.858516 0.813701 0.983285
v 0.831642 0.825610 0.954534
v 0.858515 0.825610 0.954533
v 0.053014 0.846624 0.601022
v 0.104596 0.846624 0.576967
v 0.042353 0.785728 0.578161
v 0.093935 0.785728 0.554107
v 0.053014 0.724831 0.601022
v 0.104596 0.724831 0.576967
v 0.078750 0.699607 0.656212
v 0.130333 0.699607 0.632157
v 0.104487 0.724831 0.711402
v 0.156070 0.724831 0.687348
v 0.115148 0.785728 0.734263
v 0.166730 0.785728 0.710208
v 0.104487 0.846624 0.711402
v 0.156070 0.846624 0.687348
v 0.078750 0.871848 0.656212
v 0.130333 0.871848 0.632157
v 0.219079 0.663077 0.822465
v 0.167497 0.663077 0.846520
v 0.178157 0.723974 0.869380
v 0.229740 0.723974 0.845326
v 0.167497 0.784870 0.846520
v 0.219079 0.784870 0.822465
v 0.894394 0.846624 0.575958
v 0.945978 0.846624 0.600010
v 0.905054 0.785728 0.553097
v 0.956637 0.785728 0.577149
v 0.894394 0.724832 0.575958
v 0.945978 0.724832 0.600010
v 0.868659 0.699608 0.631149
v 0.920243 0.699608 0.655201
v 0.842925 0.724832 0.686340
v 0.894508 0.724832 0.710392
v 0.832265 0.785728 0.709201
v 0.883848 0.785728 0.733253
v 0.842924 0.846624 0.686340
v 0.894508 0.846624 0.710392
v 0.868659 0.871848 0.631149
v 0.920243 0.871848 0.655201
v 0.831066 0.662649 0.846450
v 0.779483 0.662649 0.822398
v 0.768823 0.723545 0.845258
v 0.820406 0.723545 0.869311
v 0.779483 0.784441 0.822398
v 0.831066 0.784441 0.846450
v 0.075959 0.846624 0.605607
v 0.100011 0.846624 0.554023
v 0.053098 0.785728 0.594947
v 0.077150 0.785728 0.543364
v 0.075959 0.724832 0.605607
v 0.100011 0.724832 0.554023
v 0.131150 0.699608 0.631341
v 0.155202 0.699608 0.579758
v 0.186341 0.724832 0.657076
v 0.210394 0.724832 0.605492
v 0.209202 0.785728 0.667735
v 0.233254 0.785728 0.616152
v 0.186341 0.846624 0.657076
v 0.210394 0.846624 0.605492
v 0.131150 0.871848 0.631341
v 0.155202 0.871848 0.579758
v 0.345756 0.662967 0.668609
v 0.321704 0.662967 0.720193
v 0.344565 0.723863 0.730852
v 0.368617 0.723863 0.679269
v 0.321704 0.784759 0.720193
v 0.345756 0.784759 0.668609
v 0.898978 0.846624 0.553012
v 0.923033 0.846624 0.604595
v 0.921839 0.785728 0.542352
v 0.945893 0.785728 0.593935
v 0.898978 0.724831 0.553012
v 0.923033 0.724831 0.604595
v 0.843788 0.699607 0.578749
v 0.867842 0.699607 0.630332
v 0.788598 0.724831 0.604486
v 0.812652 0.724831 0.656068
v 0.765737 0.785728 0.615146
v 0.789791 0.785728 0.666729
v 0.788598 0.846624 0.604486
v 0.812652 0.846624 0.656068
v 0.843788 0.871848 0.578749
v 0.867842 0.871848 0.630332
v 0.676967 0.662818 0.719341
v 0.652913 0.662818 0.667759
v 0.630053 0.723715 0.678419
v 0.654107 0.723715 0.730002
v 0.652913 0.784611 0.667759
v 0.676967 0.784611 0.719341
v 0.062533 0.937628 1.000000
v 0.937467 1.000128 1.000000
v 0.062533 1.000128 1.000000
v 0.937467 0.937628 1.000000
v 0.500000 0.937628 0.562533
v 0.500000 1.000128 0.562533
v 0.500000 0.848477 1.000000
v 0.500000 1.000128 1.000000
v 1.066650 1.000128 0.479021
v 1.020979 1.000128 0.433351
v 1.020979 0.937628 0.433351
v 1.066650 0.937628 0.479021
v -0.020979 1.000128 0.433351
v -0.066649 1.000128 0.479021
v -0.066649 0.937628 0.479021
v -0.020979 0.937628 0.433351
v 0.146303 0.937628 1.000000
v 0.853697 0.937628 1.000000
v 0.500000 0.937628 0.646303
v 0.958143 0.937628 0.578783
v 0.921218 0.937628 0.541858
v 0.078782 0.937628 0.541858
v 0.041857 0.937628 0.578783
v 0.146303 0.848477 1.000000
v 0.853697 0.848477 1.000000
v 0.500000 0.848477 0.646303
v 0.958143 0.848477 0.578783
v 0.921218 0.848477 0.541858
v 0.078782 0.848477 0.541858
v 0.041857 0.848477 0.578783
v 0.851918 0.211972 1.000000
v 0.851918 0.256406 1.000000
v 0.148083 0.211972 1.000000
v 0.148083 0.256406 1.000000
v 0.817089 0.256406 1.000000
v 0.182911 0.256406 1.000000
v 0.847373 0.656406 1.000000
v 0.152627 0.656406 1.000000
v 0.847373 0.856406 1.000000
v 0.152627 0.856406 1.000000
v 0.848165 0.436406 1.000000
v 0.151835 0.436406 1.000000
v 0.816527 0.436406 1.000000
v 0.183473 0.436406 1.000000
v 0.878502 0.656406 1.000000
v 0.121498 0.656406 1.000000
v 0.169752 0.843775 1.000000
v 0.131128 0.830891 1.000000
v 0.131207 0.959335 1.000000
v 0.092582 0.946453 1.000000
v 0.830621 0.844894 1.000000
v 0.869245 0.832009 1.000000
v 0.868420 0.958217 1.000000
v 0.907045 0.945334 1.000000
vn -0.0000 -0.0000 -1.0000
vn 0.7071 -0.0000 -0.7071
vn -0.0000 -0.0000 1.0000
vn -1.0000 -0.0000 -0.0000
vn -0.7071 -0.0000 -0.7071
vn -0.0000 1.0000 -0.0000
vn 1.0000 -0.0000 -0.0000
vn 0.9854 -0.1701 -0.0000
vn 0.6968 -0.1701 -0.6968
vn -0.6968 -0.1701 -0.6968
vn -0.0000 -0.1701 -0.9854
vn 0.9625 -0.2712 -0.0000
vn 0.6806 -0.2712 -0.6806
vn -0.6806 -0.2712 -0.6806
vn -0.0000 -0.2712 -0.9625
vn 0.2924 -0.8764 0.3827
vn 0.2923 -0.8764 -0.3827
vn 0.1210 -0.3630 -0.9239
vn -0.1211 0.3630 -0.9239
vn -0.9486 -0.3164 0.0001
vn -0.2924 0.8764 -0.3827
vn 0.9486 0.3164 -0.0001
vn -0.9239 0.3630 -0.1210
vn -0.9239 -0.3630 0.1211
vn -0.3827 -0.8764 0.2924
vn 0.3827 -0.8764 0.2923
vn 0.9239 -0.3630 0.1210
vn 0.9239 0.3630 -0.1211
vn -0.0001 -0.3164 -0.9486
vn 0.3827 0.8764 -0.2924
vn -0.3827 0.8764 -0.2923
vn 0.0001 0.3164 0.9486
vn 0.1210 0.3630 -0.9239
vn -0.1211 -0.3630 -0.9239
vn 0.2923 0.8764 -0.3827
vn -0.0001 0.3827 -0.9239
vn -0.0001 -0.3827 -0.9239
vn -0.0000 -0.9239 -0.3827
vn -0.0000 -0.9239 0.3827
vn 0.0001 -0.3827 0.9239
vn 0.0001 0.3827 0.9239
vn 1.0000 -0.0000 -0.0001
vn -0.0000 0.9239 0.3827
vn -0.0000 0.9239 -0.3827
vn -1.0000 -0.0000 0.0001
vn 0.9239 0.3827 -0.0000
vn 0.9239 -0.3827 -0.0000
vn 0.3827 -0.9239 -0.0000
vn -0.3827 -0.9239 -0.0000
vn -0.9239 -0.3827 -0.0000
vn -0.9239 0.3827 -0.0000
vn 0.0001 -0.0000 1.0000
vn -0.3827 0.9239 -0.0000
vn 0.3827 0.9239 -0.0000
vn -0.0001 -0.0000 -1.0000
vn -0.0000 0.3827 -0.9239
vn -0.0000 -0.3827 -0.9239
vn -0.0000 -0.3827 0.9239
vn -0.0000 0.3827 0.9239
vn -0.3905 0.3827 -0.8373
vn -0.3905 -0.3827 -0.8373
vn -0.1617 -0.9239 -0.3468
vn 0.1617 -0.9239 0.3468
vn 0.1617 0.9239 0.3468
vn -0.9063 -0.0000 0.4226
vn 0.9063 -0.0000 -0.4226
vn -0.1617 0.9239 -0.3468
vn 0.3905 -0.3827 0.8373
vn 0.3905 0.3827 0.8373
vn 0.3904 0.3827 -0.8373
vn 0.3904 -0.3827 -0.8373
vn 0.1617 -0.9239 -0.3468
vn -0.1617 -0.9239 0.3468
vn -0.1617 0.9239 0.3468
vn -0.9063 -0.0000 -0.4226
vn 0.9063 -0.0000 0.4226
vn 0.1617 0.9239 -0.3468
vn -0.3904 -0.3827 0.8373
vn -0.3904 0.3827 0.8373
vn -0.8373 0.3827 -0.3904
vn -0.8373 -0.3827 -0.3904
vn -0.3468 -0.9239 -0.1617
vn 0.3468 -0.9239 0.1617
vn 0.3468 0.9239 0.1617
vn -0.4226 -0.0000 0.9063
vn 0.4226 -0.0000 -0.9063
vn -0.3468 0.9239 -0.1617
vn 0.8373 -0.3827 0.3904
vn 0.8373 0.3827 0.3904
vn 0.8373 0.3827 -0.3905
vn 0.8373 -0.3827 -0.3905
vn 0.3468 -0.9239 -0.1617
vn -0.3468 -0.9239 0.1617
vn 0.4226 -0.0000 0.9063
vn -0.3468 0.9239 0.1617
vn 0.3468 0.9239 -0.1617
vn -0.4226 -0.0000 -0.9063
vn -0.8373 -0.3827 0.3905
vn -0.8373 0.3827 0.3905
vn 0.9706 -0.0000 0.2407
vn -0.2407 -0.0000 -0.9706
vn -0.0000 -1.0000 -0.0000
vn 0.2407 -0.0000 -0.9706
vn -0.9706 -0.0000 0.2407
vn 0.9486 -0.3164 -0.0001
vn -0.2923 -0.8764 -0.3827
vn -0.9486 0.3164 0.0001
vn -0.2923 0.8764 0.3827
vn -0.9625 -0.2712 -0.0000
vn -0.9854 -0.1701 -0.0000
vn -0.9486 -0.3164 -0.0000
vn 0.9486 0.3164 -0.0000
vn 0.9486 -0.3164 -0.0000
vt 0.440221 0.503116
vt 0.405093 0.871884
vt 0.405093 0.503116
vt 0.502721 0.003116
vt 0.467593 0.371884
vt 0.467593 0.003116
vt 0.296329 0.082024
vt 0.585952 0.041227
vt 0.297069 0.919212
vt 0.173742 0.500000
vt 0.000859 0.500000
vt 0.101927 0.096123
vt 0.150094 0.440269
vt 0.190810 0.559731
vt 0.150094 0.559731
vt 0.780093 0.251796
vt 0.815221 0.434384
vt 0.780093 0.434384
vt 0.190221 0.128116
vt 0.155093 0.496884
vt 0.155093 0.128116
vt 0.750012 0.626589
vt 0.709296 0.748409
vt 0.709296 0.626590
vt 0.656779 0.121503
vt 0.356115 0.152632
vt 0.343221 0.121503
vt 0.645769 0.148082
vt 0.368657 0.182911
vt 0.354231 0.148082
vt 0.182911 0.368657
vt 0.148082 0.354231
vt 0.250152 0.747840
vt 0.182911 0.631343
vt 0.274780 0.723212
vt 0.148082 0.645769
vt 0.513164 0.630495
vt 0.671280 0.994505
vt 0.513164 0.994505
vt 0.940232 0.344279
vt 0.909104 0.043611
vt 0.940232 0.030721
vt 0.346603 0.093221
vt 0.377732 0.393889
vt 0.346603 0.406779
vt 0.121503 0.498580
vt 0.152632 0.356115
vt 0.152632 0.498580
vt 0.700665 0.005495
vt 0.858780 0.369505
vt 0.700665 0.369505
vt 0.138164 0.317995
vt 0.296280 0.498204
vt 0.138164 0.498204
vt 0.696432 0.580365
vt 0.866068 0.919635
vt 0.696432 0.919635
vt 0.508363 0.574998
vt 0.333878 0.438986
vt 0.508363 0.438987
vt 0.758363 0.762498
vt 0.583878 0.474026
vt 0.758363 0.487502
vt 0.883363 0.112502
vt 0.708878 0.400974
vt 0.708878 0.099026
vt 0.508363 0.762498
vt 0.333878 0.474026
vt 0.508363 0.487502
vt 0.695697 0.251420
vt 0.664058 0.381112
vt 0.664058 0.251420
vt 0.848165 0.644215
vt 0.816527 0.368890
vt 0.848165 0.355785
vt 0.355785 0.848165
vt 0.631110 0.816527
vt 0.644215 0.848165
vt 0.664058 0.605788
vt 0.695697 0.881112
vt 0.664058 0.894213
vt 0.062730 0.056391
vt 0.291304 0.186080
vt 0.062740 0.186088
vt 0.750230 0.681391
vt 0.978804 0.969275
vt 0.750250 0.943625
vt 0.312750 0.943625
vt 0.541304 0.655725
vt 0.541304 0.969274
vt 0.250230 0.368891
vt 0.478804 0.656774
vt 0.250250 0.631125
vt 0.453316 0.521520
vt 0.452431 0.466320
vt 0.453317 0.466320
vt 0.475296 0.521521
vt 0.452431 0.466320
vt 0.475296 0.466320
vt 0.473702 0.470168
vt 0.454025 0.517672
vt 0.454025 0.470168
vt 0.473702 0.517672
vt 0.454025 0.470168
vt 0.473702 0.470168
vt 0.644346 0.232220
vt 0.625259 0.189102
vt 0.689999 0.248474
vt 0.475296 0.521520
vt 0.475296 0.466320
vt 0.467569 0.454618
vt 0.500128 0.454618
vt 0.444546 0.478903
vt 0.473702 0.517672
vt 0.473702 0.470168
vt 0.454025 0.517672
vt 0.454025 0.470168
vt 0.452431 0.466320
vt 0.475296 0.466320
vt 0.473702 0.470168
vt 0.454025 0.517672
vt 0.454025 0.470168
vt 0.706846 0.419720
vt 0.704751 0.332617
vt 0.791855 0.330522
vt 0.452431 0.521520
vt 0.475296 0.521521
vt 0.452431 0.466320
vt 0.475296 0.466320
vt 0.467569 0.533222
vt 0.444546 0.477641
vt 0.500127 0.454618
vt 0.473702 0.470168
vt 0.454025 0.517672
vt 0.454025 0.470168
vt 0.472916 0.466320
vt 0.452431 0.521521
vt 0.457340 0.509670
vt 0.470387 0.478170
vt 0.470387 0.509670
vt 0.470387 0.509670
vt 0.457340 0.478170
vt 0.470387 0.478170
vt 0.471521 0.512406
vt 0.456206 0.475434
vt 0.471521 0.475434
vt 0.456206 0.512406
vt 0.457340 0.478170
vt 0.470387 0.478170
vt 0.457340 0.509670
vt 0.458833 0.483559
vt 0.473487 0.468906
vt 0.494210 0.468906
vt 0.456206 0.512406
vt 0.471521 0.512406
vt 0.604078 0.360745
vt 0.469058 0.304227
vt 0.467634 0.686714
vt 0.471521 0.512406
vt 0.473487 0.518935
vt 0.456206 0.512406
vt 0.277103 0.494759
vt 0.470387 0.509670
vt 0.470387 0.509670
vt 0.457339 0.478170
vt 0.457340 0.509670
vt 0.469385 0.686712
vt 0.333852 0.631434
vt 0.602840 0.359508
vt 0.471521 0.512406
vt 0.471521 0.475434
vt 0.494210 0.468905
vt 0.508863 0.483559
vt 0.508863 0.504282
vt 0.604310 0.629965
vt 0.458833 0.483559
vt 0.748708 0.284192
vt 0.803568 0.215808
vt 0.803568 0.284192
vt 0.748709 0.840808
vt 0.803569 0.909192
vt 0.748709 0.909192
vt 0.169040 0.405304
vt 0.110779 0.469695
vt 0.110779 0.405304
vt 0.794040 0.780304
vt 0.735779 0.844696
vt 0.735779 0.780304
vt 0.213956 0.421179
vt 0.155695 0.578821
vt 0.155695 0.421179
vt 0.467642 0.143189
vt 0.413039 0.356811
vt 0.413039 0.162011
vt 0.453874 0.421555
vt 0.513823 0.421555
vt 0.453874 0.566285
vt 0.493979 0.566626
vt 0.433748 0.421215
vt 0.493979 0.421215
vt 0.480081 0.533074
vt 0.447645 0.454767
vt 0.480081 0.454767
vt 0.332551 0.385746
vt 0.476751 0.325274
vt 0.478543 0.733875
vt 0.477681 0.460562
vt 0.450046 0.527278
vt 0.450046 0.460562
vt 0.477681 0.527278
vt 0.413036 0.174078
vt 0.374427 0.325922
vt 0.374427 0.131125
vt 0.717641 0.724511
vt 0.663039 0.900489
vt 0.663039 0.705689
vt 0.963956 0.046179
vt 0.905696 0.203821
vt 0.905696 0.046179
vt 0.686927 0.111578
vt 0.725536 0.263422
vt 0.686927 0.306375
vt 0.491068 0.284192
vt 0.436209 0.215809
vt 0.491068 0.215809
vt 0.477681 0.460562
vt 0.450046 0.527278
vt 0.450046 0.460562
vt 0.798279 0.655304
vt 0.856541 0.719696
vt 0.798279 0.719696
vt 0.794041 0.217804
vt 0.735780 0.282195
vt 0.735780 0.217804
vt 0.462683 0.170631
vt 0.404422 0.329369
vt 0.404422 0.170631
vt 0.724735 0.661335
vt 0.779338 0.838665
vt 0.724735 0.857487
vt 0.333396 0.674251
vt 0.477948 0.733877
vt 0.622323 0.673826
vt 0.494053 0.566805
vt 0.433673 0.421036
vt 0.494053 0.421036
vt 0.480081 0.533074
vt 0.411367 0.463897
vt 0.513871 0.421439
vt 0.556329 0.523943
vt 0.477681 0.460562
vt 0.475077 0.173401
vt 0.436467 0.326599
vt 0.436467 0.130448
vt 0.779337 0.473835
vt 0.724735 0.651165
vt 0.724735 0.455013
vt 0.466922 0.608131
vt 0.525183 0.766869
vt 0.466922 0.766869
vt 0.248967 0.360901
vt 0.287577 0.514099
vt 0.248967 0.557052
vt 0.116068 0.784191
vt 0.061208 0.715808
vt 0.116068 0.715808
vt 0.123709 0.153309
vt 0.178569 0.221692
vt 0.123709 0.221692
vt 0.606540 0.780305
vt 0.548279 0.844696
vt 0.548279 0.780305
vt 0.356541 0.655304
vt 0.298279 0.719696
vt 0.298279 0.655304
vt 0.493998 0.421168
vt 0.493998 0.566672
vt 0.725330 0.099337
vt 0.779932 0.275663
vt 0.725330 0.294485
vt 0.621898 0.384899
vt 0.332971 0.385323
vt 0.433728 0.421168
vt 0.411453 0.463933
vt 0.513835 0.421525
vt 0.556243 0.523907
vt 0.477681 0.460562
vt 0.787917 0.736403
vt 0.749307 0.888597
vt 0.749307 0.693450
vt 0.154932 0.411837
vt 0.100330 0.588163
vt 0.100330 0.393015
vt 0.717864 0.733537
vt 0.776125 0.891463
vt 0.717864 0.891463
vt 0.061807 0.423903
vt 0.100417 0.576097
vt 0.061807 0.619050
vt 0.123709 0.534192
vt 0.178569 0.465809
vt 0.178569 0.534192
vt 0.186208 0.846692
vt 0.241067 0.778309
vt 0.241067 0.846692
vt 0.356540 0.655304
vt 0.298279 0.719695
vt 0.298279 0.655304
vt 0.419041 0.655305
vt 0.360779 0.719696
vt 0.360779 0.655305
vt 0.411413 0.523924
vt 0.453845 0.566355
vt 0.088185 0.045848
vt 0.029924 0.204152
vt 0.029924 0.045848
vt 0.411413 0.463916
vt 0.453844 0.421485
vt 0.513852 0.421485
vt 0.494024 0.566734
vt 0.433703 0.421106
vt 0.494024 0.421106
vt 0.273347 0.530471
vt 0.477681 0.527278
vt 0.450046 0.460562
vt 0.477681 0.460562
vt 0.217154 0.705281
vt 0.162552 0.919719
vt 0.162552 0.724103
vt 0.404923 0.170847
vt 0.463185 0.329153
vt 0.404923 0.329153
vt 0.162758 0.736169
vt 0.124148 0.888831
vt 0.124148 0.693215
vt 0.327136 0.459151
vt 0.277725 0.540848
vt 0.277725 0.459151
vt 0.389636 0.646651
vt 0.340225 0.728348
vt 0.340225 0.646651
vt 0.748617 0.160532
vt 0.699208 0.839468
vt 0.699208 0.160532
vt 0.498617 0.160532
vt 0.449208 0.839468
vt 0.449208 0.160532
vt 0.329710 0.213767
vt 0.767164 0.213767
vt 0.767165 0.651221
vt 0.426188 0.304214
vt 0.344877 0.718032
vt 0.344882 0.284038
vt 0.686117 0.160532
vt 0.636708 0.839468
vt 0.636708 0.160532
vt 0.061117 0.160532
vt 0.011708 0.839468
vt 0.011708 0.160532
vt 0.200531 0.259436
vt 0.246200 0.213767
vt 0.767165 0.342945
vt 0.374520 0.176364
vt 0.432914 0.323636
vt 0.380693 0.323629
vt 0.287890 0.626020
vt 0.221837 0.696500
vt 0.221837 0.626020
vt 0.528988 0.038030
vt 0.599468 0.586970
vt 0.528988 0.586970
vt 0.251606 0.426364
vt 0.193211 0.573636
vt 0.187019 0.426364
vt 0.926188 0.366715
vt 0.844877 0.780532
vt 0.844882 0.346538
vt 0.032377 0.241715
vt 0.113688 0.655532
vt 0.032377 0.778462
vt 0.719877 0.429214
vt 0.801188 0.843032
vt 0.719877 0.965962
vt 0.729006 0.692177
vt 0.692029 0.729089
vt 0.270892 0.624577
vt 0.624596 0.729089
vt 0.270881 0.729089
vt 0.270892 0.375423
vt 0.376631 0.652261
vt 0.310577 0.722741
vt 0.310577 0.652261
vt 0.653988 0.413030
vt 0.724468 0.961970
vt 0.653988 0.961970
vt 0.466488 0.413030
vt 0.536968 0.961970
vt 0.466488 0.961970
vt 0.466488 0.038030
vt 0.536968 0.586970
vt 0.466488 0.586970
vt 0.314946 0.627798
vt 0.373441 0.686140
vt 0.317817 0.747227
vt 0.475296 0.521521
vt 0.454811 0.466320
vt 0.467569 0.533222
vt 0.444546 0.481030
vt 0.520754 0.512596
vt 0.475296 0.466320
vt 0.474411 0.521521
vt 0.474410 0.466320
vt 0.312750 0.381125
vt 0.541304 0.251420
vt 0.541304 0.406774
vt 0.820697 0.248580
vt 0.789059 0.118888
vt 0.820697 0.105788
vt 0.485044 0.786508
vt 0.485044 0.201332
vt 0.776436 0.615114
vt 0.878497 0.498580
vt 0.847368 0.356115
vt 0.878497 0.343221
vt 0.638165 0.189296
vt 0.796280 0.369505
vt 0.638165 0.369505
vt 0.945863 0.050002
vt 0.771378 0.186013
vt 0.771378 0.036526
vt 0.747840 0.250152
vt 0.631343 0.182911
vt 0.655093 0.628116
vt 0.690221 0.810704
vt 0.655093 0.810704
vt 0.131941 0.495340
vt 0.835756 0.495340
vt 0.338083 0.845827
vt 0.440221 0.871884
vt 0.502721 0.371884
vt 0.588753 0.958773
vt 0.589014 0.999908
vt 0.295844 0.960994
vt 0.058906 0.918488
vt 0.056079 0.965926
vt 0.000092 0.963051
vt 0.000092 0.035456
vt 0.058892 0.080892
vt 0.057448 0.034050
vt 0.296206 0.040226
vt 0.586002 0.000092
vt 0.853383 0.956326
vt 0.849746 0.039347
vt 0.102463 0.000042
vt 0.173341 0.000782
vt 0.173341 0.999218
vt 0.101927 0.903877
vt 0.102463 0.999958
vt 0.000042 0.903184
vt 0.000042 0.096816
vt 0.190810 0.440268
vt 0.815221 0.251796
vt 0.190221 0.496884
vt 0.750012 0.748410
vt 0.643885 0.152632
vt 0.671280 0.630495
vt 0.909103 0.331389
vt 0.377731 0.106111
vt 0.121503 0.343221
vt 0.858780 0.005495
vt 0.296280 0.317995
vt 0.866068 0.580365
vt 0.333878 0.588474
vt 0.583878 0.775974
vt 0.883363 0.387498
vt 0.333878 0.775974
vt 0.695697 0.394213
vt 0.816527 0.631110
vt 0.368890 0.816527
vt 0.695696 0.618888
vt 0.291304 0.030725
vt 0.978804 0.655726
vt 0.312730 0.681391
vt 0.478804 0.343226
vt 0.452431 0.521521
vt 0.454025 0.517672
vt 0.685369 0.126030
vt 0.687072 0.126688
vt 0.642251 0.145117
vt 0.688331 0.249212
vt 0.523150 0.510200
vt 0.522258 0.511092
vt 0.523150 0.477641
vt 0.444546 0.477641
vt 0.473702 0.517672
vt 0.452431 0.521521
vt 0.473702 0.517672
vt 0.810941 0.373640
vt 0.793949 0.417626
vt 0.750831 0.436712
vt 0.687759 0.376602
vt 0.747869 0.313530
vt 0.523150 0.510200
vt 0.500128 0.533222
vt 0.444546 0.510200
vt 0.467569 0.454618
vt 0.523150 0.477641
vt 0.473702 0.517672
vt 0.472917 0.521521
vt 0.508863 0.483559
vt 0.508863 0.504282
vt 0.494210 0.518935
vt 0.458833 0.504282
vt 0.333620 0.359738
vt 0.332613 0.630197
vt 0.603073 0.631203
vt 0.659590 0.496182
vt 0.457339 0.509670
vt 0.277104 0.496510
vt 0.332383 0.360977
vt 0.467307 0.304229
vt 0.659588 0.494432
vt 0.494210 0.518935
vt 0.473487 0.518935
vt 0.458833 0.504282
vt 0.473487 0.468905
vt 0.508863 0.483559
vt 0.748708 0.215809
vt 0.803569 0.840808
vt 0.169040 0.469695
vt 0.794040 0.844696
vt 0.213956 0.578821
vt 0.467642 0.337989
vt 0.556213 0.463946
vt 0.556213 0.523895
vt 0.513823 0.566285
vt 0.411483 0.523895
vt 0.411483 0.463946
vt 0.433748 0.566626
vt 0.447645 0.533074
vt 0.621476 0.384478
vt 0.681948 0.528678
vt 0.622743 0.673403
vt 0.333818 0.674670
vt 0.477681 0.527278
vt 0.413036 0.368875
vt 0.717641 0.919311
vt 0.963956 0.203821
vt 0.725536 0.068625
vt 0.436209 0.284192
vt 0.477681 0.527278
vt 0.856541 0.655304
vt 0.794041 0.282195
vt 0.462683 0.329369
vt 0.779338 0.642513
vt 0.681950 0.529274
vt 0.477346 0.325272
vt 0.273345 0.529875
vt 0.433673 0.566805
vt 0.513871 0.566401
vt 0.453825 0.566401
vt 0.411367 0.523943
vt 0.453825 0.421439
vt 0.556329 0.463897
vt 0.475077 0.369552
vt 0.779337 0.669987
vt 0.525183 0.608131
vt 0.287577 0.317948
vt 0.061208 0.784191
vt 0.178568 0.153309
vt 0.606540 0.844696
vt 0.356541 0.719696
vt 0.779932 0.080515
vt 0.433728 0.566672
vt 0.513835 0.566315
vt 0.453861 0.566315
vt 0.411453 0.523907
vt 0.453861 0.421525
vt 0.556243 0.463933
vt 0.787917 0.931551
vt 0.154932 0.606986
vt 0.776125 0.733537
vt 0.100417 0.380949
vt 0.123709 0.465809
vt 0.186208 0.778309
vt 0.356540 0.719695
vt 0.419041 0.719696
vt 0.088185 0.204152
vt 0.556283 0.463916
vt 0.556283 0.523924
vt 0.513852 0.566355
vt 0.433703 0.566734
vt 0.450046 0.527278
vt 0.217154 0.900897
vt 0.463185 0.170847
vt 0.162758 0.931785
vt 0.327136 0.540848
vt 0.389636 0.728348
vt 0.748617 0.839468
vt 0.498617 0.839468
vt 0.246200 0.780400
vt 0.200531 0.734731
vt 0.426188 0.840962
vt 0.686117 0.839468
vt 0.061117 0.839468
vt 0.767165 0.780400
vt 0.329710 0.780400
vt 0.439106 0.176364
vt 0.287890 0.696500
vt 0.599468 0.038030
vt 0.245433 0.573629
vt 0.926188 0.903462
vt 0.113682 0.221538
vt 0.801183 0.409038
vt 0.270881 0.270911
vt 0.624596 0.270911
vt 0.692029 0.270911
vt 0.729006 0.307823
vt 0.376631 0.722741
vt 0.724468 0.413030
vt 0.536968 0.413030
vt 0.536968 0.038030
vt 0.354355 0.643022
vt 0.356449 0.730126
vt 0.454810 0.521520
vt 0.500128 0.533222
vt 0.444546 0.510200
vt 0.312740 0.251428
vt 0.789058 0.248580
vt 0.605042 0.201332
vt 0.776436 0.372726
vt 0.605042 0.786508
vt 0.847368 0.498580
vt 0.796280 0.189296
vt 0.945863 0.186013
vt 0.723212 0.274780
vt 0.690221 0.628116
vt 0.835756 0.639685
vt 0.629613 0.845827
vt 0.131941 0.639685
s 0
usemtl corinthian
f 29/25/6 13/26/6 31/27/6
f 16/37/5 18/38/5 14/39/5
f 30/40/6 14/41/6 29/42/6
f 31/43/6 15/44/6 32/45/6
f 261/46/6 15/47/6 253/48/6
f 13/49/2 19/50/2 15/51/2
f 15/52/7 255/53/7 253/54/7
f 14/55/1 17/56/1 13/57/1
f 11/58/8 257/59/8 251/60/8
f 9/61/9 24/62/9 11/63/9
f 10/64/10 23/65/10 21/66/10
f 10/67/11 22/68/11 9/69/11
f 257/70/6 28/71/6 259/72/6
f 22/73/6 28/74/6 24/75/6
f 23/76/6 25/77/6 21/78/6
f 21/79/6 27/80/6 22/81/6
f 28/82/12 261/83/12 259/84/12
f 27/85/13 32/86/13 28/87/13
f 25/88/14 30/89/14 29/90/14
f 25/91/15 31/92/15 27/93/15
f 264/94/16 33/95/16 263/96/16
f 34/97/17 35/98/17 33/99/17
f 35/100/18 38/101/18 37/102/18
f 38/103/19 39/104/19 37/105/19
f 40/109/21 41/95/21 39/110/21
f 35/111/22 37/112/22 263/113/22
f 44/102/23 45/114/23 43/101/23
f 45/115/24 48/116/24 47/117/24
f 48/109/25 49/95/25 47/110/25
f 50/97/26 51/118/26 49/119/26
f 51/100/27 54/101/27 53/102/27
f 53/120/28 56/121/28 55/122/28
f 55/110/30 58/126/30 57/95/30
f 58/127/31 43/128/31 57/129/31
f 45/130/32 49/131/32 53/132/32
f 60/102/33 61/114/33 59/101/33
f 61/133/34 64/134/34 63/135/34
f 269/136/35 60/137/35 59/128/35
f 65/138/36 68/139/36 67/140/36
f 68/141/37 69/142/37 67/143/37
f 70/144/38 71/145/38 69/146/38
f 71/146/39 74/147/39 73/145/39
f 74/141/40 75/148/40 73/149/40
f 75/143/41 78/150/41 77/142/41
f 74/151/42 72/152/42 70/153/42
f 77/146/43 80/154/43 79/145/43
f 80/155/44 65/145/44 79/146/44
f 82/142/46 83/140/46 81/138/46
f 84/141/47 85/142/47 83/143/47
f 86/144/48 87/145/48 85/146/48
f 88/159/49 89/145/49 87/146/49
f 90/141/50 91/148/50 89/149/50
f 91/143/51 94/150/51 93/142/51
f 88/152/52 86/153/52 94/160/52
f 94/144/53 95/145/53 93/146/53
f 95/146/54 82/161/54 81/145/54
f 98/142/51 99/163/51 97/150/51
f 100/164/50 101/165/50 99/143/50
f 102/144/49 103/145/49 101/146/49
f 104/159/48 105/145/48 103/146/48
f 105/149/47 108/166/47 107/148/47
f 108/163/46 109/142/46 107/143/46
f 109/146/54 112/154/54 111/145/54
f 112/170/53 97/145/53 111/171/53
f 107/172/3 109/173/3 111/174/3
f 113/150/56 116/143/56 115/163/56
f 116/164/57 117/165/57 115/143/57
f 117/146/38 120/154/38 119/145/38
f 120/159/39 121/145/39 119/146/39
f 122/141/58 123/148/58 121/149/58
f 123/143/59 126/150/59 125/142/59
f 126/144/43 127/145/43 125/146/43
f 128/170/44 113/145/44 127/171/44
f 119/176/4 123/172/4 127/174/4
f 136/195/66 134/196/66 142/197/66
f 142/198/64 143/199/64 141/200/64
f 144/201/67 129/202/67 143/203/67
f 146/207/68 148/208/68 147/209/68
f 148/210/69 149/209/69 147/207/69
f 164/244/74 165/245/74 163/246/74
f 166/247/77 151/202/77 165/203/77
f 157/248/75 161/249/75 165/250/75
f 167/210/78 169/228/78 168/251/78
f 170/210/79 171/209/79 169/207/79
f 185/276/84 194/277/84 186/277/84
f 186/277/84 187/283/84 185/276/84
f 188/247/87 173/202/87 187/203/87
f 179/284/85 183/285/85 187/286/85
f 189/210/88 191/228/88 190/251/88
f 192/210/89 193/209/89 191/287/89
f 206/312/94 216/313/94 214/312/94
f 204/317/94 202/318/94 200/319/94
f 208/320/95 209/321/95 207/322/95
f 210/247/96 195/202/96 209/203/96
f 211/210/98 213/228/98 212/251/98
f 214/324/99 215/325/99 213/326/99
f 206/312/94 211/317/94 204/317/94
f 64/405/106 267/406/106 63/119/106
f 61/407/107 267/408/107 269/409/107
f 41/410/108 266/411/108 265/412/108
f 26/413/109 262/414/109 30/415/109
f 258/416/6 26/417/6 23/418/6
f 256/419/6 255/420/6 18/421/6
f 262/422/6 16/423/6 30/424/6
f 254/425/4 20/426/4 16/427/4
f 12/428/110 258/429/110 23/430/110
f 29/25/6 14/465/6 13/26/6
f 16/37/5 20/466/5 18/38/5
f 30/40/6 16/467/6 14/41/6
f 31/43/6 13/468/6 15/44/6
f 261/46/6 32/469/6 15/47/6
f 13/49/2 17/470/2 19/50/2
f 15/52/7 19/471/7 255/53/7
f 14/55/1 18/472/1 17/56/1
f 11/58/8 24/473/8 257/59/8
f 9/61/9 22/474/9 24/62/9
f 10/64/10 12/475/10 23/65/10
f 10/67/11 21/476/11 22/68/11
f 257/70/6 24/477/6 28/71/6
f 22/73/6 27/478/6 28/74/6
f 23/76/6 26/479/6 25/77/6
f 21/79/6 25/480/6 27/80/6
f 28/82/12 32/481/12 261/83/12
f 27/85/13 31/482/13 32/86/13
f 25/88/14 26/483/14 30/89/14
f 25/91/15 29/484/15 31/92/15
f 264/94/16 34/126/16 33/95/16
f 34/97/17 36/485/17 35/98/17
f 35/100/18 36/114/18 38/101/18
f 38/103/19 40/486/19 39/104/19
f 40/109/21 42/126/21 41/95/21
f 41/491/22 265/492/22 39/493/22
f 265/492/22 263/113/22 37/112/22
f 39/493/22 265/492/22 37/112/22
f 263/113/112 33/494/112 35/111/112
f 44/102/23 46/100/23 45/114/23
f 45/115/24 46/495/24 48/116/24
f 48/109/25 50/126/25 49/95/25
f 50/97/26 52/496/26 51/118/26
f 51/100/27 52/114/27 54/101/27
f 53/120/28 54/497/28 56/121/28
f 55/110/30 56/109/30 58/126/30
f 58/127/31 44/137/31 43/128/31
f 57/503/32 43/504/32 45/130/32
f 45/130/32 47/505/32 49/131/32
f 49/131/32 51/506/32 53/132/32
f 53/132/32 55/507/32 57/503/32
f 57/503/32 45/130/32 53/132/32
f 60/102/33 62/100/33 61/114/33
f 61/133/34 62/508/34 64/134/34
f 269/136/35 270/509/35 60/137/35
f 65/138/36 66/142/36 68/139/36
f 68/141/37 70/166/37 69/142/37
f 70/144/38 72/154/38 71/145/38
f 71/146/39 72/159/39 74/147/39
f 74/141/40 76/166/40 75/148/40
f 75/143/41 76/163/41 78/150/41
f 70/153/42 68/510/42 66/511/42
f 66/511/42 80/512/42 70/153/42
f 80/512/42 78/160/42 70/153/42
f 78/160/42 76/513/42 70/153/42
f 76/513/42 74/151/42 70/153/42
f 77/146/43 78/144/43 80/154/43
f 80/155/44 66/161/44 65/145/44
f 82/142/46 84/139/46 83/140/46
f 84/141/47 86/166/47 85/142/47
f 86/144/48 88/154/48 87/145/48
f 88/159/49 90/147/49 89/145/49
f 90/141/50 92/166/50 91/148/50
f 91/143/51 92/163/51 94/150/51
f 86/153/52 84/510/52 82/511/52
f 82/511/52 96/512/52 86/153/52
f 96/512/52 94/160/52 86/153/52
f 94/160/52 92/513/52 90/151/52
f 90/151/52 88/152/52 94/160/52
f 94/144/53 96/154/53 95/145/53
f 95/146/54 96/155/54 82/161/54
f 98/142/51 100/143/51 99/163/51
f 100/164/50 102/518/50 101/165/50
f 102/144/49 104/154/49 103/145/49
f 104/159/48 106/147/48 105/145/48
f 105/149/47 106/141/47 108/166/47
f 108/163/46 110/150/46 109/142/46
f 109/146/54 110/144/54 112/154/54
f 112/170/53 98/147/53 97/145/53
f 111/174/3 97/523/3 99/524/3
f 99/524/3 101/525/3 111/174/3
f 101/525/3 103/176/3 111/174/3
f 103/176/3 105/526/3 111/174/3
f 105/526/3 107/172/3 111/174/3
f 113/150/56 114/142/56 116/143/56
f 116/164/57 118/518/57 117/165/57
f 117/146/38 118/144/38 120/154/38
f 120/159/39 122/147/39 121/145/39
f 122/141/58 124/166/58 123/148/58
f 123/143/59 124/163/59 126/150/59
f 126/144/43 128/154/43 127/145/43
f 128/170/44 114/147/44 113/145/44
f 127/174/4 113/523/4 115/524/4
f 115/524/4 117/525/4 127/174/4
f 117/525/4 119/176/4 127/174/4
f 119/176/4 121/526/4 123/172/4
f 123/172/4 125/527/4 127/174/4
f 134/196/66 132/534/66 130/535/66
f 130/535/66 144/536/66 134/196/66
f 144/536/66 142/197/66 134/196/66
f 142/197/66 140/537/66 138/538/66
f 138/538/66 136/195/66 142/197/66
f 142/198/64 144/539/64 143/199/64
f 144/201/67 130/540/67 129/202/67
f 146/207/68 145/545/68 148/208/68
f 148/210/69 150/227/69 149/209/69
f 164/244/74 166/559/74 165/245/74
f 166/247/77 152/540/77 151/202/77
f 165/250/75 151/560/75 153/561/75
f 153/561/75 155/562/75 157/248/75
f 157/248/75 159/563/75 161/249/75
f 161/249/75 163/564/75 165/250/75
f 165/250/75 153/561/75 157/248/75
f 167/210/78 170/227/78 169/228/78
f 170/210/79 172/227/79 171/209/79
f 185/276/84 193/276/84 194/277/84
f 186/277/84 188/574/84 187/283/84
f 188/247/87 174/540/87 173/202/87
f 187/286/85 173/575/85 175/576/85
f 175/576/85 177/577/85 179/284/85
f 179/284/85 181/578/85 183/285/85
f 183/285/85 185/579/85 187/286/85
f 187/286/85 175/576/85 179/284/85
f 189/210/88 192/227/88 191/228/88
f 192/210/89 194/227/89 193/209/89
f 206/312/94 208/313/94 216/313/94
f 200/319/94 198/589/94 196/590/94
f 196/590/94 210/591/94 200/319/94
f 210/591/94 208/313/94 200/319/94
f 208/313/94 206/312/94 200/319/94
f 206/312/94 204/317/94 200/319/94
f 208/320/95 210/592/95 209/321/95
f 210/247/96 196/540/96 195/202/96
f 211/210/98 214/227/98 213/228/98
f 214/324/99 216/593/99 215/325/99
f 206/312/94 214/312/94 211/317/94
f 64/405/106 268/625/106 267/406/106
f 269/409/107 59/626/107 61/407/107
f 61/407/107 63/627/107 267/408/107
f 41/410/108 42/127/108 266/411/108
f 26/413/109 260/628/109 262/414/109
f 258/416/6 260/629/6 26/417/6
f 19/630/6 17/631/6 255/420/6
f 17/631/6 18/421/6 255/420/6
f 18/421/6 20/632/6 256/419/6
f 262/422/6 254/633/6 16/423/6
f 254/425/4 256/634/4 20/426/4
f 12/428/110 252/635/110 258/429/110
usemtl base
f 2/1/1 3/2/1 1/3/1
f 4/4/2 5/5/2 3/6/2
f 259/7/3 253/8/3 260/9/3
f 224/10/3 223/11/3 234/12/3
f 267/13/3 270/14/3 269/15/3
f 249/16/4 8/17/4 7/18/4
f 8/19/5 1/20/5 7/21/5
f 266/22/3 263/23/3 265/24/3
f 8/28/6 10/29/6 2/30/6
f 2/30/6 9/31/6 4/32/6
f 248/33/6 11/34/6 251/35/6
f 6/36/6 9/31/6 11/34/6
f 40/106/20 38/107/20 266/108/20
f 56/123/29 52/124/29 48/125/29
f 129/177/60 132/178/60 131/179/60
f 132/180/61 133/181/61 131/182/61
f 134/183/62 135/184/62 133/185/62
f 136/186/63 137/187/63 135/188/63
f 141/189/64 150/190/64 142/191/64
f 137/192/65 147/193/65 139/194/65
f 139/211/65 149/212/65 141/213/65
f 140/214/66 145/215/66 138/216/66
f 138/217/62 146/218/62 137/219/62
f 140/220/66 150/221/66 148/222/66
f 152/223/70 153/224/70 151/225/70
f 153/226/71 156/227/71 155/228/71
f 155/229/72 158/230/72 157/231/72
f 158/232/73 159/233/73 157/234/73
f 163/235/74 172/236/74 164/237/74
f 161/238/75 168/239/75 169/240/75
f 161/252/75 171/253/75 163/254/75
f 162/255/76 167/256/76 160/257/76
f 159/258/72 167/259/72 168/260/72
f 162/261/76 172/262/76 170/263/76
f 174/264/80 175/265/80 173/266/80
f 176/267/81 177/268/81 175/269/81
f 178/270/82 179/271/82 177/272/82
f 180/273/83 181/274/83 179/275/83
f 183/278/85 190/279/85 191/280/85
f 183/288/85 193/289/85 185/290/85
f 184/291/86 189/292/86 182/293/86
f 181/294/82 189/295/82 190/296/82
f 184/297/86 194/298/86 192/299/86
f 195/300/90 198/301/90 197/302/90
f 197/303/91 200/304/91 199/305/91
f 200/306/92 201/307/92 199/308/92
f 202/309/93 203/310/93 201/311/93
f 204/314/92 212/315/92 203/316/92
f 203/327/97 213/328/97 205/329/97
f 208/330/95 215/331/95 216/332/95
f 205/333/97 215/334/97 207/335/97
f 228/336/2 226/337/2 225/338/2
f 232/339/5 230/340/5 229/341/5
f 225/342/100 220/343/100 228/344/100
f 222/345/101 227/346/101 221/347/101
f 222/348/6 224/349/6 218/350/6
f 221/351/102 237/352/102 235/353/102
f 229/354/103 221/355/103 232/356/103
f 219/357/104 231/358/104 217/359/104
f 229/360/6 230/361/6 219/362/6
f 231/363/102 238/364/102 239/365/102
f 238/366/5 246/367/5 239/368/5
f 239/369/104 240/370/104 233/371/104
f 228/372/102 237/373/102 227/374/102
f 217/375/102 239/376/102 233/377/102
f 220/378/102 236/379/102 228/380/102
f 221/381/102 238/382/102 232/383/102
f 244/384/102 243/385/102 241/386/102
f 242/387/102 223/388/102 240/389/102
f 236/390/2 244/391/2 237/392/2
f 234/393/100 243/394/100 236/395/100
f 235/396/103 245/397/103 238/398/103
f 237/399/101 242/400/101 235/401/101
f 268/402/105 62/403/105 270/404/105
f 250/431/6 12/432/6 8/28/6
f 5/433/7 248/434/7 247/435/7
f 247/436/102 249/437/102 3/438/102
f 2/1/1 4/439/1 3/2/1
f 4/4/2 6/440/2 5/5/2
f 254/441/3 262/442/3 260/9/3
f 260/9/3 258/443/3 252/444/3
f 252/444/3 250/445/3 249/446/3
f 249/446/3 247/447/3 251/448/3
f 247/447/3 248/449/3 251/448/3
f 251/448/3 257/450/3 259/7/3
f 252/444/3 249/446/3 251/448/3
f 259/7/3 261/451/3 253/8/3
f 252/444/3 251/448/3 259/7/3
f 256/452/3 254/441/3 255/453/3
f 254/441/3 260/9/3 253/8/3
f 255/453/3 254/441/3 253/8/3
f 260/9/3 252/444/3 259/7/3
f 220/454/3 218/455/3 234/12/3
f 218/455/3 224/10/3 234/12/3
f 224/10/3 219/456/3 233/457/3
f 219/456/3 217/458/3 233/457/3
f 233/457/3 240/459/3 223/11/3
f 223/11/3 241/460/3 234/12/3
f 224/10/3 233/457/3 223/11/3
f 267/13/3 268/461/3 270/14/3
f 249/16/4 250/462/4 8/17/4
f 8/19/5 2/463/5 1/20/5
f 266/22/3 264/464/3 263/23/3
f 8/28/6 12/432/6 10/29/6
f 2/30/6 10/29/6 9/31/6
f 248/33/6 6/36/6 11/34/6
f 6/36/6 4/32/6 9/31/6
f 34/487/111 264/488/111 36/489/111
f 264/488/20 266/108/20 38/107/20
f 36/489/20 264/488/20 38/107/20
f 266/108/111 42/490/111 40/106/111
f 48/125/29 46/498/29 44/499/29
f 44/499/29 58/500/29 48/125/29
f 58/500/29 56/123/29 48/125/29
f 56/123/29 54/501/29 52/124/29
f 52/124/29 50/502/29 48/125/29
f 129/177/60 130/528/60 132/178/60
f 132/180/61 134/529/61 133/181/61
f 134/183/62 136/530/62 135/184/62
f 136/186/63 138/531/63 137/187/63
f 141/189/64 149/532/64 150/190/64
f 137/192/65 146/533/65 147/193/65
f 139/211/65 147/546/65 149/212/65
f 140/214/66 148/547/66 145/215/66
f 138/217/62 145/548/62 146/218/62
f 140/220/66 142/549/66 150/221/66
f 152/223/70 154/550/70 153/224/70
f 153/226/71 154/551/71 156/227/71
f 155/229/72 156/552/72 158/230/72
f 158/232/73 160/553/73 159/233/73
f 163/235/74 171/554/74 172/236/74
f 161/238/75 159/555/75 168/239/75
f 161/252/75 169/565/75 171/253/75
f 162/255/76 170/566/76 167/256/76
f 159/258/72 160/567/72 167/259/72
f 162/261/76 164/568/76 172/262/76
f 174/264/80 176/569/80 175/265/80
f 176/267/81 178/570/81 177/268/81
f 178/270/82 180/571/82 179/271/82
f 180/273/83 182/572/83 181/274/83
f 183/278/85 181/573/85 190/279/85
f 183/288/85 191/580/85 193/289/85
f 184/291/86 192/581/86 189/292/86
f 181/294/82 182/582/82 189/295/82
f 184/297/86 186/583/86 194/298/86
f 195/300/90 196/584/90 198/301/90
f 197/303/91 198/585/91 200/304/91
f 200/306/92 202/586/92 201/307/92
f 202/309/93 204/587/93 203/310/93
f 204/314/92 211/588/92 212/315/92
f 203/327/97 212/594/97 213/328/97
f 208/330/95 207/595/95 215/331/95
f 205/333/97 213/596/97 215/334/97
f 228/336/2 227/597/2 226/337/2
f 232/339/5 231/598/5 230/340/5
f 225/342/100 218/599/100 220/343/100
f 222/345/101 226/600/101 227/346/101
f 218/350/6 225/601/6 226/602/6
f 226/602/6 222/348/6 218/350/6
f 221/351/102 227/603/102 237/352/102
f 229/354/103 222/604/103 221/355/103
f 219/357/104 230/605/104 231/358/104
f 224/606/6 222/607/6 219/362/6
f 222/607/6 229/360/6 219/362/6
f 231/363/102 232/608/102 238/364/102
f 238/366/5 245/609/5 246/367/5
f 239/369/104 246/610/104 240/370/104
f 228/372/102 236/611/102 237/373/102
f 217/375/102 231/612/102 239/376/102
f 220/378/102 234/613/102 236/379/102
f 221/381/102 235/614/102 238/382/102
f 223/615/102 242/616/102 241/386/102
f 242/616/102 244/384/102 241/386/102
f 240/389/102 246/617/102 245/618/102
f 245/618/102 242/387/102 240/389/102
f 236/390/2 243/619/2 244/391/2
f 234/393/100 241/620/100 243/394/100
f 235/396/103 242/621/103 245/397/103
f 237/399/101 244/622/101 242/400/101
f 64/623/113 62/403/113 268/402/113
f 62/403/113 60/624/113 270/404/113
f 250/431/6 252/636/6 12/432/6
f 5/433/7 6/637/7 248/434/7
f 7/638/102 1/639/102 249/437/102
f 1/639/102 3/438/102 249/437/102
f 3/438/102 5/640/102 247/436/102
usemtl volute
f 77/156/45 79/157/45 71/158/45
f 95/157/55 83/162/55 87/158/55
f 104/167/1 102/168/1 110/169/1
f 126/169/7 122/175/7 118/168/7
f 141/204/65 143/205/65 135/206/65
f 160/241/76 158/242/76 156/243/76
f 178/243/86 174/281/86 186/282/86
f 201/206/97 205/323/97 209/205/97
f 79/157/45 65/514/45 67/162/45
f 67/162/45 69/515/45 79/157/45
f 69/515/45 71/158/45 79/157/45
f 71/158/45 73/516/45 75/517/45
f 75/517/45 77/156/45 71/158/45
f 95/157/55 81/514/55 83/162/55
f 83/162/55 85/515/55 87/158/55
f 87/158/55 89/516/55 91/517/55
f 91/517/55 93/156/55 87/158/55
f 93/156/55 95/157/55 87/158/55
f 102/168/1 100/519/1 98/520/1
f 98/520/1 112/521/1 102/168/1
f 112/521/1 110/169/1 102/168/1
f 110/169/1 108/522/1 106/175/1
f 106/175/1 104/167/1 110/169/1
f 118/168/7 116/519/7 114/520/7
f 114/520/7 128/521/7 118/168/7
f 128/521/7 126/169/7 118/168/7
f 126/169/7 124/522/7 122/175/7
f 122/175/7 120/167/7 118/168/7
f 143/205/65 129/541/65 131/542/65
f 131/542/65 133/543/65 143/205/65
f 133/543/65 135/206/65 143/205/65
f 135/206/65 137/544/65 139/323/65
f 139/323/65 141/204/65 135/206/65
f 156/243/76 154/556/76 164/282/76
f 154/556/76 152/281/76 164/282/76
f 152/281/76 166/557/76 164/282/76
f 164/282/76 162/558/76 156/243/76
f 162/558/76 160/241/76 156/243/76
f 178/243/86 176/556/86 174/281/86
f 174/281/86 188/557/86 186/282/86
f 186/282/86 184/558/86 182/241/86
f 182/241/86 180/242/86 186/282/86
f 180/242/86 178/243/86 186/282/86
f 209/205/97 195/541/97 201/206/97
f 195/541/97 197/542/97 201/206/97
f 197/542/97 199/543/97 201/206/97
f 201/206/97 203/544/97 205/323/97
f 205/323/97 207/204/97 209/205/97
