# Blender 5.1.2
# www.blender.org
mtllib small_ionic_half_base.mtl
o ionic_base_small
v 0.313604 0.300000 0.550000
v 0.313604 0.400000 0.550000
v 0.686396 0.300000 0.550000
v 0.686396 0.400000 0.550000
v 0.950000 0.300000 0.813604
v 0.950000 0.400000 0.813604
v 0.050000 0.300000 0.813604
v 0.050000 0.400000 0.813604
v 0.292892 0.000000 0.499996
v 0.292892 0.100000 0.499996
v 0.707108 0.000000 0.499996
v 0.707108 0.100000 0.499996
v 1.000004 0.000000 0.792892
v 1.000004 0.100000 0.792892
v -0.000004 0.000000 0.792892
v -0.000004 0.100000 0.792892
v 0.313604 0.200000 0.550000
v 0.313604 0.300000 0.550000
v 0.686396 0.200000 0.550000
v 0.686396 0.300000 0.550000
v 0.950000 0.200000 0.813604
v 0.950000 0.300000 0.813604
v 0.050000 0.200000 0.813604
v 0.050000 0.300000 0.813604
v 0.334315 0.100000 0.600000
v 0.334315 0.200000 0.600000
v 0.665685 0.100000 0.600000
v 0.665685 0.200000 0.600000
v 0.900000 0.100000 0.834315
v 0.900000 0.200000 0.834315
v 0.100000 0.100000 0.834315
v 0.100000 0.200000 0.834315
v 0.950000 0.300000 1.000297
v 0.950000 0.400000 1.000297
v 0.050000 0.300000 1.002232
v 0.050000 0.400000 1.002232
v 1.000004 0.000000 1.000189
v 1.000004 0.100000 1.000189
v -0.000004 0.000000 1.002340
v -0.000004 0.100000 1.002340
v 0.950000 0.200000 1.000297
v 0.950000 0.300000 1.000297
v 0.050000 0.200000 1.002232
v 0.050000 0.300000 1.002232
v 0.900000 0.100000 1.000404
v 0.900000 0.200000 1.000404
v 0.100000 0.100000 1.002125
v 0.100000 0.200000 1.002125
v 0.126351 0.400000 1.002068
v 0.872600 0.400000 1.000463
v 0.496931 0.400000 1.001271
v 0.084890 0.100000 1.002157
v 0.914062 0.100000 1.000374
v 0.496931 0.100000 1.001271
v 0.503037 0.200000 1.001258
v 0.503037 0.000000 1.001258
v 0.793529 0.000000 1.000633
v 0.914371 0.000000 1.000373
v 0.208995 0.000000 1.001890
v 0.086675 0.000000 1.002153
vn -0.0000 -0.0000 -1.0000
vn 0.7071 -0.0000 -0.7071
vn -0.0000 1.0000 -0.0000
vn -1.0000 -0.0000 -0.0000
vn -0.7071 -0.0000 -0.7071
vn -0.0000 -1.0000 -0.0000
vn 1.0000 -0.0000 -0.0000
vn 0.0022 -0.0000 1.0000
vt 0.875000 0.375000
vt 0.875000 0.468750
vt 0.500000 0.468750
vt 0.500000 0.375000
vt 0.375000 0.875000
vt 0.375000 0.968750
vt 0.000000 0.968750
vt 0.000000 0.875000
vt 0.497017 0.498721
vt 0.864095 0.503987
vt 0.937500 0.687500
vt 0.814745 0.625000
vt 0.814745 0.718750
vt 0.625000 0.718750
vt 0.625000 0.625000
vt 0.500000 0.250000
vt 0.500000 0.343750
vt 0.125000 0.343750
vt 0.125000 0.250000
vt 0.497847 0.086761
vt 0.497661 0.000100
vt 0.707065 0.000100
vt 0.625000 0.125000
vt 0.625000 0.218750
vt 0.250000 0.218750
vt 0.250000 0.125000
vt 1.000000 0.000000
vt 1.000000 0.093750
vt 0.625000 0.093750
vt 0.625000 0.000000
vt 0.496931 0.498849
vt 0.908306 0.485772
vt 1.000000 0.687500
vt 0.189618 0.750000
vt 0.189618 0.843750
vt 0.000000 0.843750
vt 0.000000 0.750000
vt 0.625000 0.375000
vt 0.625000 0.468750
vt 0.250000 0.468750
vt 0.250000 0.375000
vt 0.250000 0.718750
vt 0.250000 0.625000
vt 0.439745 0.625000
vt 0.439745 0.718750
vt 0.500000 0.875000
vt 0.500000 0.968750
vt 0.125000 0.968750
vt 0.125000 0.875000
vt 0.937500 0.497755
vt 0.497047 0.498735
vt 0.562500 0.812500
vt 0.562500 0.915000
vt 0.250000 0.915000
vt 0.250000 0.812500
vt 0.937500 0.312500
vt 0.937500 0.415000
vt 0.625000 0.415000
vt 0.625000 0.312500
vt 0.283254 0.687500
vt 0.283254 0.790000
vt 0.125000 0.790000
vt 0.125000 0.687500
vt 0.937500 0.187500
vt 0.937500 0.290000
vt 0.625000 0.290000
vt 0.625000 0.187500
vt 0.687500 0.937500
vt 0.312500 0.937500
vt 0.937500 0.499701
vt 0.687500 1.000000
vt 0.312500 1.000000
vt 1.000000 0.499829
vt 0.312500 0.937500
vt 0.062500 0.687500
vt 0.498742 0.503036
vt 0.498110 0.209055
vt 0.999900 0.292935
vt 0.999900 0.707065
vt 0.499627 0.914285
vt 0.499367 0.793468
vt 0.090576 0.511767
vt 0.134911 0.493527
vt 0.437500 0.687500
vt 0.437500 0.790000
vt 0.280869 0.790000
vt 0.280869 0.687500
vt 1.000000 0.500000
vt 1.000000 0.593750
vt 0.812201 0.593750
vt 0.812201 0.500000
vt 0.062500 0.499701
vt 0.000000 0.687500
vt 0.000000 0.497882
vt 0.750000 0.000000
vt 0.750000 0.093750
vt 0.562329 0.093750
vt 0.562329 0.000000
vt 0.707065 0.999900
vt 0.499811 0.999900
vt 0.062500 0.497755
vt 0.375000 0.375000
vt 0.375000 0.468750
vt 0.187201 0.468750
vt 0.187201 0.375000
vt 0.611137 0.000033
vt 0.611137 0.503374
vt 0.611137 0.999967
vt 0.500033 0.999967
vt 0.500033 0.000033
vt 0.000033 0.999967
vt 0.000033 0.000033
vt 0.111137 0.000033
vt 0.111137 0.999967
vt 0.750035 0.999965
vt 0.750035 0.000035
vt 0.875026 0.000035
vt 0.875026 0.999965
vt 0.250032 0.999968
vt 0.250032 0.000032
vt 0.350024 0.000032
vt 0.350024 0.999968
s 0
usemtl small_ionic_base
f 1/1/1 2/2/1 4/3/1 3/4/1
f 3/5/2 4/6/2 6/7/2 5/8/2
f 51/9/3 50/10/3 6/11/3
f 35/12/4 36/13/4 8/14/4 7/15/4
f 7/16/5 8/17/5 2/18/5 1/19/5
f 60/20/6 39/21/6 15/22/6
f 9/23/1 10/24/1 12/25/1 11/26/1
f 11/27/2 12/28/2 14/29/2 13/30/2
f 54/31/3 53/32/3 14/33/3
f 39/34/4 40/35/4 16/36/4 15/37/4
f 15/1/5 16/2/5 10/3/5 9/4/5
f 17/38/1 18/39/1 20/40/1 19/41/1
f 19/15/2 20/14/2 22/42/2 21/43/2
f 43/44/4 44/45/4 24/42/4 23/43/4
f 23/46/5 24/47/5 18/48/5 17/49/5
f 43/50/6 23/11/6 55/51/6
f 25/52/1 26/53/1 28/54/1 27/55/1
f 27/56/2 28/57/2 30/58/2 29/59/2
f 47/60/4 48/61/4 32/62/4 31/63/4
f 31/64/5 32/65/5 26/66/5 25/67/5
f 6/11/3 4/68/3 2/69/3
f 50/10/3 34/70/3 6/11/3
f 14/33/3 12/71/3 10/72/3
f 53/32/3 38/73/3 14/33/3
f 23/11/6 17/68/6 19/74/6
f 19/74/6 21/75/6 23/11/6
f 56/76/6 59/77/6 15/22/6
f 59/77/6 60/20/6 15/22/6
f 9/78/6 11/79/6 58/80/6 57/81/6
f 15/22/6 9/78/6 57/81/6 56/76/6
f 14/33/3 10/72/3 52/82/3 54/31/3
f 6/11/3 2/69/3 49/83/3 51/9/3
f 29/84/7 30/85/7 46/86/7 45/87/7
f 21/88/7 22/89/7 42/90/7 41/91/7
f 21/75/6 41/92/6 55/51/6 23/11/6
f 10/72/3 16/93/3 40/94/3 52/82/3
f 13/95/7 14/96/7 38/97/7 37/98/7
f 11/79/6 13/99/6 37/100/6 58/80/6
f 2/69/3 8/75/3 36/101/3 49/83/3
f 5/102/7 6/103/7 34/104/7 33/105/7
f 43/106/8 55/107/8 41/108/8 42/109/8 44/110/8
f 35/111/8 33/112/8 34/113/8 36/114/8
f 47/115/8 45/116/8 46/117/8 48/118/8
f 39/119/8 37/120/8 38/121/8 40/122/8
