# Blender 5.1.1
# www.blender.org
mtllib small_ionic_pilaster_base.mtl
o ionic_base_small
v 0.050004 0.300000 0.227519
v 0.050004 0.400000 0.227519
v 0.950004 0.300000 0.227519
v 0.950004 0.400000 0.227519
v 0.000000 0.000000 0.277523
v 0.000000 0.100000 0.277523
v 1.000007 0.000000 0.277523
v 1.000007 0.100000 0.277523
v 0.050004 0.200000 0.227519
v 0.050004 0.300000 0.227519
v 0.950004 0.200000 0.227519
v 0.950004 0.300000 0.227519
v 0.100004 0.100000 0.177519
v 0.100004 0.200000 0.177519
v 0.900004 0.100000 0.177519
v 0.900004 0.200000 0.177519
v 0.050004 0.400000 -0.000000
v 0.950004 0.300000 -0.000000
v -0.000000 0.100000 -0.000000
v 1.000007 0.000000 -0.000000
v 0.050004 0.300000 -0.000000
v 0.950004 0.200000 -0.000000
v 0.100004 0.200000 -0.000000
v 0.900004 0.100000 -0.000000
v 0.050004 0.300000 -0.000000
v 0.950004 0.400000 0.000000
v 0.000000 0.000000 0.000000
v 1.000007 0.100000 -0.000000
v 0.050004 0.200000 -0.000000
v 0.950004 0.300000 0.000000
v 0.100004 0.100000 -0.000000
v 0.900004 0.200000 -0.000000
vn 1.0000 -0.0000 -0.0000
vn -0.0000 -0.0000 1.0000
vn -0.0000 -1.0000 -0.0000
vn -0.0000 1.0000 -0.0000
vn -1.0000 -0.0000 -0.0000
vn -0.0000 -0.0000 -1.0000
vn -0.9923 -0.0000 -0.1242
vn 0.0499 -0.0000 0.9988
vt 0.291874 0.437502
vt 0.191893 0.664979
vt 0.191893 0.437502
vt 0.727601 0.999910
vt 0.627620 0.000090
vt 0.727601 0.000090
vt 0.177194 0.412505
vt 0.277176 0.689977
vt 0.177194 0.689977
vt 0.348768 0.050084
vt 0.248786 0.949916
vt 0.248786 0.050084
vt 0.191893 0.562497
vt 0.291874 0.335021
vt 0.291874 0.562497
vt 0.759360 0.949916
vt 0.859341 0.050084
vt 0.859341 0.949916
vt 0.800640 0.100074
vt 0.700659 0.899926
vt 0.700659 0.100074
vt 0.211840 0.537502
vt 0.311821 0.360016
vt 0.311821 0.537502
vt 0.281912 0.999911
vt 0.004440 0.000090
vt 0.281912 0.000090
vt 0.460233 0.000089
vt 0.182761 0.999911
vt 0.182761 0.000089
vt 0.311821 0.360016
vt 0.211840 0.537502
vt 0.211840 0.360016
vt 0.327839 0.050084
vt 0.100362 0.949916
vt 0.100362 0.050084
vt 0.191893 0.664979
vt 0.291875 0.437502
vt 0.291875 0.664979
vt 0.277176 0.310023
vt 0.177194 0.587495
vt 0.177194 0.310023
vt 0.106066 0.999911
vt 0.006085 0.000089
vt 0.106066 0.000089
vt 0.125373 0.949916
vt 0.352850 0.050084
vt 0.352850 0.949916
vt 0.269799 0.386240
vt 0.169798 0.613760
vt 0.169798 0.386240
vt 0.017293 0.100074
vt 0.117274 0.899926
vt 0.017293 0.899926
vt 0.010866 0.050096
vt 0.110844 0.949903
vt 0.010866 0.949903
vt 0.291874 0.664979
vt 0.627620 0.999910
vt 0.277176 0.412505
vt 0.348768 0.949916
vt 0.191893 0.335021
vt 0.759360 0.050084
vt 0.800640 0.899926
vt 0.211840 0.360016
vt 0.004440 0.999911
vt 0.460233 0.999911
vt 0.311821 0.537503
vt 0.327838 0.949916
vt 0.191893 0.437502
vt 0.277176 0.587495
vt 0.006085 0.999911
vt 0.125373 0.050084
vt 0.269799 0.613760
vt 0.117274 0.100074
vt 0.110844 0.049996
vt 0.110844 0.050096
vt 0.210823 0.050096
vt 0.210823 0.949903
vt 0.111651 0.950004
s 0
usemtl ionic_base_small
f 26/1/1 3/2/1 18/3/1
f 6/4/2 7/5/2 8/6/2
f 20/7/1 8/8/1 7/9/1
f 9/10/2 12/11/2 10/12/2
f 30/13/1 11/14/1 22/15/1
f 4/16/2 1/17/2 3/18/2
f 13/19/2 16/20/2 14/21/2
f 32/22/1 15/23/1 24/24/1
f 20/25/3 5/26/3 27/27/3
f 6/28/4 28/29/4 19/30/4
f 14/31/5 31/32/5 13/33/5
f 29/34/3 11/35/3 9/36/3
f 10/37/5 29/38/5 9/39/5
f 6/40/5 27/41/5 5/42/5
f 27/43/6 28/44/6 20/45/6
f 26/46/4 2/47/4 4/48/4
f 2/49/5 25/50/5 1/51/5
f 31/52/6 32/53/6 24/54/6
f 29/55/6 18/56/6 22/57/6
f 26/1/1 4/58/1 3/2/1
f 6/4/2 5/59/2 7/5/2
f 20/7/1 28/60/1 8/8/1
f 9/10/2 11/61/2 12/11/2
f 30/13/1 12/62/1 11/14/1
f 4/16/2 2/63/2 1/17/2
f 13/19/2 15/64/2 16/20/2
f 32/22/1 16/65/1 15/23/1
f 20/25/3 7/66/3 5/26/3
f 6/28/4 8/67/4 28/29/4
f 14/31/5 23/68/5 31/32/5
f 29/34/3 22/69/3 11/35/3
f 10/37/5 21/70/5 29/38/5
f 6/40/5 19/71/5 27/41/5
f 27/43/6 19/72/6 28/44/6
f 26/46/4 17/73/4 2/47/4
f 2/49/5 17/74/5 25/50/5
f 31/52/6 23/75/6 32/53/6
f 29/55/7 21/76/7 25/77/7
f 25/77/6 17/78/6 26/79/6
f 29/55/6 25/77/6 18/56/6
f 25/77/6 26/79/6 18/56/6
f 18/56/8 30/80/8 22/57/8
