# Blender 5.1.2
# www.blender.org
mtllib small_greek_corinthian_half_base.mtl
o Cube.286
v 0.313604 0.200000 0.549997
v 0.313604 0.300000 0.549997
v 0.686396 0.200000 0.549997
v 0.686396 0.300000 0.549997
v 0.950000 0.200000 0.813601
v 0.950000 0.300000 0.813601
v 0.050000 0.200000 0.813601
v 0.050000 0.300000 0.813601
v 0.292892 0.000000 0.499994
v 0.292892 0.100000 0.499994
v 0.707108 0.000000 0.499994
v 0.707108 0.100000 0.499994
v 1.000004 0.000000 0.792889
v 1.000004 0.100000 0.792889
v -0.000004 0.000000 0.792889
v -0.000004 0.100000 0.792889
v 0.334315 0.100000 0.599997
v 0.334315 0.200000 0.599997
v 0.665685 0.100000 0.599997
v 0.665685 0.200000 0.599997
v 0.900000 0.100000 0.834312
v 0.900000 0.200000 0.834312
v 0.100000 0.100000 0.834312
v 0.100000 0.200000 0.834312
v 0.950000 0.200000 1.000199
v 0.950000 0.300000 1.000199
v 0.050000 0.200000 1.001557
v 0.050000 0.300000 1.001557
v 1.000004 0.000000 1.000124
v 1.000004 0.100000 1.000124
v -0.000004 0.000000 1.001632
v -0.000004 0.100000 1.001632
v 0.900000 0.100000 1.000275
v 0.900000 0.200000 1.000275
v 0.100000 0.100000 1.001481
v 0.100000 0.200000 1.001481
vn -0.0000 -0.0000 -1.0000
vn 0.7071 -0.0000 -0.7071
vn -1.0000 -0.0000 -0.0000
vn -0.7071 -0.0000 -0.7071
vn -0.0000 1.0000 -0.0000
vn 1.0000 -0.0000 -0.0000
vn -0.0000 -1.0000 -0.0000
vn 0.0015 -0.0000 1.0000
vt 0.049269 0.452566
vt 0.442225 0.547434
vt 0.049269 0.547434
vt 0.424269 0.765066
vt 0.817225 0.859934
vt 0.424269 0.859934
vt 0.244103 0.452566
vt 0.244103 0.547434
vt 0.486769 0.140066
vt 0.879725 0.234934
vt 0.486769 0.234934
vt 0.278367 0.445605
vt 0.659133 0.554395
vt 0.278367 0.554395
vt 0.015360 0.077566
vt 0.451989 0.172434
vt 0.015360 0.172434
vt 0.606951 0.827566
vt 0.826989 0.922434
vt 0.606951 0.922434
vt 0.452860 0.765066
vt 0.889489 0.859934
vt 0.452860 0.859934
vt 0.211190 0.640067
vt 0.560483 0.734933
vt 0.211190 0.734933
vt 0.211190 0.202567
vt 0.560483 0.297433
vt 0.211190 0.297433
vt 0.759272 0.234933
vt 0.935483 0.140067
vt 0.935483 0.234933
vt 0.586190 0.765067
vt 0.935483 0.859933
vt 0.586190 0.859933
vt 0.498146 0.999900
vt 0.499654 0.000100
vt 0.999900 0.707065
vt 0.398690 0.890067
vt 0.573629 0.984933
vt 0.398690 0.984933
vt 0.999900 0.707065
vt 0.707065 0.999900
vt 0.499654 0.999900
vt 0.498365 0.999994
vt 0.499874 0.000006
vt 0.999994 0.707104
vt 0.452860 0.702566
vt 0.671308 0.797434
vt 0.452860 0.797434
vt 0.999994 0.707104
vt 0.707104 0.999994
vt 0.499874 0.999994
vt 0.498440 0.950006
vt 0.499797 0.049994
vt 0.950006 0.686398
vt 0.361769 0.765066
vt 0.558461 0.859934
vt 0.361769 0.859934
vt 0.499775 0.999900
vt 0.850024 0.999968
vt 0.750032 0.000032
vt 0.850024 0.000032
vt 0.437535 0.000035
vt 0.562526 0.999965
vt 0.437535 0.999965
vt 0.111137 0.999967
vt 0.000033 0.000033
vt 0.111137 0.000033
vt 0.442225 0.452566
vt 0.817225 0.765066
vt 0.879725 0.140066
vt 0.659133 0.445605
vt 0.451989 0.077566
vt 0.826989 0.827566
vt 0.889489 0.765066
vt 0.560483 0.640067
vt 0.560483 0.202567
vt 0.759272 0.140067
vt 0.935483 0.765067
vt 0.707065 0.000100
vt 0.999900 0.292934
vt 0.707065 0.999900
vt 0.573629 0.890067
vt 0.707065 0.000100
vt 0.999900 0.292935
vt 0.498146 0.000100
vt 0.707104 0.000006
vt 0.999994 0.292896
vt 0.707104 0.999994
vt 0.671308 0.702566
vt 0.707104 0.000006
vt 0.999994 0.292896
vt 0.498365 0.000006
vt 0.686399 0.049994
vt 0.950006 0.313601
vt 0.686399 0.950006
vt 0.558461 0.765066
vt 0.498267 0.000100
vt 0.750032 0.999968
vt 0.562526 0.000035
vt 0.000033 0.999967
s 0
usemtl ionic_base
f 2/1/1 3/2/1 1/3/1
f 4/4/2 5/5/2 3/6/2
f 28/7/3 7/2/3 27/8/3
f 8/9/4 1/10/4 7/11/4
f 10/12/1 11/13/1 9/14/1
f 12/15/2 13/16/2 11/17/2
f 32/18/3 15/19/3 31/20/3
f 16/21/4 9/22/4 15/23/4
f 18/24/1 19/25/1 17/26/1
f 20/27/2 21/28/2 19/29/2
f 35/30/3 24/31/3 23/32/3
f 24/33/4 17/34/4 23/35/4
f 36/36/5 34/37/5 18/38/5
f 22/39/6 33/40/6 21/41/6
f 19/42/7 21/43/7 33/44/7
f 32/45/5 30/46/5 10/47/5
f 14/48/6 29/49/6 13/50/6
f 11/51/7 13/52/7 29/53/7
f 28/54/5 26/55/5 2/56/5
f 6/57/6 25/58/6 5/59/6
f 3/42/7 5/43/7 25/60/7
f 29/61/8 32/62/8 31/63/8
f 33/64/8 36/65/8 35/66/8
f 25/67/8 28/68/8 27/69/8
f 2/1/1 4/70/1 3/2/1
f 4/4/2 6/71/2 5/5/2
f 28/7/3 8/70/3 7/2/3
f 8/9/4 2/72/4 1/10/4
f 10/12/1 12/73/1 11/13/1
f 12/15/2 14/74/2 13/16/2
f 32/18/3 16/75/3 15/19/3
f 16/21/4 10/76/4 9/22/4
f 18/24/1 20/77/1 19/25/1
f 20/27/2 22/78/2 21/28/2
f 35/30/3 36/79/3 24/31/3
f 24/33/4 18/80/4 17/34/4
f 22/81/5 20/82/5 34/37/5
f 20/82/5 18/38/5 34/37/5
f 18/38/5 24/83/5 36/36/5
f 22/39/6 34/84/6 33/40/6
f 23/85/7 17/86/7 35/87/7
f 17/86/7 19/42/7 33/44/7
f 35/87/7 17/86/7 33/44/7
f 14/88/5 12/89/5 30/46/5
f 12/89/5 10/47/5 30/46/5
f 10/47/5 16/90/5 32/45/5
f 14/48/6 30/91/6 29/49/6
f 15/92/7 9/93/7 31/94/7
f 9/93/7 11/51/7 29/53/7
f 31/94/7 9/93/7 29/53/7
f 6/95/5 4/96/5 26/55/5
f 4/96/5 2/56/5 26/55/5
f 2/56/5 8/97/5 28/54/5
f 6/57/6 26/98/6 25/58/6
f 7/85/7 1/86/7 27/99/7
f 1/86/7 3/42/7 25/60/7
f 27/99/7 1/86/7 25/60/7
f 29/61/8 30/100/8 32/62/8
f 33/64/8 34/101/8 36/65/8
f 25/67/8 26/102/8 28/68/8
