# Blender 5.1.1
# www.blender.org
mtllib small_roman_corinthian_base.mtl
o Cube.288
v 1.000000 0.100000 -0.000002
v 1.000000 0.000000 -0.000002
v 1.000000 0.100000 0.999998
v 1.000000 0.000000 0.999998
v 0.000000 0.100000 -0.000002
v 0.000000 0.000000 -0.000002
v 0.000000 0.100000 0.999998
v 0.000000 0.000000 0.999998
v 0.334315 0.200000 0.099998
v 0.334315 0.300000 0.099998
v 0.665685 0.200000 0.099998
v 0.665685 0.300000 0.099998
v 0.900000 0.200000 0.334313
v 0.900000 0.300000 0.334313
v 0.900000 0.200000 0.665684
v 0.900000 0.300000 0.665684
v 0.665685 0.200000 0.899998
v 0.665685 0.300000 0.899998
v 0.334315 0.200000 0.899998
v 0.334315 0.300000 0.899998
v 0.100000 0.200000 0.665684
v 0.100000 0.300000 0.665684
v 0.100000 0.200000 0.334313
v 0.100000 0.300000 0.334313
v 0.313604 0.300000 0.049998
v 0.313604 0.400000 0.049998
v 0.686396 0.300000 0.049998
v 0.686396 0.400000 0.049998
v 0.950000 0.300000 0.313602
v 0.950000 0.400000 0.313602
v 0.950000 0.300000 0.686394
v 0.950000 0.400000 0.686394
v 0.686396 0.300000 0.949998
v 0.686396 0.400000 0.949998
v 0.313604 0.300000 0.949998
v 0.313604 0.400000 0.949998
v 0.050000 0.300000 0.686394
v 0.050000 0.400000 0.686394
v 0.050000 0.300000 0.313602
v 0.050000 0.400000 0.313602
v 0.292892 0.100000 -0.000005
v 0.292892 0.200000 -0.000005
v 0.707108 0.100000 -0.000005
v 0.707108 0.200000 -0.000005
v 1.000004 0.100000 0.292890
v 1.000004 0.200000 0.292890
v 1.000004 0.100000 0.707106
v 1.000004 0.200000 0.707106
v 0.707108 0.100000 1.000002
v 0.707108 0.200000 1.000002
v 0.292892 0.100000 1.000002
v 0.292892 0.200000 1.000002
v -0.000004 0.100000 0.707106
v -0.000004 0.200000 0.707106
v -0.000004 0.100000 0.292890
v -0.000004 0.200000 0.292890
vn -0.0000 1.0000 -0.0000
vn -0.0000 -0.0000 1.0000
vn -1.0000 -0.0000 -0.0000
vn -0.0000 -1.0000 -0.0000
vn 1.0000 -0.0000 -0.0000
vn -0.0000 -0.0000 -1.0000
vn 0.7071 -0.0000 -0.7071
vn 0.7071 -0.0000 0.7071
vn -0.7071 -0.0000 0.7071
vn -0.7071 -0.0000 -0.7071
vt 0.000100 0.999900
vt 0.999900 0.000100
vt 0.999900 0.999900
vt 0.000000 0.875000
vt 1.000000 1.000000
vt 0.000000 1.000000
vt 0.000000 0.187500
vt 1.000000 0.312500
vt 0.000000 0.312500
vt 0.000000 0.250000
vt 1.000000 0.375000
vt 0.000000 0.375000
vt -0.000000 0.687500
vt 1.000000 0.812500
vt -0.000000 0.812500
vt 0.262340 0.442436
vt 0.550160 0.557564
vt 0.262340 0.557564
vt 0.012340 0.192436
vt 0.300160 0.307564
vt 0.012340 0.307564
vt 0.512340 0.629936
vt 0.800160 0.745064
vt 0.512340 0.745064
vt 0.012340 0.129936
vt 0.300160 0.245064
vt 0.012340 0.245064
vt 0.512340 0.192436
vt 0.800160 0.307564
vt 0.512340 0.307564
vt 0.074840 0.754936
vt 0.362660 0.870064
vt 0.074840 0.870064
vt 0.292935 0.999900
vt 0.000100 0.292935
vt 0.707065 0.000100
vt 0.637340 0.817436
vt 0.925160 0.932564
vt 0.637340 0.932564
vt 0.292935 0.999900
vt 0.000100 0.292935
vt 0.707065 0.000100
vt 0.443088 0.823398
vt 0.804304 0.926602
vt 0.443088 0.926602
vt 0.068088 0.073398
vt 0.429304 0.176602
vt 0.068088 0.176602
vt 0.630588 0.323398
vt 0.991804 0.426602
vt 0.630588 0.426602
vt 0.005588 0.885898
vt 0.366804 0.989102
vt 0.005588 0.989102
vt 0.318088 0.448398
vt 0.679304 0.551602
vt 0.318088 0.551602
vt 0.255588 0.198398
vt 0.616804 0.301602
vt 0.255588 0.301602
vt 0.313602 0.950006
vt 0.049994 0.313601
vt 0.686399 0.049994
vt 0.505588 0.448398
vt 0.866804 0.551602
vt 0.505588 0.551602
vt 0.005588 0.573398
vt 0.366804 0.676602
vt 0.005588 0.676602
vt 0.292935 0.000100
vt 0.502881 0.139529
vt 0.934619 0.235471
vt 0.502881 0.235471
vt 0.002881 0.452029
vt 0.434619 0.547971
vt 0.002881 0.547971
vt 0.502881 0.764529
vt 0.934619 0.860471
vt 0.502881 0.860471
vt 0.065381 0.327029
vt 0.497119 0.422971
vt 0.065381 0.422971
vt 0.002881 0.014529
vt 0.434619 0.110471
vt 0.002881 0.110471
vt 0.190381 0.389529
vt 0.622119 0.485471
vt 0.190381 0.485471
vt 0.292896 0.999994
vt 0.000006 0.292896
vt 0.707104 0.000006
vt 0.377881 0.702029
vt 0.809619 0.797971
vt 0.377881 0.797971
vt 0.252881 0.702029
vt 0.684619 0.797971
vt 0.252881 0.797971
vt 0.000100 0.000100
vt 1.000000 0.875000
vt 1.000000 0.187500
vt 0.000100 0.000100
vt 1.000000 0.250000
vt 1.000000 0.687500
vt 0.550160 0.442436
vt 0.300160 0.192436
vt 0.800160 0.629936
vt 0.300160 0.129936
vt 0.800160 0.192436
vt 0.362660 0.754936
vt 0.999900 0.292934
vt 0.999900 0.707065
vt 0.707065 0.999900
vt 0.000100 0.707065
vt 0.292935 0.000100
vt 0.925160 0.817436
vt 0.999900 0.292935
vt 0.999900 0.707065
vt 0.707065 0.999900
vt 0.000100 0.707065
vt 0.804304 0.823398
vt 0.429304 0.073398
vt 0.991804 0.323398
vt 0.366804 0.885898
vt 0.679304 0.448398
vt 0.616804 0.198398
vt 0.950006 0.313601
vt 0.950006 0.686398
vt 0.686399 0.950006
vt 0.049994 0.686398
vt 0.313602 0.049994
vt 0.866804 0.448398
vt 0.366804 0.573398
vt 0.934619 0.139529
vt 0.434619 0.452029
vt 0.934619 0.764529
vt 0.497119 0.327029
vt 0.434619 0.014529
vt 0.622119 0.389529
vt 0.999994 0.292896
vt 0.999994 0.707104
vt 0.707104 0.999994
vt 0.000006 0.707104
vt 0.292896 0.000006
vt 0.809619 0.702029
vt 0.684619 0.702029
s 0
usemtl ionic_base
f 5/1/1 3/2/1 1/3/1
f 3/4/2 8/5/2 4/6/2
f 7/7/3 6/8/3 8/9/3
f 2/1/4 8/2/4 6/3/4
f 1/10/5 4/11/5 2/12/5
f 5/13/6 2/14/6 6/15/6
f 10/16/6 11/17/6 9/18/6
f 12/19/7 13/20/7 11/21/7
f 14/22/5 15/23/5 13/24/5
f 16/25/8 17/26/8 15/27/8
f 18/28/2 19/29/2 17/30/2
f 20/31/9 21/32/9 19/33/9
f 22/34/1 18/35/1 14/36/1
f 22/28/3 23/29/3 21/30/3
f 24/37/10 9/38/10 23/39/10
f 15/40/4 19/41/4 23/42/4
f 26/43/6 27/44/6 25/45/6
f 28/46/7 29/47/7 27/48/7
f 30/49/5 31/50/5 29/51/5
f 32/52/8 33/53/8 31/54/8
f 34/55/2 35/56/2 33/57/2
f 36/58/9 37/59/9 35/60/9
f 38/61/1 34/62/1 30/63/1
f 38/64/3 39/65/3 37/66/3
f 40/67/10 25/68/10 39/69/10
f 37/70/4 39/42/4 31/40/4
f 42/71/6 43/72/6 41/73/6
f 44/74/7 45/75/7 43/76/7
f 46/77/5 47/78/5 45/79/5
f 48/80/8 49/81/8 47/82/8
f 50/83/2 51/84/2 49/85/2
f 52/86/9 53/87/9 51/88/9
f 54/89/1 50/90/1 46/91/1
f 54/92/3 55/93/3 53/94/3
f 56/95/10 41/96/10 55/97/10
f 47/40/4 51/41/4 55/42/4
f 5/1/1 7/98/1 3/2/1
f 3/4/2 7/99/2 8/5/2
f 7/7/3 5/100/3 6/8/3
f 2/1/4 4/101/4 8/2/4
f 1/10/5 3/102/5 4/11/5
f 5/13/6 1/103/6 2/14/6
f 10/16/6 12/104/6 11/17/6
f 12/19/7 14/105/7 13/20/7
f 14/22/5 16/106/5 15/23/5
f 16/25/8 18/107/8 17/26/8
f 18/28/2 20/108/2 19/29/2
f 20/31/9 22/109/9 21/32/9
f 14/36/1 12/110/1 10/111/1
f 10/111/1 24/112/1 22/34/1
f 22/34/1 20/113/1 18/35/1
f 18/35/1 16/114/1 14/36/1
f 14/36/1 10/111/1 22/34/1
f 22/28/3 24/108/3 23/29/3
f 24/37/10 10/115/10 9/38/10
f 23/42/4 9/116/4 11/117/4
f 11/117/4 13/118/4 15/40/4
f 15/40/4 17/119/4 19/41/4
f 19/41/4 21/70/4 23/42/4
f 23/42/4 11/117/4 15/40/4
f 26/43/6 28/120/6 27/44/6
f 28/46/7 30/121/7 29/47/7
f 30/49/5 32/122/5 31/50/5
f 32/52/8 34/123/8 33/53/8
f 34/55/2 36/124/2 35/56/2
f 36/58/9 38/125/9 37/59/9
f 30/63/1 28/126/1 26/127/1
f 26/127/1 40/128/1 38/61/1
f 38/61/1 36/129/1 34/62/1
f 34/62/1 32/130/1 30/63/1
f 30/63/1 26/127/1 38/61/1
f 38/64/3 40/131/3 39/65/3
f 40/67/10 26/132/10 25/68/10
f 39/42/4 25/116/4 27/117/4
f 27/117/4 29/118/4 39/42/4
f 29/118/4 31/40/4 39/42/4
f 31/40/4 33/119/4 35/41/4
f 35/41/4 37/70/4 31/40/4
f 42/71/6 44/133/6 43/72/6
f 44/74/7 46/134/7 45/75/7
f 46/77/5 48/135/5 47/78/5
f 48/80/8 50/136/8 49/81/8
f 50/83/2 52/137/2 51/84/2
f 52/86/9 54/138/9 53/87/9
f 46/91/1 44/139/1 42/140/1
f 42/140/1 56/141/1 54/89/1
f 54/89/1 52/142/1 50/90/1
f 50/90/1 48/143/1 46/91/1
f 46/91/1 42/140/1 54/89/1
f 54/92/3 56/144/3 55/93/3
f 56/95/10 42/145/10 41/96/10
f 55/42/4 41/116/4 43/117/4
f 43/117/4 45/118/4 47/40/4
f 47/40/4 49/119/4 51/41/4
f 51/41/4 53/70/4 55/42/4
f 55/42/4 43/117/4 47/40/4
