# Blender 5.1.2
# www.blender.org
mtllib small_tuscan_capital.mtl
o Cube.292
v 0.910477 1.001252 0.089521
v 0.910477 0.901251 0.089521
v 0.910477 1.001252 0.910479
v 0.910477 0.901251 0.910479
v 0.089520 1.001252 0.089521
v 0.089520 0.901251 0.089521
v 0.089520 1.001252 0.910479
v 0.089520 0.901251 0.910479
v 0.346738 0.601252 0.129999
v 0.346738 0.671528 0.129999
v 0.653259 0.601252 0.129999
v 0.653259 0.671528 0.129999
v 0.870001 0.601252 0.346742
v 0.870001 0.671528 0.346742
v 0.870001 0.601252 0.653261
v 0.870001 0.671528 0.653261
v 0.653259 0.601252 0.870004
v 0.653259 0.671528 0.870004
v 0.346738 0.601252 0.870004
v 0.346738 0.671528 0.870004
v 0.129996 0.601252 0.653261
v 0.129996 0.671528 0.653261
v 0.129996 0.601252 0.346742
v 0.129996 0.671528 0.346742
v 0.632388 0.671528 0.180386
v 0.367609 0.671528 0.180386
v 0.819614 0.671528 0.367613
v 0.819614 0.671528 0.632390
v 0.632388 0.671528 0.819617
v 0.367609 0.671528 0.819617
v 0.180383 0.671528 0.632390
v 0.180383 0.671528 0.367613
v 0.632388 0.831528 0.180386
v 0.367609 0.831528 0.180386
v 0.819614 0.831528 0.367613
v 0.819614 0.831528 0.632390
v 0.632388 0.831528 0.819617
v 0.367609 0.831528 0.819617
v 0.180383 0.831528 0.632390
v 0.180383 0.831528 0.367613
v 0.647515 0.831528 0.143865
v 0.352482 0.831528 0.143865
v 0.856135 0.831528 0.352485
v 0.856135 0.831528 0.647518
v 0.647515 0.831528 0.856138
v 0.352482 0.831528 0.856138
v 0.143862 0.831528 0.647518
v 0.143862 0.831528 0.352485
v 0.670024 0.861529 0.089524
v 0.329973 0.861529 0.089524
v 0.910476 0.861529 0.329977
v 0.910476 0.861529 0.670027
v 0.670024 0.861529 0.910479
v 0.329973 0.861529 0.910479
v 0.089521 0.861529 0.670027
v 0.089521 0.861529 0.329977
v 0.089521 0.901345 0.329977
v 0.089521 0.901345 0.670027
v 0.669240 0.901345 0.089523
v 0.329973 0.901391 0.089524
v 0.910477 0.901345 0.329977
v 0.910477 0.901320 0.669439
v 0.670024 0.901345 0.910479
v 0.330561 0.901320 0.910479
vn -0.0000 1.0000 -0.0000
vn -0.0000 -0.0000 1.0000
vn -1.0000 -0.0000 -0.0000
vn 1.0000 -0.0000 -0.0000
vn 0.0006 -1.0000 0.0004
vn -0.0000 -0.0000 -1.0000
vn 0.7071 -0.0000 -0.7071
vn 0.7071 -0.0000 0.7071
vn -0.7071 -0.0000 0.7071
vn -0.7071 -0.0000 -0.7071
vn -0.0000 -1.0000 -0.0000
vn -0.4833 -0.8754 -0.0000
vn -0.0000 -0.8754 0.4833
vn 0.4833 -0.8754 -0.0000
vn -0.0000 -0.8754 -0.4833
vn -0.3418 -0.8754 -0.3418
vn -0.3418 -0.8754 0.3418
vn 0.3418 -0.8754 0.3418
vn 0.3418 -0.8754 -0.3418
vn 0.0003 -1.0000 -0.0004
vn -0.0004 -1.0000 -0.0003
vn -0.0004 -1.0000 0.0004
vn -0.7062 0.0104 0.7079
vn 0.7079 0.0104 0.7062
vn 0.7059 0.0139 -0.7082
vt 0.125000 0.875000
vt 0.875000 0.125000
vt 0.875000 0.875000
vt 0.706027 0.546555
vt 0.292555 0.546533
vt -0.000321 0.456483
vt 0.706027 0.109055
vt 0.292555 0.109033
vt -0.000321 0.018983
vt 0.706027 0.859055
vt 0.292555 0.859033
vt -0.000321 0.768983
vt 0.379772 0.620228
vt 0.379768 0.379772
vt 0.620222 0.379772
vt 0.652011 0.530994
vt 0.287871 0.472107
vt 0.652011 0.472107
vt 0.402011 0.905994
vt 0.037871 0.847107
vt 0.402011 0.847107
vt 0.964511 0.905994
vt 0.600371 0.847107
vt 0.964511 0.847107
vt 0.402011 0.655994
vt 0.037871 0.597107
vt 0.402011 0.597107
vt 0.902011 0.155994
vt 0.537871 0.097107
vt 0.902011 0.097107
vt 0.839511 0.843494
vt 0.475371 0.784607
vt 0.839511 0.784607
vt 0.631673 0.598529
vt 0.679482 0.935180
vt 0.631673 0.961363
vt 0.464511 0.218494
vt 0.100371 0.159607
vt 0.464511 0.159607
vt 0.777011 0.093494
vt 0.412871 0.034607
vt 0.777011 0.034607
vt 0.148931 0.645417
vt 0.148931 0.354583
vt 0.851068 0.645417
vt 0.375000 0.437500
vt 0.062500 0.625000
vt 0.062500 0.437500
vt 0.569173 0.098529
vt 0.616982 0.435180
vt 0.569173 0.461363
vt 0.631673 0.898863
vt 0.679482 0.562212
vt 0.679482 0.872680
vt 0.381673 0.536029
vt 0.429482 0.872680
vt 0.381673 0.898863
vt 0.694173 0.036029
vt 0.741982 0.372680
vt 0.694173 0.398863
vt 0.819173 0.961363
vt 0.866982 0.624712
vt 0.866982 0.935180
vt 0.069173 0.286029
vt 0.116982 0.622680
vt 0.069173 0.648863
vt 0.860254 0.906129
vt 0.825601 0.578042
vt 0.860254 0.592395
vt 0.375000 0.062500
vt 0.062500 0.250000
vt 0.062500 0.062500
vt 0.687500 0.187500
vt 0.375000 0.375000
vt 0.375000 0.187500
vt 0.750000 0.375000
vt 0.437500 0.562500
vt 0.437500 0.375000
vt 0.937500 0.750000
vt 0.625000 0.937500
vt 0.625000 0.750000
vt 1.000000 0.812500
vt 0.687500 1.000000
vt 0.687500 0.812500
vt 0.875000 0.062500
vt 0.562500 0.250000
vt 0.562500 0.062500
vt 0.876861 0.140766
vt 0.934503 0.510439
vt 0.876861 0.484235
vt 0.547754 0.656129
vt 0.513101 0.328042
vt 0.547754 0.342395
vt 0.985254 0.968629
vt 0.950601 0.640542
vt 0.985254 0.654895
vt 0.422754 0.406129
vt 0.388101 0.078042
vt 0.422754 0.092395
vt 0.360254 0.529895
vt 0.325601 0.857982
vt 0.325601 0.515542
vt 0.735254 0.154895
vt 0.700601 0.482982
vt 0.700601 0.140542
vt 0.172754 0.593629
vt 0.138101 0.265542
vt 0.172754 0.279895
vt 0.110254 0.092395
vt 0.075601 0.420482
vt 0.075601 0.078042
vt 0.495580 0.861121
vt 0.879969 0.827778
vt 0.880636 0.861121
vt 0.251861 0.421735
vt 0.309503 0.052061
vt 0.309503 0.447939
vt 0.314361 0.859235
vt 0.372003 0.489561
vt 0.372003 0.885439
vt 0.064361 0.328266
vt 0.122003 0.697939
vt 0.064361 0.671735
vt 0.689361 0.578266
vt 0.747003 0.947939
vt 0.689361 0.921735
vt 0.001861 0.578266
vt 0.059503 0.947939
vt 0.001861 0.921735
vt 0.876861 0.921735
vt 0.934503 0.552061
vt 0.934503 0.947939
vt 0.439361 0.421735
vt 0.497003 0.052061
vt 0.497003 0.447939
vt 0.558080 0.048621
vt 0.942469 0.015278
vt 0.943136 0.048621
vt 0.433080 0.548621
vt 0.817469 0.515278
vt 0.818136 0.548621
vt 0.245580 0.236121
vt 0.629969 0.202778
vt 0.630636 0.236121
vt 0.443136 0.861121
vt 0.058080 0.827757
vt 0.442469 0.827778
vt 0.058080 0.361121
vt 0.442469 0.327778
vt 0.443136 0.361121
vt 0.433080 0.861121
vt 0.817469 0.827778
vt 0.818136 0.861121
vt 0.058080 0.548621
vt 0.442469 0.515278
vt 0.443136 0.548621
vt 0.706994 0.544983
vt 0.293761 0.544941
vt 0.000885 0.454933
vt 0.309926 0.560481
vt 0.069477 0.560186
vt 0.310221 0.319442
vt 0.378557 0.379480
vt 0.619010 0.379481
vt 0.378557 0.620520
vt 0.618608 0.620618
vt 0.378154 0.620618
vt 0.618606 0.379382
vt 0.125000 0.125000
vt -0.000321 0.546617
vt 0.999619 0.456483
vt 0.999619 0.546617
vt -0.000321 0.109117
vt 0.999619 0.018983
vt 0.999619 0.109117
vt -0.000321 0.859117
vt 0.999619 0.768983
vt 0.999619 0.859117
vt 0.287871 0.530994
vt 0.037871 0.905994
vt 0.600371 0.905994
vt 0.037871 0.655994
vt 0.537871 0.155994
vt 0.475371 0.843494
vt 0.679482 0.624712
vt 0.100371 0.218494
vt 0.412871 0.093494
vt 0.354582 0.148931
vt 0.645417 0.148931
vt 0.851068 0.354583
vt 0.645417 0.851069
vt 0.354582 0.851069
vt 0.375000 0.625000
vt 0.616982 0.124712
vt 0.631673 0.536029
vt 0.429482 0.562212
vt 0.741982 0.062212
vt 0.819173 0.598529
vt 0.116982 0.312212
vt 0.825601 0.920482
vt 0.375000 0.250000
vt 0.687500 0.375000
vt 0.750000 0.562500
vt 0.937500 0.937500
vt 1.000000 1.000000
vt 0.875000 0.250000
vt 0.934503 0.114561
vt 0.513101 0.670482
vt 0.950601 0.982982
vt 0.388101 0.420482
vt 0.360254 0.843629
vt 0.735254 0.468629
vt 0.138101 0.607982
vt 0.110254 0.406129
vt 0.495580 0.827757
vt 0.251861 0.078266
vt 0.314361 0.515766
vt 0.122003 0.302061
vt 0.747003 0.552061
vt 0.059503 0.552061
vt 0.876861 0.578266
vt 0.439361 0.078266
vt 0.558080 0.015257
vt 0.433080 0.515257
vt 0.245580 0.202757
vt 0.058080 0.861121
vt 0.058080 0.327757
vt 0.433080 0.827757
vt 0.058080 0.515257
vt 1.000825 0.454933
vt 1.000824 0.545067
vt 0.000885 0.545067
s 0
usemtl ionic_capital
f 5/1/1 3/2/1 1/3/1
f 64/4/2 63/5/2 3/6/2
f 57/7/3 58/8/3 7/9/3
f 62/10/4 61/11/4 1/12/4
f 57/13/5 6/14/5 60/15/5
f 10/16/6 11/17/6 9/18/6
f 12/19/7 13/20/7 11/21/7
f 14/22/4 15/23/4 13/24/4
f 16/25/8 17/26/8 15/27/8
f 18/28/2 19/29/2 17/30/2
f 20/31/9 21/32/9 19/33/9
f 24/34/1 26/35/1 10/36/1
f 22/37/3 23/38/3 21/39/3
f 24/40/10 9/41/10 23/42/10
f 21/43/11 23/44/11 15/45/11
f 29/46/2 38/47/2 30/48/2
f 10/49/1 25/50/1 12/51/1
f 14/49/1 28/50/1 16/51/1
f 22/52/1 30/53/1 31/54/1
f 16/55/1 29/56/1 18/57/1
f 22/58/1 32/59/1 24/60/1
f 14/61/1 25/62/1 27/63/1
f 18/64/1 30/65/1 20/66/1
f 33/67/11 43/68/11 35/69/11
f 27/70/4 36/71/4 28/72/4
f 26/73/6 33/74/6 25/75/6
f 32/76/10 34/77/10 26/78/10
f 30/73/9 39/74/9 31/75/9
f 28/79/8 37/80/8 29/81/8
f 25/82/7 35/83/7 27/84/7
f 31/85/3 40/86/3 32/87/3
f 47/88/12 56/89/12 48/90/12
f 39/91/11 48/92/11 40/93/11
f 37/94/11 46/95/11 38/96/11
f 35/97/11 44/98/11 36/99/11
f 33/100/11 42/101/11 41/102/11
f 34/103/11 48/104/11 42/105/11
f 38/106/11 47/107/11 39/108/11
f 37/109/11 44/110/11 45/111/11
f 55/112/3 57/113/3 56/114/3
f 46/115/13 53/116/13 54/117/13
f 44/118/14 51/119/14 52/120/14
f 42/121/15 49/122/15 41/123/15
f 48/124/16 50/125/16 42/126/16
f 46/127/17 55/128/17 47/129/17
f 45/130/18 52/131/18 53/132/18
f 43/133/19 49/134/19 51/135/19
f 53/136/2 64/137/2 54/138/2
f 51/139/4 62/140/4 52/141/4
f 50/142/6 59/143/6 49/144/6
f 50/145/10 57/146/10 60/147/10
f 54/148/9 58/149/9 55/150/9
f 52/151/8 63/152/8 53/153/8
f 49/154/7 61/155/7 51/156/7
f 59/157/6 60/158/6 5/159/6
f 8/160/20 58/161/20 64/162/20
f 4/163/21 63/164/21 62/165/21
f 2/166/22 61/167/22 59/168/22
f 5/1/1 7/169/1 3/2/1
f 63/5/2 4/170/2 3/6/2
f 3/6/2 7/171/2 64/4/2
f 7/171/2 8/172/2 64/4/2
f 58/8/3 8/173/3 7/9/3
f 7/9/3 5/174/3 57/7/3
f 5/174/3 6/175/3 57/7/3
f 61/11/4 2/176/4 1/12/4
f 1/12/4 3/177/4 62/10/4
f 3/177/4 4/178/4 62/10/4
f 10/16/6 12/179/6 11/17/6
f 12/19/7 14/180/7 13/20/7
f 14/22/4 16/181/4 15/23/4
f 16/25/8 18/182/8 17/26/8
f 18/28/2 20/183/2 19/29/2
f 20/31/9 22/184/9 21/32/9
f 24/34/1 32/185/1 26/35/1
f 22/37/3 24/186/3 23/38/3
f 24/40/10 10/187/10 9/41/10
f 23/44/11 9/188/11 11/189/11
f 11/189/11 13/190/11 23/44/11
f 13/190/11 15/45/11 23/44/11
f 15/45/11 17/191/11 19/192/11
f 19/192/11 21/43/11 15/45/11
f 29/46/2 37/193/2 38/47/2
f 10/49/1 26/194/1 25/50/1
f 14/49/1 27/194/1 28/50/1
f 22/52/1 20/195/1 30/53/1
f 16/55/1 28/196/1 29/56/1
f 22/58/1 31/197/1 32/59/1
f 14/61/1 12/198/1 25/62/1
f 18/64/1 29/199/1 30/65/1
f 33/67/11 41/200/11 43/68/11
f 27/70/4 35/201/4 36/71/4
f 26/73/6 34/202/6 33/74/6
f 32/76/10 40/203/10 34/77/10
f 30/73/9 38/202/9 39/74/9
f 28/79/8 36/204/8 37/80/8
f 25/82/7 33/205/7 35/83/7
f 31/85/3 39/206/3 40/86/3
f 47/88/12 55/207/12 56/89/12
f 39/91/11 47/208/11 48/92/11
f 37/94/11 45/209/11 46/95/11
f 35/97/11 43/210/11 44/98/11
f 33/100/11 34/211/11 42/101/11
f 34/103/11 40/212/11 48/104/11
f 38/106/11 46/213/11 47/107/11
f 37/109/11 36/214/11 44/110/11
f 55/112/3 58/215/3 57/113/3
f 46/115/13 45/216/13 53/116/13
f 44/118/14 43/217/14 51/119/14
f 42/121/15 50/218/15 49/122/15
f 48/124/16 56/219/16 50/125/16
f 46/127/17 54/220/17 55/128/17
f 45/130/18 44/221/18 52/131/18
f 43/133/19 41/222/19 49/134/19
f 53/136/2 63/223/2 64/137/2
f 51/139/4 61/224/4 62/140/4
f 50/142/6 60/225/6 59/143/6
f 50/145/10 56/226/10 57/146/10
f 54/148/23 64/227/23 58/149/23
f 52/151/24 62/228/24 63/152/24
f 49/154/25 59/229/25 61/155/25
f 1/230/6 2/231/6 59/157/6
f 60/158/6 6/232/6 5/159/6
f 1/230/6 59/157/6 5/159/6
