# Blender 5.1.1
# www.blender.org
mtllib small_greek_corinthian_base.mtl
o Cube.286
v 0.313604 0.200000 0.049997
v 0.313604 0.300000 0.049997
v 0.686396 0.200000 0.049997
v 0.686396 0.300000 0.049997
v 0.950000 0.200000 0.313601
v 0.950000 0.300000 0.313601
v 0.950000 0.200000 0.686393
v 0.950000 0.300000 0.686393
v 0.686396 0.200000 0.949997
v 0.686396 0.300000 0.949997
v 0.313604 0.200000 0.949997
v 0.313604 0.300000 0.949997
v 0.050000 0.200000 0.686393
v 0.050000 0.300000 0.686393
v 0.050000 0.200000 0.313601
v 0.050000 0.300000 0.313601
v 0.292892 0.000000 -0.000006
v 0.292892 0.100000 -0.000006
v 0.707108 0.000000 -0.000006
v 0.707108 0.100000 -0.000006
v 1.000004 0.000000 0.292889
v 1.000004 0.100000 0.292889
v 1.000004 0.000000 0.707106
v 1.000004 0.100000 0.707106
v 0.707108 0.000000 1.000001
v 0.707108 0.100000 1.000001
v 0.292892 0.000000 1.000001
v 0.292892 0.100000 1.000001
v -0.000004 0.000000 0.707106
v -0.000004 0.100000 0.707106
v -0.000004 0.000000 0.292889
v -0.000004 0.100000 0.292889
v 0.334315 0.100000 0.099997
v 0.334315 0.200000 0.099997
v 0.665685 0.100000 0.099997
v 0.665685 0.200000 0.099997
v 0.900000 0.100000 0.334312
v 0.900000 0.200000 0.334312
v 0.900000 0.100000 0.665683
v 0.900000 0.200000 0.665683
v 0.665685 0.100000 0.899997
v 0.665685 0.200000 0.899997
v 0.334315 0.100000 0.899997
v 0.334315 0.200000 0.899997
v 0.100000 0.100000 0.665683
v 0.100000 0.200000 0.665683
v 0.100000 0.100000 0.334312
v 0.100000 0.200000 0.334312
vn -0.0000 -0.0000 -1.0000
vn 0.7071 -0.0000 -0.7071
vn 1.0000 -0.0000 -0.0000
vn 0.7071 -0.0000 0.7071
vn -0.0000 -0.0000 1.0000
vn -0.7071 -0.0000 0.7071
vn -0.0000 1.0000 -0.0000
vn -1.0000 -0.0000 -0.0000
vn -0.7071 -0.0000 -0.7071
vn -0.0000 -1.0000 -0.0000
vt 0.049269 0.452566
vt 0.442225 0.547434
vt 0.049269 0.547434
vt 0.424269 0.765066
vt 0.817225 0.859934
vt 0.424269 0.859934
vt 0.361769 0.765066
vt 0.754725 0.859934
vt 0.361769 0.859934
vt 0.049269 0.140066
vt 0.442225 0.234934
vt 0.049269 0.234934
vt 0.549269 0.765066
vt 0.942225 0.859934
vt 0.549269 0.859934
vt 0.361769 0.140066
vt 0.754725 0.234934
vt 0.361769 0.234934
vt 0.313602 0.950006
vt 0.049994 0.313601
vt 0.686399 0.049994
vt 0.486769 0.140066
vt 0.879725 0.234934
vt 0.486769 0.234934
vt 0.292935 0.999900
vt 0.000100 0.292935
vt 0.707065 0.000100
vt 0.278367 0.445605
vt 0.659133 0.554395
vt 0.278367 0.554395
vt 0.015360 0.077566
vt 0.451989 0.172434
vt 0.015360 0.172434
vt 0.452860 0.702566
vt 0.889489 0.797434
vt 0.452860 0.797434
vt 0.077860 0.140066
vt 0.514489 0.234934
vt 0.077860 0.234934
vt 0.202860 0.890066
vt 0.639489 0.984934
vt 0.202860 0.984934
vt 0.515360 0.202566
vt 0.951989 0.297434
vt 0.515360 0.297434
vt 0.292896 0.000006
vt 0.707104 0.000006
vt 0.292896 0.999994
vt 0.390360 0.827566
vt 0.826989 0.922434
vt 0.390360 0.922434
vt 0.452860 0.765066
vt 0.889489 0.859934
vt 0.452860 0.859934
vt 0.000006 0.292896
vt 0.292896 0.000006
vt 0.707104 0.000006
vt 0.211190 0.640067
vt 0.560483 0.734933
vt 0.211190 0.734933
vt 0.211190 0.202567
vt 0.560483 0.297433
vt 0.211190 0.297433
vt 0.398690 0.890067
vt 0.747983 0.984933
vt 0.398690 0.984933
vt 0.086190 0.077567
vt 0.435483 0.172433
vt 0.086190 0.172433
vt 0.211190 0.390067
vt 0.560483 0.484933
vt 0.211190 0.484933
vt 0.023690 0.765067
vt 0.372983 0.859933
vt 0.023690 0.859933
vt 0.292935 0.999900
vt 0.000100 0.292935
vt 0.707065 0.000100
vt 0.586190 0.140067
vt 0.935483 0.234933
vt 0.586190 0.234933
vt 0.586190 0.765067
vt 0.935483 0.859933
vt 0.586190 0.859933
vt 0.442225 0.452566
vt 0.817225 0.765066
vt 0.754725 0.765066
vt 0.442225 0.140066
vt 0.942225 0.765066
vt 0.754725 0.140066
vt 0.950006 0.313601
vt 0.950006 0.686398
vt 0.686399 0.950006
vt 0.049994 0.686398
vt 0.313602 0.049994
vt 0.879725 0.140066
vt 0.999900 0.292935
vt 0.999900 0.707065
vt 0.707065 0.999900
vt 0.000100 0.707065
vt 0.292935 0.000100
vt 0.659133 0.445605
vt 0.451989 0.077566
vt 0.889489 0.702566
vt 0.514489 0.140066
vt 0.639489 0.890066
vt 0.951989 0.202566
vt 0.999994 0.292896
vt 0.999994 0.707104
vt 0.707104 0.999994
vt 0.000006 0.707104
vt 0.000006 0.292896
vt 0.826989 0.827566
vt 0.889489 0.765066
vt 0.999994 0.292896
vt 0.292896 0.999994
vt 0.999994 0.707104
vt 0.707104 0.999994
vt 0.000006 0.707104
vt 0.560483 0.640067
vt 0.560483 0.202567
vt 0.747983 0.890067
vt 0.435483 0.077567
vt 0.560483 0.390067
vt 0.372983 0.765067
vt 0.999900 0.292934
vt 0.999900 0.707065
vt 0.707065 0.999900
vt 0.000100 0.707065
vt 0.292935 0.000100
vt 0.935483 0.140067
vt 0.935483 0.765067
s 0
usemtl ionic_base
f 2/1/1 3/2/1 1/3/1
f 4/4/2 5/5/2 3/6/2
f 6/7/3 7/8/3 5/9/3
f 8/10/4 9/11/4 7/12/4
f 10/13/5 11/14/5 9/15/5
f 12/16/6 13/17/6 11/18/6
f 14/19/7 10/20/7 6/21/7
f 14/1/8 15/2/8 13/3/8
f 16/22/9 1/23/9 15/24/9
f 7/25/10 11/26/10 15/27/10
f 18/28/1 19/29/1 17/30/1
f 20/31/2 21/32/2 19/33/2
f 22/34/3 23/35/3 21/36/3
f 24/37/4 25/38/4 23/39/4
f 26/40/5 27/41/5 25/42/5
f 28/43/6 29/44/6 27/45/6
f 24/46/7 22/47/7 30/48/7
f 30/49/8 31/50/8 29/51/8
f 32/52/9 17/53/9 31/54/9
f 27/55/10 29/56/10 31/57/10
f 34/58/1 35/59/1 33/60/1
f 36/61/2 37/62/2 35/63/2
f 38/64/3 39/65/3 37/66/3
f 40/67/4 41/68/4 39/69/4
f 42/70/5 43/71/5 41/72/5
f 44/73/6 45/74/6 43/75/6
f 46/76/7 42/77/7 38/78/7
f 46/79/8 47/80/8 45/81/8
f 48/82/9 33/83/9 47/84/9
f 39/25/10 43/26/10 47/27/10
f 2/1/1 4/85/1 3/2/1
f 4/4/2 6/86/2 5/5/2
f 6/7/3 8/87/3 7/8/3
f 8/10/4 10/88/4 9/11/4
f 10/13/5 12/89/5 11/14/5
f 12/16/6 14/90/6 13/17/6
f 6/21/7 4/91/7 2/92/7
f 2/92/7 16/93/7 14/19/7
f 14/19/7 12/94/7 10/20/7
f 10/20/7 8/95/7 6/21/7
f 6/21/7 2/92/7 14/19/7
f 14/1/8 16/85/8 15/2/8
f 16/22/9 2/96/9 1/23/9
f 15/27/10 1/97/10 3/98/10
f 3/98/10 5/99/10 7/25/10
f 7/25/10 9/100/10 11/26/10
f 11/26/10 13/101/10 15/27/10
f 15/27/10 3/98/10 7/25/10
f 18/28/1 20/102/1 19/29/1
f 20/31/2 22/103/2 21/32/2
f 22/34/3 24/104/3 23/35/3
f 24/37/4 26/105/4 25/38/4
f 26/40/5 28/106/5 27/41/5
f 28/43/6 30/107/6 29/44/6
f 22/47/7 20/108/7 18/109/7
f 18/109/7 32/110/7 22/47/7
f 32/110/7 30/48/7 22/47/7
f 30/48/7 28/111/7 26/112/7
f 26/112/7 24/46/7 30/48/7
f 30/49/8 32/113/8 31/50/8
f 32/52/9 18/114/9 17/53/9
f 31/57/10 17/115/10 23/116/10
f 17/115/10 19/117/10 23/116/10
f 19/117/10 21/118/10 23/116/10
f 23/116/10 25/119/10 31/57/10
f 25/119/10 27/55/10 31/57/10
f 34/58/1 36/120/1 35/59/1
f 36/61/2 38/121/2 37/62/2
f 38/64/3 40/122/3 39/65/3
f 40/67/4 42/123/4 41/68/4
f 42/70/5 44/124/5 43/71/5
f 44/73/6 46/125/6 45/74/6
f 38/78/7 36/126/7 34/127/7
f 34/127/7 48/128/7 46/76/7
f 46/76/7 44/129/7 42/77/7
f 42/77/7 40/130/7 38/78/7
f 38/78/7 34/127/7 46/76/7
f 46/79/8 48/131/8 47/80/8
f 48/82/9 34/132/9 33/83/9
f 47/27/10 33/97/10 35/98/10
f 35/98/10 37/99/10 39/25/10
f 39/25/10 41/100/10 43/26/10
f 43/26/10 45/101/10 47/27/10
f 47/27/10 35/98/10 39/25/10
