# Blender 5.1.2
# www.blender.org
mtllib small_tuscan_half_base.mtl
o Cube.293
v 0.355024 0.140001 0.649997
v 0.355024 0.231001 0.649997
v 0.644976 0.140001 0.649997
v 0.644976 0.231001 0.649997
v 0.850002 0.140001 0.855024
v 0.850002 0.231001 0.855024
v 0.149997 0.140001 0.855024
v 0.149997 0.231001 0.855024
v 0.850000 0.140000 0.650000
v 0.850000 0.000000 0.650000
v 0.150000 0.140000 0.650000
v 0.150000 0.000000 0.650000
v 0.850002 0.140001 1.000347
v 0.850002 0.231001 1.000347
v 0.149997 0.140001 1.001968
v 0.149997 0.231001 1.001968
v 0.150000 0.000000 1.001968
v 0.850000 0.000000 1.000347
vn -0.0000 -0.0000 -1.0000
vn 0.7071 -0.0000 -0.7071
vn 0.0023 -0.0000 1.0000
vn -1.0000 -0.0000 -0.0000
vn -0.7071 -0.0000 -0.7071
vn -0.0000 1.0000 -0.0000
vn -0.0000 -1.0000 -0.0000
vn 1.0000 -0.0000 -0.0000
vt 0.741847 0.485804
vt 0.649575 0.771751
vt 0.649575 0.485804
vt 0.269663 0.528730
vt 0.177391 0.814676
vt 0.177391 0.528730
vt 0.245443 0.150002
vt 0.385441 0.150004
vt 0.385441 0.849996
vt 0.613069 0.377044
vt 0.520797 0.521958
vt 0.520797 0.377044
vt 0.827698 0.528730
vt 0.735426 0.814676
vt 0.735426 0.528730
vt 0.380532 0.824526
vt 0.175511 0.824523
vt 0.175508 0.619502
vt 0.355252 0.331363
vt 0.156341 0.187064
vt 0.497814 0.187064
vt 0.158316 0.563631
vt 0.837444 0.563631
vt 0.357227 0.707930
vt 0.824546 0.619502
vt 0.824544 0.824523
vt 0.619522 0.824526
vt 0.849995 0.846685
vt 0.150005 0.496343
vt 0.849995 0.494723
vt 0.494721 0.849998
vt 0.496342 0.150002
vt 0.846686 0.644974
vt 0.484292 0.177473
vt 0.392020 0.320789
vt 0.392020 0.177473
vt 0.839428 0.272916
vt 0.640518 0.417215
vt 0.499528 0.272916
vt 0.741847 0.771751
vt 0.269663 0.814676
vt 0.245443 0.849998
vt 0.154445 0.849998
vt 0.154445 0.150002
vt 0.613069 0.521958
vt 0.827698 0.814676
vt 0.497814 0.331363
vt 0.156341 0.331363
vt 0.837444 0.707930
vt 0.638533 0.707930
vt 0.158316 0.707929
vt 0.150005 0.846685
vt 0.641663 0.150002
vt 0.846686 0.355026
vt 0.641663 0.849998
vt 0.484292 0.320789
vt 0.839428 0.417214
vt 0.499528 0.417215
s 0
usemtl ionic_base_small
f 2/1/1 3/2/1 1/3/1
f 4/4/2 5/5/2 3/6/2
f 15/7/3 17/8/3 18/9/3
f 16/10/4 7/11/4 15/12/4
f 8/13/5 1/14/5 7/15/5
f 5/16/6 9/17/6 3/18/6
f 7/19/4 12/20/4 17/21/4
f 10/22/1 12/23/1 3/24/1
f 1/25/6 11/26/6 7/27/6
f 12/28/7 18/29/7 17/30/7
f 16/31/6 14/32/6 2/33/6
f 6/34/8 13/35/8 5/36/8
f 10/37/8 5/38/8 18/39/8
f 2/1/1 4/40/1 3/2/1
f 4/4/2 6/41/2 5/5/2
f 18/9/3 13/42/3 15/7/3
f 13/42/3 14/43/3 15/7/3
f 14/43/3 16/44/3 15/7/3
f 16/10/4 8/45/4 7/11/4
f 8/13/5 2/46/5 1/14/5
f 17/21/4 15/47/4 7/19/4
f 7/19/4 11/48/4 12/20/4
f 11/49/1 1/50/1 12/23/1
f 1/50/1 3/24/1 12/23/1
f 3/24/1 9/51/1 10/22/1
f 12/28/7 10/52/7 18/29/7
f 6/53/6 4/54/6 14/32/6
f 4/54/6 2/33/6 14/32/6
f 2/33/6 8/55/6 16/31/6
f 6/34/8 14/56/8 13/35/8
f 9/57/8 5/38/8 10/37/8
f 5/38/8 13/58/8 18/39/8
