# Blender 5.0.1
# www.blender.org
mtllib arch_brick_small.mtl
o Cube
usemtl arch_mat
v 0.000000 0.491463 -0.005000
v 1.000000 0.491463 -0.005000
v 0.000000 0.491463 1.005000
v 1.000000 0.491463 1.005000
v 0.998199 0.534213 -0.005000
v 0.971439 0.659394 -0.005000
v 0.955614 0.699097 -0.005000
v 0.889018 0.808140 -0.005000
v 0.860978 0.840259 -0.005000
v 0.762154 0.920707 -0.005000
v 0.725102 0.941574 -0.005000
v 0.605340 0.984234 -0.005000
v 0.563509 0.991466 -0.005000
v 0.436491 0.991466 -0.005000
v 0.394660 0.984234 -0.005000
v 0.274898 0.941574 -0.005000
v 0.237846 0.920707 -0.005000
v 0.139022 0.840259 -0.005000
v 0.110982 0.808140 -0.005000
v 0.044386 0.699097 -0.005000
v 0.028561 0.659394 -0.005000
v 0.001801 0.534213 -0.005000
v 0.001801 0.534213 1.005000
v 0.028561 0.659394 1.005000
v 0.044386 0.699097 1.005000
v 0.110982 0.808140 1.005000
v 0.139022 0.840259 1.005000
v 0.237846 0.920707 1.005000
v 0.274898 0.941574 1.005000
v 0.394660 0.984234 1.005000
v 0.436491 0.991466 1.005000
v 0.563509 0.991466 1.005000
v 0.605340 0.984234 1.005000
v 0.725102 0.941574 1.005000
v 0.762154 0.920707 1.005000
v 0.860978 0.840259 1.005000
v 0.889018 0.808140 1.005000
v 0.955614 0.699097 1.005000
v 0.971439 0.659394 1.005000
v 0.998199 0.534213 1.005000
v 0.015181 0.596803 1.005000
v -0.207158 0.743360 1.005000
v -0.247298 0.555587 1.005000
v -0.227228 0.649473 1.005000
v 0.008491 0.565508 1.005000
v -0.089298 0.701377 1.005000
v -0.122748 0.544900 1.005000
v 0.021871 0.628099 1.005000
v -0.217193 0.696416 1.005000
v -0.237263 0.602530 1.005000
v -0.106023 0.623138 1.005000
v -0.114386 0.584019 1.005000
v -0.097661 0.662258 1.005000
v 0.077684 0.753618 1.005000
v -0.083527 0.966478 1.005000
v -0.183421 0.802913 1.005000
v -0.133474 0.884696 1.005000
v 0.061035 0.726357 1.005000
v 0.013728 0.887309 1.005000
v -0.069518 0.751005 1.005000
v 0.094333 0.780879 1.005000
v -0.108500 0.925587 1.005000
v -0.158448 0.843804 1.005000
v -0.027895 0.819157 1.005000
v -0.048706 0.785081 1.005000
v -0.007084 0.853233 1.005000
v 0.188434 0.880483 1.005000
v 0.106770 1.135328 1.005000
v -0.041467 1.014657 1.005000
v 0.032651 1.074993 1.005000
v 0.163728 0.860371 1.005000
v 0.172308 1.028017 1.005000
v 0.048777 0.927458 1.005000
v 0.213140 0.900595 1.005000
v 0.069710 1.105160 1.005000
v -0.004408 1.044825 1.005000
v 0.110543 0.977738 1.005000
v 0.079660 0.952598 1.005000
v 0.141425 1.002878 1.005000
v 0.334779 0.962904 1.005000
v 0.341991 1.230620 1.005000
v 0.162347 1.166629 1.005000
v 0.252169 1.198624 1.005000
v 0.304839 0.952239 1.005000
v 0.368325 1.107427 1.005000
v 0.218623 1.054102 1.005000
v 0.364720 0.973569 1.005000
v 0.297080 1.214622 1.005000
v 0.207258 1.182627 1.005000
v 0.293474 1.080764 1.005000
v 0.256048 1.067433 1.005000
v 0.330900 1.094096 1.005000
v 0.500000 0.991466 1.005000
v 0.595263 1.241467 1.005000
v 0.404737 1.241467 1.005000
v 0.500000 1.241467 1.005000
v 0.468246 0.991466 1.005000
v 0.579386 1.116466 1.005000
v 0.420614 1.116466 1.005000
v 0.531754 0.991466 1.005000
v 0.547632 1.241467 1.005000
v 0.452368 1.241467 1.005000
v 0.500000 1.116466 1.005000
v 0.460307 1.116466 1.005000
v 0.539693 1.116466 1.005000
v 0.665221 0.962904 1.005000
v 0.837653 1.166629 1.005000
v 0.658009 1.230620 1.005000
v 0.747831 1.198625 1.005000
v 0.635280 0.973569 1.005000
v 0.781377 1.054102 1.005000
v 0.631675 1.107427 1.005000
v 0.695161 0.952239 1.005000
v 0.792742 1.182627 1.005000
v 0.702920 1.214622 1.005000
v 0.706526 1.080764 1.005000
v 0.669100 1.094096 1.005000
v 0.743952 1.067433 1.005000
v 0.811566 0.880483 1.005000
v 1.041467 1.014657 1.005000
v 0.893230 1.135328 1.005000
v 0.967349 1.074993 1.005000
v 0.786860 0.900595 1.005000
v 0.951223 0.927458 1.005000
v 0.827692 1.028017 1.005000
v 0.836272 0.860371 1.005000
v 1.004408 1.044825 1.005000
v 0.930290 1.105160 1.005000
v 0.889457 0.977738 1.005000
v 0.858575 1.002878 1.005000
v 0.920340 0.952598 1.005000
v 0.922316 0.753618 1.005000
v 1.183421 0.802913 1.005000
v 1.083527 0.966478 1.005000
v 1.133474 0.884696 1.005000
v 0.905667 0.780879 1.005000
v 1.069518 0.751005 1.005000
v 0.986272 0.887309 1.005000
v 0.938965 0.726357 1.005000
v 1.158448 0.843804 1.005000
v 1.108500 0.925587 1.005000
v 1.027895 0.819157 1.005000
v 1.007084 0.853233 1.005000
v 1.048706 0.785081 1.005000
v 0.984819 0.596803 1.005000
v 1.247298 0.555587 1.005000
v 1.207158 0.743360 1.005000
v 1.227228 0.649473 1.005000
v 0.978129 0.628099 1.005000
v 1.122748 0.544900 1.005000
v 1.089298 0.701377 1.005000
v 0.991509 0.565508 1.005000
v 1.237263 0.602530 1.005000
v 1.217193 0.696416 1.005000
v 1.106023 0.623138 1.005000
v 1.097661 0.662258 1.005000
v 1.114386 0.584019 1.005000
v 0.984819 0.596803 -0.005000
v 1.207158 0.743360 -0.005000
v 1.247298 0.555587 -0.005000
v 1.227228 0.649473 -0.005000
v 0.991509 0.565508 -0.005000
v 1.089298 0.701377 -0.005000
v 1.122748 0.544900 -0.005000
v 0.978129 0.628099 -0.005000
v 1.106023 0.623138 -0.005000
v 1.237263 0.602530 -0.005000
v 1.217193 0.696416 -0.005000
v 1.097661 0.662258 -0.005000
v 1.114386 0.584019 -0.005000
v 0.922316 0.753618 -0.005000
v 1.083527 0.966478 -0.005000
v 1.183421 0.802913 -0.005000
v 1.133474 0.884696 -0.005000
v 0.938965 0.726358 -0.005000
v 0.986272 0.887309 -0.005000
v 1.069518 0.751005 -0.005000
v 0.905667 0.780879 -0.005000
v 1.027895 0.819157 -0.005000
v 1.158448 0.843804 -0.005000
v 1.108500 0.925587 -0.005000
v 1.007084 0.853233 -0.005000
v 1.048706 0.785081 -0.005000
v 0.811566 0.880483 -0.005000
v 0.893231 1.135328 -0.005000
v 1.041467 1.014657 -0.005000
v 0.967349 1.074993 -0.005000
v 0.836272 0.860371 -0.005000
v 0.827692 1.028017 -0.005000
v 0.951223 0.927458 -0.005000
v 0.786860 0.900595 -0.005000
v 0.889457 0.977738 -0.005000
v 1.004408 1.044825 -0.005000
v 0.930290 1.105160 -0.005000
v 0.858575 1.002877 -0.005000
v 0.920340 0.952598 -0.005000
v 0.665221 0.962904 -0.005000
v 0.658009 1.230620 -0.005000
v 0.837653 1.166629 -0.005000
v 0.747831 1.198624 -0.005000
v 0.695161 0.952239 -0.005000
v 0.631675 1.107427 -0.005000
v 0.781377 1.054102 -0.005000
v 0.635280 0.973569 -0.005000
v 0.706526 1.080764 -0.005000
v 0.792742 1.182627 -0.005000
v 0.702920 1.214622 -0.005000
v 0.669100 1.094096 -0.005000
v 0.743952 1.067433 -0.005000
v 0.500000 0.991466 -0.005000
v 0.404737 1.241467 -0.005000
v 0.595263 1.241467 -0.005000
v 0.500000 1.241467 -0.005000
v 0.531754 0.991466 -0.005000
v 0.420614 1.116466 -0.005000
v 0.579386 1.116466 -0.005000
v 0.468245 0.991466 -0.005000
v 0.500000 1.116466 -0.005000
v 0.547632 1.241467 -0.005000
v 0.452368 1.241467 -0.005000
v 0.460307 1.116466 -0.005000
v 0.539693 1.116466 -0.005000
v 0.334779 0.962904 -0.005000
v 0.162347 1.166629 -0.005000
v 0.341991 1.230620 -0.005000
v 0.252169 1.198625 -0.005000
v 0.364720 0.973569 -0.005000
v 0.218623 1.054102 -0.005000
v 0.368325 1.107427 -0.005000
v 0.304839 0.952239 -0.005000
v 0.293474 1.080764 -0.005000
v 0.297080 1.214622 -0.005000
v 0.207258 1.182627 -0.005000
v 0.256048 1.067433 -0.005000
v 0.330900 1.094096 -0.005000
v 0.188434 0.880483 -0.005000
v -0.041467 1.014657 -0.005000
v 0.106770 1.135328 -0.005000
v 0.032651 1.074993 -0.005000
v 0.213140 0.900595 -0.005000
v 0.048777 0.927458 -0.005000
v 0.172308 1.028017 -0.005000
v 0.163728 0.860371 -0.005000
v 0.110543 0.977738 -0.005000
v 0.069710 1.105160 -0.005000
v -0.004408 1.044825 -0.005000
v 0.079660 0.952598 -0.005000
v 0.141425 1.002878 -0.005000
v 0.077684 0.753618 -0.005000
v -0.183421 0.802913 -0.005000
v -0.083527 0.966478 -0.005000
v -0.133474 0.884696 -0.005000
v 0.094333 0.780879 -0.005000
v -0.069518 0.751005 -0.005000
v 0.013728 0.887309 -0.005000
v 0.061035 0.726357 -0.005000
v -0.027895 0.819157 -0.005000
v -0.108500 0.925587 -0.005000
v -0.158448 0.843804 -0.005000
v -0.048706 0.785081 -0.005000
v -0.007084 0.853233 -0.005000
v 0.015181 0.596803 -0.005000
v -0.247298 0.555587 -0.005000
v -0.207158 0.743360 -0.005000
v -0.227228 0.649473 -0.005000
v 0.021871 0.628099 -0.005000
v -0.122748 0.544900 -0.005000
v -0.089298 0.701377 -0.005000
v 0.008491 0.565508 -0.005000
v -0.106023 0.623138 -0.005000
v -0.217193 0.696416 -0.005000
v -0.237263 0.602530 -0.005000
v -0.114386 0.584019 -0.005000
v -0.097661 0.662258 -0.005000
v 1.250000 0.491463 -0.005000
v 1.250000 0.491463 1.005000
v -0.250300 0.491463 -0.005000
v -0.250300 0.491463 1.005000
vn 0.9991 -0.0421 -0.0000
vn -0.0000 -0.0000 1.0000
vn -0.9991 -0.0421 -0.0000
vn -0.9289 -0.3703 -0.0000
vn -0.7533 -0.6576 -0.0000
vn -0.9779 -0.2090 -0.0000
vn -0.8534 -0.5212 -0.0000
vn -0.6313 -0.7755 -0.0000
vn -0.4907 -0.8713 -0.0000
vn -0.3356 -0.9420 -0.0000
vn -0.0000 -1.0000 -0.0000
vn 0.3356 -0.9420 -0.0000
vn -0.1703 -0.9854 -0.0000
vn 0.6313 -0.7755 -0.0000
vn 0.1703 -0.9854 -0.0000
vn 0.4907 -0.8713 -0.0000
vn 0.7533 -0.6576 -0.0000
vn 0.8534 -0.5212 -0.0000
vn 0.9289 -0.3703 -0.0000
vn 0.9779 -0.2090 -0.0000
vn -0.0000 -0.0000 -1.0000
vn -0.9779 0.2090 -0.0000
vn -0.9989 0.0468 -0.0000
vn -0.9289 0.3703 -0.0000
vn -0.8534 0.5212 -0.0000
vn -0.7533 0.6576 -0.0000
vn -0.4907 0.8713 -0.0000
vn -0.1703 0.9854 -0.0000
vn 0.1703 0.9854 -0.0000
vn 0.4907 0.8713 -0.0000
vn 0.7533 0.6576 -0.0000
vn 0.9289 0.3703 -0.0000
vn 0.9991 0.0421 -0.0000
vn -0.6313 0.7755 -0.0000
vn -0.3356 0.9420 -0.0000
vn -0.0000 1.0000 -0.0000
vn 0.3356 0.9420 -0.0000
vn 0.6313 0.7755 -0.0000
vn 0.8534 0.5212 -0.0000
vn 0.9779 0.2090 -0.0000
vn -0.9289 -0.3702 -0.0000
vn -0.9289 0.3702 -0.0000
vt 0.000000 0.312500
vt 1.000000 0.250000
vt 1.000000 0.312500
vt 0.000000 0.859375
vt 0.125000 0.812500
vt 0.125000 0.859375
vt 0.000000 0.062500
vt 1.000000 0.000000
vt 1.000000 0.062500
vt 0.750000 0.109375
vt 0.875000 0.062500
vt 0.875000 0.109375
vt 0.250000 0.109375
vt 0.375000 0.062500
vt 0.375000 0.109375
vt 0.500000 0.359375
vt 0.625000 0.312500
vt 0.625000 0.359375
vt 0.125000 0.359375
vt 0.000000 0.312500
vt 0.125000 0.312500
vt 0.875000 0.609375
vt 0.750000 0.562500
vt 0.875000 0.562500
vt 0.375000 0.609375
vt 0.250000 0.562500
vt 0.375000 0.562500
vt 0.000000 0.562500
vt 1.000000 0.500000
vt 1.000000 0.562500
vt 1.000000 0.406250
vt 0.000000 0.406250
vt 0.000000 0.375000
vt 1.000000 0.468750
vt 0.000000 0.468750
vt 0.000000 0.437500
vt 1.000000 0.906250
vt 0.000000 0.906250
vt 0.000000 0.875000
vt 0.000000 0.812500
vt 1.000000 0.750000
vt 1.000000 0.812500
vt 1.000000 0.968750
vt 0.000000 0.968750
vt 0.000000 0.937500
vt 1.000000 0.406250
vt 0.000000 0.406250
vt 0.000000 0.375000
vt 1.000000 0.468750
vt 0.000000 0.468750
vt 0.000000 0.437500
vt 0.625000 0.859375
vt 0.500000 0.812500
vt 0.625000 0.812500
vt 1.000000 0.406250
vt 0.000000 0.406250
vt 0.000000 0.375000
vt 0.125000 0.953125
vt 0.125000 0.906250
vt 0.250000 0.953125
vt 0.250000 0.906250
vt 0.250000 1.000000
vt 0.125000 1.000000
vt 0.000000 0.953125
vt 0.250000 0.859375
vt 0.250000 0.812500
vt 0.625000 0.953125
vt 0.500000 0.906250
vt 0.625000 0.906250
vt 0.750000 0.953125
vt 0.750000 0.906250
vt 0.750000 1.000000
vt 0.625000 1.000000
vt 0.500000 0.953125
vt 0.750000 0.859375
vt 0.750000 0.812500
vt 0.500000 0.859375
vt 0.375000 0.703125
vt 0.250000 0.656250
vt 0.375000 0.656250
vt 0.500000 0.703125
vt 0.500000 0.656250
vt 0.500000 0.750000
vt 0.375000 0.750000
vt 0.250000 0.703125
vt 0.500000 0.609375
vt 0.500000 0.562500
vt 0.250000 0.609375
vt 0.875000 0.703125
vt 0.750000 0.656250
vt 0.875000 0.656250
vt 1.000000 0.703125
vt 1.000000 0.656250
vt 0.875000 0.750000
vt 0.750000 0.703125
vt 1.000000 0.609375
vt 0.750000 0.609375
vt 0.000000 0.453125
vt 0.125000 0.406250
vt 0.125000 0.453125
vt 0.250000 0.406250
vt 0.250000 0.453125
vt 0.125000 0.500000
vt 0.250000 0.500000
vt 0.000000 0.500000
vt 0.250000 0.359375
vt 0.250000 0.312500
vt 0.000000 0.359375
vt 0.500000 0.453125
vt 0.625000 0.406250
vt 0.625000 0.453125
vt 0.750000 0.406250
vt 0.750000 0.453125
vt 0.625000 0.500000
vt 0.750000 0.500000
vt 0.500000 0.500000
vt 0.750000 0.312500
vt 0.750000 0.359375
vt 0.500000 0.406250
vt 0.250000 0.203125
vt 0.375000 0.156250
vt 0.375000 0.203125
vt 0.500000 0.156250
vt 0.500000 0.203125
vt 0.375000 0.250000
vt 0.500000 0.250000
vt 0.250000 0.250000
vt 0.500000 0.062500
vt 0.500000 0.109375
vt 0.250000 0.156250
vt 0.750000 0.203125
vt 0.875000 0.156250
vt 0.875000 0.203125
vt 1.000000 0.156250
vt 1.000000 0.203125
vt 0.875000 0.250000
vt 0.750000 0.250000
vt 0.125000 0.750000
vt 0.750000 0.062500
vt 0.875000 0.000000
vt 0.250000 0.062500
vt 0.375000 0.000000
vt 0.875000 0.500000
vt 1.000000 0.109375
vt 0.750000 0.156250
vt 0.500000 0.312500
vt 0.625000 0.250000
vt 0.125000 0.250000
vt 0.000000 1.000000
vt 0.375000 0.500000
vt 0.625000 0.750000
vt 0.250000 0.750000
vt 0.750000 0.750000
vt 0.500000 1.000000
vt 0.000000 0.406250
vt 0.440000 0.750000
vt 0.500000 0.500000
vt 0.500000 0.750000
vt 0.440000 0.250000
vt 0.500000 0.000000
vt 0.500000 0.250000
vt -0.000000 0.405835
vt 0.000000 0.359070
vt 1.000000 0.359071
vt 1.000293 0.000000
vt -0.000585 0.062500
vt 0.000000 -0.000000
vt 1.000000 0.062500
vt 0.000000 0.000000
vt -0.000000 0.907390
vt 0.000000 0.865417
vt 1.000000 0.865417
vt 1.000000 0.062500
vt 1.000000 0.062500
vt 0.000000 -0.000000
vt 1.000000 0.000000
vt 0.998450 0.062500
vt 0.000000 0.000000
vt 1.000000 0.062500
vt -0.000000 0.062500
vt 0.000000 0.405609
vt 0.000000 0.360746
vt 1.000000 0.360746
vt 0.000000 0.905609
vt 0.000000 0.860852
vt 1.000000 0.860853
vt -0.000000 0.407390
vt -0.000000 0.363020
vt 1.000000 0.363020
vt 0.000000 0.903513
vt 0.000000 0.862116
vt 1.000000 0.862117
vt 0.000000 0.405755
vt 0.000022 0.360319
vt 0.999986 0.360325
vt 0.000000 0.905757
vt 0.000000 0.865197
vt 1.000000 0.865198
vt 0.000000 0.406499
vt 0.000000 0.359735
vt 1.000000 0.359735
vt 0.000000 0.250000
vt 0.000000 0.000000
vt 0.750000 0.062500
vt 0.250000 0.062500
vt 0.500000 0.312500
vt 0.000000 0.500000
vt 0.000000 0.312500
vt 1.000000 0.312500
vt 1.000000 0.343750
vt 0.000000 0.343750
vt 1.000000 0.375000
vt 1.000000 0.437500
vt 1.000000 0.375000
vt 1.000000 0.437500
vt 1.000000 0.843750
vt 0.000000 0.843750
vt 1.000000 0.875000
vt 1.000000 0.937500
vt 0.000000 0.750000
vt 1.000000 1.000000
vt 1.000000 0.343750
vt 0.000000 0.343750
vt 1.000000 0.500000
vt 0.000000 0.500000
vt 0.000000 0.312500
vt 1.000000 0.312500
vt 1.000000 0.343750
vt 0.000000 0.343750
vt 1.000000 0.375000
vt 1.000000 0.437500
vt 0.000000 0.437500
vt 0.750000 0.000000
vt 0.250000 0.000000
vt 0.500000 0.000000
vt 0.750000 0.250000
vt 0.250000 0.250000
vt 0.440000 0.500000
vt 0.440000 0.000000
vt 1.000000 0.452599
vt 1.000000 0.455500
vt 0.000000 0.455500
vt -0.000000 0.452599
vt 1.000000 0.405835
vt -0.000000 0.315000
vt 1.000000 0.315000
vt 0.999707 0.062500
vt 0.000000 0.062500
vt 1.000000 0.949363
vt 1.000000 0.991336
vt 0.000000 0.991336
vt 0.000000 0.949363
vt 1.000000 0.907390
vt 0.000000 0.823444
vt 1.000000 0.823444
vt 0.000000 0.062500
vt 0.000000 0.062500
vt -0.001550 0.062500
vt 0.000000 0.062500
vt 1.000000 0.000000
vt 1.000000 0.450472
vt 1.000000 0.495335
vt 0.000000 0.495335
vt 0.000000 0.450472
vt 1.000000 0.405609
vt 0.000000 0.315883
vt 1.000000 0.315883
vt 1.000000 0.950365
vt 1.000000 0.995121
vt 0.000000 0.995121
vt 0.000000 0.950365
vt 1.000000 0.905609
vt 0.000000 0.816096
vt 1.000000 0.816097
vt 1.000000 0.451760
vt 1.000000 0.496130
vt -0.000000 0.496130
vt -0.000000 0.451760
vt 1.000000 0.407390
vt -0.000000 0.318650
vt 1.000000 0.318650
vt 1.000000 0.944910
vt 1.000000 0.986307
vt 0.000000 0.986307
vt 0.000000 0.944910
vt 1.000000 0.903513
vt 0.000000 0.820720
vt 1.000000 0.820720
vt 0.999978 0.451196
vt 0.999919 0.496628
vt 0.000015 0.451190
vt 0.000081 0.496628
vt 1.000000 0.405760
vt 0.000082 0.314886
vt 0.999919 0.314886
vt 1.000000 0.946317
vt 1.000000 0.986877
vt 0.000000 0.986877
vt 0.000000 0.946317
vt 1.000000 0.905757
vt 0.000000 0.824638
vt 1.000000 0.824638
vt 1.000000 0.453264
vt 1.000000 0.500028
vt 0.000000 0.500028
vt 0.000000 0.453264
vt 1.000000 0.406500
vt 0.000000 0.312971
vt 1.000000 0.312971
s 0
usemtl arch_mat
f 23/1/1 1/2/1 22/3/1
f 152/4/2 150/5/2 157/6/2
f 4/7/3 5/8/3 2/9/3
f 139/10/2 137/11/2 144/12/2
f 126/13/2 124/14/2 131/15/2
f 113/16/2 111/17/2 118/18/2
f 39/1/4 7/2/4 6/3/4
f 105/19/2 32/20/2 98/21/2
f 92/22/2 30/23/2 85/24/2
f 79/25/2 28/26/2 72/27/2
f 37/28/5 9/29/5 8/30/5
f 149/31/6 165/32/6 158/33/6
f 136/34/7 178/35/7 171/36/7
f 123/37/8 191/38/8 184/39/8
f 35/40/9 11/41/9 10/42/9
f 110/43/10 204/44/10 197/45/10
f 97/46/11 217/47/11 210/48/11
f 84/49/12 230/50/12 223/51/12
f 33/7/13 13/8/13 12/9/13
f 71/37/14 243/38/14 236/39/14
f 31/1/15 15/2/15 14/3/15
f 29/28/16 17/29/16 16/30/16
f 66/52/2 26/53/2 59/54/2
f 27/40/17 19/41/17 18/42/17
f 58/43/18 256/44/18 249/45/18
f 25/7/19 21/8/19 20/9/19
f 53/6/2 24/40/2 46/5/2
f 45/55/20 269/56/20 262/57/20
f 52/58/2 41/38/2 51/59/2
f 50/60/2 51/59/2 44/61/2
f 43/62/2 52/58/2 50/60/2
f 47/63/2 45/64/2 52/58/2
f 49/65/2 46/5/2 42/66/2
f 44/61/2 53/6/2 49/65/2
f 51/59/2 48/4/2 53/6/2
f 65/67/2 54/68/2 64/69/2
f 63/70/2 64/69/2 57/71/2
f 56/72/2 65/67/2 63/70/2
f 60/73/2 58/74/2 65/67/2
f 62/75/2 59/54/2 55/76/2
f 57/71/2 66/52/2 62/75/2
f 64/69/2 61/77/2 66/52/2
f 78/78/2 67/79/2 77/80/2
f 76/81/2 77/80/2 70/82/2
f 69/83/2 78/78/2 76/81/2
f 73/84/2 71/85/2 78/78/2
f 75/86/2 72/27/2 68/87/2
f 70/82/2 79/25/2 75/86/2
f 77/80/2 74/88/2 79/25/2
f 91/89/2 80/90/2 90/91/2
f 89/92/2 90/91/2 83/93/2
f 82/41/2 91/89/2 89/92/2
f 86/94/2 84/95/2 91/89/2
f 88/96/2 85/24/2 81/30/2
f 83/93/2 92/22/2 88/96/2
f 90/91/2 87/97/2 92/22/2
f 97/98/2 103/99/2 104/100/2
f 104/100/2 96/101/2 102/102/2
f 99/103/2 102/102/2 95/104/2
f 31/105/2 104/100/2 99/103/2
f 101/106/2 98/21/2 94/107/2
f 96/101/2 105/19/2 101/106/2
f 103/99/2 100/108/2 105/19/2
f 110/109/2 116/110/2 117/111/2
f 117/111/2 109/112/2 115/113/2
f 112/114/2 115/113/2 108/115/2
f 33/116/2 117/111/2 112/114/2
f 118/18/2 107/117/2 114/118/2
f 116/110/2 114/118/2 109/112/2
f 106/119/2 118/18/2 116/110/2
f 123/120/2 129/121/2 130/122/2
f 130/122/2 122/123/2 128/124/2
f 125/125/2 128/124/2 121/126/2
f 35/127/2 130/122/2 125/125/2
f 131/15/2 120/128/2 127/129/2
f 129/121/2 127/129/2 122/123/2
f 119/130/2 131/15/2 129/121/2
f 136/131/2 142/132/2 143/133/2
f 143/133/2 135/134/2 141/135/2
f 138/136/2 141/135/2 134/2/2
f 37/137/2 143/133/2 138/136/2
f 254/5/21 20/40/21 268/138/21
f 137/11/2 38/139/2 151/140/2
f 124/14/2 36/141/2 138/142/2
f 111/24/2 34/23/2 125/143/2
f 144/12/2 133/9/2 140/144/2
f 142/132/2 140/144/2 135/134/2
f 132/145/2 144/12/2 142/132/2
f 98/17/2 32/146/2 112/147/2
f 99/148/2 81/107/2 85/21/2
f 149/64/2 155/59/2 156/58/2
f 156/58/2 148/61/2 154/60/2
f 151/63/2 154/60/2 147/62/2
f 39/149/2 156/58/2 151/63/2
f 68/30/2 72/24/2 86/143/2
f 55/87/2 59/27/2 73/150/2
f 60/151/2 42/76/2 46/54/2
f 47/138/2 43/152/2 278/66/2
f 164/138/21 160/152/21 275/66/21
f 276/153/2 146/76/2 150/54/2
f 157/6/2 146/66/2 153/65/2
f 155/59/2 153/65/2 148/61/2
f 145/38/2 157/6/2 155/59/2
f 166/59/21 167/60/21 170/58/21
f 163/5/21 168/65/21 169/6/21
f 169/6/21 161/61/21 166/59/21
f 165/4/21 166/59/21 158/38/21
f 6/40/21 169/6/21 165/4/21
f 170/58/21 160/62/21 164/63/21
f 162/64/21 164/63/21 5/149/21
f 158/38/21 170/58/21 162/64/21
f 179/69/21 180/70/21 183/67/21
f 176/54/21 181/75/21 182/52/21
f 182/52/21 174/71/21 179/69/21
f 178/77/21 179/69/21 171/68/21
f 8/53/21 182/52/21 178/77/21
f 183/67/21 173/72/21 177/73/21
f 175/74/21 177/73/21 7/154/21
f 171/68/21 183/67/21 175/74/21
f 192/80/21 193/81/21 196/78/21
f 189/27/21 194/86/21 195/25/21
f 195/25/21 187/82/21 192/80/21
f 191/88/21 192/80/21 184/79/21
f 10/26/21 195/25/21 191/88/21
f 196/78/21 186/83/21 190/84/21
f 188/85/21 190/84/21 9/152/21
f 184/79/21 196/78/21 188/85/21
f 205/91/21 206/92/21 209/89/21
f 202/24/21 207/96/21 208/22/21
f 208/22/21 200/93/21 205/91/21
f 204/97/21 205/91/21 197/90/21
f 12/23/21 208/22/21 204/97/21
f 209/89/21 199/41/21 203/94/21
f 201/95/21 203/94/21 11/153/21
f 197/90/21 209/89/21 201/95/21
f 222/100/21 213/101/21 219/102/21
f 215/21/21 220/106/21 221/19/21
f 221/19/21 213/101/21 218/99/21
f 217/108/21 218/99/21 210/155/21
f 14/20/21 221/19/21 217/108/21
f 216/103/21 219/102/21 212/104/21
f 13/105/21 222/100/21 216/103/21
f 214/98/21 218/99/21 222/100/21
f 235/111/21 226/112/21 232/113/21
f 234/18/21 224/117/21 233/118/21
f 231/110/21 233/118/21 226/112/21
f 223/119/21 234/18/21 231/110/21
f 230/16/21 228/17/21 234/18/21
f 229/114/21 232/113/21 225/115/21
f 15/116/21 235/111/21 229/114/21
f 227/109/21 231/110/21 235/111/21
f 248/122/21 239/123/21 245/124/21
f 247/15/21 237/128/21 246/129/21
f 244/121/21 246/129/21 239/123/21
f 236/130/21 247/15/21 244/121/21
f 243/13/21 241/14/21 247/15/21
f 242/125/21 245/124/21 238/126/21
f 17/127/21 248/122/21 242/125/21
f 240/120/21 244/121/21 248/122/21
f 261/133/21 252/134/21 258/135/21
f 260/12/21 250/9/21 259/144/21
f 257/132/21 259/144/21 252/134/21
f 249/145/21 260/12/21 257/132/21
f 256/10/21 254/11/21 260/12/21
f 255/136/21 258/135/21 251/2/21
f 19/137/21 261/133/21 255/136/21
f 253/131/21 257/132/21 261/133/21
f 274/58/21 265/61/21 271/60/21
f 273/6/21 263/66/21 272/65/21
f 270/59/21 272/65/21 265/61/21
f 262/38/21 273/6/21 270/59/21
f 269/4/21 267/5/21 273/6/21
f 268/63/21 271/60/21 264/62/21
f 21/149/21 274/58/21 268/63/21
f 266/64/21 270/59/21 274/58/21
f 275/156/11 4/157/11 2/158/11
f 278/159/11 1/160/11 3/161/11
f 241/11/21 18/139/21 255/140/21
f 228/14/21 16/141/21 242/142/21
f 215/17/21 14/146/21 229/147/21
f 198/107/21 202/21/21 216/148/21
f 203/143/21 185/30/21 189/24/21
f 190/150/21 172/87/21 176/27/21
f 177/151/21 159/76/21 163/54/21
f 277/153/21 263/76/21 267/54/21
f 265/162/22 272/163/22 50/164/22
f 278/165/23 263/166/23 277/167/23
f 56/168/24 264/169/24 42/8/24
f 252/170/25 259/171/25 63/172/25
f 69/173/26 251/169/26 55/8/26
f 82/174/27 238/175/27 68/176/27
f 95/177/28 225/169/28 81/8/28
f 108/173/29 212/169/29 94/8/29
f 121/173/30 199/169/30 107/8/30
f 134/173/31 186/169/31 120/8/31
f 147/9/32 173/178/32 133/8/32
f 160/169/33 276/179/33 275/180/33
f 239/181/34 246/182/34 76/183/34
f 226/184/35 233/185/35 89/186/35
f 213/187/36 220/188/36 102/189/36
f 200/190/37 207/191/37 115/192/37
f 187/193/38 194/194/38 128/195/38
f 174/196/39 181/197/39 141/198/39
f 161/199/40 168/200/40 154/201/40
f 23/1/1 3/202/1 1/2/1
f 152/4/2 40/40/2 150/5/2
f 4/7/3 40/203/3 5/8/3
f 139/10/2 38/204/2 137/11/2
f 126/13/2 36/205/2 124/14/2
f 113/16/2 34/206/2 111/17/2
f 39/1/41 38/202/41 7/2/41
f 105/19/2 100/108/2 32/20/2
f 92/22/2 87/97/2 30/23/2
f 79/25/2 74/88/2 28/26/2
f 37/28/5 36/207/5 9/29/5
f 5/208/6 40/209/6 152/210/6
f 5/208/6 152/210/6 162/211/6
f 152/210/6 145/212/6 162/211/6
f 149/31/6 39/213/6 6/51/6
f 162/211/6 145/212/6 158/33/6
f 145/212/6 149/31/6 158/33/6
f 149/31/6 6/51/6 165/32/6
f 7/48/7 38/214/7 139/46/7
f 7/48/7 139/46/7 175/47/7
f 139/46/7 132/215/7 175/47/7
f 136/34/7 37/29/7 8/207/7
f 175/47/7 132/215/7 171/36/7
f 132/215/7 136/34/7 171/36/7
f 136/34/7 8/207/7 178/35/7
f 9/40/8 36/42/8 126/216/8
f 9/40/8 126/216/8 188/217/8
f 126/216/8 119/218/8 188/217/8
f 123/37/8 35/219/8 10/45/8
f 188/217/8 119/218/8 184/39/8
f 119/218/8 123/37/8 184/39/8
f 123/37/8 10/45/8 191/38/8
f 35/40/9 34/220/9 11/41/9
f 11/39/10 34/218/10 113/37/10
f 11/39/10 113/37/10 201/38/10
f 113/37/10 106/219/10 201/38/10
f 110/43/10 33/221/10 12/149/10
f 201/38/10 106/219/10 197/45/10
f 106/219/10 110/43/10 197/45/10
f 110/43/10 12/149/10 204/44/10
f 13/1/11 32/3/11 100/222/11
f 13/1/11 100/222/11 214/223/11
f 100/222/11 93/214/11 214/223/11
f 97/46/11 31/215/11 14/36/11
f 214/223/11 93/214/11 210/48/11
f 93/214/11 97/46/11 210/48/11
f 97/46/11 14/36/11 217/47/11
f 15/33/12 30/212/12 87/31/12
f 15/33/12 87/31/12 227/32/12
f 87/31/12 80/213/12 227/32/12
f 84/49/12 29/224/12 16/225/12
f 227/32/12 80/213/12 223/51/12
f 80/213/12 84/49/12 223/51/12
f 84/49/12 16/225/12 230/50/12
f 33/7/13 32/203/13 13/8/13
f 17/40/14 28/42/14 74/216/14
f 17/40/14 74/216/14 240/217/14
f 74/216/14 67/218/14 240/217/14
f 71/37/14 27/219/14 18/45/14
f 240/217/14 67/218/14 236/39/14
f 67/218/14 71/37/14 236/39/14
f 71/37/14 18/45/14 243/38/14
f 31/1/15 30/202/15 15/2/15
f 29/28/16 28/207/16 17/29/16
f 66/52/2 61/77/2 26/53/2
f 27/40/17 26/220/17 19/41/17
f 19/39/18 26/218/18 61/37/18
f 19/39/18 61/37/18 253/38/18
f 61/37/18 54/219/18 253/38/18
f 58/43/18 25/221/18 20/149/18
f 253/38/18 54/219/18 249/45/18
f 54/219/18 58/43/18 249/45/18
f 58/43/18 20/149/18 256/44/18
f 25/7/19 24/203/19 21/8/19
f 53/6/2 48/4/2 24/40/2
f 21/226/20 24/227/20 48/228/20
f 21/226/20 48/228/20 266/229/20
f 48/228/20 41/230/20 266/229/20
f 45/55/20 23/231/20 22/232/20
f 266/229/20 41/230/20 262/57/20
f 41/230/20 45/55/20 262/57/20
f 45/55/20 22/232/20 269/56/20
f 52/58/2 45/64/2 41/38/2
f 50/60/2 52/58/2 51/59/2
f 43/62/2 47/63/2 52/58/2
f 47/63/2 23/149/2 45/64/2
f 49/65/2 53/6/2 46/5/2
f 44/61/2 51/59/2 53/6/2
f 51/59/2 41/38/2 48/4/2
f 65/67/2 58/74/2 54/68/2
f 63/70/2 65/67/2 64/69/2
f 56/72/2 60/73/2 65/67/2
f 60/73/2 25/154/2 58/74/2
f 62/75/2 66/52/2 59/54/2
f 57/71/2 64/69/2 66/52/2
f 64/69/2 54/68/2 61/77/2
f 78/78/2 71/85/2 67/79/2
f 76/81/2 78/78/2 77/80/2
f 69/83/2 73/84/2 78/78/2
f 73/84/2 27/152/2 71/85/2
f 75/86/2 79/25/2 72/27/2
f 70/82/2 77/80/2 79/25/2
f 77/80/2 67/79/2 74/88/2
f 91/89/2 84/95/2 80/90/2
f 89/92/2 91/89/2 90/91/2
f 82/41/2 86/94/2 91/89/2
f 86/94/2 29/153/2 84/95/2
f 88/96/2 92/22/2 85/24/2
f 83/93/2 90/91/2 92/22/2
f 90/91/2 80/90/2 87/97/2
f 97/98/2 93/155/2 103/99/2
f 104/100/2 103/99/2 96/101/2
f 99/103/2 104/100/2 102/102/2
f 31/105/2 97/98/2 104/100/2
f 101/106/2 105/19/2 98/21/2
f 96/101/2 103/99/2 105/19/2
f 103/99/2 93/155/2 100/108/2
f 110/109/2 106/119/2 116/110/2
f 117/111/2 116/110/2 109/112/2
f 112/114/2 117/111/2 115/113/2
f 33/116/2 110/109/2 117/111/2
f 118/18/2 111/17/2 107/117/2
f 116/110/2 118/18/2 114/118/2
f 106/119/2 113/16/2 118/18/2
f 123/120/2 119/130/2 129/121/2
f 130/122/2 129/121/2 122/123/2
f 125/125/2 130/122/2 128/124/2
f 35/127/2 123/120/2 130/122/2
f 131/15/2 124/14/2 120/128/2
f 129/121/2 131/15/2 127/129/2
f 119/130/2 126/13/2 131/15/2
f 136/131/2 132/145/2 142/132/2
f 143/133/2 142/132/2 135/134/2
f 138/136/2 143/133/2 141/135/2
f 37/137/2 136/131/2 143/133/2
f 20/40/21 21/220/21 268/138/21
f 268/138/21 264/152/21 254/5/21
f 264/152/21 250/66/21 254/5/21
f 38/139/2 39/233/2 151/140/2
f 151/140/2 147/8/2 137/11/2
f 147/8/2 133/9/2 137/11/2
f 36/141/2 37/234/2 138/142/2
f 138/142/2 134/235/2 124/14/2
f 134/235/2 120/128/2 124/14/2
f 34/23/2 35/115/2 125/143/2
f 125/143/2 121/29/2 111/24/2
f 121/29/2 107/30/2 111/24/2
f 144/12/2 137/11/2 133/9/2
f 142/132/2 144/12/2 140/144/2
f 132/145/2 139/10/2 144/12/2
f 32/146/2 33/126/2 112/147/2
f 112/147/2 108/236/2 98/17/2
f 108/236/2 94/117/2 98/17/2
f 30/1/2 31/202/2 85/21/2
f 31/202/2 99/148/2 85/21/2
f 99/148/2 95/237/2 81/107/2
f 149/64/2 145/38/2 155/59/2
f 156/58/2 155/59/2 148/61/2
f 151/63/2 156/58/2 154/60/2
f 39/149/2 149/64/2 156/58/2
f 28/23/2 29/115/2 72/24/2
f 29/115/2 86/143/2 72/24/2
f 86/143/2 82/29/2 68/30/2
f 26/26/2 27/104/2 59/27/2
f 27/104/2 73/150/2 59/27/2
f 73/150/2 69/157/2 55/87/2
f 24/53/2 25/83/2 46/54/2
f 25/83/2 60/151/2 46/54/2
f 60/151/2 56/153/2 42/76/2
f 278/66/2 3/40/2 47/138/2
f 3/40/2 23/220/2 47/138/2
f 275/66/21 2/40/21 164/138/21
f 2/40/21 5/220/21 164/138/21
f 40/53/2 4/83/2 150/54/2
f 4/83/2 276/153/2 150/54/2
f 157/6/2 150/5/2 146/66/2
f 155/59/2 157/6/2 153/65/2
f 145/38/2 152/4/2 157/6/2
f 166/59/21 161/61/21 167/60/21
f 163/5/21 159/66/21 168/65/21
f 169/6/21 168/65/21 161/61/21
f 165/4/21 169/6/21 166/59/21
f 6/40/21 163/5/21 169/6/21
f 170/58/21 167/60/21 160/62/21
f 162/64/21 170/58/21 164/63/21
f 158/38/21 166/59/21 170/58/21
f 179/69/21 174/71/21 180/70/21
f 176/54/21 172/76/21 181/75/21
f 182/52/21 181/75/21 174/71/21
f 178/77/21 182/52/21 179/69/21
f 8/53/21 176/54/21 182/52/21
f 183/67/21 180/70/21 173/72/21
f 175/74/21 183/67/21 177/73/21
f 171/68/21 179/69/21 183/67/21
f 192/80/21 187/82/21 193/81/21
f 189/27/21 185/87/21 194/86/21
f 195/25/21 194/86/21 187/82/21
f 191/88/21 195/25/21 192/80/21
f 10/26/21 189/27/21 195/25/21
f 196/78/21 193/81/21 186/83/21
f 188/85/21 196/78/21 190/84/21
f 184/79/21 192/80/21 196/78/21
f 205/91/21 200/93/21 206/92/21
f 202/24/21 198/30/21 207/96/21
f 208/22/21 207/96/21 200/93/21
f 204/97/21 208/22/21 205/91/21
f 12/23/21 202/24/21 208/22/21
f 209/89/21 206/92/21 199/41/21
f 201/95/21 209/89/21 203/94/21
f 197/90/21 205/91/21 209/89/21
f 222/100/21 218/99/21 213/101/21
f 215/21/21 211/107/21 220/106/21
f 221/19/21 220/106/21 213/101/21
f 217/108/21 221/19/21 218/99/21
f 14/20/21 215/21/21 221/19/21
f 216/103/21 222/100/21 219/102/21
f 13/105/21 214/98/21 222/100/21
f 214/98/21 210/155/21 218/99/21
f 235/111/21 231/110/21 226/112/21
f 234/18/21 228/17/21 224/117/21
f 231/110/21 234/18/21 233/118/21
f 223/119/21 230/16/21 234/18/21
f 230/16/21 16/206/21 228/17/21
f 229/114/21 235/111/21 232/113/21
f 15/116/21 227/109/21 235/111/21
f 227/109/21 223/119/21 231/110/21
f 248/122/21 244/121/21 239/123/21
f 247/15/21 241/14/21 237/128/21
f 244/121/21 247/15/21 246/129/21
f 236/130/21 243/13/21 247/15/21
f 243/13/21 18/205/21 241/14/21
f 242/125/21 248/122/21 245/124/21
f 17/127/21 240/120/21 248/122/21
f 240/120/21 236/130/21 244/121/21
f 261/133/21 257/132/21 252/134/21
f 260/12/21 254/11/21 250/9/21
f 257/132/21 260/12/21 259/144/21
f 249/145/21 256/10/21 260/12/21
f 256/10/21 20/204/21 254/11/21
f 255/136/21 261/133/21 258/135/21
f 19/137/21 253/131/21 261/133/21
f 253/131/21 249/145/21 257/132/21
f 274/58/21 270/59/21 265/61/21
f 273/6/21 267/5/21 263/66/21
f 270/59/21 273/6/21 272/65/21
f 262/38/21 269/4/21 273/6/21
f 269/4/21 22/40/21 267/5/21
f 268/63/21 274/58/21 271/60/21
f 21/149/21 266/64/21 274/58/21
f 266/64/21 262/38/21 270/59/21
f 275/156/11 276/238/11 4/157/11
f 278/159/11 277/239/11 1/160/11
f 18/139/21 19/233/21 255/140/21
f 255/140/21 251/8/21 241/11/21
f 251/8/21 237/9/21 241/11/21
f 16/141/21 17/234/21 242/142/21
f 242/142/21 238/235/21 228/14/21
f 238/235/21 224/128/21 228/14/21
f 14/146/21 15/126/21 229/147/21
f 229/147/21 225/236/21 215/17/21
f 225/236/21 211/117/21 215/17/21
f 12/1/21 13/202/21 202/21/21
f 13/202/21 216/148/21 202/21/21
f 216/148/21 212/237/21 198/107/21
f 10/23/21 11/115/21 189/24/21
f 11/115/21 203/143/21 189/24/21
f 203/143/21 199/29/21 185/30/21
f 8/26/21 9/104/21 176/27/21
f 9/104/21 190/150/21 176/27/21
f 190/150/21 186/157/21 172/87/21
f 6/53/21 7/83/21 163/54/21
f 7/83/21 177/151/21 163/54/21
f 177/151/21 173/153/21 159/76/21
f 22/53/21 1/83/21 267/54/21
f 1/83/21 277/153/21 267/54/21
f 49/240/22 42/241/22 264/242/22
f 49/240/22 264/242/22 271/243/22
f 44/244/22 49/240/22 271/243/22
f 44/244/22 271/243/22 265/162/22
f 263/245/22 43/246/22 50/164/22
f 50/164/22 44/244/22 265/162/22
f 272/163/22 263/245/22 50/164/22
f 278/165/23 43/247/23 263/166/23
f 56/168/42 250/248/42 264/169/42
f 62/249/25 55/250/25 251/251/25
f 62/249/25 251/251/25 258/252/25
f 57/253/25 62/249/25 258/252/25
f 57/253/25 258/252/25 252/170/25
f 250/254/25 56/255/25 63/172/25
f 63/172/25 57/253/25 252/170/25
f 259/171/25 250/254/25 63/172/25
f 69/173/26 237/256/26 251/169/26
f 82/174/27 224/257/27 238/175/27
f 95/177/28 211/258/28 225/169/28
f 108/173/29 198/259/29 212/169/29
f 121/173/30 185/259/30 199/169/30
f 134/173/31 172/259/31 186/169/31
f 147/9/32 159/259/32 173/178/32
f 160/169/33 146/260/33 276/179/33
f 75/261/34 68/262/34 238/263/34
f 75/261/34 238/263/34 245/264/34
f 70/265/34 75/261/34 245/264/34
f 70/265/34 245/264/34 239/181/34
f 237/266/34 69/267/34 76/183/34
f 76/183/34 70/265/34 239/181/34
f 246/182/34 237/266/34 76/183/34
f 88/268/35 81/269/35 225/270/35
f 88/268/35 225/270/35 232/271/35
f 83/272/35 88/268/35 232/271/35
f 83/272/35 232/271/35 226/184/35
f 224/273/35 82/274/35 89/186/35
f 89/186/35 83/272/35 226/184/35
f 233/185/35 224/273/35 89/186/35
f 101/275/36 94/276/36 212/277/36
f 101/275/36 212/277/36 219/278/36
f 96/279/36 101/275/36 219/278/36
f 96/279/36 219/278/36 213/187/36
f 211/280/36 95/281/36 102/189/36
f 102/189/36 96/279/36 213/187/36
f 220/188/36 211/280/36 102/189/36
f 114/282/37 107/283/37 199/284/37
f 114/282/37 199/284/37 206/285/37
f 109/286/37 114/282/37 206/285/37
f 109/286/37 206/285/37 200/190/37
f 198/287/37 108/288/37 115/192/37
f 115/192/37 109/286/37 200/190/37
f 207/191/37 198/287/37 115/192/37
f 127/289/38 120/290/38 193/291/38
f 120/290/38 186/292/38 193/291/38
f 122/293/38 127/289/38 193/291/38
f 122/293/38 193/291/38 187/193/38
f 185/294/38 121/295/38 128/195/38
f 128/195/38 122/293/38 187/193/38
f 194/194/38 185/294/38 128/195/38
f 140/296/39 133/297/39 173/298/39
f 140/296/39 173/298/39 180/299/39
f 135/300/39 140/296/39 180/299/39
f 135/300/39 180/299/39 174/196/39
f 172/301/39 134/302/39 141/198/39
f 141/198/39 135/300/39 174/196/39
f 181/197/39 172/301/39 141/198/39
f 153/303/40 146/304/40 160/305/40
f 153/303/40 160/305/40 167/306/40
f 148/307/40 153/303/40 167/306/40
f 148/307/40 167/306/40 161/199/40
f 159/308/40 147/309/40 154/201/40
f 154/201/40 148/307/40 161/199/40
f 168/200/40 159/308/40 154/201/40
