# Blender 5.1.2
# www.blender.org
mtllib small_half_column_up.mtl
o column_small_up
v 0.370557 0.000000 0.687498
v 0.370557 1.000000 0.687498
v 0.629443 0.000000 0.687498
v 0.629443 1.000000 0.687498
v 0.812502 0.000000 0.870557
v 0.812502 1.000000 0.870557
v 0.187498 0.000000 0.870557
v 0.187498 1.000000 0.870557
v 0.629443 1.000000 0.687498
v 0.370557 1.000000 0.687498
v 0.812502 1.000000 0.870557
v 0.187498 1.000000 0.870557
v 0.629443 1.750000 0.687498
v 0.370557 1.750000 0.687498
v 0.812502 1.750000 0.870557
v 0.187498 1.750000 0.870557
v 0.812502 0.000000 1.000396
v 0.812502 1.000000 1.000396
v 0.187498 0.000000 1.001714
v 0.187498 1.000000 1.001714
v 0.812502 1.000000 1.000396
v 0.187498 1.000000 1.001714
v 0.812502 1.750000 1.000396
v 0.187498 1.750000 1.001714
v 0.240451 1.750000 1.001602
v 0.758674 1.750000 1.000509
v 0.497440 1.750000 1.001060
v 0.759096 0.000000 1.000508
v 0.241777 0.000000 1.001600
v 0.502534 0.000000 1.001050
vn -0.0000 -0.0000 -1.0000
vn 0.7071 -0.0000 -0.7071
vn -1.0000 -0.0000 -0.0000
vn -0.7071 -0.0000 -0.7071
vn -0.0000 -1.0000 -0.0000
vn -0.0000 1.0000 -0.0000
vn 1.0000 -0.0000 -0.0000
vn 0.0021 -0.0000 1.0000
vt 0.250000 0.999936
vt 0.250000 0.000064
vt 0.000064 0.000000
vt 0.000064 1.000000
vt 1.000000 0.000000
vt 1.000000 1.000000
vt 0.750064 0.999936
vt 0.750064 0.000064
vt 0.626687 0.000032
vt 0.626687 0.999968
vt 0.500064 0.999936
vt 0.500064 0.000064
vt 0.500000 0.000000
vt 0.500000 1.000000
vt 0.250064 0.999936
vt 0.250064 0.000064
vt 0.497466 0.498986
vt 0.756904 0.495276
vt 0.812500 0.625000
vt 0.000064 0.999936
vt 0.250000 1.000000
vt 0.250000 0.000000
vt 0.000064 0.000064
vt 0.124618 1.000000
vt 0.498976 0.502560
vt 0.496355 0.242633
vt 0.625000 0.187500
vt 0.624618 0.000000
vt 0.750000 0.000000
vt 0.750000 0.750000
vt 0.624618 0.750000
vt 0.000000 0.000000
vt 0.250000 0.750000
vt 0.000000 0.750000
vt 0.500000 0.750000
vt 1.000000 0.750000
vt 0.812500 0.375000
vt 0.499618 0.187500
vt 0.625000 0.812500
vt 0.375000 0.812500
vt 0.999895 0.999895
vt 0.375095 0.999895
vt 0.375095 0.000105
vt 0.999895 0.000105
vt 0.812500 0.498345
vt 0.242202 0.502638
vt 0.501554 0.758262
vt 0.498345 0.812500
vt 0.626655 0.000000
vt 0.626655 0.750000
vt 0.000064 0.999936
vt 0.126687 0.999968
vt 0.750000 1.000000
vt 0.624618 1.000000
vt 0.624650 0.000032
vt 0.187500 0.625000
vt 0.187500 0.499618
vt 0.812432 0.999931
vt 0.812431 0.250068
vt 0.187605 0.250069
vt 0.187605 0.999932
s 0
usemtl column_mat_top
f 30/17/5 29/18/5 7/19/5
f 27/25/6 26/26/6 15/27/6
f 15/27/6 13/37/6 14/19/6
f 26/26/6 23/38/6 15/27/6
f 7/19/5 1/39/5 3/40/5
f 29/18/5 19/45/5 7/19/5
f 7/19/5 3/40/5 28/46/5 30/17/5
f 15/27/6 14/19/6 25/47/6 27/25/6
f 14/19/6 16/39/6 24/48/6 25/47/6
f 3/40/5 5/56/5 17/57/5 28/46/5
usemtl column_mat_side
f 1/1/1 2/2/1 4/3/1 3/4/1
f 3/5/2 4/6/2 6/7/2 5/8/2
f 19/9/3 20/10/3 8/11/3 7/12/3
f 7/13/4 8/14/4 2/15/4 1/16/4
f 6/20/6 4/21/6 9/21/6 11/20/6
f 2/20/6 8/21/6 12/21/6 10/20/6
f 4/22/6 2/23/6 10/23/6 9/22/6
f 18/24/6 6/21/6 11/21/6 21/24/6
f 21/28/7 11/29/7 15/30/7 23/31/7
f 9/32/1 10/22/1 14/33/1 13/34/1
f 10/22/4 12/13/4 16/35/4 14/33/4
f 11/29/2 9/5/2 13/36/2 15/30/2
f 18/41/8 20/42/8 19/43/8 17/44/8
f 12/13/3 22/49/3 24/50/3 16/35/3
f 8/51/6 20/52/6 22/52/6 12/51/6
f 5/29/7 6/53/7 18/54/7 17/55/7
f 24/58/8 22/59/8 21/60/8 23/61/8
