# Blender 5.1.2
# www.blender.org
mtllib small_roman_doric_half_capital.mtl
o Cube.295
v 0.337471 0.429223 0.607621
v 0.337471 0.512022 0.607621
v 0.662529 0.429223 0.607621
v 0.662529 0.512022 0.607621
v 0.892379 0.429223 0.837471
v 0.892379 0.512022 0.837471
v 0.107621 0.429223 0.837471
v 0.107621 0.512022 0.837471
v 0.632874 0.512022 0.679214
v 0.367126 0.512022 0.679214
v 0.820786 0.512022 0.867126
v 0.179214 0.512022 0.867126
v 0.632874 0.602472 0.679214
v 0.367126 0.602472 0.679214
v 0.820786 0.602472 0.867126
v 0.179214 0.602472 0.867126
v 0.642782 0.602472 0.655294
v 0.357218 0.602472 0.655294
v 0.844706 0.602472 0.857218
v 0.155294 0.602472 0.857218
v 0.642782 0.681616 0.655294
v 0.357218 0.681616 0.655294
v 0.844706 0.681616 0.857218
v 0.155294 0.681616 0.857218
v 0.675257 0.794678 0.576893
v 0.324743 0.794678 0.576893
v 0.923107 0.794678 0.824743
v 0.076893 0.794678 0.824743
v 0.675257 0.862516 0.576893
v 0.324743 0.862516 0.576893
v 0.923107 0.862516 0.824743
v 0.076893 0.862516 0.824743
v 1.000007 0.941659 0.499993
v -0.000007 0.941659 0.499993
v 1.000007 1.001659 0.499993
v -0.000007 1.001659 0.499993
v 0.923107 0.862514 0.576893
v 0.076893 0.862514 0.576893
v 0.892379 0.429223 1.000000
v 0.892379 0.512022 1.000000
v 0.107621 0.429223 1.000000
v 0.107621 0.512022 1.000000
v 0.820786 0.512022 1.000000
v 0.179214 0.512022 1.000000
v 0.820786 0.602472 1.000000
v 0.179214 0.602472 1.000000
v 0.844706 0.602472 1.000000
v 0.155294 0.602472 1.000000
v 0.844706 0.681616 1.000000
v 0.155294 0.681616 1.000000
v 0.923107 0.794678 1.000000
v 0.076893 0.794678 1.000000
v 0.923107 0.862516 1.000000
v 0.076893 0.862516 1.000000
v 1.000007 0.941659 1.000000
v -0.000007 0.941659 1.000000
v 1.000007 1.001659 1.000000
v -0.000007 1.001659 1.000000
v 0.923107 0.862514 1.000000
v 0.076893 0.862514 1.000000
vn -0.0000 -0.0000 -1.0000
vn 0.7071 -0.0000 -0.7071
vn -0.0000 -0.0000 1.0000
vn -1.0000 -0.0000 -0.0000
vn -0.7071 -0.0000 -0.7071
vn -0.0000 1.0000 -0.0000
vn -0.0000 -1.0000 -0.0000
vn 1.0000 -0.0000 -0.0000
vn 0.5811 -0.5698 -0.5811
vn 0.8218 -0.5698 -0.0000
vn -0.0000 -0.5698 -0.8218
vn -0.5811 -0.5698 -0.5811
vn -0.7172 -0.6969 -0.0000
vn -0.0000 -0.6969 -0.7172
vn 0.7172 -0.6969 -0.0000
vn -0.8218 -0.5698 -0.0000
vt 0.538472 0.993722
vt 0.210348 0.911691
vt 0.538472 0.911691
vt 0.538472 0.618722
vt 0.210348 0.536691
vt 0.538472 0.536691
vt 0.639170 0.923069
vt 0.500037 0.000037
vt 0.639171 0.076931
vt 0.249410 0.243722
vt 0.085348 0.161691
vt 0.249410 0.161691
vt 0.975972 0.618722
vt 0.647848 0.536691
vt 0.975972 0.536691
vt 0.518009 0.242121
vt 0.608463 0.507879
vt 0.518009 0.507879
vt 0.914089 0.788471
vt 0.842903 0.491361
vt 0.914089 0.461535
vt 0.851589 0.649035
vt 0.780403 0.946145
vt 0.780403 0.678861
vt 0.164089 0.725971
vt 0.092903 0.428861
vt 0.164089 0.399035
vt 0.351589 0.250003
vt 0.280403 0.383645
vt 0.280403 0.250003
vt 0.615117 0.320379
vt 0.591196 0.187500
vt 0.615117 0.187500
vt 0.455509 0.054621
vt 0.545963 0.320379
vt 0.455509 0.320379
vt 0.330509 0.117121
vt 0.420963 0.250000
vt 0.330509 0.250000
vt 0.080509 0.367121
vt 0.170963 0.632879
vt 0.080509 0.632879
vt 0.427617 0.382879
vt 0.403696 0.107213
vt 0.427617 0.117121
vt 0.240117 0.757879
vt 0.216196 0.482213
vt 0.240117 0.492121
vt 0.677617 0.945379
vt 0.653696 0.669713
vt 0.677617 0.679621
vt 0.795092 0.607213
vt 0.874238 0.750000
vt 0.795092 0.750000
vt 0.545092 0.357213
vt 0.624238 0.642787
vt 0.545092 0.642787
vt 0.107592 0.669713
vt 0.186738 0.955287
vt 0.107592 0.955287
vt 0.232592 0.044713
vt 0.311738 0.330287
vt 0.232592 0.330287
vt 0.062520 0.574737
vt 0.130360 0.925263
vt 0.062520 0.925263
vt 0.776055 0.330287
vt 0.913645 0.012237
vt 0.913645 0.362763
vt 0.838554 0.669713
vt 0.976145 0.812500
vt 0.838555 0.812500
vt 0.526054 0.357213
vt 0.663645 0.675263
vt 0.526055 0.642787
vt 0.088554 0.357213
vt 0.226145 0.675263
vt 0.088555 0.642787
vt 0.062520 0.074737
vt 0.130360 0.425263
vt 0.062520 0.425263
vt 0.875020 0.074737
vt 0.942860 0.250000
vt 0.875020 0.250000
vt 0.312520 0.324737
vt 0.380360 0.675263
vt 0.312520 0.675263
vt 0.437523 1.000007
vt 0.497523 -0.000007
vt 0.497523 1.000007
vt 0.375023 0.500000
vt 0.435023 -0.000007
vt 0.435023 0.500000
vt 0.562530 0.500000
vt 0.672880 0.076901
vt 0.672880 0.500000
vt 0.000030 0.000002
vt 0.110380 0.923099
vt 0.000030 0.999998
vt 0.500000 0.000100
vt 0.000100 0.999900
vt 0.000100 0.000100
vt 0.000100 0.999900
vt 0.999900 0.500000
vt 0.999900 0.999900
vt 0.372523 -0.000007
vt 0.312523 0.500000
vt 0.312523 -0.000007
vt 0.875030 0.500000
vt 0.985380 0.923099
vt 0.875030 0.999998
vt 0.875020 0.500000
vt 0.942860 0.675263
vt 0.875020 0.675263
vt 0.401055 0.330287
vt 0.538645 0.187500
vt 0.538645 0.362763
vt 0.045092 0.187500
vt 0.124238 0.330287
vt 0.045092 0.330287
vt 0.552617 0.617121
vt 0.528696 0.750000
vt 0.528696 0.607213
vt 0.268009 0.250000
vt 0.358463 0.382879
vt 0.268009 0.382879
vt 0.539089 0.312503
vt 0.467903 0.178861
vt 0.539089 0.149035
vt 0.475972 0.306222
vt 0.311910 0.224191
vt 0.475972 0.224191
vt 0.892366 0.500000
vt 0.107634 0.500000
vt 0.662523 0.107634
vt 0.950477 0.999928
vt 0.949477 0.999928
vt 0.949477 0.000185
vt 0.210348 0.993722
vt 0.210348 0.618722
vt 0.560032 0.999963
vt 0.500037 0.999963
vt 0.560032 0.000037
vt 0.085348 0.243722
vt 0.647848 0.618722
vt 0.608463 0.242121
vt 0.842903 0.758645
vt 0.851589 0.975971
vt 0.092903 0.696145
vt 0.351589 0.413471
vt 0.591196 0.330287
vt 0.545963 0.054621
vt 0.420963 0.117121
vt 0.170963 0.367121
vt 0.403696 0.392787
vt 0.216196 0.767787
vt 0.653696 0.955287
vt 0.874238 0.607213
vt 0.624238 0.357213
vt 0.186738 0.669713
vt 0.311738 0.044713
vt 0.130360 0.574737
vt 0.776054 0.044713
vt 0.976145 0.637237
vt 0.663645 0.324737
vt 0.226145 0.324737
vt 0.130360 0.074737
vt 0.942860 0.074737
vt 0.380360 0.324737
vt 0.437523 -0.000007
vt 0.375023 -0.000007
vt 0.562530 0.000002
vt 0.110380 0.076901
vt 0.500000 0.999900
vt 0.000100 0.500000
vt 0.372523 0.500000
vt 0.985380 0.500000
vt 0.942860 0.500000
vt 0.401054 0.187500
vt 0.124238 0.187500
vt 0.552617 0.750000
vt 0.358463 0.250000
vt 0.467903 0.312503
vt 0.311910 0.306222
vt 0.107634 0.337477
vt 0.337477 0.107634
vt 0.892366 0.337477
vt 0.869331 0.999928
vt 0.735756 0.907303
vt 0.642253 0.907303
vt 0.642253 0.879044
vt 0.535393 0.879044
vt 0.535393 0.963625
vt 0.437572 0.963625
vt 0.437572 0.036489
vt 0.535393 0.036489
vt 0.535393 0.121070
vt 0.642253 0.121070
vt 0.642253 0.092811
vt 0.735756 0.092810
vt 0.869331 0.000185
vt 0.950477 0.000072
s 0
usemtl doric_small
f 2/1/1 3/2/1 1/3/1
f 4/4/2 5/5/2 3/6/2
f 59/7/3 58/8/3 60/9/3
f 42/10/4 7/11/4 41/12/4
f 8/13/5 1/14/5 7/15/5
f 12/16/5 14/17/5 10/18/5
f 4/19/6 11/20/6 6/21/6
f 2/22/6 12/23/6 10/24/6
f 2/25/6 9/26/6 4/27/6
f 40/28/6 11/29/6 43/30/6
f 15/31/7 47/32/7 45/33/7
f 9/34/2 15/35/2 11/36/2
f 11/37/8 45/38/8 43/39/8
f 10/40/1 13/41/1 9/42/1
f 14/43/7 17/44/7 13/45/7
f 16/46/7 18/47/7 14/48/7
f 13/49/7 19/50/7 15/51/7
f 19/52/8 49/53/8 47/54/8
f 18/55/1 21/56/1 17/57/1
f 20/58/5 22/59/5 18/60/5
f 17/61/2 23/62/2 19/63/2
f 28/64/5 30/65/5 26/66/5
f 23/67/9 25/68/9 27/69/9
f 23/70/10 51/71/10 49/72/10
f 22/73/11 25/74/11 21/75/11
f 24/76/12 26/77/12 22/78/12
f 25/79/2 31/80/2 27/81/2
f 27/82/8 53/83/8 51/84/8
f 26/85/1 29/86/1 25/87/1
f 36/88/1 33/89/1 34/90/1
f 58/91/4 34/92/4 56/93/4
f 56/94/13 38/95/13 60/96/13
f 33/97/14 38/98/14 34/99/14
f 59/100/7 38/101/7 37/102/7
f 36/103/6 57/104/6 35/105/6
f 35/106/8 55/107/8 33/108/8
f 55/109/15 37/110/15 33/111/15
f 52/112/4 32/113/4 28/114/4
f 24/115/16 52/116/16 28/117/16
f 48/118/4 24/119/4 20/120/4
f 16/121/7 48/122/7 20/123/7
f 44/124/4 16/125/4 12/126/4
f 42/127/6 12/128/6 8/129/6
f 6/130/8 39/131/8 5/132/8
f 39/133/7 41/134/7 3/135/7
f 60/136/1 54/137/1 53/138/1
f 2/1/1 4/139/1 3/2/1
f 4/4/2 6/140/2 5/5/2
f 59/7/3 55/141/3 57/142/3
f 57/142/3 58/8/3 59/7/3
f 58/8/3 56/143/3 60/9/3
f 42/10/4 8/144/4 7/11/4
f 8/13/5 2/145/5 1/14/5
f 12/16/5 16/146/5 14/17/5
f 4/19/6 9/147/6 11/20/6
f 2/22/6 8/148/6 12/23/6
f 2/25/6 10/149/6 9/26/6
f 40/28/6 6/150/6 11/29/6
f 15/31/7 19/151/7 47/32/7
f 9/34/2 13/152/2 15/35/2
f 11/37/8 15/153/8 45/38/8
f 10/40/1 14/154/1 13/41/1
f 14/43/7 18/155/7 17/44/7
f 16/46/7 20/156/7 18/47/7
f 13/49/7 17/157/7 19/50/7
f 19/52/8 23/158/8 49/53/8
f 18/55/1 22/159/1 21/56/1
f 20/58/5 24/160/5 22/59/5
f 17/61/2 21/161/2 23/62/2
f 28/64/5 32/162/5 30/65/5
f 23/67/9 21/163/9 25/68/9
f 23/70/10 27/164/10 51/71/10
f 22/73/11 26/165/11 25/74/11
f 24/76/12 28/166/12 26/77/12
f 25/79/2 29/167/2 31/80/2
f 27/82/8 31/168/8 53/83/8
f 26/85/1 30/169/1 29/86/1
f 36/88/1 35/170/1 33/89/1
f 58/91/4 36/171/4 34/92/4
f 56/94/13 34/172/13 38/95/13
f 33/97/14 37/173/14 38/98/14
f 59/100/7 60/174/7 38/101/7
f 36/103/6 58/175/6 57/104/6
f 35/106/8 57/176/8 55/107/8
f 55/109/15 59/177/15 37/110/15
f 52/112/4 54/178/4 32/113/4
f 24/115/16 50/179/16 52/116/16
f 48/118/4 50/180/4 24/119/4
f 16/121/7 46/181/7 48/122/7
f 44/124/4 46/182/4 16/125/4
f 42/127/6 44/183/6 12/128/6
f 6/130/8 40/184/8 39/131/8
f 7/185/7 1/186/7 41/134/7
f 1/186/7 3/135/7 41/134/7
f 3/135/7 5/187/7 39/133/7
f 54/137/3 52/188/3 50/189/3
f 50/189/3 48/190/3 46/191/3
f 44/192/3 42/193/3 41/194/3
f 44/192/3 41/194/3 39/195/3
f 39/195/3 40/196/3 43/197/3
f 45/198/3 47/199/3 49/200/3
f 44/192/3 39/195/3 43/197/3
f 44/192/3 43/197/3 45/198/3
f 46/191/3 44/192/3 45/198/3
f 49/200/3 51/201/3 53/138/3
f 46/191/3 45/198/3 49/200/3
f 50/189/3 46/191/3 49/200/3
f 50/189/3 49/200/3 53/138/3
f 54/137/3 50/189/3 53/138/3
f 59/202/1 60/136/1 53/138/1
