# Blender 5.1.2
# www.blender.org
mtllib small_roman_doric_base.mtl
o Cube.296
v 0.292894 0.207435 -0.000001
v 0.292894 0.321095 -0.000001
v 0.707106 0.207435 -0.000001
v 0.707106 0.321095 -0.000001
v 0.999998 0.207435 0.292891
v 0.999998 0.321095 0.292891
v 0.999998 0.207435 0.707103
v 0.999998 0.321095 0.707103
v 0.707106 0.207435 0.999995
v 0.707106 0.321095 0.999995
v 0.292894 0.207435 0.999995
v 0.292894 0.321095 0.999995
v 0.000002 0.207435 0.707103
v 0.000002 0.321095 0.707103
v 0.000002 0.207435 0.292891
v 0.000002 0.321095 0.292891
v 0.648299 0.471119 0.141971
v 0.351701 0.471119 0.141971
v 0.858026 0.471119 0.351698
v 0.858026 0.471119 0.648297
v 0.648299 0.471119 0.858024
v 0.351701 0.471119 0.858024
v 0.141974 0.471119 0.648297
v 0.141974 0.471119 0.351698
v 0.000006 0.207435 -0.000001
v 0.999994 0.207435 -0.000001
v 0.999994 0.207435 0.999995
v 0.000006 0.207435 0.999995
v 0.000006 -0.000003 -0.000001
v 0.999994 -0.000003 -0.000001
v 0.999994 -0.000003 0.999995
v 0.000006 -0.000003 0.999995
vn -0.0000 -0.0000 -1.0000
vn 0.7071 -0.0000 -0.7071
vn 1.0000 -0.0000 -0.0000
vn 0.7071 -0.0000 0.7071
vn -0.0000 -0.0000 1.0000
vn -0.7071 -0.0000 0.7071
vn -0.0000 0.6873 0.7263
vn -1.0000 -0.0000 -0.0000
vn -0.7071 -0.0000 -0.7071
vn -0.0000 1.0000 -0.0000
vn -0.5136 0.6873 -0.5136
vn -0.0000 0.6873 -0.7263
vn 0.7263 0.6873 -0.0000
vn -0.5136 0.6873 0.5136
vn 0.5136 0.6873 0.5136
vn -0.7263 0.6873 -0.0000
vn 0.5136 0.6873 -0.5136
vn -0.0000 -1.0000 -0.0000
vt 0.249687 0.600125
vt 0.600125 0.700250
vt 0.249687 0.700250
vt 0.499687 0.475125
vt 0.850125 0.575250
vt 0.499687 0.575250
vt 0.062187 0.037625
vt 0.412625 0.137750
vt 0.062187 0.137750
vt 0.562187 0.100125
vt 0.912625 0.200250
vt 0.562187 0.200250
vt 0.062187 0.787625
vt 0.412625 0.887750
vt 0.062187 0.887750
vt 0.062187 0.350125
vt 0.412625 0.450250
vt 0.062187 0.450250
vt 0.927571 0.746561
vt 0.618338 0.923480
vt 0.576520 0.746561
vt 0.624687 0.787625
vt 0.975125 0.887750
vt 0.624687 0.887750
vt 0.312187 0.225125
vt 0.662625 0.325250
vt 0.312187 0.325250
vt 0.045938 0.383667
vt 0.954136 0.553900
vt 0.045938 0.553833
vt 0.809081 0.628026
vt 0.371974 0.809081
vt 0.190919 0.371974
vt 0.490071 0.184061
vt 0.180838 0.360980
vt 0.139020 0.184061
vt 0.615071 0.559061
vt 0.305838 0.735980
vt 0.264020 0.559061
vt 0.365071 0.184061
vt 0.055838 0.360980
vt 0.014020 0.184061
vt 0.427571 0.059061
vt 0.118338 0.235980
vt 0.076520 0.059061
vt 0.427571 0.746561
vt 0.118338 0.923480
vt 0.076520 0.746561
vt 0.014020 0.371561
vt 0.323253 0.548480
vt 0.055838 0.548480
vt 0.414228 0.000064
vt 0.000064 0.000064
vt 0.045938 0.571167
vt 0.954136 0.741400
vt 0.045938 0.741333
vt 0.000064 0.999936
vt 0.414228 0.999936
vt 0.931640 0.931646
vt 0.068354 0.068354
vt 0.931640 0.068354
vt 0.931643 0.068354
vt 0.068357 0.931646
vt 0.068357 0.068354
vt 0.045996 0.178876
vt 0.954004 0.008624
vt 0.954004 0.178876
vt 0.045996 0.991376
vt 0.954004 0.821124
vt 0.954004 0.991376
vt 0.600125 0.600125
vt 0.850125 0.475125
vt 0.412625 0.037625
vt 0.912625 0.100125
vt 0.412625 0.787625
vt 0.412625 0.350125
vt 0.885753 0.923480
vt 0.975125 0.787625
vt 0.662625 0.225125
vt 0.954136 0.383600
vt 0.371974 0.190919
vt 0.628026 0.190919
vt 0.809081 0.371974
vt 0.628026 0.809081
vt 0.190919 0.628026
vt 0.448253 0.360980
vt 0.573253 0.735980
vt 0.323253 0.360980
vt 0.385753 0.235980
vt 0.385753 0.923480
vt 0.365071 0.371561
vt 0.954136 0.571100
vt 0.068354 0.931646
vt 0.931643 0.931646
vt 0.045996 0.008624
vt 0.045996 0.821124
s 0
usemtl roman_doric_base
f 2/1/1 3/2/1 1/3/1
f 4/4/2 5/5/2 3/6/2
f 6/7/3 7/8/3 5/9/3
f 8/10/4 9/11/4 7/12/4
f 10/13/5 11/14/5 9/15/5
f 12/16/6 13/17/6 11/18/6
f 10/19/7 22/20/7 12/21/7
f 14/22/8 15/23/8 13/24/8
f 16/25/9 1/26/9 15/27/9
f 31/28/3 26/29/3 27/30/3
f 23/31/10 21/32/10 19/33/10
f 16/34/11 18/35/11 2/36/11
f 2/37/12 17/38/12 4/39/12
f 6/19/13 20/20/13 8/21/13
f 12/40/14 23/41/14 14/42/14
f 8/43/15 21/44/15 10/45/15
f 14/46/16 24/47/16 16/48/16
f 6/49/17 17/50/17 19/51/17
f 9/52/10 28/53/10 27/52/10
f 29/54/8 28/55/8 25/56/8
f 1/57/10 26/58/10 25/57/10
f 28/59/10 26/60/10 25/61/10
f 30/62/18 32/63/18 29/64/18
f 28/65/5 31/66/5 27/67/5
f 26/68/1 29/69/1 25/70/1
f 2/1/1 4/71/1 3/2/1
f 4/4/2 6/72/2 5/5/2
f 6/7/3 8/73/3 7/8/3
f 8/10/4 10/74/4 9/11/4
f 10/13/5 12/75/5 11/14/5
f 12/16/6 14/76/6 13/17/6
f 10/19/7 21/77/7 22/20/7
f 14/22/8 16/78/8 15/23/8
f 16/25/9 2/79/9 1/26/9
f 31/28/3 30/80/3 26/29/3
f 19/33/10 17/81/10 18/82/10
f 18/82/10 24/83/10 23/31/10
f 23/31/10 22/84/10 21/32/10
f 21/32/10 20/85/10 19/33/10
f 19/33/10 18/82/10 23/31/10
f 16/34/11 24/86/11 18/35/11
f 2/37/12 18/87/12 17/38/12
f 6/19/13 19/77/13 20/20/13
f 12/40/14 22/88/14 23/41/14
f 8/43/15 20/89/15 21/44/15
f 14/46/16 23/90/16 24/47/16
f 6/49/17 4/91/17 17/50/17
f 9/52/18 11/53/18 28/53/18
f 29/54/8 32/92/8 28/55/8
f 1/57/18 3/58/18 26/58/18
f 28/59/10 27/93/10 26/60/10
f 30/62/18 31/94/18 32/63/18
f 28/65/5 32/95/5 31/66/5
f 26/68/1 30/96/1 29/69/1
