# Blender 5.1.2
# www.blender.org
mtllib small_ionic_half_capital.mtl
o ionic_capital_small
v 0.124999 0.943750 0.510000
v 0.124999 0.756250 0.510000
v 0.874999 0.943750 0.510000
v 0.874999 0.756250 0.510000
v 0.074995 0.660000 0.823958
v 0.074995 0.760000 0.823958
v 0.323956 0.660000 0.574997
v 0.323956 0.760000 0.574997
v 0.676041 0.660000 0.574997
v 0.676041 0.760000 0.574997
v 0.925002 0.660000 0.823958
v 0.925002 0.760000 0.823958
v 0.726255 0.883743 0.622500
v 0.726255 0.883743 0.497500
v 0.670857 0.750000 0.622500
v 0.670857 0.750000 0.497500
v 0.726255 0.616257 0.622500
v 0.726255 0.616257 0.497500
v 0.859998 0.560859 0.622500
v 0.859998 0.560859 0.497500
v 0.993741 0.616257 0.622500
v 0.993741 0.616257 0.497500
v 1.049139 0.750000 0.622500
v 1.049139 0.750000 0.497500
v 0.993741 0.883743 0.622500
v 0.993741 0.883743 0.497500
v 0.859998 0.939141 0.622500
v 0.859998 0.939141 0.497500
v 0.006253 0.883743 0.622500
v 0.006253 0.883743 0.497500
v -0.049145 0.750000 0.622500
v -0.049145 0.750000 0.497500
v 0.006253 0.616257 0.622500
v 0.006253 0.616257 0.497500
v 0.139996 0.560859 0.622500
v 0.139996 0.560859 0.497500
v 0.273739 0.616257 0.622500
v 0.273739 0.616257 0.497500
v 0.329137 0.750000 0.622500
v 0.329137 0.750000 0.497500
v 0.273739 0.883743 0.622500
v 0.273739 0.883743 0.497500
v 0.139996 0.939141 0.622500
v 0.139996 0.939141 0.497500
v 0.045569 0.844427 0.615000
v 0.006456 0.750000 0.615000
v 0.045569 0.655573 0.615000
v 0.139996 0.616460 0.615000
v 0.234423 0.655573 0.615000
v 0.273536 0.750000 0.615000
v 0.234423 0.844427 0.615000
v 0.139996 0.883540 0.615000
v 0.765568 0.844427 0.615000
v 0.726455 0.750000 0.615000
v 0.765568 0.655573 0.615000
v 0.859995 0.616460 0.615000
v 0.954422 0.655573 0.615000
v 0.993535 0.750000 0.615000
v 0.954422 0.844427 0.615000
v 0.859995 0.883540 0.615000
v 0.093749 1.001250 0.500000
v 0.093749 0.938750 0.500000
v 0.906249 1.001250 0.500000
v 0.906249 0.938750 0.500000
v 0.124999 0.756250 1.000000
v 0.874999 0.943750 1.000000
v 0.874999 0.756250 1.000000
v 0.124999 0.943750 1.000000
v 0.074995 0.660000 1.000000
v 0.925002 0.660000 1.000000
v 0.045569 0.844427 1.000000
v 0.006456 0.750000 1.000000
v 0.045569 0.655573 1.000000
v 0.139996 0.616460 1.000000
v 0.234423 0.655573 1.000000
v 0.273536 0.750000 1.000000
v 0.234423 0.844427 1.000000
v 0.139996 0.883540 1.000000
v 0.765568 0.844427 1.000000
v 0.726455 0.750000 1.000000
v 0.765568 0.655573 1.000000
v 0.859995 0.616460 1.000000
v 0.954423 0.655573 1.000000
v 0.993536 0.750000 1.000000
v 0.954422 0.844427 1.000000
v 0.859995 0.883540 1.000000
v 0.093749 0.938750 1.000000
v 0.906249 1.001250 1.000000
v 0.906249 0.938750 1.000000
v 0.093749 1.001250 1.000000
v 0.147914 0.660000 1.000000
v 0.852083 0.660000 1.000000
v 0.499999 0.660000 1.000000
vn -0.0000 -1.0000 -0.0000
vn -0.0000 -0.0000 -1.0000
vn -1.0000 -0.0000 -0.0000
vn -0.7071 -0.0000 -0.7071
vn 0.7071 -0.0000 -0.7071
vn -0.0000 -0.0000 1.0000
vn -0.9239 0.3827 -0.0000
vn -0.9239 -0.3827 -0.0000
vn -0.3827 -0.9239 -0.0000
vn 0.3827 -0.9239 -0.0000
vn 0.9239 -0.3827 -0.0000
vn 0.9239 0.3827 -0.0000
vn 0.3827 0.9239 -0.0000
vn -0.3827 0.9239 -0.0000
vn -0.0000 1.0000 -0.0000
vn 1.0000 -0.0000 -0.0000
vn -0.0000 0.8154 -0.5790
vt 0.375000 0.500000
vt 0.250000 0.750000
vt 0.250000 0.500000
vt 1.000000 1.000000
vt -0.000000 0.750000
vt 1.000000 0.750000
vt 0.500000 1.000000
vt 0.500000 0.750000
vt 0.437500 0.625000
vt 0.000000 0.500000
vt 0.437500 0.500000
vt 0.623375 0.551104
vt 0.448896 0.623375
vt 0.376625 0.448896
vt 0.000000 1.000000
vt 0.187500 0.750000
vt 0.187500 1.000000
vt 0.000000 0.250000
vt 0.187500 0.000000
vt 0.187500 0.250000
vt 0.750000 0.750000
vt 0.937500 0.500000
vt 0.937500 0.750000
vt 0.250000 0.375000
vt 0.437500 0.375000
vt 0.187500 0.375000
vt 0.000000 0.125000
vt 0.187500 0.125000
vt 0.812500 1.000000
vt 0.625000 0.750000
vt 0.812500 0.750000
vt 0.343051 0.696011
vt 0.343051 0.389926
vt 0.649137 0.389926
vt 0.125000 0.625000
vt 0.312500 0.375000
vt 0.312500 0.625000
vt 0.343051 0.696011
vt 0.496094 0.759404
vt 0.649137 0.696011
vt 0.076947 0.999972
vt 0.000028 0.000028
vt 0.076947 0.000028
vt 0.500000 0.750000
vt 0.687500 0.500000
vt 0.687500 0.750000
vt 0.000000 0.375000
vt 0.750000 0.250000
vt 0.937500 0.000000
vt 0.937500 0.250000
vt 0.750000 0.500000
vt 0.250000 0.625000
vt 0.000000 0.750000
vt 0.343051 0.389926
vt 0.649136 0.389926
vt 0.257763 0.999964
vt 0.125037 0.500000
vt 0.257764 0.500000
vt 0.382763 0.999964
vt 0.250037 0.500000
vt 0.382764 0.500000
vt 0.507763 0.999964
vt 0.375037 0.500000
vt 0.507764 0.500000
vt 0.632764 0.500000
vt 0.500036 0.999964
vt 0.500036 0.500000
vt 0.414228 0.999936
vt 0.000064 0.500000
vt 0.414227 0.500000
vt 0.414228 0.999936
vt 0.000064 0.500000
vt 0.414228 0.500000
vt 0.000064 0.500000
vt 0.414227 0.500000
vt 0.132763 0.999964
vt 0.000037 0.500000
vt 0.132763 0.500000
vt 0.000064 0.500000
vt 0.414228 0.000064
vt 0.414228 0.500000
vt 0.000064 0.500000
vt 0.414228 0.500000
vt 0.632763 0.500000
vt 0.500036 0.500000
vt 0.375036 0.000036
vt 0.507763 0.500000
vt 0.375037 0.500000
vt 0.250036 0.000036
vt 0.382763 0.500000
vt 0.250036 0.500000
vt 0.125036 0.000036
vt 0.257763 0.500000
vt 0.125036 0.500000
vt 0.000037 0.500000
vt 0.132763 0.500000
vt 0.414228 0.999936
vt 0.000064 0.500000
vt 0.375000 0.750000
vt 1.000000 0.062500
vt 1.000000 0.125000
vt 0.500000 0.062500
vt 0.500000 0.125000
vt 0.914131 0.500000
vt 0.999900 0.500000
vt 0.999900 0.707065
vt 0.707065 0.999900
vt 0.292935 0.999900
vt 0.500000 0.500000
vt 0.279659 0.542969
vt 0.496094 0.326533
vt 0.712529 0.542969
vt 0.649136 0.696011
vt 0.496094 0.759404
vt 0.712529 0.542969
vt 0.279659 0.542969
vt 0.875025 0.000050
vt 0.625050 0.999950
vt 0.875025 0.999950
vt 0.448897 0.376627
vt 0.623372 0.448897
vt 0.551102 0.623373
vt 0.085869 0.500000
vt 0.000090 0.500000
vt 0.812444 0.999910
vt 0.000090 0.999910
vt 0.500000 0.125000
vt 0.000100 0.707065
vt 0.875034 0.500000
vt 0.875034 0.085814
vt 0.988260 0.058856
vt 0.625000 0.500000
vt 0.500000 0.750000
vt 0.000000 0.625000
vt 0.551103 0.376625
vt 0.623375 0.448896
vt 0.551103 0.623375
vt 0.376625 0.551104
vt 0.448896 0.376625
vt 0.000000 0.000000
vt 0.625000 1.000000
vt 0.125000 0.375000
vt 0.000028 0.999972
vt 0.500000 0.500000
vt 0.750000 0.000000
vt 0.125036 0.999964
vt 0.250037 0.999964
vt 0.375037 0.999964
vt 0.632763 0.999964
vt 0.000064 0.999936
vt 0.000065 0.999936
vt 0.000064 0.999936
vt 0.000036 0.999964
vt 0.000064 0.000064
vt 0.000064 0.999936
vt 0.507763 0.000036
vt 0.382763 0.000036
vt 0.257763 0.000036
vt 0.000000 0.062500
vt 0.625050 0.000050
vt 0.376627 0.551102
vt 0.376627 0.448897
vt 0.551102 0.376627
vt 0.623372 0.551102
vt 0.448897 0.623373
vt 0.812444 0.500000
vt 0.500000 0.062500
vt 0.000100 0.500000
vt 0.875034 0.000034
vt 0.988260 0.941144
vt 0.875034 0.999966
vt 0.875034 0.914186
vt 0.500000 1.000000
s 0
usemtl ionic_volute
f 2/1/1 67/2/1 65/3/1
f 18/32/2 14/33/2 26/34/2
f 23/38/6 25/39/6 27/40/6
f 42/54/2 38/38/2 34/40/2
f 50/71/12 77/72/12 76/73/12
f 51/68/13 78/74/13 77/75/13
f 79/79/7 54/80/7 80/81/7
f 60/97/14 79/98/14 86/83/14
f 87/3/1 64/99/1 89/2/1
f 18/32/2 16/110/2 14/33/2
f 14/33/2 28/111/2 26/34/2
f 26/34/2 24/112/2 22/113/2
f 22/113/2 20/114/2 26/34/2
f 20/114/2 18/32/2 26/34/2
f 34/40/2 32/115/2 30/55/2
f 30/55/2 44/111/2 34/40/2
f 44/111/2 42/54/2 34/40/2
f 42/54/2 40/116/2 38/38/2
f 38/38/2 36/39/2 34/40/2
f 27/40/6 13/115/6 15/55/6
f 15/55/6 17/111/6 27/40/6
f 17/111/6 19/54/6 27/40/6
f 19/54/6 21/116/6 27/40/6
f 21/116/6 23/38/6 27/40/6
f 68/51/15 3/30/15 1/132/15
f 2/1/1 4/99/1 67/2/1
f 50/71/12 51/151/12 77/72/12
f 51/68/13 52/152/13 78/74/13
f 79/79/7 53/154/7 54/80/7
f 60/97/14 53/155/14 79/98/14
f 87/3/1 62/1/1 64/99/1
f 68/51/15 66/21/15 3/30/15
usemtl ionic_egg
f 1/4/2 4/5/2 2/6/2
f 68/7/3 2/5/3 65/8/3
f 6/9/4 7/10/4 5/11/4
f 8/9/2 9/10/2 7/11/2
f 10/9/5 11/10/5 9/11/5
f 61/100/2 64/27/2 62/101/2
f 90/102/3 62/27/3 87/103/3
f 63/100/16 89/127/16 64/101/16
f 3/4/16 67/133/16 4/6/16
f 1/4/2 3/15/2 4/5/2
f 68/7/3 1/15/3 2/5/3
f 6/9/4 8/134/4 7/10/4
f 8/9/2 10/134/2 9/10/2
f 10/9/5 12/134/5 11/10/5
f 61/100/2 63/159/2 64/27/2
f 90/102/3 61/159/3 62/27/3
f 63/100/16 88/167/16 89/127/16
f 3/4/16 66/173/16 67/133/16
usemtl ionic_capital
f 78/12/6 72/13/6 74/14/6
f 14/15/7 15/16/7 13/17/7
f 16/18/8 17/19/8 15/20/8
f 18/21/9 19/22/9 17/23/9
f 19/9/10 22/24/10 21/25/10
f 21/26/11 24/27/11 23/28/11
f 23/29/12 26/30/12 25/31/12
f 26/35/13 27/36/13 25/37/13
f 28/15/14 13/16/14 27/17/14
f 90/41/6 89/42/6 88/43/6
f 30/44/7 31/45/7 29/46/7
f 32/47/8 33/28/8 31/26/8
f 34/48/9 35/49/9 33/50/9
f 35/23/10 38/51/10 37/22/10
f 38/52/11 39/25/11 37/9/11
f 39/17/12 42/53/12 41/16/12
f 42/15/13 43/16/13 41/17/13
f 44/47/14 29/28/14 43/26/14
f 43/40/6 31/55/6 35/54/6
f 45/56/7 72/57/7 71/58/7
f 46/59/8 73/60/8 72/61/8
f 47/62/9 74/63/9 73/64/9
f 74/65/10 49/66/10 75/67/10
f 49/68/11 76/69/11 75/70/11
f 52/76/14 71/77/14 78/78/14
f 54/68/8 81/82/8 80/83/8
f 81/84/9 56/66/9 82/85/9
f 56/86/10 83/87/10 82/88/10
f 57/89/11 84/90/11 83/91/11
f 58/92/12 85/93/12 84/94/12
f 59/76/13 86/95/13 85/96/13
f 91/104/1 69/105/1 5/106/1
f 5/106/1 7/107/1 9/108/1
f 5/106/1 93/109/1 91/104/1
f 67/117/6 68/118/6 65/119/6
f 86/120/6 80/121/6 82/122/6
f 43/40/6 29/115/6 31/55/6
f 31/55/6 33/111/6 35/54/6
f 35/54/6 37/116/6 43/40/6
f 37/116/6 39/38/6 43/40/6
f 39/38/6 41/39/6 43/40/6
f 9/108/1 92/123/1 93/109/1
f 90/124/15 63/125/15 61/126/15
f 11/128/1 92/123/1 9/108/1
f 93/129/2 91/130/2 65/131/2
f 69/105/1 91/104/1 92/123/1
f 76/135/6 77/136/6 78/12/6
f 78/12/6 71/137/6 72/13/6
f 72/13/6 73/138/6 74/14/6
f 74/14/6 75/139/6 76/135/6
f 76/135/6 78/12/6 74/14/6
f 14/15/7 16/53/7 15/16/7
f 16/18/8 18/140/8 17/19/8
f 18/21/9 20/51/9 19/22/9
f 19/9/10 20/52/10 22/24/10
f 21/26/11 22/47/11 24/27/11
f 23/29/12 24/141/12 26/30/12
f 26/35/13 28/142/13 27/36/13
f 28/15/14 14/53/14 13/16/14
f 90/41/6 87/143/6 89/42/6
f 30/44/7 32/144/7 31/45/7
f 32/47/8 34/27/8 33/28/8
f 34/48/9 36/145/9 35/49/9
f 35/23/10 36/21/10 38/51/10
f 38/52/11 40/24/11 39/25/11
f 39/17/12 40/15/12 42/53/12
f 42/15/13 44/53/13 43/16/13
f 44/47/14 30/27/14 29/28/14
f 45/56/7 46/146/7 72/57/7
f 46/59/8 47/147/8 73/60/8
f 47/62/9 48/148/9 74/63/9
f 74/65/10 48/149/10 49/66/10
f 49/68/11 50/150/11 76/69/11
f 52/76/14 45/153/14 71/77/14
f 54/68/8 55/155/8 81/82/8
f 81/84/9 55/149/9 56/66/9
f 56/86/10 57/156/10 83/87/10
f 57/89/11 58/157/11 84/90/11
f 58/92/12 59/158/12 85/93/12
f 59/76/13 60/153/13 86/95/13
f 5/106/1 9/108/1 93/109/1
f 67/117/6 66/160/6 68/118/6
f 84/161/6 85/162/6 86/120/6
f 86/120/6 79/163/6 80/121/6
f 80/121/6 81/164/6 82/122/6
f 82/122/6 83/165/6 84/161/6
f 84/161/6 86/120/6 82/122/6
f 90/124/15 88/166/15 63/125/15
f 11/128/1 70/168/1 92/123/1
f 91/130/2 69/169/2 65/131/2
f 65/131/2 67/170/2 93/129/2
f 67/170/2 70/171/2 92/172/2
f 67/170/2 92/172/2 93/129/2
f 92/123/15 70/168/15 69/105/15
f 91/104/17 93/109/17 92/123/17
