# Blender 5.1.0
# www.blender.org
mtllib small_column.mtl
o column_small
v 0.370557 0.000000 0.187498
v 0.370557 1.000000 0.187498
v 0.629443 0.000000 0.187498
v 0.629443 1.000000 0.187498
v 0.812502 0.000000 0.370557
v 0.812502 1.000000 0.370557
v 0.812502 0.000000 0.629443
v 0.812502 1.000000 0.629443
v 0.629443 0.000000 0.812502
v 0.629443 1.000000 0.812502
v 0.370557 0.000000 0.812502
v 0.370557 1.000000 0.812502
v 0.187498 0.000000 0.629443
v 0.187498 1.000000 0.629443
v 0.187498 0.000000 0.370557
v 0.187498 1.000000 0.370557
vn -0.0000 -0.0000 -1.0000
vn 0.7071 -0.0000 -0.7071
vn 1.0000 -0.0000 -0.0000
vn 0.7071 -0.0000 0.7071
vn -0.0000 -0.0000 1.0000
vn -0.7071 -0.0000 0.7071
vn -0.0000 1.0000 -0.0000
vn -1.0000 -0.0000 -0.0000
vn -0.7071 -0.0000 -0.7071
vn -0.0000 -1.0000 -0.0000
vt 0.250000 0.999936
vt 0.250000 0.000064
vt 0.000064 0.000000
vt 0.000064 1.000000
vt 1.000000 0.000000
vt 1.000000 1.000000
vt 0.750064 0.999936
vt 0.750064 0.000064
vt 0.750000 0.000000
vt 0.750000 1.000000
vt 0.500000 1.000000
vt 0.500064 0.000064
vt 0.500000 0.000000
vt 0.250064 0.999936
vt 0.250064 0.000064
vt 0.250000 0.000000
vt 0.250000 1.000000
vt 0.000064 0.999936
vt 0.000064 0.000064
vt 0.750064 0.999936
vt 0.750064 0.000064
vt 0.375000 0.812500
vt 0.187500 0.375000
vt 0.625000 0.187500
vt 0.500064 0.999936
vt 0.250064 0.999936
vt 0.250064 0.000064
vt 0.812500 0.625000
vt 0.812500 0.375000
vt 0.625000 0.812500
vt 0.187500 0.625000
vt 0.375000 0.187500
s 0
usemtl column_mat_top
f 14/22/7 10/23/7 6/24/7
f 7/23/10 11/24/10 15/28/10
f 6/24/7 4/29/7 2/28/7
f 2/28/7 16/30/7 14/22/7
f 14/22/7 12/31/7 10/23/7
f 10/23/7 8/32/7 6/24/7
f 6/24/7 2/28/7 14/22/7
f 15/28/10 1/30/10 3/22/10
f 3/22/10 5/31/10 7/23/10
f 7/23/10 9/32/10 11/24/10
f 11/24/10 13/29/10 15/28/10
f 15/28/10 3/22/10 7/23/10
usemtl column_mat_side
f 1/1/1 2/2/1 4/3/1 3/4/1
f 3/5/2 4/6/2 6/7/2 5/8/2
f 5/9/3 6/10/3 8/11/3 7/12/3
f 7/13/4 8/11/4 10/14/4 9/15/4
f 9/16/5 10/17/5 12/18/5 11/19/5
f 11/5/6 12/6/6 14/20/6 13/21/6
f 13/9/8 14/10/8 16/25/8 15/12/8
f 15/13/9 16/11/9 2/26/9 1/27/9
