# Blender 5.1.2
# www.blender.org
mtllib small_half_column_both.mtl
o column_small_both
v 0.370557 0.000000 0.687498
v 0.370557 1.000000 0.687498
v 0.629443 0.000000 0.687498
v 0.629443 1.000000 0.687498
v 0.812502 0.000000 0.870557
v 0.812502 1.000000 0.870557
v 0.187498 0.000000 0.870557
v 0.187498 1.000000 0.870557
v 0.629443 1.000000 0.687498
v 0.370557 1.000000 0.687498
v 0.812502 1.000000 0.870557
v 0.187498 1.000000 0.870557
v 0.370557 -0.750000 0.687498
v 0.629443 -0.750000 0.687498
v 0.812502 -0.750000 0.870557
v 0.187498 -0.750000 0.870557
v 0.629443 1.750000 0.687498
v 0.370557 1.750000 0.687498
v 0.812502 1.750000 0.870557
v 0.187498 1.750000 0.870557
v 0.812502 0.000000 1.000401
v 0.812502 1.000000 1.000401
v 0.187498 0.000000 1.001740
v 0.187498 1.000000 1.001740
v 0.812502 1.000000 1.000401
v 0.187498 1.000000 1.001740
v 0.812502 -0.750000 1.000401
v 0.187498 -0.750000 1.001740
v 0.812502 1.750000 1.000401
v 0.187498 1.750000 1.001740
v 0.240441 1.750000 1.001626
v 0.758671 1.750000 1.000517
v 0.497402 1.750000 1.001076
v 0.759099 -0.750000 1.000516
v 0.241787 -0.750000 1.001624
v 0.502572 -0.750000 1.001065
vn -0.0000 -0.0000 -1.0000
vn 0.7071 -0.0000 -0.7071
vn -1.0000 -0.0000 -0.0000
vn -0.7071 -0.0000 -0.7071
vn -0.0000 1.0000 -0.0000
vn -0.0000 -1.0000 -0.0000
vn 1.0000 -0.0000 -0.0000
vn 0.0021 -0.0000 1.0000
vt 0.250000 0.999936
vt 0.250000 0.000064
vt 0.000064 0.000000
vt 0.000064 1.000000
vt 1.000000 0.000000
vt 1.000000 1.000000
vt 0.750064 0.999936
vt 0.750064 0.000064
vt 0.626712 0.000032
vt 0.626712 0.999968
vt 0.500064 0.999936
vt 0.500064 0.000064
vt 0.500000 0.000000
vt 0.500000 1.000000
vt 0.250064 0.999936
vt 0.250064 0.000064
vt 0.000000 0.000000
vt 0.250000 0.000000
vt 0.250000 0.750000
vt 0.000000 0.750000
vt 0.000064 0.999936
vt 0.250000 1.000000
vt 0.000064 0.000064
vt 0.124612 1.000000
vt 0.497428 0.498971
vt 0.756894 0.495252
vt 0.812500 0.625000
vt 1.000000 0.875000
vt 0.750074 0.874926
vt 0.750074 0.125074
vt 1.000000 0.125000
vt 0.875000 0.937500
vt 0.625074 0.937426
vt 0.625074 0.187574
vt 0.875000 0.187500
vt 0.751680 0.187500
vt 0.625000 0.187500
vt 0.625000 0.937500
vt 0.751680 0.937500
vt 0.000074 0.749926
vt 0.000074 0.000074
vt 0.498961 0.502598
vt 0.496348 0.242637
vt 0.126680 0.000000
vt 0.126680 0.750000
vt 0.812500 0.375000
vt 0.499612 0.187500
vt 0.625000 0.812500
vt 0.375000 0.812500
vt 0.812500 0.498320
vt 0.242199 0.502630
vt 0.501531 0.758273
vt 0.498320 0.812500
vt 0.187500 0.625000
vt 0.187500 0.499612
vt 0.000064 0.999936
vt 0.126712 0.999968
vt 0.750000 0.000000
vt 0.750000 1.000000
vt 0.624612 1.000000
vt 0.624645 0.000032
vt 0.375087 0.937413
vt 0.999950 0.937413
vt 0.999950 0.187587
vt 0.375087 0.187587
vt 0.250095 0.000105
vt 0.874895 0.000105
vt 0.874895 0.999895
vt 0.250095 0.999895
vt 0.000105 0.999932
vt 0.000105 0.250068
vt 0.624932 0.250068
vt 0.624932 0.999932
s 0
usemtl column_mat_top
f 36/25/6 35/26/6 16/27/6
f 33/42/5 32/43/5 19/37/5
f 19/37/5 17/46/5 18/27/5
f 32/43/5 29/47/5 19/37/5
f 16/27/6 13/48/6 14/49/6
f 35/26/6 28/50/6 16/27/6
f 16/27/6 14/49/6 34/51/6 36/25/6
f 19/37/5 18/27/5 31/52/5 33/42/5
f 18/27/5 20/48/5 30/53/5 31/52/5
f 14/49/6 15/54/6 27/55/6 34/51/6
usemtl column_mat_side
f 1/1/1 2/2/1 4/3/1 3/4/1
f 3/5/2 4/6/2 6/7/2 5/8/2
f 23/9/3 24/10/3 8/11/3 7/12/3
f 7/13/4 8/14/4 2/15/4 1/16/4
f 9/17/1 10/18/1 18/19/1 17/20/1
f 6/21/5 4/22/5 9/22/5 11/21/5
f 2/21/5 8/22/5 12/22/5 10/21/5
f 4/18/5 2/23/5 10/23/5 9/18/5
f 22/24/5 6/22/5 11/22/5 25/24/5
f 7/28/4 1/29/4 13/30/4 16/31/4
f 1/32/1 3/33/1 14/34/1 13/35/1
f 23/36/3 7/37/3 16/38/3 28/39/3
f 3/19/2 5/40/2 15/41/2 14/18/2
f 10/17/4 12/18/4 20/19/4 18/20/4
f 11/37/2 9/35/2 17/32/2 19/38/2
f 25/17/7 11/44/7 19/45/7 29/20/7
f 12/17/3 26/44/3 30/45/3 20/20/3
f 8/56/5 24/57/5 26/57/5 12/56/5
f 5/58/7 6/59/7 22/60/7 21/61/7
f 5/44/7 21/17/7 27/20/7 15/45/7
f 28/62/8 27/63/8 21/64/8 23/65/8
f 23/66/8 21/67/8 22/68/8 24/69/8
f 30/70/8 26/71/8 25/72/8 29/73/8
