# Blender 5.0.1
# www.blender.org
mtllib wide_arch.mtl
o Cube
usemtl arch_mat
v 0.000000 0.499834 -0.000500
v -0.500000 0.499834 -0.000500
v 1.000000 0.499834 -0.000500
v 1.500000 0.499834 -0.000500
v 0.000000 0.499834 1.000500
v -0.500000 0.499834 1.000500
v 1.000000 0.499834 1.000500
v 1.500000 0.499834 1.000500
v 0.998199 0.542583 -0.000500
v 0.971439 0.667764 -0.000500
v 0.955614 0.707467 -0.000500
v 0.889018 0.816509 -0.000500
v 0.860978 0.848629 -0.000500
v 0.762154 0.929076 -0.000500
v 0.725102 0.949943 -0.000500
v 0.605340 0.992603 -0.000500
v 0.563509 0.999834 -0.000500
v 0.436491 0.999834 -0.000500
v 0.394660 0.992603 -0.000500
v 0.274898 0.949943 -0.000500
v 0.237846 0.929076 -0.000500
v 0.139022 0.848629 -0.000500
v 0.110982 0.816509 -0.000500
v 0.044386 0.707467 -0.000500
v 0.028561 0.667764 -0.000500
v 0.001801 0.542583 -0.000500
v -0.496398 0.585333 -0.000500
v -0.442878 0.835694 -0.000500
v -0.411228 0.915099 -0.000500
v -0.278036 1.133184 -0.000500
v -0.221956 1.197423 -0.000500
v -0.024307 1.358317 -0.000500
v 0.049796 1.400052 -0.000500
v 0.289321 1.485372 -0.000500
v 0.372982 1.499834 -0.000500
v 0.627018 1.499834 -0.000500
v 0.710679 1.485372 -0.000500
v 0.950204 1.400051 -0.000500
v 1.024307 1.358317 -0.000500
v 1.221956 1.197423 -0.000500
v 1.278036 1.133184 -0.000500
v 1.411228 0.915099 -0.000500
v 1.442878 0.835694 -0.000500
v 1.496398 0.585333 -0.000500
v 0.001801 0.542583 1.000500
v 0.028561 0.667764 1.000500
v 0.044386 0.707467 1.000500
v 0.110982 0.816509 1.000500
v 0.139022 0.848629 1.000500
v 0.237846 0.929076 1.000500
v 0.274898 0.949943 1.000500
v 0.394660 0.992603 1.000500
v 0.436491 0.999834 1.000500
v 0.563509 0.999834 1.000500
v 0.605340 0.992603 1.000500
v 0.725102 0.949943 1.000500
v 0.762154 0.929076 1.000500
v 0.860978 0.848629 1.000500
v 0.889018 0.816509 1.000500
v 0.955614 0.707467 1.000500
v 0.971439 0.667764 1.000500
v 0.998199 0.542583 1.000500
v 1.496398 0.585333 1.000500
v 1.442878 0.835694 1.000500
v 1.411228 0.915099 1.000500
v 1.278036 1.133184 1.000500
v 1.221956 1.197423 1.000500
v 1.024307 1.358317 1.000500
v 0.950204 1.400052 1.000500
v 0.710679 1.485372 1.000500
v 0.627018 1.499834 1.000500
v 0.372982 1.499834 1.000500
v 0.289321 1.485372 1.000500
v 0.049796 1.400051 1.000500
v -0.024307 1.358317 1.000500
v -0.221956 1.197423 1.000500
v -0.278036 1.133184 1.000500
v -0.411229 0.915099 1.000500
v -0.442878 0.835694 1.000500
v -0.496398 0.585333 1.000500
v -0.469638 0.710514 1.000500
v 0.015181 0.605174 1.000500
v -0.207158 0.751729 1.000500
v -0.247298 0.563958 1.000500
v -0.227228 0.657844 1.000500
v -0.483018 0.647923 1.000500
v 0.008491 0.573879 1.000500
v -0.089298 0.709747 1.000500
v -0.122748 0.553271 1.000500
v -0.456258 0.773104 1.000500
v 0.021871 0.636469 1.000500
v -0.325018 0.793712 1.000500
v -0.371848 0.574645 1.000500
v -0.217193 0.704787 1.000500
v -0.237263 0.610901 1.000500
v -0.348433 0.684179 1.000500
v -0.106023 0.631509 1.000500
v -0.114386 0.592390 1.000500
v -0.360140 0.629412 1.000500
v -0.336725 0.738945 1.000500
v -0.097661 0.670628 1.000500
v -0.344632 1.024142 1.000500
v 0.077684 0.761988 1.000500
v -0.083527 0.974847 1.000500
v -0.183421 0.811283 1.000500
v -0.133474 0.893065 1.000500
v -0.377930 0.969620 1.000500
v 0.061035 0.734727 1.000500
v 0.013728 0.895678 1.000500
v -0.069518 0.759375 1.000500
v -0.311334 1.078663 1.000500
v 0.094333 0.789249 1.000500
v -0.180781 1.054015 1.000500
v -0.297325 0.863191 1.000500
v -0.108500 0.933956 1.000500
v -0.158448 0.852174 1.000500
v -0.239053 0.958603 1.000500
v -0.027895 0.827526 1.000500
v -0.048706 0.793451 1.000500
v -0.268189 0.910897 1.000500
v -0.209917 1.006309 1.000500
v -0.007084 0.861602 1.000500
v -0.123132 1.277870 1.000500
v 0.188434 0.888852 1.000500
v 0.106770 1.143696 1.000500
v -0.041467 1.023026 1.000500
v 0.032651 1.083361 1.000500
v -0.172544 1.237647 1.000500
v 0.163728 0.868740 1.000500
v 0.172308 1.036386 1.000500
v 0.048777 0.935827 1.000500
v -0.073720 1.318093 1.000500
v 0.213140 0.908964 1.000500
v 0.041231 1.251006 1.000500
v -0.131712 1.110225 1.000500
v 0.069710 1.113529 1.000500
v -0.004408 1.053194 1.000500
v -0.045240 1.180616 1.000500
v 0.110543 0.986107 1.000500
v 0.079660 0.960967 1.000500
v -0.088476 1.145420 1.000500
v -0.002005 1.215811 1.000500
v 0.141425 1.011246 1.000500
v 0.169558 1.442712 1.000500
v 0.334779 0.971273 1.000500
v 0.341991 1.238988 1.000500
v 0.162347 1.174997 1.000500
v 0.252169 1.206992 1.000500
v 0.109677 1.421382 1.000500
v 0.304839 0.960608 1.000500
v 0.368325 1.115795 1.000500
v 0.218623 1.062470 1.000500
v 0.229440 1.464042 1.000500
v 0.364720 0.981938 1.000500
v 0.315656 1.362180 1.000500
v 0.106072 1.287524 1.000500
v 0.297080 1.222990 1.000500
v 0.207258 1.190995 1.000500
v 0.210864 1.324852 1.000500
v 0.293474 1.089133 1.000500
v 0.256048 1.075801 1.000500
v 0.158468 1.306188 1.000500
v 0.263260 1.343516 1.000500
v 0.330900 1.102464 1.000500
v 0.500000 1.499834 1.000500
v 0.500000 0.999834 1.000500
v 0.595263 1.249834 1.000500
v 0.404737 1.249834 1.000500
v 0.500000 1.249834 1.000500
v 0.436491 1.499834 1.000500
v 0.468246 0.999834 1.000500
v 0.579386 1.124834 1.000500
v 0.420614 1.124834 1.000500
v 0.563509 1.499834 1.000500
v 0.531754 0.999834 1.000500
v 0.611141 1.374834 1.000500
v 0.388859 1.374834 1.000500
v 0.547632 1.249834 1.000500
v 0.452368 1.249834 1.000500
v 0.500000 1.374834 1.000500
v 0.500000 1.124834 1.000500
v 0.460307 1.124834 1.000500
v 0.444430 1.374834 1.000500
v 0.555570 1.374834 1.000500
v 0.539693 1.124834 1.000500
v 0.830441 1.442712 1.000500
v 0.665221 0.971273 1.000500
v 0.837653 1.174997 1.000500
v 0.658009 1.238988 1.000500
v 0.747831 1.206992 1.000500
v 0.770560 1.464042 1.000500
v 0.635280 0.981938 1.000500
v 0.781377 1.062470 1.000500
v 0.631675 1.115795 1.000500
v 0.890323 1.421382 1.000500
v 0.695161 0.960608 1.000500
v 0.893928 1.287524 1.000500
v 0.684344 1.362180 1.000500
v 0.792742 1.190995 1.000500
v 0.702920 1.222990 1.000500
v 0.789136 1.324852 1.000500
v 0.706526 1.089133 1.000500
v 0.669100 1.102464 1.000500
v 0.736740 1.343516 1.000500
v 0.841532 1.306188 1.000500
v 0.743952 1.075801 1.000500
v 1.123132 1.277870 1.000500
v 0.811566 0.888852 1.000500
v 1.041467 1.023026 1.000500
v 0.893230 1.143696 1.000500
v 0.967349 1.083361 1.000500
v 1.073720 1.318093 1.000500
v 0.786860 0.908964 1.000500
v 0.951223 0.935827 1.000500
v 0.827692 1.036386 1.000500
v 1.172544 1.237647 1.000500
v 0.836272 0.868740 1.000500
v 1.131712 1.110225 1.000500
v 0.958769 1.251006 1.000500
v 1.004408 1.053194 1.000500
v 0.930290 1.113529 1.000500
v 1.045240 1.180616 1.000500
v 0.889457 0.986107 1.000500
v 0.858575 1.011246 1.000500
v 1.002005 1.215811 1.000500
v 1.088476 1.145420 1.000500
v 0.920340 0.960967 1.000500
v 1.344632 1.024142 1.000500
v 0.922316 0.761988 1.000500
v 1.183421 0.811283 1.000500
v 1.083527 0.974847 1.000500
v 1.133474 0.893065 1.000500
v 1.311334 1.078663 1.000500
v 0.905667 0.789249 1.000500
v 1.069518 0.759375 1.000500
v 0.986272 0.895678 1.000500
v 1.377930 0.969620 1.000500
v 0.938965 0.734727 1.000500
v 1.297325 0.863191 1.000500
v 1.180781 1.054015 1.000500
v 1.158448 0.852174 1.000500
v 1.108500 0.933956 1.000500
v 1.239053 0.958603 1.000500
v 1.027895 0.827526 1.000500
v 1.007084 0.861602 1.000500
v 1.209917 1.006309 1.000500
v 1.268189 0.910897 1.000500
v 1.048706 0.793451 1.000500
v 1.469638 0.710514 1.000500
v 0.984819 0.605174 1.000500
v 1.247298 0.563958 1.000500
v 1.207158 0.751729 1.000500
v 1.227228 0.657844 1.000500
v 1.456258 0.773104 1.000500
v 0.978129 0.636469 1.000500
v 1.122748 0.553271 1.000500
v 1.089298 0.709747 1.000500
v 1.483018 0.647923 1.000500
v 0.991509 0.573879 1.000500
v 1.371848 0.574645 1.000500
v 1.325018 0.793712 1.000500
v 1.237263 0.610901 1.000500
v 1.217193 0.704787 1.000500
v 1.348433 0.684179 1.000500
v 1.106023 0.631509 1.000500
v 1.097661 0.670628 1.000500
v 1.336725 0.738945 1.000500
v 1.360140 0.629412 1.000500
v 1.114386 0.592390 1.000500
v 0.984819 0.605174 -0.000500
v 1.469638 0.710513 -0.000500
v 1.207158 0.751729 -0.000500
v 1.247298 0.563958 -0.000500
v 1.227228 0.657844 -0.000500
v 0.991509 0.573879 -0.000500
v 1.483018 0.647923 -0.000500
v 1.089298 0.709747 -0.000500
v 1.122748 0.553271 -0.000500
v 0.978129 0.636469 -0.000500
v 1.456258 0.773104 -0.000500
v 1.325018 0.793712 -0.000500
v 1.371848 0.574645 -0.000500
v 1.348433 0.684179 -0.000500
v 1.106023 0.631509 -0.000500
v 1.237263 0.610901 -0.000500
v 1.217193 0.704787 -0.000500
v 1.097661 0.670628 -0.000500
v 1.114386 0.592390 -0.000500
v 1.360140 0.629412 -0.000500
v 1.336725 0.738945 -0.000500
v 0.922316 0.761988 -0.000500
v 1.344632 1.024141 -0.000500
v 1.083527 0.974847 -0.000500
v 1.183421 0.811283 -0.000500
v 1.133474 0.893065 -0.000500
v 0.938965 0.734727 -0.000500
v 1.377930 0.969620 -0.000500
v 0.986272 0.895678 -0.000500
v 1.069518 0.759375 -0.000500
v 0.905667 0.789249 -0.000500
v 1.311334 1.078663 -0.000500
v 1.180781 1.054015 -0.000500
v 1.297325 0.863191 -0.000500
v 1.239053 0.958603 -0.000500
v 1.027895 0.827526 -0.000500
v 1.158448 0.852174 -0.000500
v 1.108500 0.933956 -0.000500
v 1.007084 0.861602 -0.000500
v 1.048706 0.793451 -0.000500
v 1.268189 0.910897 -0.000500
v 1.209917 1.006309 -0.000500
v 0.811566 0.888852 -0.000500
v 1.123132 1.277870 -0.000500
v 0.893231 1.143696 -0.000500
v 1.041467 1.023026 -0.000500
v 0.967349 1.083361 -0.000500
v 0.836272 0.868740 -0.000500
v 1.172544 1.237647 -0.000500
v 0.827692 1.036386 -0.000500
v 0.951223 0.935827 -0.000500
v 0.786860 0.908964 -0.000500
v 1.073720 1.318093 -0.000500
v 0.958769 1.251006 -0.000500
v 1.131712 1.110225 -0.000500
v 1.045240 1.180616 -0.000500
v 0.889457 0.986107 -0.000500
v 1.004408 1.053194 -0.000500
v 0.930290 1.113529 -0.000500
v 0.858575 1.011246 -0.000500
v 0.920340 0.960967 -0.000500
v 1.088476 1.145420 -0.000500
v 1.002005 1.215811 -0.000500
v 0.665221 0.971273 -0.000500
v 0.830442 1.442712 -0.000500
v 0.658009 1.238988 -0.000500
v 0.837653 1.174997 -0.000500
v 0.747831 1.206992 -0.000500
v 0.695161 0.960608 -0.000500
v 0.890323 1.421382 -0.000500
v 0.631675 1.115795 -0.000500
v 0.781377 1.062470 -0.000500
v 0.635280 0.981938 -0.000500
v 0.770561 1.464042 -0.000500
v 0.684344 1.362180 -0.000500
v 0.893928 1.287524 -0.000500
v 0.789136 1.324852 -0.000500
v 0.706526 1.089133 -0.000500
v 0.792742 1.190995 -0.000500
v 0.702920 1.222990 -0.000500
v 0.669100 1.102464 -0.000500
v 0.743952 1.075801 -0.000500
v 0.841532 1.306188 -0.000500
v 0.736740 1.343516 -0.000500
v 0.500000 0.999834 -0.000500
v 0.500000 1.499834 -0.000500
v 0.404737 1.249834 -0.000500
v 0.595263 1.249834 -0.000500
v 0.500000 1.249834 -0.000500
v 0.531754 0.999834 -0.000500
v 0.563509 1.499834 -0.000500
v 0.420614 1.124834 -0.000500
v 0.579386 1.124834 -0.000500
v 0.468245 0.999834 -0.000500
v 0.436491 1.499834 -0.000500
v 0.388859 1.374834 -0.000500
v 0.611141 1.374834 -0.000500
v 0.500000 1.374834 -0.000500
v 0.500000 1.124834 -0.000500
v 0.547632 1.249834 -0.000500
v 0.452368 1.249834 -0.000500
v 0.460307 1.124834 -0.000500
v 0.539693 1.124834 -0.000500
v 0.555570 1.374834 -0.000500
v 0.444430 1.374834 -0.000500
v 0.334779 0.971273 -0.000500
v 0.169559 1.442712 -0.000500
v 0.162347 1.174997 -0.000500
v 0.341991 1.238988 -0.000500
v 0.252169 1.206992 -0.000500
v 0.364720 0.981938 -0.000500
v 0.229440 1.464042 -0.000500
v 0.218623 1.062470 -0.000500
v 0.368325 1.115795 -0.000500
v 0.304839 0.960608 -0.000500
v 0.109677 1.421382 -0.000500
v 0.106072 1.287524 -0.000500
v 0.315656 1.362180 -0.000500
v 0.210864 1.324852 -0.000500
v 0.293474 1.089133 -0.000500
v 0.297080 1.222990 -0.000500
v 0.207258 1.190995 -0.000500
v 0.256048 1.075801 -0.000500
v 0.330900 1.102464 -0.000500
v 0.263260 1.343516 -0.000500
v 0.158468 1.306188 -0.000500
v 0.188434 0.888852 -0.000500
v -0.123132 1.277870 -0.000500
v -0.041467 1.023026 -0.000500
v 0.106770 1.143696 -0.000500
v 0.032651 1.083361 -0.000500
v 0.213140 0.908964 -0.000500
v -0.073720 1.318093 -0.000500
v 0.048777 0.935827 -0.000500
v 0.172308 1.036386 -0.000500
v 0.163728 0.868740 -0.000500
v -0.172544 1.237647 -0.000500
v -0.131712 1.110225 -0.000500
v 0.041231 1.251006 -0.000500
v -0.045240 1.180616 -0.000500
v 0.110543 0.986107 -0.000500
v 0.069710 1.113529 -0.000500
v -0.004408 1.053194 -0.000500
v 0.079660 0.960967 -0.000500
v 0.141425 1.011246 -0.000500
v -0.002005 1.215811 -0.000500
v -0.088476 1.145420 -0.000500
v 0.077684 0.761988 -0.000500
v -0.344632 1.024142 -0.000500
v -0.183421 0.811283 -0.000500
v -0.083527 0.974847 -0.000500
v -0.133474 0.893065 -0.000500
v 0.094333 0.789249 -0.000500
v -0.311334 1.078663 -0.000500
v -0.069518 0.759375 -0.000500
v 0.013728 0.895678 -0.000500
v 0.061035 0.734727 -0.000500
v -0.377930 0.969620 -0.000500
v -0.297325 0.863191 -0.000500
v -0.180781 1.054015 -0.000500
v -0.239053 0.958603 -0.000500
v -0.027895 0.827526 -0.000500
v -0.108500 0.933956 -0.000500
v -0.158448 0.852174 -0.000500
v -0.048706 0.793451 -0.000500
v -0.007084 0.861602 -0.000500
v -0.209917 1.006309 -0.000500
v -0.268189 0.910897 -0.000500
v 0.015181 0.605174 -0.000500
v -0.469638 0.710514 -0.000500
v -0.247298 0.563958 -0.000500
v -0.207158 0.751729 -0.000500
v -0.227228 0.657844 -0.000500
v 0.021871 0.636469 -0.000500
v -0.456258 0.773104 -0.000500
v -0.122748 0.553271 -0.000500
v -0.089298 0.709747 -0.000500
v 0.008491 0.573879 -0.000500
v -0.483018 0.647923 -0.000500
v -0.371848 0.574645 -0.000500
v -0.325018 0.793712 -0.000500
v -0.348433 0.684179 -0.000500
v -0.106023 0.631509 -0.000500
v -0.217193 0.704787 -0.000500
v -0.237263 0.610901 -0.000500
v -0.114386 0.592390 -0.000500
v -0.097661 0.670628 -0.000500
v -0.336725 0.738945 -0.000500
v -0.360140 0.629412 -0.000500
vn -0.0000 -0.0000 -1.0000
vn -0.0000 -1.0000 -0.0000
vn -0.0000 -0.0000 1.0000
vn 0.9991 -0.0421 -0.0000
vn -0.9991 -0.0421 -0.0000
vn -0.9289 -0.3703 -0.0000
vn -0.7533 -0.6576 -0.0000
vn -0.9779 -0.2090 -0.0000
vn -0.8534 -0.5212 -0.0000
vn -0.6313 -0.7755 -0.0000
vn -0.4907 -0.8713 -0.0000
vn -0.3356 -0.9420 -0.0000
vn 0.3356 -0.9420 -0.0000
vn -0.1703 -0.9854 -0.0000
vn 0.6313 -0.7755 -0.0000
vn 0.1703 -0.9854 -0.0000
vn 0.4907 -0.8713 -0.0000
vn 0.7533 -0.6576 -0.0000
vn 0.8534 -0.5212 -0.0000
vn 0.9289 -0.3703 -0.0000
vn 0.9779 -0.2090 -0.0000
vn -0.9991 0.0421 -0.0000
vn 0.9991 0.0421 -0.0000
vn 0.9289 0.3703 -0.0000
vn 0.7533 0.6576 -0.0000
vn 0.4907 0.8713 -0.0000
vn 0.1703 0.9854 -0.0000
vn -0.1703 0.9854 -0.0000
vn -0.4907 0.8713 -0.0000
vn -0.8534 0.5212 -0.0000
vn -0.6313 0.7755 -0.0000
vn -0.3356 0.9420 -0.0000
vn -0.7533 0.6576 -0.0000
vn -0.0000 1.0000 -0.0000
vn 0.3356 0.9420 -0.0000
vn 0.6313 0.7755 -0.0000
vn -0.9289 0.3703 -0.0000
vn 0.8534 0.5212 -0.0000
vn 0.9779 0.2090 -0.0000
vn -0.9779 0.2090 -0.0000
vt 0.750000 0.812500
vt 0.250000 0.812500
vt 0.500000 0.750000
vt 0.250000 0.312500
vt 0.500000 0.250000
vt 0.500000 0.312500
vt 0.625000 0.750000
vt 0.375000 0.312500
vt 0.625000 0.250000
vt 0.625000 0.312500
vt 0.000000 0.312500
vt 1.000000 0.250000
vt 1.000000 0.312500
vt 0.500000 0.609375
vt 0.625000 0.562500
vt 0.625000 0.609375
vt 0.000000 0.062500
vt 1.000000 0.000000
vt 1.000000 0.062500
vt 0.000000 0.609375
vt 0.125000 0.562500
vt 0.125000 0.609375
vt 0.250000 0.859375
vt 0.375000 0.812500
vt 0.375000 0.859375
vt 0.500000 0.109375
vt 0.625000 0.062500
vt 0.625000 0.109375
vt 0.125000 0.109375
vt 0.000000 0.062500
vt 0.125000 0.062500
vt 0.375000 0.359375
vt 0.250000 0.312500
vt 0.375000 0.312500
vt 0.500000 0.562500
vt 0.000000 0.562500
vt 1.000000 0.500000
vt 1.000000 0.562500
vt 1.000000 0.406250
vt 0.000000 0.406250
vt 0.000000 0.375000
vt 1.000000 0.468750
vt 0.000000 0.468750
vt 0.000000 0.437500
vt 1.000000 0.906250
vt 0.000000 0.906250
vt 0.000000 0.875000
vt 0.000000 0.812500
vt 1.000000 0.750000
vt 1.000000 0.812500
vt 1.000000 0.968750
vt 0.000000 0.968750
vt 0.000000 0.937500
vt 1.000000 0.406250
vt 0.000000 0.406250
vt 0.000000 0.375000
vt 1.000000 0.468750
vt 0.000000 0.468750
vt 0.000000 0.437500
vt 0.625000 0.812500
vt 0.750000 0.859375
vt 0.625000 0.859375
vt 0.375000 0.562500
vt 0.500000 0.609375
vt 0.375000 0.609375
vt 0.875000 0.562500
vt 1.000000 0.609375
vt 0.875000 0.609375
vt 0.625000 0.312500
vt 0.750000 0.359375
vt 0.625000 0.359375
vt 0.375000 0.062500
vt 0.500000 0.109375
vt 0.375000 0.109375
vt 0.875000 0.109375
vt 1.000000 0.062500
vt 1.000000 0.109375
vt 0.750000 0.812500
vt 0.250000 0.812500
vt 1.000000 0.406250
vt 0.000000 0.406250
vt 0.000000 0.375000
vt 0.750000 0.250000
vt 0.500000 0.312500
vt 0.671875 0.562500
vt 0.562500 0.562500
vt 0.671875 0.500000
vt 0.000000 0.562500
vt 0.125000 0.500000
vt 0.750000 0.750000
vt 1.000000 0.000000
vt 1.000000 0.062500
vt 0.875000 0.062500
vt 0.250000 0.062500
vt 0.250000 0.000000
vt 0.375000 0.250000
vt 0.875000 0.500000
vt 1.000000 0.500000
vt 1.000000 0.562500
vt 0.500000 0.562500
vt 0.375000 0.500000
vt 0.500000 0.562500
vt 0.625000 0.500000
vt 0.250000 0.562500
vt 0.500000 0.812500
vt 0.875000 0.000000
vt 0.750000 0.062500
vt 0.375000 0.000000
vt 0.500000 0.000000
vt 0.500000 0.062500
vt 0.625000 0.250000
vt 0.625000 0.953125
vt 0.500000 0.906250
vt 0.625000 0.906250
vt 0.375000 0.953125
vt 0.250000 0.906250
vt 0.375000 0.906250
vt 0.500000 0.953125
vt 0.500000 1.000000
vt 0.375000 1.000000
vt 0.250000 0.953125
vt 0.750000 0.953125
vt 0.750000 0.906250
vt 0.750000 1.000000
vt 0.625000 1.000000
vt 0.500000 0.859375
vt 0.375000 0.703125
vt 0.250000 0.656250
vt 0.375000 0.656250
vt 0.125000 0.703125
vt 0.000000 0.656250
vt 0.125000 0.656250
vt 0.250000 0.703125
vt 0.250000 0.750000
vt 0.125000 0.750000
vt 0.000000 0.703125
vt 0.500000 0.703125
vt 0.500000 0.656250
vt 0.500000 0.750000
vt 0.375000 0.750000
vt 0.250000 0.609375
vt 0.750000 0.562500
vt 0.875000 0.703125
vt 0.750000 0.656250
vt 0.875000 0.656250
vt 0.625000 0.703125
vt 0.500000 0.656250
vt 0.625000 0.656250
vt 0.750000 0.703125
vt 0.750000 0.750000
vt 0.500000 0.703125
vt 1.000000 0.703125
vt 1.000000 0.656250
vt 1.000000 0.750000
vt 0.875000 0.750000
vt 0.750000 0.609375
vt 0.625000 0.359375
vt 0.625000 0.453125
vt 0.500000 0.406250
vt 0.625000 0.406250
vt 0.375000 0.453125
vt 0.250000 0.406250
vt 0.375000 0.406250
vt 0.500000 0.453125
vt 0.500000 0.500000
vt 0.250000 0.453125
vt 0.750000 0.453125
vt 0.750000 0.406250
vt 0.750000 0.500000
vt 0.750000 0.312500
vt 0.500000 0.359375
vt 0.250000 0.359375
vt 0.375000 0.109375
vt 0.250000 0.203125
vt 0.375000 0.156250
vt 0.375000 0.203125
vt 0.000000 0.203125
vt 0.125000 0.156250
vt 0.125000 0.203125
vt 0.250000 0.156250
vt 0.125000 0.250000
vt 0.250000 0.250000
vt 0.000000 0.250000
vt 0.500000 0.156250
vt 0.500000 0.203125
vt 0.500000 0.250000
vt 0.500000 0.062500
vt 0.250000 0.109375
vt 0.000000 0.109375
vt 0.750000 0.109375
vt 0.875000 0.109375
vt 0.750000 0.203125
vt 0.875000 0.156250
vt 0.875000 0.203125
vt 0.500000 0.203125
vt 0.625000 0.156250
vt 0.625000 0.203125
vt 0.750000 0.156250
vt 0.750000 0.250000
vt 0.500000 0.250000
vt 1.000000 0.156250
vt 1.000000 0.203125
vt 0.875000 0.250000
vt 1.000000 0.250000
vt 0.500000 0.156250
vt 0.250000 1.000000
vt 0.000000 0.750000
vt 0.625000 0.453125
vt 0.250000 0.500000
vt 0.375000 0.203125
vt 0.000000 0.156250
vt 0.875000 0.203125
vt 0.250000 0.250000
vt 0.375000 0.250000
vt 0.000000 0.250000
vt 0.000000 0.000000
vt 0.500000 0.062500
vt 0.000000 0.500000
vt 0.000000 0.312500
vt 1.000000 0.312500
vt 1.000000 0.343750
vt 0.000000 0.343750
vt 1.000000 0.375000
vt 1.000000 0.437500
vt 1.000000 0.375000
vt 1.000000 0.437500
vt 1.000000 0.843750
vt 0.000000 0.843750
vt 1.000000 0.875000
vt 1.000000 0.937500
vt 1.000000 1.000000
vt 0.000000 1.000000
vt 1.000000 0.343750
vt 0.000000 0.343750
vt 0.000000 0.500000
vt 0.000000 0.312500
vt 1.000000 0.312500
vt 1.000000 0.343750
vt 0.000000 0.343750
vt 1.000000 0.375000
vt 1.000000 0.437500
vt 0.000000 0.437500
vt 0.250000 0.312500
vt 0.250000 0.250000
vt 0.750000 0.312500
vt 0.562500 0.500000
vt 0.781250 0.500000
vt 0.890625 0.500000
vt 0.781250 0.562500
vt 0.890625 0.562500
vt 0.000000 0.500000
vt 0.250000 0.500000
vt 0.500000 0.500000
vt 0.500000 0.062500
vt 0.500000 -0.000000
vt 0.625000 0.000000
vt 0.750000 0.000000
vt 0.000000 0.062500
vt 0.000000 -0.000000
vt 0.125000 0.000000
vt 0.500000 0.500000
vt 0.750000 0.500000
vt 0.000000 -0.000250
vt 1.000000 0.062250
vt 1.000000 -0.000250
vt 0.002879 0.250000
vt 0.000000 0.249750
vt 1.000000 0.312250
vt 1.000000 0.249750
vt 0.000000 0.905000
vt 0.000000 0.951875
vt 1.000000 0.951875
vt 0.000000 0.453125
vt 1.000000 0.453125
vt 0.000000 0.953125
vt 1.000000 0.953125
vt 1.000000 0.312250
vt 0.000000 0.405000
vt 0.000000 0.451875
vt 1.000000 0.451875
vt 0.000000 0.062250
vt 0.002879 0.312500
vt 0.000000 0.312250
vt 1.000000 0.858125
vt 1.000000 0.811250
vt 0.000000 0.811250
vt 0.000000 0.858125
vt 1.000000 0.905000
vt 0.000000 0.998750
vt 1.000000 0.998750
vt 1.000000 0.359375
vt 0.000000 0.359375
vt 1.000000 0.859375
vt 0.000000 0.859375
vt 0.000000 0.312250
vt 1.000000 0.358125
vt 1.000000 0.311250
vt 0.000000 0.311250
vt 0.000000 0.358125
vt 1.000000 0.405000
vt 0.000000 0.498750
vt 1.000000 0.498750
s 0
usemtl arch_mat
f 4/1/1 3/2/1 273/3/1
f 4/4/2 7/5/2 3/6/2
f 93/7/3 6/1/3 84/3/3
f 6/8/2 1/9/2 5/10/2
f 45/11/4 1/12/4 26/13/4
f 259/14/3 256/15/3 269/16/3
f 7/17/5 9/18/5 3/19/5
f 238/20/3 235/21/3 248/22/3
f 217/23/3 214/24/3 227/25/3
f 196/26/3 193/27/3 206/28/3
f 61/11/6 11/12/6 10/13/6
f 185/29/3 54/30/3 172/31/3
f 164/32/3 52/33/3 151/34/3
f 143/16/3 50/35/3 130/15/3
f 59/36/7 13/37/7 12/38/7
f 255/39/8 279/40/8 270/41/8
f 234/42/9 300/43/9 291/44/9
f 213/45/10 321/46/10 312/47/10
f 57/48/11 15/49/11 14/50/11
f 192/51/12 342/52/12 333/53/12
f 171/54/2 363/55/2 354/56/2
f 150/57/13 384/58/13 375/59/13
f 55/17/14 17/18/14 16/19/14
f 129/45/15 405/46/15 396/47/15
f 281/60/1 280/61/1 290/62/1
f 302/63/1 301/64/1 311/65/1
f 53/11/16 19/12/16 18/13/16
f 323/66/1 322/67/1 332/68/1
f 344/69/1 343/70/1 353/71/1
f 365/72/1 364/73/1 374/74/1
f 51/36/17 21/37/17 20/38/17
f 395/75/1 33/76/1 385/77/1
f 416/62/1 31/78/1 406/61/1
f 122/22/3 48/36/3 109/21/3
f 49/48/18 23/49/18 22/50/18
f 108/51/19 426/52/19 417/53/19
f 437/65/1 29/35/1 427/64/1
f 47/17/20 25/18/20 24/19/20
f 101/25/3 46/79/3 88/24/3
f 87/80/21 447/81/21 438/82/21
f 458/68/1 27/38/1 448/67/1
f 8/83/3 260/69/3 251/84/3
f 235/85/3 60/86/3 257/87/3
f 214/21/3 58/88/3 236/89/3
f 219/7/3 68/90/3 197/60/3
f 70/91/3 71/92/3 176/93/3
f 155/72/3 146/94/3 168/95/3
f 125/84/3 130/34/3 152/96/3
f 135/97/3 76/98/3 77/99/3
f 79/100/3 92/63/3 114/101/3
f 2/83/1 449/69/1 440/84/1
f 424/15/1 24/102/1 446/103/1
f 407/63/1 398/104/1 429/101/1
f 377/105/1 382/24/1 399/3/1
f 387/106/1 365/93/1 356/107/1
f 366/108/1 36/109/1 37/110/1
f 39/83/1 323/111/1 345/69/1
f 324/97/1 41/99/1 302/66/1
f 303/101/1 43/100/1 281/63/1
f 100/62/3 83/105/3 92/60/3
f 99/112/3 85/113/3 96/114/3
f 98/115/3 82/116/3 97/117/3
f 95/118/3 97/117/3 85/113/3
f 84/119/3 98/115/3 95/118/3
f 89/120/3 87/121/3 98/115/3
f 86/122/3 96/114/3 81/123/3
f 80/124/3 99/112/3 86/122/3
f 93/125/3 95/118/3 99/112/3
f 90/61/3 92/60/3 79/78/3
f 81/123/3 100/62/3 90/61/3
f 96/114/3 94/126/3 100/62/3
f 94/126/3 88/24/3 83/105/3
f 85/113/3 101/25/3 94/126/3
f 97/117/3 91/23/3 101/25/3
f 121/65/3 104/104/3 113/63/3
f 120/127/3 106/128/3 117/129/3
f 119/130/3 103/131/3 118/132/3
f 116/133/3 118/132/3 106/128/3
f 105/134/3 119/130/3 116/133/3
f 110/135/3 108/136/3 119/130/3
f 107/137/3 117/129/3 102/138/3
f 78/139/3 120/127/3 107/137/3
f 114/140/3 116/133/3 120/127/3
f 111/64/3 113/63/3 77/35/3
f 102/138/3 121/65/3 111/64/3
f 117/129/3 115/141/3 121/65/3
f 115/141/3 109/21/3 104/104/3
f 106/128/3 122/22/3 115/141/3
f 118/132/3 112/20/3 122/22/3
f 142/68/3 125/142/3 134/66/3
f 141/143/3 127/144/3 138/145/3
f 140/146/3 124/147/3 139/148/3
f 137/149/3 139/148/3 127/144/3
f 126/150/3 140/146/3 137/149/3
f 131/7/3 129/151/3 140/146/3
f 128/152/3 138/145/3 123/153/3
f 76/154/3 141/143/3 128/152/3
f 135/155/3 137/149/3 141/143/3
f 132/67/3 134/66/3 75/38/3
f 123/153/3 142/68/3 132/67/3
f 138/145/3 136/156/3 142/68/3
f 136/156/3 130/15/3 125/142/3
f 127/144/3 143/16/3 136/156/3
f 139/148/3 133/14/3 143/16/3
f 163/157/3 146/84/3 155/69/3
f 162/158/3 148/159/3 159/160/3
f 161/161/3 145/162/3 160/163/3
f 158/164/3 160/163/3 148/159/3
f 147/165/3 161/161/3 158/164/3
f 152/101/3 150/166/3 161/161/3
f 149/167/3 159/160/3 144/168/3
f 74/169/3 162/158/3 149/167/3
f 156/103/3 158/164/3 162/158/3
f 153/70/3 155/69/3 73/170/3
f 144/168/3 163/157/3 153/70/3
f 159/160/3 157/171/3 163/157/3
f 157/171/3 151/34/3 146/84/3
f 148/159/3 164/32/3 157/171/3
f 160/163/3 154/172/3 164/32/3
f 184/173/3 167/94/3 176/72/3
f 179/174/3 180/175/3 183/176/3
f 171/177/3 181/178/3 182/179/3
f 182/179/3 169/180/3 179/174/3
f 173/181/3 179/174/3 168/182/3
f 53/183/3 182/179/3 173/181/3
f 183/176/3 165/184/3 170/185/3
f 177/96/3 170/185/3 72/186/3
f 168/182/3 183/176/3 177/96/3
f 174/73/3 176/72/3 71/187/3
f 165/184/3 184/173/3 174/73/3
f 180/175/3 178/188/3 184/173/3
f 178/188/3 172/31/3 167/94/3
f 169/180/3 185/29/3 178/188/3
f 181/178/3 175/189/3 185/29/3
f 199/190/3 197/93/3 205/191/3
f 200/192/3 201/193/3 204/194/3
f 192/195/3 202/196/3 203/197/3
f 203/197/3 190/198/3 200/192/3
f 194/111/3 200/192/3 189/199/3
f 55/200/3 203/197/3 194/111/3
f 204/194/3 186/201/3 191/202/3
f 198/203/3 191/202/3 70/204/3
f 189/199/3 204/194/3 198/203/3
f 205/191/3 69/76/3 195/77/3
f 201/193/3 195/77/3 186/201/3
f 190/198/3 205/191/3 201/193/3
f 206/28/3 188/107/3 199/190/3
f 202/196/3 199/190/3 190/198/3
f 187/205/3 206/28/3 202/196/3
f 220/126/3 218/60/3 226/62/3
f 221/118/3 222/114/3 225/112/3
f 213/121/3 223/117/3 224/115/3
f 224/115/3 211/113/3 221/118/3
f 215/120/3 221/118/3 210/119/3
f 57/206/3 224/115/3 215/120/3
f 225/112/3 207/123/3 212/122/3
f 219/125/3 212/122/3 68/124/3
f 210/119/3 225/112/3 219/125/3
f 226/62/3 67/78/3 216/61/3
f 222/114/3 216/61/3 207/123/3
f 211/113/3 226/62/3 222/114/3
f 227/25/3 209/105/3 220/126/3
f 223/117/3 220/126/3 211/113/3
f 208/116/3 227/25/3 223/117/3
f 241/141/3 239/63/3 247/65/3
f 242/133/3 243/129/3 246/127/3
f 234/136/3 244/132/3 245/130/3
f 245/130/3 232/128/3 242/133/3
f 236/135/3 242/133/3 231/134/3
f 59/207/3 245/130/3 236/135/3
f 246/127/3 228/138/3 233/137/3
f 240/140/3 233/137/3 66/139/3
f 231/134/3 246/127/3 240/140/3
f 247/65/3 65/35/3 237/64/3
f 243/129/3 237/64/3 228/138/3
f 232/128/3 247/65/3 243/129/3
f 248/22/3 230/104/3 241/141/3
f 244/132/3 241/141/3 232/128/3
f 229/131/3 248/22/3 244/132/3
f 262/156/3 260/66/3 268/68/3
f 263/149/3 264/145/3 267/143/3
f 255/151/3 265/148/3 266/146/3
f 266/146/3 253/144/3 263/149/3
f 257/7/3 263/149/3 252/150/3
f 61/3/3 266/146/3 257/7/3
f 267/143/3 249/153/3 254/152/3
f 261/155/3 254/152/3 64/154/3
f 252/150/3 267/143/3 261/155/3
f 268/68/3 63/38/3 258/67/3
f 264/145/3 258/67/3 249/153/3
f 253/144/3 268/68/3 264/145/3
f 269/16/3 251/142/3 262/156/3
f 265/148/3 262/156/3 253/144/3
f 250/147/3 269/16/3 265/148/3
f 283/114/1 276/122/1 289/112/1
f 284/117/1 285/118/1 288/115/1
f 277/24/1 286/126/1 287/25/1
f 287/25/1 274/113/1 284/117/1
f 279/23/1 284/117/1 270/116/1
f 10/79/1 287/25/1 279/23/1
f 288/115/1 273/119/1 278/120/1
f 275/121/1 278/120/1 9/206/1
f 270/116/1 288/115/1 275/121/1
f 289/112/1 44/124/1 282/125/1
f 285/118/1 282/125/1 273/119/1
f 274/113/1 289/112/1 285/118/1
f 290/62/1 271/123/1 283/114/1
f 286/126/1 283/114/1 274/113/1
f 272/105/1 290/62/1 286/126/1
f 304/129/1 297/137/1 310/127/1
f 305/132/1 306/133/1 309/130/1
f 298/21/1 307/141/1 308/22/1
f 308/22/1 295/128/1 305/132/1
f 300/20/1 305/132/1 291/131/1
f 12/36/1 308/22/1 300/20/1
f 309/130/1 294/134/1 299/135/1
f 296/136/1 299/135/1 11/207/1
f 291/131/1 309/130/1 296/136/1
f 310/127/1 42/139/1 303/140/1
f 306/133/1 303/140/1 294/134/1
f 295/128/1 310/127/1 306/133/1
f 311/65/1 292/138/1 304/129/1
f 307/141/1 304/129/1 295/128/1
f 293/104/1 311/65/1 307/141/1
f 325/145/1 318/152/1 331/143/1
f 326/148/1 327/149/1 330/146/1
f 319/15/1 328/156/1 329/16/1
f 329/16/1 316/144/1 326/148/1
f 321/14/1 326/148/1 312/147/1
f 14/35/1 329/16/1 321/14/1
f 330/146/1 315/150/1 320/7/1
f 317/151/1 320/7/1 13/3/1
f 312/147/1 330/146/1 317/151/1
f 331/143/1 40/154/1 324/155/1
f 327/149/1 324/155/1 315/150/1
f 316/144/1 331/143/1 327/149/1
f 332/68/1 313/153/1 325/145/1
f 328/156/1 325/145/1 316/144/1
f 314/142/1 332/68/1 328/156/1
f 346/160/1 339/167/1 352/208/1
f 347/163/1 348/164/1 351/161/1
f 340/34/1 349/171/1 350/32/1
f 350/32/1 337/159/1 347/163/1
f 342/172/1 347/163/1 333/162/1
f 16/33/1 350/32/1 342/172/1
f 351/161/1 336/165/1 341/101/1
f 338/166/1 341/101/1 15/209/1
f 333/162/1 351/161/1 338/166/1
f 352/208/1 38/169/1 345/103/1
f 348/164/1 345/103/1 336/165/1
f 337/159/1 352/208/1 348/164/1
f 353/71/1 334/168/1 346/160/1
f 349/171/1 346/160/1 337/159/1
f 335/84/1 353/71/1 349/171/1
f 373/210/1 355/184/1 360/185/1
f 372/179/1 358/180/1 369/174/1
f 361/31/1 370/188/1 371/29/1
f 371/29/1 358/180/1 368/178/1
f 363/189/1 368/178/1 354/211/1
f 18/30/1 371/29/1 363/189/1
f 362/181/1 369/174/1 357/182/1
f 17/183/1 372/179/1 362/181/1
f 359/177/1 368/178/1 372/179/1
f 366/96/1 360/185/1 36/186/1
f 357/182/1 373/210/1 366/96/1
f 369/174/1 367/175/1 373/210/1
f 374/74/1 355/184/1 367/175/1
f 370/188/1 367/175/1 358/180/1
f 356/94/1 374/74/1 370/188/1
f 394/212/1 376/201/1 381/202/1
f 393/197/1 379/198/1 390/192/1
f 392/28/1 377/107/1 391/190/1
f 389/196/1 391/190/1 379/198/1
f 375/205/1 392/28/1 389/196/1
f 384/26/1 382/27/1 392/28/1
f 383/111/1 390/192/1 378/199/1
f 19/200/1 393/197/1 383/111/1
f 380/195/1 389/196/1 393/197/1
f 387/203/1 381/202/1 34/204/1
f 378/199/1 394/212/1 387/203/1
f 390/192/1 388/193/1 394/212/1
f 388/193/1 385/77/1 376/201/1
f 379/198/1 395/75/1 388/193/1
f 391/190/1 386/93/1 395/75/1
f 415/112/1 397/123/1 402/122/1
f 414/115/1 400/113/1 411/118/1
f 413/25/1 398/105/1 412/126/1
f 410/117/1 412/126/1 400/113/1
f 396/116/1 413/25/1 410/117/1
f 405/23/1 403/24/1 413/25/1
f 404/120/1 411/118/1 399/119/1
f 21/206/1 414/115/1 404/120/1
f 401/121/1 410/117/1 414/115/1
f 408/125/1 402/122/1 32/124/1
f 399/119/1 415/112/1 408/125/1
f 411/118/1 409/114/1 415/112/1
f 409/114/1 406/61/1 397/123/1
f 400/113/1 416/62/1 409/114/1
f 412/126/1 407/60/1 416/62/1
f 436/127/1 418/138/1 423/137/1
f 435/130/1 421/128/1 432/133/1
f 434/22/1 419/104/1 433/141/1
f 431/132/1 433/141/1 421/128/1
f 417/131/1 434/22/1 431/132/1
f 426/20/1 424/21/1 434/22/1
f 425/135/1 432/133/1 420/134/1
f 23/207/1 435/130/1 425/135/1
f 422/136/1 431/132/1 435/130/1
f 429/140/1 423/137/1 30/139/1
f 420/134/1 436/127/1 429/140/1
f 432/133/1 430/129/1 436/127/1
f 430/129/1 427/64/1 418/138/1
f 421/128/1 437/65/1 430/129/1
f 433/141/1 428/63/1 437/65/1
f 457/143/1 439/153/1 444/152/1
f 456/146/1 442/144/1 453/149/1
f 455/16/1 440/142/1 454/156/1
f 452/148/1 454/156/1 442/144/1
f 438/147/1 455/16/1 452/148/1
f 447/14/1 445/15/1 455/16/1
f 446/7/1 453/149/1 441/150/1
f 25/3/1 456/146/1 446/7/1
f 443/151/1 452/148/1 456/146/1
f 450/155/1 444/152/1 28/154/1
f 441/150/1 457/143/1 450/155/1
f 453/149/1 451/145/1 457/143/1
f 451/145/1 448/67/1 439/153/1
f 442/144/1 458/68/1 451/145/1
f 454/156/1 449/66/1 458/68/1
f 3/2/1 9/134/1 278/140/1
f 273/3/1 282/7/1 4/1/1
f 282/7/1 44/90/1 4/1/1
f 3/2/1 278/140/1 273/3/1
f 4/4/2 8/213/2 7/5/2
f 5/2/3 45/134/3 89/140/3
f 5/2/3 89/140/3 84/3/3
f 80/90/3 6/1/3 93/7/3
f 6/1/3 5/2/3 84/3/3
f 6/8/2 2/214/2 1/9/2
f 45/11/4 5/215/4 1/12/4
f 259/14/3 62/35/3 256/15/3
f 7/17/5 62/216/5 9/18/5
f 238/20/3 60/36/3 235/21/3
f 217/23/3 58/79/3 214/24/3
f 196/26/3 56/217/3 193/27/3
f 61/11/6 60/215/6 11/12/6
f 185/29/3 175/189/3 54/30/3
f 164/32/3 154/172/3 52/33/3
f 143/16/3 133/14/3 50/35/3
f 59/36/7 58/218/7 13/37/7
f 9/219/8 62/220/8 259/221/8
f 9/219/8 259/221/8 275/222/8
f 259/221/8 250/223/8 275/222/8
f 255/39/8 61/224/8 10/59/8
f 275/222/8 250/223/8 270/41/8
f 250/223/8 255/39/8 270/41/8
f 255/39/8 10/59/8 279/40/8
f 11/56/9 60/225/9 238/54/9
f 11/56/9 238/54/9 296/55/9
f 238/54/9 229/226/9 296/55/9
f 234/42/9 59/37/9 12/218/9
f 296/55/9 229/226/9 291/44/9
f 229/226/9 234/42/9 291/44/9
f 234/42/9 12/218/9 300/43/9
f 13/48/10 58/50/10 217/227/10
f 13/48/10 217/227/10 317/228/10
f 217/227/10 208/229/10 317/228/10
f 213/45/10 57/230/10 14/53/10
f 317/228/10 208/229/10 312/47/10
f 208/229/10 213/45/10 312/47/10
f 213/45/10 14/53/10 321/46/10
f 57/48/11 56/207/11 15/49/11
f 15/47/12 56/229/12 196/45/12
f 15/47/12 196/45/12 338/46/12
f 196/45/12 187/230/12 338/46/12
f 192/51/12 55/231/12 16/232/12
f 338/46/12 187/230/12 333/53/12
f 187/230/12 192/51/12 333/53/12
f 192/51/12 16/232/12 342/52/12
f 17/11/2 54/13/2 175/233/2
f 17/11/2 175/233/2 359/234/2
f 175/233/2 166/225/2 359/234/2
f 171/54/2 53/226/2 18/44/2
f 359/234/2 166/225/2 354/56/2
f 166/225/2 171/54/2 354/56/2
f 171/54/2 18/44/2 363/55/2
f 19/41/13 52/223/13 154/39/13
f 19/41/13 154/39/13 380/40/13
f 154/39/13 145/224/13 380/40/13
f 150/57/13 51/98/13 20/235/13
f 380/40/13 145/224/13 375/59/13
f 145/224/13 150/57/13 375/59/13
f 150/57/13 20/235/13 384/58/13
f 55/17/14 54/216/14 17/18/14
f 21/48/15 50/50/15 133/227/15
f 21/48/15 133/227/15 401/228/15
f 133/227/15 124/229/15 401/228/15
f 129/45/15 49/230/15 22/53/15
f 401/228/15 124/229/15 396/47/15
f 124/229/15 129/45/15 396/47/15
f 129/45/15 22/53/15 405/46/15
f 281/60/1 43/78/1 280/61/1
f 302/63/1 41/35/1 301/64/1
f 53/11/16 52/215/16 19/12/16
f 323/66/1 39/38/1 322/67/1
f 344/69/1 37/170/1 343/70/1
f 365/72/1 35/187/1 364/73/1
f 51/36/17 50/218/17 21/37/17
f 395/75/1 386/93/1 33/76/1
f 416/62/1 407/60/1 31/78/1
f 122/22/3 112/20/3 48/36/3
f 49/48/18 48/207/18 23/49/18
f 23/47/19 48/229/19 112/45/19
f 23/47/19 112/45/19 422/46/19
f 112/45/19 103/230/19 422/46/19
f 108/51/19 47/231/19 24/232/19
f 422/46/19 103/230/19 417/53/19
f 103/230/19 108/51/19 417/53/19
f 108/51/19 24/232/19 426/52/19
f 437/65/1 428/63/1 29/35/1
f 47/17/20 46/216/20 25/18/20
f 101/25/3 91/23/3 46/79/3
f 25/236/21 46/237/21 91/238/21
f 25/236/21 91/238/21 443/239/21
f 91/238/21 82/240/21 443/239/21
f 87/80/21 45/241/21 26/242/21
f 443/239/21 82/240/21 438/82/21
f 82/240/21 87/80/21 438/82/21
f 87/80/21 26/242/21 447/81/21
f 458/68/1 449/66/1 27/38/1
f 62/243/3 7/244/3 256/34/3
f 7/244/3 8/83/3 251/84/3
f 8/83/3 63/245/3 260/69/3
f 251/84/3 256/34/3 7/244/3
f 60/86/3 61/246/3 257/87/3
f 257/87/3 252/247/3 235/85/3
f 252/247/3 261/248/3 230/249/3
f 261/248/3 64/98/3 239/250/3
f 64/98/3 65/99/3 239/250/3
f 239/250/3 230/249/3 261/248/3
f 230/249/3 235/85/3 252/247/3
f 58/88/3 59/251/3 236/89/3
f 236/89/3 231/252/3 214/21/3
f 231/252/3 240/101/3 209/104/3
f 214/21/3 231/252/3 209/104/3
f 240/101/3 66/253/3 218/63/3
f 66/253/3 67/100/3 218/63/3
f 218/63/3 209/104/3 240/101/3
f 56/2/3 57/134/3 215/140/3
f 56/2/3 215/140/3 193/24/3
f 215/140/3 210/3/3 193/24/3
f 188/105/3 193/24/3 210/3/3
f 68/90/3 69/1/3 197/60/3
f 197/60/3 188/105/3 219/7/3
f 219/7/3 188/105/3 210/3/3
f 54/254/3 55/255/3 194/256/3
f 54/254/3 194/256/3 172/27/3
f 194/256/3 189/257/3 172/27/3
f 176/93/3 167/107/3 198/106/3
f 167/107/3 172/27/3 189/257/3
f 198/106/3 167/107/3 189/257/3
f 198/106/3 70/91/3 176/93/3
f 52/258/3 53/259/3 151/31/3
f 53/259/3 173/260/3 151/31/3
f 168/95/3 177/108/3 155/72/3
f 177/108/3 72/109/3 73/110/3
f 173/260/3 168/95/3 146/94/3
f 146/94/3 151/31/3 173/260/3
f 73/110/3 155/72/3 177/108/3
f 50/243/3 51/244/3 130/34/3
f 51/244/3 152/96/3 130/34/3
f 152/96/3 147/5/3 125/84/3
f 147/5/3 156/111/3 134/69/3
f 125/84/3 147/5/3 134/69/3
f 156/111/3 74/83/3 75/245/3
f 156/111/3 75/245/3 134/69/3
f 48/102/3 49/261/3 109/15/3
f 49/261/3 131/103/3 109/15/3
f 131/103/3 126/262/3 104/142/3
f 104/142/3 109/15/3 131/103/3
f 77/99/3 113/66/3 135/97/3
f 113/66/3 104/142/3 126/262/3
f 135/97/3 113/66/3 126/262/3
f 46/88/3 47/218/3 88/21/3
f 47/218/3 110/89/3 88/21/3
f 110/89/3 105/252/3 83/104/3
f 88/21/3 110/89/3 83/104/3
f 92/63/3 83/104/3 105/252/3
f 114/101/3 78/253/3 79/100/3
f 105/252/3 114/101/3 92/63/3
f 26/243/1 1/244/1 445/34/1
f 1/244/1 2/83/1 440/84/1
f 2/83/1 27/245/1 449/69/1
f 440/84/1 445/34/1 1/244/1
f 24/102/1 25/261/1 446/103/1
f 446/103/1 441/262/1 424/15/1
f 441/262/1 450/97/1 419/142/1
f 450/97/1 28/98/1 428/66/1
f 28/98/1 29/99/1 428/66/1
f 428/66/1 419/142/1 450/97/1
f 419/142/1 424/15/1 441/262/1
f 22/88/1 23/251/1 425/89/1
f 22/88/1 425/89/1 403/21/1
f 425/89/1 420/252/1 403/21/1
f 429/101/1 30/253/1 407/63/1
f 30/253/1 31/100/1 407/63/1
f 403/21/1 420/252/1 398/104/1
f 420/252/1 429/101/1 398/104/1
f 20/2/1 21/134/1 404/140/1
f 399/3/1 408/7/1 377/105/1
f 408/7/1 32/90/1 386/60/1
f 20/2/1 404/140/1 382/24/1
f 404/140/1 399/3/1 382/24/1
f 408/7/1 386/60/1 377/105/1
f 32/90/1 33/1/1 386/60/1
f 18/254/1 19/255/1 383/256/1
f 383/256/1 378/257/1 361/27/1
f 378/257/1 387/106/1 356/107/1
f 387/106/1 34/91/1 365/93/1
f 34/91/1 35/92/1 365/93/1
f 18/254/1 383/256/1 361/27/1
f 378/257/1 356/107/1 361/27/1
f 16/258/1 17/259/1 340/31/1
f 17/259/1 362/260/1 340/31/1
f 362/260/1 357/95/1 335/94/1
f 335/94/1 340/31/1 362/260/1
f 37/110/1 344/72/1 366/108/1
f 344/72/1 335/94/1 357/95/1
f 366/108/1 344/72/1 357/95/1
f 14/244/1 15/243/1 319/96/1
f 15/243/1 341/34/1 319/96/1
f 341/34/1 336/84/1 314/5/1
f 319/96/1 341/34/1 314/5/1
f 345/69/1 38/245/1 39/83/1
f 336/84/1 345/69/1 323/111/1
f 314/5/1 336/84/1 323/111/1
f 12/102/1 13/261/1 298/15/1
f 13/261/1 320/103/1 298/15/1
f 320/103/1 315/262/1 293/142/1
f 315/262/1 324/97/1 302/66/1
f 324/97/1 40/98/1 41/99/1
f 302/66/1 293/142/1 315/262/1
f 293/142/1 298/15/1 320/103/1
f 10/88/1 11/251/1 277/21/1
f 11/251/1 299/89/1 277/21/1
f 299/89/1 294/252/1 272/104/1
f 294/252/1 303/101/1 281/63/1
f 303/101/1 42/253/1 43/100/1
f 281/63/1 272/104/1 294/252/1
f 272/104/1 277/21/1 299/89/1
f 100/62/3 94/126/3 83/105/3
f 99/112/3 95/118/3 85/113/3
f 98/115/3 87/121/3 82/116/3
f 95/118/3 98/115/3 97/117/3
f 84/119/3 89/120/3 98/115/3
f 89/120/3 45/206/3 87/121/3
f 86/122/3 99/112/3 96/114/3
f 80/124/3 93/125/3 99/112/3
f 93/125/3 84/119/3 95/118/3
f 90/61/3 100/62/3 92/60/3
f 81/123/3 96/114/3 100/62/3
f 96/114/3 85/113/3 94/126/3
f 94/126/3 101/25/3 88/24/3
f 85/113/3 97/117/3 101/25/3
f 97/117/3 82/116/3 91/23/3
f 121/65/3 115/141/3 104/104/3
f 120/127/3 116/133/3 106/128/3
f 119/130/3 108/136/3 103/131/3
f 116/133/3 119/130/3 118/132/3
f 105/134/3 110/135/3 119/130/3
f 110/135/3 47/207/3 108/136/3
f 107/137/3 120/127/3 117/129/3
f 78/139/3 114/140/3 120/127/3
f 114/140/3 105/134/3 116/133/3
f 111/64/3 121/65/3 113/63/3
f 102/138/3 117/129/3 121/65/3
f 117/129/3 106/128/3 115/141/3
f 115/141/3 122/22/3 109/21/3
f 106/128/3 118/132/3 122/22/3
f 118/132/3 103/131/3 112/20/3
f 142/68/3 136/156/3 125/142/3
f 141/143/3 137/149/3 127/144/3
f 140/146/3 129/151/3 124/147/3
f 137/149/3 140/146/3 139/148/3
f 126/150/3 131/7/3 140/146/3
f 131/7/3 49/3/3 129/151/3
f 128/152/3 141/143/3 138/145/3
f 76/154/3 135/155/3 141/143/3
f 135/155/3 126/150/3 137/149/3
f 132/67/3 142/68/3 134/66/3
f 123/153/3 138/145/3 142/68/3
f 138/145/3 127/144/3 136/156/3
f 136/156/3 143/16/3 130/15/3
f 127/144/3 139/148/3 143/16/3
f 139/148/3 124/147/3 133/14/3
f 163/157/3 157/171/3 146/84/3
f 162/158/3 158/164/3 148/159/3
f 161/161/3 150/166/3 145/162/3
f 158/164/3 161/161/3 160/163/3
f 147/165/3 152/101/3 161/161/3
f 152/101/3 51/209/3 150/166/3
f 149/167/3 162/158/3 159/160/3
f 74/169/3 156/103/3 162/158/3
f 156/103/3 147/165/3 158/164/3
f 153/70/3 163/157/3 155/69/3
f 144/168/3 159/160/3 163/157/3
f 159/160/3 148/159/3 157/171/3
f 157/171/3 164/32/3 151/34/3
f 148/159/3 160/163/3 164/32/3
f 160/163/3 145/162/3 154/172/3
f 184/173/3 178/188/3 167/94/3
f 179/174/3 169/180/3 180/175/3
f 171/177/3 166/211/3 181/178/3
f 182/179/3 181/178/3 169/180/3
f 173/181/3 182/179/3 179/174/3
f 53/183/3 171/177/3 182/179/3
f 183/176/3 180/175/3 165/184/3
f 177/96/3 183/176/3 170/185/3
f 168/182/3 179/174/3 183/176/3
f 174/73/3 184/173/3 176/72/3
f 165/184/3 180/175/3 184/173/3
f 180/175/3 169/180/3 178/188/3
f 178/188/3 185/29/3 172/31/3
f 169/180/3 181/178/3 185/29/3
f 181/178/3 166/211/3 175/189/3
f 199/190/3 188/107/3 197/93/3
f 200/192/3 190/198/3 201/193/3
f 192/195/3 187/205/3 202/196/3
f 203/197/3 202/196/3 190/198/3
f 194/111/3 203/197/3 200/192/3
f 55/200/3 192/195/3 203/197/3
f 204/194/3 201/193/3 186/201/3
f 198/203/3 204/194/3 191/202/3
f 189/199/3 200/192/3 204/194/3
f 205/191/3 197/93/3 69/76/3
f 201/193/3 205/191/3 195/77/3
f 190/198/3 199/190/3 205/191/3
f 206/28/3 193/27/3 188/107/3
f 202/196/3 206/28/3 199/190/3
f 187/205/3 196/26/3 206/28/3
f 220/126/3 209/105/3 218/60/3
f 221/118/3 211/113/3 222/114/3
f 213/121/3 208/116/3 223/117/3
f 224/115/3 223/117/3 211/113/3
f 215/120/3 224/115/3 221/118/3
f 57/206/3 213/121/3 224/115/3
f 225/112/3 222/114/3 207/123/3
f 219/125/3 225/112/3 212/122/3
f 210/119/3 221/118/3 225/112/3
f 226/62/3 218/60/3 67/78/3
f 222/114/3 226/62/3 216/61/3
f 211/113/3 220/126/3 226/62/3
f 227/25/3 214/24/3 209/105/3
f 223/117/3 227/25/3 220/126/3
f 208/116/3 217/23/3 227/25/3
f 241/141/3 230/104/3 239/63/3
f 242/133/3 232/128/3 243/129/3
f 234/136/3 229/131/3 244/132/3
f 245/130/3 244/132/3 232/128/3
f 236/135/3 245/130/3 242/133/3
f 59/207/3 234/136/3 245/130/3
f 246/127/3 243/129/3 228/138/3
f 240/140/3 246/127/3 233/137/3
f 231/134/3 242/133/3 246/127/3
f 247/65/3 239/63/3 65/35/3
f 243/129/3 247/65/3 237/64/3
f 232/128/3 241/141/3 247/65/3
f 248/22/3 235/21/3 230/104/3
f 244/132/3 248/22/3 241/141/3
f 229/131/3 238/20/3 248/22/3
f 262/156/3 251/142/3 260/66/3
f 263/149/3 253/144/3 264/145/3
f 255/151/3 250/147/3 265/148/3
f 266/146/3 265/148/3 253/144/3
f 257/7/3 266/146/3 263/149/3
f 61/3/3 255/151/3 266/146/3
f 267/143/3 264/145/3 249/153/3
f 261/155/3 267/143/3 254/152/3
f 252/150/3 263/149/3 267/143/3
f 268/68/3 260/66/3 63/38/3
f 264/145/3 268/68/3 258/67/3
f 253/144/3 262/156/3 268/68/3
f 269/16/3 256/15/3 251/142/3
f 265/148/3 269/16/3 262/156/3
f 250/147/3 259/14/3 269/16/3
f 283/114/1 271/123/1 276/122/1
f 284/117/1 274/113/1 285/118/1
f 277/24/1 272/105/1 286/126/1
f 287/25/1 286/126/1 274/113/1
f 279/23/1 287/25/1 284/117/1
f 10/79/1 277/24/1 287/25/1
f 288/115/1 285/118/1 273/119/1
f 275/121/1 288/115/1 278/120/1
f 270/116/1 284/117/1 288/115/1
f 289/112/1 276/122/1 44/124/1
f 285/118/1 289/112/1 282/125/1
f 274/113/1 283/114/1 289/112/1
f 290/62/1 280/61/1 271/123/1
f 286/126/1 290/62/1 283/114/1
f 272/105/1 281/60/1 290/62/1
f 304/129/1 292/138/1 297/137/1
f 305/132/1 295/128/1 306/133/1
f 298/21/1 293/104/1 307/141/1
f 308/22/1 307/141/1 295/128/1
f 300/20/1 308/22/1 305/132/1
f 12/36/1 298/21/1 308/22/1
f 309/130/1 306/133/1 294/134/1
f 296/136/1 309/130/1 299/135/1
f 291/131/1 305/132/1 309/130/1
f 310/127/1 297/137/1 42/139/1
f 306/133/1 310/127/1 303/140/1
f 295/128/1 304/129/1 310/127/1
f 311/65/1 301/64/1 292/138/1
f 307/141/1 311/65/1 304/129/1
f 293/104/1 302/63/1 311/65/1
f 325/145/1 313/153/1 318/152/1
f 326/148/1 316/144/1 327/149/1
f 319/15/1 314/142/1 328/156/1
f 329/16/1 328/156/1 316/144/1
f 321/14/1 329/16/1 326/148/1
f 14/35/1 319/15/1 329/16/1
f 330/146/1 327/149/1 315/150/1
f 317/151/1 330/146/1 320/7/1
f 312/147/1 326/148/1 330/146/1
f 331/143/1 318/152/1 40/154/1
f 327/149/1 331/143/1 324/155/1
f 316/144/1 325/145/1 331/143/1
f 332/68/1 322/67/1 313/153/1
f 328/156/1 332/68/1 325/145/1
f 314/142/1 323/66/1 332/68/1
f 346/160/1 334/168/1 339/167/1
f 347/163/1 337/159/1 348/164/1
f 340/34/1 335/84/1 349/171/1
f 350/32/1 349/171/1 337/159/1
f 342/172/1 350/32/1 347/163/1
f 16/33/1 340/34/1 350/32/1
f 351/161/1 348/164/1 336/165/1
f 338/166/1 351/161/1 341/101/1
f 333/162/1 347/163/1 351/161/1
f 352/208/1 339/167/1 38/169/1
f 348/164/1 352/208/1 345/103/1
f 337/159/1 346/160/1 352/208/1
f 353/71/1 343/70/1 334/168/1
f 349/171/1 353/71/1 346/160/1
f 335/84/1 344/69/1 353/71/1
f 373/210/1 367/175/1 355/184/1
f 372/179/1 368/178/1 358/180/1
f 361/31/1 356/94/1 370/188/1
f 371/29/1 370/188/1 358/180/1
f 363/189/1 371/29/1 368/178/1
f 18/30/1 361/31/1 371/29/1
f 362/181/1 372/179/1 369/174/1
f 17/183/1 359/177/1 372/179/1
f 359/177/1 354/211/1 368/178/1
f 366/96/1 373/210/1 360/185/1
f 357/182/1 369/174/1 373/210/1
f 369/174/1 358/180/1 367/175/1
f 374/74/1 364/73/1 355/184/1
f 370/188/1 374/74/1 367/175/1
f 356/94/1 365/72/1 374/74/1
f 394/212/1 388/193/1 376/201/1
f 393/197/1 389/196/1 379/198/1
f 392/28/1 382/27/1 377/107/1
f 389/196/1 392/28/1 391/190/1
f 375/205/1 384/26/1 392/28/1
f 384/26/1 20/217/1 382/27/1
f 383/111/1 393/197/1 390/192/1
f 19/200/1 380/195/1 393/197/1
f 380/195/1 375/205/1 389/196/1
f 387/203/1 394/212/1 381/202/1
f 378/199/1 390/192/1 394/212/1
f 390/192/1 379/198/1 388/193/1
f 388/193/1 395/75/1 385/77/1
f 379/198/1 391/190/1 395/75/1
f 391/190/1 377/107/1 386/93/1
f 415/112/1 409/114/1 397/123/1
f 414/115/1 410/117/1 400/113/1
f 413/25/1 403/24/1 398/105/1
f 410/117/1 413/25/1 412/126/1
f 396/116/1 405/23/1 413/25/1
f 405/23/1 22/79/1 403/24/1
f 404/120/1 414/115/1 411/118/1
f 21/206/1 401/121/1 414/115/1
f 401/121/1 396/116/1 410/117/1
f 408/125/1 415/112/1 402/122/1
f 399/119/1 411/118/1 415/112/1
f 411/118/1 400/113/1 409/114/1
f 409/114/1 416/62/1 406/61/1
f 400/113/1 412/126/1 416/62/1
f 412/126/1 398/105/1 407/60/1
f 436/127/1 430/129/1 418/138/1
f 435/130/1 431/132/1 421/128/1
f 434/22/1 424/21/1 419/104/1
f 431/132/1 434/22/1 433/141/1
f 417/131/1 426/20/1 434/22/1
f 426/20/1 24/36/1 424/21/1
f 425/135/1 435/130/1 432/133/1
f 23/207/1 422/136/1 435/130/1
f 422/136/1 417/131/1 431/132/1
f 429/140/1 436/127/1 423/137/1
f 420/134/1 432/133/1 436/127/1
f 432/133/1 421/128/1 430/129/1
f 430/129/1 437/65/1 427/64/1
f 421/128/1 433/141/1 437/65/1
f 433/141/1 419/104/1 428/63/1
f 457/143/1 451/145/1 439/153/1
f 456/146/1 452/148/1 442/144/1
f 455/16/1 445/15/1 440/142/1
f 452/148/1 455/16/1 454/156/1
f 438/147/1 447/14/1 455/16/1
f 447/14/1 26/35/1 445/15/1
f 446/7/1 456/146/1 453/149/1
f 25/3/1 443/151/1 456/146/1
f 443/151/1 438/147/1 452/148/1
f 450/155/1 457/143/1 444/152/1
f 441/150/1 453/149/1 457/143/1
f 453/149/1 442/144/1 451/145/1
f 451/145/1 458/68/1 448/67/1
f 442/144/1 454/156/1 458/68/1
f 454/156/1 440/142/1 449/66/1
f 27/263/22 6/264/22 80/265/22
f 4/215/23 63/13/23 8/12/23
f 43/207/24 65/50/24 64/49/24
f 41/266/25 67/13/25 66/12/25
f 39/48/26 69/49/26 68/50/26
f 37/267/27 71/268/27 70/269/27
f 35/207/28 73/50/28 72/49/28
f 33/11/29 75/12/29 74/13/29
f 418/270/30 427/271/30 107/272/30
f 397/55/31 406/273/31 128/274/31
f 376/46/32 385/275/32 149/276/32
f 31/207/33 77/50/33 76/49/33
f 355/55/34 364/273/34 170/274/34
f 334/46/35 343/275/35 191/276/35
f 313/55/36 322/273/36 212/274/36
f 29/267/37 79/277/37 78/269/37
f 292/46/38 301/275/38 233/276/38
f 271/55/39 280/273/39 254/274/39
f 439/278/40 448/279/40 86/280/40
f 27/263/22 2/281/22 6/264/22
f 4/215/23 44/11/23 63/13/23
f 43/207/24 42/48/24 65/50/24
f 41/266/25 40/282/25 67/13/25
f 39/48/26 38/207/26 69/49/26
f 37/267/27 36/283/27 71/268/27
f 35/207/28 34/48/28 73/50/28
f 33/11/29 32/215/29 75/12/29
f 111/284/30 77/285/30 30/286/30
f 111/284/30 30/286/30 423/287/30
f 102/288/30 111/284/30 423/287/30
f 102/288/30 423/287/30 418/270/30
f 29/289/30 78/290/30 107/272/30
f 107/272/30 102/288/30 418/270/30
f 427/271/30 29/289/30 107/272/30
f 132/291/31 75/13/31 32/11/31
f 132/291/31 32/11/31 402/292/31
f 123/54/31 132/291/31 402/292/31
f 123/54/31 402/292/31 397/55/31
f 31/218/31 76/37/31 128/274/31
f 128/274/31 123/54/31 397/55/31
f 406/273/31 31/218/31 128/274/31
f 153/293/32 73/50/32 34/48/32
f 153/293/32 34/48/32 381/294/32
f 144/45/32 153/293/32 381/294/32
f 144/45/32 381/294/32 376/46/32
f 33/232/32 74/231/32 149/276/32
f 149/276/32 144/45/32 376/46/32
f 385/275/32 33/232/32 149/276/32
f 31/207/33 30/48/33 77/50/33
f 174/291/34 71/13/34 36/11/34
f 174/291/34 36/11/34 360/292/34
f 165/54/34 174/291/34 360/292/34
f 165/54/34 360/292/34 355/55/34
f 35/218/34 72/37/34 170/274/34
f 170/274/34 165/54/34 355/55/34
f 364/273/34 35/218/34 170/274/34
f 195/293/35 69/50/35 38/48/35
f 195/293/35 38/48/35 339/294/35
f 186/45/35 195/293/35 339/294/35
f 186/45/35 339/294/35 334/46/35
f 37/232/35 70/231/35 191/276/35
f 191/276/35 186/45/35 334/46/35
f 343/275/35 37/232/35 191/276/35
f 216/291/36 67/13/36 40/11/36
f 216/291/36 40/11/36 318/292/36
f 207/54/36 216/291/36 318/292/36
f 207/54/36 318/292/36 313/55/36
f 39/218/36 68/37/36 212/274/36
f 212/274/36 207/54/36 313/55/36
f 322/273/36 39/218/36 212/274/36
f 29/267/37 28/295/37 79/277/37
f 237/293/38 65/50/38 42/48/38
f 237/293/38 42/48/38 297/294/38
f 228/45/38 237/293/38 297/294/38
f 228/45/38 297/294/38 292/46/38
f 41/232/38 66/231/38 233/276/38
f 233/276/38 228/45/38 292/46/38
f 301/275/38 41/232/38 233/276/38
f 258/291/39 63/13/39 44/11/39
f 258/291/39 44/11/39 276/292/39
f 249/54/39 258/291/39 276/292/39
f 249/54/39 276/292/39 271/55/39
f 43/218/39 64/37/39 254/274/39
f 254/274/39 249/54/39 271/55/39
f 280/273/39 43/218/39 254/274/39
f 90/296/40 79/297/40 28/298/40
f 90/296/40 28/298/40 444/299/40
f 81/300/40 90/296/40 444/299/40
f 81/300/40 444/299/40 439/278/40
f 27/301/40 80/302/40 86/280/40
f 86/280/40 81/300/40 439/278/40
f 448/279/40 27/301/40 86/280/40
