# Blender 5.1.2
# www.blender.org
mtllib window_greek_support_single.mtl
o Support
v -0.250000 0.187500 0.125000
v -0.250000 0.625000 0.125000
v -0.250000 0.187500 -0.062500
v -0.250000 0.625000 -0.062500
v 1.250000 0.187500 0.125000
v 1.250000 0.625000 0.125000
v 1.250000 0.187500 -0.062500
v 1.250000 0.625000 -0.062500
v 0.500000 0.187500 -0.062500
v 0.500000 0.625000 -0.062500
v 0.500000 0.187500 0.125000
v 0.500000 0.625000 0.125000
vn -1.0000 -0.0000 -0.0000
vn -0.0000 -0.0000 -1.0000
vn 1.0000 -0.0000 -0.0000
vn -0.0000 -0.0000 1.0000
vn -0.0000 -1.0000 -0.0000
vn -0.0000 1.0000 -0.0000
vt 0.437500 0.250000
vt 0.437500 0.687500
vt 0.250000 0.687500
vt 0.250000 0.250000
vt 0.875000 0.187500
vt 0.875000 0.625000
vt 0.187500 0.625000
vt 0.187500 0.187500
vt 0.875000 0.375000
vt 0.875000 0.812500
vt 0.687500 0.812500
vt 0.687500 0.375000
vt 0.875000 0.500000
vt 0.875000 0.937500
vt 0.125000 0.937500
vt 0.125000 0.500000
vt 0.077235 0.413617
vt 0.288617 0.413617
vt 0.288617 0.836383
vt 0.077235 0.836383
vt 0.922765 0.413617
vt 1.134148 0.413617
vt 1.134148 0.836383
vt 0.922765 0.836383
vt 0.711383 0.413617
vt 0.711383 0.836383
vt 0.115852 0.413617
vt 0.327235 0.413617
vt 0.327235 0.836383
vt 0.115852 0.836383
vt 0.875000 0.250000
vt 0.875000 0.687500
vt 0.125000 0.687500
vt 0.125000 0.250000
vt 0.937500 0.562500
vt 0.937500 1.000000
vt 0.250000 1.000000
vt 0.250000 0.562500
s 0
usemtl sides
f 1/1/1 2/2/1 4/3/1 3/4/1
f 9/5/2 10/6/2 8/7/2 7/8/2
f 7/9/3 8/10/3 6/11/3 5/12/3
f 11/13/4 12/14/4 2/15/4 1/16/4
f 9/17/5 7/18/5 5/19/5 11/20/5
f 10/21/6 4/22/6 2/23/6 12/24/6
f 8/25/6 10/21/6 12/24/6 6/26/6
f 3/27/5 9/28/5 11/29/5 1/30/5
f 5/31/4 6/32/4 12/33/4 11/34/4
f 3/35/2 4/36/2 10/37/2 9/38/2
