# Blender 5.1.2
# www.blender.org
mtllib window_upper_frame_type1_both.mtl
o cube.002
v 0.505917 0.243916 0.125428
v 0.505917 0.243916 -0.499572
v 0.505917 -0.006084 0.125428
v 0.505917 -0.006084 -0.499572
v 0.005917 0.243916 -0.499572
v 0.005917 0.243916 0.125428
v 0.005917 -0.006084 -0.499572
v 0.005917 -0.006084 0.125428
vn -0.0000 -0.0000 -1.0000
vn 1.0000 -0.0000 -0.0000
vn -1.0000 -0.0000 -0.0000
vn -0.0000 1.0000 -0.0000
vn -0.0000 -1.0000 -0.0000
vn -0.0000 -0.0000 1.0000
vt 0.312500 0.375000
vt 0.812500 0.375000
vt 0.812500 0.625000
vt 0.312500 0.625000
vt 0.062500 0.687500
vt 0.687500 0.687500
vt 0.687500 0.937500
vt 0.062500 0.937500
vt 0.312500 0.062500
vt 0.937500 0.062500
vt 0.937500 0.312500
vt 0.312500 0.312500
vt 0.500000 0.375000
vt 1.000000 0.375000
vt 1.000000 1.000000
vt 0.500000 1.000000
vt 0.500000 0.000000
vt 1.000000 0.000000
vt 1.000000 0.625000
vt 0.500000 0.625000
vt 0.250000 0.750000
vt 0.750000 0.750000
vt 0.750000 1.000000
vt 0.250000 1.000000
s 1
usemtl sides
f 4/1/1 7/2/1 5/3/1 2/4/1
f 3/5/2 4/6/2 2/7/2 1/8/2
f 7/9/3 8/10/3 6/11/3 5/12/3
f 6/13/4 1/14/4 2/15/4 5/16/4
f 7/17/5 4/18/5 3/19/5 8/20/5
usemtl front
f 8/21/6 3/22/6 1/23/6 6/24/6
o Cube.001
v -0.003339 -0.008002 0.127928
v -0.001998 0.491998 0.127928
v -0.003339 -0.008002 -0.059572
v -0.001998 0.491998 -0.059572
v 1.001991 -0.008002 0.127928
v 1.003331 0.491998 0.127928
v 1.001991 -0.008002 -0.059572
v 1.003331 0.491998 -0.059572
v 0.499326 -0.008002 -0.059572
v 0.499326 0.491998 -0.059572
v 0.499326 -0.008002 0.127928
v 0.499326 0.491998 0.127928
vn -1.0000 0.0027 -0.0000
vn -0.0000 -0.0000 -1.0000
vn 1.0000 -0.0027 -0.0000
vn -0.0000 -0.0000 1.0000
vn -0.0000 -1.0000 -0.0000
vn -0.0000 1.0000 -0.0000
vt 0.812500 0.437500
vt 0.812500 0.937500
vt 0.625000 0.937500
vt 0.625000 0.437500
vt 0.563167 0.312503
vt 0.563167 0.812497
vt 0.062503 0.812497
vt 0.062502 0.312503
vt 0.250000 0.125000
vt 0.250000 0.625000
vt 0.062500 0.625000
vt 0.062500 0.125000
vt 0.999333 0.500000
vt 0.999333 1.000000
vt 0.500000 1.000000
vt 0.500000 0.500000
vt 1.000000 0.000667
vt 1.000000 0.500000
vt 0.812500 0.500000
vt 0.812500 0.000667
vt 0.750000 0.313167
vt 0.750000 0.812500
vt 0.562500 0.812500
vt 0.562500 0.313167
vt 0.500000 0.000000
vt -0.000667 0.500000
vt -0.000667 0.000000
vt 0.375000 0.187500
vt 0.375000 0.688167
vt 0.187500 0.688167
vt 0.187500 0.187500
vt 0.812498 0.437503
vt 0.812497 0.937497
vt 0.313167 0.937497
vt 0.313167 0.437503
vt 0.250000 0.313167
vt 0.250000 0.812500
vt 0.062500 0.812500
vt 0.062500 0.313167
s 1
usemtl sides
f 9/25/7 10/26/7 12/27/7 11/28/7
f 17/29/8 18/30/8 16/31/8 15/32/8
f 15/33/9 16/34/9 14/35/9 13/36/9
f 19/37/10 20/38/10 10/39/10 9/40/10
f 17/41/11 15/42/11 13/43/11 19/44/11
f 18/45/12 12/46/12 10/47/12 20/48/12
f 13/49/10 14/40/10 20/50/10 19/51/10
f 16/52/12 18/53/12 20/54/12 14/55/12
f 11/56/8 12/57/8 18/58/8 17/59/8
f 11/60/11 17/61/11 19/62/11 9/63/11
o cube.003
v 0.993417 0.243916 0.125428
v 0.993417 0.243916 -0.499572
v 0.993417 -0.006084 0.125428
v 0.993417 -0.006084 -0.499572
v 0.493417 0.243916 -0.499572
v 0.493417 0.243916 0.125428
v 0.493417 -0.006084 -0.499572
v 0.493417 -0.006084 0.125428
vn -0.0000 -0.0000 -1.0000
vn 1.0000 -0.0000 -0.0000
vn -1.0000 -0.0000 -0.0000
vn -0.0000 1.0000 -0.0000
vn -0.0000 -1.0000 -0.0000
vn -0.0000 -0.0000 1.0000
vt 0.125000 0.750000
vt 0.625000 0.750000
vt 0.625000 1.000000
vt 0.125000 1.000000
vt 0.375000 0.062500
vt 1.000000 0.062500
vt 1.000000 0.312500
vt 0.375000 0.312500
vt 0.000000 0.500000
vt 0.625000 0.500000
vt 0.000000 0.750000
vt 0.250000 0.000000
vt 0.750000 0.000000
vt 0.750000 0.625000
vt 0.250000 0.625000
vt 0.250000 0.375000
vt 0.750000 0.375000
vt 0.750000 1.000000
vt 0.250000 1.000000
vt 0.250000 0.750000
vt 0.750000 0.750000
s 1
usemtl sides
f 24/64/13 27/65/13 25/66/13 22/67/13
f 23/68/14 24/69/14 22/70/14 21/71/14
f 27/72/15 28/73/15 26/65/15 25/74/15
f 26/75/16 21/76/16 22/77/16 25/78/16
f 27/79/17 24/80/17 23/81/17 28/82/17
usemtl front
f 28/83/18 23/84/18 21/81/18 26/82/18
