# Blender 5.1.2
# www.blender.org
mtllib window_greek_support_left.mtl
o integrated
v 1.250000 0.187500 0.125000
v 1.250000 0.625000 0.125000
v 1.250000 0.187500 -0.062500
v 1.250000 0.625000 -0.062500
v 0.000000 0.187500 -0.062500
v 0.000000 0.625000 -0.062500
v 0.000000 0.187500 0.125000
v 0.000000 0.625000 0.125000
v 0.625000 0.625000 -0.062500
v 0.625000 0.187500 0.125000
v 0.625000 0.187500 -0.062500
v 0.625000 0.625000 0.125000
vn -0.0000 -0.0000 -1.0000
vn 1.0000 -0.0000 -0.0000
vn -0.0000 -1.0000 -0.0000
vn -0.0000 1.0000 -0.0000
vn -0.0000 -0.0000 1.0000
vt 0.812500 0.312500
vt 0.812500 0.750000
vt 0.187500 0.750000
vt 0.187500 0.312500
vt 0.937500 0.375000
vt 0.937500 0.812500
vt 0.750000 0.812500
vt 0.750000 0.375000
vt 0.044933 0.295205
vt 0.216094 0.295205
vt 0.216094 0.979849
vt 0.044933 0.979849
vt 0.850722 0.295205
vt 1.021883 0.295205
vt 1.021883 0.979849
vt 0.850722 0.979849
vt 0.687500 0.000000
vt 0.687500 0.437500
vt 0.062500 0.437500
vt 0.062500 0.000000
vt 0.625000 0.312500
vt 0.625000 0.750000
vt 0.000000 0.750000
vt 0.000000 0.312500
vt 0.679560 0.295205
vt 0.679560 0.979849
vt -0.126229 0.295205
vt -0.126229 0.979849
vt 1.000000 0.562500
vt 1.000000 1.000000
vt 0.375000 1.000000
vt 0.375000 0.562500
s 0
usemtl sides.056
f 11/1/1 9/2/1 4/3/1 3/4/1
f 3/5/2 4/6/2 2/7/2 1/8/2
f 11/9/3 3/10/3 1/11/3 10/12/3
f 9/13/4 6/14/4 8/15/4 12/16/4
f 10/17/5 12/18/5 8/19/5 7/20/5
f 1/21/5 2/22/5 12/23/5 10/24/5
f 4/25/4 9/13/4 12/16/4 2/26/4
f 5/27/3 11/9/3 10/12/3 7/28/3
f 5/29/1 6/30/1 9/31/1 11/32/1
