# Blender 5.1.2
# www.blender.org
mtllib window_greek_pediment_right.mtl
o Cube
v -0.375000 0.750000 0.312500
v -0.405240 0.871287 0.312500
v -0.375000 0.750000 -0.062500
v -0.405240 0.871287 -0.062500
v -0.344760 0.628713 0.125000
v -0.375000 0.750000 0.125000
v -0.344760 0.628713 -0.062500
v -0.375000 0.750000 -0.062500
v 0.595295 0.991922 -0.062500
v 0.565055 1.113209 -0.062500
v 0.595295 0.991922 0.312500
v 0.565055 1.113209 0.312500
v 0.625536 0.870635 -0.062500
v 0.595295 0.991922 -0.062500
v 0.625536 0.870635 0.125000
v 0.595295 0.991922 0.125000
v 1.000000 1.092826 -0.062500
v 1.000000 1.221653 0.312500
v 1.000000 0.963999 -0.062500
v 1.000000 1.092826 0.125000
v 1.000000 1.221653 -0.062500
v 1.000000 1.092826 0.312500
v 1.000000 1.092826 -0.062500
v 1.000000 0.963999 0.125000
vn -0.9703 -0.2419 -0.0000
vn -0.0000 -0.0000 1.0000
vn -0.2419 0.9703 -0.0000
vn 0.2419 -0.9703 -0.0000
vn -0.0000 -0.0000 -1.0000
vt 0.437500 0.187500
vt 0.437500 0.062500
vt 0.812500 0.062500
vt 0.812500 0.187500
vt 1.000000 0.875000
vt 1.000000 1.000000
vt 0.000000 1.000000
vt 0.000000 0.875000
vt 0.000000 0.375000
vt 1.000000 0.375000
vt 1.000000 0.750000
vt 0.000000 0.750000
vt 0.375000 0.000000
vt 0.625000 0.000000
vt 0.625000 0.250000
vt 0.375000 0.250000
vt 1.000000 0.500000
vt 0.000000 0.500000
vt 0.750000 0.500000
vt 0.875000 0.500000
vt 0.875000 0.750000
vt 0.750000 0.750000
vt 0.550364 0.625000
vt 1.000000 0.625000
vt 0.550364 1.000000
vt 0.000000 0.000000
vt 1.000000 0.000000
vt 0.600362 0.437500
vt 0.637136 0.562500
vt 0.187500 0.562500
vt 0.187500 0.437500
vt 1.000000 0.250000
vt 0.000000 0.250000
vt 0.697863 0.500000
vt 0.697863 0.750000
vt 0.000000 0.812500
vt 1.000000 0.812500
vt 0.750649 0.062500
vt 0.787862 0.187500
vt 0.375000 0.187500
vt 0.375000 0.062500
vt 0.375649 0.000000
vt 0.375649 0.187500
vt 0.000000 0.187500
vt 0.500000 0.062500
vt 0.500000 0.187500
vt 0.087138 0.187500
vt 0.124351 0.062500
vt 0.500000 0.625000
vt 0.912862 0.625000
vt 0.912862 1.000000
vt 0.500000 1.000000
vt 0.875000 0.812500
vt 0.875000 0.937500
vt 0.425364 0.937500
vt 0.462138 0.812500
s 0
usemtl sides.056
f 1/1/1 2/2/1 4/3/1 3/4/1
f 11/5/2 12/6/2 2/7/2 1/8/2
f 10/9/3 4/10/3 2/11/3 12/12/3
f 5/13/1 6/14/1 8/15/1 7/16/1
f 15/10/2 16/17/2 6/18/2 5/9/2
f 14/19/3 8/20/3 6/21/3 16/22/3
f 21/23/3 10/24/3 12/6/3 18/25/3
f 3/26/4 9/27/4 11/10/4 1/9/4
f 22/28/2 18/29/2 12/30/2 11/31/2
f 3/32/5 4/10/5 10/9/5 9/33/5
f 23/34/3 14/19/3 16/22/3 20/35/3
f 7/36/4 13/37/4 15/6/4 5/7/4
f 24/38/2 20/39/2 16/40/2 15/41/2
f 7/11/5 8/5/5 14/8/5 13/12/5
f 13/26/4 19/42/4 24/43/4 15/44/4
f 13/45/5 14/46/5 23/47/5 19/48/5
f 9/49/4 17/50/4 22/51/4 11/52/4
f 9/53/5 10/54/5 21/55/5 17/56/5
o Cube.007
v -0.375000 0.625000 0.312500
v -0.375000 0.750000 0.312500
v -0.375000 0.625000 -0.062500
v -0.375000 0.750000 -0.062500
v 1.000000 0.625000 -0.062500
v 1.000000 0.750000 -0.062500
v 1.000000 0.625000 0.312500
v 1.000000 0.750000 0.312500
v 0.375000 0.625000 -0.062500
v 0.375000 0.750000 0.312500
v 0.375000 0.750000 -0.062500
v 0.375000 0.625000 0.312500
vn -1.0000 -0.0000 -0.0000
vn -0.0000 -0.0000 1.0000
vn -0.0000 1.0000 -0.0000
vn -0.0000 -1.0000 -0.0000
vn -0.0000 -0.0000 -1.0000
vt 0.500000 0.687500
vt 0.500000 0.562500
vt 0.875000 0.562500
vt 0.875000 0.687500
vt 0.250000 0.687500
vt 0.250000 0.562500
vt 1.000000 0.562500
vt 1.000000 0.687500
vt 0.250000 0.625000
vt 1.000000 0.625000
vt 1.000000 1.000000
vt 0.250000 1.000000
vt 0.312500 0.250000
vt 0.875000 0.250000
vt 0.875000 0.625000
vt 0.312500 0.625000
vt 0.375000 0.125000
vt 0.375000 0.000000
vt 1.000000 0.000000
vt 1.000000 0.125000
vt 0.250000 0.375000
vt 0.250000 0.250000
vt 1.000000 0.250000
vt 1.000000 0.375000
vt 0.125000 0.625000
vt 0.750000 0.625000
vt 0.750000 1.000000
vt 0.125000 1.000000
vt 0.062500 0.375000
vt 0.062500 0.250000
vt 0.687500 0.250000
vt 0.687500 0.375000
s 0
usemtl sides.056
f 25/57/6 26/58/6 28/59/6 27/60/6
f 36/61/7 34/62/7 26/63/7 25/64/7
f 35/65/8 28/66/8 26/67/8 34/68/8
f 33/69/9 29/70/9 31/71/9 36/72/9
f 33/73/10 35/74/10 30/75/10 29/76/10
f 27/77/10 28/78/10 35/79/10 33/80/10
f 27/65/9 33/66/9 36/67/9 25/68/9
f 30/81/8 35/82/8 34/83/8 32/84/8
f 31/85/7 32/86/7 34/87/7 36/88/7
