# Blender 5.1.2
# www.blender.org
mtllib window_straight_pediment_right.mtl
o Cube.007
v -0.375000 0.625000 0.312500
v -0.375000 0.750000 0.312500
v -0.375000 0.625000 -0.062500
v -0.375000 0.750000 -0.062500
v 1.000000 0.625000 -0.062500
v 1.000000 0.750000 -0.062500
v 1.000000 0.625000 0.312500
v 1.000000 0.750000 0.312500
v 0.375000 0.625000 -0.062500
v 0.375000 0.750000 0.312500
v 0.375000 0.750000 -0.062500
v 0.375000 0.625000 0.312500
vn -1.0000 -0.0000 -0.0000
vn -0.0000 -0.0000 1.0000
vn -0.0000 1.0000 -0.0000
vn -0.0000 -1.0000 -0.0000
vn -0.0000 -0.0000 -1.0000
vt 0.500000 0.687500
vt 0.500000 0.562500
vt 0.875000 0.562500
vt 0.875000 0.687500
vt 0.250000 0.625000
vt 0.250000 0.500000
vt 1.000000 0.500000
vt 1.000000 0.625000
vt 1.000000 1.000000
vt 0.250000 1.000000
vt 0.312500 0.250000
vt 0.875000 0.250000
vt 0.875000 0.625000
vt 0.312500 0.625000
vt 0.375000 0.187500
vt 0.375000 0.000000
vt 1.000000 0.000000
vt 1.000000 0.187500
vt 0.250000 0.312500
vt 1.000000 0.312500
vt 0.125000 0.625000
vt 0.750000 0.625000
vt 0.750000 1.000000
vt 0.125000 1.000000
vt 0.062500 0.375000
vt 0.062500 0.250000
vt 0.687500 0.250000
vt 0.687500 0.375000
s 0
usemtl sides
f 1/1/1 2/2/1 4/3/1 3/4/1
f 12/5/2 10/6/2 2/7/2 1/8/2
f 11/5/3 4/8/3 2/9/3 10/10/3
f 9/11/4 5/12/4 7/13/4 12/14/4
f 9/15/5 11/16/5 6/17/5 5/18/5
f 3/6/5 4/19/5 11/20/5 9/7/5
f 3/5/4 9/8/4 12/9/4 1/10/4
f 6/21/3 11/22/3 10/23/3 8/24/3
f 7/25/2 8/26/2 10/27/2 12/28/2
o Cube.005
v -0.437500 0.750000 0.312500
v -0.500000 0.937500 0.312500
v -0.437500 0.750000 -0.062500
v -0.500000 0.937500 -0.062500
v 1.000000 0.750000 -0.062500
v 1.000000 0.937500 -0.062500
v 1.000000 0.750000 0.312500
v 1.000000 0.937500 0.312500
v 0.375000 0.750000 -0.062500
v 0.375000 0.937500 0.312500
v 0.375000 0.937500 -0.062500
v 0.375000 0.750000 0.312500
v -0.437500 0.812500 0.312500
v -0.500000 0.875000 0.312500
v -0.500000 0.875000 -0.062500
v -0.437500 0.812500 -0.062500
v 1.000000 0.875000 0.312500
v 1.000000 0.812500 0.312500
v 1.000000 0.875000 -0.062500
v 1.000000 0.812500 -0.062500
v 0.375000 0.875000 -0.062500
v 0.375000 0.812500 -0.062500
v 0.375000 0.875000 0.312500
v 0.375000 0.812500 0.312500
vn -1.0000 -0.0000 -0.0000
vn -0.0000 -0.0000 1.0000
vn -0.0000 1.0000 -0.0000
vn -0.0000 -1.0000 -0.0000
vn -0.0000 -0.0000 -1.0000
vn -0.7071 -0.7071 -0.0000
vt 0.125000 0.312500
vt 0.125000 0.250000
vt 0.500000 0.250000
vt 0.500000 0.312500
vt 0.000000 0.187500
vt 0.000000 0.125000
vt 0.875000 0.125000
vt 0.875000 0.187500
vt 0.125000 0.187500
vt 1.000000 0.187500
vt 1.000000 0.562500
vt 0.125000 0.562500
vt 0.312500 0.250000
vt 0.875000 0.250000
vt 0.875000 0.625000
vt 0.312500 0.625000
vt 0.125000 0.437500
vt 0.125000 0.375000
vt 0.750000 0.375000
vt 0.750000 0.437500
vt 0.125000 0.500000
vt 1.000000 0.437500
vt 1.000000 0.500000
vt 0.000000 0.312500
vt 0.875000 0.312500
vt 0.875000 0.687500
vt 0.000000 0.687500
vt 0.375000 0.187500
vt 0.375000 0.562500
vt 0.187500 0.687500
vt 0.187500 0.625000
vt 0.812500 0.625000
vt 0.812500 0.687500
vt 0.187500 0.812500
vt 0.187500 0.750000
vt 0.812500 0.750000
vt 0.812500 0.812500
vt 0.125000 0.625000
vt 1.000000 0.625000
vt 0.750000 0.500000
vt 0.750000 0.562500
vt 0.000000 0.250000
vt 0.812500 0.250000
vt 0.812500 0.312500
vt 0.875000 0.437500
vt 0.875000 0.500000
vt 0.000000 0.500000
vt 0.062500 0.437500
vt 0.500000 0.375000
vt 0.500000 0.437500
s 0
usemtl sides
f 26/29/6 14/30/6 16/31/6 27/32/6
f 35/33/7 22/34/7 14/35/7 26/36/7
f 23/37/8 16/38/8 14/39/8 22/40/8
f 21/41/9 17/42/9 19/43/9 24/44/9
f 33/45/10 23/46/10 18/47/10 31/48/10
f 27/49/10 16/45/10 23/50/10 33/51/10
f 15/52/9 21/53/9 24/54/9 13/55/9
f 18/56/8 23/38/8 22/39/8 20/57/8
f 29/58/7 20/59/7 22/60/7 35/61/7
f 19/62/7 30/63/7 36/64/7 24/65/7
f 30/63/7 29/58/7 35/61/7 36/64/7
f 15/66/10 28/40/10 34/39/10 21/67/10
f 28/40/10 27/49/10 33/51/10 34/39/10
f 21/40/10 34/49/10 32/68/10 17/69/10
f 34/49/10 33/45/10 31/48/10 32/68/10
f 24/52/7 36/70/7 25/71/7 13/72/7
f 36/73/7 35/74/7 26/75/7 25/76/7
f 13/45/6 25/46/6 28/77/6 15/78/6
f 25/46/11 26/29/11 27/32/11 28/77/11
