# Blender 5.1.2
# www.blender.org
mtllib window_keystone_type0_both.mtl
o Cube
v 0.000000 -0.006834 0.190428
v 0.000000 0.493166 0.190428
v 0.000000 -0.006834 0.002928
v 0.000000 0.493166 0.002928
v 1.000000 -0.006834 0.190428
v 1.000000 0.493166 0.190428
v 1.000000 -0.006834 0.002928
v 1.000000 0.493166 0.002928
v 0.000000 -0.010740 0.127928
v 0.000000 0.497073 0.127928
v 0.000000 -0.010740 -0.063479
v 0.000000 0.497073 -0.063479
v 1.000000 -0.010740 0.127928
v 1.000000 0.497073 0.127928
v 1.000000 -0.010740 -0.063479
v 1.000000 0.497073 -0.063479
vn -1.0000 -0.0000 -0.0000
vn -0.0000 -0.0000 -1.0000
vn 1.0000 -0.0000 -0.0000
vn -0.0000 -0.0000 1.0000
vn -0.0000 -1.0000 -0.0000
vn -0.0000 1.0000 -0.0000
vt 0.812500 0.437500
vt 0.812500 0.937500
vt 0.625000 0.937500
vt 0.625000 0.437500
vt 0.499998 0.062503
vt 0.562497 0.562497
vt 0.062503 0.562497
vt 0.125002 0.062503
vt 0.250000 0.125000
vt 0.250000 0.625000
vt 0.062500 0.625000
vt 0.062500 0.125000
vt 1.000000 0.250000
vt 1.000000 0.750000
vt 0.000000 0.750000
vt 0.000000 0.250000
vt 0.875000 0.312500
vt 0.875000 0.562500
vt 0.687500 0.562500
vt 0.687500 0.312500
vt 0.375000 0.500000
vt 0.375000 0.875000
vt 0.187500 0.875000
vt 0.187500 0.500000
vt 0.999998 0.062503
vt 0.999997 0.562497
vt 0.000003 0.562497
vt 0.000002 0.062503
vt 0.875000 0.250000
vt 0.937500 0.750000
vt 0.062500 0.750000
vt 0.125000 0.250000
vt 0.875000 0.062500
vt 0.875000 0.812500
vt 0.687500 0.812500
vt 0.687500 0.062500
s 0
usemtl sides
f 1/1/1 2/2/1 4/3/1 3/4/1
f 3/5/2 4/6/2 8/7/2 7/8/2
f 7/9/3 8/10/3 6/11/3 5/12/3
f 5/13/4 6/14/4 2/15/4 1/16/4
f 3/17/5 7/18/5 5/19/5 1/20/5
f 8/21/6 4/22/6 2/23/6 6/24/6
usemtl sides
f 9/1/1 10/2/1 12/3/1 11/4/1
f 11/25/2 12/26/2 16/27/2 15/28/2
f 15/9/3 16/10/3 14/11/3 13/12/3
f 13/29/4 14/30/4 10/31/4 9/32/4
f 11/33/5 15/34/5 13/35/5 9/36/5
f 16/21/6 12/22/6 10/23/6 14/24/6
