# Blender 5.1.2
# www.blender.org
mtllib window_greek_brackets_single.mtl
o Cube.008
v -0.281250 0.562500 0.312500
v -0.281250 0.625000 0.312500
v -0.281250 0.562500 0.000000
v -0.281250 0.625000 0.000000
v -0.031250 0.562500 0.312500
v -0.031250 0.625000 0.312500
v -0.031250 0.562500 0.000000
v -0.031250 0.625000 0.000000
v -0.250000 0.437500 0.250000
v -0.250000 0.562500 0.250000
v -0.250000 0.437500 0.000000
v -0.250000 0.562500 0.000000
v -0.062500 0.437500 0.250000
v -0.062500 0.562500 0.250000
v -0.062500 0.437500 0.000000
v -0.062500 0.562500 0.000000
v -0.250000 0.250000 0.125000
v -0.250000 0.437500 0.125000
v -0.250000 0.250000 0.000000
v -0.250000 0.437500 0.000000
v -0.062500 0.250000 0.125000
v -0.062500 0.437500 0.125000
v -0.062500 0.250000 0.000000
v -0.062500 0.437500 0.000000
vn -1.0000 -0.0000 -0.0000
vn -0.0000 -0.0000 -1.0000
vn 1.0000 -0.0000 -0.0000
vn -0.0000 -0.0000 1.0000
vn -0.0000 -1.0000 -0.0000
vn -0.0000 1.0000 -0.0000
vt 0.375000 0.312500
vt 0.375000 0.250000
vt 0.687500 0.250000
vt 0.687500 0.312500
vt 0.187500 0.562500
vt 0.187500 0.500000
vt 0.437500 0.500000
vt 0.437500 0.562500
vt 0.562500 0.687500
vt 0.562500 0.625000
vt 0.875000 0.625000
vt 0.875000 0.687500
vt 0.437500 0.625000
vt 0.687500 0.562500
vt 0.687500 0.625000
vt 0.125000 0.437500
vt 0.375000 0.437500
vt 0.375000 0.750000
vt 0.125000 0.750000
vt 0.437500 0.187500
vt 0.687500 0.187500
vt 0.687500 0.500000
vt 0.375000 0.000000
vt 0.500000 0.000000
vt 0.500000 0.250000
vt 0.500000 0.312500
vt 0.500000 0.500000
vt 0.375000 0.500000
vt 0.500000 0.750000
vt 0.312500 0.750000
vt 0.312500 0.625000
vt 0.500000 0.625000
vt 0.125000 0.500000
vt 0.312500 0.500000
vt 0.625000 0.500000
vt 0.875000 0.500000
vt 0.875000 0.750000
vt 0.625000 0.750000
vt 0.437500 0.437500
vt 0.437500 0.250000
vt 0.562500 0.250000
vt 0.562500 0.437500
vt 0.500000 0.687500
vt 0.687500 0.687500
vt 0.187500 0.375000
vt 0.187500 0.562500
vt 0.062500 0.562500
vt 0.062500 0.375000
vt 0.750000 0.312500
vt 0.750000 0.500000
vt 0.562500 0.500000
vt 0.562500 0.312500
s 0
usemtl sides
f 1/1/1 2/2/1 4/3/1 3/4/1
f 3/5/2 4/6/2 8/7/2 7/8/2
f 7/9/3 8/10/3 6/11/3 5/12/3
f 5/13/4 6/8/4 2/14/4 1/15/4
f 3/16/5 7/17/5 5/18/5 1/19/5
f 8/20/6 4/21/6 2/22/6 6/7/6
f 9/23/1 10/24/1 12/25/1 11/2/1
f 11/1/2 12/26/2 16/27/2 15/28/2
f 15/28/3 16/27/3 14/29/3 13/18/3
f 13/30/4 14/31/4 10/32/4 9/29/4
f 16/35/6 12/36/6 10/37/6 14/38/6
f 17/39/1 18/40/1 20/41/1 19/42/1
f 19/43/2 20/27/2 24/22/2 23/44/2
f 23/45/3 24/46/3 22/47/3 21/48/3
f 19/33/5 23/28/5 21/18/5 17/19/5
usemtl front
f 11/33/5 15/34/5 13/30/5 9/19/5
f 21/49/4 22/50/4 18/51/4 17/52/4
f 24/35/6 20/36/6 18/37/6 22/38/6
o Cube.002
v 1.031250 0.562500 0.312500
v 1.031250 0.625000 0.312500
v 1.031250 0.562500 0.000000
v 1.031250 0.625000 0.000000
v 1.281250 0.562500 0.312500
v 1.281250 0.625000 0.312500
v 1.281250 0.562500 0.000000
v 1.281250 0.625000 0.000000
v 1.062500 0.437500 0.250000
v 1.062500 0.562500 0.250000
v 1.062500 0.437500 0.000000
v 1.062500 0.562500 0.000000
v 1.250000 0.437500 0.250000
v 1.250000 0.562500 0.250000
v 1.250000 0.437500 0.000000
v 1.250000 0.562500 0.000000
v 1.062500 0.250000 0.125000
v 1.062500 0.437500 0.125000
v 1.062500 0.250000 0.000000
v 1.062500 0.437500 0.000000
v 1.250000 0.250000 0.125000
v 1.250000 0.437500 0.125000
v 1.250000 0.250000 0.000000
v 1.250000 0.437500 0.000000
vn -1.0000 -0.0000 -0.0000
vn -0.0000 -0.0000 -1.0000
vn 1.0000 -0.0000 -0.0000
vn -0.0000 -0.0000 1.0000
vn -0.0000 -1.0000 -0.0000
vn -0.0000 1.0000 -0.0000
vt 0.500000 0.500000
vt 0.500000 0.437500
vt 0.812500 0.437500
vt 0.812500 0.500000
vt 0.187500 0.562500
vt 0.187500 0.500000
vt 0.437500 0.500000
vt 0.437500 0.562500
vt 0.250000 0.562500
vt 0.250000 0.500000
vt 0.562500 0.500000
vt 0.562500 0.562500
vt 0.187500 0.437500
vt 0.437500 0.437500
vt 0.125000 0.437500
vt 0.375000 0.437500
vt 0.375000 0.750000
vt 0.125000 0.750000
vt 0.625000 0.437500
vt 0.875000 0.437500
vt 0.875000 0.750000
vt 0.625000 0.750000
vt 0.562500 0.437500
vt 0.562500 0.687500
vt 0.437500 0.687500
vt 0.375000 0.312500
vt 0.500000 0.312500
vt 0.375000 0.500000
vt 0.687500 0.500000
vt 0.687500 0.750000
vt 0.562500 0.750000
vt 0.750000 0.812500
vt 0.750000 0.687500
vt 0.937500 0.687500
vt 0.937500 0.812500
vt 0.687500 0.250000
vt 0.875000 0.250000
vt 0.875000 0.500000
vt 0.625000 0.500000
vt 0.125000 0.375000
vt 0.125000 0.187500
vt 0.250000 0.187500
vt 0.250000 0.375000
vt 0.312500 0.875000
vt 0.312500 0.687500
vt 0.500000 0.687500
vt 0.500000 0.875000
vt 0.187500 0.375000
vt 0.187500 0.562500
vt 0.062500 0.562500
vt 0.062500 0.375000
vt 0.312500 0.187500
vt 0.312500 0.375000
vt 0.125000 0.500000
s 0
usemtl sides
f 25/53/7 26/54/7 28/55/7 27/56/7
f 27/57/8 28/58/8 32/59/8 31/60/8
f 31/61/9 32/62/9 30/63/9 29/64/9
f 29/58/10 30/65/10 26/66/10 25/59/10
f 27/67/11 31/68/11 29/69/11 25/70/11
f 32/71/12 28/72/12 26/73/12 30/74/12
f 33/66/7 34/75/7 36/76/7 35/77/7
f 35/78/8 36/79/8 40/53/8 39/80/8
f 39/63/9 40/81/9 38/82/9 37/83/9
f 37/84/10 38/85/10 34/86/10 33/87/10
f 40/91/12 36/90/12 34/73/12 38/74/12
f 41/92/7 42/93/7 44/94/7 43/95/7
f 43/96/8 44/97/8 48/98/8 47/99/8
f 47/100/9 48/101/9 46/102/9 45/103/9
f 43/106/11 47/80/11 45/69/11 41/70/11
usemtl front
f 35/88/11 39/89/11 37/90/11 33/81/11
f 45/104/10 46/105/10 42/92/10 41/93/10
f 48/91/12 44/90/12 42/73/12 46/74/12
