# Blender 5.1.2
# www.blender.org
mtllib window_greek_brackets_left.mtl
o bracket_right
v 1.186938 0.313929 0.045587
v 1.063063 0.313929 0.045587
v 1.186938 0.294458 0.065082
v 1.063063 0.294458 0.065082
v 1.186938 0.266904 0.065099
v 1.063063 0.266904 0.065099
v 1.186938 0.247409 0.045628
v 1.063063 0.247409 0.045628
v 1.186938 0.247392 0.018074
v 1.063063 0.247392 0.018074
v 1.186938 0.266864 -0.001421
v 1.063063 0.266864 -0.001421
v 1.186938 0.294417 -0.001437
v 1.063063 0.294417 -0.001437
v 1.186938 0.313912 0.018034
v 1.063063 0.313912 0.018034
v 1.187668 0.628246 0.133449
v 1.062488 0.628246 0.133449
v 1.187668 0.572274 0.189288
v 1.062488 0.572274 0.189288
v 1.187668 0.493213 0.189194
v 1.062488 0.493213 0.189194
v 1.187668 0.437374 0.133222
v 1.062488 0.437374 0.133222
v 1.187668 0.437468 0.054161
v 1.062488 0.437468 0.054161
v 1.187668 0.493439 -0.001678
v 1.062488 0.493439 -0.001678
v 1.187668 0.572501 -0.001584
v 1.062488 0.572501 -0.001584
v 1.187668 0.628340 0.054387
v 1.062488 0.628340 0.054387
vn -0.0000 0.7075 0.7067
vn -0.0000 0.0006 1.0000
vn -0.0000 -0.7067 0.7075
vn -0.0000 -1.0000 0.0006
vn -0.0000 -0.7075 -0.7067
vn -0.0000 -0.0006 -1.0000
vn -1.0000 -0.0000 -0.0000
vn 1.0000 -0.0000 -0.0000
vn -0.0000 0.7063 0.7079
vn -0.0000 -0.0012 1.0000
vn -0.0000 -0.7079 0.7063
vn -0.0000 1.0000 0.0012
vn -0.0000 0.0012 -1.0000
vn -0.0000 0.7079 -0.7063
vn -0.0000 -0.0012 -1.0000
vn -0.0000 -0.5789 0.8154
vn -1.0000 -0.0029 0.0029
vn 1.0000 -0.0059 -0.0000
vn -1.0000 -0.0047 -0.0000
vn -1.0000 -0.0036 -0.0036
vn 1.0000 -0.0037 0.0037
vn 1.0000 -0.0046 -0.0046
vt 0.715616 0.561938
vt 0.688062 0.438062
vt 0.715616 0.438062
vt 0.153116 0.436938
vt 0.125562 0.313062
vt 0.153116 0.313062
vt 0.778116 0.311938
vt 0.750562 0.188062
vt 0.778116 0.188062
vt 0.875000 0.687500
vt 0.750000 0.187500
vt 0.875000 0.187500
vt 0.215616 0.311938
vt 0.188062 0.188062
vt 0.215616 0.188062
vt 0.403116 0.561938
vt 0.375562 0.438062
vt 0.403116 0.438062
vt 0.544841 0.312242
vt 0.654937 0.421962
vt 0.279954 0.578038
vt 0.125000 0.500000
vt 0.250000 1.000000
vt 0.250000 0.500000
vt 0.000000 1.000000
vt 0.125000 1.000000
vt 0.545484 0.312508
vt 0.279954 0.421962
vt 0.389407 0.687491
vt 0.437500 0.750000
vt 0.375000 0.625000
vt 0.437500 0.625000
vt 0.437500 0.500000
vt 0.562500 0.437500
vt 0.562500 0.500000
vt 0.500000 0.312500
vt 0.437500 0.187500
vt 0.500000 0.187500
vt 0.500000 0.500000
vt 0.625000 1.000000
vt 0.625000 0.500000
vt 0.375000 0.500000
vt 0.500000 1.000000
vt 0.250000 0.562500
vt 0.125000 0.437500
vt 0.250000 0.437500
vt 0.557285 0.715843
vt 0.378348 0.716149
vt 0.251603 0.589839
vt 0.750000 0.312500
vt 0.625000 0.187500
vt 0.000000 0.500000
vt 0.377607 0.715843
vt 0.683289 0.589839
vt 0.557285 0.284157
vt 0.312500 0.375000
vt 0.437500 0.375000
vt 0.125000 0.687500
vt 0.312500 0.562500
vt 0.125000 0.562500
vt 0.811199 0.690408
vt 0.811199 0.491384
vt 0.791704 0.510855
vt 0.507453 0.762470
vt 0.516177 0.638939
vt 0.543730 0.638955
vt 0.688062 0.561938
vt 0.125562 0.436938
vt 0.750562 0.311938
vt 0.750000 0.687500
vt 0.188062 0.311938
vt 0.375562 0.561938
vt 0.655204 0.577395
vt 0.545484 0.687492
vt 0.390051 0.687758
vt 0.279688 0.422605
vt 0.389407 0.312508
vt 0.544841 0.687758
vt 0.654937 0.578038
vt 0.655204 0.422605
vt 0.390051 0.312242
vt 0.279688 0.577395
vt 0.375000 0.750000
vt 0.437500 0.437500
vt 0.437500 0.312500
vt 0.375000 1.000000
vt 0.251296 0.410902
vt 0.683289 0.410161
vt 0.377607 0.284157
vt 0.556544 0.283851
vt 0.683595 0.589098
vt 0.625000 0.312500
vt 0.378348 0.283851
vt 0.251603 0.410161
vt 0.251296 0.589098
vt 0.556544 0.716149
vt 0.683595 0.410902
vt 0.312500 0.187500
vt 0.312500 0.687500
vt 0.764151 0.510839
vt 0.755427 0.634369
vt 0.676365 0.634180
vt 0.563225 0.619484
vt 0.563225 0.818508
vt 0.428391 0.762280
s 0
usemtl volute
f 8/19/7 6/20/7 14/21/7
f 7/27/8 11/28/8 15/29/8
f 26/47/7 24/48/7 22/49/7
f 23/53/8 27/54/8 31/55/8
f 6/20/7 4/73/7 2/74/7
f 2/74/7 16/75/7 6/20/7
f 16/75/7 14/21/7 6/20/7
f 14/21/7 12/76/7 10/77/7
f 10/77/7 8/19/7 14/21/7
f 15/29/8 1/78/8 3/79/8
f 3/79/8 5/80/8 7/27/8
f 7/27/8 9/81/8 11/28/8
f 11/28/8 13/82/8 15/29/8
f 15/29/8 3/79/8 7/27/8
f 22/49/7 20/87/7 30/88/7
f 20/87/7 18/89/7 30/88/7
f 18/89/7 32/90/7 30/88/7
f 30/88/7 28/91/7 22/49/7
f 28/91/7 26/47/7 22/49/7
f 31/55/8 17/93/8 19/94/8
f 19/94/8 21/95/8 23/53/8
f 23/53/8 25/96/8 27/54/8
f 27/54/8 29/97/8 31/55/8
f 31/55/8 19/94/8 23/53/8
usemtl sides
f 2/1/1 3/2/1 1/3/1
f 4/4/2 5/5/2 3/6/2
f 6/7/3 7/8/3 5/9/3
f 8/10/4 9/11/4 7/12/4
f 10/13/5 11/14/5 9/15/5
f 12/16/6 13/17/6 11/18/6
f 15/22/3 14/23/3 13/24/3
f 15/22/4 2/25/4 16/26/4
f 18/30/9 19/31/9 17/32/9
f 20/33/10 21/34/10 19/35/10
f 22/36/11 23/37/11 21/38/11
f 25/39/12 24/40/12 23/41/12
f 27/42/9 26/43/9 25/39/9
f 28/44/13 29/45/13 27/46/13
f 30/50/14 31/51/14 29/11/14
f 32/26/12 17/52/12 31/22/12
f 28/37/15 13/56/15 14/57/15
f 24/58/16 1/59/16 23/60/16
f 28/61/17 14/62/17 16/63/17
f 25/64/18 1/65/18 15/66/18
f 2/1/1 4/67/1 3/2/1
f 4/4/2 6/68/2 5/5/2
f 6/7/3 8/69/3 7/8/3
f 8/10/4 10/70/4 9/11/4
f 10/13/5 12/71/5 11/14/5
f 12/16/6 14/72/6 13/17/6
f 15/22/3 16/26/3 14/23/3
f 15/22/4 1/52/4 2/25/4
f 18/30/9 20/83/9 19/31/9
f 20/33/10 22/84/10 21/34/10
f 22/36/11 24/85/11 23/37/11
f 25/39/12 26/43/12 24/40/12
f 27/42/9 28/86/9 26/43/9
f 28/44/13 30/60/13 29/45/13
f 30/50/14 32/92/14 31/51/14
f 32/26/12 18/25/12 17/52/12
f 28/37/15 27/98/15 13/56/15
f 24/58/16 2/99/16 1/59/16
f 16/63/19 2/100/19 26/101/19
f 2/100/19 24/102/19 26/101/19
f 26/101/20 28/61/20 16/63/20
f 15/66/21 13/103/21 27/104/21
f 25/64/18 23/105/18 1/65/18
f 15/66/22 27/104/22 25/64/22
