# Blender 5.1.2
# www.blender.org
mtllib window_upper_frame_type1_right.mtl
o cube
v 0.505917 0.243916 0.125428
v 0.505917 0.243916 -0.499572
v 0.505917 -0.006084 0.125428
v 0.505917 -0.006084 -0.499572
v -0.244083 0.243916 -0.499572
v -0.244083 0.243916 0.125428
v -0.244083 -0.006084 -0.499572
v -0.244083 -0.006084 0.125428
vn -0.0000 -0.0000 -1.0000
vn 1.0000 -0.0000 -0.0000
vn -1.0000 -0.0000 -0.0000
vn -0.0000 1.0000 -0.0000
vn -0.0000 -1.0000 -0.0000
vn -0.0000 -0.0000 1.0000
vt 0.062500 0.375000
vt 0.812500 0.375000
vt 0.812500 0.625000
vt 0.062500 0.625000
vt 0.062500 0.687500
vt 0.687500 0.687500
vt 0.687500 0.937500
vt 0.062500 0.937500
vt 0.312500 0.062500
vt 0.937500 0.062500
vt 0.937500 0.312500
vt 0.312500 0.312500
vt 0.250000 0.375000
vt 1.000000 0.375000
vt 1.000000 1.000000
vt 0.250000 1.000000
vt 0.062500 0.000000
vt 0.812500 0.000000
vt 0.000000 0.750000
vt 0.750000 0.750000
vt 0.750000 1.000000
vt 0.000000 1.000000
s 1
usemtl sides
f 4/1/1 7/2/1 5/3/1 2/4/1
f 3/5/2 4/6/2 2/7/2 1/8/2
f 7/9/3 8/10/3 6/11/3 5/12/3
f 6/13/4 1/14/4 2/15/4 5/16/4
f 7/17/5 4/18/5 3/3/5 8/4/5
usemtl front
f 8/19/6 3/20/6 1/21/6 6/22/6
o Cube
v 0.812500 -0.008001 0.127928
v 0.750000 0.491999 0.127928
v 0.812500 -0.008001 -0.059572
v 0.750000 0.491999 -0.059572
v 0.999333 -0.008001 -0.059572
v 0.999333 0.491999 -0.059572
v 0.999333 -0.008001 0.127928
v 0.999333 0.491999 0.127928
vn -0.9923 -0.1240 -0.0000
vn -0.0000 -0.0000 1.0000
vn -0.0000 1.0000 -0.0000
vn -0.0000 -0.0000 -1.0000
vn -0.0000 -1.0000 -0.0000
vt 0.812500 0.437500
vt 0.812500 0.937500
vt 0.625000 0.937500
vt 0.625000 0.437500
vt 0.686833 0.250000
vt 0.686833 0.750000
vt 0.437500 0.750000
vt 0.500000 0.250000
vt 0.375000 0.688167
vt 0.375000 0.937500
vt 0.187500 0.937500
vt 0.187500 0.688167
vt 0.499998 0.062503
vt 0.562497 0.562497
vt 0.313167 0.562497
vt 0.313167 0.062503
vt 0.875000 0.250000
vt 0.875000 0.436833
vt 0.687500 0.436833
vt 0.687500 0.250000
s 1
usemtl sides
f 9/23/7 10/24/7 12/25/7 11/26/7
f 15/27/8 16/28/8 10/29/8 9/30/8
f 14/31/9 12/32/9 10/33/9 16/34/9
f 11/35/10 12/36/10 14/37/10 13/38/10
f 11/39/11 13/40/11 15/41/11 9/42/11
o cube.001
v 0.993417 0.243916 0.125428
v 0.993417 0.243916 -0.499572
v 0.993417 -0.006084 0.125428
v 0.993417 -0.006084 -0.499572
v 0.493417 0.243916 -0.499572
v 0.493417 0.243916 0.125428
v 0.493417 -0.006084 -0.499572
v 0.493417 -0.006084 0.125428
vn -0.0000 -0.0000 -1.0000
vn 1.0000 -0.0000 -0.0000
vn -1.0000 -0.0000 -0.0000
vn -0.0000 1.0000 -0.0000
vn -0.0000 -1.0000 -0.0000
vn -0.0000 -0.0000 1.0000
vt 0.125000 0.750000
vt 0.875000 0.750000
vt 0.875000 1.000000
vt 0.125000 1.000000
vt 0.375000 0.062500
vt 1.000000 0.062500
vt 1.000000 0.312500
vt 0.375000 0.312500
vt 0.000000 0.500000
vt 0.625000 0.500000
vt 0.625000 0.750000
vt 0.000000 0.750000
vt 0.250000 0.000000
vt 0.750000 0.000000
vt 0.750000 0.625000
vt 0.250000 0.625000
vt 0.250000 0.375000
vt 0.750000 0.375000
vt 0.750000 1.000000
vt 0.250000 1.000000
vt 0.250000 0.750000
vt 0.750000 0.750000
s 1
usemtl sides
f 20/43/12 23/44/12 21/45/12 18/46/12
f 19/47/13 20/48/13 18/49/13 17/50/13
f 23/51/14 24/52/14 22/53/14 21/54/14
f 22/55/15 17/56/15 18/57/15 21/58/15
f 23/59/16 20/60/16 19/61/16 24/62/16
usemtl front
f 24/63/17 19/64/17 17/61/17 22/62/17
