# Blender 5.1.2
# www.blender.org
mtllib window_keystone_type0_left.mtl
o Cube
v 0.125000 -0.006834 0.190428
v 0.187500 0.493166 0.190428
v 0.125000 -0.006834 0.002928
v 0.187500 0.493166 0.002928
v 0.375000 -0.010740 0.127928
v 0.437500 0.497073 0.127928
v 0.375000 -0.010740 -0.063479
v 0.437500 0.497073 -0.063479
v 0.000000 -0.006834 0.002928
v 0.000000 0.493166 0.002928
v 0.000000 -0.006834 0.190428
v 0.000000 0.493166 0.190428
v 0.000000 -0.010740 -0.063479
v 0.000000 0.497073 -0.063479
v 0.000000 -0.010740 0.127928
v 0.000000 0.497073 0.127928
vn -0.0000 -0.0000 -1.0000
vn 0.9923 -0.1240 -0.0000
vn -0.0000 -1.0000 -0.0000
vn 0.9925 -0.1222 -0.0000
vn -0.0000 -0.0000 1.0000
vn -0.0000 1.0000 -0.0000
vt 0.312500 0.062503
vt 0.312500 0.562497
vt 0.062503 0.562497
vt 0.125002 0.062503
vt 0.250000 0.125000
vt 0.250000 0.625000
vt 0.062500 0.625000
vt 0.062500 0.125000
vt 0.875000 0.437500
vt 0.875000 0.562500
vt 0.687500 0.562500
vt 0.687500 0.437500
vt 0.500000 0.062503
vt 0.500000 0.562497
vt 0.875000 0.812500
vt 0.687500 0.812500
vt 0.875000 0.250000
vt 0.937500 0.750000
vt 0.500000 0.750000
vt 0.500000 0.250000
vt 0.375000 0.500000
vt 0.375000 0.687500
vt 0.187500 0.687500
vt 0.187500 0.500000
vt 0.687500 0.750000
vt 0.687500 0.250000
s 0
usemtl sides
f 9/1/1 10/2/1 4/3/1 3/4/1
f 3/5/2 4/6/2 2/7/2 1/8/2
f 9/9/3 3/10/3 1/11/3 11/12/3
f 1/17/5 2/18/5 12/25/5 11/26/5
f 4/21/6 10/22/6 12/23/6 2/24/6
usemtl sides
f 13/13/1 14/14/1 8/3/1 7/4/1
f 7/5/4 8/6/4 6/7/4 5/8/4
f 13/9/3 7/15/3 5/16/3 15/12/3
f 5/17/5 6/18/5 16/19/5 15/20/5
f 8/21/6 14/22/6 16/23/6 6/24/6
