# Blender 5.1.2
# www.blender.org
mtllib window_greek_brackets_right.mtl
o bracket_left
v -0.063062 0.313929 0.045587
v -0.186937 0.313929 0.045587
v -0.063062 0.294458 0.065082
v -0.186937 0.294458 0.065082
v -0.063062 0.266904 0.065099
v -0.186937 0.266904 0.065099
v -0.063062 0.247409 0.045628
v -0.186937 0.247409 0.045628
v -0.063062 0.247392 0.018074
v -0.186937 0.247392 0.018074
v -0.063062 0.266864 -0.001421
v -0.186937 0.266864 -0.001421
v -0.063062 0.294417 -0.001437
v -0.186937 0.294417 -0.001437
v -0.063062 0.313912 0.018034
v -0.186937 0.313912 0.018034
v -0.062332 0.628246 0.133449
v -0.187512 0.628246 0.133449
v -0.062332 0.572274 0.189288
v -0.187512 0.572274 0.189288
v -0.062332 0.493213 0.189194
v -0.187512 0.493213 0.189194
v -0.062332 0.437374 0.133222
v -0.187512 0.437374 0.133222
v -0.062332 0.437468 0.054161
v -0.187512 0.437468 0.054161
v -0.062332 0.493439 -0.001678
v -0.187512 0.493439 -0.001678
v -0.062332 0.572501 -0.001584
v -0.187512 0.572501 -0.001584
v -0.062332 0.628340 0.054387
v -0.187512 0.628340 0.054387
vn -0.0000 0.7075 0.7067
vn -0.0000 0.0006 1.0000
vn -0.0000 -0.7067 0.7075
vn -0.0000 -1.0000 0.0006
vn -0.0000 -0.7075 -0.7067
vn -0.0000 -0.0006 -1.0000
vn -1.0000 -0.0000 -0.0000
vn 1.0000 -0.0000 -0.0000
vn -0.0000 0.7063 0.7079
vn -0.0000 -0.0012 1.0000
vn -0.0000 -0.7079 0.7063
vn -0.0000 1.0000 0.0012
vn -0.0000 0.0012 -1.0000
vn -0.0000 0.7079 -0.7063
vn -0.0000 -0.0012 -1.0000
vn -0.0000 -0.5789 0.8154
vn -1.0000 -0.0029 0.0029
vn 1.0000 -0.0059 -0.0000
vn -1.0000 -0.0047 -0.0000
vn -1.0000 -0.0036 -0.0036
vn 1.0000 -0.0037 0.0037
vn 1.0000 -0.0046 -0.0046
vt 0.653116 0.811938
vt 0.625562 0.688062
vt 0.653116 0.688062
vt 0.278116 0.624438
vt 0.250562 0.500562
vt 0.278116 0.500562
vt 0.090616 0.811938
vt 0.063062 0.688062
vt 0.090616 0.688062
vt 0.625000 1.000000
vt 0.500000 0.500000
vt 0.625000 0.500000
vt 0.215616 0.311938
vt 0.188062 0.188062
vt 0.215616 0.188062
vt 0.403116 0.561938
vt 0.375562 0.438062
vt 0.403116 0.438062
vt 0.544841 0.312242
vt 0.654937 0.421962
vt 0.279954 0.578038
vt 0.125000 0.500000
vt 0.250000 1.000000
vt 0.250000 0.500000
vt 0.000000 1.000000
vt 0.125000 1.000000
vt 0.545484 0.312508
vt 0.279954 0.421962
vt 0.389407 0.687491
vt 0.437500 0.750000
vt 0.375000 0.625000
vt 0.437500 0.625000
vt 0.437500 0.500000
vt 0.562500 0.437500
vt 0.562500 0.500000
vt 0.500000 0.312500
vt 0.437500 0.187500
vt 0.500000 0.187500
vt 0.375000 0.500000
vt 0.500000 1.000000
vt 0.375000 1.000000
vt 0.250000 0.875000
vt 0.375000 0.875000
vt 0.557285 0.715843
vt 0.378348 0.716149
vt 0.251603 0.589839
vt 0.687500 0.687500
vt 0.562500 0.562500
vt 0.687500 0.562500
vt 0.000000 0.500000
vt 0.377607 0.715843
vt 0.683289 0.589839
vt 0.557285 0.284157
vt 0.437500 0.687500
vt 0.562500 0.687500
vt 0.562500 0.375000
vt 0.375000 0.375000
vt 0.561199 0.440408
vt 0.561199 0.241384
vt 0.541704 0.260855
vt 0.132453 0.387470
vt 0.141177 0.263939
vt 0.168730 0.263955
vt 0.625562 0.811938
vt 0.250562 0.624438
vt 0.063062 0.811938
vt 0.188062 0.311938
vt 0.375562 0.561938
vt 0.655204 0.577395
vt 0.545484 0.687492
vt 0.390051 0.687758
vt 0.279688 0.422605
vt 0.389407 0.312508
vt 0.544841 0.687758
vt 0.654937 0.578038
vt 0.655204 0.422605
vt 0.390051 0.312242
vt 0.279688 0.577395
vt 0.375000 0.750000
vt 0.437500 0.437500
vt 0.437500 0.312500
vt 0.251296 0.410902
vt 0.683289 0.410161
vt 0.377607 0.284157
vt 0.556544 0.283851
vt 0.683595 0.589098
vt 0.378348 0.283851
vt 0.251603 0.410161
vt 0.251296 0.589098
vt 0.556544 0.716149
vt 0.683595 0.410902
vt 0.514151 0.260839
vt 0.505427 0.384369
vt 0.426365 0.384180
vt 0.188225 0.244484
vt 0.188225 0.443508
vt 0.053391 0.387280
s 0
usemtl volute
f 8/19/7 6/20/7 14/21/7
f 7/27/8 11/28/8 15/29/8
f 26/44/7 24/45/7 22/46/7
f 23/51/8 27/52/8 31/53/8
f 6/20/7 4/69/7 2/70/7
f 2/70/7 16/71/7 6/20/7
f 16/71/7 14/21/7 6/20/7
f 14/21/7 12/72/7 10/73/7
f 10/73/7 8/19/7 14/21/7
f 15/29/8 1/74/8 3/75/8
f 3/75/8 5/76/8 7/27/8
f 7/27/8 9/77/8 11/28/8
f 11/28/8 13/78/8 15/29/8
f 15/29/8 3/75/8 7/27/8
f 22/46/7 20/82/7 30/83/7
f 20/82/7 18/84/7 30/83/7
f 18/84/7 32/85/7 30/83/7
f 30/83/7 28/86/7 22/46/7
f 28/86/7 26/44/7 22/46/7
f 31/53/8 17/87/8 19/88/8
f 19/88/8 21/89/8 23/51/8
f 23/51/8 25/90/8 27/52/8
f 27/52/8 29/91/8 31/53/8
f 31/53/8 19/88/8 23/51/8
usemtl sides
f 2/1/1 3/2/1 1/3/1
f 4/4/2 5/5/2 3/6/2
f 6/7/3 7/8/3 5/9/3
f 8/10/4 9/11/4 7/12/4
f 10/13/5 11/14/5 9/15/5
f 12/16/6 13/17/6 11/18/6
f 15/22/3 14/23/3 13/24/3
f 15/22/4 2/25/4 16/26/4
f 18/30/9 19/31/9 17/32/9
f 20/33/10 21/34/10 19/35/10
f 22/36/11 23/37/11 21/38/11
f 25/11/12 24/10/12 23/12/12
f 27/39/9 26/40/9 25/11/9
f 28/41/13 29/42/13 27/43/13
f 30/47/14 31/48/14 29/49/14
f 32/26/12 17/50/12 31/22/12
f 28/35/15 13/54/15 14/55/15
f 24/39/16 1/56/16 23/57/16
f 28/58/17 14/59/17 16/60/17
f 25/61/18 1/62/18 15/63/18
f 2/1/1 4/64/1 3/2/1
f 4/4/2 6/65/2 5/5/2
f 6/7/3 8/66/3 7/8/3
f 8/10/4 10/40/4 9/11/4
f 10/13/5 12/67/5 11/14/5
f 12/16/6 14/68/6 13/17/6
f 15/22/3 16/26/3 14/23/3
f 15/22/4 1/50/4 2/25/4
f 18/30/9 20/79/9 19/31/9
f 20/33/10 22/80/10 21/34/10
f 22/36/11 24/81/11 23/37/11
f 25/11/12 26/40/12 24/10/12
f 27/39/9 28/41/9 26/40/9
f 28/41/13 30/23/13 29/42/13
f 30/47/14 32/55/14 31/48/14
f 32/26/12 18/25/12 17/50/12
f 28/35/15 27/33/15 13/54/15
f 24/39/16 2/35/16 1/56/16
f 16/60/19 2/92/19 26/93/19
f 2/92/19 24/94/19 26/93/19
f 26/93/20 28/58/20 16/60/20
f 15/63/21 13/95/21 27/96/21
f 25/61/18 23/97/18 1/62/18
f 15/63/22 27/96/22 25/61/22
