# Blender 5.1.2
# www.blender.org
mtllib window_greek_pediment_both.mtl
o Cube.009
v 0.000000 0.625000 0.312500
v 0.000000 0.750000 0.312500
v 0.000000 0.625000 -0.062500
v 0.000000 0.750000 -0.062500
v 1.000000 0.625000 -0.062500
v 1.000000 0.750000 -0.062500
v 1.000000 0.625000 0.312500
v 1.000000 0.750000 0.312500
v 0.500000 0.625000 -0.062500
v 0.500000 0.750000 0.312500
v 0.500000 0.750000 -0.062500
v 0.500000 0.625000 0.312500
vn -1.0000 -0.0000 -0.0000
vn -0.0000 -0.0000 1.0000
vn -0.0000 1.0000 -0.0000
vn -0.0000 -1.0000 -0.0000
vn -0.0000 -0.0000 -1.0000
vt 0.500000 0.687500
vt 0.500000 0.562500
vt 0.875000 0.562500
vt 0.875000 0.687500
vt 0.250000 0.687500
vt 0.250000 0.562500
vt 0.750000 0.562500
vt 0.750000 0.687500
vt 0.500000 0.625000
vt 1.000000 0.625000
vt 1.000000 1.000000
vt 0.500000 1.000000
vt 0.062500 0.562500
vt 0.562500 0.562500
vt 0.562500 0.937500
vt 0.062500 0.937500
vt 0.375000 0.125000
vt 0.375000 0.000000
vt 1.000000 0.000000
vt 1.000000 0.125000
vt 0.250000 0.375000
vt 0.250000 0.250000
vt 1.000000 0.250000
vt 1.000000 0.375000
vt 0.125000 0.250000
vt 0.625000 0.250000
vt 0.625000 0.625000
vt 0.125000 0.625000
vt 0.250000 0.625000
vt 0.750000 0.625000
vt 0.750000 1.000000
vt 0.250000 1.000000
vt 0.187500 0.375000
vt 0.187500 0.250000
vt 0.687500 0.250000
vt 0.687500 0.375000
s 0
usemtl sides.056
f 1/1/1 2/2/1 4/3/1 3/4/1
f 12/5/2 10/6/2 2/7/2 1/8/2
f 11/9/3 4/10/3 2/11/3 10/12/3
f 9/13/4 5/14/4 7/15/4 12/16/4
f 9/17/5 11/18/5 6/19/5 5/20/5
f 3/21/5 4/22/5 11/23/5 9/24/5
f 3/25/4 9/26/4 12/27/4 1/28/4
f 6/29/3 11/30/3 10/31/3 8/32/3
f 7/33/2 8/34/2 10/35/2 12/36/2
o Cube.001
v 1.000000 1.221653 -0.062500
v 1.000000 1.092826 0.312500
v 1.000000 1.092826 -0.062500
v 1.000000 0.963999 0.125000
v 1.000000 1.092826 -0.062500
v 1.000000 1.221653 0.312500
v 1.000000 0.963999 -0.062500
v 1.000000 1.092826 0.125000
v 0.000000 1.092826 -0.062500
v -0.000000 1.221653 0.312500
v -0.000000 0.963999 -0.062500
v 0.000000 1.092826 0.125000
v -0.000000 1.221653 -0.062500
v 0.000000 1.092826 0.312500
v 0.000000 1.092826 -0.062500
v -0.000000 0.963999 0.125000
vn -0.0000 -1.0000 -0.0000
vn -0.0000 -0.0000 1.0000
vn -0.0000 -0.0000 -1.0000
vn -0.0000 1.0000 -0.0000
vt 1.000000 1.000000
vt -0.000000 1.000000
vt 0.000000 0.625000
vt 1.000000 0.625000
vt 0.000000 0.875000
vt 0.000000 0.750000
vt 1.000000 0.750000
vt 1.000000 0.875000
vt -0.000000 0.375000
vt 1.000000 0.375000
vt 1.000000 0.562500
vt -0.000000 0.562500
vt 1.000000 0.125000
vt 1.000000 0.250000
vt 0.000000 0.250000
vt 0.000000 0.125000
vt 1.000000 0.625000
vt -0.000000 0.625000
vt 0.000000 0.500000
vt 1.000000 0.500000
vt -0.000000 0.375000
vt 0.000000 0.000000
vt 1.000000 0.000000
vt 1.000000 0.375000
s 0
usemtl sides.056
f 14/37/6 26/38/6 21/39/6 17/40/6
f 16/41/7 20/42/7 24/43/7 28/44/7
f 16/45/6 28/46/6 23/47/6 19/48/6
f 15/49/8 19/50/8 23/51/8 27/52/8 21/52/8 17/49/8
f 25/53/8 13/54/8 17/55/8 21/56/8
f 18/57/9 13/58/9 25/59/9 22/60/9
f 14/55/7 18/45/7 22/46/7 26/56/7
