# Blender 5.1.2
# www.blender.org
mtllib window_upper_frame_type1_single.mtl
o cube
v 0.505917 0.243916 0.125428
v 0.505917 0.243916 -0.499572
v 0.505917 -0.006084 0.125428
v 0.505917 -0.006084 -0.499572
v -0.244083 0.243916 -0.499572
v -0.244083 0.243916 0.125428
v -0.244083 -0.006084 -0.499572
v -0.244083 -0.006084 0.125428
vn -0.0000 -0.0000 -1.0000
vn 1.0000 -0.0000 -0.0000
vn -0.0000 -0.0000 1.0000
vn -1.0000 -0.0000 -0.0000
vn -0.0000 1.0000 -0.0000
vn -0.0000 -1.0000 -0.0000
vt 0.062500 0.375000
vt 0.812500 0.375000
vt 0.812500 0.625000
vt 0.062500 0.625000
vt 0.062500 0.687500
vt 0.687500 0.687500
vt 0.687500 0.937500
vt 0.062500 0.937500
vt 0.000000 0.750000
vt 0.750000 0.750000
vt 0.750000 1.000000
vt 0.000000 1.000000
vt 0.312500 0.062500
vt 0.937500 0.062500
vt 0.937500 0.312500
vt 0.312500 0.312500
vt 0.250000 0.375000
vt 1.000000 0.375000
vt 1.000000 1.000000
vt 0.250000 1.000000
vt 0.062500 0.000000
vt 0.812500 0.000000
s 1
usemtl sides
f 4/1/1 7/2/1 5/3/1 2/4/1
f 3/5/2 4/6/2 2/7/2 1/8/2
f 7/13/4 8/14/4 6/15/4 5/16/4
f 6/17/5 1/18/5 2/19/5 5/20/5
f 7/21/6 4/22/6 3/3/6 8/4/6
usemtl front
f 8/9/3 3/10/3 1/11/3 6/12/3
o cube.001
v 1.243417 0.243916 0.125428
v 1.243417 0.243916 -0.499572
v 1.243417 -0.006084 0.125428
v 1.243417 -0.006084 -0.499572
v 0.493417 0.243916 -0.499572
v 0.493417 0.243916 0.125428
v 0.493417 -0.006084 -0.499572
v 0.493417 -0.006084 0.125428
vn -0.0000 -0.0000 -1.0000
vn 1.0000 -0.0000 -0.0000
vn -0.0000 -0.0000 1.0000
vn -1.0000 -0.0000 -0.0000
vn -0.0000 1.0000 -0.0000
vn -0.0000 -1.0000 -0.0000
vt 0.125000 0.750000
vt 0.875000 0.750000
vt 0.875000 1.000000
vt 0.125000 1.000000
vt 0.375000 0.062500
vt 1.000000 0.062500
vt 1.000000 0.312500
vt 0.375000 0.312500
vt 0.250000 0.750000
vt 1.000000 0.750000
vt 1.000000 1.000000
vt 0.250000 1.000000
vt 0.000000 0.500000
vt 0.625000 0.500000
vt 0.625000 0.750000
vt 0.000000 0.750000
vt 0.000000 0.000000
vt 0.750000 0.000000
vt 0.750000 0.625000
vt 0.000000 0.625000
vt 0.250000 0.375000
vt 1.000000 0.375000
s 1
usemtl sides
f 12/23/7 15/24/7 13/25/7 10/26/7
f 11/27/8 12/28/8 10/29/8 9/30/8
f 15/35/10 16/36/10 14/37/10 13/38/10
f 14/39/11 9/40/11 10/41/11 13/42/11
f 15/43/12 12/44/12 11/33/12 16/34/12
usemtl front
f 16/31/9 11/32/9 9/33/9 14/34/9
o Cube
v 0.313167 -0.006834 0.127928
v 0.250667 0.493166 0.127928
v 0.313167 -0.006834 -0.059572
v 0.250667 0.493166 -0.059572
v 0.688167 -0.006834 0.127928
v 0.750667 0.493166 0.127928
v 0.688167 -0.006834 -0.059572
v 0.750667 0.493166 -0.059572
vn -0.9923 -0.1240 -0.0000
vn -0.0000 -0.0000 -1.0000
vn 0.9923 -0.1240 -0.0000
vn -0.0000 -0.0000 1.0000
vn -0.0000 -1.0000 -0.0000
vn -0.0000 1.0000 -0.0000
vt 0.812500 0.437500
vt 0.812500 0.937500
vt 0.625000 0.937500
vt 0.625000 0.437500
vt 0.499998 0.062503
vt 0.562497 0.562497
vt 0.062503 0.562497
vt 0.125002 0.062503
vt 0.250000 0.125000
vt 0.250000 0.625000
vt 0.062500 0.625000
vt 0.062500 0.125000
vt 0.875000 0.250000
vt 0.937500 0.750000
vt 0.437500 0.750000
vt 0.500000 0.250000
vt 0.875000 0.625000
vt 0.687500 0.625000
vt 0.687500 0.250000
vt 0.375000 0.437500
vt 0.375000 0.937500
vt 0.187500 0.937500
vt 0.187500 0.437500
s 0
usemtl sides
f 17/45/13 18/46/13 20/47/13 19/48/13
f 19/49/14 20/50/14 24/51/14 23/52/14
f 23/53/15 24/54/15 22/55/15 21/56/15
f 21/57/16 22/58/16 18/59/16 17/60/16
f 19/57/17 23/61/17 21/62/17 17/63/17
f 24/64/18 20/65/18 18/66/18 22/67/18
