# Blender 5.1.2
# www.blender.org
mtllib window_straight_pediment_left.mtl
o Cube.004
v 1.375000 0.625000 0.312500
v 1.375000 0.750000 0.312500
v 1.375000 0.625000 -0.062500
v 1.375000 0.750000 -0.062500
v 0.000000 0.625000 -0.062500
v 0.000000 0.750000 -0.062500
v 0.000000 0.625000 0.312500
v 0.000000 0.750000 0.312500
v 0.625000 0.750000 -0.062500
v 0.625000 0.625000 0.312500
v 0.625000 0.625000 -0.062500
v 0.625000 0.750000 0.312500
vn -0.0000 -0.0000 -1.0000
vn 1.0000 -0.0000 -0.0000
vn -0.0000 -1.0000 -0.0000
vn -0.0000 1.0000 -0.0000
vn -0.0000 -0.0000 1.0000
vt 0.000000 0.562500
vt 0.000000 0.375000
vt 0.750000 0.375000
vt 0.750000 0.562500
vt 0.000000 0.250000
vt 0.375000 0.250000
vt 0.375000 0.375000
vt 0.250000 0.000000
vt 1.000000 0.000000
vt 1.000000 0.375000
vt 0.250000 0.375000
vt 0.375000 0.187500
vt 1.000000 0.187500
vt 1.000000 0.562500
vt 0.375000 0.562500
vt 0.125000 0.937500
vt 0.125000 0.812500
vt 0.750000 0.812500
vt 0.750000 0.937500
vt 0.250000 0.250000
vt 0.250000 0.125000
vt 1.000000 0.125000
vt 1.000000 0.250000
vt 0.125000 0.187500
vt 0.875000 0.187500
vt 0.875000 0.562500
vt 0.125000 0.562500
vt 0.125000 0.000000
vt 0.750000 0.000000
vt 0.125000 0.375000
vt 0.312500 0.687500
vt 0.312500 0.500000
vt 0.937500 0.500000
vt 0.937500 0.687500
s 0
usemtl sides
f 11/1/1 9/2/1 4/3/1 3/4/1
f 3/2/2 4/5/2 2/6/2 1/7/2
f 11/8/3 3/9/3 1/10/3 10/11/3
f 9/12/4 6/13/4 8/14/4 12/15/4
f 10/16/5 12/17/5 8/18/5 7/19/5
f 1/20/5 2/21/5 12/22/5 10/23/5
f 4/24/4 9/25/4 12/26/4 2/27/4
f 5/28/3 11/29/3 10/3/3 7/30/3
f 5/31/1 6/32/1 9/33/1 11/34/1
o Cube.001
v 1.437500 0.750000 0.312500
v 1.500000 0.937500 0.312500
v 1.437500 0.750000 -0.062500
v 1.500000 0.937500 -0.062500
v 0.000000 0.750000 -0.062500
v 0.000000 0.937500 -0.062500
v 0.000000 0.750000 0.312500
v 0.000000 0.937500 0.312500
v 0.625000 0.937500 -0.062500
v 0.625000 0.750000 0.312500
v 0.625000 0.750000 -0.062500
v 0.625000 0.937500 0.312500
v 1.500000 0.875000 -0.062500
v 1.437500 0.812500 -0.062500
v 1.500000 0.875000 0.312500
v 1.437500 0.812500 0.312500
v 0.000000 0.875000 0.312500
v 0.000000 0.812500 0.312500
v 0.000000 0.875000 -0.062500
v 0.000000 0.812500 -0.062500
v 0.625000 0.875000 0.312500
v 0.625000 0.812500 0.312500
v 0.625000 0.875000 -0.062500
v 0.625000 0.812500 -0.062500
vn -0.0000 -0.0000 -1.0000
vn 1.0000 -0.0000 -0.0000
vn -0.0000 -1.0000 -0.0000
vn -0.0000 1.0000 -0.0000
vn -0.0000 -0.0000 1.0000
vn 0.7071 -0.7071 -0.0000
vt 0.062500 0.687500
vt 0.062500 0.625000
vt 0.937500 0.625000
vt 0.937500 0.687500
vt 0.562500 0.562500
vt 0.562500 0.500000
vt 0.937500 0.500000
vt 0.937500 0.562500
vt 0.125000 0.000000
vt 1.000000 0.000000
vt 1.000000 0.375000
vt 0.125000 0.375000
vt 0.125000 0.500000
vt 0.750000 0.500000
vt 0.750000 0.875000
vt 0.125000 0.875000
vt 0.250000 0.562500
vt 0.250000 0.500000
vt 0.875000 0.500000
vt 0.875000 0.562500
vt 0.125000 0.125000
vt 0.125000 0.062500
vt 1.000000 0.062500
vt 1.000000 0.125000
vt 0.062500 0.562500
vt 0.937500 0.562500
vt 0.937500 0.937500
vt 0.062500 0.937500
vt 0.750000 0.000000
vt 0.750000 0.375000
vt 0.750000 0.062500
vt 0.750000 0.125000
vt 0.125000 0.250000
vt 0.125000 0.187500
vt 0.750000 0.187500
vt 0.750000 0.250000
vt 0.187500 0.250000
vt 0.187500 0.187500
vt 1.000000 0.187500
vt 1.000000 0.250000
vt 0.937500 0.437500
vt 1.000000 0.500000
vt 0.125000 0.437500
vt 0.250000 0.687500
vt 0.250000 0.625000
vt 0.875000 0.625000
vt 0.875000 0.687500
vt 0.562500 0.687500
vt 0.562500 0.625000
vt 0.937500 0.687500
vt 0.062500 0.812500
vt 0.062500 0.750000
vt 0.937500 0.750000
vt 0.937500 0.812500
s 0
usemtl sides
f 35/35/6 21/36/6 16/37/6 25/38/6
f 25/39/7 16/40/7 14/41/7 27/42/7
f 23/43/8 15/44/8 13/45/8 22/46/8
f 21/47/9 18/48/9 20/49/9 24/50/9
f 33/51/10 24/52/10 20/53/10 29/54/10
f 27/55/10 14/56/10 24/57/10 33/58/10
f 16/59/9 21/60/9 24/61/9 14/62/9
f 17/43/8 23/63/8 22/64/8 19/46/8
f 31/55/6 18/56/6 21/65/6 35/66/6
f 17/67/6 32/68/6 36/69/6 23/70/6
f 32/68/6 31/55/6 35/66/6 36/69/6
f 13/71/10 28/72/10 34/73/10 22/74/10
f 28/75/10 27/76/10 33/47/10 34/77/10
f 22/78/10 34/79/10 30/80/10 19/81/10
f 34/79/10 33/51/10 29/54/10 30/80/10
f 15/82/7 26/83/7 28/37/7 13/84/7
f 26/83/11 25/39/11 27/42/11 28/37/11
f 23/85/6 36/86/6 26/87/6 15/88/6
f 36/86/6 35/35/6 25/38/6 26/87/6
