# Blender 5.1.2
# www.blender.org
mtllib window_greek_frame_left.mtl
o left
v 0.505917 0.243916 0.125428
v 0.505917 0.243916 -0.499572
v 0.505917 -0.006084 0.125428
v 0.505917 -0.006084 -0.499572
v -0.000333 0.243916 -0.499572
v -0.000333 0.243916 0.125428
v -0.000333 -0.006084 -0.499572
v -0.000333 -0.006084 0.125428
vn -0.0000 -0.0000 -1.0000
vn 1.0000 -0.0000 -0.0000
vn -0.0000 -0.0000 1.0000
vn -1.0000 -0.0000 -0.0000
vn -0.0000 1.0000 -0.0000
vn -0.0000 -1.0000 -0.0000
vt 0.312500 0.375000
vt 0.812500 0.375000
vt 0.812500 0.625000
vt 0.312500 0.625000
vt 0.062500 0.687500
vt 0.687500 0.687500
vt 0.687500 0.937500
vt 0.062500 0.937500
vt 0.250000 0.750000
vt 0.750000 0.750000
vt 0.750000 1.000000
vt 0.250000 1.000000
vt 0.312500 0.062500
vt 0.937500 0.062500
vt 0.937500 0.312500
vt 0.312500 0.312500
vt 0.250000 0.375000
vt 0.750000 0.375000
vt 0.125000 0.000000
vt 0.625000 0.000000
vt 0.625000 0.625000
vt 0.125000 0.625000
s 1
usemtl sides.056
f 4/1/1 7/2/1 5/3/1 2/4/1
f 3/5/2 4/6/2 2/7/2 1/8/2
f 7/13/4 8/14/4 6/15/4 5/16/4
f 6/17/5 1/18/5 2/11/5 5/12/5
f 7/19/6 4/20/6 3/21/6 8/22/6
usemtl front
f 8/9/3 3/10/3 1/11/3 6/12/3
o left.001
v 1.243417 0.243916 0.125428
v 1.243417 0.243916 -0.499572
v 1.243417 -0.006084 0.125428
v 1.243417 -0.006084 -0.499572
v 0.493417 0.243916 -0.499572
v 0.493417 0.243916 0.125428
v 0.493417 -0.006084 -0.499572
v 0.493417 -0.006084 0.125428
vn -0.0000 -0.0000 -1.0000
vn 1.0000 -0.0000 -0.0000
vn -0.0000 -0.0000 1.0000
vn -1.0000 -0.0000 -0.0000
vn -0.0000 1.0000 -0.0000
vn -0.0000 -1.0000 -0.0000
vt 0.125000 0.750000
vt 0.875000 0.750000
vt 0.875000 1.000000
vt 0.125000 1.000000
vt 0.375000 0.062500
vt 1.000000 0.062500
vt 1.000000 0.312500
vt 0.375000 0.312500
vt 0.250000 0.750000
vt 1.000000 0.750000
vt 1.000000 1.000000
vt 0.250000 1.000000
vt 0.000000 0.500000
vt 0.625000 0.500000
vt 0.625000 0.750000
vt 0.000000 0.750000
vt 0.000000 0.000000
vt 0.750000 0.000000
vt 0.750000 0.625000
vt 0.000000 0.625000
vt 0.250000 0.375000
vt 1.000000 0.375000
s 1
usemtl sides.056
f 12/23/7 15/24/7 13/25/7 10/26/7
f 11/27/8 12/28/8 10/29/8 9/30/8
f 15/35/10 16/36/10 14/37/10 13/38/10
f 14/39/11 9/40/11 10/41/11 13/42/11
f 15/43/12 12/44/12 11/33/12 16/34/12
usemtl front
f 16/31/9 11/32/9 9/33/9 14/34/9
