# Blender 5.1.2
# www.blender.org
mtllib window_upper_frame_type1_left.mtl
o cube.002
v 0.505917 0.243916 0.125428
v 0.505917 0.243916 -0.499572
v 0.505917 -0.006084 0.125428
v 0.505917 -0.006084 -0.499572
v 0.005917 0.243916 -0.499572
v 0.005917 0.243916 0.125428
v 0.005917 -0.006084 -0.499572
v 0.005917 -0.006084 0.125428
vn -0.0000 -0.0000 -1.0000
vn 1.0000 -0.0000 -0.0000
vn -1.0000 -0.0000 -0.0000
vn -0.0000 1.0000 -0.0000
vn -0.0000 -1.0000 -0.0000
vn -0.0000 -0.0000 1.0000
vt 0.062500 0.375000
vt 0.812500 0.375000
vt 0.812500 0.625000
vt 0.062500 0.625000
vt 0.062500 0.687500
vt 0.687500 0.687500
vt 0.687500 0.937500
vt 0.062500 0.937500
vt 0.312500 0.062500
vt 0.937500 0.062500
vt 0.937500 0.312500
vt 0.312500 0.312500
vt 0.312500 0.187500
vt 0.812500 0.187500
vt 0.812500 0.812500
vt 0.312500 0.812500
vt 0.062500 0.000000
vt 0.562500 0.000000
vt 0.562500 0.625000
vt 0.250000 0.750000
vt 0.750000 0.750000
vt 0.750000 1.000000
vt 0.250000 1.000000
s 1
usemtl sides
f 4/1/1 7/2/1 5/3/1 2/4/1
f 3/5/2 4/6/2 2/7/2 1/8/2
f 7/9/3 8/10/3 6/11/3 5/12/3
f 6/13/4 1/14/4 2/15/4 5/16/4
f 7/17/5 4/18/5 3/19/5 8/4/5
usemtl front
f 8/20/6 3/21/6 1/22/6 6/23/6
o Cube.001
v 0.187500 -0.008001 0.127928
v 0.250000 0.491999 0.127928
v 0.187500 -0.008001 -0.059572
v 0.250000 0.491999 -0.059572
v -0.000667 -0.008001 -0.059572
v -0.000667 0.491999 -0.059572
v -0.000667 -0.008001 0.127928
v -0.000667 0.491999 0.127928
vn -0.0000 -0.0000 -1.0000
vn 0.9923 -0.1240 -0.0000
vn -0.0000 -1.0000 -0.0000
vn -0.0000 -0.0000 1.0000
vn -0.0000 1.0000 -0.0000
vt 0.313167 0.062503
vt 0.313167 0.562497
vt 0.062503 0.562497
vt 0.125002 0.062503
vt 0.250000 0.125000
vt 0.250000 0.625000
vt 0.062500 0.625000
vt 0.062500 0.125000
vt 0.875000 0.436833
vt 0.875000 0.625000
vt 0.687500 0.625000
vt 0.687500 0.436833
vt 0.875000 0.250000
vt 0.937500 0.750000
vt 0.686833 0.750000
vt 0.686833 0.250000
vt 0.375000 0.437500
vt 0.375000 0.688167
vt 0.187500 0.688167
vt 0.187500 0.437500
s 1
usemtl sides
f 13/24/7 14/25/7 12/26/7 11/27/7
f 11/28/8 12/29/8 10/30/8 9/31/8
f 13/32/9 11/33/9 9/34/9 15/35/9
f 9/36/10 10/37/10 16/38/10 15/39/10
f 12/40/11 14/41/11 16/42/11 10/43/11
o cube.003
v 1.243417 0.243916 0.125428
v 1.243417 0.243916 -0.499572
v 1.243417 -0.006084 0.125428
v 1.243417 -0.006084 -0.499572
v 0.493417 0.243916 -0.499572
v 0.493417 0.243916 0.125428
v 0.493417 -0.006084 -0.499572
v 0.493417 -0.006084 0.125428
vn -0.0000 -0.0000 -1.0000
vn 1.0000 -0.0000 -0.0000
vn -1.0000 -0.0000 -0.0000
vn -0.0000 1.0000 -0.0000
vn -0.0000 -1.0000 -0.0000
vn -0.0000 -0.0000 1.0000
vt 0.125000 0.750000
vt 0.875000 0.750000
vt 0.875000 1.000000
vt 0.125000 1.000000
vt 0.375000 0.062500
vt 1.000000 0.062500
vt 1.000000 0.312500
vt 0.375000 0.312500
vt 0.000000 0.500000
vt 0.625000 0.500000
vt 0.625000 0.750000
vt 0.000000 0.750000
vt 0.000000 0.000000
vt 0.750000 0.000000
vt 0.750000 0.625000
vt 0.000000 0.625000
vt 0.250000 0.375000
vt 1.000000 0.375000
vt 1.000000 1.000000
vt 0.250000 1.000000
vt 0.250000 0.750000
vt 1.000000 0.750000
s 1
usemtl sides
f 20/44/12 23/45/12 21/46/12 18/47/12
f 19/48/13 20/49/13 18/50/13 17/51/13
f 23/52/14 24/53/14 22/54/14 21/55/14
f 22/56/15 17/57/15 18/58/15 21/59/15
f 23/60/16 20/61/16 19/62/16 24/63/16
usemtl front
f 24/64/17 19/65/17 17/62/17 22/63/17
