# Blender 5.1.2
# www.blender.org
mtllib window_greek_pediment_single.mtl
o Cube.003
v 1.344760 0.628713 0.125000
v 1.375000 0.750000 0.125000
v 1.344760 0.628713 -0.062500
v 1.375000 0.750000 -0.062500
v 1.375000 0.750000 0.312500
v 1.405240 0.871287 0.312500
v 1.375000 0.750000 -0.062500
v 1.405240 0.871287 -0.062500
v 0.500000 0.968162 -0.062500
v 0.500000 0.839335 0.125000
v 0.500000 1.096989 -0.062500
v 0.500000 0.968162 0.312500
v 0.500000 0.839335 -0.062500
v 0.500000 0.968162 0.125000
v 0.500000 0.968162 -0.062500
v 0.500000 1.096989 0.312500
vn -0.0000 -0.0000 -1.0000
vn 0.9703 -0.2419 -0.0000
vn -0.2419 -0.9703 -0.0000
vn -0.0000 -0.0000 1.0000
vn 0.2419 0.9703 -0.0000
vt 0.904732 0.750000
vt 0.941513 0.875000
vt 0.000000 0.875000
vt 0.000000 0.750000
vt 0.375000 0.500000
vt 0.625000 0.500000
vt 0.625000 0.750000
vt 0.375000 0.750000
vt 0.034952 0.687500
vt 1.000000 0.687500
vt 1.000000 0.875000
vt 0.034952 0.875000
vt 0.375000 0.371173
vt 0.625000 0.366721
vt 0.812500 0.437500
vt 0.812500 0.562500
vt 0.437500 0.562500
vt 0.437500 0.437500
vt 0.941512 0.937500
vt 0.000000 0.937500
vt 0.000000 0.562500
vt 0.941513 0.562500
vt 1.000000 0.437500
vt 1.000000 0.562500
vt 0.079438 0.562500
vt 0.117332 0.437500
vt 0.079438 0.562500
vt 0.079438 0.187500
vt 1.000000 0.187500
vt 0.058487 0.562500
vt 0.095268 0.437500
vt 0.763736 0.500000
vt 0.763736 0.750000
s 0
usemtl sides
f 13/1/1 9/2/1 4/3/1 3/4/1
f 3/5/2 4/6/2 2/7/2 1/8/2
f 13/9/3 3/10/3 1/11/3 10/12/3
f 15/13/1 11/14/1 8/6/1 7/5/1
f 7/15/2 8/16/2 6/17/2 5/18/2
f 15/19/3 7/20/3 5/21/3 12/22/3
f 5/23/4 6/24/4 16/25/4 12/26/4
f 8/24/5 11/27/5 16/28/5 6/29/5
f 1/23/4 2/24/4 14/30/4 10/31/4
f 4/6/5 9/32/5 14/33/5 2/7/5
o Cube.004
v -0.375000 0.625000 0.312500
v -0.375000 0.750000 0.312500
v -0.375000 0.625000 -0.062500
v -0.375000 0.750000 -0.062500
v 1.375000 0.625000 0.312500
v 1.375000 0.750000 0.312500
v 1.375000 0.625000 -0.062500
v 1.375000 0.750000 -0.062500
v 0.500000 0.625000 -0.062500
v 0.500000 0.750000 -0.062500
v 0.500000 0.625000 0.312500
v 0.500000 0.750000 0.312500
vn -1.0000 -0.0000 -0.0000
vn -0.0000 -0.0000 -1.0000
vn 1.0000 -0.0000 -0.0000
vn -0.0000 -0.0000 1.0000
vn -0.0000 -1.0000 -0.0000
vn -0.0000 1.0000 -0.0000
vt 0.500000 0.687500
vt 0.500000 0.562500
vt 0.875000 0.562500
vt 0.875000 0.687500
vt 0.000000 0.875000
vt 0.000000 0.750000
vt 0.875000 0.750000
vt 0.875000 0.875000
vt 0.000000 0.375000
vt 0.000000 0.250000
vt 0.375000 0.250000
vt 0.375000 0.375000
vt 0.125000 0.687500
vt 0.125000 0.562500
vt 1.000000 0.562500
vt 1.000000 0.687500
vt 0.125000 0.000000
vt 1.000000 0.000000
vt 1.000000 0.375000
vt 0.125000 0.375000
vt 0.125000 0.625000
vt 1.000000 0.625000
vt 1.000000 1.000000
vt 0.125000 1.000000
vt 0.125000 0.187500
vt 1.000000 0.187500
vt 0.875000 0.250000
vt 0.875000 0.625000
vt 0.000000 0.625000
vt 0.062500 0.250000
vt 0.062500 0.125000
vt 0.937500 0.125000
vt 0.937500 0.250000
vt 0.125000 0.125000
vt 1.000000 0.125000
s 0
usemtl sides
f 17/34/6 18/35/6 20/36/6 19/37/6
f 25/38/7 26/39/7 24/40/7 23/41/7
f 23/42/8 24/43/8 22/44/8 21/45/8
f 27/46/9 28/47/9 18/48/9 17/49/9
f 25/50/10 23/51/10 21/52/10 27/53/10
f 26/54/11 20/55/11 18/56/11 28/57/11
f 24/58/11 26/59/11 28/48/11 22/47/11
f 19/43/10 25/60/10 27/61/10 17/62/10
f 21/63/9 22/64/9 28/65/9 27/66/9
f 19/67/7 20/50/7 26/51/7 25/68/7
o Cube.007
v -0.375000 0.750000 0.312500
v -0.405240 0.871287 0.312500
v -0.375000 0.750000 -0.062500
v -0.405240 0.871287 -0.062500
v -0.344760 0.628713 0.125000
v -0.375000 0.750000 0.125000
v -0.344760 0.628713 -0.062500
v -0.375000 0.750000 -0.062500
v 0.500000 0.968162 -0.062500
v 0.500000 1.096989 0.312500
v 0.500000 0.839335 -0.062500
v 0.500000 0.968162 0.125000
v 0.500000 1.096989 -0.062500
v 0.500000 0.968162 0.312500
v 0.500000 0.968162 -0.062500
v 0.500000 0.839335 0.125000
vn -0.9703 -0.2419 -0.0000
vn -0.0000 -0.0000 1.0000
vn -0.2419 0.9703 -0.0000
vn -0.0000 -0.0000 -1.0000
vn 0.2419 -0.9703 -0.0000
vt 0.625000 0.437500
vt 0.625000 0.312500
vt 1.000000 0.312500
vt 1.000000 0.437500
vt 0.882668 0.375000
vt 0.920562 0.500000
vt 0.000000 0.500000
vt 0.000000 0.375000
vt 0.920562 0.875000
vt -0.000000 0.875000
vt 0.375000 0.000000
vt 0.625000 0.000000
vt 0.625000 0.250000
vt 0.375000 0.250000
vt 0.904732 0.625000
vt 0.941512 0.750000
vt 0.000000 0.750000
vt 0.000000 0.625000
vt 0.736264 0.500000
vt 0.875000 0.500000
vt 0.875000 0.750000
vt 0.736264 0.750000
vt 1.000000 0.750000
vt 1.000000 0.875000
vt 0.058488 0.875000
vt 0.095268 0.750000
vt 0.000000 0.250000
vt 0.965048 0.250000
vt 0.965048 0.437500
vt 0.000000 0.437500
vt 1.000000 0.187500
vt 0.079438 0.312500
vt 0.117332 0.187500
vt 0.125000 0.500000
vt 0.253827 0.500000
vt 0.253827 0.750000
vt 0.125000 0.750000
s 0
usemtl sides
f 29/69/12 30/70/12 32/71/12 31/72/12
f 42/73/13 38/74/13 30/75/13 29/76/13
f 41/77/14 32/78/14 30/75/14 38/74/14
f 33/79/12 34/80/12 36/81/12 35/82/12
f 44/83/13 40/84/13 34/85/13 33/86/13
f 43/87/14 36/88/14 34/89/14 40/90/14
f 35/91/15 36/92/15 43/93/15 39/94/15
f 35/95/16 39/96/16 44/97/16 33/98/16
f 31/99/15 32/71/15 41/100/15 37/101/15
f 31/102/16 37/103/16 42/104/16 29/105/16
