# Blender 5.1.2
# www.blender.org
mtllib window_straight_pediment_both.mtl
o Cube.009
v 0.000000 0.625000 0.312500
v 0.000000 0.750000 0.312500
v 0.000000 0.625000 -0.062500
v 0.000000 0.750000 -0.062500
v 1.000000 0.625000 -0.062500
v 1.000000 0.750000 -0.062500
v 1.000000 0.625000 0.312500
v 1.000000 0.750000 0.312500
v 0.500000 0.625000 -0.062500
v 0.500000 0.750000 0.312500
v 0.500000 0.750000 -0.062500
v 0.500000 0.625000 0.312500
vn -1.0000 -0.0000 -0.0000
vn -0.0000 -0.0000 1.0000
vn -0.0000 1.0000 -0.0000
vn -0.0000 -1.0000 -0.0000
vn -0.0000 -0.0000 -1.0000
vt 0.500000 0.687500
vt 0.500000 0.562500
vt 0.875000 0.562500
vt 0.875000 0.687500
vt 0.250000 0.625000
vt 0.250000 0.500000
vt 0.750000 0.500000
vt 0.750000 0.625000
vt 0.500000 0.625000
vt 1.000000 0.625000
vt 1.000000 1.000000
vt 0.500000 1.000000
vt 0.062500 0.562500
vt 0.562500 0.562500
vt 0.562500 0.937500
vt 0.062500 0.937500
vt 0.375000 0.187500
vt 0.375000 0.000000
vt 1.000000 0.000000
vt 1.000000 0.187500
vt 0.250000 0.312500
vt 1.000000 0.312500
vt 1.000000 0.500000
vt 0.125000 0.250000
vt 0.625000 0.250000
vt 0.625000 0.625000
vt 0.125000 0.625000
vt 0.750000 1.000000
vt 0.250000 1.000000
vt 0.187500 0.375000
vt 0.187500 0.250000
vt 0.687500 0.250000
vt 0.687500 0.375000
s 0
usemtl sides
f 1/1/1 2/2/1 4/3/1 3/4/1
f 12/5/2 10/6/2 2/7/2 1/8/2
f 11/9/3 4/10/3 2/11/3 10/12/3
f 9/13/4 5/14/4 7/15/4 12/16/4
f 9/17/5 11/18/5 6/19/5 5/20/5
f 3/6/5 4/21/5 11/22/5 9/23/5
f 3/24/4 9/25/4 12/26/4 1/27/4
f 6/5/3 11/8/3 10/28/3 8/29/3
f 7/30/2 8/31/2 10/32/2 12/33/2
o Cube.003
v 0.000000 0.750000 0.312500
v 0.000000 0.937500 0.312500
v 0.000000 0.750000 -0.062500
v 0.000000 0.937500 -0.062500
v 1.000000 0.750000 -0.062500
v 1.000000 0.937500 -0.062500
v 1.000000 0.750000 0.312500
v 1.000000 0.937500 0.312500
v 0.500000 0.750000 -0.062500
v 0.500000 0.937500 0.312500
v 0.500000 0.937500 -0.062500
v 0.500000 0.750000 0.312500
vn -1.0000 -0.0000 -0.0000
vn -0.0000 -0.0000 1.0000
vn -0.0000 1.0000 -0.0000
vn -0.0000 -1.0000 -0.0000
vn -0.0000 -0.0000 -1.0000
vt 0.500000 0.687500
vt 0.500000 0.562500
vt 0.875000 0.562500
vt 0.875000 0.687500
vt 0.000000 0.187500
vt 0.000000 0.000000
vt 0.500000 0.000000
vt 0.500000 0.187500
vt 0.250000 0.562500
vt 0.750000 0.562500
vt 0.750000 0.937500
vt 0.250000 0.937500
vt 0.062500 0.562500
vt 0.562500 0.562500
vt 0.562500 0.937500
vt 0.062500 0.937500
vt 0.375000 0.187500
vt 0.375000 0.000000
vt 1.000000 0.000000
vt 1.000000 0.187500
vt 0.250000 0.437500
vt 0.250000 0.250000
vt 1.000000 0.250000
vt 1.000000 0.437500
vt 0.125000 0.250000
vt 0.625000 0.250000
vt 0.625000 0.625000
vt 0.125000 0.625000
vt 0.312500 0.062500
vt 0.812500 0.062500
vt 0.812500 0.437500
vt 0.312500 0.437500
vt 0.250000 0.875000
vt 0.250000 0.687500
vt 0.750000 0.687500
vt 0.750000 0.875000
s 0
usemtl sides
f 13/34/6 14/35/6 16/36/6 15/37/6
f 24/38/7 22/39/7 14/40/7 13/41/7
f 23/42/8 16/43/8 14/44/8 22/45/8
f 21/46/9 17/47/9 19/48/9 24/49/9
f 21/50/10 23/51/10 18/52/10 17/53/10
f 15/54/10 16/55/10 23/56/10 21/57/10
f 15/58/9 21/59/9 24/60/9 13/61/9
f 18/62/8 23/63/8 22/64/8 20/65/8
f 19/66/7 20/67/7 22/68/7 24/69/7
