# Blender 5.1.2
# www.blender.org
mtllib window_straight_dentils_left.mtl
o dentil.010
v 0.312500 0.500000 0.250000
v 0.312500 0.687500 0.250000
v 0.312500 0.500000 0.125000
v 0.312500 0.687500 0.125000
v 0.437500 0.500000 0.250000
v 0.437500 0.687500 0.250000
v 0.437500 0.500000 0.125000
v 0.437500 0.687500 0.125000
vn -1.0000 -0.0000 -0.0000
vn -0.0000 -0.0000 -1.0000
vn 1.0000 -0.0000 -0.0000
vn -0.0000 -0.0000 1.0000
vn -0.0000 -1.0000 -0.0000
vn -0.0000 1.0000 -0.0000
vt 0.437500 0.312500
vt 0.437500 0.500000
vt 0.312500 0.500000
vt 0.312500 0.312500
vt 0.125000 0.875000
vt 0.125000 0.687500
vt 0.250000 0.687500
vt 0.250000 0.875000
vt 0.812500 0.687500
vt 0.812500 0.875000
vt 0.687500 0.875000
vt 0.687500 0.687500
vt 0.187500 0.750000
vt 0.187500 0.937500
vt 0.062500 0.937500
vt 0.062500 0.750000
vt 0.125000 0.500000
vt 0.250000 0.500000
vt 0.250000 0.625000
vt 0.125000 0.625000
vt 0.375000 0.750000
vt 0.500000 0.750000
vt 0.500000 0.875000
vt 0.375000 0.875000
s 0
usemtl sides.056
f 1/1/1 2/2/1 4/3/1 3/4/1
f 3/5/2 4/6/2 8/7/2 7/8/2
f 7/9/3 8/10/3 6/11/3 5/12/3
f 5/13/4 6/14/4 2/15/4 1/16/4
f 3/17/5 7/18/5 5/19/5 1/20/5
f 8/21/6 4/22/6 2/23/6 6/24/6
o dentil.011
v 0.562500 0.500000 0.250000
v 0.562500 0.687500 0.250000
v 0.562500 0.500000 0.125000
v 0.562500 0.687500 0.125000
v 0.687500 0.500000 0.250000
v 0.687500 0.687500 0.250000
v 0.687500 0.500000 0.125000
v 0.687500 0.687500 0.125000
vn -1.0000 -0.0000 -0.0000
vn -0.0000 -0.0000 -1.0000
vn 1.0000 -0.0000 -0.0000
vn -0.0000 -0.0000 1.0000
vn -0.0000 -1.0000 -0.0000
vn -0.0000 1.0000 -0.0000
vt 0.875000 0.000000
vt 0.875000 0.187500
vt 0.750000 0.187500
vt 0.750000 0.000000
vt 0.250000 1.000000
vt 0.250000 0.812500
vt 0.375000 0.812500
vt 0.375000 1.000000
vt 0.125000 0.812500
vt 0.125000 1.000000
vt 0.000000 1.000000
vt 0.000000 0.812500
vt 0.687500 0.187500
vt 0.687500 0.375000
vt 0.562500 0.375000
vt 0.562500 0.187500
vt 0.125000 0.500000
vt 0.250000 0.500000
vt 0.250000 0.625000
vt 0.125000 0.625000
vt 0.375000 0.750000
vt 0.500000 0.750000
vt 0.500000 0.875000
vt 0.375000 0.875000
s 0
usemtl sides.056
f 9/25/7 10/26/7 12/27/7 11/28/7
f 11/29/8 12/30/8 16/31/8 15/32/8
f 15/33/9 16/34/9 14/35/9 13/36/9
f 13/37/10 14/38/10 10/39/10 9/40/10
f 11/41/11 15/42/11 13/43/11 9/44/11
f 16/45/12 12/46/12 10/47/12 14/48/12
o dentil.012
v 0.812500 0.500000 0.250000
v 0.812500 0.687500 0.250000
v 0.812500 0.500000 0.125000
v 0.812500 0.687500 0.125000
v 0.937500 0.500000 0.250000
v 0.937500 0.687500 0.250000
v 0.937500 0.500000 0.125000
v 0.937500 0.687500 0.125000
vn -1.0000 -0.0000 -0.0000
vn -0.0000 -0.0000 -1.0000
vn 1.0000 -0.0000 -0.0000
vn -0.0000 -0.0000 1.0000
vn -0.0000 -1.0000 -0.0000
vn -0.0000 1.0000 -0.0000
vt 0.687500 0.000000
vt 0.687500 0.187500
vt 0.562500 0.187500
vt 0.562500 0.000000
vt 0.687500 0.687500
vt 0.687500 0.500000
vt 0.812500 0.500000
vt 0.812500 0.687500
vt 0.187500 0.000000
vt 0.187500 0.187500
vt 0.062500 0.187500
vt 0.062500 0.000000
vt 1.000000 0.312500
vt 1.000000 0.500000
vt 0.875000 0.500000
vt 0.875000 0.312500
vt 0.125000 0.500000
vt 0.250000 0.500000
vt 0.250000 0.625000
vt 0.125000 0.625000
vt 0.375000 0.750000
vt 0.500000 0.750000
vt 0.500000 0.875000
vt 0.375000 0.875000
s 0
usemtl sides.056
f 17/49/13 18/50/13 20/51/13 19/52/13
f 19/53/14 20/54/14 24/55/14 23/56/14
f 23/57/15 24/58/15 22/59/15 21/60/15
f 21/61/16 22/62/16 18/63/16 17/64/16
f 19/65/17 23/66/17 21/67/17 17/68/17
f 24/69/18 20/70/18 18/71/18 22/72/18
o dentil.013
v 1.062500 0.500000 0.250000
v 1.062500 0.687500 0.250000
v 1.062500 0.500000 0.125000
v 1.062500 0.687500 0.125000
v 1.187500 0.500000 0.250000
v 1.187500 0.687500 0.250000
v 1.187500 0.500000 0.125000
v 1.187500 0.687500 0.125000
vn -1.0000 -0.0000 -0.0000
vn -0.0000 -0.0000 -1.0000
vn 1.0000 -0.0000 -0.0000
vn -0.0000 -0.0000 1.0000
vn -0.0000 -1.0000 -0.0000
vn -0.0000 1.0000 -0.0000
vt 0.125000 0.437500
vt 0.125000 0.625000
vt 0.000000 0.625000
vt 0.000000 0.437500
vt 0.375000 0.687500
vt 0.375000 0.500000
vt 0.500000 0.500000
vt 0.500000 0.687500
vt 0.687500 0.062500
vt 0.687500 0.250000
vt 0.562500 0.250000
vt 0.562500 0.062500
vt 0.812500 0.687500
vt 0.812500 0.875000
vt 0.687500 0.875000
vt 0.687500 0.687500
vt 0.125000 0.500000
vt 0.250000 0.500000
vt 0.250000 0.625000
vt 0.000000 0.375000
vt 0.125000 0.375000
vt 0.000000 0.500000
s 0
usemtl sides.056
f 25/73/19 26/74/19 28/75/19 27/76/19
f 27/77/20 28/78/20 32/79/20 31/80/20
f 31/81/21 32/82/21 30/83/21 29/84/21
f 29/85/22 30/86/22 26/87/22 25/88/22
f 27/89/23 31/90/23 29/91/23 25/74/23
f 32/92/24 28/93/24 26/89/24 30/94/24
o Cube.036
v 1.250000 0.437500 0.125244
v 1.250000 0.625000 0.125244
v 1.250000 0.437500 -0.062500
v 1.250000 0.625000 -0.062500
v 0.000000 0.437500 -0.062500
v 0.000000 0.625000 -0.062500
v 0.000000 0.437500 0.125244
v 0.000000 0.625000 0.125244
v 0.625000 0.625000 -0.062500
v 0.625000 0.437500 0.125244
v 0.625000 0.437500 -0.062500
v 0.625000 0.625000 0.125244
vn -0.0000 -0.0000 -1.0000
vn 1.0000 -0.0000 -0.0000
vn -0.0000 -1.0000 -0.0000
vn -0.0000 1.0000 -0.0000
vn -0.0000 -0.0000 1.0000
vt 0.250000 0.500000
vt 0.250000 0.312500
vt 1.000000 0.312500
vt 1.000000 0.500000
vt 0.000000 0.375000
vt 0.000000 0.187500
vt 0.187500 0.187500
vt 0.187500 0.375000
vt 0.375000 0.187500
vt 1.000000 0.187500
vt 1.000000 0.375000
vt 0.375000 0.375000
vt 1.000000 0.562500
vt 0.375000 0.562500
vt 0.062500 0.562500
vt 0.062500 0.375000
vt 0.687500 0.375000
vt 0.687500 0.562500
vt 0.250000 1.000000
vt 0.250000 0.812500
vt 0.875000 0.812500
vt 0.875000 1.000000
vt 0.125000 0.187500
vt 0.875000 0.187500
vt 0.875000 0.562500
vt 0.125000 0.562500
vt 0.125000 0.000000
vt 0.750000 0.000000
vt 0.750000 0.187500
vt 0.000000 1.000000
vt 0.000000 0.812500
vt 0.625000 0.812500
vt 0.625000 1.000000
s 0
usemtl sides.056
f 43/95/25 41/96/25 36/97/25 35/98/25
f 35/99/26 36/100/26 34/101/26 33/102/26
f 43/103/27 35/104/27 33/105/27 42/106/27
f 41/103/28 38/104/28 40/107/28 44/108/28
f 42/109/29 44/110/29 40/111/29 39/112/29
f 33/113/29 34/114/29 44/115/29 42/116/29
f 36/117/28 41/118/28 44/119/28 34/120/28
f 37/121/27 43/122/27 42/123/27 39/117/27
f 37/124/25 38/125/25 41/126/25 43/127/25
o dentil.001
v 0.062500 0.500000 0.250000
v 0.062500 0.687500 0.250000
v 0.062500 0.500000 0.125000
v 0.062500 0.687500 0.125000
v 0.187500 0.500000 0.250000
v 0.187500 0.687500 0.250000
v 0.187500 0.500000 0.125000
v 0.187500 0.687500 0.125000
vn -1.0000 -0.0000 -0.0000
vn -0.0000 -0.0000 -1.0000
vn 1.0000 -0.0000 -0.0000
vn -0.0000 -0.0000 1.0000
vn -0.0000 -1.0000 -0.0000
vn -0.0000 1.0000 -0.0000
vt 1.000000 0.187500
vt 1.000000 0.375000
vt 0.875000 0.375000
vt 0.875000 0.187500
vt 0.250000 1.000000
vt 0.250000 0.812500
vt 0.375000 0.812500
vt 0.375000 1.000000
vt 0.250000 0.500000
vt 0.250000 0.687500
vt 0.125000 0.687500
vt 0.125000 0.500000
vt 0.562500 0.750000
vt 0.562500 0.937500
vt 0.437500 0.937500
vt 0.437500 0.750000
vt 0.250000 0.625000
vt 0.125000 0.625000
vt 0.375000 0.750000
vt 0.500000 0.750000
vt 0.500000 0.875000
vt 0.375000 0.875000
s 0
usemtl sides.056
f 45/128/30 46/129/30 48/130/30 47/131/30
f 47/132/31 48/133/31 52/134/31 51/135/31
f 51/136/32 52/137/32 50/138/32 49/139/32
f 49/140/33 50/141/33 46/142/33 45/143/33
f 47/139/34 51/136/34 49/144/34 45/145/34
f 52/146/35 48/147/35 46/148/35 50/149/35
