# Blender 5.1.2
# www.blender.org
mtllib window_keystone_type1_both.mtl
o cube
v 0.505917 0.243916 0.125428
v 0.505917 0.243916 -0.499572
v 0.505917 -0.006084 0.125428
v 0.505917 -0.006084 -0.499572
v 0.005917 0.243916 -0.499572
v 0.005917 0.243916 0.125428
v 0.005917 -0.006084 -0.499572
v 0.005917 -0.006084 0.125428
vn -0.0000 -0.0000 -1.0000
vn 1.0000 -0.0000 -0.0000
vn -0.0000 -0.0000 1.0000
vn -1.0000 -0.0000 -0.0000
vn -0.0000 1.0000 -0.0000
vn -0.0000 -1.0000 -0.0000
vt 0.312500 0.375000
vt 0.812500 0.375000
vt 0.812500 0.625000
vt 0.312500 0.625000
vt 0.062500 0.687500
vt 0.687500 0.687500
vt 0.687500 0.937500
vt 0.062500 0.937500
vt 0.250000 0.750000
vt 0.750000 0.750000
vt 0.750000 1.000000
vt 0.250000 1.000000
vt 0.312500 0.062500
vt 0.937500 0.062500
vt 0.937500 0.312500
vt 0.312500 0.312500
vt 0.500000 0.375000
vt 1.000000 0.375000
vt 1.000000 1.000000
vt 0.500000 1.000000
vt 0.187500 0.000000
vt 0.687500 0.000000
vt 0.687500 0.625000
vt 0.187500 0.625000
s 1
usemtl sides
f 4/1/1 7/2/1 5/3/1 2/4/1
f 3/5/2 4/6/2 2/7/2 1/8/2
f 7/13/4 8/14/4 6/15/4 5/16/4
f 6/17/5 1/18/5 2/19/5 5/20/5
f 7/21/6 4/22/6 3/23/6 8/24/6
usemtl front
f 8/9/3 3/10/3 1/11/3 6/12/3
o cube.001
v 0.993417 0.243916 0.125428
v 0.993417 0.243916 -0.499572
v 0.993417 -0.006084 0.125428
v 0.993417 -0.006084 -0.499572
v 0.493417 0.243916 -0.499572
v 0.493417 0.243916 0.125428
v 0.493417 -0.006084 -0.499572
v 0.493417 -0.006084 0.125428
vn -0.0000 -0.0000 -1.0000
vn 1.0000 -0.0000 -0.0000
vn -0.0000 -0.0000 1.0000
vn -1.0000 -0.0000 -0.0000
vn -0.0000 1.0000 -0.0000
vn -0.0000 -1.0000 -0.0000
vt 0.125000 0.750000
vt 0.625000 0.750000
vt 0.625000 1.000000
vt 0.125000 1.000000
vt 0.375000 0.062500
vt 1.000000 0.062500
vt 1.000000 0.312500
vt 0.375000 0.312500
vt 0.250000 0.750000
vt 0.750000 0.750000
vt 0.750000 1.000000
vt 0.250000 1.000000
vt 0.000000 0.500000
vt 0.625000 0.500000
vt 0.000000 0.750000
vt 0.250000 0.000000
vt 0.750000 0.000000
vt 0.750000 0.625000
vt 0.250000 0.625000
vt 0.250000 0.375000
vt 0.750000 0.375000
s 1
usemtl sides
f 12/25/7 15/26/7 13/27/7 10/28/7
f 11/29/8 12/30/8 10/31/8 9/32/8
f 15/37/10 16/38/10 14/26/10 13/39/10
f 14/40/11 9/41/11 10/42/11 13/43/11
f 15/44/12 12/45/12 11/35/12 16/36/12
usemtl front
f 16/33/9 11/34/9 9/35/9 14/36/9
o Cube
v 0.000000 -0.006834 0.190428
v 0.000000 0.493166 0.190428
v 0.000000 -0.006834 0.002928
v 0.000000 0.493166 0.002928
v 1.000000 -0.006834 0.190428
v 1.000000 0.493166 0.190428
v 1.000000 -0.006834 0.002928
v 1.000000 0.493166 0.002928
v 0.000000 -0.010740 0.127928
v 0.000000 0.497073 0.127928
v 0.000000 -0.010740 -0.063479
v 0.000000 0.497073 -0.063479
v 1.000000 -0.010740 0.127928
v 1.000000 0.497073 0.127928
v 1.000000 -0.010740 -0.063479
v 1.000000 0.497073 -0.063479
vn -1.0000 -0.0000 -0.0000
vn -0.0000 -0.0000 -1.0000
vn 1.0000 -0.0000 -0.0000
vn -0.0000 -0.0000 1.0000
vn -0.0000 -1.0000 -0.0000
vn -0.0000 1.0000 -0.0000
vt 0.812500 0.437500
vt 0.812500 0.937500
vt 0.625000 0.937500
vt 0.625000 0.437500
vt 0.499998 0.062503
vt 0.562497 0.562497
vt 0.062503 0.562497
vt 0.125002 0.062503
vt 0.250000 0.125000
vt 0.250000 0.625000
vt 0.062500 0.625000
vt 0.062500 0.125000
vt 1.000000 0.250000
vt 1.000000 0.750000
vt 0.000000 0.750000
vt 0.000000 0.250000
vt 0.875000 0.312500
vt 0.875000 0.562500
vt 0.687500 0.562500
vt 0.687500 0.312500
vt 0.375000 0.500000
vt 0.375000 0.875000
vt 0.187500 0.875000
vt 0.187500 0.500000
vt 0.999998 0.062503
vt 0.999997 0.562497
vt 0.000003 0.562497
vt 0.000002 0.062503
vt 0.875000 0.250000
vt 0.937500 0.750000
vt 0.062500 0.750000
vt 0.125000 0.250000
vt 0.875000 0.062500
vt 0.875000 0.812500
vt 0.687500 0.812500
vt 0.687500 0.062500
s 0
usemtl sides
f 17/46/13 18/47/13 20/48/13 19/49/13
f 19/50/14 20/51/14 24/52/14 23/53/14
f 23/54/15 24/55/15 22/56/15 21/57/15
f 21/58/16 22/59/16 18/60/16 17/61/16
f 19/62/17 23/63/17 21/64/17 17/65/17
f 24/66/18 20/67/18 18/68/18 22/69/18
usemtl sides
f 25/46/13 26/47/13 28/48/13 27/49/13
f 27/70/14 28/71/14 32/72/14 31/73/14
f 31/54/15 32/55/15 30/56/15 29/57/15
f 29/74/16 30/75/16 26/76/16 25/77/16
f 27/78/17 31/79/17 29/80/17 25/81/17
f 32/66/18 28/67/18 26/68/18 30/69/18
