# Blender 5.1.2
# www.blender.org
mtllib window_straight_pediment_single.mtl
o Cube.004
v -0.375000 0.625000 0.312500
v -0.375000 0.750000 0.312500
v -0.375000 0.625000 -0.062500
v -0.375000 0.750000 -0.062500
v 1.375000 0.625000 0.312500
v 1.375000 0.750000 0.312500
v 1.375000 0.625000 -0.062500
v 1.375000 0.750000 -0.062500
v 0.500000 0.625000 -0.062500
v 0.500000 0.750000 -0.062500
v 0.500000 0.625000 0.312500
v 0.500000 0.750000 0.312500
vn -1.0000 -0.0000 -0.0000
vn -0.0000 -0.0000 -1.0000
vn 1.0000 -0.0000 -0.0000
vn -0.0000 -0.0000 1.0000
vn -0.0000 -1.0000 -0.0000
vn -0.0000 1.0000 -0.0000
vt 0.500000 0.750000
vt 0.500000 0.562500
vt 0.875000 0.562500
vt 0.875000 0.750000
vt 0.000000 0.875000
vt 0.000000 0.687500
vt 0.875000 0.687500
vt 0.875000 0.875000
vt 0.000000 0.437500
vt 0.000000 0.250000
vt 0.375000 0.250000
vt 0.375000 0.437500
vt 0.125000 0.750000
vt 0.125000 0.562500
vt 1.000000 0.562500
vt 1.000000 0.750000
vt 0.125000 0.000000
vt 1.000000 0.000000
vt 1.000000 0.375000
vt 0.125000 0.375000
vt 0.125000 0.625000
vt 1.000000 0.625000
vt 1.000000 1.000000
vt 0.125000 1.000000
vt 0.125000 0.187500
vt 1.000000 0.187500
vt 0.875000 0.250000
vt 0.875000 0.625000
vt 0.000000 0.625000
vt 0.062500 0.250000
vt 0.062500 0.062500
vt 0.937500 0.062500
vt 0.937500 0.250000
s 0
usemtl sides
f 1/1/1 2/2/1 4/3/1 3/4/1
f 9/5/2 10/6/2 8/7/2 7/8/2
f 7/9/3 8/10/3 6/11/3 5/12/3
f 11/13/4 12/14/4 2/15/4 1/16/4
f 9/17/5 7/18/5 5/19/5 11/20/5
f 10/21/6 4/22/6 2/23/6 12/24/6
f 8/25/6 10/26/6 12/15/6 6/14/6
f 3/10/5 9/27/5 11/28/5 1/29/5
f 5/30/4 6/31/4 12/32/4 11/33/4
f 3/25/2 4/17/2 10/18/2 9/26/2
o Cube.001
v -0.437500 0.750000 0.312500
v -0.500000 0.937500 0.312500
v -0.437500 0.750000 -0.062500
v -0.500000 0.937500 -0.062500
v 1.437500 0.750000 0.312500
v 1.500000 0.937500 0.312500
v 1.437500 0.750000 -0.062500
v 1.500000 0.937500 -0.062500
v 0.500000 0.750000 -0.062500
v 0.500000 0.937500 -0.062500
v 0.500000 0.750000 0.312500
v 0.500000 0.937500 0.312500
v -0.437500 0.812500 0.312500
v -0.500000 0.875000 0.312500
v -0.500000 0.875000 -0.062500
v -0.437500 0.812500 -0.062500
v 1.500000 0.875000 -0.062500
v 1.437500 0.812500 -0.062500
v 1.500000 0.875000 0.312500
v 1.437500 0.812500 0.312500
v 0.500000 0.875000 0.312500
v 0.500000 0.812500 0.312500
v 0.500000 0.875000 -0.062500
v 0.500000 0.812500 -0.062500
vn -1.0000 -0.0000 -0.0000
vn -0.0000 -0.0000 -1.0000
vn 1.0000 -0.0000 -0.0000
vn -0.0000 -0.0000 1.0000
vn -0.0000 -1.0000 -0.0000
vn -0.0000 1.0000 -0.0000
vn 0.7071 -0.7071 -0.0000
vn -0.7071 -0.7071 -0.0000
vt 0.500000 0.604167
vt 0.500000 0.562500
vt 0.875000 0.562500
vt 0.875000 0.604167
vt 0.000000 0.437500
vt 0.000000 0.375000
vt 1.000000 0.375000
vt 1.000000 0.437500
vt 0.000000 0.291667
vt 0.000000 0.250000
vt 0.375000 0.250000
vt 0.375000 0.291667
vt 0.000000 0.187500
vt 0.000000 0.125000
vt 1.000000 0.125000
vt 1.000000 0.187500
vt 0.125000 0.000000
vt 1.000000 0.000000
vt 0.125000 0.375000
vt 0.000000 0.625000
vt 1.000000 0.625000
vt 1.000000 1.000000
vt 0.000000 1.000000
vt 1.000000 0.562500
vt 0.000000 0.562500
vt 0.875000 0.250000
vt 0.875000 0.625000
vt 0.000000 0.875000
vt 0.000000 0.812500
vt 1.000000 0.812500
vt 1.000000 0.875000
vt 0.000000 0.312500
vt 1.000000 0.312500
vt 0.000000 0.500000
vt 0.937500 0.437500
vt 0.937500 0.500000
vt 1.000000 0.500000
vt 0.000000 0.937500
vt 0.937500 0.937500
vt 0.937500 1.000000
vt 0.062500 0.312500
vt 0.062500 0.250000
vt 1.000000 0.250000
vt 0.062500 0.437500
vt 0.375000 0.312500
vt 0.375000 0.375000
vt 0.937500 0.562500
vt 1.000000 0.750000
vt 0.062500 0.750000
vt 0.500000 0.687500
vt 0.500000 0.625000
vt 0.875000 0.687500
s 0
usemtl sides
f 26/34/7 14/35/7 16/36/7 27/37/7
f 35/38/8 22/39/8 20/40/8 29/41/8
f 29/42/9 20/43/9 18/44/9 31/45/9
f 33/46/10 24/47/10 14/48/10 26/49/10
f 21/50/11 19/51/11 17/40/11 23/52/11
f 22/53/12 16/54/12 14/55/12 24/56/12
f 20/46/12 22/49/12 24/57/12 18/58/12
f 15/43/11 21/59/11 23/60/11 13/53/11
f 31/61/10 18/62/10 24/63/10 33/64/10
f 27/39/8 16/65/8 22/66/8 35/40/8
f 15/67/8 28/38/8 36/68/8 21/69/8
f 28/68/8 27/70/8 35/67/8 36/38/8
f 17/56/10 32/71/10 34/72/10 23/73/10
f 32/68/10 31/70/10 33/67/10 34/38/10
f 23/74/10 34/75/10 25/76/10 13/66/10
f 34/41/10 33/70/10 26/67/10 25/77/10
f 19/39/9 30/65/9 32/78/9 17/79/9
f 30/65/13 29/43/13 31/44/13 32/78/13
f 21/58/8 36/67/8 30/69/8 19/80/8
f 36/81/8 35/63/8 29/62/8 30/82/8
f 13/83/7 25/84/7 28/60/7 15/85/7
f 25/84/14 26/35/14 27/36/14 28/60/14
