# Blender 5.1.2
# www.blender.org
mtllib window_keystone_type0_right.mtl
o Cube
v 0.875000 -0.006834 0.190428
v 0.812500 0.493166 0.190428
v 0.875000 -0.006834 0.002928
v 0.812500 0.493166 0.002928
v 0.625000 -0.010740 0.127928
v 0.562500 0.497073 0.127928
v 0.625000 -0.010740 -0.063479
v 0.562500 0.497073 -0.063479
v 1.000000 -0.006834 0.002928
v 1.000000 0.493166 0.002928
v 1.000000 -0.006834 0.190428
v 1.000000 0.493166 0.190428
v 1.000000 -0.010740 -0.063479
v 1.000000 0.497073 -0.063479
v 1.000000 -0.010740 0.127928
v 1.000000 0.497073 0.127928
vn -0.9923 -0.1240 -0.0000
vn -0.0000 -0.0000 1.0000
vn -0.0000 1.0000 -0.0000
vn -0.9925 -0.1222 -0.0000
vn -0.0000 -0.0000 -1.0000
vn -0.0000 -1.0000 -0.0000
vt 0.812500 0.437500
vt 0.812500 0.937500
vt 0.625000 0.937500
vt 0.625000 0.437500
vt 0.687500 0.250000
vt 0.687500 0.750000
vt 0.437500 0.750000
vt 0.500000 0.250000
vt 0.375000 0.687500
vt 0.375000 0.875000
vt 0.187500 0.875000
vt 0.187500 0.687500
vt 0.500000 0.750000
vt 0.062500 0.750000
vt 0.125000 0.250000
vt 0.874998 0.062503
vt 0.937497 0.562497
vt 0.500000 0.562497
vt 0.500000 0.062503
vt 0.875000 0.062500
vt 0.875000 0.437500
vt 0.687500 0.437500
vt 0.687500 0.062500
vt 0.499998 0.062503
vt 0.562497 0.562497
vt 0.312500 0.562497
vt 0.312500 0.062503
vt 0.875000 0.312500
vt 0.687500 0.312500
s 0
usemtl sides
f 1/1/1 2/2/1 4/3/1 3/4/1
f 11/5/2 12/6/2 2/7/2 1/8/2
f 10/9/3 4/10/3 2/11/3 12/12/3
f 3/24/5 4/25/5 10/26/5 9/27/5
f 3/28/6 9/21/6 11/22/6 1/29/6
usemtl sides
f 5/1/4 6/2/4 8/3/4 7/4/4
f 15/8/2 16/13/2 6/14/2 5/15/2
f 14/9/3 8/10/3 6/11/3 16/12/3
f 7/16/5 8/17/5 14/18/5 13/19/5
f 7/20/6 13/21/6 15/22/6 5/23/6
